<?xml version="1.0" encoding="utf-8"?>
<svg xmlns="http://www.w3.org/2000/svg" xmlns:xlink="http://www.w3.org/1999/xlink" width="600" height="400" viewBox="0 0 2400 1600">
<defs>
  <clipPath id="clip780">
    <rect x="0" y="0" width="2400" height="1600"/>
  </clipPath>
</defs>
<path clip-path="url(#clip780)" d="M0 1600 L2400 1600 L2400 0 L0 0  Z" fill="#ffffff" fill-rule="evenodd" fill-opacity="1"/>
<defs>
  <clipPath id="clip781">
    <rect x="480" y="0" width="1681" height="1600"/>
  </clipPath>
</defs>
<path clip-path="url(#clip780)" d="M204.311 1423.18 L2352.76 1423.18 L2352.76 123.472 L204.311 123.472  Z" fill="#ffffff" fill-rule="evenodd" fill-opacity="1"/>
<defs>
  <clipPath id="clip782">
    <rect x="204" y="123" width="2149" height="1301"/>
  </clipPath>
</defs>
<polyline clip-path="url(#clip782)" style="stroke:#000000; stroke-linecap:round; stroke-linejoin:round; stroke-width:2; stroke-opacity:0.1; fill:none" points="264.102,1423.18 264.102,123.472 "/>
<polyline clip-path="url(#clip782)" style="stroke:#000000; stroke-linecap:round; stroke-linejoin:round; stroke-width:2; stroke-opacity:0.1; fill:none" points="771.064,1423.18 771.064,123.472 "/>
<polyline clip-path="url(#clip782)" style="stroke:#000000; stroke-linecap:round; stroke-linejoin:round; stroke-width:2; stroke-opacity:0.1; fill:none" points="1278.03,1423.18 1278.03,123.472 "/>
<polyline clip-path="url(#clip782)" style="stroke:#000000; stroke-linecap:round; stroke-linejoin:round; stroke-width:2; stroke-opacity:0.1; fill:none" points="1784.99,1423.18 1784.99,123.472 "/>
<polyline clip-path="url(#clip782)" style="stroke:#000000; stroke-linecap:round; stroke-linejoin:round; stroke-width:2; stroke-opacity:0.1; fill:none" points="2291.95,1423.18 2291.95,123.472 "/>
<polyline clip-path="url(#clip780)" style="stroke:#000000; stroke-linecap:round; stroke-linejoin:round; stroke-width:4; stroke-opacity:1; fill:none" points="204.311,1423.18 2352.76,1423.18 "/>
<polyline clip-path="url(#clip780)" style="stroke:#000000; stroke-linecap:round; stroke-linejoin:round; stroke-width:4; stroke-opacity:1; fill:none" points="264.102,1423.18 264.102,1404.28 "/>
<polyline clip-path="url(#clip780)" style="stroke:#000000; stroke-linecap:round; stroke-linejoin:round; stroke-width:4; stroke-opacity:1; fill:none" points="771.064,1423.18 771.064,1404.28 "/>
<polyline clip-path="url(#clip780)" style="stroke:#000000; stroke-linecap:round; stroke-linejoin:round; stroke-width:4; stroke-opacity:1; fill:none" points="1278.03,1423.18 1278.03,1404.28 "/>
<polyline clip-path="url(#clip780)" style="stroke:#000000; stroke-linecap:round; stroke-linejoin:round; stroke-width:4; stroke-opacity:1; fill:none" points="1784.99,1423.18 1784.99,1404.28 "/>
<polyline clip-path="url(#clip780)" style="stroke:#000000; stroke-linecap:round; stroke-linejoin:round; stroke-width:4; stroke-opacity:1; fill:none" points="2291.95,1423.18 2291.95,1404.28 "/>
<path clip-path="url(#clip780)" d="M264.102 1454.1 Q260.491 1454.1 258.662 1457.66 Q256.857 1461.2 256.857 1468.33 Q256.857 1475.44 258.662 1479.01 Q260.491 1482.55 264.102 1482.55 Q267.736 1482.55 269.542 1479.01 Q271.37 1475.44 271.37 1468.33 Q271.37 1461.2 269.542 1457.66 Q267.736 1454.1 264.102 1454.1 M264.102 1450.39 Q269.912 1450.39 272.968 1455 Q276.046 1459.58 276.046 1468.33 Q276.046 1477.06 272.968 1481.67 Q269.912 1486.25 264.102 1486.25 Q258.292 1486.25 255.213 1481.67 Q252.158 1477.06 252.158 1468.33 Q252.158 1459.58 255.213 1455 Q258.292 1450.39 264.102 1450.39 Z" fill="#000000" fill-rule="nonzero" fill-opacity="1" /><path clip-path="url(#clip780)" d="M730.682 1451.02 L749.039 1451.02 L749.039 1454.96 L734.965 1454.96 L734.965 1463.43 Q735.983 1463.08 737.002 1462.92 Q738.02 1462.73 739.039 1462.73 Q744.826 1462.73 748.205 1465.9 Q751.585 1469.08 751.585 1474.49 Q751.585 1480.07 748.113 1483.17 Q744.641 1486.25 738.321 1486.25 Q736.145 1486.25 733.877 1485.88 Q731.631 1485.51 729.224 1484.77 L729.224 1480.07 Q731.307 1481.2 733.53 1481.76 Q735.752 1482.32 738.229 1482.32 Q742.233 1482.32 744.571 1480.21 Q746.909 1478.1 746.909 1474.49 Q746.909 1470.88 744.571 1468.77 Q742.233 1466.67 738.229 1466.67 Q736.354 1466.67 734.479 1467.08 Q732.627 1467.5 730.682 1468.38 L730.682 1451.02 Z" fill="#000000" fill-rule="nonzero" fill-opacity="1" /><path clip-path="url(#clip780)" d="M770.798 1454.1 Q767.187 1454.1 765.358 1457.66 Q763.553 1461.2 763.553 1468.33 Q763.553 1475.44 765.358 1479.01 Q767.187 1482.55 770.798 1482.55 Q774.432 1482.55 776.238 1479.01 Q778.066 1475.44 778.066 1468.33 Q778.066 1461.2 776.238 1457.66 Q774.432 1454.1 770.798 1454.1 M770.798 1450.39 Q776.608 1450.39 779.664 1455 Q782.742 1459.58 782.742 1468.33 Q782.742 1477.06 779.664 1481.67 Q776.608 1486.25 770.798 1486.25 Q764.988 1486.25 761.909 1481.67 Q758.854 1477.06 758.854 1468.33 Q758.854 1459.58 761.909 1455 Q764.988 1450.39 770.798 1450.39 Z" fill="#000000" fill-rule="nonzero" fill-opacity="1" /><path clip-path="url(#clip780)" d="M800.96 1454.1 Q797.349 1454.1 795.52 1457.66 Q793.714 1461.2 793.714 1468.33 Q793.714 1475.44 795.52 1479.01 Q797.349 1482.55 800.96 1482.55 Q804.594 1482.55 806.4 1479.01 Q808.228 1475.44 808.228 1468.33 Q808.228 1461.2 806.4 1457.66 Q804.594 1454.1 800.96 1454.1 M800.96 1450.39 Q806.77 1450.39 809.826 1455 Q812.904 1459.58 812.904 1468.33 Q812.904 1477.06 809.826 1481.67 Q806.77 1486.25 800.96 1486.25 Q795.15 1486.25 792.071 1481.67 Q789.015 1477.06 789.015 1468.33 Q789.015 1459.58 792.071 1455 Q795.15 1450.39 800.96 1450.39 Z" fill="#000000" fill-rule="nonzero" fill-opacity="1" /><path clip-path="url(#clip780)" d="M1222.55 1481.64 L1230.19 1481.64 L1230.19 1455.28 L1221.88 1456.95 L1221.88 1452.69 L1230.14 1451.02 L1234.82 1451.02 L1234.82 1481.64 L1242.46 1481.64 L1242.46 1485.58 L1222.55 1485.58 L1222.55 1481.64 Z" fill="#000000" fill-rule="nonzero" fill-opacity="1" /><path clip-path="url(#clip780)" d="M1261.9 1454.1 Q1258.29 1454.1 1256.46 1457.66 Q1254.66 1461.2 1254.66 1468.33 Q1254.66 1475.44 1256.46 1479.01 Q1258.29 1482.55 1261.9 1482.55 Q1265.54 1482.55 1267.34 1479.01 Q1269.17 1475.44 1269.17 1468.33 Q1269.17 1461.2 1267.34 1457.66 Q1265.54 1454.1 1261.9 1454.1 M1261.9 1450.39 Q1267.71 1450.39 1270.77 1455 Q1273.85 1459.58 1273.85 1468.33 Q1273.85 1477.06 1270.77 1481.67 Q1267.71 1486.25 1261.9 1486.25 Q1256.09 1486.25 1253.01 1481.67 Q1249.96 1477.06 1249.96 1468.33 Q1249.96 1459.58 1253.01 1455 Q1256.09 1450.39 1261.9 1450.39 Z" fill="#000000" fill-rule="nonzero" fill-opacity="1" /><path clip-path="url(#clip780)" d="M1292.07 1454.1 Q1288.45 1454.1 1286.63 1457.66 Q1284.82 1461.2 1284.82 1468.33 Q1284.82 1475.44 1286.63 1479.01 Q1288.45 1482.55 1292.07 1482.55 Q1295.7 1482.55 1297.51 1479.01 Q1299.33 1475.44 1299.33 1468.33 Q1299.33 1461.2 1297.51 1457.66 Q1295.7 1454.1 1292.07 1454.1 M1292.07 1450.39 Q1297.88 1450.39 1300.93 1455 Q1304.01 1459.58 1304.01 1468.33 Q1304.01 1477.06 1300.93 1481.67 Q1297.88 1486.25 1292.07 1486.25 Q1286.26 1486.25 1283.18 1481.67 Q1280.12 1477.06 1280.12 1468.33 Q1280.12 1459.58 1283.18 1455 Q1286.26 1450.39 1292.07 1450.39 Z" fill="#000000" fill-rule="nonzero" fill-opacity="1" /><path clip-path="url(#clip780)" d="M1322.23 1454.1 Q1318.62 1454.1 1316.79 1457.66 Q1314.98 1461.2 1314.98 1468.33 Q1314.98 1475.44 1316.79 1479.01 Q1318.62 1482.55 1322.23 1482.55 Q1325.86 1482.55 1327.67 1479.01 Q1329.5 1475.44 1329.5 1468.33 Q1329.5 1461.2 1327.67 1457.66 Q1325.86 1454.1 1322.23 1454.1 M1322.23 1450.39 Q1328.04 1450.39 1331.09 1455 Q1334.17 1459.58 1334.17 1468.33 Q1334.17 1477.06 1331.09 1481.67 Q1328.04 1486.25 1322.23 1486.25 Q1316.42 1486.25 1313.34 1481.67 Q1310.28 1477.06 1310.28 1468.33 Q1310.28 1459.58 1313.34 1455 Q1316.42 1450.39 1322.23 1450.39 Z" fill="#000000" fill-rule="nonzero" fill-opacity="1" /><path clip-path="url(#clip780)" d="M1729.51 1481.64 L1737.15 1481.64 L1737.15 1455.28 L1728.84 1456.95 L1728.84 1452.69 L1737.11 1451.02 L1741.78 1451.02 L1741.78 1481.64 L1749.42 1481.64 L1749.42 1485.58 L1729.51 1485.58 L1729.51 1481.64 Z" fill="#000000" fill-rule="nonzero" fill-opacity="1" /><path clip-path="url(#clip780)" d="M1758.91 1451.02 L1777.27 1451.02 L1777.27 1454.96 L1763.19 1454.96 L1763.19 1463.43 Q1764.21 1463.08 1765.23 1462.92 Q1766.25 1462.73 1767.27 1462.73 Q1773.06 1462.73 1776.44 1465.9 Q1779.82 1469.08 1779.82 1474.49 Q1779.82 1480.07 1776.34 1483.17 Q1772.87 1486.25 1766.55 1486.25 Q1764.38 1486.25 1762.11 1485.88 Q1759.86 1485.51 1757.45 1484.77 L1757.45 1480.07 Q1759.54 1481.2 1761.76 1481.76 Q1763.98 1482.32 1766.46 1482.32 Q1770.46 1482.32 1772.8 1480.21 Q1775.14 1478.1 1775.14 1474.49 Q1775.14 1470.88 1772.8 1468.77 Q1770.46 1466.67 1766.46 1466.67 Q1764.58 1466.67 1762.71 1467.08 Q1760.86 1467.5 1758.91 1468.38 L1758.91 1451.02 Z" fill="#000000" fill-rule="nonzero" fill-opacity="1" /><path clip-path="url(#clip780)" d="M1799.03 1454.1 Q1795.42 1454.1 1793.59 1457.66 Q1791.78 1461.2 1791.78 1468.33 Q1791.78 1475.44 1793.59 1479.01 Q1795.42 1482.55 1799.03 1482.55 Q1802.66 1482.55 1804.47 1479.01 Q1806.3 1475.44 1806.3 1468.33 Q1806.3 1461.2 1804.47 1457.66 Q1802.66 1454.1 1799.03 1454.1 M1799.03 1450.39 Q1804.84 1450.39 1807.89 1455 Q1810.97 1459.58 1810.97 1468.33 Q1810.97 1477.06 1807.89 1481.67 Q1804.84 1486.25 1799.03 1486.25 Q1793.22 1486.25 1790.14 1481.67 Q1787.08 1477.06 1787.08 1468.33 Q1787.08 1459.58 1790.14 1455 Q1793.22 1450.39 1799.03 1450.39 Z" fill="#000000" fill-rule="nonzero" fill-opacity="1" /><path clip-path="url(#clip780)" d="M1829.19 1454.1 Q1825.58 1454.1 1823.75 1457.66 Q1821.94 1461.2 1821.94 1468.33 Q1821.94 1475.44 1823.75 1479.01 Q1825.58 1482.55 1829.19 1482.55 Q1832.82 1482.55 1834.63 1479.01 Q1836.46 1475.44 1836.46 1468.33 Q1836.46 1461.2 1834.63 1457.66 Q1832.82 1454.1 1829.19 1454.1 M1829.19 1450.39 Q1835 1450.39 1838.06 1455 Q1841.13 1459.58 1841.13 1468.33 Q1841.13 1477.06 1838.06 1481.67 Q1835 1486.25 1829.19 1486.25 Q1823.38 1486.25 1820.3 1481.67 Q1817.25 1477.06 1817.25 1468.33 Q1817.25 1459.58 1820.3 1455 Q1823.38 1450.39 1829.19 1450.39 Z" fill="#000000" fill-rule="nonzero" fill-opacity="1" /><path clip-path="url(#clip780)" d="M2240.56 1481.64 L2256.88 1481.64 L2256.88 1485.58 L2234.94 1485.58 L2234.94 1481.64 Q2237.6 1478.89 2242.18 1474.26 Q2246.79 1469.61 2247.97 1468.27 Q2250.21 1465.74 2251.09 1464.01 Q2252 1462.25 2252 1460.56 Q2252 1457.8 2250.05 1456.07 Q2248.13 1454.33 2245.03 1454.33 Q2242.83 1454.33 2240.38 1455.09 Q2237.95 1455.86 2235.17 1457.41 L2235.17 1452.69 Q2237.99 1451.55 2240.45 1450.97 Q2242.9 1450.39 2244.94 1450.39 Q2250.31 1450.39 2253.5 1453.08 Q2256.7 1455.77 2256.7 1460.26 Q2256.7 1462.39 2255.89 1464.31 Q2255.1 1466.2 2252.99 1468.8 Q2252.41 1469.47 2249.31 1472.69 Q2246.21 1475.88 2240.56 1481.64 Z" fill="#000000" fill-rule="nonzero" fill-opacity="1" /><path clip-path="url(#clip780)" d="M2276.7 1454.1 Q2273.09 1454.1 2271.26 1457.66 Q2269.45 1461.2 2269.45 1468.33 Q2269.45 1475.44 2271.26 1479.01 Q2273.09 1482.55 2276.7 1482.55 Q2280.33 1482.55 2282.14 1479.01 Q2283.96 1475.44 2283.96 1468.33 Q2283.96 1461.2 2282.14 1457.66 Q2280.33 1454.1 2276.7 1454.1 M2276.7 1450.39 Q2282.51 1450.39 2285.56 1455 Q2288.64 1459.58 2288.64 1468.33 Q2288.64 1477.06 2285.56 1481.67 Q2282.51 1486.25 2276.7 1486.25 Q2270.89 1486.25 2267.81 1481.67 Q2264.75 1477.06 2264.75 1468.33 Q2264.75 1459.58 2267.81 1455 Q2270.89 1450.39 2276.7 1450.39 Z" fill="#000000" fill-rule="nonzero" fill-opacity="1" /><path clip-path="url(#clip780)" d="M2306.86 1454.1 Q2303.25 1454.1 2301.42 1457.66 Q2299.61 1461.2 2299.61 1468.33 Q2299.61 1475.44 2301.42 1479.01 Q2303.25 1482.55 2306.86 1482.55 Q2310.49 1482.55 2312.3 1479.01 Q2314.13 1475.44 2314.13 1468.33 Q2314.13 1461.2 2312.3 1457.66 Q2310.49 1454.1 2306.86 1454.1 M2306.86 1450.39 Q2312.67 1450.39 2315.72 1455 Q2318.8 1459.58 2318.8 1468.33 Q2318.8 1477.06 2315.72 1481.67 Q2312.67 1486.25 2306.86 1486.25 Q2301.05 1486.25 2297.97 1481.67 Q2294.91 1477.06 2294.91 1468.33 Q2294.91 1459.58 2297.97 1455 Q2301.05 1450.39 2306.86 1450.39 Z" fill="#000000" fill-rule="nonzero" fill-opacity="1" /><path clip-path="url(#clip780)" d="M2337.02 1454.1 Q2333.41 1454.1 2331.58 1457.66 Q2329.77 1461.2 2329.77 1468.33 Q2329.77 1475.44 2331.58 1479.01 Q2333.41 1482.55 2337.02 1482.55 Q2340.65 1482.55 2342.46 1479.01 Q2344.29 1475.44 2344.29 1468.33 Q2344.29 1461.2 2342.46 1457.66 Q2340.65 1454.1 2337.02 1454.1 M2337.02 1450.39 Q2342.83 1450.39 2345.89 1455 Q2348.96 1459.58 2348.96 1468.33 Q2348.96 1477.06 2345.89 1481.67 Q2342.83 1486.25 2337.02 1486.25 Q2331.21 1486.25 2328.13 1481.67 Q2325.08 1477.06 2325.08 1468.33 Q2325.08 1459.58 2328.13 1455 Q2331.21 1450.39 2337.02 1450.39 Z" fill="#000000" fill-rule="nonzero" fill-opacity="1" /><path clip-path="url(#clip780)" d="M1260.55 1520.52 L1269.21 1520.52 L1290.28 1560.28 L1290.28 1520.52 L1296.52 1520.52 L1296.52 1568.04 L1287.86 1568.04 L1266.79 1528.29 L1266.79 1568.04 L1260.55 1568.04 L1260.55 1520.52 Z" fill="#000000" fill-rule="nonzero" fill-opacity="1" /><polyline clip-path="url(#clip782)" style="stroke:#000000; stroke-linecap:round; stroke-linejoin:round; stroke-width:2; stroke-opacity:0.1; fill:none" points="204.311,1295.35 2352.76,1295.35 "/>
<polyline clip-path="url(#clip782)" style="stroke:#000000; stroke-linecap:round; stroke-linejoin:round; stroke-width:2; stroke-opacity:0.1; fill:none" points="204.311,1010.2 2352.76,1010.2 "/>
<polyline clip-path="url(#clip782)" style="stroke:#000000; stroke-linecap:round; stroke-linejoin:round; stroke-width:2; stroke-opacity:0.1; fill:none" points="204.311,725.047 2352.76,725.047 "/>
<polyline clip-path="url(#clip782)" style="stroke:#000000; stroke-linecap:round; stroke-linejoin:round; stroke-width:2; stroke-opacity:0.1; fill:none" points="204.311,439.897 2352.76,439.897 "/>
<polyline clip-path="url(#clip782)" style="stroke:#000000; stroke-linecap:round; stroke-linejoin:round; stroke-width:2; stroke-opacity:0.1; fill:none" points="204.311,154.746 2352.76,154.746 "/>
<polyline clip-path="url(#clip780)" style="stroke:#000000; stroke-linecap:round; stroke-linejoin:round; stroke-width:4; stroke-opacity:1; fill:none" points="204.311,1423.18 204.311,123.472 "/>
<polyline clip-path="url(#clip780)" style="stroke:#000000; stroke-linecap:round; stroke-linejoin:round; stroke-width:4; stroke-opacity:1; fill:none" points="204.311,1295.35 223.208,1295.35 "/>
<polyline clip-path="url(#clip780)" style="stroke:#000000; stroke-linecap:round; stroke-linejoin:round; stroke-width:4; stroke-opacity:1; fill:none" points="204.311,1010.2 223.208,1010.2 "/>
<polyline clip-path="url(#clip780)" style="stroke:#000000; stroke-linecap:round; stroke-linejoin:round; stroke-width:4; stroke-opacity:1; fill:none" points="204.311,725.047 223.208,725.047 "/>
<polyline clip-path="url(#clip780)" style="stroke:#000000; stroke-linecap:round; stroke-linejoin:round; stroke-width:4; stroke-opacity:1; fill:none" points="204.311,439.897 223.208,439.897 "/>
<polyline clip-path="url(#clip780)" style="stroke:#000000; stroke-linecap:round; stroke-linejoin:round; stroke-width:4; stroke-opacity:1; fill:none" points="204.311,154.746 223.208,154.746 "/>
<path clip-path="url(#clip780)" d="M130.371 1293.99 Q133.728 1294.71 135.603 1296.98 Q137.501 1299.25 137.501 1302.58 Q137.501 1307.7 133.982 1310.5 Q130.464 1313.3 123.982 1313.3 Q121.806 1313.3 119.492 1312.86 Q117.2 1312.44 114.746 1311.59 L114.746 1307.07 Q116.691 1308.21 119.006 1308.79 Q121.32 1309.36 123.843 1309.36 Q128.242 1309.36 130.533 1307.63 Q132.848 1305.89 132.848 1302.58 Q132.848 1299.53 130.695 1297.81 Q128.566 1296.08 124.746 1296.08 L120.718 1296.08 L120.718 1292.24 L124.931 1292.24 Q128.38 1292.24 130.209 1290.87 Q132.038 1289.48 132.038 1286.89 Q132.038 1284.23 130.14 1282.81 Q128.265 1281.38 124.746 1281.38 Q122.825 1281.38 120.626 1281.8 Q118.427 1282.21 115.788 1283.09 L115.788 1278.93 Q118.45 1278.18 120.765 1277.81 Q123.103 1277.44 125.163 1277.44 Q130.487 1277.44 133.589 1279.87 Q136.691 1282.28 136.691 1286.4 Q136.691 1289.27 135.047 1291.26 Q133.404 1293.23 130.371 1293.99 Z" fill="#000000" fill-rule="nonzero" fill-opacity="1" /><path clip-path="url(#clip780)" d="M156.366 1281.15 Q152.755 1281.15 150.927 1284.71 Q149.121 1288.25 149.121 1295.38 Q149.121 1302.49 150.927 1306.05 Q152.755 1309.6 156.366 1309.6 Q160.001 1309.6 161.806 1306.05 Q163.635 1302.49 163.635 1295.38 Q163.635 1288.25 161.806 1284.71 Q160.001 1281.15 156.366 1281.15 M156.366 1277.44 Q162.177 1277.44 165.232 1282.05 Q168.311 1286.63 168.311 1295.38 Q168.311 1304.11 165.232 1308.72 Q162.177 1313.3 156.366 1313.3 Q150.556 1313.3 147.478 1308.72 Q144.422 1304.11 144.422 1295.38 Q144.422 1286.63 147.478 1282.05 Q150.556 1277.44 156.366 1277.44 Z" fill="#000000" fill-rule="nonzero" fill-opacity="1" /><path clip-path="url(#clip780)" d="M131.598 1008.84 Q134.954 1009.56 136.829 1011.83 Q138.728 1014.1 138.728 1017.43 Q138.728 1022.55 135.209 1025.35 Q131.691 1028.15 125.209 1028.15 Q123.033 1028.15 120.718 1027.71 Q118.427 1027.29 115.973 1026.44 L115.973 1021.92 Q117.918 1023.06 120.232 1023.64 Q122.547 1024.21 125.07 1024.21 Q129.468 1024.21 131.76 1022.48 Q134.075 1020.74 134.075 1017.43 Q134.075 1014.38 131.922 1012.66 Q129.792 1010.93 125.973 1010.93 L121.945 1010.93 L121.945 1007.08 L126.158 1007.08 Q129.607 1007.08 131.436 1005.72 Q133.265 1004.33 133.265 1001.74 Q133.265 999.075 131.367 997.663 Q129.492 996.228 125.973 996.228 Q124.052 996.228 121.853 996.645 Q119.654 997.061 117.015 997.941 L117.015 993.774 Q119.677 993.034 121.992 992.663 Q124.33 992.293 126.39 992.293 Q131.714 992.293 134.816 994.723 Q137.917 997.131 137.917 1001.25 Q137.917 1004.12 136.274 1006.11 Q134.63 1008.08 131.598 1008.84 Z" fill="#000000" fill-rule="nonzero" fill-opacity="1" /><path clip-path="url(#clip780)" d="M148.403 1023.54 L156.042 1023.54 L156.042 997.177 L147.732 998.844 L147.732 994.585 L155.996 992.918 L160.672 992.918 L160.672 1023.54 L168.311 1023.54 L168.311 1027.48 L148.403 1027.48 L148.403 1023.54 Z" fill="#000000" fill-rule="nonzero" fill-opacity="1" /><path clip-path="url(#clip780)" d="M131.968 723.693 Q135.325 724.411 137.2 726.679 Q139.098 728.948 139.098 732.281 Q139.098 737.397 135.579 740.198 Q132.061 742.999 125.58 742.999 Q123.404 742.999 121.089 742.559 Q118.797 742.142 116.343 741.286 L116.343 736.772 Q118.288 737.906 120.603 738.485 Q122.918 739.063 125.441 739.063 Q129.839 739.063 132.13 737.327 Q134.445 735.591 134.445 732.281 Q134.445 729.225 132.292 727.512 Q130.163 725.776 126.343 725.776 L122.316 725.776 L122.316 721.934 L126.529 721.934 Q129.978 721.934 131.806 720.568 Q133.635 719.179 133.635 716.587 Q133.635 713.925 131.737 712.513 Q129.862 711.077 126.343 711.077 Q124.422 711.077 122.223 711.494 Q120.024 711.911 117.385 712.79 L117.385 708.624 Q120.047 707.883 122.362 707.513 Q124.7 707.142 126.76 707.142 Q132.084 707.142 135.186 709.573 Q138.288 711.98 138.288 716.1 Q138.288 718.971 136.644 720.962 Q135.001 722.929 131.968 723.693 Z" fill="#000000" fill-rule="nonzero" fill-opacity="1" /><path clip-path="url(#clip780)" d="M151.991 738.392 L168.311 738.392 L168.311 742.327 L146.366 742.327 L146.366 738.392 Q149.028 735.637 153.612 731.008 Q158.218 726.355 159.399 725.012 Q161.644 722.489 162.524 720.753 Q163.427 718.994 163.427 717.304 Q163.427 714.55 161.482 712.813 Q159.561 711.077 156.459 711.077 Q154.26 711.077 151.806 711.841 Q149.376 712.605 146.598 714.156 L146.598 709.434 Q149.422 708.3 151.876 707.721 Q154.329 707.142 156.366 707.142 Q161.737 707.142 164.931 709.827 Q168.126 712.513 168.126 717.003 Q168.126 719.133 167.315 721.054 Q166.528 722.952 164.422 725.545 Q163.843 726.216 160.741 729.434 Q157.64 732.628 151.991 738.392 Z" fill="#000000" fill-rule="nonzero" fill-opacity="1" /><path clip-path="url(#clip780)" d="M131.019 438.542 Q134.376 439.26 136.251 441.528 Q138.149 443.797 138.149 447.13 Q138.149 452.246 134.63 455.047 Q131.112 457.848 124.63 457.848 Q122.455 457.848 120.14 457.408 Q117.848 456.991 115.394 456.135 L115.394 451.621 Q117.339 452.755 119.654 453.334 Q121.968 453.913 124.492 453.913 Q128.89 453.913 131.181 452.177 Q133.496 450.44 133.496 447.13 Q133.496 444.075 131.343 442.362 Q129.214 440.626 125.394 440.626 L121.367 440.626 L121.367 436.783 L125.58 436.783 Q129.029 436.783 130.857 435.417 Q132.686 434.029 132.686 431.436 Q132.686 428.774 130.788 427.362 Q128.913 425.927 125.394 425.927 Q123.473 425.927 121.274 426.343 Q119.075 426.76 116.436 427.64 L116.436 423.473 Q119.098 422.732 121.413 422.362 Q123.751 421.992 125.811 421.992 Q131.135 421.992 134.237 424.422 Q137.339 426.829 137.339 430.95 Q137.339 433.82 135.695 435.811 Q134.052 437.778 131.019 438.542 Z" fill="#000000" fill-rule="nonzero" fill-opacity="1" /><path clip-path="url(#clip780)" d="M161.181 438.542 Q164.538 439.26 166.413 441.528 Q168.311 443.797 168.311 447.13 Q168.311 452.246 164.792 455.047 Q161.274 457.848 154.792 457.848 Q152.616 457.848 150.302 457.408 Q148.01 456.991 145.556 456.135 L145.556 451.621 Q147.501 452.755 149.816 453.334 Q152.13 453.913 154.653 453.913 Q159.052 453.913 161.343 452.177 Q163.658 450.44 163.658 447.13 Q163.658 444.075 161.505 442.362 Q159.376 440.626 155.556 440.626 L151.528 440.626 L151.528 436.783 L155.741 436.783 Q159.19 436.783 161.019 435.417 Q162.848 434.029 162.848 431.436 Q162.848 428.774 160.95 427.362 Q159.075 425.927 155.556 425.927 Q153.635 425.927 151.436 426.343 Q149.237 426.76 146.598 427.64 L146.598 423.473 Q149.26 422.732 151.575 422.362 Q153.913 421.992 155.973 421.992 Q161.297 421.992 164.399 424.422 Q167.501 426.829 167.501 430.95 Q167.501 433.82 165.857 435.811 Q164.214 437.778 161.181 438.542 Z" fill="#000000" fill-rule="nonzero" fill-opacity="1" /><path clip-path="url(#clip780)" d="M129.885 153.392 Q133.242 154.109 135.117 156.378 Q137.015 158.646 137.015 161.98 Q137.015 167.095 133.496 169.896 Q129.978 172.697 123.496 172.697 Q121.32 172.697 119.006 172.257 Q116.714 171.841 114.26 170.984 L114.26 166.47 Q116.205 167.605 118.519 168.183 Q120.834 168.762 123.357 168.762 Q127.755 168.762 130.047 167.026 Q132.362 165.29 132.362 161.98 Q132.362 158.924 130.209 157.211 Q128.08 155.475 124.26 155.475 L120.232 155.475 L120.232 151.632 L124.445 151.632 Q127.894 151.632 129.723 150.267 Q131.552 148.878 131.552 146.285 Q131.552 143.623 129.654 142.211 Q127.779 140.776 124.26 140.776 Q122.339 140.776 120.14 141.193 Q117.941 141.609 115.302 142.489 L115.302 138.322 Q117.964 137.582 120.279 137.211 Q122.617 136.841 124.677 136.841 Q130.001 136.841 133.103 139.271 Q136.204 141.679 136.204 145.799 Q136.204 148.669 134.561 150.66 Q132.917 152.628 129.885 153.392 Z" fill="#000000" fill-rule="nonzero" fill-opacity="1" /><path clip-path="url(#clip780)" d="M158.728 141.54 L146.922 159.989 L158.728 159.989 L158.728 141.54 M157.501 137.466 L163.38 137.466 L163.38 159.989 L168.311 159.989 L168.311 163.878 L163.38 163.878 L163.38 172.026 L158.728 172.026 L158.728 163.878 L143.126 163.878 L143.126 159.364 L157.501 137.466 Z" fill="#000000" fill-rule="nonzero" fill-opacity="1" /><path clip-path="url(#clip780)" d="M16.4842 923.811 L16.4842 883.612 L21.895 883.612 L21.895 900.481 L64.0042 900.481 L64.0042 906.942 L21.895 906.942 L21.895 923.811 L16.4842 923.811 Z" fill="#000000" fill-rule="nonzero" fill-opacity="1" /><path clip-path="url(#clip780)" d="M28.3562 879.665 L28.3562 873.809 L64.0042 873.809 L64.0042 879.665 L28.3562 879.665 M14.479 879.665 L14.479 873.809 L21.895 873.809 L21.895 879.665 L14.479 879.665 Z" fill="#000000" fill-rule="nonzero" fill-opacity="1" /><path clip-path="url(#clip780)" d="M35.1993 833.8 Q31.2526 831.604 29.3747 828.548 Q27.4968 825.493 27.4968 821.355 Q27.4968 815.785 31.4117 812.762 Q35.2948 809.738 42.4881 809.738 L64.0042 809.738 L64.0042 815.626 L42.679 815.626 Q37.5546 815.626 35.072 817.44 Q32.5894 819.255 32.5894 822.978 Q32.5894 827.53 35.6131 830.172 Q38.6368 832.814 43.8567 832.814 L64.0042 832.814 L64.0042 838.702 L42.679 838.702 Q37.5228 838.702 35.072 840.516 Q32.5894 842.33 32.5894 846.118 Q32.5894 850.606 35.6449 853.247 Q38.6686 855.889 43.8567 855.889 L64.0042 855.889 L64.0042 861.777 L28.3562 861.777 L28.3562 855.889 L33.8944 855.889 Q30.616 853.884 29.0564 851.083 Q27.4968 848.282 27.4968 844.431 Q27.4968 840.548 29.4702 837.842 Q31.4436 835.105 35.1993 833.8 Z" fill="#000000" fill-rule="nonzero" fill-opacity="1" /><path clip-path="url(#clip780)" d="M44.7161 767.565 L47.5806 767.565 L47.5806 794.492 Q53.6281 794.11 56.8109 790.864 Q59.9619 787.585 59.9619 781.761 Q59.9619 778.387 59.1344 775.236 Q58.3069 772.053 56.6518 768.934 L62.1899 768.934 Q63.5267 772.085 64.227 775.395 Q64.9272 778.705 64.9272 782.111 Q64.9272 790.641 59.9619 795.638 Q54.9967 800.603 46.5303 800.603 Q37.7774 800.603 32.6531 795.892 Q27.4968 791.15 27.4968 783.129 Q27.4968 775.936 32.1438 771.766 Q36.7589 767.565 44.7161 767.565 M42.9973 773.421 Q38.1912 773.485 35.3266 776.127 Q32.4621 778.737 32.4621 783.066 Q32.4621 787.967 35.2312 790.927 Q38.0002 793.855 43.0292 794.301 L42.9973 773.421 Z" fill="#000000" fill-rule="nonzero" fill-opacity="1" /><path clip-path="url(#clip780)" d="M14.5426 723.164 Q21.8632 727.429 29.0246 729.498 Q36.186 731.567 43.5384 731.567 Q50.8908 731.567 58.1159 729.498 Q65.3091 727.397 72.5979 723.164 L72.5979 728.257 Q65.1182 733.031 57.8931 735.418 Q50.668 737.774 43.5384 737.774 Q36.4406 737.774 29.2474 735.418 Q22.0542 733.063 14.5426 728.257 L14.5426 723.164 Z" fill="#000000" fill-rule="nonzero" fill-opacity="1" /><path clip-path="url(#clip780)" d="M42.4881 682.169 L64.0042 682.169 L64.0042 688.026 L42.679 688.026 Q37.6183 688.026 35.1038 689.999 Q32.5894 691.972 32.5894 695.919 Q32.5894 700.661 35.6131 703.399 Q38.6368 706.136 43.8567 706.136 L64.0042 706.136 L64.0042 712.024 L28.3562 712.024 L28.3562 706.136 L33.8944 706.136 Q30.6797 704.035 29.0883 701.203 Q27.4968 698.338 27.4968 694.614 Q27.4968 688.471 31.3163 685.32 Q35.1038 682.169 42.4881 682.169 Z" fill="#000000" fill-rule="nonzero" fill-opacity="1" /><path clip-path="url(#clip780)" d="M29.4065 647.762 L34.9447 647.762 Q33.6716 650.245 33.035 652.919 Q32.3984 655.592 32.3984 658.457 Q32.3984 662.817 33.7352 665.013 Q35.072 667.178 37.7456 667.178 Q39.7826 667.178 40.9603 665.618 Q42.1061 664.059 43.1565 659.348 L43.6021 657.343 Q44.9389 651.104 47.3897 648.494 Q49.8086 645.853 54.1691 645.853 Q59.1344 645.853 62.0308 649.799 Q64.9272 653.714 64.9272 660.589 Q64.9272 663.454 64.3543 666.573 Q63.8132 669.66 62.6992 673.098 L56.6518 673.098 Q58.3387 669.851 59.198 666.7 Q60.0256 663.549 60.0256 660.462 Q60.0256 656.324 58.6251 654.096 Q57.1929 651.868 54.6147 651.868 Q52.2276 651.868 50.9545 653.492 Q49.6813 655.083 48.5037 660.526 L48.0262 662.563 Q46.8804 668.005 44.5251 670.424 Q42.138 672.843 38.0002 672.843 Q32.9713 672.843 30.2341 669.279 Q27.4968 665.714 27.4968 659.157 Q27.4968 655.911 27.9743 653.046 Q28.4517 650.181 29.4065 647.762 Z" fill="#000000" fill-rule="nonzero" fill-opacity="1" /><path clip-path="url(#clip780)" d="M14.5426 637.45 L14.5426 632.357 Q22.0542 627.583 29.2474 625.228 Q36.4406 622.841 43.5384 622.841 Q50.668 622.841 57.8931 625.228 Q65.1182 627.583 72.5979 632.357 L72.5979 637.45 Q65.3091 633.217 58.1159 631.148 Q50.8908 629.047 43.5384 629.047 Q36.186 629.047 29.0246 631.148 Q21.8632 633.217 14.5426 637.45 Z" fill="#000000" fill-rule="nonzero" fill-opacity="1" /><path clip-path="url(#clip780)" d="M684.914 12.096 L736.077 12.096 L736.077 18.9825 L714.607 18.9825 L714.607 72.576 L706.384 72.576 L706.384 18.9825 L684.914 18.9825 L684.914 12.096 Z" fill="#000000" fill-rule="nonzero" fill-opacity="1" /><path clip-path="url(#clip780)" d="M741.1 27.2059 L748.554 27.2059 L748.554 72.576 L741.1 72.576 L741.1 27.2059 M741.1 9.54393 L748.554 9.54393 L748.554 18.9825 L741.1 18.9825 L741.1 9.54393 Z" fill="#000000" fill-rule="nonzero" fill-opacity="1" /><path clip-path="url(#clip780)" d="M799.473 35.9153 Q802.269 30.8922 806.157 28.5022 Q810.046 26.1121 815.312 26.1121 Q822.402 26.1121 826.25 31.0947 Q830.098 36.0368 830.098 45.1919 L830.098 72.576 L822.604 72.576 L822.604 45.4349 Q822.604 38.913 820.295 35.7533 Q817.986 32.5936 813.246 32.5936 Q807.454 32.5936 804.091 36.4419 Q800.729 40.2903 800.729 46.9338 L800.729 72.576 L793.235 72.576 L793.235 45.4349 Q793.235 38.8725 790.926 35.7533 Q788.617 32.5936 783.796 32.5936 Q778.085 32.5936 774.722 36.4824 Q771.36 40.3308 771.36 46.9338 L771.36 72.576 L763.866 72.576 L763.866 27.2059 L771.36 27.2059 L771.36 34.2544 Q773.912 30.082 777.477 28.0971 Q781.042 26.1121 785.943 26.1121 Q790.885 26.1121 794.329 28.6237 Q797.813 31.1352 799.473 35.9153 Z" fill="#000000" fill-rule="nonzero" fill-opacity="1" /><path clip-path="url(#clip780)" d="M883.773 48.0275 L883.773 51.6733 L849.502 51.6733 Q849.988 59.3701 854.12 63.421 Q858.293 67.4314 865.706 67.4314 Q870 67.4314 874.01 66.3781 Q878.061 65.3249 882.031 63.2184 L882.031 70.267 Q878.02 71.9684 873.808 72.8596 Q869.595 73.7508 865.26 73.7508 Q854.404 73.7508 848.044 67.4314 Q841.724 61.1119 841.724 50.3365 Q841.724 39.1965 847.72 32.6746 Q853.756 26.1121 863.964 26.1121 Q873.119 26.1121 878.426 32.0264 Q883.773 37.9003 883.773 48.0275 M876.319 45.84 Q876.238 39.7232 872.876 36.0774 Q869.554 32.4315 864.045 32.4315 Q857.806 32.4315 854.039 35.9558 Q850.312 39.4801 849.745 45.8805 L876.319 45.84 Z" fill="#000000" fill-rule="nonzero" fill-opacity="1" /><path clip-path="url(#clip780)" d="M929.75 14.324 L929.75 27.2059 L945.103 27.2059 L945.103 32.9987 L929.75 32.9987 L929.75 57.6282 Q929.75 63.1779 931.249 64.7578 Q932.789 66.3376 937.447 66.3376 L945.103 66.3376 L945.103 72.576 L937.447 72.576 Q928.819 72.576 925.538 69.3758 Q922.256 66.1351 922.256 57.6282 L922.256 32.9987 L916.788 32.9987 L916.788 27.2059 L922.256 27.2059 L922.256 14.324 L929.75 14.324 Z" fill="#000000" fill-rule="nonzero" fill-opacity="1" /><path clip-path="url(#clip780)" d="M972.488 32.4315 Q966.492 32.4315 963.008 37.1306 Q959.525 41.7891 959.525 49.9314 Q959.525 58.0738 962.968 62.7728 Q966.452 67.4314 972.488 67.4314 Q978.442 67.4314 981.926 62.7323 Q985.41 58.0333 985.41 49.9314 Q985.41 41.8701 981.926 37.1711 Q978.442 32.4315 972.488 32.4315 M972.488 26.1121 Q982.21 26.1121 987.759 32.4315 Q993.309 38.7509 993.309 49.9314 Q993.309 61.0714 987.759 67.4314 Q982.21 73.7508 972.488 73.7508 Q962.725 73.7508 957.175 67.4314 Q951.666 61.0714 951.666 49.9314 Q951.666 38.7509 957.175 32.4315 Q962.725 26.1121 972.488 26.1121 Z" fill="#000000" fill-rule="nonzero" fill-opacity="1" /><path clip-path="url(#clip780)" d="M1064.69 28.9478 L1064.69 35.9153 Q1061.53 34.1734 1058.33 33.3227 Q1055.17 32.4315 1051.93 32.4315 Q1044.67 32.4315 1040.66 37.0496 Q1036.65 41.6271 1036.65 49.9314 Q1036.65 58.2358 1040.66 62.8538 Q1044.67 67.4314 1051.93 67.4314 Q1055.17 67.4314 1058.33 66.5807 Q1061.53 65.6895 1064.69 63.9476 L1064.69 70.8341 Q1061.57 72.2924 1058.2 73.0216 Q1054.88 73.7508 1051.12 73.7508 Q1040.87 73.7508 1034.83 67.3098 Q1028.8 60.8689 1028.8 49.9314 Q1028.8 38.832 1034.87 32.472 Q1040.99 26.1121 1051.6 26.1121 Q1055.04 26.1121 1058.33 26.8413 Q1061.61 27.5299 1064.69 28.9478 Z" fill="#000000" fill-rule="nonzero" fill-opacity="1" /><path clip-path="url(#clip780)" d="M1095.23 32.4315 Q1089.23 32.4315 1085.75 37.1306 Q1082.27 41.7891 1082.27 49.9314 Q1082.27 58.0738 1085.71 62.7728 Q1089.19 67.4314 1095.23 67.4314 Q1101.18 67.4314 1104.67 62.7323 Q1108.15 58.0333 1108.15 49.9314 Q1108.15 41.8701 1104.67 37.1711 Q1101.18 32.4315 1095.23 32.4315 M1095.23 26.1121 Q1104.95 26.1121 1110.5 32.4315 Q1116.05 38.7509 1116.05 49.9314 Q1116.05 61.0714 1110.5 67.4314 Q1104.95 73.7508 1095.23 73.7508 Q1085.47 73.7508 1079.92 67.4314 Q1074.41 61.0714 1074.41 49.9314 Q1074.41 38.7509 1079.92 32.4315 Q1085.47 26.1121 1095.23 26.1121 Z" fill="#000000" fill-rule="nonzero" fill-opacity="1" /><path clip-path="url(#clip780)" d="M1163.73 35.9153 Q1166.53 30.8922 1170.41 28.5022 Q1174.3 26.1121 1179.57 26.1121 Q1186.66 26.1121 1190.51 31.0947 Q1194.36 36.0368 1194.36 45.1919 L1194.36 72.576 L1186.86 72.576 L1186.86 45.4349 Q1186.86 38.913 1184.55 35.7533 Q1182.24 32.5936 1177.5 32.5936 Q1171.71 32.5936 1168.35 36.4419 Q1164.99 40.2903 1164.99 46.9338 L1164.99 72.576 L1157.49 72.576 L1157.49 45.4349 Q1157.49 38.8725 1155.18 35.7533 Q1152.87 32.5936 1148.05 32.5936 Q1142.34 32.5936 1138.98 36.4824 Q1135.62 40.3308 1135.62 46.9338 L1135.62 72.576 L1128.12 72.576 L1128.12 27.2059 L1135.62 27.2059 L1135.62 34.2544 Q1138.17 30.082 1141.73 28.0971 Q1145.3 26.1121 1150.2 26.1121 Q1155.14 26.1121 1158.59 28.6237 Q1162.07 31.1352 1163.73 35.9153 Z" fill="#000000" fill-rule="nonzero" fill-opacity="1" /><path clip-path="url(#clip780)" d="M1216.43 65.7705 L1216.43 89.8329 L1208.94 89.8329 L1208.94 27.2059 L1216.43 27.2059 L1216.43 34.0924 Q1218.78 30.0415 1222.35 28.0971 Q1225.95 26.1121 1230.94 26.1121 Q1239.2 26.1121 1244.34 32.6746 Q1249.53 39.2371 1249.53 49.9314 Q1249.53 60.6258 1244.34 67.1883 Q1239.2 73.7508 1230.94 73.7508 Q1225.95 73.7508 1222.35 71.8063 Q1218.78 69.8214 1216.43 65.7705 M1241.79 49.9314 Q1241.79 41.7081 1238.39 37.0496 Q1235.03 32.3505 1229.11 32.3505 Q1223.2 32.3505 1219.8 37.0496 Q1216.43 41.7081 1216.43 49.9314 Q1216.43 58.1548 1219.8 62.8538 Q1223.2 67.5124 1229.11 67.5124 Q1235.03 67.5124 1238.39 62.8538 Q1241.79 58.1548 1241.79 49.9314 Z" fill="#000000" fill-rule="nonzero" fill-opacity="1" /><path clip-path="url(#clip780)" d="M1261.11 54.671 L1261.11 27.2059 L1268.57 27.2059 L1268.57 54.3874 Q1268.57 60.8284 1271.08 64.0691 Q1273.59 67.2693 1278.61 67.2693 Q1284.65 67.2693 1288.13 63.421 Q1291.66 59.5726 1291.66 52.9291 L1291.66 27.2059 L1299.11 27.2059 L1299.11 72.576 L1291.66 72.576 L1291.66 65.6084 Q1288.94 69.7404 1285.34 71.7658 Q1281.77 73.7508 1277.03 73.7508 Q1269.22 73.7508 1265.17 68.8897 Q1261.11 64.0286 1261.11 54.671 M1279.87 26.1121 L1279.87 26.1121 Z" fill="#000000" fill-rule="nonzero" fill-opacity="1" /><path clip-path="url(#clip780)" d="M1321.84 14.324 L1321.84 27.2059 L1337.19 27.2059 L1337.19 32.9987 L1321.84 32.9987 L1321.84 57.6282 Q1321.84 63.1779 1323.34 64.7578 Q1324.88 66.3376 1329.53 66.3376 L1337.19 66.3376 L1337.19 72.576 L1329.53 72.576 Q1320.91 72.576 1317.62 69.3758 Q1314.34 66.1351 1314.34 57.6282 L1314.34 32.9987 L1308.87 32.9987 L1308.87 27.2059 L1314.34 27.2059 L1314.34 14.324 L1321.84 14.324 Z" fill="#000000" fill-rule="nonzero" fill-opacity="1" /><path clip-path="url(#clip780)" d="M1385.8 48.0275 L1385.8 51.6733 L1351.53 51.6733 Q1352.02 59.3701 1356.15 63.421 Q1360.32 67.4314 1367.73 67.4314 Q1372.03 67.4314 1376.04 66.3781 Q1380.09 65.3249 1384.06 63.2184 L1384.06 70.267 Q1380.05 71.9684 1375.84 72.8596 Q1371.62 73.7508 1367.29 73.7508 Q1356.43 73.7508 1350.07 67.4314 Q1343.75 61.1119 1343.75 50.3365 Q1343.75 39.1965 1349.75 32.6746 Q1355.78 26.1121 1365.99 26.1121 Q1375.15 26.1121 1380.45 32.0264 Q1385.8 37.9003 1385.8 48.0275 M1378.35 45.84 Q1378.27 39.7232 1374.9 36.0774 Q1371.58 32.4315 1366.07 32.4315 Q1359.83 32.4315 1356.07 35.9558 Q1352.34 39.4801 1351.77 45.8805 L1378.35 45.84 Z" fill="#000000" fill-rule="nonzero" fill-opacity="1" /><path clip-path="url(#clip780)" d="M1424.73 12.096 L1432.91 12.096 L1432.91 65.6895 L1462.36 65.6895 L1462.36 72.576 L1424.73 72.576 L1424.73 12.096 Z" fill="#000000" fill-rule="nonzero" fill-opacity="1" /><path clip-path="url(#clip780)" d="M1507.98 48.0275 L1507.98 51.6733 L1473.71 51.6733 Q1474.19 59.3701 1478.32 63.421 Q1482.5 67.4314 1489.91 67.4314 Q1494.2 67.4314 1498.21 66.3781 Q1502.26 65.3249 1506.23 63.2184 L1506.23 70.267 Q1502.22 71.9684 1498.01 72.8596 Q1493.8 73.7508 1489.46 73.7508 Q1478.61 73.7508 1472.25 67.4314 Q1465.93 61.1119 1465.93 50.3365 Q1465.93 39.1965 1471.92 32.6746 Q1477.96 26.1121 1488.17 26.1121 Q1497.32 26.1121 1502.63 32.0264 Q1507.98 37.9003 1507.98 48.0275 M1500.52 45.84 Q1500.44 39.7232 1497.08 36.0774 Q1493.76 32.4315 1488.25 32.4315 Q1482.01 32.4315 1478.24 35.9558 Q1474.52 39.4801 1473.95 45.8805 L1500.52 45.84 Z" fill="#000000" fill-rule="nonzero" fill-opacity="1" /><path clip-path="url(#clip780)" d="M1557.92 45.1919 L1557.92 72.576 L1550.47 72.576 L1550.47 45.4349 Q1550.47 38.994 1547.96 35.7938 Q1545.45 32.5936 1540.42 32.5936 Q1534.39 32.5936 1530.9 36.4419 Q1527.42 40.2903 1527.42 46.9338 L1527.42 72.576 L1519.93 72.576 L1519.93 27.2059 L1527.42 27.2059 L1527.42 34.2544 Q1530.09 30.163 1533.7 28.1376 Q1537.35 26.1121 1542.09 26.1121 Q1549.9 26.1121 1553.91 30.9732 Q1557.92 35.7938 1557.92 45.1919 Z" fill="#000000" fill-rule="nonzero" fill-opacity="1" /><path clip-path="url(#clip780)" d="M1602.65 49.3643 Q1602.65 41.2625 1599.28 36.8065 Q1595.96 32.3505 1589.93 32.3505 Q1583.93 32.3505 1580.57 36.8065 Q1577.25 41.2625 1577.25 49.3643 Q1577.25 57.4256 1580.57 61.8816 Q1583.93 66.3376 1589.93 66.3376 Q1595.96 66.3376 1599.28 61.8816 Q1602.65 57.4256 1602.65 49.3643 M1610.1 66.9452 Q1610.1 78.5308 1604.96 84.1616 Q1599.81 89.8329 1589.2 89.8329 Q1585.27 89.8329 1581.78 89.2252 Q1578.3 88.6581 1575.02 87.4428 L1575.02 80.1917 Q1578.3 81.9741 1581.5 82.8248 Q1584.7 83.6755 1588.02 83.6755 Q1595.35 83.6755 1599 79.8271 Q1602.65 76.0193 1602.65 68.282 L1602.65 64.5957 Q1600.34 68.6061 1596.73 70.5911 Q1593.13 72.576 1588.1 72.576 Q1579.76 72.576 1574.65 66.2161 Q1569.55 59.8562 1569.55 49.3643 Q1569.55 38.832 1574.65 32.472 Q1579.76 26.1121 1588.1 26.1121 Q1593.13 26.1121 1596.73 28.0971 Q1600.34 30.082 1602.65 34.0924 L1602.65 27.2059 L1610.1 27.2059 L1610.1 66.9452 Z" fill="#000000" fill-rule="nonzero" fill-opacity="1" /><path clip-path="url(#clip780)" d="M1632.83 14.324 L1632.83 27.2059 L1648.18 27.2059 L1648.18 32.9987 L1632.83 32.9987 L1632.83 57.6282 Q1632.83 63.1779 1634.32 64.7578 Q1635.86 66.3376 1640.52 66.3376 L1648.18 66.3376 L1648.18 72.576 L1640.52 72.576 Q1631.89 72.576 1628.61 69.3758 Q1625.33 66.1351 1625.33 57.6282 L1625.33 32.9987 L1619.86 32.9987 L1619.86 27.2059 L1625.33 27.2059 L1625.33 14.324 L1632.83 14.324 Z" fill="#000000" fill-rule="nonzero" fill-opacity="1" /><path clip-path="url(#clip780)" d="M1695.7 45.1919 L1695.7 72.576 L1688.24 72.576 L1688.24 45.4349 Q1688.24 38.994 1685.73 35.7938 Q1683.22 32.5936 1678.2 32.5936 Q1672.16 32.5936 1668.68 36.4419 Q1665.19 40.2903 1665.19 46.9338 L1665.19 72.576 L1657.7 72.576 L1657.7 9.54393 L1665.19 9.54393 L1665.19 34.2544 Q1667.87 30.163 1671.47 28.1376 Q1675.12 26.1121 1679.86 26.1121 Q1687.67 26.1121 1691.69 30.9732 Q1695.7 35.7938 1695.7 45.1919 Z" fill="#000000" fill-rule="nonzero" fill-opacity="1" /><path clip-path="url(#clip780)" d="M1737.26 12.096 L1745.44 12.096 L1745.44 65.6895 L1774.89 65.6895 L1774.89 72.576 L1737.26 72.576 L1737.26 12.096 Z" fill="#000000" fill-rule="nonzero" fill-opacity="1" /><path clip-path="url(#clip780)" d="M1783.15 27.2059 L1790.61 27.2059 L1790.61 72.576 L1783.15 72.576 L1783.15 27.2059 M1783.15 9.54393 L1790.61 9.54393 L1790.61 18.9825 L1783.15 18.9825 L1783.15 9.54393 Z" fill="#000000" fill-rule="nonzero" fill-opacity="1" /><path clip-path="url(#clip780)" d="M1835.13 28.5427 L1835.13 35.5912 Q1831.97 33.9709 1828.57 33.1607 Q1825.16 32.3505 1821.52 32.3505 Q1815.97 32.3505 1813.17 34.0519 Q1810.42 35.7533 1810.42 39.156 Q1810.42 41.7486 1812.4 43.2475 Q1814.39 44.7058 1820.38 46.0426 L1822.93 46.6097 Q1830.87 48.3111 1834.2 51.4303 Q1837.56 54.509 1837.56 60.0587 Q1837.56 66.3781 1832.54 70.0644 Q1827.55 73.7508 1818.8 73.7508 Q1815.16 73.7508 1811.19 73.0216 Q1807.26 72.3329 1802.88 70.9151 L1802.88 63.2184 Q1807.01 65.3654 1811.02 66.4591 Q1815.04 67.5124 1818.96 67.5124 Q1824.23 67.5124 1827.07 65.73 Q1829.9 63.9071 1829.9 60.6258 Q1829.9 57.5877 1827.84 55.9673 Q1825.81 54.3469 1818.88 52.8481 L1816.29 52.2405 Q1809.36 50.7821 1806.29 47.7845 Q1803.21 44.7463 1803.21 39.4801 Q1803.21 33.0797 1807.74 29.5959 Q1812.28 26.1121 1820.63 26.1121 Q1824.76 26.1121 1828.4 26.7198 Q1832.05 27.3274 1835.13 28.5427 Z" fill="#000000" fill-rule="nonzero" fill-opacity="1" /><path clip-path="url(#clip780)" d="M1856.8 14.324 L1856.8 27.2059 L1872.15 27.2059 L1872.15 32.9987 L1856.8 32.9987 L1856.8 57.6282 Q1856.8 63.1779 1858.3 64.7578 Q1859.84 66.3376 1864.5 66.3376 L1872.15 66.3376 L1872.15 72.576 L1864.5 72.576 Q1855.87 72.576 1852.59 69.3758 Q1849.31 66.1351 1849.31 57.6282 L1849.31 32.9987 L1843.84 32.9987 L1843.84 27.2059 L1849.31 27.2059 L1849.31 14.324 L1856.8 14.324 Z" fill="#000000" fill-rule="nonzero" fill-opacity="1" /><polyline clip-path="url(#clip782)" style="stroke:#009af9; stroke-linecap:round; stroke-linejoin:round; stroke-width:4; stroke-opacity:1; fill:none" points="265.116,1229.56 274.241,1246.67 314.798,1317.96 365.494,1041.37 416.191,1186.79 466.887,1386.4 517.583,165.959 568.279,659.266 618.975,1152.57 669.672,160.256 771.064,1058.47 1278.03,1063.69 2291.95,953.851 "/>
<circle clip-path="url(#clip782)" cx="265.116" cy="1229.56" r="14.4" fill="#e26f46" fill-rule="evenodd" fill-opacity="1" stroke="#000000" stroke-opacity="1" stroke-width="3.2"/>
<circle clip-path="url(#clip782)" cx="274.241" cy="1246.67" r="14.4" fill="#e26f46" fill-rule="evenodd" fill-opacity="1" stroke="#000000" stroke-opacity="1" stroke-width="3.2"/>
<circle clip-path="url(#clip782)" cx="314.798" cy="1317.96" r="14.4" fill="#e26f46" fill-rule="evenodd" fill-opacity="1" stroke="#000000" stroke-opacity="1" stroke-width="3.2"/>
<circle clip-path="url(#clip782)" cx="365.494" cy="1041.37" r="14.4" fill="#e26f46" fill-rule="evenodd" fill-opacity="1" stroke="#000000" stroke-opacity="1" stroke-width="3.2"/>
<circle clip-path="url(#clip782)" cx="416.191" cy="1186.79" r="14.4" fill="#e26f46" fill-rule="evenodd" fill-opacity="1" stroke="#000000" stroke-opacity="1" stroke-width="3.2"/>
<circle clip-path="url(#clip782)" cx="466.887" cy="1386.4" r="14.4" fill="#e26f46" fill-rule="evenodd" fill-opacity="1" stroke="#000000" stroke-opacity="1" stroke-width="3.2"/>
<circle clip-path="url(#clip782)" cx="517.583" cy="165.959" r="14.4" fill="#e26f46" fill-rule="evenodd" fill-opacity="1" stroke="#000000" stroke-opacity="1" stroke-width="3.2"/>
<circle clip-path="url(#clip782)" cx="568.279" cy="659.266" r="14.4" fill="#e26f46" fill-rule="evenodd" fill-opacity="1" stroke="#000000" stroke-opacity="1" stroke-width="3.2"/>
<circle clip-path="url(#clip782)" cx="618.975" cy="1152.57" r="14.4" fill="#e26f46" fill-rule="evenodd" fill-opacity="1" stroke="#000000" stroke-opacity="1" stroke-width="3.2"/>
<circle clip-path="url(#clip782)" cx="669.672" cy="160.256" r="14.4" fill="#e26f46" fill-rule="evenodd" fill-opacity="1" stroke="#000000" stroke-opacity="1" stroke-width="3.2"/>
<circle clip-path="url(#clip782)" cx="771.064" cy="1058.47" r="14.4" fill="#e26f46" fill-rule="evenodd" fill-opacity="1" stroke="#000000" stroke-opacity="1" stroke-width="3.2"/>
<circle clip-path="url(#clip782)" cx="1278.03" cy="1063.69" r="14.4" fill="#e26f46" fill-rule="evenodd" fill-opacity="1" stroke="#000000" stroke-opacity="1" stroke-width="3.2"/>
<circle clip-path="url(#clip782)" cx="2291.95" cy="953.851" r="14.4" fill="#e26f46" fill-rule="evenodd" fill-opacity="1" stroke="#000000" stroke-opacity="1" stroke-width="3.2"/>
</svg>
