<?xml version="1.0" encoding="utf-8"?>
<svg xmlns="http://www.w3.org/2000/svg" xmlns:xlink="http://www.w3.org/1999/xlink" width="600" height="400" viewBox="0 0 2400 1600">
<defs>
  <clipPath id="clip550">
    <rect x="0" y="0" width="2400" height="1600"/>
  </clipPath>
</defs>
<path clip-path="url(#clip550)" d="M0 1600 L2400 1600 L2400 0 L0 0  Z" fill="#ffffff" fill-rule="evenodd" fill-opacity="1"/>
<defs>
  <clipPath id="clip551">
    <rect x="480" y="0" width="1681" height="1600"/>
  </clipPath>
</defs>
<path clip-path="url(#clip550)" d="M340.699 1423.18 L2352.76 1423.18 L2352.76 123.472 L340.699 123.472  Z" fill="#ffffff" fill-rule="evenodd" fill-opacity="1"/>
<defs>
  <clipPath id="clip552">
    <rect x="340" y="123" width="2013" height="1301"/>
  </clipPath>
</defs>
<polyline clip-path="url(#clip552)" style="stroke:#000000; stroke-linecap:round; stroke-linejoin:round; stroke-width:2; stroke-opacity:0.1; fill:none" points="396.694,1423.18 396.694,123.472 "/>
<polyline clip-path="url(#clip552)" style="stroke:#000000; stroke-linecap:round; stroke-linejoin:round; stroke-width:2; stroke-opacity:0.1; fill:none" points="871.474,1423.18 871.474,123.472 "/>
<polyline clip-path="url(#clip552)" style="stroke:#000000; stroke-linecap:round; stroke-linejoin:round; stroke-width:2; stroke-opacity:0.1; fill:none" points="1346.25,1423.18 1346.25,123.472 "/>
<polyline clip-path="url(#clip552)" style="stroke:#000000; stroke-linecap:round; stroke-linejoin:round; stroke-width:2; stroke-opacity:0.1; fill:none" points="1821.03,1423.18 1821.03,123.472 "/>
<polyline clip-path="url(#clip552)" style="stroke:#000000; stroke-linecap:round; stroke-linejoin:round; stroke-width:2; stroke-opacity:0.1; fill:none" points="2295.81,1423.18 2295.81,123.472 "/>
<polyline clip-path="url(#clip550)" style="stroke:#000000; stroke-linecap:round; stroke-linejoin:round; stroke-width:4; stroke-opacity:1; fill:none" points="340.699,1423.18 2352.76,1423.18 "/>
<polyline clip-path="url(#clip550)" style="stroke:#000000; stroke-linecap:round; stroke-linejoin:round; stroke-width:4; stroke-opacity:1; fill:none" points="396.694,1423.18 396.694,1404.28 "/>
<polyline clip-path="url(#clip550)" style="stroke:#000000; stroke-linecap:round; stroke-linejoin:round; stroke-width:4; stroke-opacity:1; fill:none" points="871.474,1423.18 871.474,1404.28 "/>
<polyline clip-path="url(#clip550)" style="stroke:#000000; stroke-linecap:round; stroke-linejoin:round; stroke-width:4; stroke-opacity:1; fill:none" points="1346.25,1423.18 1346.25,1404.28 "/>
<polyline clip-path="url(#clip550)" style="stroke:#000000; stroke-linecap:round; stroke-linejoin:round; stroke-width:4; stroke-opacity:1; fill:none" points="1821.03,1423.18 1821.03,1404.28 "/>
<polyline clip-path="url(#clip550)" style="stroke:#000000; stroke-linecap:round; stroke-linejoin:round; stroke-width:4; stroke-opacity:1; fill:none" points="2295.81,1423.18 2295.81,1404.28 "/>
<path clip-path="url(#clip550)" d="M396.694 1454.1 Q393.083 1454.1 391.255 1457.66 Q389.449 1461.2 389.449 1468.33 Q389.449 1475.44 391.255 1479.01 Q393.083 1482.55 396.694 1482.55 Q400.329 1482.55 402.134 1479.01 Q403.963 1475.44 403.963 1468.33 Q403.963 1461.2 402.134 1457.66 Q400.329 1454.1 396.694 1454.1 M396.694 1450.39 Q402.505 1450.39 405.56 1455 Q408.639 1459.58 408.639 1468.33 Q408.639 1477.06 405.56 1481.67 Q402.505 1486.25 396.694 1486.25 Q390.884 1486.25 387.806 1481.67 Q384.75 1477.06 384.75 1468.33 Q384.75 1459.58 387.806 1455 Q390.884 1450.39 396.694 1450.39 Z" fill="#000000" fill-rule="nonzero" fill-opacity="1" /><path clip-path="url(#clip550)" d="M831.092 1451.02 L849.448 1451.02 L849.448 1454.96 L835.374 1454.96 L835.374 1463.43 Q836.393 1463.08 837.411 1462.92 Q838.43 1462.73 839.448 1462.73 Q845.235 1462.73 848.615 1465.9 Q851.994 1469.08 851.994 1474.49 Q851.994 1480.07 848.522 1483.17 Q845.05 1486.25 838.731 1486.25 Q836.555 1486.25 834.286 1485.88 Q832.041 1485.51 829.633 1484.77 L829.633 1480.07 Q831.717 1481.2 833.939 1481.76 Q836.161 1482.32 838.638 1482.32 Q842.643 1482.32 844.981 1480.21 Q847.319 1478.1 847.319 1474.49 Q847.319 1470.88 844.981 1468.77 Q842.643 1466.67 838.638 1466.67 Q836.763 1466.67 834.888 1467.08 Q833.036 1467.5 831.092 1468.38 L831.092 1451.02 Z" fill="#000000" fill-rule="nonzero" fill-opacity="1" /><path clip-path="url(#clip550)" d="M871.207 1454.1 Q867.596 1454.1 865.768 1457.66 Q863.962 1461.2 863.962 1468.33 Q863.962 1475.44 865.768 1479.01 Q867.596 1482.55 871.207 1482.55 Q874.842 1482.55 876.647 1479.01 Q878.476 1475.44 878.476 1468.33 Q878.476 1461.2 876.647 1457.66 Q874.842 1454.1 871.207 1454.1 M871.207 1450.39 Q877.017 1450.39 880.073 1455 Q883.152 1459.58 883.152 1468.33 Q883.152 1477.06 880.073 1481.67 Q877.017 1486.25 871.207 1486.25 Q865.397 1486.25 862.318 1481.67 Q859.263 1477.06 859.263 1468.33 Q859.263 1459.58 862.318 1455 Q865.397 1450.39 871.207 1450.39 Z" fill="#000000" fill-rule="nonzero" fill-opacity="1" /><path clip-path="url(#clip550)" d="M901.369 1454.1 Q897.758 1454.1 895.929 1457.66 Q894.124 1461.2 894.124 1468.33 Q894.124 1475.44 895.929 1479.01 Q897.758 1482.55 901.369 1482.55 Q905.003 1482.55 906.809 1479.01 Q908.638 1475.44 908.638 1468.33 Q908.638 1461.2 906.809 1457.66 Q905.003 1454.1 901.369 1454.1 M901.369 1450.39 Q907.179 1450.39 910.235 1455 Q913.314 1459.58 913.314 1468.33 Q913.314 1477.06 910.235 1481.67 Q907.179 1486.25 901.369 1486.25 Q895.559 1486.25 892.48 1481.67 Q889.425 1477.06 889.425 1468.33 Q889.425 1459.58 892.48 1455 Q895.559 1450.39 901.369 1450.39 Z" fill="#000000" fill-rule="nonzero" fill-opacity="1" /><path clip-path="url(#clip550)" d="M1290.78 1481.64 L1298.42 1481.64 L1298.42 1455.28 L1290.11 1456.95 L1290.11 1452.69 L1298.37 1451.02 L1303.05 1451.02 L1303.05 1481.64 L1310.69 1481.64 L1310.69 1485.58 L1290.78 1485.58 L1290.78 1481.64 Z" fill="#000000" fill-rule="nonzero" fill-opacity="1" /><path clip-path="url(#clip550)" d="M1330.13 1454.1 Q1326.52 1454.1 1324.69 1457.66 Q1322.88 1461.2 1322.88 1468.33 Q1322.88 1475.44 1324.69 1479.01 Q1326.52 1482.55 1330.13 1482.55 Q1333.76 1482.55 1335.57 1479.01 Q1337.4 1475.44 1337.4 1468.33 Q1337.4 1461.2 1335.57 1457.66 Q1333.76 1454.1 1330.13 1454.1 M1330.13 1450.39 Q1335.94 1450.39 1339 1455 Q1342.07 1459.58 1342.07 1468.33 Q1342.07 1477.06 1339 1481.67 Q1335.94 1486.25 1330.13 1486.25 Q1324.32 1486.25 1321.24 1481.67 Q1318.19 1477.06 1318.19 1468.33 Q1318.19 1459.58 1321.24 1455 Q1324.32 1450.39 1330.13 1450.39 Z" fill="#000000" fill-rule="nonzero" fill-opacity="1" /><path clip-path="url(#clip550)" d="M1360.29 1454.1 Q1356.68 1454.1 1354.85 1457.66 Q1353.05 1461.2 1353.05 1468.33 Q1353.05 1475.44 1354.85 1479.01 Q1356.68 1482.55 1360.29 1482.55 Q1363.93 1482.55 1365.73 1479.01 Q1367.56 1475.44 1367.56 1468.33 Q1367.56 1461.2 1365.73 1457.66 Q1363.93 1454.1 1360.29 1454.1 M1360.29 1450.39 Q1366.1 1450.39 1369.16 1455 Q1372.24 1459.58 1372.24 1468.33 Q1372.24 1477.06 1369.16 1481.67 Q1366.1 1486.25 1360.29 1486.25 Q1354.48 1486.25 1351.4 1481.67 Q1348.35 1477.06 1348.35 1468.33 Q1348.35 1459.58 1351.4 1455 Q1354.48 1450.39 1360.29 1450.39 Z" fill="#000000" fill-rule="nonzero" fill-opacity="1" /><path clip-path="url(#clip550)" d="M1390.45 1454.1 Q1386.84 1454.1 1385.01 1457.66 Q1383.21 1461.2 1383.21 1468.33 Q1383.21 1475.44 1385.01 1479.01 Q1386.84 1482.55 1390.45 1482.55 Q1394.09 1482.55 1395.89 1479.01 Q1397.72 1475.44 1397.72 1468.33 Q1397.72 1461.2 1395.89 1457.66 Q1394.09 1454.1 1390.45 1454.1 M1390.45 1450.39 Q1396.26 1450.39 1399.32 1455 Q1402.4 1459.58 1402.4 1468.33 Q1402.4 1477.06 1399.32 1481.67 Q1396.26 1486.25 1390.45 1486.25 Q1384.64 1486.25 1381.56 1481.67 Q1378.51 1477.06 1378.51 1468.33 Q1378.51 1459.58 1381.56 1455 Q1384.64 1450.39 1390.45 1450.39 Z" fill="#000000" fill-rule="nonzero" fill-opacity="1" /><path clip-path="url(#clip550)" d="M1765.56 1481.64 L1773.2 1481.64 L1773.2 1455.28 L1764.89 1456.95 L1764.89 1452.69 L1773.15 1451.02 L1777.83 1451.02 L1777.83 1481.64 L1785.46 1481.64 L1785.46 1485.58 L1765.56 1485.58 L1765.56 1481.64 Z" fill="#000000" fill-rule="nonzero" fill-opacity="1" /><path clip-path="url(#clip550)" d="M1794.96 1451.02 L1813.31 1451.02 L1813.31 1454.96 L1799.24 1454.96 L1799.24 1463.43 Q1800.26 1463.08 1801.27 1462.92 Q1802.29 1462.73 1803.31 1462.73 Q1809.1 1462.73 1812.48 1465.9 Q1815.86 1469.08 1815.86 1474.49 Q1815.86 1480.07 1812.39 1483.17 Q1808.91 1486.25 1802.59 1486.25 Q1800.42 1486.25 1798.15 1485.88 Q1795.9 1485.51 1793.5 1484.77 L1793.5 1480.07 Q1795.58 1481.2 1797.8 1481.76 Q1800.02 1482.32 1802.5 1482.32 Q1806.51 1482.32 1808.84 1480.21 Q1811.18 1478.1 1811.18 1474.49 Q1811.18 1470.88 1808.84 1468.77 Q1806.51 1466.67 1802.5 1466.67 Q1800.63 1466.67 1798.75 1467.08 Q1796.9 1467.5 1794.96 1468.38 L1794.96 1451.02 Z" fill="#000000" fill-rule="nonzero" fill-opacity="1" /><path clip-path="url(#clip550)" d="M1835.07 1454.1 Q1831.46 1454.1 1829.63 1457.66 Q1827.83 1461.2 1827.83 1468.33 Q1827.83 1475.44 1829.63 1479.01 Q1831.46 1482.55 1835.07 1482.55 Q1838.71 1482.55 1840.51 1479.01 Q1842.34 1475.44 1842.34 1468.33 Q1842.34 1461.2 1840.51 1457.66 Q1838.71 1454.1 1835.07 1454.1 M1835.07 1450.39 Q1840.88 1450.39 1843.94 1455 Q1847.02 1459.58 1847.02 1468.33 Q1847.02 1477.06 1843.94 1481.67 Q1840.88 1486.25 1835.07 1486.25 Q1829.26 1486.25 1826.18 1481.67 Q1823.13 1477.06 1823.13 1468.33 Q1823.13 1459.58 1826.18 1455 Q1829.26 1450.39 1835.07 1450.39 Z" fill="#000000" fill-rule="nonzero" fill-opacity="1" /><path clip-path="url(#clip550)" d="M1865.23 1454.1 Q1861.62 1454.1 1859.79 1457.66 Q1857.99 1461.2 1857.99 1468.33 Q1857.99 1475.44 1859.79 1479.01 Q1861.62 1482.55 1865.23 1482.55 Q1868.87 1482.55 1870.67 1479.01 Q1872.5 1475.44 1872.5 1468.33 Q1872.5 1461.2 1870.67 1457.66 Q1868.87 1454.1 1865.23 1454.1 M1865.23 1450.39 Q1871.04 1450.39 1874.1 1455 Q1877.18 1459.58 1877.18 1468.33 Q1877.18 1477.06 1874.1 1481.67 Q1871.04 1486.25 1865.23 1486.25 Q1859.42 1486.25 1856.34 1481.67 Q1853.29 1477.06 1853.29 1468.33 Q1853.29 1459.58 1856.34 1455 Q1859.42 1450.39 1865.23 1450.39 Z" fill="#000000" fill-rule="nonzero" fill-opacity="1" /><path clip-path="url(#clip550)" d="M2244.42 1481.64 L2260.74 1481.64 L2260.74 1485.58 L2238.8 1485.58 L2238.8 1481.64 Q2241.46 1478.89 2246.04 1474.26 Q2250.65 1469.61 2251.83 1468.27 Q2254.08 1465.74 2254.95 1464.01 Q2255.86 1462.25 2255.86 1460.56 Q2255.86 1457.8 2253.91 1456.07 Q2251.99 1454.33 2248.89 1454.33 Q2246.69 1454.33 2244.24 1455.09 Q2241.81 1455.86 2239.03 1457.41 L2239.03 1452.69 Q2241.85 1451.55 2244.31 1450.97 Q2246.76 1450.39 2248.8 1450.39 Q2254.17 1450.39 2257.36 1453.08 Q2260.56 1455.77 2260.56 1460.26 Q2260.56 1462.39 2259.75 1464.31 Q2258.96 1466.2 2256.85 1468.8 Q2256.27 1469.47 2253.17 1472.69 Q2250.07 1475.88 2244.42 1481.64 Z" fill="#000000" fill-rule="nonzero" fill-opacity="1" /><path clip-path="url(#clip550)" d="M2280.56 1454.1 Q2276.95 1454.1 2275.12 1457.66 Q2273.31 1461.2 2273.31 1468.33 Q2273.31 1475.44 2275.12 1479.01 Q2276.95 1482.55 2280.56 1482.55 Q2284.19 1482.55 2286 1479.01 Q2287.82 1475.44 2287.82 1468.33 Q2287.82 1461.2 2286 1457.66 Q2284.19 1454.1 2280.56 1454.1 M2280.56 1450.39 Q2286.37 1450.39 2289.42 1455 Q2292.5 1459.58 2292.5 1468.33 Q2292.5 1477.06 2289.42 1481.67 Q2286.37 1486.25 2280.56 1486.25 Q2274.75 1486.25 2271.67 1481.67 Q2268.61 1477.06 2268.61 1468.33 Q2268.61 1459.58 2271.67 1455 Q2274.75 1450.39 2280.56 1450.39 Z" fill="#000000" fill-rule="nonzero" fill-opacity="1" /><path clip-path="url(#clip550)" d="M2310.72 1454.1 Q2307.11 1454.1 2305.28 1457.66 Q2303.47 1461.2 2303.47 1468.33 Q2303.47 1475.44 2305.28 1479.01 Q2307.11 1482.55 2310.72 1482.55 Q2314.35 1482.55 2316.16 1479.01 Q2317.99 1475.44 2317.99 1468.33 Q2317.99 1461.2 2316.16 1457.66 Q2314.35 1454.1 2310.72 1454.1 M2310.72 1450.39 Q2316.53 1450.39 2319.58 1455 Q2322.66 1459.58 2322.66 1468.33 Q2322.66 1477.06 2319.58 1481.67 Q2316.53 1486.25 2310.72 1486.25 Q2304.91 1486.25 2301.83 1481.67 Q2298.77 1477.06 2298.77 1468.33 Q2298.77 1459.58 2301.83 1455 Q2304.91 1450.39 2310.72 1450.39 Z" fill="#000000" fill-rule="nonzero" fill-opacity="1" /><path clip-path="url(#clip550)" d="M2340.88 1454.1 Q2337.27 1454.1 2335.44 1457.66 Q2333.63 1461.2 2333.63 1468.33 Q2333.63 1475.44 2335.44 1479.01 Q2337.27 1482.55 2340.88 1482.55 Q2344.51 1482.55 2346.32 1479.01 Q2348.15 1475.44 2348.15 1468.33 Q2348.15 1461.2 2346.32 1457.66 Q2344.51 1454.1 2340.88 1454.1 M2340.88 1450.39 Q2346.69 1450.39 2349.75 1455 Q2352.82 1459.58 2352.82 1468.33 Q2352.82 1477.06 2349.75 1481.67 Q2346.69 1486.25 2340.88 1486.25 Q2335.07 1486.25 2331.99 1481.67 Q2328.94 1477.06 2328.94 1468.33 Q2328.94 1459.58 2331.99 1455 Q2335.07 1450.39 2340.88 1450.39 Z" fill="#000000" fill-rule="nonzero" fill-opacity="1" /><path clip-path="url(#clip550)" d="M1328.74 1520.52 L1337.4 1520.52 L1358.47 1560.28 L1358.47 1520.52 L1364.71 1520.52 L1364.71 1568.04 L1356.05 1568.04 L1334.98 1528.29 L1334.98 1568.04 L1328.74 1568.04 L1328.74 1520.52 Z" fill="#000000" fill-rule="nonzero" fill-opacity="1" /><polyline clip-path="url(#clip552)" style="stroke:#000000; stroke-linecap:round; stroke-linejoin:round; stroke-width:2; stroke-opacity:0.1; fill:none" points="340.699,1387.32 2352.76,1387.32 "/>
<polyline clip-path="url(#clip552)" style="stroke:#000000; stroke-linecap:round; stroke-linejoin:round; stroke-width:2; stroke-opacity:0.1; fill:none" points="340.699,1073.8 2352.76,1073.8 "/>
<polyline clip-path="url(#clip552)" style="stroke:#000000; stroke-linecap:round; stroke-linejoin:round; stroke-width:2; stroke-opacity:0.1; fill:none" points="340.699,760.281 2352.76,760.281 "/>
<polyline clip-path="url(#clip552)" style="stroke:#000000; stroke-linecap:round; stroke-linejoin:round; stroke-width:2; stroke-opacity:0.1; fill:none" points="340.699,446.761 2352.76,446.761 "/>
<polyline clip-path="url(#clip552)" style="stroke:#000000; stroke-linecap:round; stroke-linejoin:round; stroke-width:2; stroke-opacity:0.1; fill:none" points="340.699,133.241 2352.76,133.241 "/>
<polyline clip-path="url(#clip550)" style="stroke:#000000; stroke-linecap:round; stroke-linejoin:round; stroke-width:4; stroke-opacity:1; fill:none" points="340.699,1423.18 340.699,123.472 "/>
<polyline clip-path="url(#clip550)" style="stroke:#000000; stroke-linecap:round; stroke-linejoin:round; stroke-width:4; stroke-opacity:1; fill:none" points="340.699,1387.32 359.597,1387.32 "/>
<polyline clip-path="url(#clip550)" style="stroke:#000000; stroke-linecap:round; stroke-linejoin:round; stroke-width:4; stroke-opacity:1; fill:none" points="340.699,1073.8 359.597,1073.8 "/>
<polyline clip-path="url(#clip550)" style="stroke:#000000; stroke-linecap:round; stroke-linejoin:round; stroke-width:4; stroke-opacity:1; fill:none" points="340.699,760.281 359.597,760.281 "/>
<polyline clip-path="url(#clip550)" style="stroke:#000000; stroke-linecap:round; stroke-linejoin:round; stroke-width:4; stroke-opacity:1; fill:none" points="340.699,446.761 359.597,446.761 "/>
<polyline clip-path="url(#clip550)" style="stroke:#000000; stroke-linecap:round; stroke-linejoin:round; stroke-width:4; stroke-opacity:1; fill:none" points="340.699,133.241 359.597,133.241 "/>
<path clip-path="url(#clip550)" d="M292.755 1373.12 Q289.143 1373.12 287.315 1376.68 Q285.509 1380.23 285.509 1387.35 Q285.509 1394.46 287.315 1398.03 Q289.143 1401.57 292.755 1401.57 Q296.389 1401.57 298.194 1398.03 Q300.023 1394.46 300.023 1387.35 Q300.023 1380.23 298.194 1376.68 Q296.389 1373.12 292.755 1373.12 M292.755 1369.41 Q298.565 1369.41 301.62 1374.02 Q304.699 1378.6 304.699 1387.35 Q304.699 1396.08 301.62 1400.69 Q298.565 1405.27 292.755 1405.27 Q286.944 1405.27 283.866 1400.69 Q280.81 1396.08 280.81 1387.35 Q280.81 1378.6 283.866 1374.02 Q286.944 1369.41 292.755 1369.41 Z" fill="#000000" fill-rule="nonzero" fill-opacity="1" /><path clip-path="url(#clip550)" d="M117.825 1093.59 L125.464 1093.59 L125.464 1067.23 L117.154 1068.89 L117.154 1064.63 L125.418 1062.97 L130.093 1062.97 L130.093 1093.59 L137.732 1093.59 L137.732 1097.53 L117.825 1097.53 L117.825 1093.59 Z" fill="#000000" fill-rule="nonzero" fill-opacity="1" /><path clip-path="url(#clip550)" d="M147.177 1091.65 L152.061 1091.65 L152.061 1097.53 L147.177 1097.53 L147.177 1091.65 Z" fill="#000000" fill-rule="nonzero" fill-opacity="1" /><path clip-path="url(#clip550)" d="M172.246 1066.05 Q168.635 1066.05 166.806 1069.61 Q165.001 1073.15 165.001 1080.28 Q165.001 1087.39 166.806 1090.95 Q168.635 1094.5 172.246 1094.5 Q175.88 1094.5 177.686 1090.95 Q179.514 1087.39 179.514 1080.28 Q179.514 1073.15 177.686 1069.61 Q175.88 1066.05 172.246 1066.05 M172.246 1062.34 Q178.056 1062.34 181.112 1066.95 Q184.19 1071.53 184.19 1080.28 Q184.19 1089.01 181.112 1093.62 Q178.056 1098.2 172.246 1098.2 Q166.436 1098.2 163.357 1093.62 Q160.302 1089.01 160.302 1080.28 Q160.302 1071.53 163.357 1066.95 Q166.436 1062.34 172.246 1062.34 Z" fill="#000000" fill-rule="nonzero" fill-opacity="1" /><path clip-path="url(#clip550)" d="M220.579 1072.07 L210 1082.69 L220.579 1093.27 L217.824 1096.07 L207.199 1085.44 L196.575 1096.07 L193.843 1093.27 L204.399 1082.69 L193.843 1072.07 L196.575 1069.26 L207.199 1079.89 L217.824 1069.26 L220.579 1072.07 Z" fill="#000000" fill-rule="nonzero" fill-opacity="1" /><path clip-path="url(#clip550)" d="M232.94 1093.59 L240.579 1093.59 L240.579 1067.23 L232.269 1068.89 L232.269 1064.63 L240.533 1062.97 L245.209 1062.97 L245.209 1093.59 L252.847 1093.59 L252.847 1097.53 L232.94 1097.53 L232.94 1093.59 Z" fill="#000000" fill-rule="nonzero" fill-opacity="1" /><path clip-path="url(#clip550)" d="M272.292 1066.05 Q268.681 1066.05 266.852 1069.61 Q265.046 1073.15 265.046 1080.28 Q265.046 1087.39 266.852 1090.95 Q268.681 1094.5 272.292 1094.5 Q275.926 1094.5 277.732 1090.95 Q279.56 1087.39 279.56 1080.28 Q279.56 1073.15 277.732 1069.61 Q275.926 1066.05 272.292 1066.05 M272.292 1062.34 Q278.102 1062.34 281.157 1066.95 Q284.236 1071.53 284.236 1080.28 Q284.236 1089.01 281.157 1093.62 Q278.102 1098.2 272.292 1098.2 Q266.482 1098.2 263.403 1093.62 Q260.347 1089.01 260.347 1080.28 Q260.347 1071.53 263.403 1066.95 Q266.482 1062.34 272.292 1062.34 Z" fill="#000000" fill-rule="nonzero" fill-opacity="1" /><path clip-path="url(#clip550)" d="M296.913 1045.35 L287.321 1060.34 L296.913 1060.34 L296.913 1045.35 M295.916 1042.04 L300.693 1042.04 L300.693 1060.34 L304.699 1060.34 L304.699 1063.5 L300.693 1063.5 L300.693 1070.12 L296.913 1070.12 L296.913 1063.5 L284.236 1063.5 L284.236 1059.83 L295.916 1042.04 Z" fill="#000000" fill-rule="nonzero" fill-opacity="1" /><path clip-path="url(#clip550)" d="M121.043 780.073 L137.362 780.073 L137.362 784.008 L115.418 784.008 L115.418 780.073 Q118.08 777.319 122.663 772.689 Q127.269 768.036 128.45 766.694 Q130.695 764.17 131.575 762.434 Q132.478 760.675 132.478 758.985 Q132.478 756.231 130.533 754.495 Q128.612 752.758 125.51 752.758 Q123.311 752.758 120.857 753.522 Q118.427 754.286 115.649 755.837 L115.649 751.115 Q118.473 749.981 120.927 749.402 Q123.38 748.823 125.418 748.823 Q130.788 748.823 133.982 751.508 Q137.177 754.194 137.177 758.684 Q137.177 760.814 136.367 762.735 Q135.579 764.633 133.473 767.226 Q132.894 767.897 129.792 771.115 Q126.691 774.309 121.043 780.073 Z" fill="#000000" fill-rule="nonzero" fill-opacity="1" /><path clip-path="url(#clip550)" d="M147.177 778.129 L152.061 778.129 L152.061 784.008 L147.177 784.008 L147.177 778.129 Z" fill="#000000" fill-rule="nonzero" fill-opacity="1" /><path clip-path="url(#clip550)" d="M172.246 752.527 Q168.635 752.527 166.806 756.092 Q165.001 759.633 165.001 766.763 Q165.001 773.869 166.806 777.434 Q168.635 780.976 172.246 780.976 Q175.88 780.976 177.686 777.434 Q179.514 773.869 179.514 766.763 Q179.514 759.633 177.686 756.092 Q175.88 752.527 172.246 752.527 M172.246 748.823 Q178.056 748.823 181.112 753.43 Q184.19 758.013 184.19 766.763 Q184.19 775.49 181.112 780.096 Q178.056 784.68 172.246 784.68 Q166.436 784.68 163.357 780.096 Q160.302 775.49 160.302 766.763 Q160.302 758.013 163.357 753.43 Q166.436 748.823 172.246 748.823 Z" fill="#000000" fill-rule="nonzero" fill-opacity="1" /><path clip-path="url(#clip550)" d="M220.579 758.545 L210 769.17 L220.579 779.749 L217.824 782.55 L207.199 771.925 L196.575 782.55 L193.843 779.749 L204.399 769.17 L193.843 758.545 L196.575 755.745 L207.199 766.369 L217.824 755.745 L220.579 758.545 Z" fill="#000000" fill-rule="nonzero" fill-opacity="1" /><path clip-path="url(#clip550)" d="M232.94 780.073 L240.579 780.073 L240.579 753.708 L232.269 755.374 L232.269 751.115 L240.533 749.448 L245.209 749.448 L245.209 780.073 L252.847 780.073 L252.847 784.008 L232.94 784.008 L232.94 780.073 Z" fill="#000000" fill-rule="nonzero" fill-opacity="1" /><path clip-path="url(#clip550)" d="M272.292 752.527 Q268.681 752.527 266.852 756.092 Q265.046 759.633 265.046 766.763 Q265.046 773.869 266.852 777.434 Q268.681 780.976 272.292 780.976 Q275.926 780.976 277.732 777.434 Q279.56 773.869 279.56 766.763 Q279.56 759.633 277.732 756.092 Q275.926 752.527 272.292 752.527 M272.292 748.823 Q278.102 748.823 281.157 753.43 Q284.236 758.013 284.236 766.763 Q284.236 775.49 281.157 780.096 Q278.102 784.68 272.292 784.68 Q266.482 784.68 263.403 780.096 Q260.347 775.49 260.347 766.763 Q260.347 758.013 263.403 753.43 Q266.482 748.823 272.292 748.823 Z" fill="#000000" fill-rule="nonzero" fill-opacity="1" /><path clip-path="url(#clip550)" d="M296.913 731.828 L287.321 746.818 L296.913 746.818 L296.913 731.828 M295.916 728.518 L300.693 728.518 L300.693 746.818 L304.699 746.818 L304.699 749.978 L300.693 749.978 L300.693 756.598 L296.913 756.598 L296.913 749.978 L284.236 749.978 L284.236 746.31 L295.916 728.518 Z" fill="#000000" fill-rule="nonzero" fill-opacity="1" /><path clip-path="url(#clip550)" d="M131.181 451.854 Q134.538 452.572 136.413 454.841 Q138.311 457.109 138.311 460.442 Q138.311 465.558 134.792 468.359 Q131.274 471.16 124.793 471.16 Q122.617 471.16 120.302 470.72 Q118.01 470.303 115.556 469.447 L115.556 464.933 Q117.501 466.067 119.816 466.646 Q122.13 467.225 124.654 467.225 Q129.052 467.225 131.343 465.489 Q133.658 463.753 133.658 460.442 Q133.658 457.387 131.505 455.674 Q129.376 453.938 125.556 453.938 L121.529 453.938 L121.529 450.095 L125.742 450.095 Q129.191 450.095 131.019 448.73 Q132.848 447.341 132.848 444.748 Q132.848 442.086 130.95 440.674 Q129.075 439.239 125.556 439.239 Q123.635 439.239 121.436 439.655 Q119.237 440.072 116.598 440.952 L116.598 436.785 Q119.26 436.044 121.575 435.674 Q123.913 435.304 125.973 435.304 Q131.297 435.304 134.399 437.734 Q137.501 440.142 137.501 444.262 Q137.501 447.132 135.857 449.123 Q134.214 451.091 131.181 451.854 Z" fill="#000000" fill-rule="nonzero" fill-opacity="1" /><path clip-path="url(#clip550)" d="M147.177 464.609 L152.061 464.609 L152.061 470.489 L147.177 470.489 L147.177 464.609 Z" fill="#000000" fill-rule="nonzero" fill-opacity="1" /><path clip-path="url(#clip550)" d="M172.246 439.007 Q168.635 439.007 166.806 442.572 Q165.001 446.114 165.001 453.243 Q165.001 460.35 166.806 463.915 Q168.635 467.456 172.246 467.456 Q175.88 467.456 177.686 463.915 Q179.514 460.35 179.514 453.243 Q179.514 446.114 177.686 442.572 Q175.88 439.007 172.246 439.007 M172.246 435.304 Q178.056 435.304 181.112 439.91 Q184.19 444.493 184.19 453.243 Q184.19 461.97 181.112 466.577 Q178.056 471.16 172.246 471.16 Q166.436 471.16 163.357 466.577 Q160.302 461.97 160.302 453.243 Q160.302 444.493 163.357 439.91 Q166.436 435.304 172.246 435.304 Z" fill="#000000" fill-rule="nonzero" fill-opacity="1" /><path clip-path="url(#clip550)" d="M220.579 445.026 L210 455.651 L220.579 466.229 L217.824 469.03 L207.199 458.405 L196.575 469.03 L193.843 466.229 L204.399 455.651 L193.843 445.026 L196.575 442.225 L207.199 452.85 L217.824 442.225 L220.579 445.026 Z" fill="#000000" fill-rule="nonzero" fill-opacity="1" /><path clip-path="url(#clip550)" d="M232.94 466.553 L240.579 466.553 L240.579 440.188 L232.269 441.855 L232.269 437.595 L240.533 435.929 L245.209 435.929 L245.209 466.553 L252.847 466.553 L252.847 470.489 L232.94 470.489 L232.94 466.553 Z" fill="#000000" fill-rule="nonzero" fill-opacity="1" /><path clip-path="url(#clip550)" d="M272.292 439.007 Q268.681 439.007 266.852 442.572 Q265.046 446.114 265.046 453.243 Q265.046 460.35 266.852 463.915 Q268.681 467.456 272.292 467.456 Q275.926 467.456 277.732 463.915 Q279.56 460.35 279.56 453.243 Q279.56 446.114 277.732 442.572 Q275.926 439.007 272.292 439.007 M272.292 435.304 Q278.102 435.304 281.157 439.91 Q284.236 444.493 284.236 453.243 Q284.236 461.97 281.157 466.577 Q278.102 471.16 272.292 471.16 Q266.482 471.16 263.403 466.577 Q260.347 461.97 260.347 453.243 Q260.347 444.493 263.403 439.91 Q266.482 435.304 272.292 435.304 Z" fill="#000000" fill-rule="nonzero" fill-opacity="1" /><path clip-path="url(#clip550)" d="M296.913 418.308 L287.321 433.298 L296.913 433.298 L296.913 418.308 M295.916 414.998 L300.693 414.998 L300.693 433.298 L304.699 433.298 L304.699 436.458 L300.693 436.458 L300.693 443.078 L296.913 443.078 L296.913 436.458 L284.236 436.458 L284.236 432.79 L295.916 414.998 Z" fill="#000000" fill-rule="nonzero" fill-opacity="1" /><path clip-path="url(#clip550)" d="M129.862 126.483 L118.056 144.932 L129.862 144.932 L129.862 126.483 M128.635 122.409 L134.515 122.409 L134.515 144.932 L139.445 144.932 L139.445 148.821 L134.515 148.821 L134.515 156.969 L129.862 156.969 L129.862 148.821 L114.26 148.821 L114.26 144.307 L128.635 122.409 Z" fill="#000000" fill-rule="nonzero" fill-opacity="1" /><path clip-path="url(#clip550)" d="M147.177 151.089 L152.061 151.089 L152.061 156.969 L147.177 156.969 L147.177 151.089 Z" fill="#000000" fill-rule="nonzero" fill-opacity="1" /><path clip-path="url(#clip550)" d="M172.246 125.488 Q168.635 125.488 166.806 129.053 Q165.001 132.594 165.001 139.724 Q165.001 146.83 166.806 150.395 Q168.635 153.937 172.246 153.937 Q175.88 153.937 177.686 150.395 Q179.514 146.83 179.514 139.724 Q179.514 132.594 177.686 129.053 Q175.88 125.488 172.246 125.488 M172.246 121.784 Q178.056 121.784 181.112 126.39 Q184.19 130.974 184.19 139.724 Q184.19 148.451 181.112 153.057 Q178.056 157.64 172.246 157.64 Q166.436 157.64 163.357 153.057 Q160.302 148.451 160.302 139.724 Q160.302 130.974 163.357 126.39 Q166.436 121.784 172.246 121.784 Z" fill="#000000" fill-rule="nonzero" fill-opacity="1" /><path clip-path="url(#clip550)" d="M220.579 131.506 L210 142.131 L220.579 152.71 L217.824 155.511 L207.199 144.886 L196.575 155.511 L193.843 152.71 L204.399 142.131 L193.843 131.506 L196.575 128.705 L207.199 139.33 L217.824 128.705 L220.579 131.506 Z" fill="#000000" fill-rule="nonzero" fill-opacity="1" /><path clip-path="url(#clip550)" d="M232.94 153.034 L240.579 153.034 L240.579 126.668 L232.269 128.335 L232.269 124.076 L240.533 122.409 L245.209 122.409 L245.209 153.034 L252.847 153.034 L252.847 156.969 L232.94 156.969 L232.94 153.034 Z" fill="#000000" fill-rule="nonzero" fill-opacity="1" /><path clip-path="url(#clip550)" d="M272.292 125.488 Q268.681 125.488 266.852 129.053 Q265.046 132.594 265.046 139.724 Q265.046 146.83 266.852 150.395 Q268.681 153.937 272.292 153.937 Q275.926 153.937 277.732 150.395 Q279.56 146.83 279.56 139.724 Q279.56 132.594 277.732 129.053 Q275.926 125.488 272.292 125.488 M272.292 121.784 Q278.102 121.784 281.157 126.39 Q284.236 130.974 284.236 139.724 Q284.236 148.451 281.157 153.057 Q278.102 157.64 272.292 157.64 Q266.482 157.64 263.403 153.057 Q260.347 148.451 260.347 139.724 Q260.347 130.974 263.403 126.39 Q266.482 121.784 272.292 121.784 Z" fill="#000000" fill-rule="nonzero" fill-opacity="1" /><path clip-path="url(#clip550)" d="M296.913 104.789 L287.321 119.779 L296.913 119.779 L296.913 104.789 M295.916 101.479 L300.693 101.479 L300.693 119.779 L304.699 119.779 L304.699 122.938 L300.693 122.938 L300.693 129.559 L296.913 129.559 L296.913 122.938 L284.236 122.938 L284.236 119.271 L295.916 101.479 Z" fill="#000000" fill-rule="nonzero" fill-opacity="1" /><path clip-path="url(#clip550)" d="M16.4842 923.811 L16.4842 883.612 L21.895 883.612 L21.895 900.481 L64.0042 900.481 L64.0042 906.942 L21.895 906.942 L21.895 923.811 L16.4842 923.811 Z" fill="#000000" fill-rule="nonzero" fill-opacity="1" /><path clip-path="url(#clip550)" d="M28.3562 879.665 L28.3562 873.809 L64.0042 873.809 L64.0042 879.665 L28.3562 879.665 M14.479 879.665 L14.479 873.809 L21.895 873.809 L21.895 879.665 L14.479 879.665 Z" fill="#000000" fill-rule="nonzero" fill-opacity="1" /><path clip-path="url(#clip550)" d="M35.1993 833.8 Q31.2526 831.604 29.3747 828.548 Q27.4968 825.493 27.4968 821.355 Q27.4968 815.785 31.4117 812.762 Q35.2948 809.738 42.4881 809.738 L64.0042 809.738 L64.0042 815.626 L42.679 815.626 Q37.5546 815.626 35.072 817.44 Q32.5894 819.255 32.5894 822.978 Q32.5894 827.53 35.6131 830.172 Q38.6368 832.814 43.8567 832.814 L64.0042 832.814 L64.0042 838.702 L42.679 838.702 Q37.5228 838.702 35.072 840.516 Q32.5894 842.33 32.5894 846.118 Q32.5894 850.606 35.6449 853.247 Q38.6686 855.889 43.8567 855.889 L64.0042 855.889 L64.0042 861.777 L28.3562 861.777 L28.3562 855.889 L33.8944 855.889 Q30.616 853.884 29.0564 851.083 Q27.4968 848.282 27.4968 844.431 Q27.4968 840.548 29.4702 837.842 Q31.4436 835.105 35.1993 833.8 Z" fill="#000000" fill-rule="nonzero" fill-opacity="1" /><path clip-path="url(#clip550)" d="M44.7161 767.565 L47.5806 767.565 L47.5806 794.492 Q53.6281 794.11 56.8109 790.864 Q59.9619 787.585 59.9619 781.761 Q59.9619 778.387 59.1344 775.236 Q58.3069 772.053 56.6518 768.934 L62.1899 768.934 Q63.5267 772.085 64.227 775.395 Q64.9272 778.705 64.9272 782.111 Q64.9272 790.641 59.9619 795.638 Q54.9967 800.603 46.5303 800.603 Q37.7774 800.603 32.6531 795.892 Q27.4968 791.15 27.4968 783.129 Q27.4968 775.936 32.1438 771.766 Q36.7589 767.565 44.7161 767.565 M42.9973 773.421 Q38.1912 773.485 35.3266 776.127 Q32.4621 778.737 32.4621 783.066 Q32.4621 787.967 35.2312 790.927 Q38.0002 793.855 43.0292 794.301 L42.9973 773.421 Z" fill="#000000" fill-rule="nonzero" fill-opacity="1" /><path clip-path="url(#clip550)" d="M14.5426 723.164 Q21.8632 727.429 29.0246 729.498 Q36.186 731.567 43.5384 731.567 Q50.8908 731.567 58.1159 729.498 Q65.3091 727.397 72.5979 723.164 L72.5979 728.257 Q65.1182 733.031 57.8931 735.418 Q50.668 737.774 43.5384 737.774 Q36.4406 737.774 29.2474 735.418 Q22.0542 733.063 14.5426 728.257 L14.5426 723.164 Z" fill="#000000" fill-rule="nonzero" fill-opacity="1" /><path clip-path="url(#clip550)" d="M42.4881 682.169 L64.0042 682.169 L64.0042 688.026 L42.679 688.026 Q37.6183 688.026 35.1038 689.999 Q32.5894 691.972 32.5894 695.919 Q32.5894 700.661 35.6131 703.399 Q38.6368 706.136 43.8567 706.136 L64.0042 706.136 L64.0042 712.024 L28.3562 712.024 L28.3562 706.136 L33.8944 706.136 Q30.6797 704.035 29.0883 701.203 Q27.4968 698.338 27.4968 694.614 Q27.4968 688.471 31.3163 685.32 Q35.1038 682.169 42.4881 682.169 Z" fill="#000000" fill-rule="nonzero" fill-opacity="1" /><path clip-path="url(#clip550)" d="M29.4065 647.762 L34.9447 647.762 Q33.6716 650.245 33.035 652.919 Q32.3984 655.592 32.3984 658.457 Q32.3984 662.817 33.7352 665.013 Q35.072 667.178 37.7456 667.178 Q39.7826 667.178 40.9603 665.618 Q42.1061 664.059 43.1565 659.348 L43.6021 657.343 Q44.9389 651.104 47.3897 648.494 Q49.8086 645.853 54.1691 645.853 Q59.1344 645.853 62.0308 649.799 Q64.9272 653.714 64.9272 660.589 Q64.9272 663.454 64.3543 666.573 Q63.8132 669.66 62.6992 673.098 L56.6518 673.098 Q58.3387 669.851 59.198 666.7 Q60.0256 663.549 60.0256 660.462 Q60.0256 656.324 58.6251 654.096 Q57.1929 651.868 54.6147 651.868 Q52.2276 651.868 50.9545 653.492 Q49.6813 655.083 48.5037 660.526 L48.0262 662.563 Q46.8804 668.005 44.5251 670.424 Q42.138 672.843 38.0002 672.843 Q32.9713 672.843 30.2341 669.279 Q27.4968 665.714 27.4968 659.157 Q27.4968 655.911 27.9743 653.046 Q28.4517 650.181 29.4065 647.762 Z" fill="#000000" fill-rule="nonzero" fill-opacity="1" /><path clip-path="url(#clip550)" d="M14.5426 637.45 L14.5426 632.357 Q22.0542 627.583 29.2474 625.228 Q36.4406 622.841 43.5384 622.841 Q50.668 622.841 57.8931 625.228 Q65.1182 627.583 72.5979 632.357 L72.5979 637.45 Q65.3091 633.217 58.1159 631.148 Q50.8908 629.047 43.5384 629.047 Q36.186 629.047 29.0246 631.148 Q21.8632 633.217 14.5426 637.45 Z" fill="#000000" fill-rule="nonzero" fill-opacity="1" /><path clip-path="url(#clip550)" d="M754.181 12.096 L805.344 12.096 L805.344 18.9825 L783.875 18.9825 L783.875 72.576 L775.651 72.576 L775.651 18.9825 L754.181 18.9825 L754.181 12.096 Z" fill="#000000" fill-rule="nonzero" fill-opacity="1" /><path clip-path="url(#clip550)" d="M810.367 27.2059 L817.821 27.2059 L817.821 72.576 L810.367 72.576 L810.367 27.2059 M810.367 9.54393 L817.821 9.54393 L817.821 18.9825 L810.367 18.9825 L810.367 9.54393 Z" fill="#000000" fill-rule="nonzero" fill-opacity="1" /><path clip-path="url(#clip550)" d="M868.741 35.9153 Q871.536 30.8922 875.425 28.5022 Q879.314 26.1121 884.58 26.1121 Q891.669 26.1121 895.517 31.0947 Q899.366 36.0368 899.366 45.1919 L899.366 72.576 L891.872 72.576 L891.872 45.4349 Q891.872 38.913 889.563 35.7533 Q887.254 32.5936 882.514 32.5936 Q876.721 32.5936 873.359 36.4419 Q869.997 40.2903 869.997 46.9338 L869.997 72.576 L862.503 72.576 L862.503 45.4349 Q862.503 38.8725 860.194 35.7533 Q857.885 32.5936 853.064 32.5936 Q847.352 32.5936 843.99 36.4824 Q840.628 40.3308 840.628 46.9338 L840.628 72.576 L833.134 72.576 L833.134 27.2059 L840.628 27.2059 L840.628 34.2544 Q843.18 30.082 846.745 28.0971 Q850.309 26.1121 855.211 26.1121 Q860.153 26.1121 863.596 28.6237 Q867.08 31.1352 868.741 35.9153 Z" fill="#000000" fill-rule="nonzero" fill-opacity="1" /><path clip-path="url(#clip550)" d="M953.04 48.0275 L953.04 51.6733 L918.77 51.6733 Q919.256 59.3701 923.388 63.421 Q927.56 67.4314 934.973 67.4314 Q939.267 67.4314 943.278 66.3781 Q947.329 65.3249 951.298 63.2184 L951.298 70.267 Q947.288 71.9684 943.075 72.8596 Q938.862 73.7508 934.528 73.7508 Q923.671 73.7508 917.311 67.4314 Q910.992 61.1119 910.992 50.3365 Q910.992 39.1965 916.987 32.6746 Q923.023 26.1121 933.231 26.1121 Q942.386 26.1121 947.693 32.0264 Q953.04 37.9003 953.04 48.0275 M945.587 45.84 Q945.506 39.7232 942.143 36.0774 Q938.822 32.4315 933.312 32.4315 Q927.074 32.4315 923.307 35.9558 Q919.58 39.4801 919.013 45.8805 L945.587 45.84 Z" fill="#000000" fill-rule="nonzero" fill-opacity="1" /><path clip-path="url(#clip550)" d="M999.018 14.324 L999.018 27.2059 L1014.37 27.2059 L1014.37 32.9987 L999.018 32.9987 L999.018 57.6282 Q999.018 63.1779 1000.52 64.7578 Q1002.06 66.3376 1006.71 66.3376 L1014.37 66.3376 L1014.37 72.576 L1006.71 72.576 Q998.086 72.576 994.805 69.3758 Q991.524 66.1351 991.524 57.6282 L991.524 32.9987 L986.055 32.9987 L986.055 27.2059 L991.524 27.2059 L991.524 14.324 L999.018 14.324 Z" fill="#000000" fill-rule="nonzero" fill-opacity="1" /><path clip-path="url(#clip550)" d="M1041.76 32.4315 Q1035.76 32.4315 1032.28 37.1306 Q1028.79 41.7891 1028.79 49.9314 Q1028.79 58.0738 1032.24 62.7728 Q1035.72 67.4314 1041.76 67.4314 Q1047.71 67.4314 1051.19 62.7323 Q1054.68 58.0333 1054.68 49.9314 Q1054.68 41.8701 1051.19 37.1711 Q1047.71 32.4315 1041.76 32.4315 M1041.76 26.1121 Q1051.48 26.1121 1057.03 32.4315 Q1062.58 38.7509 1062.58 49.9314 Q1062.58 61.0714 1057.03 67.4314 Q1051.48 73.7508 1041.76 73.7508 Q1031.99 73.7508 1026.44 67.4314 Q1020.93 61.0714 1020.93 49.9314 Q1020.93 38.7509 1026.44 32.4315 Q1031.99 26.1121 1041.76 26.1121 Z" fill="#000000" fill-rule="nonzero" fill-opacity="1" /><path clip-path="url(#clip550)" d="M1133.95 28.9478 L1133.95 35.9153 Q1130.79 34.1734 1127.59 33.3227 Q1124.43 32.4315 1121.19 32.4315 Q1113.94 32.4315 1109.93 37.0496 Q1105.92 41.6271 1105.92 49.9314 Q1105.92 58.2358 1109.93 62.8538 Q1113.94 67.4314 1121.19 67.4314 Q1124.43 67.4314 1127.59 66.5807 Q1130.79 65.6895 1133.95 63.9476 L1133.95 70.8341 Q1130.83 72.2924 1127.47 73.0216 Q1124.15 73.7508 1120.38 73.7508 Q1110.13 73.7508 1104.1 67.3098 Q1098.06 60.8689 1098.06 49.9314 Q1098.06 38.832 1104.14 32.472 Q1110.26 26.1121 1120.87 26.1121 Q1124.31 26.1121 1127.59 26.8413 Q1130.87 27.5299 1133.95 28.9478 Z" fill="#000000" fill-rule="nonzero" fill-opacity="1" /><path clip-path="url(#clip550)" d="M1164.5 32.4315 Q1158.5 32.4315 1155.02 37.1306 Q1151.53 41.7891 1151.53 49.9314 Q1151.53 58.0738 1154.98 62.7728 Q1158.46 67.4314 1164.5 67.4314 Q1170.45 67.4314 1173.94 62.7323 Q1177.42 58.0333 1177.42 49.9314 Q1177.42 41.8701 1173.94 37.1711 Q1170.45 32.4315 1164.5 32.4315 M1164.5 26.1121 Q1174.22 26.1121 1179.77 32.4315 Q1185.32 38.7509 1185.32 49.9314 Q1185.32 61.0714 1179.77 67.4314 Q1174.22 73.7508 1164.5 73.7508 Q1154.73 73.7508 1149.19 67.4314 Q1143.68 61.0714 1143.68 49.9314 Q1143.68 38.7509 1149.19 32.4315 Q1154.73 26.1121 1164.5 26.1121 Z" fill="#000000" fill-rule="nonzero" fill-opacity="1" /><path clip-path="url(#clip550)" d="M1233 35.9153 Q1235.79 30.8922 1239.68 28.5022 Q1243.57 26.1121 1248.84 26.1121 Q1255.93 26.1121 1259.77 31.0947 Q1263.62 36.0368 1263.62 45.1919 L1263.62 72.576 L1256.13 72.576 L1256.13 45.4349 Q1256.13 38.913 1253.82 35.7533 Q1251.51 32.5936 1246.77 32.5936 Q1240.98 32.5936 1237.62 36.4419 Q1234.25 40.2903 1234.25 46.9338 L1234.25 72.576 L1226.76 72.576 L1226.76 45.4349 Q1226.76 38.8725 1224.45 35.7533 Q1222.14 32.5936 1217.32 32.5936 Q1211.61 32.5936 1208.25 36.4824 Q1204.89 40.3308 1204.89 46.9338 L1204.89 72.576 L1197.39 72.576 L1197.39 27.2059 L1204.89 27.2059 L1204.89 34.2544 Q1207.44 30.082 1211 28.0971 Q1214.57 26.1121 1219.47 26.1121 Q1224.41 26.1121 1227.85 28.6237 Q1231.34 31.1352 1233 35.9153 Z" fill="#000000" fill-rule="nonzero" fill-opacity="1" /><path clip-path="url(#clip550)" d="M1285.7 65.7705 L1285.7 89.8329 L1278.21 89.8329 L1278.21 27.2059 L1285.7 27.2059 L1285.7 34.0924 Q1288.05 30.0415 1291.61 28.0971 Q1295.22 26.1121 1300.2 26.1121 Q1308.47 26.1121 1313.61 32.6746 Q1318.8 39.2371 1318.8 49.9314 Q1318.8 60.6258 1313.61 67.1883 Q1308.47 73.7508 1300.2 73.7508 Q1295.22 73.7508 1291.61 71.8063 Q1288.05 69.8214 1285.7 65.7705 M1311.06 49.9314 Q1311.06 41.7081 1307.66 37.0496 Q1304.29 32.3505 1298.38 32.3505 Q1292.47 32.3505 1289.06 37.0496 Q1285.7 41.7081 1285.7 49.9314 Q1285.7 58.1548 1289.06 62.8538 Q1292.47 67.5124 1298.38 67.5124 Q1304.29 67.5124 1307.66 62.8538 Q1311.06 58.1548 1311.06 49.9314 Z" fill="#000000" fill-rule="nonzero" fill-opacity="1" /><path clip-path="url(#clip550)" d="M1330.38 54.671 L1330.38 27.2059 L1337.84 27.2059 L1337.84 54.3874 Q1337.84 60.8284 1340.35 64.0691 Q1342.86 67.2693 1347.88 67.2693 Q1353.92 67.2693 1357.4 63.421 Q1360.93 59.5726 1360.93 52.9291 L1360.93 27.2059 L1368.38 27.2059 L1368.38 72.576 L1360.93 72.576 L1360.93 65.6084 Q1358.21 69.7404 1354.61 71.7658 Q1351.04 73.7508 1346.3 73.7508 Q1338.48 73.7508 1334.43 68.8897 Q1330.38 64.0286 1330.38 54.671 M1349.14 26.1121 L1349.14 26.1121 Z" fill="#000000" fill-rule="nonzero" fill-opacity="1" /><path clip-path="url(#clip550)" d="M1391.11 14.324 L1391.11 27.2059 L1406.46 27.2059 L1406.46 32.9987 L1391.11 32.9987 L1391.11 57.6282 Q1391.11 63.1779 1392.6 64.7578 Q1394.14 66.3376 1398.8 66.3376 L1406.46 66.3376 L1406.46 72.576 L1398.8 72.576 Q1390.17 72.576 1386.89 69.3758 Q1383.61 66.1351 1383.61 57.6282 L1383.61 32.9987 L1378.14 32.9987 L1378.14 27.2059 L1383.61 27.2059 L1383.61 14.324 L1391.11 14.324 Z" fill="#000000" fill-rule="nonzero" fill-opacity="1" /><path clip-path="url(#clip550)" d="M1455.07 48.0275 L1455.07 51.6733 L1420.8 51.6733 Q1421.28 59.3701 1425.42 63.421 Q1429.59 67.4314 1437 67.4314 Q1441.3 67.4314 1445.31 66.3781 Q1449.36 65.3249 1453.33 63.2184 L1453.33 70.267 Q1449.32 71.9684 1445.1 72.8596 Q1440.89 73.7508 1436.56 73.7508 Q1425.7 73.7508 1419.34 67.4314 Q1413.02 61.1119 1413.02 50.3365 Q1413.02 39.1965 1419.02 32.6746 Q1425.05 26.1121 1435.26 26.1121 Q1444.41 26.1121 1449.72 32.0264 Q1455.07 37.9003 1455.07 48.0275 M1447.62 45.84 Q1447.53 39.7232 1444.17 36.0774 Q1440.85 32.4315 1435.34 32.4315 Q1429.1 32.4315 1425.34 35.9558 Q1421.61 39.4801 1421.04 45.8805 L1447.62 45.84 Z" fill="#000000" fill-rule="nonzero" fill-opacity="1" /><path clip-path="url(#clip550)" d="M1514.21 20.1573 L1503.11 50.2555 L1525.35 50.2555 L1514.21 20.1573 M1509.59 12.096 L1518.87 12.096 L1541.92 72.576 L1533.41 72.576 L1527.9 57.061 L1500.64 57.061 L1495.13 72.576 L1486.5 72.576 L1509.59 12.096 Z" fill="#000000" fill-rule="nonzero" fill-opacity="1" /><path clip-path="url(#clip550)" d="M1581.62 28.9478 L1581.62 35.9153 Q1578.46 34.1734 1575.26 33.3227 Q1572.1 32.4315 1568.86 32.4315 Q1561.61 32.4315 1557.6 37.0496 Q1553.59 41.6271 1553.59 49.9314 Q1553.59 58.2358 1557.6 62.8538 Q1561.61 67.4314 1568.86 67.4314 Q1572.1 67.4314 1575.26 66.5807 Q1578.46 65.6895 1581.62 63.9476 L1581.62 70.8341 Q1578.5 72.2924 1575.14 73.0216 Q1571.82 73.7508 1568.05 73.7508 Q1557.8 73.7508 1551.76 67.3098 Q1545.73 60.8689 1545.73 49.9314 Q1545.73 38.832 1551.8 32.472 Q1557.92 26.1121 1568.53 26.1121 Q1571.98 26.1121 1575.26 26.8413 Q1578.54 27.5299 1581.62 28.9478 Z" fill="#000000" fill-rule="nonzero" fill-opacity="1" /><path clip-path="url(#clip550)" d="M1627.23 28.9478 L1627.23 35.9153 Q1624.07 34.1734 1620.87 33.3227 Q1617.71 32.4315 1614.47 32.4315 Q1607.22 32.4315 1603.21 37.0496 Q1599.2 41.6271 1599.2 49.9314 Q1599.2 58.2358 1603.21 62.8538 Q1607.22 67.4314 1614.47 67.4314 Q1617.71 67.4314 1620.87 66.5807 Q1624.07 65.6895 1627.23 63.9476 L1627.23 70.8341 Q1624.11 72.2924 1620.75 73.0216 Q1617.43 73.7508 1613.66 73.7508 Q1603.41 73.7508 1597.38 67.3098 Q1591.34 60.8689 1591.34 49.9314 Q1591.34 38.832 1597.42 32.472 Q1603.53 26.1121 1614.15 26.1121 Q1617.59 26.1121 1620.87 26.8413 Q1624.15 27.5299 1627.23 28.9478 Z" fill="#000000" fill-rule="nonzero" fill-opacity="1" /><path clip-path="url(#clip550)" d="M1679 48.0275 L1679 51.6733 L1644.73 51.6733 Q1645.22 59.3701 1649.35 63.421 Q1653.52 67.4314 1660.94 67.4314 Q1665.23 67.4314 1669.24 66.3781 Q1673.29 65.3249 1677.26 63.2184 L1677.26 70.267 Q1673.25 71.9684 1669.04 72.8596 Q1664.82 73.7508 1660.49 73.7508 Q1649.63 73.7508 1643.27 67.4314 Q1636.95 61.1119 1636.95 50.3365 Q1636.95 39.1965 1642.95 32.6746 Q1648.99 26.1121 1659.19 26.1121 Q1668.35 26.1121 1673.66 32.0264 Q1679 37.9003 1679 48.0275 M1671.55 45.84 Q1671.47 39.7232 1668.11 36.0774 Q1664.78 32.4315 1659.27 32.4315 Q1653.04 32.4315 1649.27 35.9558 Q1645.54 39.4801 1644.98 45.8805 L1671.55 45.84 Z" fill="#000000" fill-rule="nonzero" fill-opacity="1" /><path clip-path="url(#clip550)" d="M1720.16 28.5427 L1720.16 35.5912 Q1717 33.9709 1713.6 33.1607 Q1710.19 32.3505 1706.55 32.3505 Q1701 32.3505 1698.2 34.0519 Q1695.45 35.7533 1695.45 39.156 Q1695.45 41.7486 1697.43 43.2475 Q1699.42 44.7058 1705.41 46.0426 L1707.97 46.6097 Q1715.91 48.3111 1719.23 51.4303 Q1722.59 54.509 1722.59 60.0587 Q1722.59 66.3781 1717.57 70.0644 Q1712.58 73.7508 1703.83 73.7508 Q1700.19 73.7508 1696.22 73.0216 Q1692.29 72.3329 1687.91 70.9151 L1687.91 63.2184 Q1692.05 65.3654 1696.06 66.4591 Q1700.07 67.5124 1704 67.5124 Q1709.26 67.5124 1712.1 65.73 Q1714.93 63.9071 1714.93 60.6258 Q1714.93 57.5877 1712.87 55.9673 Q1710.84 54.3469 1703.92 52.8481 L1701.32 52.2405 Q1694.4 50.7821 1691.32 47.7845 Q1688.24 44.7463 1688.24 39.4801 Q1688.24 33.0797 1692.78 29.5959 Q1697.31 26.1121 1705.66 26.1121 Q1709.79 26.1121 1713.44 26.7198 Q1717.08 27.3274 1720.16 28.5427 Z" fill="#000000" fill-rule="nonzero" fill-opacity="1" /><path clip-path="url(#clip550)" d="M1763.38 28.5427 L1763.38 35.5912 Q1760.22 33.9709 1756.82 33.1607 Q1753.42 32.3505 1749.77 32.3505 Q1744.22 32.3505 1741.43 34.0519 Q1738.67 35.7533 1738.67 39.156 Q1738.67 41.7486 1740.66 43.2475 Q1742.64 44.7058 1748.64 46.0426 L1751.19 46.6097 Q1759.13 48.3111 1762.45 51.4303 Q1765.81 54.509 1765.81 60.0587 Q1765.81 66.3781 1760.79 70.0644 Q1755.81 73.7508 1747.06 73.7508 Q1743.41 73.7508 1739.44 73.0216 Q1735.51 72.3329 1731.14 70.9151 L1731.14 63.2184 Q1735.27 65.3654 1739.28 66.4591 Q1743.29 67.5124 1747.22 67.5124 Q1752.49 67.5124 1755.32 65.73 Q1758.16 63.9071 1758.16 60.6258 Q1758.16 57.5877 1756.09 55.9673 Q1754.07 54.3469 1747.14 52.8481 L1744.55 52.2405 Q1737.62 50.7821 1734.54 47.7845 Q1731.46 44.7463 1731.46 39.4801 Q1731.46 33.0797 1736 29.5959 Q1740.54 26.1121 1748.88 26.1121 Q1753.01 26.1121 1756.66 26.7198 Q1760.3 27.3274 1763.38 28.5427 Z" fill="#000000" fill-rule="nonzero" fill-opacity="1" /><path clip-path="url(#clip550)" d="M1804.38 12.096 L1812.56 12.096 L1812.56 65.6895 L1842.01 65.6895 L1842.01 72.576 L1804.38 72.576 L1804.38 12.096 Z" fill="#000000" fill-rule="nonzero" fill-opacity="1" /><path clip-path="url(#clip550)" d="M1850.28 27.2059 L1857.73 27.2059 L1857.73 72.576 L1850.28 72.576 L1850.28 27.2059 M1850.28 9.54393 L1857.73 9.54393 L1857.73 18.9825 L1850.28 18.9825 L1850.28 9.54393 Z" fill="#000000" fill-rule="nonzero" fill-opacity="1" /><path clip-path="url(#clip550)" d="M1902.25 28.5427 L1902.25 35.5912 Q1899.09 33.9709 1895.69 33.1607 Q1892.28 32.3505 1888.64 32.3505 Q1883.09 32.3505 1880.29 34.0519 Q1877.54 35.7533 1877.54 39.156 Q1877.54 41.7486 1879.52 43.2475 Q1881.51 44.7058 1887.5 46.0426 L1890.05 46.6097 Q1897.99 48.3111 1901.32 51.4303 Q1904.68 54.509 1904.68 60.0587 Q1904.68 66.3781 1899.66 70.0644 Q1894.67 73.7508 1885.92 73.7508 Q1882.28 73.7508 1878.31 73.0216 Q1874.38 72.3329 1870 70.9151 L1870 63.2184 Q1874.13 65.3654 1878.15 66.4591 Q1882.16 67.5124 1886.09 67.5124 Q1891.35 67.5124 1894.19 65.73 Q1897.02 63.9071 1897.02 60.6258 Q1897.02 57.5877 1894.96 55.9673 Q1892.93 54.3469 1886 52.8481 L1883.41 52.2405 Q1876.48 50.7821 1873.41 47.7845 Q1870.33 44.7463 1870.33 39.4801 Q1870.33 33.0797 1874.86 29.5959 Q1879.4 26.1121 1887.75 26.1121 Q1891.88 26.1121 1895.52 26.7198 Q1899.17 27.3274 1902.25 28.5427 Z" fill="#000000" fill-rule="nonzero" fill-opacity="1" /><path clip-path="url(#clip550)" d="M1923.92 14.324 L1923.92 27.2059 L1939.27 27.2059 L1939.27 32.9987 L1923.92 32.9987 L1923.92 57.6282 Q1923.92 63.1779 1925.42 64.7578 Q1926.96 66.3376 1931.62 66.3376 L1939.27 66.3376 L1939.27 72.576 L1931.62 72.576 Q1922.99 72.576 1919.71 69.3758 Q1916.43 66.1351 1916.43 57.6282 L1916.43 32.9987 L1910.96 32.9987 L1910.96 27.2059 L1916.43 27.2059 L1916.43 14.324 L1923.92 14.324 Z" fill="#000000" fill-rule="nonzero" fill-opacity="1" /><polyline clip-path="url(#clip552)" style="stroke:#009af9; stroke-linecap:round; stroke-linejoin:round; stroke-width:4; stroke-opacity:1; fill:none" points="397.644,1386.29 406.19,1386.4 444.172,1386.36 491.65,1386.39 539.128,1386.38 586.606,1386.36 634.084,1386.37 681.562,1386.33 729.04,1386.37 776.518,1386.36 871.474,1386.35 1346.25,1386.16 2295.81,1386.1 "/>
<polyline clip-path="url(#clip552)" style="stroke:#e26f46; stroke-linecap:round; stroke-linejoin:round; stroke-width:4; stroke-opacity:1; fill:none" points="397.644,1386.33 406.19,1381.44 444.172,1364.73 491.65,1344.66 539.128,1323.3 586.606,1302.52 634.084,1282.73 681.562,1262.05 729.04,1241.58 776.518,1220.17 871.474,1178.25 1346.25,974.265 2295.81,564.371 "/>
<polyline clip-path="url(#clip552)" style="stroke:#3da44d; stroke-linecap:round; stroke-linejoin:round; stroke-width:4; stroke-opacity:1; fill:none" points="397.644,1386.39 406.19,1380.1 444.172,1355.6 491.65,1325.06 539.128,1292.66 586.606,1261.36 634.084,1232.55 681.562,1201.99 729.04,1171.08 776.518,1138.69 871.474,1079.4 1346.25,766.721 2295.81,160.256 "/>
<polyline clip-path="url(#clip552)" style="stroke:#c271d2; stroke-linecap:round; stroke-linejoin:round; stroke-width:4; stroke-opacity:1; fill:none" points="397.644,1386.36 406.19,1380.48 444.172,1364.18 491.65,1343.66 539.128,1322.48 586.606,1301.98 634.084,1279.86 681.562,1259.74 729.04,1239.65 776.518,1217.19 871.474,1175.83 1346.25,970.16 2295.81,562.68 "/>
<polyline clip-path="url(#clip552)" style="stroke:#ac8d18; stroke-linecap:round; stroke-linejoin:round; stroke-width:4; stroke-opacity:1; fill:none" points="397.644,1386.39 406.19,1380.92 444.172,1364.58 491.65,1344.08 539.128,1323.34 586.606,1302.27 634.084,1280.56 681.562,1260.93 729.04,1239.89 776.518,1218.42 871.474,1177.45 1346.25,973.914 2295.81,555.367 "/>
<circle clip-path="url(#clip552)" cx="397.644" cy="1386.29" r="14.4" fill="#00a9ad" fill-rule="evenodd" fill-opacity="1" stroke="#000000" stroke-opacity="1" stroke-width="3.2"/>
<circle clip-path="url(#clip552)" cx="406.19" cy="1386.4" r="14.4" fill="#00a9ad" fill-rule="evenodd" fill-opacity="1" stroke="#000000" stroke-opacity="1" stroke-width="3.2"/>
<circle clip-path="url(#clip552)" cx="444.172" cy="1386.36" r="14.4" fill="#00a9ad" fill-rule="evenodd" fill-opacity="1" stroke="#000000" stroke-opacity="1" stroke-width="3.2"/>
<circle clip-path="url(#clip552)" cx="491.65" cy="1386.39" r="14.4" fill="#00a9ad" fill-rule="evenodd" fill-opacity="1" stroke="#000000" stroke-opacity="1" stroke-width="3.2"/>
<circle clip-path="url(#clip552)" cx="539.128" cy="1386.38" r="14.4" fill="#00a9ad" fill-rule="evenodd" fill-opacity="1" stroke="#000000" stroke-opacity="1" stroke-width="3.2"/>
<circle clip-path="url(#clip552)" cx="586.606" cy="1386.36" r="14.4" fill="#00a9ad" fill-rule="evenodd" fill-opacity="1" stroke="#000000" stroke-opacity="1" stroke-width="3.2"/>
<circle clip-path="url(#clip552)" cx="634.084" cy="1386.37" r="14.4" fill="#00a9ad" fill-rule="evenodd" fill-opacity="1" stroke="#000000" stroke-opacity="1" stroke-width="3.2"/>
<circle clip-path="url(#clip552)" cx="681.562" cy="1386.33" r="14.4" fill="#00a9ad" fill-rule="evenodd" fill-opacity="1" stroke="#000000" stroke-opacity="1" stroke-width="3.2"/>
<circle clip-path="url(#clip552)" cx="729.04" cy="1386.37" r="14.4" fill="#00a9ad" fill-rule="evenodd" fill-opacity="1" stroke="#000000" stroke-opacity="1" stroke-width="3.2"/>
<circle clip-path="url(#clip552)" cx="776.518" cy="1386.36" r="14.4" fill="#00a9ad" fill-rule="evenodd" fill-opacity="1" stroke="#000000" stroke-opacity="1" stroke-width="3.2"/>
<circle clip-path="url(#clip552)" cx="871.474" cy="1386.35" r="14.4" fill="#00a9ad" fill-rule="evenodd" fill-opacity="1" stroke="#000000" stroke-opacity="1" stroke-width="3.2"/>
<circle clip-path="url(#clip552)" cx="1346.25" cy="1386.16" r="14.4" fill="#00a9ad" fill-rule="evenodd" fill-opacity="1" stroke="#000000" stroke-opacity="1" stroke-width="3.2"/>
<circle clip-path="url(#clip552)" cx="2295.81" cy="1386.1" r="14.4" fill="#00a9ad" fill-rule="evenodd" fill-opacity="1" stroke="#000000" stroke-opacity="1" stroke-width="3.2"/>
<circle clip-path="url(#clip552)" cx="397.644" cy="1386.33" r="14.4" fill="#ed5d92" fill-rule="evenodd" fill-opacity="1" stroke="#000000" stroke-opacity="1" stroke-width="3.2"/>
<circle clip-path="url(#clip552)" cx="406.19" cy="1381.44" r="14.4" fill="#ed5d92" fill-rule="evenodd" fill-opacity="1" stroke="#000000" stroke-opacity="1" stroke-width="3.2"/>
<circle clip-path="url(#clip552)" cx="444.172" cy="1364.73" r="14.4" fill="#ed5d92" fill-rule="evenodd" fill-opacity="1" stroke="#000000" stroke-opacity="1" stroke-width="3.2"/>
<circle clip-path="url(#clip552)" cx="491.65" cy="1344.66" r="14.4" fill="#ed5d92" fill-rule="evenodd" fill-opacity="1" stroke="#000000" stroke-opacity="1" stroke-width="3.2"/>
<circle clip-path="url(#clip552)" cx="539.128" cy="1323.3" r="14.4" fill="#ed5d92" fill-rule="evenodd" fill-opacity="1" stroke="#000000" stroke-opacity="1" stroke-width="3.2"/>
<circle clip-path="url(#clip552)" cx="586.606" cy="1302.52" r="14.4" fill="#ed5d92" fill-rule="evenodd" fill-opacity="1" stroke="#000000" stroke-opacity="1" stroke-width="3.2"/>
<circle clip-path="url(#clip552)" cx="634.084" cy="1282.73" r="14.4" fill="#ed5d92" fill-rule="evenodd" fill-opacity="1" stroke="#000000" stroke-opacity="1" stroke-width="3.2"/>
<circle clip-path="url(#clip552)" cx="681.562" cy="1262.05" r="14.4" fill="#ed5d92" fill-rule="evenodd" fill-opacity="1" stroke="#000000" stroke-opacity="1" stroke-width="3.2"/>
<circle clip-path="url(#clip552)" cx="729.04" cy="1241.58" r="14.4" fill="#ed5d92" fill-rule="evenodd" fill-opacity="1" stroke="#000000" stroke-opacity="1" stroke-width="3.2"/>
<circle clip-path="url(#clip552)" cx="776.518" cy="1220.17" r="14.4" fill="#ed5d92" fill-rule="evenodd" fill-opacity="1" stroke="#000000" stroke-opacity="1" stroke-width="3.2"/>
<circle clip-path="url(#clip552)" cx="871.474" cy="1178.25" r="14.4" fill="#ed5d92" fill-rule="evenodd" fill-opacity="1" stroke="#000000" stroke-opacity="1" stroke-width="3.2"/>
<circle clip-path="url(#clip552)" cx="1346.25" cy="974.265" r="14.4" fill="#ed5d92" fill-rule="evenodd" fill-opacity="1" stroke="#000000" stroke-opacity="1" stroke-width="3.2"/>
<circle clip-path="url(#clip552)" cx="2295.81" cy="564.371" r="14.4" fill="#ed5d92" fill-rule="evenodd" fill-opacity="1" stroke="#000000" stroke-opacity="1" stroke-width="3.2"/>
<circle clip-path="url(#clip552)" cx="397.644" cy="1386.39" r="14.4" fill="#c68125" fill-rule="evenodd" fill-opacity="1" stroke="#000000" stroke-opacity="1" stroke-width="3.2"/>
<circle clip-path="url(#clip552)" cx="406.19" cy="1380.1" r="14.4" fill="#c68125" fill-rule="evenodd" fill-opacity="1" stroke="#000000" stroke-opacity="1" stroke-width="3.2"/>
<circle clip-path="url(#clip552)" cx="444.172" cy="1355.6" r="14.4" fill="#c68125" fill-rule="evenodd" fill-opacity="1" stroke="#000000" stroke-opacity="1" stroke-width="3.2"/>
<circle clip-path="url(#clip552)" cx="491.65" cy="1325.06" r="14.4" fill="#c68125" fill-rule="evenodd" fill-opacity="1" stroke="#000000" stroke-opacity="1" stroke-width="3.2"/>
<circle clip-path="url(#clip552)" cx="539.128" cy="1292.66" r="14.4" fill="#c68125" fill-rule="evenodd" fill-opacity="1" stroke="#000000" stroke-opacity="1" stroke-width="3.2"/>
<circle clip-path="url(#clip552)" cx="586.606" cy="1261.36" r="14.4" fill="#c68125" fill-rule="evenodd" fill-opacity="1" stroke="#000000" stroke-opacity="1" stroke-width="3.2"/>
<circle clip-path="url(#clip552)" cx="634.084" cy="1232.55" r="14.4" fill="#c68125" fill-rule="evenodd" fill-opacity="1" stroke="#000000" stroke-opacity="1" stroke-width="3.2"/>
<circle clip-path="url(#clip552)" cx="681.562" cy="1201.99" r="14.4" fill="#c68125" fill-rule="evenodd" fill-opacity="1" stroke="#000000" stroke-opacity="1" stroke-width="3.2"/>
<circle clip-path="url(#clip552)" cx="729.04" cy="1171.08" r="14.4" fill="#c68125" fill-rule="evenodd" fill-opacity="1" stroke="#000000" stroke-opacity="1" stroke-width="3.2"/>
<circle clip-path="url(#clip552)" cx="776.518" cy="1138.69" r="14.4" fill="#c68125" fill-rule="evenodd" fill-opacity="1" stroke="#000000" stroke-opacity="1" stroke-width="3.2"/>
<circle clip-path="url(#clip552)" cx="871.474" cy="1079.4" r="14.4" fill="#c68125" fill-rule="evenodd" fill-opacity="1" stroke="#000000" stroke-opacity="1" stroke-width="3.2"/>
<circle clip-path="url(#clip552)" cx="1346.25" cy="766.721" r="14.4" fill="#c68125" fill-rule="evenodd" fill-opacity="1" stroke="#000000" stroke-opacity="1" stroke-width="3.2"/>
<circle clip-path="url(#clip552)" cx="2295.81" cy="160.256" r="14.4" fill="#c68125" fill-rule="evenodd" fill-opacity="1" stroke="#000000" stroke-opacity="1" stroke-width="3.2"/>
<circle clip-path="url(#clip552)" cx="397.644" cy="1386.36" r="14.4" fill="#00a98d" fill-rule="evenodd" fill-opacity="1" stroke="#000000" stroke-opacity="1" stroke-width="3.2"/>
<circle clip-path="url(#clip552)" cx="406.19" cy="1380.48" r="14.4" fill="#00a98d" fill-rule="evenodd" fill-opacity="1" stroke="#000000" stroke-opacity="1" stroke-width="3.2"/>
<circle clip-path="url(#clip552)" cx="444.172" cy="1364.18" r="14.4" fill="#00a98d" fill-rule="evenodd" fill-opacity="1" stroke="#000000" stroke-opacity="1" stroke-width="3.2"/>
<circle clip-path="url(#clip552)" cx="491.65" cy="1343.66" r="14.4" fill="#00a98d" fill-rule="evenodd" fill-opacity="1" stroke="#000000" stroke-opacity="1" stroke-width="3.2"/>
<circle clip-path="url(#clip552)" cx="539.128" cy="1322.48" r="14.4" fill="#00a98d" fill-rule="evenodd" fill-opacity="1" stroke="#000000" stroke-opacity="1" stroke-width="3.2"/>
<circle clip-path="url(#clip552)" cx="586.606" cy="1301.98" r="14.4" fill="#00a98d" fill-rule="evenodd" fill-opacity="1" stroke="#000000" stroke-opacity="1" stroke-width="3.2"/>
<circle clip-path="url(#clip552)" cx="634.084" cy="1279.86" r="14.4" fill="#00a98d" fill-rule="evenodd" fill-opacity="1" stroke="#000000" stroke-opacity="1" stroke-width="3.2"/>
<circle clip-path="url(#clip552)" cx="681.562" cy="1259.74" r="14.4" fill="#00a98d" fill-rule="evenodd" fill-opacity="1" stroke="#000000" stroke-opacity="1" stroke-width="3.2"/>
<circle clip-path="url(#clip552)" cx="729.04" cy="1239.65" r="14.4" fill="#00a98d" fill-rule="evenodd" fill-opacity="1" stroke="#000000" stroke-opacity="1" stroke-width="3.2"/>
<circle clip-path="url(#clip552)" cx="776.518" cy="1217.19" r="14.4" fill="#00a98d" fill-rule="evenodd" fill-opacity="1" stroke="#000000" stroke-opacity="1" stroke-width="3.2"/>
<circle clip-path="url(#clip552)" cx="871.474" cy="1175.83" r="14.4" fill="#00a98d" fill-rule="evenodd" fill-opacity="1" stroke="#000000" stroke-opacity="1" stroke-width="3.2"/>
<circle clip-path="url(#clip552)" cx="1346.25" cy="970.16" r="14.4" fill="#00a98d" fill-rule="evenodd" fill-opacity="1" stroke="#000000" stroke-opacity="1" stroke-width="3.2"/>
<circle clip-path="url(#clip552)" cx="2295.81" cy="562.68" r="14.4" fill="#00a98d" fill-rule="evenodd" fill-opacity="1" stroke="#000000" stroke-opacity="1" stroke-width="3.2"/>
<circle clip-path="url(#clip552)" cx="397.644" cy="1386.39" r="14.4" fill="#8e971d" fill-rule="evenodd" fill-opacity="1" stroke="#000000" stroke-opacity="1" stroke-width="3.2"/>
<circle clip-path="url(#clip552)" cx="406.19" cy="1380.92" r="14.4" fill="#8e971d" fill-rule="evenodd" fill-opacity="1" stroke="#000000" stroke-opacity="1" stroke-width="3.2"/>
<circle clip-path="url(#clip552)" cx="444.172" cy="1364.58" r="14.4" fill="#8e971d" fill-rule="evenodd" fill-opacity="1" stroke="#000000" stroke-opacity="1" stroke-width="3.2"/>
<circle clip-path="url(#clip552)" cx="491.65" cy="1344.08" r="14.4" fill="#8e971d" fill-rule="evenodd" fill-opacity="1" stroke="#000000" stroke-opacity="1" stroke-width="3.2"/>
<circle clip-path="url(#clip552)" cx="539.128" cy="1323.34" r="14.4" fill="#8e971d" fill-rule="evenodd" fill-opacity="1" stroke="#000000" stroke-opacity="1" stroke-width="3.2"/>
<circle clip-path="url(#clip552)" cx="586.606" cy="1302.27" r="14.4" fill="#8e971d" fill-rule="evenodd" fill-opacity="1" stroke="#000000" stroke-opacity="1" stroke-width="3.2"/>
<circle clip-path="url(#clip552)" cx="634.084" cy="1280.56" r="14.4" fill="#8e971d" fill-rule="evenodd" fill-opacity="1" stroke="#000000" stroke-opacity="1" stroke-width="3.2"/>
<circle clip-path="url(#clip552)" cx="681.562" cy="1260.93" r="14.4" fill="#8e971d" fill-rule="evenodd" fill-opacity="1" stroke="#000000" stroke-opacity="1" stroke-width="3.2"/>
<circle clip-path="url(#clip552)" cx="729.04" cy="1239.89" r="14.4" fill="#8e971d" fill-rule="evenodd" fill-opacity="1" stroke="#000000" stroke-opacity="1" stroke-width="3.2"/>
<circle clip-path="url(#clip552)" cx="776.518" cy="1218.42" r="14.4" fill="#8e971d" fill-rule="evenodd" fill-opacity="1" stroke="#000000" stroke-opacity="1" stroke-width="3.2"/>
<circle clip-path="url(#clip552)" cx="871.474" cy="1177.45" r="14.4" fill="#8e971d" fill-rule="evenodd" fill-opacity="1" stroke="#000000" stroke-opacity="1" stroke-width="3.2"/>
<circle clip-path="url(#clip552)" cx="1346.25" cy="973.914" r="14.4" fill="#8e971d" fill-rule="evenodd" fill-opacity="1" stroke="#000000" stroke-opacity="1" stroke-width="3.2"/>
<circle clip-path="url(#clip552)" cx="2295.81" cy="555.367" r="14.4" fill="#8e971d" fill-rule="evenodd" fill-opacity="1" stroke="#000000" stroke-opacity="1" stroke-width="3.2"/>
<path clip-path="url(#clip550)" d="M407.768 477.836 L841.611 477.836 L841.611 166.796 L407.768 166.796  Z" fill="#ffffff" fill-rule="evenodd" fill-opacity="1"/>
<polyline clip-path="url(#clip550)" style="stroke:#000000; stroke-linecap:round; stroke-linejoin:round; stroke-width:4; stroke-opacity:1; fill:none" points="407.768,477.836 841.611,477.836 841.611,166.796 407.768,166.796 407.768,477.836 "/>
<polyline clip-path="url(#clip550)" style="stroke:#009af9; stroke-linecap:round; stroke-linejoin:round; stroke-width:4; stroke-opacity:1; fill:none" points="430.124,218.636 564.261,218.636 "/>
<path clip-path="url(#clip550)" d="M603.122 199.897 L603.122 203.439 L599.048 203.439 Q596.756 203.439 595.853 204.365 Q594.973 205.291 594.973 207.698 L594.973 209.99 L601.987 209.99 L601.987 213.3 L594.973 213.3 L594.973 235.916 L590.691 235.916 L590.691 213.3 L586.617 213.3 L586.617 209.99 L590.691 209.99 L590.691 208.184 Q590.691 203.856 592.705 201.888 Q594.719 199.897 599.094 199.897 L603.122 199.897 Z" fill="#000000" fill-rule="nonzero" fill-opacity="1" /><path clip-path="url(#clip550)" d="M606.686 209.99 L610.946 209.99 L610.946 235.916 L606.686 235.916 L606.686 209.99 M606.686 199.897 L610.946 199.897 L610.946 205.291 L606.686 205.291 L606.686 199.897 Z" fill="#000000" fill-rule="nonzero" fill-opacity="1" /><path clip-path="url(#clip550)" d="M634.881 213.971 Q634.163 213.555 633.307 213.37 Q632.473 213.161 631.455 213.161 Q627.844 213.161 625.899 215.522 Q623.978 217.86 623.978 222.258 L623.978 235.916 L619.696 235.916 L619.696 209.99 L623.978 209.99 L623.978 214.018 Q625.321 211.657 627.473 210.522 Q629.626 209.365 632.705 209.365 Q633.145 209.365 633.677 209.434 Q634.209 209.481 634.858 209.596 L634.881 213.971 Z" fill="#000000" fill-rule="nonzero" fill-opacity="1" /><path clip-path="url(#clip550)" d="M655.876 210.754 L655.876 214.782 Q654.07 213.856 652.126 213.393 Q650.181 212.93 648.098 212.93 Q644.927 212.93 643.33 213.902 Q641.756 214.874 641.756 216.819 Q641.756 218.3 642.89 219.157 Q644.024 219.99 647.45 220.754 L648.908 221.078 Q653.445 222.05 655.344 223.832 Q657.265 225.592 657.265 228.763 Q657.265 232.374 654.394 234.481 Q651.547 236.587 646.547 236.587 Q644.464 236.587 642.195 236.17 Q639.95 235.777 637.45 234.967 L637.45 230.569 Q639.811 231.795 642.103 232.42 Q644.394 233.022 646.64 233.022 Q649.649 233.022 651.269 232.004 Q652.89 230.962 652.89 229.087 Q652.89 227.351 651.709 226.425 Q650.552 225.499 646.594 224.643 L645.112 224.295 Q641.154 223.462 639.395 221.749 Q637.635 220.013 637.635 217.004 Q637.635 213.346 640.228 211.356 Q642.82 209.365 647.589 209.365 Q649.95 209.365 652.033 209.712 Q654.117 210.059 655.876 210.754 Z" fill="#000000" fill-rule="nonzero" fill-opacity="1" /><path clip-path="url(#clip550)" d="M668.26 202.629 L668.26 209.99 L677.033 209.99 L677.033 213.3 L668.26 213.3 L668.26 227.374 Q668.26 230.545 669.117 231.448 Q669.996 232.351 672.658 232.351 L677.033 232.351 L677.033 235.916 L672.658 235.916 Q667.728 235.916 665.853 234.087 Q663.978 232.235 663.978 227.374 L663.978 213.3 L660.853 213.3 L660.853 209.99 L663.978 209.99 L663.978 202.629 L668.26 202.629 Z" fill="#000000" fill-rule="nonzero" fill-opacity="1" /><polyline clip-path="url(#clip550)" style="stroke:#e26f46; stroke-linecap:round; stroke-linejoin:round; stroke-width:4; stroke-opacity:1; fill:none" points="430.124,270.476 564.261,270.476 "/>
<path clip-path="url(#clip550)" d="M605.043 262.594 L605.043 266.622 Q603.237 265.696 601.293 265.233 Q599.348 264.77 597.265 264.77 Q594.094 264.77 592.497 265.742 Q590.923 266.714 590.923 268.659 Q590.923 270.14 592.057 270.997 Q593.191 271.83 596.617 272.594 L598.075 272.918 Q602.612 273.89 604.51 275.672 Q606.432 277.432 606.432 280.603 Q606.432 284.214 603.561 286.321 Q600.714 288.427 595.714 288.427 Q593.631 288.427 591.362 288.01 Q589.117 287.617 586.617 286.807 L586.617 282.409 Q588.978 283.635 591.27 284.26 Q593.561 284.862 595.807 284.862 Q598.816 284.862 600.436 283.844 Q602.057 282.802 602.057 280.927 Q602.057 279.191 600.876 278.265 Q599.719 277.339 595.76 276.483 L594.279 276.135 Q590.321 275.302 588.561 273.589 Q586.802 271.853 586.802 268.844 Q586.802 265.186 589.395 263.196 Q591.987 261.205 596.756 261.205 Q599.117 261.205 601.2 261.552 Q603.284 261.899 605.043 262.594 Z" fill="#000000" fill-rule="nonzero" fill-opacity="1" /><path clip-path="url(#clip550)" d="M635.39 273.728 L635.39 275.811 L615.807 275.811 Q616.084 280.209 618.446 282.524 Q620.83 284.816 625.066 284.816 Q627.52 284.816 629.811 284.214 Q632.126 283.612 634.395 282.409 L634.395 286.436 Q632.103 287.408 629.695 287.918 Q627.288 288.427 624.811 288.427 Q618.608 288.427 614.973 284.816 Q611.362 281.205 611.362 275.047 Q611.362 268.682 614.788 264.955 Q618.237 261.205 624.071 261.205 Q629.302 261.205 632.334 264.585 Q635.39 267.941 635.39 273.728 M631.131 272.478 Q631.084 268.983 629.163 266.899 Q627.265 264.816 624.117 264.816 Q620.552 264.816 618.399 266.83 Q616.27 268.844 615.946 272.501 L631.131 272.478 Z" fill="#000000" fill-rule="nonzero" fill-opacity="1" /><path clip-path="url(#clip550)" d="M661.038 262.825 L661.038 266.807 Q659.232 265.811 657.404 265.325 Q655.598 264.816 653.746 264.816 Q649.603 264.816 647.311 267.455 Q645.019 270.071 645.019 274.816 Q645.019 279.561 647.311 282.2 Q649.603 284.816 653.746 284.816 Q655.598 284.816 657.404 284.33 Q659.232 283.821 661.038 282.825 L661.038 286.76 Q659.256 287.594 657.334 288.01 Q655.436 288.427 653.283 288.427 Q647.427 288.427 643.978 284.746 Q640.529 281.066 640.529 274.816 Q640.529 268.473 644.001 264.839 Q647.496 261.205 653.561 261.205 Q655.529 261.205 657.404 261.622 Q659.279 262.015 661.038 262.825 Z" fill="#000000" fill-rule="nonzero" fill-opacity="1" /><path clip-path="url(#clip550)" d="M678.492 264.816 Q675.066 264.816 673.075 267.501 Q671.084 270.163 671.084 274.816 Q671.084 279.469 673.052 282.154 Q675.042 284.816 678.492 284.816 Q681.894 284.816 683.885 282.131 Q685.876 279.446 685.876 274.816 Q685.876 270.21 683.885 267.524 Q681.894 264.816 678.492 264.816 M678.492 261.205 Q684.047 261.205 687.218 264.816 Q690.39 268.427 690.39 274.816 Q690.39 281.182 687.218 284.816 Q684.047 288.427 678.492 288.427 Q672.913 288.427 669.742 284.816 Q666.593 281.182 666.593 274.816 Q666.593 268.427 669.742 264.816 Q672.913 261.205 678.492 261.205 Z" fill="#000000" fill-rule="nonzero" fill-opacity="1" /><path clip-path="url(#clip550)" d="M719.001 272.108 L719.001 287.756 L714.741 287.756 L714.741 272.247 Q714.741 268.566 713.306 266.737 Q711.871 264.909 709.001 264.909 Q705.552 264.909 703.561 267.108 Q701.57 269.307 701.57 273.103 L701.57 287.756 L697.288 287.756 L697.288 261.83 L701.57 261.83 L701.57 265.858 Q703.098 263.52 705.158 262.362 Q707.241 261.205 709.95 261.205 Q714.417 261.205 716.709 263.983 Q719.001 266.737 719.001 272.108 Z" fill="#000000" fill-rule="nonzero" fill-opacity="1" /><path clip-path="url(#clip550)" d="M744.556 265.765 L744.556 251.737 L748.815 251.737 L748.815 287.756 L744.556 287.756 L744.556 283.867 Q743.213 286.182 741.153 287.316 Q739.116 288.427 736.246 288.427 Q731.547 288.427 728.584 284.677 Q725.644 280.927 725.644 274.816 Q725.644 268.705 728.584 264.955 Q731.547 261.205 736.246 261.205 Q739.116 261.205 741.153 262.339 Q743.213 263.45 744.556 265.765 M730.042 274.816 Q730.042 279.515 731.963 282.2 Q733.908 284.862 737.288 284.862 Q740.667 284.862 742.612 282.2 Q744.556 279.515 744.556 274.816 Q744.556 270.117 742.612 267.455 Q740.667 264.77 737.288 264.77 Q733.908 264.77 731.963 267.455 Q730.042 270.117 730.042 274.816 Z" fill="#000000" fill-rule="nonzero" fill-opacity="1" /><polyline clip-path="url(#clip550)" style="stroke:#3da44d; stroke-linecap:round; stroke-linejoin:round; stroke-width:4; stroke-opacity:1; fill:none" points="430.124,322.316 564.261,322.316 "/>
<path clip-path="url(#clip550)" d="M606.964 318.647 Q608.561 315.776 610.784 314.411 Q613.006 313.045 616.015 313.045 Q620.066 313.045 622.265 315.892 Q624.464 318.716 624.464 323.948 L624.464 339.596 L620.182 339.596 L620.182 324.087 Q620.182 320.36 618.862 318.554 Q617.543 316.749 614.834 316.749 Q611.524 316.749 609.603 318.948 Q607.682 321.147 607.682 324.943 L607.682 339.596 L603.399 339.596 L603.399 324.087 Q603.399 320.337 602.08 318.554 Q600.76 316.749 598.006 316.749 Q594.742 316.749 592.821 318.971 Q590.899 321.17 590.899 324.943 L590.899 339.596 L586.617 339.596 L586.617 313.67 L590.899 313.67 L590.899 317.698 Q592.358 315.313 594.395 314.179 Q596.432 313.045 599.233 313.045 Q602.057 313.045 604.024 314.48 Q606.015 315.915 606.964 318.647 Z" fill="#000000" fill-rule="nonzero" fill-opacity="1" /><path clip-path="url(#clip550)" d="M632.959 313.67 L637.219 313.67 L637.219 339.596 L632.959 339.596 L632.959 313.67 M632.959 303.577 L637.219 303.577 L637.219 308.971 L632.959 308.971 L632.959 303.577 Z" fill="#000000" fill-rule="nonzero" fill-opacity="1" /><path clip-path="url(#clip550)" d="M663.191 317.605 L663.191 303.577 L667.45 303.577 L667.45 339.596 L663.191 339.596 L663.191 335.707 Q661.848 338.022 659.788 339.156 Q657.751 340.267 654.881 340.267 Q650.181 340.267 647.219 336.517 Q644.279 332.767 644.279 326.656 Q644.279 320.545 647.219 316.795 Q650.181 313.045 654.881 313.045 Q657.751 313.045 659.788 314.179 Q661.848 315.29 663.191 317.605 M648.677 326.656 Q648.677 331.355 650.598 334.04 Q652.543 336.702 655.922 336.702 Q659.302 336.702 661.246 334.04 Q663.191 331.355 663.191 326.656 Q663.191 321.957 661.246 319.295 Q659.302 316.61 655.922 316.61 Q652.543 316.61 650.598 319.295 Q648.677 321.957 648.677 326.656 Z" fill="#000000" fill-rule="nonzero" fill-opacity="1" /><path clip-path="url(#clip550)" d="M693.283 317.605 L693.283 303.577 L697.542 303.577 L697.542 339.596 L693.283 339.596 L693.283 335.707 Q691.941 338.022 689.88 339.156 Q687.843 340.267 684.973 340.267 Q680.274 340.267 677.311 336.517 Q674.371 332.767 674.371 326.656 Q674.371 320.545 677.311 316.795 Q680.274 313.045 684.973 313.045 Q687.843 313.045 689.88 314.179 Q691.941 315.29 693.283 317.605 M678.769 326.656 Q678.769 331.355 680.691 334.04 Q682.635 336.702 686.015 336.702 Q689.394 336.702 691.339 334.04 Q693.283 331.355 693.283 326.656 Q693.283 321.957 691.339 319.295 Q689.394 316.61 686.015 316.61 Q682.635 316.61 680.691 319.295 Q678.769 321.957 678.769 326.656 Z" fill="#000000" fill-rule="nonzero" fill-opacity="1" /><path clip-path="url(#clip550)" d="M706.315 303.577 L710.575 303.577 L710.575 339.596 L706.315 339.596 L706.315 303.577 Z" fill="#000000" fill-rule="nonzero" fill-opacity="1" /><path clip-path="url(#clip550)" d="M741.662 325.568 L741.662 327.651 L722.079 327.651 Q722.357 332.049 724.718 334.364 Q727.102 336.656 731.338 336.656 Q733.792 336.656 736.084 336.054 Q738.399 335.452 740.667 334.249 L740.667 338.276 Q738.375 339.248 735.968 339.758 Q733.561 340.267 731.084 340.267 Q724.88 340.267 721.246 336.656 Q717.635 333.045 717.635 326.887 Q717.635 320.522 721.061 316.795 Q724.51 313.045 730.343 313.045 Q735.575 313.045 738.607 316.425 Q741.662 319.781 741.662 325.568 M737.403 324.318 Q737.357 320.823 735.436 318.739 Q733.538 316.656 730.389 316.656 Q726.825 316.656 724.672 318.67 Q722.542 320.684 722.218 324.341 L737.403 324.318 Z" fill="#000000" fill-rule="nonzero" fill-opacity="1" /><polyline clip-path="url(#clip550)" style="stroke:#c271d2; stroke-linecap:round; stroke-linejoin:round; stroke-width:4; stroke-opacity:1; fill:none" points="430.124,374.156 564.261,374.156 "/>
<path clip-path="url(#clip550)" d="M605.39 378.496 Q605.39 373.797 603.446 371.135 Q601.524 368.45 598.145 368.45 Q594.765 368.45 592.821 371.135 Q590.899 373.797 590.899 378.496 Q590.899 383.195 592.821 385.88 Q594.765 388.542 598.145 388.542 Q601.524 388.542 603.446 385.88 Q605.39 383.195 605.39 378.496 M590.899 369.445 Q592.242 367.13 594.279 366.019 Q596.339 364.885 599.186 364.885 Q603.909 364.885 606.848 368.635 Q609.811 372.385 609.811 378.496 Q609.811 384.607 606.848 388.357 Q603.909 392.107 599.186 392.107 Q596.339 392.107 594.279 390.996 Q592.242 389.862 590.899 387.547 L590.899 391.436 L586.617 391.436 L586.617 355.417 L590.899 355.417 L590.899 369.445 Z" fill="#000000" fill-rule="nonzero" fill-opacity="1" /><path clip-path="url(#clip550)" d="M639.047 377.408 L639.047 379.491 L619.464 379.491 Q619.742 383.889 622.103 386.204 Q624.487 388.496 628.723 388.496 Q631.177 388.496 633.469 387.894 Q635.783 387.292 638.052 386.089 L638.052 390.116 Q635.76 391.088 633.353 391.598 Q630.945 392.107 628.469 392.107 Q622.265 392.107 618.631 388.496 Q615.02 384.885 615.02 378.727 Q615.02 372.362 618.446 368.635 Q621.895 364.885 627.728 364.885 Q632.959 364.885 635.992 368.265 Q639.047 371.621 639.047 377.408 M634.788 376.158 Q634.742 372.663 632.82 370.579 Q630.922 368.496 627.774 368.496 Q624.209 368.496 622.057 370.51 Q619.927 372.524 619.603 376.181 L634.788 376.158 Z" fill="#000000" fill-rule="nonzero" fill-opacity="1" /><path clip-path="url(#clip550)" d="M659.163 355.417 L659.163 358.959 L655.089 358.959 Q652.797 358.959 651.894 359.885 Q651.015 360.811 651.015 363.218 L651.015 365.51 L658.029 365.51 L658.029 368.82 L651.015 368.82 L651.015 391.436 L646.732 391.436 L646.732 368.82 L642.658 368.82 L642.658 365.51 L646.732 365.51 L646.732 363.704 Q646.732 359.376 648.746 357.408 Q650.76 355.417 655.135 355.417 L659.163 355.417 Z" fill="#000000" fill-rule="nonzero" fill-opacity="1" /><path clip-path="url(#clip550)" d="M672.774 368.496 Q669.348 368.496 667.357 371.181 Q665.367 373.843 665.367 378.496 Q665.367 383.149 667.334 385.834 Q669.325 388.496 672.774 388.496 Q676.177 388.496 678.167 385.811 Q680.158 383.126 680.158 378.496 Q680.158 373.89 678.167 371.204 Q676.177 368.496 672.774 368.496 M672.774 364.885 Q678.329 364.885 681.501 368.496 Q684.672 372.107 684.672 378.496 Q684.672 384.862 681.501 388.496 Q678.329 392.107 672.774 392.107 Q667.195 392.107 664.024 388.496 Q660.876 384.862 660.876 378.496 Q660.876 372.107 664.024 368.496 Q667.195 364.885 672.774 364.885 Z" fill="#000000" fill-rule="nonzero" fill-opacity="1" /><path clip-path="url(#clip550)" d="M706.755 369.491 Q706.038 369.075 705.181 368.89 Q704.348 368.681 703.329 368.681 Q699.718 368.681 697.774 371.042 Q695.853 373.38 695.853 377.778 L695.853 391.436 L691.57 391.436 L691.57 365.51 L695.853 365.51 L695.853 369.538 Q697.195 367.177 699.348 366.042 Q701.501 364.885 704.579 364.885 Q705.019 364.885 705.552 364.954 Q706.084 365.001 706.732 365.116 L706.755 369.491 Z" fill="#000000" fill-rule="nonzero" fill-opacity="1" /><path clip-path="url(#clip550)" d="M732.357 377.408 L732.357 379.491 L712.774 379.491 Q713.052 383.889 715.413 386.204 Q717.797 388.496 722.033 388.496 Q724.487 388.496 726.778 387.894 Q729.093 387.292 731.362 386.089 L731.362 390.116 Q729.07 391.088 726.663 391.598 Q724.255 392.107 721.778 392.107 Q715.575 392.107 711.94 388.496 Q708.329 384.885 708.329 378.727 Q708.329 372.362 711.755 368.635 Q715.204 364.885 721.038 364.885 Q726.269 364.885 729.301 368.265 Q732.357 371.621 732.357 377.408 M728.098 376.158 Q728.051 372.663 726.13 370.579 Q724.232 368.496 721.084 368.496 Q717.519 368.496 715.366 370.51 Q713.237 372.524 712.913 376.181 L728.098 376.158 Z" fill="#000000" fill-rule="nonzero" fill-opacity="1" /><path clip-path="url(#clip550)" d="M739.348 355.417 L743.607 355.417 L743.607 391.436 L739.348 391.436 L739.348 355.417 Z" fill="#000000" fill-rule="nonzero" fill-opacity="1" /><path clip-path="url(#clip550)" d="M764.301 378.403 Q759.139 378.403 757.149 379.584 Q755.158 380.764 755.158 383.612 Q755.158 385.88 756.639 387.223 Q758.144 388.542 760.713 388.542 Q764.255 388.542 766.385 386.042 Q768.537 383.519 768.537 379.352 L768.537 378.403 L764.301 378.403 M772.797 376.644 L772.797 391.436 L768.537 391.436 L768.537 387.501 Q767.079 389.862 764.903 390.996 Q762.727 392.107 759.579 392.107 Q755.598 392.107 753.237 389.885 Q750.899 387.639 750.899 383.889 Q750.899 379.514 753.815 377.292 Q756.755 375.07 762.565 375.07 L768.537 375.07 L768.537 374.653 Q768.537 371.714 766.593 370.116 Q764.672 368.496 761.176 368.496 Q758.954 368.496 756.848 369.028 Q754.741 369.561 752.797 370.626 L752.797 366.69 Q755.135 365.788 757.334 365.348 Q759.533 364.885 761.616 364.885 Q767.241 364.885 770.019 367.802 Q772.797 370.718 772.797 376.644 Z" fill="#000000" fill-rule="nonzero" fill-opacity="1" /><path clip-path="url(#clip550)" d="M798.097 366.274 L798.097 370.302 Q796.292 369.376 794.347 368.913 Q792.403 368.45 790.32 368.45 Q787.148 368.45 785.551 369.422 Q783.977 370.394 783.977 372.339 Q783.977 373.82 785.111 374.677 Q786.246 375.51 789.671 376.274 L791.13 376.598 Q795.667 377.57 797.565 379.352 Q799.486 381.112 799.486 384.283 Q799.486 387.894 796.616 390.001 Q793.769 392.107 788.769 392.107 Q786.685 392.107 784.417 391.69 Q782.172 391.297 779.672 390.487 L779.672 386.089 Q782.033 387.315 784.324 387.94 Q786.616 388.542 788.861 388.542 Q791.871 388.542 793.491 387.524 Q795.111 386.482 795.111 384.607 Q795.111 382.871 793.931 381.945 Q792.773 381.019 788.815 380.163 L787.334 379.815 Q783.375 378.982 781.616 377.269 Q779.857 375.533 779.857 372.524 Q779.857 368.866 782.449 366.876 Q785.042 364.885 789.81 364.885 Q792.171 364.885 794.255 365.232 Q796.338 365.579 798.097 366.274 Z" fill="#000000" fill-rule="nonzero" fill-opacity="1" /><path clip-path="url(#clip550)" d="M810.482 358.149 L810.482 365.51 L819.255 365.51 L819.255 368.82 L810.482 368.82 L810.482 382.894 Q810.482 386.065 811.338 386.968 Q812.218 387.871 814.88 387.871 L819.255 387.871 L819.255 391.436 L814.88 391.436 Q809.949 391.436 808.074 389.607 Q806.199 387.755 806.199 382.894 L806.199 368.82 L803.074 368.82 L803.074 365.51 L806.199 365.51 L806.199 358.149 L810.482 358.149 Z" fill="#000000" fill-rule="nonzero" fill-opacity="1" /><polyline clip-path="url(#clip550)" style="stroke:#ac8d18; stroke-linecap:round; stroke-linejoin:round; stroke-width:4; stroke-opacity:1; fill:none" points="430.124,425.996 564.261,425.996 "/>
<path clip-path="url(#clip550)" d="M586.617 407.257 L590.876 407.257 L590.876 443.276 L586.617 443.276 L586.617 407.257 Z" fill="#000000" fill-rule="nonzero" fill-opacity="1" /><path clip-path="url(#clip550)" d="M611.571 430.243 Q606.409 430.243 604.418 431.424 Q602.427 432.604 602.427 435.452 Q602.427 437.72 603.909 439.063 Q605.413 440.382 607.983 440.382 Q611.524 440.382 613.654 437.882 Q615.807 435.359 615.807 431.192 L615.807 430.243 L611.571 430.243 M620.066 428.484 L620.066 443.276 L615.807 443.276 L615.807 439.341 Q614.348 441.702 612.172 442.836 Q609.997 443.947 606.848 443.947 Q602.867 443.947 600.506 441.725 Q598.168 439.479 598.168 435.729 Q598.168 431.354 601.085 429.132 Q604.024 426.91 609.834 426.91 L615.807 426.91 L615.807 426.493 Q615.807 423.554 613.862 421.956 Q611.941 420.336 608.446 420.336 Q606.223 420.336 604.117 420.868 Q602.01 421.401 600.066 422.466 L600.066 418.53 Q602.404 417.628 604.603 417.188 Q606.802 416.725 608.885 416.725 Q614.51 416.725 617.288 419.642 Q620.066 422.558 620.066 428.484 Z" fill="#000000" fill-rule="nonzero" fill-opacity="1" /><path clip-path="url(#clip550)" d="M645.367 418.114 L645.367 422.142 Q643.561 421.216 641.617 420.753 Q639.672 420.29 637.589 420.29 Q634.418 420.29 632.82 421.262 Q631.246 422.234 631.246 424.179 Q631.246 425.66 632.381 426.517 Q633.515 427.35 636.941 428.114 L638.399 428.438 Q642.936 429.41 644.834 431.192 Q646.756 432.952 646.756 436.123 Q646.756 439.734 643.885 441.841 Q641.038 443.947 636.038 443.947 Q633.955 443.947 631.686 443.53 Q629.441 443.137 626.941 442.327 L626.941 437.929 Q629.302 439.155 631.594 439.78 Q633.885 440.382 636.131 440.382 Q639.14 440.382 640.76 439.364 Q642.381 438.322 642.381 436.447 Q642.381 434.711 641.2 433.785 Q640.043 432.859 636.084 432.003 L634.603 431.655 Q630.645 430.822 628.885 429.109 Q627.126 427.373 627.126 424.364 Q627.126 420.706 629.719 418.716 Q632.311 416.725 637.08 416.725 Q639.441 416.725 641.524 417.072 Q643.607 417.419 645.367 418.114 Z" fill="#000000" fill-rule="nonzero" fill-opacity="1" /><path clip-path="url(#clip550)" d="M657.751 409.989 L657.751 417.35 L666.524 417.35 L666.524 420.66 L657.751 420.66 L657.751 434.734 Q657.751 437.905 658.607 438.808 Q659.487 439.711 662.149 439.711 L666.524 439.711 L666.524 443.276 L662.149 443.276 Q657.218 443.276 655.344 441.447 Q653.469 439.595 653.469 434.734 L653.469 420.66 L650.344 420.66 L650.344 417.35 L653.469 417.35 L653.469 409.989 L657.751 409.989 Z" fill="#000000" fill-rule="nonzero" fill-opacity="1" /></svg>
