<?xml version="1.0" encoding="utf-8"?>
<svg xmlns="http://www.w3.org/2000/svg" xmlns:xlink="http://www.w3.org/1999/xlink" width="600" height="400" viewBox="0 0 2400 1600">
<defs>
  <clipPath id="clip420">
    <rect x="0" y="0" width="2400" height="1600"/>
  </clipPath>
</defs>
<path clip-path="url(#clip420)" d="M0 1600 L2400 1600 L2400 0 L0 0  Z" fill="#ffffff" fill-rule="evenodd" fill-opacity="1"/>
<defs>
  <clipPath id="clip421">
    <rect x="480" y="0" width="1681" height="1600"/>
  </clipPath>
</defs>
<path clip-path="url(#clip420)" d="M369.703 1423.18 L2352.76 1423.18 L2352.76 123.472 L369.703 123.472  Z" fill="#ffffff" fill-rule="evenodd" fill-opacity="1"/>
<defs>
  <clipPath id="clip422">
    <rect x="369" y="123" width="1984" height="1301"/>
  </clipPath>
</defs>
<polyline clip-path="url(#clip422)" style="stroke:#000000; stroke-linecap:round; stroke-linejoin:round; stroke-width:2; stroke-opacity:0.1; fill:none" points="424.892,1423.18 424.892,123.472 "/>
<polyline clip-path="url(#clip422)" style="stroke:#000000; stroke-linecap:round; stroke-linejoin:round; stroke-width:2; stroke-opacity:0.1; fill:none" points="892.827,1423.18 892.827,123.472 "/>
<polyline clip-path="url(#clip422)" style="stroke:#000000; stroke-linecap:round; stroke-linejoin:round; stroke-width:2; stroke-opacity:0.1; fill:none" points="1360.76,1423.18 1360.76,123.472 "/>
<polyline clip-path="url(#clip422)" style="stroke:#000000; stroke-linecap:round; stroke-linejoin:round; stroke-width:2; stroke-opacity:0.1; fill:none" points="1828.7,1423.18 1828.7,123.472 "/>
<polyline clip-path="url(#clip422)" style="stroke:#000000; stroke-linecap:round; stroke-linejoin:round; stroke-width:2; stroke-opacity:0.1; fill:none" points="2296.63,1423.18 2296.63,123.472 "/>
<polyline clip-path="url(#clip420)" style="stroke:#000000; stroke-linecap:round; stroke-linejoin:round; stroke-width:4; stroke-opacity:1; fill:none" points="369.703,1423.18 2352.76,1423.18 "/>
<polyline clip-path="url(#clip420)" style="stroke:#000000; stroke-linecap:round; stroke-linejoin:round; stroke-width:4; stroke-opacity:1; fill:none" points="424.892,1423.18 424.892,1404.28 "/>
<polyline clip-path="url(#clip420)" style="stroke:#000000; stroke-linecap:round; stroke-linejoin:round; stroke-width:4; stroke-opacity:1; fill:none" points="892.827,1423.18 892.827,1404.28 "/>
<polyline clip-path="url(#clip420)" style="stroke:#000000; stroke-linecap:round; stroke-linejoin:round; stroke-width:4; stroke-opacity:1; fill:none" points="1360.76,1423.18 1360.76,1404.28 "/>
<polyline clip-path="url(#clip420)" style="stroke:#000000; stroke-linecap:round; stroke-linejoin:round; stroke-width:4; stroke-opacity:1; fill:none" points="1828.7,1423.18 1828.7,1404.28 "/>
<polyline clip-path="url(#clip420)" style="stroke:#000000; stroke-linecap:round; stroke-linejoin:round; stroke-width:4; stroke-opacity:1; fill:none" points="2296.63,1423.18 2296.63,1404.28 "/>
<path clip-path="url(#clip420)" d="M424.892 1454.1 Q421.281 1454.1 419.452 1457.66 Q417.646 1461.2 417.646 1468.33 Q417.646 1475.44 419.452 1479.01 Q421.281 1482.55 424.892 1482.55 Q428.526 1482.55 430.331 1479.01 Q432.16 1475.44 432.16 1468.33 Q432.16 1461.2 430.331 1457.66 Q428.526 1454.1 424.892 1454.1 M424.892 1450.39 Q430.702 1450.39 433.757 1455 Q436.836 1459.58 436.836 1468.33 Q436.836 1477.06 433.757 1481.67 Q430.702 1486.25 424.892 1486.25 Q419.082 1486.25 416.003 1481.67 Q412.947 1477.06 412.947 1468.33 Q412.947 1459.58 416.003 1455 Q419.082 1450.39 424.892 1450.39 Z" fill="#000000" fill-rule="nonzero" fill-opacity="1" /><path clip-path="url(#clip420)" d="M852.445 1451.02 L870.801 1451.02 L870.801 1454.96 L856.727 1454.96 L856.727 1463.43 Q857.746 1463.08 858.764 1462.92 Q859.783 1462.73 860.801 1462.73 Q866.588 1462.73 869.968 1465.9 Q873.348 1469.08 873.348 1474.49 Q873.348 1480.07 869.875 1483.17 Q866.403 1486.25 860.084 1486.25 Q857.908 1486.25 855.639 1485.88 Q853.394 1485.51 850.987 1484.77 L850.987 1480.07 Q853.07 1481.2 855.292 1481.76 Q857.514 1482.32 859.991 1482.32 Q863.996 1482.32 866.334 1480.21 Q868.672 1478.1 868.672 1474.49 Q868.672 1470.88 866.334 1468.77 Q863.996 1466.67 859.991 1466.67 Q858.116 1466.67 856.241 1467.08 Q854.389 1467.5 852.445 1468.38 L852.445 1451.02 Z" fill="#000000" fill-rule="nonzero" fill-opacity="1" /><path clip-path="url(#clip420)" d="M892.561 1454.1 Q888.949 1454.1 887.121 1457.66 Q885.315 1461.2 885.315 1468.33 Q885.315 1475.44 887.121 1479.01 Q888.949 1482.55 892.561 1482.55 Q896.195 1482.55 898 1479.01 Q899.829 1475.44 899.829 1468.33 Q899.829 1461.2 898 1457.66 Q896.195 1454.1 892.561 1454.1 M892.561 1450.39 Q898.371 1450.39 901.426 1455 Q904.505 1459.58 904.505 1468.33 Q904.505 1477.06 901.426 1481.67 Q898.371 1486.25 892.561 1486.25 Q886.75 1486.25 883.672 1481.67 Q880.616 1477.06 880.616 1468.33 Q880.616 1459.58 883.672 1455 Q886.75 1450.39 892.561 1450.39 Z" fill="#000000" fill-rule="nonzero" fill-opacity="1" /><path clip-path="url(#clip420)" d="M922.722 1454.1 Q919.111 1454.1 917.283 1457.66 Q915.477 1461.2 915.477 1468.33 Q915.477 1475.44 917.283 1479.01 Q919.111 1482.55 922.722 1482.55 Q926.357 1482.55 928.162 1479.01 Q929.991 1475.44 929.991 1468.33 Q929.991 1461.2 928.162 1457.66 Q926.357 1454.1 922.722 1454.1 M922.722 1450.39 Q928.533 1450.39 931.588 1455 Q934.667 1459.58 934.667 1468.33 Q934.667 1477.06 931.588 1481.67 Q928.533 1486.25 922.722 1486.25 Q916.912 1486.25 913.834 1481.67 Q910.778 1477.06 910.778 1468.33 Q910.778 1459.58 913.834 1455 Q916.912 1450.39 922.722 1450.39 Z" fill="#000000" fill-rule="nonzero" fill-opacity="1" /><path clip-path="url(#clip420)" d="M1305.29 1481.64 L1312.93 1481.64 L1312.93 1455.28 L1304.62 1456.95 L1304.62 1452.69 L1312.88 1451.02 L1317.56 1451.02 L1317.56 1481.64 L1325.19 1481.64 L1325.19 1485.58 L1305.29 1485.58 L1305.29 1481.64 Z" fill="#000000" fill-rule="nonzero" fill-opacity="1" /><path clip-path="url(#clip420)" d="M1344.64 1454.1 Q1341.03 1454.1 1339.2 1457.66 Q1337.39 1461.2 1337.39 1468.33 Q1337.39 1475.44 1339.2 1479.01 Q1341.03 1482.55 1344.64 1482.55 Q1348.27 1482.55 1350.08 1479.01 Q1351.91 1475.44 1351.91 1468.33 Q1351.91 1461.2 1350.08 1457.66 Q1348.27 1454.1 1344.64 1454.1 M1344.64 1450.39 Q1350.45 1450.39 1353.5 1455 Q1356.58 1459.58 1356.58 1468.33 Q1356.58 1477.06 1353.5 1481.67 Q1350.45 1486.25 1344.64 1486.25 Q1338.83 1486.25 1335.75 1481.67 Q1332.69 1477.06 1332.69 1468.33 Q1332.69 1459.58 1335.75 1455 Q1338.83 1450.39 1344.64 1450.39 Z" fill="#000000" fill-rule="nonzero" fill-opacity="1" /><path clip-path="url(#clip420)" d="M1374.8 1454.1 Q1371.19 1454.1 1369.36 1457.66 Q1367.56 1461.2 1367.56 1468.33 Q1367.56 1475.44 1369.36 1479.01 Q1371.19 1482.55 1374.8 1482.55 Q1378.44 1482.55 1380.24 1479.01 Q1382.07 1475.44 1382.07 1468.33 Q1382.07 1461.2 1380.24 1457.66 Q1378.44 1454.1 1374.8 1454.1 M1374.8 1450.39 Q1380.61 1450.39 1383.67 1455 Q1386.75 1459.58 1386.75 1468.33 Q1386.75 1477.06 1383.67 1481.67 Q1380.61 1486.25 1374.8 1486.25 Q1368.99 1486.25 1365.91 1481.67 Q1362.86 1477.06 1362.86 1468.33 Q1362.86 1459.58 1365.91 1455 Q1368.99 1450.39 1374.8 1450.39 Z" fill="#000000" fill-rule="nonzero" fill-opacity="1" /><path clip-path="url(#clip420)" d="M1404.96 1454.1 Q1401.35 1454.1 1399.52 1457.66 Q1397.72 1461.2 1397.72 1468.33 Q1397.72 1475.44 1399.52 1479.01 Q1401.35 1482.55 1404.96 1482.55 Q1408.6 1482.55 1410.4 1479.01 Q1412.23 1475.44 1412.23 1468.33 Q1412.23 1461.2 1410.4 1457.66 Q1408.6 1454.1 1404.96 1454.1 M1404.96 1450.39 Q1410.77 1450.39 1413.83 1455 Q1416.91 1459.58 1416.91 1468.33 Q1416.91 1477.06 1413.83 1481.67 Q1410.77 1486.25 1404.96 1486.25 Q1399.15 1486.25 1396.07 1481.67 Q1393.02 1477.06 1393.02 1468.33 Q1393.02 1459.58 1396.07 1455 Q1399.15 1450.39 1404.96 1450.39 Z" fill="#000000" fill-rule="nonzero" fill-opacity="1" /><path clip-path="url(#clip420)" d="M1773.22 1481.64 L1780.86 1481.64 L1780.86 1455.28 L1772.55 1456.95 L1772.55 1452.69 L1780.82 1451.02 L1785.49 1451.02 L1785.49 1481.64 L1793.13 1481.64 L1793.13 1485.58 L1773.22 1485.58 L1773.22 1481.64 Z" fill="#000000" fill-rule="nonzero" fill-opacity="1" /><path clip-path="url(#clip420)" d="M1802.62 1451.02 L1820.98 1451.02 L1820.98 1454.96 L1806.9 1454.96 L1806.9 1463.43 Q1807.92 1463.08 1808.94 1462.92 Q1809.96 1462.73 1810.98 1462.73 Q1816.76 1462.73 1820.14 1465.9 Q1823.52 1469.08 1823.52 1474.49 Q1823.52 1480.07 1820.05 1483.17 Q1816.58 1486.25 1810.26 1486.25 Q1808.08 1486.25 1805.81 1485.88 Q1803.57 1485.51 1801.16 1484.77 L1801.16 1480.07 Q1803.25 1481.2 1805.47 1481.76 Q1807.69 1482.32 1810.17 1482.32 Q1814.17 1482.32 1816.51 1480.21 Q1818.85 1478.1 1818.85 1474.49 Q1818.85 1470.88 1816.51 1468.77 Q1814.17 1466.67 1810.17 1466.67 Q1808.29 1466.67 1806.42 1467.08 Q1804.56 1467.5 1802.62 1468.38 L1802.62 1451.02 Z" fill="#000000" fill-rule="nonzero" fill-opacity="1" /><path clip-path="url(#clip420)" d="M1842.74 1454.1 Q1839.12 1454.1 1837.3 1457.66 Q1835.49 1461.2 1835.49 1468.33 Q1835.49 1475.44 1837.3 1479.01 Q1839.12 1482.55 1842.74 1482.55 Q1846.37 1482.55 1848.18 1479.01 Q1850 1475.44 1850 1468.33 Q1850 1461.2 1848.18 1457.66 Q1846.37 1454.1 1842.74 1454.1 M1842.74 1450.39 Q1848.55 1450.39 1851.6 1455 Q1854.68 1459.58 1854.68 1468.33 Q1854.68 1477.06 1851.6 1481.67 Q1848.55 1486.25 1842.74 1486.25 Q1836.93 1486.25 1833.85 1481.67 Q1830.79 1477.06 1830.79 1468.33 Q1830.79 1459.58 1833.85 1455 Q1836.93 1450.39 1842.74 1450.39 Z" fill="#000000" fill-rule="nonzero" fill-opacity="1" /><path clip-path="url(#clip420)" d="M1872.9 1454.1 Q1869.29 1454.1 1867.46 1457.66 Q1865.65 1461.2 1865.65 1468.33 Q1865.65 1475.44 1867.46 1479.01 Q1869.29 1482.55 1872.9 1482.55 Q1876.53 1482.55 1878.34 1479.01 Q1880.17 1475.44 1880.17 1468.33 Q1880.17 1461.2 1878.34 1457.66 Q1876.53 1454.1 1872.9 1454.1 M1872.9 1450.39 Q1878.71 1450.39 1881.76 1455 Q1884.84 1459.58 1884.84 1468.33 Q1884.84 1477.06 1881.76 1481.67 Q1878.71 1486.25 1872.9 1486.25 Q1867.09 1486.25 1864.01 1481.67 Q1860.95 1477.06 1860.95 1468.33 Q1860.95 1459.58 1864.01 1455 Q1867.09 1450.39 1872.9 1450.39 Z" fill="#000000" fill-rule="nonzero" fill-opacity="1" /><path clip-path="url(#clip420)" d="M2245.24 1481.64 L2261.56 1481.64 L2261.56 1485.58 L2239.62 1485.58 L2239.62 1481.64 Q2242.28 1478.89 2246.86 1474.26 Q2251.47 1469.61 2252.65 1468.27 Q2254.9 1465.74 2255.78 1464.01 Q2256.68 1462.25 2256.68 1460.56 Q2256.68 1457.8 2254.73 1456.07 Q2252.81 1454.33 2249.71 1454.33 Q2247.51 1454.33 2245.06 1455.09 Q2242.63 1455.86 2239.85 1457.41 L2239.85 1452.69 Q2242.67 1451.55 2245.13 1450.97 Q2247.58 1450.39 2249.62 1450.39 Q2254.99 1450.39 2258.18 1453.08 Q2261.38 1455.77 2261.38 1460.26 Q2261.38 1462.39 2260.57 1464.31 Q2259.78 1466.2 2257.67 1468.8 Q2257.09 1469.47 2253.99 1472.69 Q2250.89 1475.88 2245.24 1481.64 Z" fill="#000000" fill-rule="nonzero" fill-opacity="1" /><path clip-path="url(#clip420)" d="M2281.38 1454.1 Q2277.77 1454.1 2275.94 1457.66 Q2274.13 1461.2 2274.13 1468.33 Q2274.13 1475.44 2275.94 1479.01 Q2277.77 1482.55 2281.38 1482.55 Q2285.01 1482.55 2286.82 1479.01 Q2288.65 1475.44 2288.65 1468.33 Q2288.65 1461.2 2286.82 1457.66 Q2285.01 1454.1 2281.38 1454.1 M2281.38 1450.39 Q2287.19 1450.39 2290.24 1455 Q2293.32 1459.58 2293.32 1468.33 Q2293.32 1477.06 2290.24 1481.67 Q2287.19 1486.25 2281.38 1486.25 Q2275.57 1486.25 2272.49 1481.67 Q2269.43 1477.06 2269.43 1468.33 Q2269.43 1459.58 2272.49 1455 Q2275.57 1450.39 2281.38 1450.39 Z" fill="#000000" fill-rule="nonzero" fill-opacity="1" /><path clip-path="url(#clip420)" d="M2311.54 1454.1 Q2307.93 1454.1 2306.1 1457.66 Q2304.29 1461.2 2304.29 1468.33 Q2304.29 1475.44 2306.1 1479.01 Q2307.93 1482.55 2311.54 1482.55 Q2315.17 1482.55 2316.98 1479.01 Q2318.81 1475.44 2318.81 1468.33 Q2318.81 1461.2 2316.98 1457.66 Q2315.17 1454.1 2311.54 1454.1 M2311.54 1450.39 Q2317.35 1450.39 2320.4 1455 Q2323.48 1459.58 2323.48 1468.33 Q2323.48 1477.06 2320.4 1481.67 Q2317.35 1486.25 2311.54 1486.25 Q2305.73 1486.25 2302.65 1481.67 Q2299.59 1477.06 2299.59 1468.33 Q2299.59 1459.58 2302.65 1455 Q2305.73 1450.39 2311.54 1450.39 Z" fill="#000000" fill-rule="nonzero" fill-opacity="1" /><path clip-path="url(#clip420)" d="M2341.7 1454.1 Q2338.09 1454.1 2336.26 1457.66 Q2334.46 1461.2 2334.46 1468.33 Q2334.46 1475.44 2336.26 1479.01 Q2338.09 1482.55 2341.7 1482.55 Q2345.34 1482.55 2347.14 1479.01 Q2348.97 1475.44 2348.97 1468.33 Q2348.97 1461.2 2347.14 1457.66 Q2345.34 1454.1 2341.7 1454.1 M2341.7 1450.39 Q2347.51 1450.39 2350.57 1455 Q2353.65 1459.58 2353.65 1468.33 Q2353.65 1477.06 2350.57 1481.67 Q2347.51 1486.25 2341.7 1486.25 Q2335.89 1486.25 2332.81 1481.67 Q2329.76 1477.06 2329.76 1468.33 Q2329.76 1459.58 2332.81 1455 Q2335.89 1450.39 2341.7 1450.39 Z" fill="#000000" fill-rule="nonzero" fill-opacity="1" /><path clip-path="url(#clip420)" d="M1343.25 1520.52 L1351.9 1520.52 L1372.97 1560.28 L1372.97 1520.52 L1379.21 1520.52 L1379.21 1568.04 L1370.56 1568.04 L1349.48 1528.29 L1349.48 1568.04 L1343.25 1568.04 L1343.25 1520.52 Z" fill="#000000" fill-rule="nonzero" fill-opacity="1" /><polyline clip-path="url(#clip422)" style="stroke:#000000; stroke-linecap:round; stroke-linejoin:round; stroke-width:2; stroke-opacity:0.1; fill:none" points="369.703,1388.32 2352.76,1388.32 "/>
<polyline clip-path="url(#clip422)" style="stroke:#000000; stroke-linecap:round; stroke-linejoin:round; stroke-width:2; stroke-opacity:0.1; fill:none" points="369.703,1159.39 2352.76,1159.39 "/>
<polyline clip-path="url(#clip422)" style="stroke:#000000; stroke-linecap:round; stroke-linejoin:round; stroke-width:2; stroke-opacity:0.1; fill:none" points="369.703,930.451 2352.76,930.451 "/>
<polyline clip-path="url(#clip422)" style="stroke:#000000; stroke-linecap:round; stroke-linejoin:round; stroke-width:2; stroke-opacity:0.1; fill:none" points="369.703,701.515 2352.76,701.515 "/>
<polyline clip-path="url(#clip422)" style="stroke:#000000; stroke-linecap:round; stroke-linejoin:round; stroke-width:2; stroke-opacity:0.1; fill:none" points="369.703,472.579 2352.76,472.579 "/>
<polyline clip-path="url(#clip422)" style="stroke:#000000; stroke-linecap:round; stroke-linejoin:round; stroke-width:2; stroke-opacity:0.1; fill:none" points="369.703,243.644 2352.76,243.644 "/>
<polyline clip-path="url(#clip420)" style="stroke:#000000; stroke-linecap:round; stroke-linejoin:round; stroke-width:4; stroke-opacity:1; fill:none" points="369.703,1423.18 369.703,123.472 "/>
<polyline clip-path="url(#clip420)" style="stroke:#000000; stroke-linecap:round; stroke-linejoin:round; stroke-width:4; stroke-opacity:1; fill:none" points="369.703,1388.32 388.601,1388.32 "/>
<polyline clip-path="url(#clip420)" style="stroke:#000000; stroke-linecap:round; stroke-linejoin:round; stroke-width:4; stroke-opacity:1; fill:none" points="369.703,1159.39 388.601,1159.39 "/>
<polyline clip-path="url(#clip420)" style="stroke:#000000; stroke-linecap:round; stroke-linejoin:round; stroke-width:4; stroke-opacity:1; fill:none" points="369.703,930.451 388.601,930.451 "/>
<polyline clip-path="url(#clip420)" style="stroke:#000000; stroke-linecap:round; stroke-linejoin:round; stroke-width:4; stroke-opacity:1; fill:none" points="369.703,701.515 388.601,701.515 "/>
<polyline clip-path="url(#clip420)" style="stroke:#000000; stroke-linecap:round; stroke-linejoin:round; stroke-width:4; stroke-opacity:1; fill:none" points="369.703,472.579 388.601,472.579 "/>
<polyline clip-path="url(#clip420)" style="stroke:#000000; stroke-linecap:round; stroke-linejoin:round; stroke-width:4; stroke-opacity:1; fill:none" points="369.703,243.644 388.601,243.644 "/>
<path clip-path="url(#clip420)" d="M321.759 1374.12 Q318.148 1374.12 316.319 1377.69 Q314.514 1381.23 314.514 1388.36 Q314.514 1395.46 316.319 1399.03 Q318.148 1402.57 321.759 1402.57 Q325.393 1402.57 327.199 1399.03 Q329.028 1395.46 329.028 1388.36 Q329.028 1381.23 327.199 1377.69 Q325.393 1374.12 321.759 1374.12 M321.759 1370.42 Q327.569 1370.42 330.625 1375.02 Q333.703 1379.61 333.703 1388.36 Q333.703 1397.08 330.625 1401.69 Q327.569 1406.27 321.759 1406.27 Q315.949 1406.27 312.87 1401.69 Q309.815 1397.08 309.815 1388.36 Q309.815 1379.61 312.87 1375.02 Q315.949 1370.42 321.759 1370.42 Z" fill="#000000" fill-rule="nonzero" fill-opacity="1" /><path clip-path="url(#clip420)" d="M117.878 1148.55 L136.235 1148.55 L136.235 1152.49 L122.161 1152.49 L122.161 1160.96 Q123.179 1160.61 124.198 1160.45 Q125.216 1160.27 126.235 1160.27 Q132.022 1160.27 135.402 1163.44 Q138.781 1166.61 138.781 1172.03 Q138.781 1177.61 135.309 1180.71 Q131.837 1183.79 125.517 1183.79 Q123.341 1183.79 121.073 1183.42 Q118.828 1183.04 116.42 1182.3 L116.42 1177.61 Q118.503 1178.74 120.726 1179.29 Q122.948 1179.85 125.425 1179.85 Q129.429 1179.85 131.767 1177.74 Q134.105 1175.64 134.105 1172.03 Q134.105 1168.42 131.767 1166.31 Q129.429 1164.2 125.425 1164.2 Q123.55 1164.2 121.675 1164.62 Q119.823 1165.04 117.878 1165.92 L117.878 1148.55 Z" fill="#000000" fill-rule="nonzero" fill-opacity="1" /><path clip-path="url(#clip420)" d="M147.994 1177.23 L152.878 1177.23 L152.878 1183.11 L147.994 1183.11 L147.994 1177.23 Z" fill="#000000" fill-rule="nonzero" fill-opacity="1" /><path clip-path="url(#clip420)" d="M173.063 1151.63 Q169.452 1151.63 167.624 1155.2 Q165.818 1158.74 165.818 1165.87 Q165.818 1172.98 167.624 1176.54 Q169.452 1180.08 173.063 1180.08 Q176.698 1180.08 178.503 1176.54 Q180.332 1172.98 180.332 1165.87 Q180.332 1158.74 178.503 1155.2 Q176.698 1151.63 173.063 1151.63 M173.063 1147.93 Q178.874 1147.93 181.929 1152.54 Q185.008 1157.12 185.008 1165.87 Q185.008 1174.6 181.929 1179.2 Q178.874 1183.79 173.063 1183.79 Q167.253 1183.79 164.175 1179.2 Q161.119 1174.6 161.119 1165.87 Q161.119 1157.12 164.175 1152.54 Q167.253 1147.93 173.063 1147.93 Z" fill="#000000" fill-rule="nonzero" fill-opacity="1" /><path clip-path="url(#clip420)" d="M203.225 1151.63 Q199.614 1151.63 197.785 1155.2 Q195.98 1158.74 195.98 1165.87 Q195.98 1172.98 197.785 1176.54 Q199.614 1180.08 203.225 1180.08 Q206.859 1180.08 208.665 1176.54 Q210.494 1172.98 210.494 1165.87 Q210.494 1158.74 208.665 1155.2 Q206.859 1151.63 203.225 1151.63 M203.225 1147.93 Q209.035 1147.93 212.091 1152.54 Q215.17 1157.12 215.17 1165.87 Q215.17 1174.6 212.091 1179.2 Q209.035 1183.79 203.225 1183.79 Q197.415 1183.79 194.336 1179.2 Q191.281 1174.6 191.281 1165.87 Q191.281 1157.12 194.336 1152.54 Q197.415 1147.93 203.225 1147.93 Z" fill="#000000" fill-rule="nonzero" fill-opacity="1" /><path clip-path="url(#clip420)" d="M251.558 1157.65 L240.98 1168.28 L251.558 1178.86 L248.804 1181.66 L238.179 1171.03 L227.554 1181.66 L224.822 1178.86 L235.378 1168.28 L224.822 1157.65 L227.554 1154.85 L238.179 1165.48 L248.804 1154.85 L251.558 1157.65 Z" fill="#000000" fill-rule="nonzero" fill-opacity="1" /><path clip-path="url(#clip420)" d="M263.919 1179.18 L271.558 1179.18 L271.558 1152.81 L263.248 1154.48 L263.248 1150.22 L271.512 1148.55 L276.188 1148.55 L276.188 1179.18 L283.827 1179.18 L283.827 1183.11 L263.919 1183.11 L263.919 1179.18 Z" fill="#000000" fill-rule="nonzero" fill-opacity="1" /><path clip-path="url(#clip420)" d="M303.271 1151.63 Q299.66 1151.63 297.831 1155.2 Q296.026 1158.74 296.026 1165.87 Q296.026 1172.98 297.831 1176.54 Q299.66 1180.08 303.271 1180.08 Q306.905 1180.08 308.711 1176.54 Q310.539 1172.98 310.539 1165.87 Q310.539 1158.74 308.711 1155.2 Q306.905 1151.63 303.271 1151.63 M303.271 1147.93 Q309.081 1147.93 312.137 1152.54 Q315.215 1157.12 315.215 1165.87 Q315.215 1174.6 312.137 1179.2 Q309.081 1183.79 303.271 1183.79 Q297.461 1183.79 294.382 1179.2 Q291.327 1174.6 291.327 1165.87 Q291.327 1157.12 294.382 1152.54 Q297.461 1147.93 303.271 1147.93 Z" fill="#000000" fill-rule="nonzero" fill-opacity="1" /><path clip-path="url(#clip420)" d="M327.911 1140.56 Q330.638 1141.15 332.161 1142.99 Q333.703 1144.83 333.703 1147.54 Q333.703 1151.7 330.845 1153.97 Q327.986 1156.25 322.72 1156.25 Q320.952 1156.25 319.071 1155.89 Q317.209 1155.55 315.215 1154.86 L315.215 1151.19 Q316.795 1152.11 318.676 1152.58 Q320.557 1153.05 322.607 1153.05 Q326.18 1153.05 328.042 1151.64 Q329.923 1150.23 329.923 1147.54 Q329.923 1145.06 328.174 1143.67 Q326.444 1142.26 323.34 1142.26 L320.068 1142.26 L320.068 1139.13 L323.491 1139.13 Q326.293 1139.13 327.779 1138.02 Q329.265 1136.9 329.265 1134.79 Q329.265 1132.63 327.723 1131.48 Q326.199 1130.31 323.34 1130.31 Q321.779 1130.31 319.993 1130.65 Q318.206 1130.99 316.062 1131.71 L316.062 1128.32 Q318.225 1127.72 320.105 1127.42 Q322.005 1127.12 323.679 1127.12 Q328.005 1127.12 330.525 1129.09 Q333.045 1131.05 333.045 1134.39 Q333.045 1136.73 331.71 1138.34 Q330.374 1139.94 327.911 1140.56 Z" fill="#000000" fill-rule="nonzero" fill-opacity="1" /><path clip-path="url(#clip420)" d="M116.668 950.243 L124.306 950.243 L124.306 923.878 L115.996 925.544 L115.996 921.285 L124.26 919.619 L128.936 919.619 L128.936 950.243 L136.575 950.243 L136.575 954.179 L116.668 954.179 L116.668 950.243 Z" fill="#000000" fill-rule="nonzero" fill-opacity="1" /><path clip-path="url(#clip420)" d="M146.019 948.299 L150.903 948.299 L150.903 954.179 L146.019 954.179 L146.019 948.299 Z" fill="#000000" fill-rule="nonzero" fill-opacity="1" /><path clip-path="url(#clip420)" d="M171.089 922.697 Q167.477 922.697 165.649 926.262 Q163.843 929.804 163.843 936.933 Q163.843 944.04 165.649 947.604 Q167.477 951.146 171.089 951.146 Q174.723 951.146 176.528 947.604 Q178.357 944.04 178.357 936.933 Q178.357 929.804 176.528 926.262 Q174.723 922.697 171.089 922.697 M171.089 918.994 Q176.899 918.994 179.954 923.6 Q183.033 928.183 183.033 936.933 Q183.033 945.66 179.954 950.266 Q176.899 954.85 171.089 954.85 Q165.278 954.85 162.2 950.266 Q159.144 945.66 159.144 936.933 Q159.144 928.183 162.2 923.6 Q165.278 918.994 171.089 918.994 Z" fill="#000000" fill-rule="nonzero" fill-opacity="1" /><path clip-path="url(#clip420)" d="M201.25 922.697 Q197.639 922.697 195.811 926.262 Q194.005 929.804 194.005 936.933 Q194.005 944.04 195.811 947.604 Q197.639 951.146 201.25 951.146 Q204.885 951.146 206.69 947.604 Q208.519 944.04 208.519 936.933 Q208.519 929.804 206.69 926.262 Q204.885 922.697 201.25 922.697 M201.25 918.994 Q207.061 918.994 210.116 923.6 Q213.195 928.183 213.195 936.933 Q213.195 945.66 210.116 950.266 Q207.061 954.85 201.25 954.85 Q195.44 954.85 192.362 950.266 Q189.306 945.66 189.306 936.933 Q189.306 928.183 192.362 923.6 Q195.44 918.994 201.25 918.994 Z" fill="#000000" fill-rule="nonzero" fill-opacity="1" /><path clip-path="url(#clip420)" d="M249.584 928.716 L239.005 939.341 L249.584 949.919 L246.829 952.72 L236.204 942.095 L225.579 952.72 L222.848 949.919 L233.403 939.341 L222.848 928.716 L225.579 925.915 L236.204 936.54 L246.829 925.915 L249.584 928.716 Z" fill="#000000" fill-rule="nonzero" fill-opacity="1" /><path clip-path="url(#clip420)" d="M261.945 950.243 L269.583 950.243 L269.583 923.878 L261.273 925.544 L261.273 921.285 L269.537 919.619 L274.213 919.619 L274.213 950.243 L281.852 950.243 L281.852 954.179 L261.945 954.179 L261.945 950.243 Z" fill="#000000" fill-rule="nonzero" fill-opacity="1" /><path clip-path="url(#clip420)" d="M301.296 922.697 Q297.685 922.697 295.856 926.262 Q294.051 929.804 294.051 936.933 Q294.051 944.04 295.856 947.604 Q297.685 951.146 301.296 951.146 Q304.93 951.146 306.736 947.604 Q308.565 944.04 308.565 936.933 Q308.565 929.804 306.736 926.262 Q304.93 922.697 301.296 922.697 M301.296 918.994 Q307.106 918.994 310.162 923.6 Q313.241 928.183 313.241 936.933 Q313.241 945.66 310.162 950.266 Q307.106 954.85 301.296 954.85 Q295.486 954.85 292.407 950.266 Q289.352 945.66 289.352 936.933 Q289.352 928.183 292.407 923.6 Q295.486 918.994 301.296 918.994 Z" fill="#000000" fill-rule="nonzero" fill-opacity="1" /><path clip-path="url(#clip420)" d="M325.917 901.998 L316.325 916.988 L325.917 916.988 L325.917 901.998 M324.92 898.688 L329.697 898.688 L329.697 916.988 L333.703 916.988 L333.703 920.148 L329.697 920.148 L329.697 926.768 L325.917 926.768 L325.917 920.148 L313.241 920.148 L313.241 916.48 L324.92 898.688 Z" fill="#000000" fill-rule="nonzero" fill-opacity="1" /><path clip-path="url(#clip420)" d="M116.668 721.308 L124.306 721.308 L124.306 694.942 L115.996 696.609 L115.996 692.349 L124.26 690.683 L128.936 690.683 L128.936 721.308 L136.575 721.308 L136.575 725.243 L116.668 725.243 L116.668 721.308 Z" fill="#000000" fill-rule="nonzero" fill-opacity="1" /><path clip-path="url(#clip420)" d="M146.019 719.363 L150.903 719.363 L150.903 725.243 L146.019 725.243 L146.019 719.363 Z" fill="#000000" fill-rule="nonzero" fill-opacity="1" /><path clip-path="url(#clip420)" d="M161.135 690.683 L179.491 690.683 L179.491 694.618 L165.417 694.618 L165.417 703.09 Q166.436 702.743 167.454 702.581 Q168.473 702.396 169.491 702.396 Q175.278 702.396 178.658 705.567 Q182.038 708.738 182.038 714.155 Q182.038 719.734 178.565 722.835 Q175.093 725.914 168.774 725.914 Q166.598 725.914 164.329 725.544 Q162.084 725.173 159.677 724.433 L159.677 719.734 Q161.76 720.868 163.982 721.423 Q166.204 721.979 168.681 721.979 Q172.686 721.979 175.024 719.872 Q177.362 717.766 177.362 714.155 Q177.362 710.544 175.024 708.437 Q172.686 706.331 168.681 706.331 Q166.806 706.331 164.931 706.747 Q163.079 707.164 161.135 708.044 L161.135 690.683 Z" fill="#000000" fill-rule="nonzero" fill-opacity="1" /><path clip-path="url(#clip420)" d="M201.25 693.761 Q197.639 693.761 195.811 697.326 Q194.005 700.868 194.005 707.997 Q194.005 715.104 195.811 718.669 Q197.639 722.21 201.25 722.21 Q204.885 722.21 206.69 718.669 Q208.519 715.104 208.519 707.997 Q208.519 700.868 206.69 697.326 Q204.885 693.761 201.25 693.761 M201.25 690.058 Q207.061 690.058 210.116 694.664 Q213.195 699.248 213.195 707.997 Q213.195 716.724 210.116 721.331 Q207.061 725.914 201.25 725.914 Q195.44 725.914 192.362 721.331 Q189.306 716.724 189.306 707.997 Q189.306 699.248 192.362 694.664 Q195.44 690.058 201.25 690.058 Z" fill="#000000" fill-rule="nonzero" fill-opacity="1" /><path clip-path="url(#clip420)" d="M249.584 699.78 L239.005 710.405 L249.584 720.984 L246.829 723.784 L236.204 713.159 L225.579 723.784 L222.848 720.984 L233.403 710.405 L222.848 699.78 L225.579 696.979 L236.204 707.604 L246.829 696.979 L249.584 699.78 Z" fill="#000000" fill-rule="nonzero" fill-opacity="1" /><path clip-path="url(#clip420)" d="M261.945 721.308 L269.583 721.308 L269.583 694.942 L261.273 696.609 L261.273 692.349 L269.537 690.683 L274.213 690.683 L274.213 721.308 L281.852 721.308 L281.852 725.243 L261.945 725.243 L261.945 721.308 Z" fill="#000000" fill-rule="nonzero" fill-opacity="1" /><path clip-path="url(#clip420)" d="M301.296 693.761 Q297.685 693.761 295.856 697.326 Q294.051 700.868 294.051 707.997 Q294.051 715.104 295.856 718.669 Q297.685 722.21 301.296 722.21 Q304.93 722.21 306.736 718.669 Q308.565 715.104 308.565 707.997 Q308.565 700.868 306.736 697.326 Q304.93 693.761 301.296 693.761 M301.296 690.058 Q307.106 690.058 310.162 694.664 Q313.241 699.248 313.241 707.997 Q313.241 716.724 310.162 721.331 Q307.106 725.914 301.296 725.914 Q295.486 725.914 292.407 721.331 Q289.352 716.724 289.352 707.997 Q289.352 699.248 292.407 694.664 Q295.486 690.058 301.296 690.058 Z" fill="#000000" fill-rule="nonzero" fill-opacity="1" /><path clip-path="url(#clip420)" d="M325.917 673.063 L316.325 688.052 L325.917 688.052 L325.917 673.063 M324.92 669.752 L329.697 669.752 L329.697 688.052 L333.703 688.052 L333.703 691.212 L329.697 691.212 L329.697 697.832 L325.917 697.832 L325.917 691.212 L313.241 691.212 L313.241 687.545 L324.92 669.752 Z" fill="#000000" fill-rule="nonzero" fill-opacity="1" /><path clip-path="url(#clip420)" d="M119.885 492.372 L136.204 492.372 L136.204 496.307 L114.26 496.307 L114.26 492.372 Q116.922 489.617 121.505 484.988 Q126.112 480.335 127.292 478.992 Q129.538 476.469 130.417 474.733 Q131.32 472.974 131.32 471.284 Q131.32 468.529 129.376 466.793 Q127.455 465.057 124.353 465.057 Q122.154 465.057 119.7 465.821 Q117.269 466.585 114.492 468.136 L114.492 463.414 Q117.316 462.279 119.769 461.701 Q122.223 461.122 124.26 461.122 Q129.63 461.122 132.825 463.807 Q136.019 466.492 136.019 470.983 Q136.019 473.113 135.209 475.034 Q134.422 476.932 132.316 479.525 Q131.737 480.196 128.635 483.414 Q125.533 486.608 119.885 492.372 Z" fill="#000000" fill-rule="nonzero" fill-opacity="1" /><path clip-path="url(#clip420)" d="M146.019 490.427 L150.903 490.427 L150.903 496.307 L146.019 496.307 L146.019 490.427 Z" fill="#000000" fill-rule="nonzero" fill-opacity="1" /><path clip-path="url(#clip420)" d="M171.089 464.826 Q167.477 464.826 165.649 468.39 Q163.843 471.932 163.843 479.062 Q163.843 486.168 165.649 489.733 Q167.477 493.275 171.089 493.275 Q174.723 493.275 176.528 489.733 Q178.357 486.168 178.357 479.062 Q178.357 471.932 176.528 468.39 Q174.723 464.826 171.089 464.826 M171.089 461.122 Q176.899 461.122 179.954 465.728 Q183.033 470.312 183.033 479.062 Q183.033 487.789 179.954 492.395 Q176.899 496.978 171.089 496.978 Q165.278 496.978 162.2 492.395 Q159.144 487.789 159.144 479.062 Q159.144 470.312 162.2 465.728 Q165.278 461.122 171.089 461.122 Z" fill="#000000" fill-rule="nonzero" fill-opacity="1" /><path clip-path="url(#clip420)" d="M201.25 464.826 Q197.639 464.826 195.811 468.39 Q194.005 471.932 194.005 479.062 Q194.005 486.168 195.811 489.733 Q197.639 493.275 201.25 493.275 Q204.885 493.275 206.69 489.733 Q208.519 486.168 208.519 479.062 Q208.519 471.932 206.69 468.39 Q204.885 464.826 201.25 464.826 M201.25 461.122 Q207.061 461.122 210.116 465.728 Q213.195 470.312 213.195 479.062 Q213.195 487.789 210.116 492.395 Q207.061 496.978 201.25 496.978 Q195.44 496.978 192.362 492.395 Q189.306 487.789 189.306 479.062 Q189.306 470.312 192.362 465.728 Q195.44 461.122 201.25 461.122 Z" fill="#000000" fill-rule="nonzero" fill-opacity="1" /><path clip-path="url(#clip420)" d="M249.584 470.844 L239.005 481.469 L249.584 492.048 L246.829 494.849 L236.204 484.224 L225.579 494.849 L222.848 492.048 L233.403 481.469 L222.848 470.844 L225.579 468.043 L236.204 478.668 L246.829 468.043 L249.584 470.844 Z" fill="#000000" fill-rule="nonzero" fill-opacity="1" /><path clip-path="url(#clip420)" d="M261.945 492.372 L269.583 492.372 L269.583 466.006 L261.273 467.673 L261.273 463.414 L269.537 461.747 L274.213 461.747 L274.213 492.372 L281.852 492.372 L281.852 496.307 L261.945 496.307 L261.945 492.372 Z" fill="#000000" fill-rule="nonzero" fill-opacity="1" /><path clip-path="url(#clip420)" d="M301.296 464.826 Q297.685 464.826 295.856 468.39 Q294.051 471.932 294.051 479.062 Q294.051 486.168 295.856 489.733 Q297.685 493.275 301.296 493.275 Q304.93 493.275 306.736 489.733 Q308.565 486.168 308.565 479.062 Q308.565 471.932 306.736 468.39 Q304.93 464.826 301.296 464.826 M301.296 461.122 Q307.106 461.122 310.162 465.728 Q313.241 470.312 313.241 479.062 Q313.241 487.789 310.162 492.395 Q307.106 496.978 301.296 496.978 Q295.486 496.978 292.407 492.395 Q289.352 487.789 289.352 479.062 Q289.352 470.312 292.407 465.728 Q295.486 461.122 301.296 461.122 Z" fill="#000000" fill-rule="nonzero" fill-opacity="1" /><path clip-path="url(#clip420)" d="M325.917 444.127 L316.325 459.117 L325.917 459.117 L325.917 444.127 M324.92 440.817 L329.697 440.817 L329.697 459.117 L333.703 459.117 L333.703 462.276 L329.697 462.276 L329.697 468.897 L325.917 468.897 L325.917 462.276 L313.241 462.276 L313.241 458.609 L324.92 440.817 Z" fill="#000000" fill-rule="nonzero" fill-opacity="1" /><path clip-path="url(#clip420)" d="M119.885 263.436 L136.204 263.436 L136.204 267.371 L114.26 267.371 L114.26 263.436 Q116.922 260.681 121.505 256.052 Q126.112 251.399 127.292 250.057 Q129.538 247.533 130.417 245.797 Q131.32 244.038 131.32 242.348 Q131.32 239.594 129.376 237.858 Q127.455 236.121 124.353 236.121 Q122.154 236.121 119.7 236.885 Q117.269 237.649 114.492 239.2 L114.492 234.478 Q117.316 233.344 119.769 232.765 Q122.223 232.186 124.26 232.186 Q129.63 232.186 132.825 234.871 Q136.019 237.557 136.019 242.047 Q136.019 244.177 135.209 246.098 Q134.422 247.996 132.316 250.589 Q131.737 251.26 128.635 254.478 Q125.533 257.672 119.885 263.436 Z" fill="#000000" fill-rule="nonzero" fill-opacity="1" /><path clip-path="url(#clip420)" d="M146.019 261.492 L150.903 261.492 L150.903 267.371 L146.019 267.371 L146.019 261.492 Z" fill="#000000" fill-rule="nonzero" fill-opacity="1" /><path clip-path="url(#clip420)" d="M161.135 232.811 L179.491 232.811 L179.491 236.746 L165.417 236.746 L165.417 245.219 Q166.436 244.871 167.454 244.709 Q168.473 244.524 169.491 244.524 Q175.278 244.524 178.658 247.695 Q182.038 250.867 182.038 256.283 Q182.038 261.862 178.565 264.964 Q175.093 268.043 168.774 268.043 Q166.598 268.043 164.329 267.672 Q162.084 267.302 159.677 266.561 L159.677 261.862 Q161.76 262.996 163.982 263.552 Q166.204 264.107 168.681 264.107 Q172.686 264.107 175.024 262.001 Q177.362 259.894 177.362 256.283 Q177.362 252.672 175.024 250.566 Q172.686 248.459 168.681 248.459 Q166.806 248.459 164.931 248.876 Q163.079 249.293 161.135 250.172 L161.135 232.811 Z" fill="#000000" fill-rule="nonzero" fill-opacity="1" /><path clip-path="url(#clip420)" d="M201.25 235.89 Q197.639 235.89 195.811 239.455 Q194.005 242.996 194.005 250.126 Q194.005 257.232 195.811 260.797 Q197.639 264.339 201.25 264.339 Q204.885 264.339 206.69 260.797 Q208.519 257.232 208.519 250.126 Q208.519 242.996 206.69 239.455 Q204.885 235.89 201.25 235.89 M201.25 232.186 Q207.061 232.186 210.116 236.793 Q213.195 241.376 213.195 250.126 Q213.195 258.853 210.116 263.459 Q207.061 268.043 201.25 268.043 Q195.44 268.043 192.362 263.459 Q189.306 258.853 189.306 250.126 Q189.306 241.376 192.362 236.793 Q195.44 232.186 201.25 232.186 Z" fill="#000000" fill-rule="nonzero" fill-opacity="1" /><path clip-path="url(#clip420)" d="M249.584 241.908 L239.005 252.533 L249.584 263.112 L246.829 265.913 L236.204 255.288 L225.579 265.913 L222.848 263.112 L233.403 252.533 L222.848 241.908 L225.579 239.108 L236.204 249.732 L246.829 239.108 L249.584 241.908 Z" fill="#000000" fill-rule="nonzero" fill-opacity="1" /><path clip-path="url(#clip420)" d="M261.945 263.436 L269.583 263.436 L269.583 237.07 L261.273 238.737 L261.273 234.478 L269.537 232.811 L274.213 232.811 L274.213 263.436 L281.852 263.436 L281.852 267.371 L261.945 267.371 L261.945 263.436 Z" fill="#000000" fill-rule="nonzero" fill-opacity="1" /><path clip-path="url(#clip420)" d="M301.296 235.89 Q297.685 235.89 295.856 239.455 Q294.051 242.996 294.051 250.126 Q294.051 257.232 295.856 260.797 Q297.685 264.339 301.296 264.339 Q304.93 264.339 306.736 260.797 Q308.565 257.232 308.565 250.126 Q308.565 242.996 306.736 239.455 Q304.93 235.89 301.296 235.89 M301.296 232.186 Q307.106 232.186 310.162 236.793 Q313.241 241.376 313.241 250.126 Q313.241 258.853 310.162 263.459 Q307.106 268.043 301.296 268.043 Q295.486 268.043 292.407 263.459 Q289.352 258.853 289.352 250.126 Q289.352 241.376 292.407 236.793 Q295.486 232.186 301.296 232.186 Z" fill="#000000" fill-rule="nonzero" fill-opacity="1" /><path clip-path="url(#clip420)" d="M325.917 215.191 L316.325 230.181 L325.917 230.181 L325.917 215.191 M324.92 211.881 L329.697 211.881 L329.697 230.181 L333.703 230.181 L333.703 233.341 L329.697 233.341 L329.697 239.961 L325.917 239.961 L325.917 233.341 L313.241 233.341 L313.241 229.673 L324.92 211.881 Z" fill="#000000" fill-rule="nonzero" fill-opacity="1" /><path clip-path="url(#clip420)" d="M16.4842 923.811 L16.4842 883.612 L21.895 883.612 L21.895 900.481 L64.0042 900.481 L64.0042 906.942 L21.895 906.942 L21.895 923.811 L16.4842 923.811 Z" fill="#000000" fill-rule="nonzero" fill-opacity="1" /><path clip-path="url(#clip420)" d="M28.3562 879.665 L28.3562 873.809 L64.0042 873.809 L64.0042 879.665 L28.3562 879.665 M14.479 879.665 L14.479 873.809 L21.895 873.809 L21.895 879.665 L14.479 879.665 Z" fill="#000000" fill-rule="nonzero" fill-opacity="1" /><path clip-path="url(#clip420)" d="M35.1993 833.8 Q31.2526 831.604 29.3747 828.548 Q27.4968 825.493 27.4968 821.355 Q27.4968 815.785 31.4117 812.762 Q35.2948 809.738 42.4881 809.738 L64.0042 809.738 L64.0042 815.626 L42.679 815.626 Q37.5546 815.626 35.072 817.44 Q32.5894 819.255 32.5894 822.978 Q32.5894 827.53 35.6131 830.172 Q38.6368 832.814 43.8567 832.814 L64.0042 832.814 L64.0042 838.702 L42.679 838.702 Q37.5228 838.702 35.072 840.516 Q32.5894 842.33 32.5894 846.118 Q32.5894 850.606 35.6449 853.247 Q38.6686 855.889 43.8567 855.889 L64.0042 855.889 L64.0042 861.777 L28.3562 861.777 L28.3562 855.889 L33.8944 855.889 Q30.616 853.884 29.0564 851.083 Q27.4968 848.282 27.4968 844.431 Q27.4968 840.548 29.4702 837.842 Q31.4436 835.105 35.1993 833.8 Z" fill="#000000" fill-rule="nonzero" fill-opacity="1" /><path clip-path="url(#clip420)" d="M44.7161 767.565 L47.5806 767.565 L47.5806 794.492 Q53.6281 794.11 56.8109 790.864 Q59.9619 787.585 59.9619 781.761 Q59.9619 778.387 59.1344 775.236 Q58.3069 772.053 56.6518 768.934 L62.1899 768.934 Q63.5267 772.085 64.227 775.395 Q64.9272 778.705 64.9272 782.111 Q64.9272 790.641 59.9619 795.638 Q54.9967 800.603 46.5303 800.603 Q37.7774 800.603 32.6531 795.892 Q27.4968 791.15 27.4968 783.129 Q27.4968 775.936 32.1438 771.766 Q36.7589 767.565 44.7161 767.565 M42.9973 773.421 Q38.1912 773.485 35.3266 776.127 Q32.4621 778.737 32.4621 783.066 Q32.4621 787.967 35.2312 790.927 Q38.0002 793.855 43.0292 794.301 L42.9973 773.421 Z" fill="#000000" fill-rule="nonzero" fill-opacity="1" /><path clip-path="url(#clip420)" d="M14.5426 723.164 Q21.8632 727.429 29.0246 729.498 Q36.186 731.567 43.5384 731.567 Q50.8908 731.567 58.1159 729.498 Q65.3091 727.397 72.5979 723.164 L72.5979 728.257 Q65.1182 733.031 57.8931 735.418 Q50.668 737.774 43.5384 737.774 Q36.4406 737.774 29.2474 735.418 Q22.0542 733.063 14.5426 728.257 L14.5426 723.164 Z" fill="#000000" fill-rule="nonzero" fill-opacity="1" /><path clip-path="url(#clip420)" d="M42.4881 682.169 L64.0042 682.169 L64.0042 688.026 L42.679 688.026 Q37.6183 688.026 35.1038 689.999 Q32.5894 691.972 32.5894 695.919 Q32.5894 700.661 35.6131 703.399 Q38.6368 706.136 43.8567 706.136 L64.0042 706.136 L64.0042 712.024 L28.3562 712.024 L28.3562 706.136 L33.8944 706.136 Q30.6797 704.035 29.0883 701.203 Q27.4968 698.338 27.4968 694.614 Q27.4968 688.471 31.3163 685.32 Q35.1038 682.169 42.4881 682.169 Z" fill="#000000" fill-rule="nonzero" fill-opacity="1" /><path clip-path="url(#clip420)" d="M29.4065 647.762 L34.9447 647.762 Q33.6716 650.245 33.035 652.919 Q32.3984 655.592 32.3984 658.457 Q32.3984 662.817 33.7352 665.013 Q35.072 667.178 37.7456 667.178 Q39.7826 667.178 40.9603 665.618 Q42.1061 664.059 43.1565 659.348 L43.6021 657.343 Q44.9389 651.104 47.3897 648.494 Q49.8086 645.853 54.1691 645.853 Q59.1344 645.853 62.0308 649.799 Q64.9272 653.714 64.9272 660.589 Q64.9272 663.454 64.3543 666.573 Q63.8132 669.66 62.6992 673.098 L56.6518 673.098 Q58.3387 669.851 59.198 666.7 Q60.0256 663.549 60.0256 660.462 Q60.0256 656.324 58.6251 654.096 Q57.1929 651.868 54.6147 651.868 Q52.2276 651.868 50.9545 653.492 Q49.6813 655.083 48.5037 660.526 L48.0262 662.563 Q46.8804 668.005 44.5251 670.424 Q42.138 672.843 38.0002 672.843 Q32.9713 672.843 30.2341 669.279 Q27.4968 665.714 27.4968 659.157 Q27.4968 655.911 27.9743 653.046 Q28.4517 650.181 29.4065 647.762 Z" fill="#000000" fill-rule="nonzero" fill-opacity="1" /><path clip-path="url(#clip420)" d="M14.5426 637.45 L14.5426 632.357 Q22.0542 627.583 29.2474 625.228 Q36.4406 622.841 43.5384 622.841 Q50.668 622.841 57.8931 625.228 Q65.1182 627.583 72.5979 632.357 L72.5979 637.45 Q65.3091 633.217 58.1159 631.148 Q50.8908 629.047 43.5384 629.047 Q36.186 629.047 29.0246 631.148 Q21.8632 633.217 14.5426 637.45 Z" fill="#000000" fill-rule="nonzero" fill-opacity="1" /><path clip-path="url(#clip420)" d="M767.61 12.096 L818.773 12.096 L818.773 18.9825 L797.303 18.9825 L797.303 72.576 L789.08 72.576 L789.08 18.9825 L767.61 18.9825 L767.61 12.096 Z" fill="#000000" fill-rule="nonzero" fill-opacity="1" /><path clip-path="url(#clip420)" d="M823.796 27.2059 L831.25 27.2059 L831.25 72.576 L823.796 72.576 L823.796 27.2059 M823.796 9.54393 L831.25 9.54393 L831.25 18.9825 L823.796 18.9825 L823.796 9.54393 Z" fill="#000000" fill-rule="nonzero" fill-opacity="1" /><path clip-path="url(#clip420)" d="M882.17 35.9153 Q884.965 30.8922 888.854 28.5022 Q892.743 26.1121 898.009 26.1121 Q905.098 26.1121 908.946 31.0947 Q912.795 36.0368 912.795 45.1919 L912.795 72.576 L905.3 72.576 L905.3 45.4349 Q905.3 38.913 902.991 35.7533 Q900.682 32.5936 895.943 32.5936 Q890.15 32.5936 886.788 36.4419 Q883.426 40.2903 883.426 46.9338 L883.426 72.576 L875.931 72.576 L875.931 45.4349 Q875.931 38.8725 873.622 35.7533 Q871.313 32.5936 866.493 32.5936 Q860.781 32.5936 857.419 36.4824 Q854.056 40.3308 854.056 46.9338 L854.056 72.576 L846.562 72.576 L846.562 27.2059 L854.056 27.2059 L854.056 34.2544 Q856.609 30.082 860.173 28.0971 Q863.738 26.1121 868.64 26.1121 Q873.582 26.1121 877.025 28.6237 Q880.509 31.1352 882.17 35.9153 Z" fill="#000000" fill-rule="nonzero" fill-opacity="1" /><path clip-path="url(#clip420)" d="M966.469 48.0275 L966.469 51.6733 L932.198 51.6733 Q932.685 59.3701 936.816 63.421 Q940.989 67.4314 948.402 67.4314 Q952.696 67.4314 956.706 66.3781 Q960.757 65.3249 964.727 63.2184 L964.727 70.267 Q960.717 71.9684 956.504 72.8596 Q952.291 73.7508 947.956 73.7508 Q937.1 73.7508 930.74 67.4314 Q924.421 61.1119 924.421 50.3365 Q924.421 39.1965 930.416 32.6746 Q936.452 26.1121 946.66 26.1121 Q955.815 26.1121 961.122 32.0264 Q966.469 37.9003 966.469 48.0275 M959.015 45.84 Q958.934 39.7232 955.572 36.0774 Q952.25 32.4315 946.741 32.4315 Q940.503 32.4315 936.735 35.9558 Q933.009 39.4801 932.441 45.8805 L959.015 45.84 Z" fill="#000000" fill-rule="nonzero" fill-opacity="1" /><path clip-path="url(#clip420)" d="M1012.45 14.324 L1012.45 27.2059 L1027.8 27.2059 L1027.8 32.9987 L1012.45 32.9987 L1012.45 57.6282 Q1012.45 63.1779 1013.95 64.7578 Q1015.48 66.3376 1020.14 66.3376 L1027.8 66.3376 L1027.8 72.576 L1020.14 72.576 Q1011.52 72.576 1008.23 69.3758 Q1004.95 66.1351 1004.95 57.6282 L1004.95 32.9987 L999.484 32.9987 L999.484 27.2059 L1004.95 27.2059 L1004.95 14.324 L1012.45 14.324 Z" fill="#000000" fill-rule="nonzero" fill-opacity="1" /><path clip-path="url(#clip420)" d="M1055.18 32.4315 Q1049.19 32.4315 1045.7 37.1306 Q1042.22 41.7891 1042.22 49.9314 Q1042.22 58.0738 1045.66 62.7728 Q1049.15 67.4314 1055.18 67.4314 Q1061.14 67.4314 1064.62 62.7323 Q1068.11 58.0333 1068.11 49.9314 Q1068.11 41.8701 1064.62 37.1711 Q1061.14 32.4315 1055.18 32.4315 M1055.18 26.1121 Q1064.91 26.1121 1070.46 32.4315 Q1076.01 38.7509 1076.01 49.9314 Q1076.01 61.0714 1070.46 67.4314 Q1064.91 73.7508 1055.18 73.7508 Q1045.42 73.7508 1039.87 67.4314 Q1034.36 61.0714 1034.36 49.9314 Q1034.36 38.7509 1039.87 32.4315 Q1045.42 26.1121 1055.18 26.1121 Z" fill="#000000" fill-rule="nonzero" fill-opacity="1" /><path clip-path="url(#clip420)" d="M1147.38 28.9478 L1147.38 35.9153 Q1144.22 34.1734 1141.02 33.3227 Q1137.86 32.4315 1134.62 32.4315 Q1127.37 32.4315 1123.36 37.0496 Q1119.35 41.6271 1119.35 49.9314 Q1119.35 58.2358 1123.36 62.8538 Q1127.37 67.4314 1134.62 67.4314 Q1137.86 67.4314 1141.02 66.5807 Q1144.22 65.6895 1147.38 63.9476 L1147.38 70.8341 Q1144.26 72.2924 1140.9 73.0216 Q1137.58 73.7508 1133.81 73.7508 Q1123.56 73.7508 1117.53 67.3098 Q1111.49 60.8689 1111.49 49.9314 Q1111.49 38.832 1117.57 32.472 Q1123.68 26.1121 1134.3 26.1121 Q1137.74 26.1121 1141.02 26.8413 Q1144.3 27.5299 1147.38 28.9478 Z" fill="#000000" fill-rule="nonzero" fill-opacity="1" /><path clip-path="url(#clip420)" d="M1177.93 32.4315 Q1171.93 32.4315 1168.45 37.1306 Q1164.96 41.7891 1164.96 49.9314 Q1164.96 58.0738 1168.41 62.7728 Q1171.89 67.4314 1177.93 67.4314 Q1183.88 67.4314 1187.36 62.7323 Q1190.85 58.0333 1190.85 49.9314 Q1190.85 41.8701 1187.36 37.1711 Q1183.88 32.4315 1177.93 32.4315 M1177.93 26.1121 Q1187.65 26.1121 1193.2 32.4315 Q1198.75 38.7509 1198.75 49.9314 Q1198.75 61.0714 1193.2 67.4314 Q1187.65 73.7508 1177.93 73.7508 Q1168.16 73.7508 1162.61 67.4314 Q1157.1 61.0714 1157.1 49.9314 Q1157.1 38.7509 1162.61 32.4315 Q1168.16 26.1121 1177.93 26.1121 Z" fill="#000000" fill-rule="nonzero" fill-opacity="1" /><path clip-path="url(#clip420)" d="M1246.43 35.9153 Q1249.22 30.8922 1253.11 28.5022 Q1257 26.1121 1262.27 26.1121 Q1269.36 26.1121 1273.2 31.0947 Q1277.05 36.0368 1277.05 45.1919 L1277.05 72.576 L1269.56 72.576 L1269.56 45.4349 Q1269.56 38.913 1267.25 35.7533 Q1264.94 32.5936 1260.2 32.5936 Q1254.41 32.5936 1251.05 36.4419 Q1247.68 40.2903 1247.68 46.9338 L1247.68 72.576 L1240.19 72.576 L1240.19 45.4349 Q1240.19 38.8725 1237.88 35.7533 Q1235.57 32.5936 1230.75 32.5936 Q1225.04 32.5936 1221.68 36.4824 Q1218.31 40.3308 1218.31 46.9338 L1218.31 72.576 L1210.82 72.576 L1210.82 27.2059 L1218.31 27.2059 L1218.31 34.2544 Q1220.87 30.082 1224.43 28.0971 Q1228 26.1121 1232.9 26.1121 Q1237.84 26.1121 1241.28 28.6237 Q1244.77 31.1352 1246.43 35.9153 Z" fill="#000000" fill-rule="nonzero" fill-opacity="1" /><path clip-path="url(#clip420)" d="M1299.13 65.7705 L1299.13 89.8329 L1291.64 89.8329 L1291.64 27.2059 L1299.13 27.2059 L1299.13 34.0924 Q1301.48 30.0415 1305.04 28.0971 Q1308.65 26.1121 1313.63 26.1121 Q1321.9 26.1121 1327.04 32.6746 Q1332.23 39.2371 1332.23 49.9314 Q1332.23 60.6258 1327.04 67.1883 Q1321.9 73.7508 1313.63 73.7508 Q1308.65 73.7508 1305.04 71.8063 Q1301.48 69.8214 1299.13 65.7705 M1324.49 49.9314 Q1324.49 41.7081 1321.09 37.0496 Q1317.72 32.3505 1311.81 32.3505 Q1305.89 32.3505 1302.49 37.0496 Q1299.13 41.7081 1299.13 49.9314 Q1299.13 58.1548 1302.49 62.8538 Q1305.89 67.5124 1311.81 67.5124 Q1317.72 67.5124 1321.09 62.8538 Q1324.49 58.1548 1324.49 49.9314 Z" fill="#000000" fill-rule="nonzero" fill-opacity="1" /><path clip-path="url(#clip420)" d="M1343.81 54.671 L1343.81 27.2059 L1351.26 27.2059 L1351.26 54.3874 Q1351.26 60.8284 1353.78 64.0691 Q1356.29 67.2693 1361.31 67.2693 Q1367.35 67.2693 1370.83 63.421 Q1374.35 59.5726 1374.35 52.9291 L1374.35 27.2059 L1381.81 27.2059 L1381.81 72.576 L1374.35 72.576 L1374.35 65.6084 Q1371.64 69.7404 1368.04 71.7658 Q1364.47 73.7508 1359.73 73.7508 Q1351.91 73.7508 1347.86 68.8897 Q1343.81 64.0286 1343.81 54.671 M1362.57 26.1121 L1362.57 26.1121 Z" fill="#000000" fill-rule="nonzero" fill-opacity="1" /><path clip-path="url(#clip420)" d="M1404.53 14.324 L1404.53 27.2059 L1419.89 27.2059 L1419.89 32.9987 L1404.53 32.9987 L1404.53 57.6282 Q1404.53 63.1779 1406.03 64.7578 Q1407.57 66.3376 1412.23 66.3376 L1419.89 66.3376 L1419.89 72.576 L1412.23 72.576 Q1403.6 72.576 1400.32 69.3758 Q1397.04 66.1351 1397.04 57.6282 L1397.04 32.9987 L1391.57 32.9987 L1391.57 27.2059 L1397.04 27.2059 L1397.04 14.324 L1404.53 14.324 Z" fill="#000000" fill-rule="nonzero" fill-opacity="1" /><path clip-path="url(#clip420)" d="M1468.5 48.0275 L1468.5 51.6733 L1434.23 51.6733 Q1434.71 59.3701 1438.84 63.421 Q1443.02 67.4314 1450.43 67.4314 Q1454.72 67.4314 1458.73 66.3781 Q1462.79 65.3249 1466.76 63.2184 L1466.76 70.267 Q1462.75 71.9684 1458.53 72.8596 Q1454.32 73.7508 1449.98 73.7508 Q1439.13 73.7508 1432.77 67.4314 Q1426.45 61.1119 1426.45 50.3365 Q1426.45 39.1965 1432.44 32.6746 Q1438.48 26.1121 1448.69 26.1121 Q1457.84 26.1121 1463.15 32.0264 Q1468.5 37.9003 1468.5 48.0275 M1461.04 45.84 Q1460.96 39.7232 1457.6 36.0774 Q1454.28 32.4315 1448.77 32.4315 Q1442.53 32.4315 1438.76 35.9558 Q1435.04 39.4801 1434.47 45.8805 L1461.04 45.84 Z" fill="#000000" fill-rule="nonzero" fill-opacity="1" /><path clip-path="url(#clip420)" d="M1507.43 12.096 L1515.61 12.096 L1515.61 65.6895 L1545.06 65.6895 L1545.06 72.576 L1507.43 72.576 L1507.43 12.096 Z" fill="#000000" fill-rule="nonzero" fill-opacity="1" /><path clip-path="url(#clip420)" d="M1590.67 48.0275 L1590.67 51.6733 L1556.4 51.6733 Q1556.89 59.3701 1561.02 63.421 Q1565.19 67.4314 1572.61 67.4314 Q1576.9 67.4314 1580.91 66.3781 Q1584.96 65.3249 1588.93 63.2184 L1588.93 70.267 Q1584.92 71.9684 1580.71 72.8596 Q1576.49 73.7508 1572.16 73.7508 Q1561.3 73.7508 1554.94 67.4314 Q1548.62 61.1119 1548.62 50.3365 Q1548.62 39.1965 1554.62 32.6746 Q1560.66 26.1121 1570.86 26.1121 Q1580.02 26.1121 1585.33 32.0264 Q1590.67 37.9003 1590.67 48.0275 M1583.22 45.84 Q1583.14 39.7232 1579.78 36.0774 Q1576.45 32.4315 1570.94 32.4315 Q1564.71 32.4315 1560.94 35.9558 Q1557.21 39.4801 1556.65 45.8805 L1583.22 45.84 Z" fill="#000000" fill-rule="nonzero" fill-opacity="1" /><path clip-path="url(#clip420)" d="M1640.62 45.1919 L1640.62 72.576 L1633.17 72.576 L1633.17 45.4349 Q1633.17 38.994 1630.66 35.7938 Q1628.14 32.5936 1623.12 32.5936 Q1617.08 32.5936 1613.6 36.4419 Q1610.12 40.2903 1610.12 46.9338 L1610.12 72.576 L1602.62 72.576 L1602.62 27.2059 L1610.12 27.2059 L1610.12 34.2544 Q1612.79 30.163 1616.4 28.1376 Q1620.04 26.1121 1624.78 26.1121 Q1632.6 26.1121 1636.61 30.9732 Q1640.62 35.7938 1640.62 45.1919 Z" fill="#000000" fill-rule="nonzero" fill-opacity="1" /><path clip-path="url(#clip420)" d="M1685.34 49.3643 Q1685.34 41.2625 1681.98 36.8065 Q1678.66 32.3505 1672.62 32.3505 Q1666.63 32.3505 1663.27 36.8065 Q1659.94 41.2625 1659.94 49.3643 Q1659.94 57.4256 1663.27 61.8816 Q1666.63 66.3376 1672.62 66.3376 Q1678.66 66.3376 1681.98 61.8816 Q1685.34 57.4256 1685.34 49.3643 M1692.8 66.9452 Q1692.8 78.5308 1687.65 84.1616 Q1682.51 89.8329 1671.89 89.8329 Q1667.96 89.8329 1664.48 89.2252 Q1661 88.6581 1657.72 87.4428 L1657.72 80.1917 Q1661 81.9741 1664.2 82.8248 Q1667.4 83.6755 1670.72 83.6755 Q1678.05 83.6755 1681.7 79.8271 Q1685.34 76.0193 1685.34 68.282 L1685.34 64.5957 Q1683.03 68.6061 1679.43 70.5911 Q1675.82 72.576 1670.8 72.576 Q1662.45 72.576 1657.35 66.2161 Q1652.25 59.8562 1652.25 49.3643 Q1652.25 38.832 1657.35 32.472 Q1662.45 26.1121 1670.8 26.1121 Q1675.82 26.1121 1679.43 28.0971 Q1683.03 30.082 1685.34 34.0924 L1685.34 27.2059 L1692.8 27.2059 L1692.8 66.9452 Z" fill="#000000" fill-rule="nonzero" fill-opacity="1" /><path clip-path="url(#clip420)" d="M1715.52 14.324 L1715.52 27.2059 L1730.87 27.2059 L1730.87 32.9987 L1715.52 32.9987 L1715.52 57.6282 Q1715.52 63.1779 1717.02 64.7578 Q1718.56 66.3376 1723.22 66.3376 L1730.87 66.3376 L1730.87 72.576 L1723.22 72.576 Q1714.59 72.576 1711.31 69.3758 Q1708.03 66.1351 1708.03 57.6282 L1708.03 32.9987 L1702.56 32.9987 L1702.56 27.2059 L1708.03 27.2059 L1708.03 14.324 L1715.52 14.324 Z" fill="#000000" fill-rule="nonzero" fill-opacity="1" /><path clip-path="url(#clip420)" d="M1778.39 45.1919 L1778.39 72.576 L1770.94 72.576 L1770.94 45.4349 Q1770.94 38.994 1768.43 35.7938 Q1765.91 32.5936 1760.89 32.5936 Q1754.86 32.5936 1751.37 36.4419 Q1747.89 40.2903 1747.89 46.9338 L1747.89 72.576 L1740.39 72.576 L1740.39 9.54393 L1747.89 9.54393 L1747.89 34.2544 Q1750.56 30.163 1754.17 28.1376 Q1757.81 26.1121 1762.55 26.1121 Q1770.37 26.1121 1774.38 30.9732 Q1778.39 35.7938 1778.39 45.1919 Z" fill="#000000" fill-rule="nonzero" fill-opacity="1" /><path clip-path="url(#clip420)" d="M1819.95 12.096 L1828.14 12.096 L1828.14 65.6895 L1857.59 65.6895 L1857.59 72.576 L1819.95 72.576 L1819.95 12.096 Z" fill="#000000" fill-rule="nonzero" fill-opacity="1" /><path clip-path="url(#clip420)" d="M1865.85 27.2059 L1873.3 27.2059 L1873.3 72.576 L1865.85 72.576 L1865.85 27.2059 M1865.85 9.54393 L1873.3 9.54393 L1873.3 18.9825 L1865.85 18.9825 L1865.85 9.54393 Z" fill="#000000" fill-rule="nonzero" fill-opacity="1" /><path clip-path="url(#clip420)" d="M1917.82 28.5427 L1917.82 35.5912 Q1914.66 33.9709 1911.26 33.1607 Q1907.86 32.3505 1904.21 32.3505 Q1898.66 32.3505 1895.87 34.0519 Q1893.11 35.7533 1893.11 39.156 Q1893.11 41.7486 1895.1 43.2475 Q1897.08 44.7058 1903.08 46.0426 L1905.63 46.6097 Q1913.57 48.3111 1916.89 51.4303 Q1920.25 54.509 1920.25 60.0587 Q1920.25 66.3781 1915.23 70.0644 Q1910.25 73.7508 1901.5 73.7508 Q1897.85 73.7508 1893.88 73.0216 Q1889.95 72.3329 1885.58 70.9151 L1885.58 63.2184 Q1889.71 65.3654 1893.72 66.4591 Q1897.73 67.5124 1901.66 67.5124 Q1906.93 67.5124 1909.76 65.73 Q1912.6 63.9071 1912.6 60.6258 Q1912.6 57.5877 1910.53 55.9673 Q1908.51 54.3469 1901.58 52.8481 L1898.99 52.2405 Q1892.06 50.7821 1888.98 47.7845 Q1885.9 44.7463 1885.9 39.4801 Q1885.9 33.0797 1890.44 29.5959 Q1894.98 26.1121 1903.32 26.1121 Q1907.45 26.1121 1911.1 26.7198 Q1914.75 27.3274 1917.82 28.5427 Z" fill="#000000" fill-rule="nonzero" fill-opacity="1" /><path clip-path="url(#clip420)" d="M1939.5 14.324 L1939.5 27.2059 L1954.85 27.2059 L1954.85 32.9987 L1939.5 32.9987 L1939.5 57.6282 Q1939.5 63.1779 1941 64.7578 Q1942.53 66.3376 1947.19 66.3376 L1954.85 66.3376 L1954.85 72.576 L1947.19 72.576 Q1938.56 72.576 1935.28 69.3758 Q1932 66.1351 1932 57.6282 L1932 32.9987 L1926.53 32.9987 L1926.53 27.2059 L1932 27.2059 L1932 14.324 L1939.5 14.324 Z" fill="#000000" fill-rule="nonzero" fill-opacity="1" /><polyline clip-path="url(#clip422)" style="stroke:#009af9; stroke-linecap:round; stroke-linejoin:round; stroke-width:4; stroke-opacity:1; fill:none" points="425.828,1386.4 434.25,1380.54 471.685,1355.71 518.479,1325.72 565.272,1294.25 612.066,1262.09 658.859,1230.79 705.653,1201.38 752.446,1171.2 799.24,1139.74 892.827,1077.38 1360.76,775.674 2296.63,160.256 "/>
<circle clip-path="url(#clip422)" cx="425.828" cy="1386.4" r="14.4" fill="#e26f46" fill-rule="evenodd" fill-opacity="1" stroke="#000000" stroke-opacity="1" stroke-width="3.2"/>
<circle clip-path="url(#clip422)" cx="434.25" cy="1380.54" r="14.4" fill="#e26f46" fill-rule="evenodd" fill-opacity="1" stroke="#000000" stroke-opacity="1" stroke-width="3.2"/>
<circle clip-path="url(#clip422)" cx="471.685" cy="1355.71" r="14.4" fill="#e26f46" fill-rule="evenodd" fill-opacity="1" stroke="#000000" stroke-opacity="1" stroke-width="3.2"/>
<circle clip-path="url(#clip422)" cx="518.479" cy="1325.72" r="14.4" fill="#e26f46" fill-rule="evenodd" fill-opacity="1" stroke="#000000" stroke-opacity="1" stroke-width="3.2"/>
<circle clip-path="url(#clip422)" cx="565.272" cy="1294.25" r="14.4" fill="#e26f46" fill-rule="evenodd" fill-opacity="1" stroke="#000000" stroke-opacity="1" stroke-width="3.2"/>
<circle clip-path="url(#clip422)" cx="612.066" cy="1262.09" r="14.4" fill="#e26f46" fill-rule="evenodd" fill-opacity="1" stroke="#000000" stroke-opacity="1" stroke-width="3.2"/>
<circle clip-path="url(#clip422)" cx="658.859" cy="1230.79" r="14.4" fill="#e26f46" fill-rule="evenodd" fill-opacity="1" stroke="#000000" stroke-opacity="1" stroke-width="3.2"/>
<circle clip-path="url(#clip422)" cx="705.653" cy="1201.38" r="14.4" fill="#e26f46" fill-rule="evenodd" fill-opacity="1" stroke="#000000" stroke-opacity="1" stroke-width="3.2"/>
<circle clip-path="url(#clip422)" cx="752.446" cy="1171.2" r="14.4" fill="#e26f46" fill-rule="evenodd" fill-opacity="1" stroke="#000000" stroke-opacity="1" stroke-width="3.2"/>
<circle clip-path="url(#clip422)" cx="799.24" cy="1139.74" r="14.4" fill="#e26f46" fill-rule="evenodd" fill-opacity="1" stroke="#000000" stroke-opacity="1" stroke-width="3.2"/>
<circle clip-path="url(#clip422)" cx="892.827" cy="1077.38" r="14.4" fill="#e26f46" fill-rule="evenodd" fill-opacity="1" stroke="#000000" stroke-opacity="1" stroke-width="3.2"/>
<circle clip-path="url(#clip422)" cx="1360.76" cy="775.674" r="14.4" fill="#e26f46" fill-rule="evenodd" fill-opacity="1" stroke="#000000" stroke-opacity="1" stroke-width="3.2"/>
<circle clip-path="url(#clip422)" cx="2296.63" cy="160.256" r="14.4" fill="#e26f46" fill-rule="evenodd" fill-opacity="1" stroke="#000000" stroke-opacity="1" stroke-width="3.2"/>
</svg>
