<?xml version="1.0" encoding="utf-8"?>
<svg xmlns="http://www.w3.org/2000/svg" xmlns:xlink="http://www.w3.org/1999/xlink" width="600" height="400" viewBox="0 0 2400 1600">
<defs>
  <clipPath id="clip340">
    <rect x="0" y="0" width="2400" height="1600"/>
  </clipPath>
</defs>
<path clip-path="url(#clip340)" d="M0 1600 L2400 1600 L2400 0 L0 0  Z" fill="#ffffff" fill-rule="evenodd" fill-opacity="1"/>
<defs>
  <clipPath id="clip341">
    <rect x="480" y="0" width="1681" height="1600"/>
  </clipPath>
</defs>
<path clip-path="url(#clip340)" d="M369.703 1423.18 L2352.76 1423.18 L2352.76 123.472 L369.703 123.472  Z" fill="#ffffff" fill-rule="evenodd" fill-opacity="1"/>
<defs>
  <clipPath id="clip342">
    <rect x="369" y="123" width="1984" height="1301"/>
  </clipPath>
</defs>
<polyline clip-path="url(#clip342)" style="stroke:#000000; stroke-linecap:round; stroke-linejoin:round; stroke-width:2; stroke-opacity:0.1; fill:none" points="424.892,1423.18 424.892,123.472 "/>
<polyline clip-path="url(#clip342)" style="stroke:#000000; stroke-linecap:round; stroke-linejoin:round; stroke-width:2; stroke-opacity:0.1; fill:none" points="892.827,1423.18 892.827,123.472 "/>
<polyline clip-path="url(#clip342)" style="stroke:#000000; stroke-linecap:round; stroke-linejoin:round; stroke-width:2; stroke-opacity:0.1; fill:none" points="1360.76,1423.18 1360.76,123.472 "/>
<polyline clip-path="url(#clip342)" style="stroke:#000000; stroke-linecap:round; stroke-linejoin:round; stroke-width:2; stroke-opacity:0.1; fill:none" points="1828.7,1423.18 1828.7,123.472 "/>
<polyline clip-path="url(#clip342)" style="stroke:#000000; stroke-linecap:round; stroke-linejoin:round; stroke-width:2; stroke-opacity:0.1; fill:none" points="2296.63,1423.18 2296.63,123.472 "/>
<polyline clip-path="url(#clip340)" style="stroke:#000000; stroke-linecap:round; stroke-linejoin:round; stroke-width:4; stroke-opacity:1; fill:none" points="369.703,1423.18 2352.76,1423.18 "/>
<polyline clip-path="url(#clip340)" style="stroke:#000000; stroke-linecap:round; stroke-linejoin:round; stroke-width:4; stroke-opacity:1; fill:none" points="424.892,1423.18 424.892,1404.28 "/>
<polyline clip-path="url(#clip340)" style="stroke:#000000; stroke-linecap:round; stroke-linejoin:round; stroke-width:4; stroke-opacity:1; fill:none" points="892.827,1423.18 892.827,1404.28 "/>
<polyline clip-path="url(#clip340)" style="stroke:#000000; stroke-linecap:round; stroke-linejoin:round; stroke-width:4; stroke-opacity:1; fill:none" points="1360.76,1423.18 1360.76,1404.28 "/>
<polyline clip-path="url(#clip340)" style="stroke:#000000; stroke-linecap:round; stroke-linejoin:round; stroke-width:4; stroke-opacity:1; fill:none" points="1828.7,1423.18 1828.7,1404.28 "/>
<polyline clip-path="url(#clip340)" style="stroke:#000000; stroke-linecap:round; stroke-linejoin:round; stroke-width:4; stroke-opacity:1; fill:none" points="2296.63,1423.18 2296.63,1404.28 "/>
<path clip-path="url(#clip340)" d="M424.892 1454.1 Q421.281 1454.1 419.452 1457.66 Q417.646 1461.2 417.646 1468.33 Q417.646 1475.44 419.452 1479.01 Q421.281 1482.55 424.892 1482.55 Q428.526 1482.55 430.331 1479.01 Q432.16 1475.44 432.16 1468.33 Q432.16 1461.2 430.331 1457.66 Q428.526 1454.1 424.892 1454.1 M424.892 1450.39 Q430.702 1450.39 433.757 1455 Q436.836 1459.58 436.836 1468.33 Q436.836 1477.06 433.757 1481.67 Q430.702 1486.25 424.892 1486.25 Q419.082 1486.25 416.003 1481.67 Q412.947 1477.06 412.947 1468.33 Q412.947 1459.58 416.003 1455 Q419.082 1450.39 424.892 1450.39 Z" fill="#000000" fill-rule="nonzero" fill-opacity="1" /><path clip-path="url(#clip340)" d="M852.445 1451.02 L870.801 1451.02 L870.801 1454.96 L856.727 1454.96 L856.727 1463.43 Q857.746 1463.08 858.764 1462.92 Q859.783 1462.73 860.801 1462.73 Q866.588 1462.73 869.968 1465.9 Q873.348 1469.08 873.348 1474.49 Q873.348 1480.07 869.875 1483.17 Q866.403 1486.25 860.084 1486.25 Q857.908 1486.25 855.639 1485.88 Q853.394 1485.51 850.987 1484.77 L850.987 1480.07 Q853.07 1481.2 855.292 1481.76 Q857.514 1482.32 859.991 1482.32 Q863.996 1482.32 866.334 1480.21 Q868.672 1478.1 868.672 1474.49 Q868.672 1470.88 866.334 1468.77 Q863.996 1466.67 859.991 1466.67 Q858.116 1466.67 856.241 1467.08 Q854.389 1467.5 852.445 1468.38 L852.445 1451.02 Z" fill="#000000" fill-rule="nonzero" fill-opacity="1" /><path clip-path="url(#clip340)" d="M892.561 1454.1 Q888.949 1454.1 887.121 1457.66 Q885.315 1461.2 885.315 1468.33 Q885.315 1475.44 887.121 1479.01 Q888.949 1482.55 892.561 1482.55 Q896.195 1482.55 898 1479.01 Q899.829 1475.44 899.829 1468.33 Q899.829 1461.2 898 1457.66 Q896.195 1454.1 892.561 1454.1 M892.561 1450.39 Q898.371 1450.39 901.426 1455 Q904.505 1459.58 904.505 1468.33 Q904.505 1477.06 901.426 1481.67 Q898.371 1486.25 892.561 1486.25 Q886.75 1486.25 883.672 1481.67 Q880.616 1477.06 880.616 1468.33 Q880.616 1459.58 883.672 1455 Q886.75 1450.39 892.561 1450.39 Z" fill="#000000" fill-rule="nonzero" fill-opacity="1" /><path clip-path="url(#clip340)" d="M922.722 1454.1 Q919.111 1454.1 917.283 1457.66 Q915.477 1461.2 915.477 1468.33 Q915.477 1475.44 917.283 1479.01 Q919.111 1482.55 922.722 1482.55 Q926.357 1482.55 928.162 1479.01 Q929.991 1475.44 929.991 1468.33 Q929.991 1461.2 928.162 1457.66 Q926.357 1454.1 922.722 1454.1 M922.722 1450.39 Q928.533 1450.39 931.588 1455 Q934.667 1459.58 934.667 1468.33 Q934.667 1477.06 931.588 1481.67 Q928.533 1486.25 922.722 1486.25 Q916.912 1486.25 913.834 1481.67 Q910.778 1477.06 910.778 1468.33 Q910.778 1459.58 913.834 1455 Q916.912 1450.39 922.722 1450.39 Z" fill="#000000" fill-rule="nonzero" fill-opacity="1" /><path clip-path="url(#clip340)" d="M1305.29 1481.64 L1312.93 1481.64 L1312.93 1455.28 L1304.62 1456.95 L1304.62 1452.69 L1312.88 1451.02 L1317.56 1451.02 L1317.56 1481.64 L1325.19 1481.64 L1325.19 1485.58 L1305.29 1485.58 L1305.29 1481.64 Z" fill="#000000" fill-rule="nonzero" fill-opacity="1" /><path clip-path="url(#clip340)" d="M1344.64 1454.1 Q1341.03 1454.1 1339.2 1457.66 Q1337.39 1461.2 1337.39 1468.33 Q1337.39 1475.44 1339.2 1479.01 Q1341.03 1482.55 1344.64 1482.55 Q1348.27 1482.55 1350.08 1479.01 Q1351.91 1475.44 1351.91 1468.33 Q1351.91 1461.2 1350.08 1457.66 Q1348.27 1454.1 1344.64 1454.1 M1344.64 1450.39 Q1350.45 1450.39 1353.5 1455 Q1356.58 1459.58 1356.58 1468.33 Q1356.58 1477.06 1353.5 1481.67 Q1350.45 1486.25 1344.64 1486.25 Q1338.83 1486.25 1335.75 1481.67 Q1332.69 1477.06 1332.69 1468.33 Q1332.69 1459.58 1335.75 1455 Q1338.83 1450.39 1344.64 1450.39 Z" fill="#000000" fill-rule="nonzero" fill-opacity="1" /><path clip-path="url(#clip340)" d="M1374.8 1454.1 Q1371.19 1454.1 1369.36 1457.66 Q1367.56 1461.2 1367.56 1468.33 Q1367.56 1475.44 1369.36 1479.01 Q1371.19 1482.55 1374.8 1482.55 Q1378.44 1482.55 1380.24 1479.01 Q1382.07 1475.44 1382.07 1468.33 Q1382.07 1461.2 1380.24 1457.66 Q1378.44 1454.1 1374.8 1454.1 M1374.8 1450.39 Q1380.61 1450.39 1383.67 1455 Q1386.75 1459.58 1386.75 1468.33 Q1386.75 1477.06 1383.67 1481.67 Q1380.61 1486.25 1374.8 1486.25 Q1368.99 1486.25 1365.91 1481.67 Q1362.86 1477.06 1362.86 1468.33 Q1362.86 1459.58 1365.91 1455 Q1368.99 1450.39 1374.8 1450.39 Z" fill="#000000" fill-rule="nonzero" fill-opacity="1" /><path clip-path="url(#clip340)" d="M1404.96 1454.1 Q1401.35 1454.1 1399.52 1457.66 Q1397.72 1461.2 1397.72 1468.33 Q1397.72 1475.44 1399.52 1479.01 Q1401.35 1482.55 1404.96 1482.55 Q1408.6 1482.55 1410.4 1479.01 Q1412.23 1475.44 1412.23 1468.33 Q1412.23 1461.2 1410.4 1457.66 Q1408.6 1454.1 1404.96 1454.1 M1404.96 1450.39 Q1410.77 1450.39 1413.83 1455 Q1416.91 1459.58 1416.91 1468.33 Q1416.91 1477.06 1413.83 1481.67 Q1410.77 1486.25 1404.96 1486.25 Q1399.15 1486.25 1396.07 1481.67 Q1393.02 1477.06 1393.02 1468.33 Q1393.02 1459.58 1396.07 1455 Q1399.15 1450.39 1404.96 1450.39 Z" fill="#000000" fill-rule="nonzero" fill-opacity="1" /><path clip-path="url(#clip340)" d="M1773.22 1481.64 L1780.86 1481.64 L1780.86 1455.28 L1772.55 1456.95 L1772.55 1452.69 L1780.82 1451.02 L1785.49 1451.02 L1785.49 1481.64 L1793.13 1481.64 L1793.13 1485.58 L1773.22 1485.58 L1773.22 1481.64 Z" fill="#000000" fill-rule="nonzero" fill-opacity="1" /><path clip-path="url(#clip340)" d="M1802.62 1451.02 L1820.98 1451.02 L1820.98 1454.96 L1806.9 1454.96 L1806.9 1463.43 Q1807.92 1463.08 1808.94 1462.92 Q1809.96 1462.73 1810.98 1462.73 Q1816.76 1462.73 1820.14 1465.9 Q1823.52 1469.08 1823.52 1474.49 Q1823.52 1480.07 1820.05 1483.17 Q1816.58 1486.25 1810.26 1486.25 Q1808.08 1486.25 1805.81 1485.88 Q1803.57 1485.51 1801.16 1484.77 L1801.16 1480.07 Q1803.25 1481.2 1805.47 1481.76 Q1807.69 1482.32 1810.17 1482.32 Q1814.17 1482.32 1816.51 1480.21 Q1818.85 1478.1 1818.85 1474.49 Q1818.85 1470.88 1816.51 1468.77 Q1814.17 1466.67 1810.17 1466.67 Q1808.29 1466.67 1806.42 1467.08 Q1804.56 1467.5 1802.62 1468.38 L1802.62 1451.02 Z" fill="#000000" fill-rule="nonzero" fill-opacity="1" /><path clip-path="url(#clip340)" d="M1842.74 1454.1 Q1839.12 1454.1 1837.3 1457.66 Q1835.49 1461.2 1835.49 1468.33 Q1835.49 1475.44 1837.3 1479.01 Q1839.12 1482.55 1842.74 1482.55 Q1846.37 1482.55 1848.18 1479.01 Q1850 1475.44 1850 1468.33 Q1850 1461.2 1848.18 1457.66 Q1846.37 1454.1 1842.74 1454.1 M1842.74 1450.39 Q1848.55 1450.39 1851.6 1455 Q1854.68 1459.58 1854.68 1468.33 Q1854.68 1477.06 1851.6 1481.67 Q1848.55 1486.25 1842.74 1486.25 Q1836.93 1486.25 1833.85 1481.67 Q1830.79 1477.06 1830.79 1468.33 Q1830.79 1459.58 1833.85 1455 Q1836.93 1450.39 1842.74 1450.39 Z" fill="#000000" fill-rule="nonzero" fill-opacity="1" /><path clip-path="url(#clip340)" d="M1872.9 1454.1 Q1869.29 1454.1 1867.46 1457.66 Q1865.65 1461.2 1865.65 1468.33 Q1865.65 1475.44 1867.46 1479.01 Q1869.29 1482.55 1872.9 1482.55 Q1876.53 1482.55 1878.34 1479.01 Q1880.17 1475.44 1880.17 1468.33 Q1880.17 1461.2 1878.34 1457.66 Q1876.53 1454.1 1872.9 1454.1 M1872.9 1450.39 Q1878.71 1450.39 1881.76 1455 Q1884.84 1459.58 1884.84 1468.33 Q1884.84 1477.06 1881.76 1481.67 Q1878.71 1486.25 1872.9 1486.25 Q1867.09 1486.25 1864.01 1481.67 Q1860.95 1477.06 1860.95 1468.33 Q1860.95 1459.58 1864.01 1455 Q1867.09 1450.39 1872.9 1450.39 Z" fill="#000000" fill-rule="nonzero" fill-opacity="1" /><path clip-path="url(#clip340)" d="M2245.24 1481.64 L2261.56 1481.64 L2261.56 1485.58 L2239.62 1485.58 L2239.62 1481.64 Q2242.28 1478.89 2246.86 1474.26 Q2251.47 1469.61 2252.65 1468.27 Q2254.9 1465.74 2255.78 1464.01 Q2256.68 1462.25 2256.68 1460.56 Q2256.68 1457.8 2254.73 1456.07 Q2252.81 1454.33 2249.71 1454.33 Q2247.51 1454.33 2245.06 1455.09 Q2242.63 1455.86 2239.85 1457.41 L2239.85 1452.69 Q2242.67 1451.55 2245.13 1450.97 Q2247.58 1450.39 2249.62 1450.39 Q2254.99 1450.39 2258.18 1453.08 Q2261.38 1455.77 2261.38 1460.26 Q2261.38 1462.39 2260.57 1464.31 Q2259.78 1466.2 2257.67 1468.8 Q2257.09 1469.47 2253.99 1472.69 Q2250.89 1475.88 2245.24 1481.64 Z" fill="#000000" fill-rule="nonzero" fill-opacity="1" /><path clip-path="url(#clip340)" d="M2281.38 1454.1 Q2277.77 1454.1 2275.94 1457.66 Q2274.13 1461.2 2274.13 1468.33 Q2274.13 1475.44 2275.94 1479.01 Q2277.77 1482.55 2281.38 1482.55 Q2285.01 1482.55 2286.82 1479.01 Q2288.65 1475.44 2288.65 1468.33 Q2288.65 1461.2 2286.82 1457.66 Q2285.01 1454.1 2281.38 1454.1 M2281.38 1450.39 Q2287.19 1450.39 2290.24 1455 Q2293.32 1459.58 2293.32 1468.33 Q2293.32 1477.06 2290.24 1481.67 Q2287.19 1486.25 2281.38 1486.25 Q2275.57 1486.25 2272.49 1481.67 Q2269.43 1477.06 2269.43 1468.33 Q2269.43 1459.58 2272.49 1455 Q2275.57 1450.39 2281.38 1450.39 Z" fill="#000000" fill-rule="nonzero" fill-opacity="1" /><path clip-path="url(#clip340)" d="M2311.54 1454.1 Q2307.93 1454.1 2306.1 1457.66 Q2304.29 1461.2 2304.29 1468.33 Q2304.29 1475.44 2306.1 1479.01 Q2307.93 1482.55 2311.54 1482.55 Q2315.17 1482.55 2316.98 1479.01 Q2318.81 1475.44 2318.81 1468.33 Q2318.81 1461.2 2316.98 1457.66 Q2315.17 1454.1 2311.54 1454.1 M2311.54 1450.39 Q2317.35 1450.39 2320.4 1455 Q2323.48 1459.58 2323.48 1468.33 Q2323.48 1477.06 2320.4 1481.67 Q2317.35 1486.25 2311.54 1486.25 Q2305.73 1486.25 2302.65 1481.67 Q2299.59 1477.06 2299.59 1468.33 Q2299.59 1459.58 2302.65 1455 Q2305.73 1450.39 2311.54 1450.39 Z" fill="#000000" fill-rule="nonzero" fill-opacity="1" /><path clip-path="url(#clip340)" d="M2341.7 1454.1 Q2338.09 1454.1 2336.26 1457.66 Q2334.46 1461.2 2334.46 1468.33 Q2334.46 1475.44 2336.26 1479.01 Q2338.09 1482.55 2341.7 1482.55 Q2345.34 1482.55 2347.14 1479.01 Q2348.97 1475.44 2348.97 1468.33 Q2348.97 1461.2 2347.14 1457.66 Q2345.34 1454.1 2341.7 1454.1 M2341.7 1450.39 Q2347.51 1450.39 2350.57 1455 Q2353.65 1459.58 2353.65 1468.33 Q2353.65 1477.06 2350.57 1481.67 Q2347.51 1486.25 2341.7 1486.25 Q2335.89 1486.25 2332.81 1481.67 Q2329.76 1477.06 2329.76 1468.33 Q2329.76 1459.58 2332.81 1455 Q2335.89 1450.39 2341.7 1450.39 Z" fill="#000000" fill-rule="nonzero" fill-opacity="1" /><path clip-path="url(#clip340)" d="M1343.25 1520.52 L1351.9 1520.52 L1372.97 1560.28 L1372.97 1520.52 L1379.21 1520.52 L1379.21 1568.04 L1370.56 1568.04 L1349.48 1528.29 L1349.48 1568.04 L1343.25 1568.04 L1343.25 1520.52 Z" fill="#000000" fill-rule="nonzero" fill-opacity="1" /><polyline clip-path="url(#clip342)" style="stroke:#000000; stroke-linecap:round; stroke-linejoin:round; stroke-width:2; stroke-opacity:0.1; fill:none" points="369.703,1388.43 2352.76,1388.43 "/>
<polyline clip-path="url(#clip342)" style="stroke:#000000; stroke-linecap:round; stroke-linejoin:round; stroke-width:2; stroke-opacity:0.1; fill:none" points="369.703,1151.06 2352.76,1151.06 "/>
<polyline clip-path="url(#clip342)" style="stroke:#000000; stroke-linecap:round; stroke-linejoin:round; stroke-width:2; stroke-opacity:0.1; fill:none" points="369.703,913.685 2352.76,913.685 "/>
<polyline clip-path="url(#clip342)" style="stroke:#000000; stroke-linecap:round; stroke-linejoin:round; stroke-width:2; stroke-opacity:0.1; fill:none" points="369.703,676.312 2352.76,676.312 "/>
<polyline clip-path="url(#clip342)" style="stroke:#000000; stroke-linecap:round; stroke-linejoin:round; stroke-width:2; stroke-opacity:0.1; fill:none" points="369.703,438.939 2352.76,438.939 "/>
<polyline clip-path="url(#clip342)" style="stroke:#000000; stroke-linecap:round; stroke-linejoin:round; stroke-width:2; stroke-opacity:0.1; fill:none" points="369.703,201.566 2352.76,201.566 "/>
<polyline clip-path="url(#clip340)" style="stroke:#000000; stroke-linecap:round; stroke-linejoin:round; stroke-width:4; stroke-opacity:1; fill:none" points="369.703,1423.18 369.703,123.472 "/>
<polyline clip-path="url(#clip340)" style="stroke:#000000; stroke-linecap:round; stroke-linejoin:round; stroke-width:4; stroke-opacity:1; fill:none" points="369.703,1388.43 388.601,1388.43 "/>
<polyline clip-path="url(#clip340)" style="stroke:#000000; stroke-linecap:round; stroke-linejoin:round; stroke-width:4; stroke-opacity:1; fill:none" points="369.703,1151.06 388.601,1151.06 "/>
<polyline clip-path="url(#clip340)" style="stroke:#000000; stroke-linecap:round; stroke-linejoin:round; stroke-width:4; stroke-opacity:1; fill:none" points="369.703,913.685 388.601,913.685 "/>
<polyline clip-path="url(#clip340)" style="stroke:#000000; stroke-linecap:round; stroke-linejoin:round; stroke-width:4; stroke-opacity:1; fill:none" points="369.703,676.312 388.601,676.312 "/>
<polyline clip-path="url(#clip340)" style="stroke:#000000; stroke-linecap:round; stroke-linejoin:round; stroke-width:4; stroke-opacity:1; fill:none" points="369.703,438.939 388.601,438.939 "/>
<polyline clip-path="url(#clip340)" style="stroke:#000000; stroke-linecap:round; stroke-linejoin:round; stroke-width:4; stroke-opacity:1; fill:none" points="369.703,201.566 388.601,201.566 "/>
<path clip-path="url(#clip340)" d="M321.759 1374.23 Q318.148 1374.23 316.319 1377.79 Q314.514 1381.34 314.514 1388.47 Q314.514 1395.57 316.319 1399.14 Q318.148 1402.68 321.759 1402.68 Q325.393 1402.68 327.199 1399.14 Q329.028 1395.57 329.028 1388.47 Q329.028 1381.34 327.199 1377.79 Q325.393 1374.23 321.759 1374.23 M321.759 1370.53 Q327.569 1370.53 330.625 1375.13 Q333.703 1379.72 333.703 1388.47 Q333.703 1397.19 330.625 1401.8 Q327.569 1406.38 321.759 1406.38 Q315.949 1406.38 312.87 1401.8 Q309.815 1397.19 309.815 1388.47 Q309.815 1379.72 312.87 1375.13 Q315.949 1370.53 321.759 1370.53 Z" fill="#000000" fill-rule="nonzero" fill-opacity="1" /><path clip-path="url(#clip340)" d="M117.878 1140.23 L136.235 1140.23 L136.235 1144.16 L122.161 1144.16 L122.161 1152.63 Q123.179 1152.29 124.198 1152.12 Q125.216 1151.94 126.235 1151.94 Q132.022 1151.94 135.402 1155.11 Q138.781 1158.28 138.781 1163.7 Q138.781 1169.28 135.309 1172.38 Q131.837 1175.46 125.517 1175.46 Q123.341 1175.46 121.073 1175.09 Q118.828 1174.72 116.42 1173.97 L116.42 1169.28 Q118.503 1170.41 120.726 1170.97 Q122.948 1171.52 125.425 1171.52 Q129.429 1171.52 131.767 1169.41 Q134.105 1167.31 134.105 1163.7 Q134.105 1160.09 131.767 1157.98 Q129.429 1155.87 125.425 1155.87 Q123.55 1155.87 121.675 1156.29 Q119.823 1156.71 117.878 1157.59 L117.878 1140.23 Z" fill="#000000" fill-rule="nonzero" fill-opacity="1" /><path clip-path="url(#clip340)" d="M147.994 1168.91 L152.878 1168.91 L152.878 1174.79 L147.994 1174.79 L147.994 1168.91 Z" fill="#000000" fill-rule="nonzero" fill-opacity="1" /><path clip-path="url(#clip340)" d="M173.063 1143.3 Q169.452 1143.3 167.624 1146.87 Q165.818 1150.41 165.818 1157.54 Q165.818 1164.65 167.624 1168.21 Q169.452 1171.75 173.063 1171.75 Q176.698 1171.75 178.503 1168.21 Q180.332 1164.65 180.332 1157.54 Q180.332 1150.41 178.503 1146.87 Q176.698 1143.3 173.063 1143.3 M173.063 1139.6 Q178.874 1139.6 181.929 1144.21 Q185.008 1148.79 185.008 1157.54 Q185.008 1166.27 181.929 1170.87 Q178.874 1175.46 173.063 1175.46 Q167.253 1175.46 164.175 1170.87 Q161.119 1166.27 161.119 1157.54 Q161.119 1148.79 164.175 1144.21 Q167.253 1139.6 173.063 1139.6 Z" fill="#000000" fill-rule="nonzero" fill-opacity="1" /><path clip-path="url(#clip340)" d="M203.225 1143.3 Q199.614 1143.3 197.785 1146.87 Q195.98 1150.41 195.98 1157.54 Q195.98 1164.65 197.785 1168.21 Q199.614 1171.75 203.225 1171.75 Q206.859 1171.75 208.665 1168.21 Q210.494 1164.65 210.494 1157.54 Q210.494 1150.41 208.665 1146.87 Q206.859 1143.3 203.225 1143.3 M203.225 1139.6 Q209.035 1139.6 212.091 1144.21 Q215.17 1148.79 215.17 1157.54 Q215.17 1166.27 212.091 1170.87 Q209.035 1175.46 203.225 1175.46 Q197.415 1175.46 194.336 1170.87 Q191.281 1166.27 191.281 1157.54 Q191.281 1148.79 194.336 1144.21 Q197.415 1139.6 203.225 1139.6 Z" fill="#000000" fill-rule="nonzero" fill-opacity="1" /><path clip-path="url(#clip340)" d="M251.558 1149.32 L240.98 1159.95 L251.558 1170.53 L248.804 1173.33 L238.179 1162.7 L227.554 1173.33 L224.822 1170.53 L235.378 1159.95 L224.822 1149.32 L227.554 1146.52 L238.179 1157.15 L248.804 1146.52 L251.558 1149.32 Z" fill="#000000" fill-rule="nonzero" fill-opacity="1" /><path clip-path="url(#clip340)" d="M263.919 1170.85 L271.558 1170.85 L271.558 1144.48 L263.248 1146.15 L263.248 1141.89 L271.512 1140.23 L276.188 1140.23 L276.188 1170.85 L283.827 1170.85 L283.827 1174.79 L263.919 1174.79 L263.919 1170.85 Z" fill="#000000" fill-rule="nonzero" fill-opacity="1" /><path clip-path="url(#clip340)" d="M303.271 1143.3 Q299.66 1143.3 297.831 1146.87 Q296.026 1150.41 296.026 1157.54 Q296.026 1164.65 297.831 1168.21 Q299.66 1171.75 303.271 1171.75 Q306.905 1171.75 308.711 1168.21 Q310.539 1164.65 310.539 1157.54 Q310.539 1150.41 308.711 1146.87 Q306.905 1143.3 303.271 1143.3 M303.271 1139.6 Q309.081 1139.6 312.137 1144.21 Q315.215 1148.79 315.215 1157.54 Q315.215 1166.27 312.137 1170.87 Q309.081 1175.46 303.271 1175.46 Q297.461 1175.46 294.382 1170.87 Q291.327 1166.27 291.327 1157.54 Q291.327 1148.79 294.382 1144.21 Q297.461 1139.6 303.271 1139.6 Z" fill="#000000" fill-rule="nonzero" fill-opacity="1" /><path clip-path="url(#clip340)" d="M327.911 1132.23 Q330.638 1132.82 332.161 1134.66 Q333.703 1136.5 333.703 1139.21 Q333.703 1143.37 330.845 1145.64 Q327.986 1147.92 322.72 1147.92 Q320.952 1147.92 319.071 1147.56 Q317.209 1147.22 315.215 1146.53 L315.215 1142.86 Q316.795 1143.78 318.676 1144.25 Q320.557 1144.72 322.607 1144.72 Q326.18 1144.72 328.042 1143.31 Q329.923 1141.9 329.923 1139.21 Q329.923 1136.73 328.174 1135.34 Q326.444 1133.93 323.34 1133.93 L320.068 1133.93 L320.068 1130.81 L323.491 1130.81 Q326.293 1130.81 327.779 1129.7 Q329.265 1128.57 329.265 1126.46 Q329.265 1124.3 327.723 1123.15 Q326.199 1121.98 323.34 1121.98 Q321.779 1121.98 319.993 1122.32 Q318.206 1122.66 316.062 1123.38 L316.062 1119.99 Q318.225 1119.39 320.105 1119.09 Q322.005 1118.79 323.679 1118.79 Q328.005 1118.79 330.525 1120.76 Q333.045 1122.72 333.045 1126.07 Q333.045 1128.4 331.71 1130.02 Q330.374 1131.61 327.911 1132.23 Z" fill="#000000" fill-rule="nonzero" fill-opacity="1" /><path clip-path="url(#clip340)" d="M116.668 933.477 L124.306 933.477 L124.306 907.111 L115.996 908.778 L115.996 904.519 L124.26 902.852 L128.936 902.852 L128.936 933.477 L136.575 933.477 L136.575 937.412 L116.668 937.412 L116.668 933.477 Z" fill="#000000" fill-rule="nonzero" fill-opacity="1" /><path clip-path="url(#clip340)" d="M146.019 931.533 L150.903 931.533 L150.903 937.412 L146.019 937.412 L146.019 931.533 Z" fill="#000000" fill-rule="nonzero" fill-opacity="1" /><path clip-path="url(#clip340)" d="M171.089 905.931 Q167.477 905.931 165.649 909.496 Q163.843 913.037 163.843 920.167 Q163.843 927.273 165.649 930.838 Q167.477 934.38 171.089 934.38 Q174.723 934.38 176.528 930.838 Q178.357 927.273 178.357 920.167 Q178.357 913.037 176.528 909.496 Q174.723 905.931 171.089 905.931 M171.089 902.227 Q176.899 902.227 179.954 906.834 Q183.033 911.417 183.033 920.167 Q183.033 928.894 179.954 933.5 Q176.899 938.083 171.089 938.083 Q165.278 938.083 162.2 933.5 Q159.144 928.894 159.144 920.167 Q159.144 911.417 162.2 906.834 Q165.278 902.227 171.089 902.227 Z" fill="#000000" fill-rule="nonzero" fill-opacity="1" /><path clip-path="url(#clip340)" d="M201.25 905.931 Q197.639 905.931 195.811 909.496 Q194.005 913.037 194.005 920.167 Q194.005 927.273 195.811 930.838 Q197.639 934.38 201.25 934.38 Q204.885 934.38 206.69 930.838 Q208.519 927.273 208.519 920.167 Q208.519 913.037 206.69 909.496 Q204.885 905.931 201.25 905.931 M201.25 902.227 Q207.061 902.227 210.116 906.834 Q213.195 911.417 213.195 920.167 Q213.195 928.894 210.116 933.5 Q207.061 938.083 201.25 938.083 Q195.44 938.083 192.362 933.5 Q189.306 928.894 189.306 920.167 Q189.306 911.417 192.362 906.834 Q195.44 902.227 201.25 902.227 Z" fill="#000000" fill-rule="nonzero" fill-opacity="1" /><path clip-path="url(#clip340)" d="M249.584 911.949 L239.005 922.574 L249.584 933.153 L246.829 935.954 L236.204 925.329 L225.579 935.954 L222.848 933.153 L233.403 922.574 L222.848 911.949 L225.579 909.148 L236.204 919.773 L246.829 909.148 L249.584 911.949 Z" fill="#000000" fill-rule="nonzero" fill-opacity="1" /><path clip-path="url(#clip340)" d="M261.945 933.477 L269.583 933.477 L269.583 907.111 L261.273 908.778 L261.273 904.519 L269.537 902.852 L274.213 902.852 L274.213 933.477 L281.852 933.477 L281.852 937.412 L261.945 937.412 L261.945 933.477 Z" fill="#000000" fill-rule="nonzero" fill-opacity="1" /><path clip-path="url(#clip340)" d="M301.296 905.931 Q297.685 905.931 295.856 909.496 Q294.051 913.037 294.051 920.167 Q294.051 927.273 295.856 930.838 Q297.685 934.38 301.296 934.38 Q304.93 934.38 306.736 930.838 Q308.565 927.273 308.565 920.167 Q308.565 913.037 306.736 909.496 Q304.93 905.931 301.296 905.931 M301.296 902.227 Q307.106 902.227 310.162 906.834 Q313.241 911.417 313.241 920.167 Q313.241 928.894 310.162 933.5 Q307.106 938.083 301.296 938.083 Q295.486 938.083 292.407 933.5 Q289.352 928.894 289.352 920.167 Q289.352 911.417 292.407 906.834 Q295.486 902.227 301.296 902.227 Z" fill="#000000" fill-rule="nonzero" fill-opacity="1" /><path clip-path="url(#clip340)" d="M325.917 885.232 L316.325 900.222 L325.917 900.222 L325.917 885.232 M324.92 881.922 L329.697 881.922 L329.697 900.222 L333.703 900.222 L333.703 903.381 L329.697 903.381 L329.697 910.002 L325.917 910.002 L325.917 903.381 L313.241 903.381 L313.241 899.714 L324.92 881.922 Z" fill="#000000" fill-rule="nonzero" fill-opacity="1" /><path clip-path="url(#clip340)" d="M116.668 696.104 L124.306 696.104 L124.306 669.738 L115.996 671.405 L115.996 667.146 L124.26 665.479 L128.936 665.479 L128.936 696.104 L136.575 696.104 L136.575 700.039 L116.668 700.039 L116.668 696.104 Z" fill="#000000" fill-rule="nonzero" fill-opacity="1" /><path clip-path="url(#clip340)" d="M146.019 694.16 L150.903 694.16 L150.903 700.039 L146.019 700.039 L146.019 694.16 Z" fill="#000000" fill-rule="nonzero" fill-opacity="1" /><path clip-path="url(#clip340)" d="M161.135 665.479 L179.491 665.479 L179.491 669.414 L165.417 669.414 L165.417 677.886 Q166.436 677.539 167.454 677.377 Q168.473 677.192 169.491 677.192 Q175.278 677.192 178.658 680.363 Q182.038 683.535 182.038 688.951 Q182.038 694.53 178.565 697.632 Q175.093 700.71 168.774 700.71 Q166.598 700.71 164.329 700.34 Q162.084 699.97 159.677 699.229 L159.677 694.53 Q161.76 695.664 163.982 696.22 Q166.204 696.775 168.681 696.775 Q172.686 696.775 175.024 694.669 Q177.362 692.562 177.362 688.951 Q177.362 685.34 175.024 683.234 Q172.686 681.127 168.681 681.127 Q166.806 681.127 164.931 681.544 Q163.079 681.961 161.135 682.84 L161.135 665.479 Z" fill="#000000" fill-rule="nonzero" fill-opacity="1" /><path clip-path="url(#clip340)" d="M201.25 668.558 Q197.639 668.558 195.811 672.123 Q194.005 675.664 194.005 682.794 Q194.005 689.9 195.811 693.465 Q197.639 697.007 201.25 697.007 Q204.885 697.007 206.69 693.465 Q208.519 689.9 208.519 682.794 Q208.519 675.664 206.69 672.123 Q204.885 668.558 201.25 668.558 M201.25 664.854 Q207.061 664.854 210.116 669.461 Q213.195 674.044 213.195 682.794 Q213.195 691.521 210.116 696.127 Q207.061 700.71 201.25 700.71 Q195.44 700.71 192.362 696.127 Q189.306 691.521 189.306 682.794 Q189.306 674.044 192.362 669.461 Q195.44 664.854 201.25 664.854 Z" fill="#000000" fill-rule="nonzero" fill-opacity="1" /><path clip-path="url(#clip340)" d="M249.584 674.576 L239.005 685.201 L249.584 695.78 L246.829 698.581 L236.204 687.956 L225.579 698.581 L222.848 695.78 L233.403 685.201 L222.848 674.576 L225.579 671.775 L236.204 682.4 L246.829 671.775 L249.584 674.576 Z" fill="#000000" fill-rule="nonzero" fill-opacity="1" /><path clip-path="url(#clip340)" d="M261.945 696.104 L269.583 696.104 L269.583 669.738 L261.273 671.405 L261.273 667.146 L269.537 665.479 L274.213 665.479 L274.213 696.104 L281.852 696.104 L281.852 700.039 L261.945 700.039 L261.945 696.104 Z" fill="#000000" fill-rule="nonzero" fill-opacity="1" /><path clip-path="url(#clip340)" d="M301.296 668.558 Q297.685 668.558 295.856 672.123 Q294.051 675.664 294.051 682.794 Q294.051 689.9 295.856 693.465 Q297.685 697.007 301.296 697.007 Q304.93 697.007 306.736 693.465 Q308.565 689.9 308.565 682.794 Q308.565 675.664 306.736 672.123 Q304.93 668.558 301.296 668.558 M301.296 664.854 Q307.106 664.854 310.162 669.461 Q313.241 674.044 313.241 682.794 Q313.241 691.521 310.162 696.127 Q307.106 700.71 301.296 700.71 Q295.486 700.71 292.407 696.127 Q289.352 691.521 289.352 682.794 Q289.352 674.044 292.407 669.461 Q295.486 664.854 301.296 664.854 Z" fill="#000000" fill-rule="nonzero" fill-opacity="1" /><path clip-path="url(#clip340)" d="M325.917 647.859 L316.325 662.849 L325.917 662.849 L325.917 647.859 M324.92 644.549 L329.697 644.549 L329.697 662.849 L333.703 662.849 L333.703 666.008 L329.697 666.008 L329.697 672.629 L325.917 672.629 L325.917 666.008 L313.241 666.008 L313.241 662.341 L324.92 644.549 Z" fill="#000000" fill-rule="nonzero" fill-opacity="1" /><path clip-path="url(#clip340)" d="M119.885 458.731 L136.204 458.731 L136.204 462.666 L114.26 462.666 L114.26 458.731 Q116.922 455.976 121.505 451.347 Q126.112 446.694 127.292 445.351 Q129.538 442.828 130.417 441.092 Q131.32 439.333 131.32 437.643 Q131.32 434.889 129.376 433.152 Q127.455 431.416 124.353 431.416 Q122.154 431.416 119.7 432.18 Q117.269 432.944 114.492 434.495 L114.492 429.773 Q117.316 428.639 119.769 428.06 Q122.223 427.481 124.26 427.481 Q129.63 427.481 132.825 430.166 Q136.019 432.852 136.019 437.342 Q136.019 439.472 135.209 441.393 Q134.422 443.291 132.316 445.884 Q131.737 446.555 128.635 449.773 Q125.533 452.967 119.885 458.731 Z" fill="#000000" fill-rule="nonzero" fill-opacity="1" /><path clip-path="url(#clip340)" d="M146.019 456.787 L150.903 456.787 L150.903 462.666 L146.019 462.666 L146.019 456.787 Z" fill="#000000" fill-rule="nonzero" fill-opacity="1" /><path clip-path="url(#clip340)" d="M171.089 431.185 Q167.477 431.185 165.649 434.75 Q163.843 438.291 163.843 445.421 Q163.843 452.527 165.649 456.092 Q167.477 459.634 171.089 459.634 Q174.723 459.634 176.528 456.092 Q178.357 452.527 178.357 445.421 Q178.357 438.291 176.528 434.75 Q174.723 431.185 171.089 431.185 M171.089 427.481 Q176.899 427.481 179.954 432.088 Q183.033 436.671 183.033 445.421 Q183.033 454.148 179.954 458.754 Q176.899 463.337 171.089 463.337 Q165.278 463.337 162.2 458.754 Q159.144 454.148 159.144 445.421 Q159.144 436.671 162.2 432.088 Q165.278 427.481 171.089 427.481 Z" fill="#000000" fill-rule="nonzero" fill-opacity="1" /><path clip-path="url(#clip340)" d="M201.25 431.185 Q197.639 431.185 195.811 434.75 Q194.005 438.291 194.005 445.421 Q194.005 452.527 195.811 456.092 Q197.639 459.634 201.25 459.634 Q204.885 459.634 206.69 456.092 Q208.519 452.527 208.519 445.421 Q208.519 438.291 206.69 434.75 Q204.885 431.185 201.25 431.185 M201.25 427.481 Q207.061 427.481 210.116 432.088 Q213.195 436.671 213.195 445.421 Q213.195 454.148 210.116 458.754 Q207.061 463.337 201.25 463.337 Q195.44 463.337 192.362 458.754 Q189.306 454.148 189.306 445.421 Q189.306 436.671 192.362 432.088 Q195.44 427.481 201.25 427.481 Z" fill="#000000" fill-rule="nonzero" fill-opacity="1" /><path clip-path="url(#clip340)" d="M249.584 437.203 L239.005 447.828 L249.584 458.407 L246.829 461.208 L236.204 450.583 L225.579 461.208 L222.848 458.407 L233.403 447.828 L222.848 437.203 L225.579 434.402 L236.204 445.027 L246.829 434.402 L249.584 437.203 Z" fill="#000000" fill-rule="nonzero" fill-opacity="1" /><path clip-path="url(#clip340)" d="M261.945 458.731 L269.583 458.731 L269.583 432.365 L261.273 434.032 L261.273 429.773 L269.537 428.106 L274.213 428.106 L274.213 458.731 L281.852 458.731 L281.852 462.666 L261.945 462.666 L261.945 458.731 Z" fill="#000000" fill-rule="nonzero" fill-opacity="1" /><path clip-path="url(#clip340)" d="M301.296 431.185 Q297.685 431.185 295.856 434.75 Q294.051 438.291 294.051 445.421 Q294.051 452.527 295.856 456.092 Q297.685 459.634 301.296 459.634 Q304.93 459.634 306.736 456.092 Q308.565 452.527 308.565 445.421 Q308.565 438.291 306.736 434.75 Q304.93 431.185 301.296 431.185 M301.296 427.481 Q307.106 427.481 310.162 432.088 Q313.241 436.671 313.241 445.421 Q313.241 454.148 310.162 458.754 Q307.106 463.337 301.296 463.337 Q295.486 463.337 292.407 458.754 Q289.352 454.148 289.352 445.421 Q289.352 436.671 292.407 432.088 Q295.486 427.481 301.296 427.481 Z" fill="#000000" fill-rule="nonzero" fill-opacity="1" /><path clip-path="url(#clip340)" d="M325.917 410.486 L316.325 425.476 L325.917 425.476 L325.917 410.486 M324.92 407.176 L329.697 407.176 L329.697 425.476 L333.703 425.476 L333.703 428.635 L329.697 428.635 L329.697 435.256 L325.917 435.256 L325.917 428.635 L313.241 428.635 L313.241 424.968 L324.92 407.176 Z" fill="#000000" fill-rule="nonzero" fill-opacity="1" /><path clip-path="url(#clip340)" d="M119.885 221.358 L136.204 221.358 L136.204 225.293 L114.26 225.293 L114.26 221.358 Q116.922 218.603 121.505 213.974 Q126.112 209.321 127.292 207.978 Q129.538 205.455 130.417 203.719 Q131.32 201.96 131.32 200.27 Q131.32 197.516 129.376 195.779 Q127.455 194.043 124.353 194.043 Q122.154 194.043 119.7 194.807 Q117.269 195.571 114.492 197.122 L114.492 192.4 Q117.316 191.266 119.769 190.687 Q122.223 190.108 124.26 190.108 Q129.63 190.108 132.825 192.793 Q136.019 195.479 136.019 199.969 Q136.019 202.099 135.209 204.02 Q134.422 205.918 132.316 208.511 Q131.737 209.182 128.635 212.4 Q125.533 215.594 119.885 221.358 Z" fill="#000000" fill-rule="nonzero" fill-opacity="1" /><path clip-path="url(#clip340)" d="M146.019 219.414 L150.903 219.414 L150.903 225.293 L146.019 225.293 L146.019 219.414 Z" fill="#000000" fill-rule="nonzero" fill-opacity="1" /><path clip-path="url(#clip340)" d="M161.135 190.733 L179.491 190.733 L179.491 194.668 L165.417 194.668 L165.417 203.141 Q166.436 202.793 167.454 202.631 Q168.473 202.446 169.491 202.446 Q175.278 202.446 178.658 205.617 Q182.038 208.789 182.038 214.205 Q182.038 219.784 178.565 222.886 Q175.093 225.965 168.774 225.965 Q166.598 225.965 164.329 225.594 Q162.084 225.224 159.677 224.483 L159.677 219.784 Q161.76 220.918 163.982 221.474 Q166.204 222.029 168.681 222.029 Q172.686 222.029 175.024 219.923 Q177.362 217.816 177.362 214.205 Q177.362 210.594 175.024 208.488 Q172.686 206.381 168.681 206.381 Q166.806 206.381 164.931 206.798 Q163.079 207.215 161.135 208.094 L161.135 190.733 Z" fill="#000000" fill-rule="nonzero" fill-opacity="1" /><path clip-path="url(#clip340)" d="M201.25 193.812 Q197.639 193.812 195.811 197.377 Q194.005 200.918 194.005 208.048 Q194.005 215.154 195.811 218.719 Q197.639 222.261 201.25 222.261 Q204.885 222.261 206.69 218.719 Q208.519 215.154 208.519 208.048 Q208.519 200.918 206.69 197.377 Q204.885 193.812 201.25 193.812 M201.25 190.108 Q207.061 190.108 210.116 194.715 Q213.195 199.298 213.195 208.048 Q213.195 216.775 210.116 221.381 Q207.061 225.965 201.25 225.965 Q195.44 225.965 192.362 221.381 Q189.306 216.775 189.306 208.048 Q189.306 199.298 192.362 194.715 Q195.44 190.108 201.25 190.108 Z" fill="#000000" fill-rule="nonzero" fill-opacity="1" /><path clip-path="url(#clip340)" d="M249.584 199.83 L239.005 210.455 L249.584 221.034 L246.829 223.835 L236.204 213.21 L225.579 223.835 L222.848 221.034 L233.403 210.455 L222.848 199.83 L225.579 197.029 L236.204 207.654 L246.829 197.029 L249.584 199.83 Z" fill="#000000" fill-rule="nonzero" fill-opacity="1" /><path clip-path="url(#clip340)" d="M261.945 221.358 L269.583 221.358 L269.583 194.992 L261.273 196.659 L261.273 192.4 L269.537 190.733 L274.213 190.733 L274.213 221.358 L281.852 221.358 L281.852 225.293 L261.945 225.293 L261.945 221.358 Z" fill="#000000" fill-rule="nonzero" fill-opacity="1" /><path clip-path="url(#clip340)" d="M301.296 193.812 Q297.685 193.812 295.856 197.377 Q294.051 200.918 294.051 208.048 Q294.051 215.154 295.856 218.719 Q297.685 222.261 301.296 222.261 Q304.93 222.261 306.736 218.719 Q308.565 215.154 308.565 208.048 Q308.565 200.918 306.736 197.377 Q304.93 193.812 301.296 193.812 M301.296 190.108 Q307.106 190.108 310.162 194.715 Q313.241 199.298 313.241 208.048 Q313.241 216.775 310.162 221.381 Q307.106 225.965 301.296 225.965 Q295.486 225.965 292.407 221.381 Q289.352 216.775 289.352 208.048 Q289.352 199.298 292.407 194.715 Q295.486 190.108 301.296 190.108 Z" fill="#000000" fill-rule="nonzero" fill-opacity="1" /><path clip-path="url(#clip340)" d="M325.917 173.113 L316.325 188.103 L325.917 188.103 L325.917 173.113 M324.92 169.803 L329.697 169.803 L329.697 188.103 L333.703 188.103 L333.703 191.262 L329.697 191.262 L329.697 197.883 L325.917 197.883 L325.917 191.262 L313.241 191.262 L313.241 187.595 L324.92 169.803 Z" fill="#000000" fill-rule="nonzero" fill-opacity="1" /><path clip-path="url(#clip340)" d="M16.4842 923.811 L16.4842 883.612 L21.895 883.612 L21.895 900.481 L64.0042 900.481 L64.0042 906.942 L21.895 906.942 L21.895 923.811 L16.4842 923.811 Z" fill="#000000" fill-rule="nonzero" fill-opacity="1" /><path clip-path="url(#clip340)" d="M28.3562 879.665 L28.3562 873.809 L64.0042 873.809 L64.0042 879.665 L28.3562 879.665 M14.479 879.665 L14.479 873.809 L21.895 873.809 L21.895 879.665 L14.479 879.665 Z" fill="#000000" fill-rule="nonzero" fill-opacity="1" /><path clip-path="url(#clip340)" d="M35.1993 833.8 Q31.2526 831.604 29.3747 828.548 Q27.4968 825.493 27.4968 821.355 Q27.4968 815.785 31.4117 812.762 Q35.2948 809.738 42.4881 809.738 L64.0042 809.738 L64.0042 815.626 L42.679 815.626 Q37.5546 815.626 35.072 817.44 Q32.5894 819.255 32.5894 822.978 Q32.5894 827.53 35.6131 830.172 Q38.6368 832.814 43.8567 832.814 L64.0042 832.814 L64.0042 838.702 L42.679 838.702 Q37.5228 838.702 35.072 840.516 Q32.5894 842.33 32.5894 846.118 Q32.5894 850.606 35.6449 853.247 Q38.6686 855.889 43.8567 855.889 L64.0042 855.889 L64.0042 861.777 L28.3562 861.777 L28.3562 855.889 L33.8944 855.889 Q30.616 853.884 29.0564 851.083 Q27.4968 848.282 27.4968 844.431 Q27.4968 840.548 29.4702 837.842 Q31.4436 835.105 35.1993 833.8 Z" fill="#000000" fill-rule="nonzero" fill-opacity="1" /><path clip-path="url(#clip340)" d="M44.7161 767.565 L47.5806 767.565 L47.5806 794.492 Q53.6281 794.11 56.8109 790.864 Q59.9619 787.585 59.9619 781.761 Q59.9619 778.387 59.1344 775.236 Q58.3069 772.053 56.6518 768.934 L62.1899 768.934 Q63.5267 772.085 64.227 775.395 Q64.9272 778.705 64.9272 782.111 Q64.9272 790.641 59.9619 795.638 Q54.9967 800.603 46.5303 800.603 Q37.7774 800.603 32.6531 795.892 Q27.4968 791.15 27.4968 783.129 Q27.4968 775.936 32.1438 771.766 Q36.7589 767.565 44.7161 767.565 M42.9973 773.421 Q38.1912 773.485 35.3266 776.127 Q32.4621 778.737 32.4621 783.066 Q32.4621 787.967 35.2312 790.927 Q38.0002 793.855 43.0292 794.301 L42.9973 773.421 Z" fill="#000000" fill-rule="nonzero" fill-opacity="1" /><path clip-path="url(#clip340)" d="M14.5426 723.164 Q21.8632 727.429 29.0246 729.498 Q36.186 731.567 43.5384 731.567 Q50.8908 731.567 58.1159 729.498 Q65.3091 727.397 72.5979 723.164 L72.5979 728.257 Q65.1182 733.031 57.8931 735.418 Q50.668 737.774 43.5384 737.774 Q36.4406 737.774 29.2474 735.418 Q22.0542 733.063 14.5426 728.257 L14.5426 723.164 Z" fill="#000000" fill-rule="nonzero" fill-opacity="1" /><path clip-path="url(#clip340)" d="M42.4881 682.169 L64.0042 682.169 L64.0042 688.026 L42.679 688.026 Q37.6183 688.026 35.1038 689.999 Q32.5894 691.972 32.5894 695.919 Q32.5894 700.661 35.6131 703.399 Q38.6368 706.136 43.8567 706.136 L64.0042 706.136 L64.0042 712.024 L28.3562 712.024 L28.3562 706.136 L33.8944 706.136 Q30.6797 704.035 29.0883 701.203 Q27.4968 698.338 27.4968 694.614 Q27.4968 688.471 31.3163 685.32 Q35.1038 682.169 42.4881 682.169 Z" fill="#000000" fill-rule="nonzero" fill-opacity="1" /><path clip-path="url(#clip340)" d="M29.4065 647.762 L34.9447 647.762 Q33.6716 650.245 33.035 652.919 Q32.3984 655.592 32.3984 658.457 Q32.3984 662.817 33.7352 665.013 Q35.072 667.178 37.7456 667.178 Q39.7826 667.178 40.9603 665.618 Q42.1061 664.059 43.1565 659.348 L43.6021 657.343 Q44.9389 651.104 47.3897 648.494 Q49.8086 645.853 54.1691 645.853 Q59.1344 645.853 62.0308 649.799 Q64.9272 653.714 64.9272 660.589 Q64.9272 663.454 64.3543 666.573 Q63.8132 669.66 62.6992 673.098 L56.6518 673.098 Q58.3387 669.851 59.198 666.7 Q60.0256 663.549 60.0256 660.462 Q60.0256 656.324 58.6251 654.096 Q57.1929 651.868 54.6147 651.868 Q52.2276 651.868 50.9545 653.492 Q49.6813 655.083 48.5037 660.526 L48.0262 662.563 Q46.8804 668.005 44.5251 670.424 Q42.138 672.843 38.0002 672.843 Q32.9713 672.843 30.2341 669.279 Q27.4968 665.714 27.4968 659.157 Q27.4968 655.911 27.9743 653.046 Q28.4517 650.181 29.4065 647.762 Z" fill="#000000" fill-rule="nonzero" fill-opacity="1" /><path clip-path="url(#clip340)" d="M14.5426 637.45 L14.5426 632.357 Q22.0542 627.583 29.2474 625.228 Q36.4406 622.841 43.5384 622.841 Q50.668 622.841 57.8931 625.228 Q65.1182 627.583 72.5979 632.357 L72.5979 637.45 Q65.3091 633.217 58.1159 631.148 Q50.8908 629.047 43.5384 629.047 Q36.186 629.047 29.0246 631.148 Q21.8632 633.217 14.5426 637.45 Z" fill="#000000" fill-rule="nonzero" fill-opacity="1" /><path clip-path="url(#clip340)" d="M767.61 12.096 L818.773 12.096 L818.773 18.9825 L797.303 18.9825 L797.303 72.576 L789.08 72.576 L789.08 18.9825 L767.61 18.9825 L767.61 12.096 Z" fill="#000000" fill-rule="nonzero" fill-opacity="1" /><path clip-path="url(#clip340)" d="M823.796 27.2059 L831.25 27.2059 L831.25 72.576 L823.796 72.576 L823.796 27.2059 M823.796 9.54393 L831.25 9.54393 L831.25 18.9825 L823.796 18.9825 L823.796 9.54393 Z" fill="#000000" fill-rule="nonzero" fill-opacity="1" /><path clip-path="url(#clip340)" d="M882.17 35.9153 Q884.965 30.8922 888.854 28.5022 Q892.743 26.1121 898.009 26.1121 Q905.098 26.1121 908.946 31.0947 Q912.795 36.0368 912.795 45.1919 L912.795 72.576 L905.3 72.576 L905.3 45.4349 Q905.3 38.913 902.991 35.7533 Q900.682 32.5936 895.943 32.5936 Q890.15 32.5936 886.788 36.4419 Q883.426 40.2903 883.426 46.9338 L883.426 72.576 L875.931 72.576 L875.931 45.4349 Q875.931 38.8725 873.622 35.7533 Q871.313 32.5936 866.493 32.5936 Q860.781 32.5936 857.419 36.4824 Q854.056 40.3308 854.056 46.9338 L854.056 72.576 L846.562 72.576 L846.562 27.2059 L854.056 27.2059 L854.056 34.2544 Q856.609 30.082 860.173 28.0971 Q863.738 26.1121 868.64 26.1121 Q873.582 26.1121 877.025 28.6237 Q880.509 31.1352 882.17 35.9153 Z" fill="#000000" fill-rule="nonzero" fill-opacity="1" /><path clip-path="url(#clip340)" d="M966.469 48.0275 L966.469 51.6733 L932.198 51.6733 Q932.685 59.3701 936.816 63.421 Q940.989 67.4314 948.402 67.4314 Q952.696 67.4314 956.706 66.3781 Q960.757 65.3249 964.727 63.2184 L964.727 70.267 Q960.717 71.9684 956.504 72.8596 Q952.291 73.7508 947.956 73.7508 Q937.1 73.7508 930.74 67.4314 Q924.421 61.1119 924.421 50.3365 Q924.421 39.1965 930.416 32.6746 Q936.452 26.1121 946.66 26.1121 Q955.815 26.1121 961.122 32.0264 Q966.469 37.9003 966.469 48.0275 M959.015 45.84 Q958.934 39.7232 955.572 36.0774 Q952.25 32.4315 946.741 32.4315 Q940.503 32.4315 936.735 35.9558 Q933.009 39.4801 932.441 45.8805 L959.015 45.84 Z" fill="#000000" fill-rule="nonzero" fill-opacity="1" /><path clip-path="url(#clip340)" d="M1012.45 14.324 L1012.45 27.2059 L1027.8 27.2059 L1027.8 32.9987 L1012.45 32.9987 L1012.45 57.6282 Q1012.45 63.1779 1013.95 64.7578 Q1015.48 66.3376 1020.14 66.3376 L1027.8 66.3376 L1027.8 72.576 L1020.14 72.576 Q1011.52 72.576 1008.23 69.3758 Q1004.95 66.1351 1004.95 57.6282 L1004.95 32.9987 L999.484 32.9987 L999.484 27.2059 L1004.95 27.2059 L1004.95 14.324 L1012.45 14.324 Z" fill="#000000" fill-rule="nonzero" fill-opacity="1" /><path clip-path="url(#clip340)" d="M1055.18 32.4315 Q1049.19 32.4315 1045.7 37.1306 Q1042.22 41.7891 1042.22 49.9314 Q1042.22 58.0738 1045.66 62.7728 Q1049.15 67.4314 1055.18 67.4314 Q1061.14 67.4314 1064.62 62.7323 Q1068.11 58.0333 1068.11 49.9314 Q1068.11 41.8701 1064.62 37.1711 Q1061.14 32.4315 1055.18 32.4315 M1055.18 26.1121 Q1064.91 26.1121 1070.46 32.4315 Q1076.01 38.7509 1076.01 49.9314 Q1076.01 61.0714 1070.46 67.4314 Q1064.91 73.7508 1055.18 73.7508 Q1045.42 73.7508 1039.87 67.4314 Q1034.36 61.0714 1034.36 49.9314 Q1034.36 38.7509 1039.87 32.4315 Q1045.42 26.1121 1055.18 26.1121 Z" fill="#000000" fill-rule="nonzero" fill-opacity="1" /><path clip-path="url(#clip340)" d="M1147.38 28.9478 L1147.38 35.9153 Q1144.22 34.1734 1141.02 33.3227 Q1137.86 32.4315 1134.62 32.4315 Q1127.37 32.4315 1123.36 37.0496 Q1119.35 41.6271 1119.35 49.9314 Q1119.35 58.2358 1123.36 62.8538 Q1127.37 67.4314 1134.62 67.4314 Q1137.86 67.4314 1141.02 66.5807 Q1144.22 65.6895 1147.38 63.9476 L1147.38 70.8341 Q1144.26 72.2924 1140.9 73.0216 Q1137.58 73.7508 1133.81 73.7508 Q1123.56 73.7508 1117.53 67.3098 Q1111.49 60.8689 1111.49 49.9314 Q1111.49 38.832 1117.57 32.472 Q1123.68 26.1121 1134.3 26.1121 Q1137.74 26.1121 1141.02 26.8413 Q1144.3 27.5299 1147.38 28.9478 Z" fill="#000000" fill-rule="nonzero" fill-opacity="1" /><path clip-path="url(#clip340)" d="M1177.93 32.4315 Q1171.93 32.4315 1168.45 37.1306 Q1164.96 41.7891 1164.96 49.9314 Q1164.96 58.0738 1168.41 62.7728 Q1171.89 67.4314 1177.93 67.4314 Q1183.88 67.4314 1187.36 62.7323 Q1190.85 58.0333 1190.85 49.9314 Q1190.85 41.8701 1187.36 37.1711 Q1183.88 32.4315 1177.93 32.4315 M1177.93 26.1121 Q1187.65 26.1121 1193.2 32.4315 Q1198.75 38.7509 1198.75 49.9314 Q1198.75 61.0714 1193.2 67.4314 Q1187.65 73.7508 1177.93 73.7508 Q1168.16 73.7508 1162.61 67.4314 Q1157.1 61.0714 1157.1 49.9314 Q1157.1 38.7509 1162.61 32.4315 Q1168.16 26.1121 1177.93 26.1121 Z" fill="#000000" fill-rule="nonzero" fill-opacity="1" /><path clip-path="url(#clip340)" d="M1246.43 35.9153 Q1249.22 30.8922 1253.11 28.5022 Q1257 26.1121 1262.27 26.1121 Q1269.36 26.1121 1273.2 31.0947 Q1277.05 36.0368 1277.05 45.1919 L1277.05 72.576 L1269.56 72.576 L1269.56 45.4349 Q1269.56 38.913 1267.25 35.7533 Q1264.94 32.5936 1260.2 32.5936 Q1254.41 32.5936 1251.05 36.4419 Q1247.68 40.2903 1247.68 46.9338 L1247.68 72.576 L1240.19 72.576 L1240.19 45.4349 Q1240.19 38.8725 1237.88 35.7533 Q1235.57 32.5936 1230.75 32.5936 Q1225.04 32.5936 1221.68 36.4824 Q1218.31 40.3308 1218.31 46.9338 L1218.31 72.576 L1210.82 72.576 L1210.82 27.2059 L1218.31 27.2059 L1218.31 34.2544 Q1220.87 30.082 1224.43 28.0971 Q1228 26.1121 1232.9 26.1121 Q1237.84 26.1121 1241.28 28.6237 Q1244.77 31.1352 1246.43 35.9153 Z" fill="#000000" fill-rule="nonzero" fill-opacity="1" /><path clip-path="url(#clip340)" d="M1299.13 65.7705 L1299.13 89.8329 L1291.64 89.8329 L1291.64 27.2059 L1299.13 27.2059 L1299.13 34.0924 Q1301.48 30.0415 1305.04 28.0971 Q1308.65 26.1121 1313.63 26.1121 Q1321.9 26.1121 1327.04 32.6746 Q1332.23 39.2371 1332.23 49.9314 Q1332.23 60.6258 1327.04 67.1883 Q1321.9 73.7508 1313.63 73.7508 Q1308.65 73.7508 1305.04 71.8063 Q1301.48 69.8214 1299.13 65.7705 M1324.49 49.9314 Q1324.49 41.7081 1321.09 37.0496 Q1317.72 32.3505 1311.81 32.3505 Q1305.89 32.3505 1302.49 37.0496 Q1299.13 41.7081 1299.13 49.9314 Q1299.13 58.1548 1302.49 62.8538 Q1305.89 67.5124 1311.81 67.5124 Q1317.72 67.5124 1321.09 62.8538 Q1324.49 58.1548 1324.49 49.9314 Z" fill="#000000" fill-rule="nonzero" fill-opacity="1" /><path clip-path="url(#clip340)" d="M1343.81 54.671 L1343.81 27.2059 L1351.26 27.2059 L1351.26 54.3874 Q1351.26 60.8284 1353.78 64.0691 Q1356.29 67.2693 1361.31 67.2693 Q1367.35 67.2693 1370.83 63.421 Q1374.35 59.5726 1374.35 52.9291 L1374.35 27.2059 L1381.81 27.2059 L1381.81 72.576 L1374.35 72.576 L1374.35 65.6084 Q1371.64 69.7404 1368.04 71.7658 Q1364.47 73.7508 1359.73 73.7508 Q1351.91 73.7508 1347.86 68.8897 Q1343.81 64.0286 1343.81 54.671 M1362.57 26.1121 L1362.57 26.1121 Z" fill="#000000" fill-rule="nonzero" fill-opacity="1" /><path clip-path="url(#clip340)" d="M1404.53 14.324 L1404.53 27.2059 L1419.89 27.2059 L1419.89 32.9987 L1404.53 32.9987 L1404.53 57.6282 Q1404.53 63.1779 1406.03 64.7578 Q1407.57 66.3376 1412.23 66.3376 L1419.89 66.3376 L1419.89 72.576 L1412.23 72.576 Q1403.6 72.576 1400.32 69.3758 Q1397.04 66.1351 1397.04 57.6282 L1397.04 32.9987 L1391.57 32.9987 L1391.57 27.2059 L1397.04 27.2059 L1397.04 14.324 L1404.53 14.324 Z" fill="#000000" fill-rule="nonzero" fill-opacity="1" /><path clip-path="url(#clip340)" d="M1468.5 48.0275 L1468.5 51.6733 L1434.23 51.6733 Q1434.71 59.3701 1438.84 63.421 Q1443.02 67.4314 1450.43 67.4314 Q1454.72 67.4314 1458.73 66.3781 Q1462.79 65.3249 1466.76 63.2184 L1466.76 70.267 Q1462.75 71.9684 1458.53 72.8596 Q1454.32 73.7508 1449.98 73.7508 Q1439.13 73.7508 1432.77 67.4314 Q1426.45 61.1119 1426.45 50.3365 Q1426.45 39.1965 1432.44 32.6746 Q1438.48 26.1121 1448.69 26.1121 Q1457.84 26.1121 1463.15 32.0264 Q1468.5 37.9003 1468.5 48.0275 M1461.04 45.84 Q1460.96 39.7232 1457.6 36.0774 Q1454.28 32.4315 1448.77 32.4315 Q1442.53 32.4315 1438.76 35.9558 Q1435.04 39.4801 1434.47 45.8805 L1461.04 45.84 Z" fill="#000000" fill-rule="nonzero" fill-opacity="1" /><path clip-path="url(#clip340)" d="M1507.43 12.096 L1515.61 12.096 L1515.61 65.6895 L1545.06 65.6895 L1545.06 72.576 L1507.43 72.576 L1507.43 12.096 Z" fill="#000000" fill-rule="nonzero" fill-opacity="1" /><path clip-path="url(#clip340)" d="M1590.67 48.0275 L1590.67 51.6733 L1556.4 51.6733 Q1556.89 59.3701 1561.02 63.421 Q1565.19 67.4314 1572.61 67.4314 Q1576.9 67.4314 1580.91 66.3781 Q1584.96 65.3249 1588.93 63.2184 L1588.93 70.267 Q1584.92 71.9684 1580.71 72.8596 Q1576.49 73.7508 1572.16 73.7508 Q1561.3 73.7508 1554.94 67.4314 Q1548.62 61.1119 1548.62 50.3365 Q1548.62 39.1965 1554.62 32.6746 Q1560.66 26.1121 1570.86 26.1121 Q1580.02 26.1121 1585.33 32.0264 Q1590.67 37.9003 1590.67 48.0275 M1583.22 45.84 Q1583.14 39.7232 1579.78 36.0774 Q1576.45 32.4315 1570.94 32.4315 Q1564.71 32.4315 1560.94 35.9558 Q1557.21 39.4801 1556.65 45.8805 L1583.22 45.84 Z" fill="#000000" fill-rule="nonzero" fill-opacity="1" /><path clip-path="url(#clip340)" d="M1640.62 45.1919 L1640.62 72.576 L1633.17 72.576 L1633.17 45.4349 Q1633.17 38.994 1630.66 35.7938 Q1628.14 32.5936 1623.12 32.5936 Q1617.08 32.5936 1613.6 36.4419 Q1610.12 40.2903 1610.12 46.9338 L1610.12 72.576 L1602.62 72.576 L1602.62 27.2059 L1610.12 27.2059 L1610.12 34.2544 Q1612.79 30.163 1616.4 28.1376 Q1620.04 26.1121 1624.78 26.1121 Q1632.6 26.1121 1636.61 30.9732 Q1640.62 35.7938 1640.62 45.1919 Z" fill="#000000" fill-rule="nonzero" fill-opacity="1" /><path clip-path="url(#clip340)" d="M1685.34 49.3643 Q1685.34 41.2625 1681.98 36.8065 Q1678.66 32.3505 1672.62 32.3505 Q1666.63 32.3505 1663.27 36.8065 Q1659.94 41.2625 1659.94 49.3643 Q1659.94 57.4256 1663.27 61.8816 Q1666.63 66.3376 1672.62 66.3376 Q1678.66 66.3376 1681.98 61.8816 Q1685.34 57.4256 1685.34 49.3643 M1692.8 66.9452 Q1692.8 78.5308 1687.65 84.1616 Q1682.51 89.8329 1671.89 89.8329 Q1667.96 89.8329 1664.48 89.2252 Q1661 88.6581 1657.72 87.4428 L1657.72 80.1917 Q1661 81.9741 1664.2 82.8248 Q1667.4 83.6755 1670.72 83.6755 Q1678.05 83.6755 1681.7 79.8271 Q1685.34 76.0193 1685.34 68.282 L1685.34 64.5957 Q1683.03 68.6061 1679.43 70.5911 Q1675.82 72.576 1670.8 72.576 Q1662.45 72.576 1657.35 66.2161 Q1652.25 59.8562 1652.25 49.3643 Q1652.25 38.832 1657.35 32.472 Q1662.45 26.1121 1670.8 26.1121 Q1675.82 26.1121 1679.43 28.0971 Q1683.03 30.082 1685.34 34.0924 L1685.34 27.2059 L1692.8 27.2059 L1692.8 66.9452 Z" fill="#000000" fill-rule="nonzero" fill-opacity="1" /><path clip-path="url(#clip340)" d="M1715.52 14.324 L1715.52 27.2059 L1730.87 27.2059 L1730.87 32.9987 L1715.52 32.9987 L1715.52 57.6282 Q1715.52 63.1779 1717.02 64.7578 Q1718.56 66.3376 1723.22 66.3376 L1730.87 66.3376 L1730.87 72.576 L1723.22 72.576 Q1714.59 72.576 1711.31 69.3758 Q1708.03 66.1351 1708.03 57.6282 L1708.03 32.9987 L1702.56 32.9987 L1702.56 27.2059 L1708.03 27.2059 L1708.03 14.324 L1715.52 14.324 Z" fill="#000000" fill-rule="nonzero" fill-opacity="1" /><path clip-path="url(#clip340)" d="M1778.39 45.1919 L1778.39 72.576 L1770.94 72.576 L1770.94 45.4349 Q1770.94 38.994 1768.43 35.7938 Q1765.91 32.5936 1760.89 32.5936 Q1754.86 32.5936 1751.37 36.4419 Q1747.89 40.2903 1747.89 46.9338 L1747.89 72.576 L1740.39 72.576 L1740.39 9.54393 L1747.89 9.54393 L1747.89 34.2544 Q1750.56 30.163 1754.17 28.1376 Q1757.81 26.1121 1762.55 26.1121 Q1770.37 26.1121 1774.38 30.9732 Q1778.39 35.7938 1778.39 45.1919 Z" fill="#000000" fill-rule="nonzero" fill-opacity="1" /><path clip-path="url(#clip340)" d="M1819.95 12.096 L1828.14 12.096 L1828.14 65.6895 L1857.59 65.6895 L1857.59 72.576 L1819.95 72.576 L1819.95 12.096 Z" fill="#000000" fill-rule="nonzero" fill-opacity="1" /><path clip-path="url(#clip340)" d="M1865.85 27.2059 L1873.3 27.2059 L1873.3 72.576 L1865.85 72.576 L1865.85 27.2059 M1865.85 9.54393 L1873.3 9.54393 L1873.3 18.9825 L1865.85 18.9825 L1865.85 9.54393 Z" fill="#000000" fill-rule="nonzero" fill-opacity="1" /><path clip-path="url(#clip340)" d="M1917.82 28.5427 L1917.82 35.5912 Q1914.66 33.9709 1911.26 33.1607 Q1907.86 32.3505 1904.21 32.3505 Q1898.66 32.3505 1895.87 34.0519 Q1893.11 35.7533 1893.11 39.156 Q1893.11 41.7486 1895.1 43.2475 Q1897.08 44.7058 1903.08 46.0426 L1905.63 46.6097 Q1913.57 48.3111 1916.89 51.4303 Q1920.25 54.509 1920.25 60.0587 Q1920.25 66.3781 1915.23 70.0644 Q1910.25 73.7508 1901.5 73.7508 Q1897.85 73.7508 1893.88 73.0216 Q1889.95 72.3329 1885.58 70.9151 L1885.58 63.2184 Q1889.71 65.3654 1893.72 66.4591 Q1897.73 67.5124 1901.66 67.5124 Q1906.93 67.5124 1909.76 65.73 Q1912.6 63.9071 1912.6 60.6258 Q1912.6 57.5877 1910.53 55.9673 Q1908.51 54.3469 1901.58 52.8481 L1898.99 52.2405 Q1892.06 50.7821 1888.98 47.7845 Q1885.9 44.7463 1885.9 39.4801 Q1885.9 33.0797 1890.44 29.5959 Q1894.98 26.1121 1903.32 26.1121 Q1907.45 26.1121 1911.1 26.7198 Q1914.75 27.3274 1917.82 28.5427 Z" fill="#000000" fill-rule="nonzero" fill-opacity="1" /><path clip-path="url(#clip340)" d="M1939.5 14.324 L1939.5 27.2059 L1954.85 27.2059 L1954.85 32.9987 L1939.5 32.9987 L1939.5 57.6282 Q1939.5 63.1779 1941 64.7578 Q1942.53 66.3376 1947.19 66.3376 L1954.85 66.3376 L1954.85 72.576 L1947.19 72.576 Q1938.56 72.576 1935.28 69.3758 Q1932 66.1351 1932 57.6282 L1932 32.9987 L1926.53 32.9987 L1926.53 27.2059 L1932 27.2059 L1932 14.324 L1939.5 14.324 Z" fill="#000000" fill-rule="nonzero" fill-opacity="1" /><polyline clip-path="url(#clip342)" style="stroke:#009af9; stroke-linecap:round; stroke-linejoin:round; stroke-width:4; stroke-opacity:1; fill:none" points="425.828,1386.4 434.25,1380.62 471.685,1355.84 518.479,1325.16 565.272,1294.47 612.066,1263.61 658.859,1231.15 705.653,1196.52 752.446,1170.45 799.24,1140.12 892.827,1080.91 1360.76,769.881 2296.63,160.256 "/>
<circle clip-path="url(#clip342)" cx="425.828" cy="1386.4" r="14.4" fill="#e26f46" fill-rule="evenodd" fill-opacity="1" stroke="#000000" stroke-opacity="1" stroke-width="3.2"/>
<circle clip-path="url(#clip342)" cx="434.25" cy="1380.62" r="14.4" fill="#e26f46" fill-rule="evenodd" fill-opacity="1" stroke="#000000" stroke-opacity="1" stroke-width="3.2"/>
<circle clip-path="url(#clip342)" cx="471.685" cy="1355.84" r="14.4" fill="#e26f46" fill-rule="evenodd" fill-opacity="1" stroke="#000000" stroke-opacity="1" stroke-width="3.2"/>
<circle clip-path="url(#clip342)" cx="518.479" cy="1325.16" r="14.4" fill="#e26f46" fill-rule="evenodd" fill-opacity="1" stroke="#000000" stroke-opacity="1" stroke-width="3.2"/>
<circle clip-path="url(#clip342)" cx="565.272" cy="1294.47" r="14.4" fill="#e26f46" fill-rule="evenodd" fill-opacity="1" stroke="#000000" stroke-opacity="1" stroke-width="3.2"/>
<circle clip-path="url(#clip342)" cx="612.066" cy="1263.61" r="14.4" fill="#e26f46" fill-rule="evenodd" fill-opacity="1" stroke="#000000" stroke-opacity="1" stroke-width="3.2"/>
<circle clip-path="url(#clip342)" cx="658.859" cy="1231.15" r="14.4" fill="#e26f46" fill-rule="evenodd" fill-opacity="1" stroke="#000000" stroke-opacity="1" stroke-width="3.2"/>
<circle clip-path="url(#clip342)" cx="705.653" cy="1196.52" r="14.4" fill="#e26f46" fill-rule="evenodd" fill-opacity="1" stroke="#000000" stroke-opacity="1" stroke-width="3.2"/>
<circle clip-path="url(#clip342)" cx="752.446" cy="1170.45" r="14.4" fill="#e26f46" fill-rule="evenodd" fill-opacity="1" stroke="#000000" stroke-opacity="1" stroke-width="3.2"/>
<circle clip-path="url(#clip342)" cx="799.24" cy="1140.12" r="14.4" fill="#e26f46" fill-rule="evenodd" fill-opacity="1" stroke="#000000" stroke-opacity="1" stroke-width="3.2"/>
<circle clip-path="url(#clip342)" cx="892.827" cy="1080.91" r="14.4" fill="#e26f46" fill-rule="evenodd" fill-opacity="1" stroke="#000000" stroke-opacity="1" stroke-width="3.2"/>
<circle clip-path="url(#clip342)" cx="1360.76" cy="769.881" r="14.4" fill="#e26f46" fill-rule="evenodd" fill-opacity="1" stroke="#000000" stroke-opacity="1" stroke-width="3.2"/>
<circle clip-path="url(#clip342)" cx="2296.63" cy="160.256" r="14.4" fill="#e26f46" fill-rule="evenodd" fill-opacity="1" stroke="#000000" stroke-opacity="1" stroke-width="3.2"/>
</svg>
