<?xml version="1.0" encoding="utf-8"?>
<svg xmlns="http://www.w3.org/2000/svg" xmlns:xlink="http://www.w3.org/1999/xlink" width="600" height="400" viewBox="0 0 2400 1600">
<defs>
  <clipPath id="clip100">
    <rect x="0" y="0" width="2400" height="1600"/>
  </clipPath>
</defs>
<path clip-path="url(#clip100)" d="M0 1600 L2400 1600 L2400 0 L0 0  Z" fill="#ffffff" fill-rule="evenodd" fill-opacity="1"/>
<defs>
  <clipPath id="clip101">
    <rect x="480" y="0" width="1681" height="1600"/>
  </clipPath>
</defs>
<path clip-path="url(#clip100)" d="M368.886 1423.18 L2352.76 1423.18 L2352.76 123.472 L368.886 123.472  Z" fill="#ffffff" fill-rule="evenodd" fill-opacity="1"/>
<defs>
  <clipPath id="clip102">
    <rect x="368" y="123" width="1985" height="1301"/>
  </clipPath>
</defs>
<polyline clip-path="url(#clip102)" style="stroke:#000000; stroke-linecap:round; stroke-linejoin:round; stroke-width:2; stroke-opacity:0.1; fill:none" points="424.097,1423.18 424.097,123.472 "/>
<polyline clip-path="url(#clip102)" style="stroke:#000000; stroke-linecap:round; stroke-linejoin:round; stroke-width:2; stroke-opacity:0.1; fill:none" points="892.225,1423.18 892.225,123.472 "/>
<polyline clip-path="url(#clip102)" style="stroke:#000000; stroke-linecap:round; stroke-linejoin:round; stroke-width:2; stroke-opacity:0.1; fill:none" points="1360.35,1423.18 1360.35,123.472 "/>
<polyline clip-path="url(#clip102)" style="stroke:#000000; stroke-linecap:round; stroke-linejoin:round; stroke-width:2; stroke-opacity:0.1; fill:none" points="1828.48,1423.18 1828.48,123.472 "/>
<polyline clip-path="url(#clip102)" style="stroke:#000000; stroke-linecap:round; stroke-linejoin:round; stroke-width:2; stroke-opacity:0.1; fill:none" points="2296.61,1423.18 2296.61,123.472 "/>
<polyline clip-path="url(#clip100)" style="stroke:#000000; stroke-linecap:round; stroke-linejoin:round; stroke-width:4; stroke-opacity:1; fill:none" points="368.886,1423.18 2352.76,1423.18 "/>
<polyline clip-path="url(#clip100)" style="stroke:#000000; stroke-linecap:round; stroke-linejoin:round; stroke-width:4; stroke-opacity:1; fill:none" points="424.097,1423.18 424.097,1404.28 "/>
<polyline clip-path="url(#clip100)" style="stroke:#000000; stroke-linecap:round; stroke-linejoin:round; stroke-width:4; stroke-opacity:1; fill:none" points="892.225,1423.18 892.225,1404.28 "/>
<polyline clip-path="url(#clip100)" style="stroke:#000000; stroke-linecap:round; stroke-linejoin:round; stroke-width:4; stroke-opacity:1; fill:none" points="1360.35,1423.18 1360.35,1404.28 "/>
<polyline clip-path="url(#clip100)" style="stroke:#000000; stroke-linecap:round; stroke-linejoin:round; stroke-width:4; stroke-opacity:1; fill:none" points="1828.48,1423.18 1828.48,1404.28 "/>
<polyline clip-path="url(#clip100)" style="stroke:#000000; stroke-linecap:round; stroke-linejoin:round; stroke-width:4; stroke-opacity:1; fill:none" points="2296.61,1423.18 2296.61,1404.28 "/>
<path clip-path="url(#clip100)" d="M424.097 1454.1 Q420.486 1454.1 418.657 1457.66 Q416.852 1461.2 416.852 1468.33 Q416.852 1475.44 418.657 1479.01 Q420.486 1482.55 424.097 1482.55 Q427.731 1482.55 429.537 1479.01 Q431.365 1475.44 431.365 1468.33 Q431.365 1461.2 429.537 1457.66 Q427.731 1454.1 424.097 1454.1 M424.097 1450.39 Q429.907 1450.39 432.963 1455 Q436.041 1459.58 436.041 1468.33 Q436.041 1477.06 432.963 1481.67 Q429.907 1486.25 424.097 1486.25 Q418.287 1486.25 415.208 1481.67 Q412.153 1477.06 412.153 1468.33 Q412.153 1459.58 415.208 1455 Q418.287 1450.39 424.097 1450.39 Z" fill="#000000" fill-rule="nonzero" fill-opacity="1" /><path clip-path="url(#clip100)" d="M851.843 1451.02 L870.2 1451.02 L870.2 1454.96 L856.126 1454.96 L856.126 1463.43 Q857.144 1463.08 858.163 1462.92 Q859.181 1462.73 860.2 1462.73 Q865.987 1462.73 869.366 1465.9 Q872.746 1469.08 872.746 1474.49 Q872.746 1480.07 869.274 1483.17 Q865.801 1486.25 859.482 1486.25 Q857.306 1486.25 855.038 1485.88 Q852.792 1485.51 850.385 1484.77 L850.385 1480.07 Q852.468 1481.2 854.69 1481.76 Q856.913 1482.32 859.389 1482.32 Q863.394 1482.32 865.732 1480.21 Q868.07 1478.1 868.07 1474.49 Q868.07 1470.88 865.732 1468.77 Q863.394 1466.67 859.389 1466.67 Q857.514 1466.67 855.639 1467.08 Q853.788 1467.5 851.843 1468.38 L851.843 1451.02 Z" fill="#000000" fill-rule="nonzero" fill-opacity="1" /><path clip-path="url(#clip100)" d="M891.959 1454.1 Q888.348 1454.1 886.519 1457.66 Q884.713 1461.2 884.713 1468.33 Q884.713 1475.44 886.519 1479.01 Q888.348 1482.55 891.959 1482.55 Q895.593 1482.55 897.399 1479.01 Q899.227 1475.44 899.227 1468.33 Q899.227 1461.2 897.399 1457.66 Q895.593 1454.1 891.959 1454.1 M891.959 1450.39 Q897.769 1450.39 900.824 1455 Q903.903 1459.58 903.903 1468.33 Q903.903 1477.06 900.824 1481.67 Q897.769 1486.25 891.959 1486.25 Q886.149 1486.25 883.07 1481.67 Q880.014 1477.06 880.014 1468.33 Q880.014 1459.58 883.07 1455 Q886.149 1450.39 891.959 1450.39 Z" fill="#000000" fill-rule="nonzero" fill-opacity="1" /><path clip-path="url(#clip100)" d="M922.121 1454.1 Q918.51 1454.1 916.681 1457.66 Q914.875 1461.2 914.875 1468.33 Q914.875 1475.44 916.681 1479.01 Q918.51 1482.55 922.121 1482.55 Q925.755 1482.55 927.56 1479.01 Q929.389 1475.44 929.389 1468.33 Q929.389 1461.2 927.56 1457.66 Q925.755 1454.1 922.121 1454.1 M922.121 1450.39 Q927.931 1450.39 930.986 1455 Q934.065 1459.58 934.065 1468.33 Q934.065 1477.06 930.986 1481.67 Q927.931 1486.25 922.121 1486.25 Q916.31 1486.25 913.232 1481.67 Q910.176 1477.06 910.176 1468.33 Q910.176 1459.58 913.232 1455 Q916.31 1450.39 922.121 1450.39 Z" fill="#000000" fill-rule="nonzero" fill-opacity="1" /><path clip-path="url(#clip100)" d="M1304.88 1481.64 L1312.52 1481.64 L1312.52 1455.28 L1304.21 1456.95 L1304.21 1452.69 L1312.47 1451.02 L1317.15 1451.02 L1317.15 1481.64 L1324.79 1481.64 L1324.79 1485.58 L1304.88 1485.58 L1304.88 1481.64 Z" fill="#000000" fill-rule="nonzero" fill-opacity="1" /><path clip-path="url(#clip100)" d="M1344.23 1454.1 Q1340.62 1454.1 1338.79 1457.66 Q1336.98 1461.2 1336.98 1468.33 Q1336.98 1475.44 1338.79 1479.01 Q1340.62 1482.55 1344.23 1482.55 Q1347.86 1482.55 1349.67 1479.01 Q1351.5 1475.44 1351.5 1468.33 Q1351.5 1461.2 1349.67 1457.66 Q1347.86 1454.1 1344.23 1454.1 M1344.23 1450.39 Q1350.04 1450.39 1353.1 1455 Q1356.17 1459.58 1356.17 1468.33 Q1356.17 1477.06 1353.1 1481.67 Q1350.04 1486.25 1344.23 1486.25 Q1338.42 1486.25 1335.34 1481.67 Q1332.29 1477.06 1332.29 1468.33 Q1332.29 1459.58 1335.34 1455 Q1338.42 1450.39 1344.23 1450.39 Z" fill="#000000" fill-rule="nonzero" fill-opacity="1" /><path clip-path="url(#clip100)" d="M1374.39 1454.1 Q1370.78 1454.1 1368.95 1457.66 Q1367.15 1461.2 1367.15 1468.33 Q1367.15 1475.44 1368.95 1479.01 Q1370.78 1482.55 1374.39 1482.55 Q1378.03 1482.55 1379.83 1479.01 Q1381.66 1475.44 1381.66 1468.33 Q1381.66 1461.2 1379.83 1457.66 Q1378.03 1454.1 1374.39 1454.1 M1374.39 1450.39 Q1380.2 1450.39 1383.26 1455 Q1386.34 1459.58 1386.34 1468.33 Q1386.34 1477.06 1383.26 1481.67 Q1380.2 1486.25 1374.39 1486.25 Q1368.58 1486.25 1365.5 1481.67 Q1362.45 1477.06 1362.45 1468.33 Q1362.45 1459.58 1365.5 1455 Q1368.58 1450.39 1374.39 1450.39 Z" fill="#000000" fill-rule="nonzero" fill-opacity="1" /><path clip-path="url(#clip100)" d="M1404.55 1454.1 Q1400.94 1454.1 1399.11 1457.66 Q1397.31 1461.2 1397.31 1468.33 Q1397.31 1475.44 1399.11 1479.01 Q1400.94 1482.55 1404.55 1482.55 Q1408.19 1482.55 1409.99 1479.01 Q1411.82 1475.44 1411.82 1468.33 Q1411.82 1461.2 1409.99 1457.66 Q1408.19 1454.1 1404.55 1454.1 M1404.55 1450.39 Q1410.36 1450.39 1413.42 1455 Q1416.5 1459.58 1416.5 1468.33 Q1416.5 1477.06 1413.42 1481.67 Q1410.36 1486.25 1404.55 1486.25 Q1398.74 1486.25 1395.67 1481.67 Q1392.61 1477.06 1392.61 1468.33 Q1392.61 1459.58 1395.67 1455 Q1398.74 1450.39 1404.55 1450.39 Z" fill="#000000" fill-rule="nonzero" fill-opacity="1" /><path clip-path="url(#clip100)" d="M1773.01 1481.64 L1780.65 1481.64 L1780.65 1455.28 L1772.34 1456.95 L1772.34 1452.69 L1780.6 1451.02 L1785.27 1451.02 L1785.27 1481.64 L1792.91 1481.64 L1792.91 1485.58 L1773.01 1485.58 L1773.01 1481.64 Z" fill="#000000" fill-rule="nonzero" fill-opacity="1" /><path clip-path="url(#clip100)" d="M1802.4 1451.02 L1820.76 1451.02 L1820.76 1454.96 L1806.69 1454.96 L1806.69 1463.43 Q1807.71 1463.08 1808.72 1462.92 Q1809.74 1462.73 1810.76 1462.73 Q1816.55 1462.73 1819.93 1465.9 Q1823.31 1469.08 1823.31 1474.49 Q1823.31 1480.07 1819.83 1483.17 Q1816.36 1486.25 1810.04 1486.25 Q1807.87 1486.25 1805.6 1485.88 Q1803.35 1485.51 1800.95 1484.77 L1800.95 1480.07 Q1803.03 1481.2 1805.25 1481.76 Q1807.47 1482.32 1809.95 1482.32 Q1813.96 1482.32 1816.29 1480.21 Q1818.63 1478.1 1818.63 1474.49 Q1818.63 1470.88 1816.29 1468.77 Q1813.96 1466.67 1809.95 1466.67 Q1808.08 1466.67 1806.2 1467.08 Q1804.35 1467.5 1802.4 1468.38 L1802.4 1451.02 Z" fill="#000000" fill-rule="nonzero" fill-opacity="1" /><path clip-path="url(#clip100)" d="M1842.52 1454.1 Q1838.91 1454.1 1837.08 1457.66 Q1835.27 1461.2 1835.27 1468.33 Q1835.27 1475.44 1837.08 1479.01 Q1838.91 1482.55 1842.52 1482.55 Q1846.15 1482.55 1847.96 1479.01 Q1849.79 1475.44 1849.79 1468.33 Q1849.79 1461.2 1847.96 1457.66 Q1846.15 1454.1 1842.52 1454.1 M1842.52 1450.39 Q1848.33 1450.39 1851.39 1455 Q1854.46 1459.58 1854.46 1468.33 Q1854.46 1477.06 1851.39 1481.67 Q1848.33 1486.25 1842.52 1486.25 Q1836.71 1486.25 1833.63 1481.67 Q1830.58 1477.06 1830.58 1468.33 Q1830.58 1459.58 1833.63 1455 Q1836.71 1450.39 1842.52 1450.39 Z" fill="#000000" fill-rule="nonzero" fill-opacity="1" /><path clip-path="url(#clip100)" d="M1872.68 1454.1 Q1869.07 1454.1 1867.24 1457.66 Q1865.44 1461.2 1865.44 1468.33 Q1865.44 1475.44 1867.24 1479.01 Q1869.07 1482.55 1872.68 1482.55 Q1876.32 1482.55 1878.12 1479.01 Q1879.95 1475.44 1879.95 1468.33 Q1879.95 1461.2 1878.12 1457.66 Q1876.32 1454.1 1872.68 1454.1 M1872.68 1450.39 Q1878.49 1450.39 1881.55 1455 Q1884.63 1459.58 1884.63 1468.33 Q1884.63 1477.06 1881.55 1481.67 Q1878.49 1486.25 1872.68 1486.25 Q1866.87 1486.25 1863.79 1481.67 Q1860.74 1477.06 1860.74 1468.33 Q1860.74 1459.58 1863.79 1455 Q1866.87 1450.39 1872.68 1450.39 Z" fill="#000000" fill-rule="nonzero" fill-opacity="1" /><path clip-path="url(#clip100)" d="M2245.22 1481.64 L2261.54 1481.64 L2261.54 1485.58 L2239.6 1485.58 L2239.6 1481.64 Q2242.26 1478.89 2246.84 1474.26 Q2251.45 1469.61 2252.63 1468.27 Q2254.87 1465.74 2255.75 1464.01 Q2256.66 1462.25 2256.66 1460.56 Q2256.66 1457.8 2254.71 1456.07 Q2252.79 1454.33 2249.69 1454.33 Q2247.49 1454.33 2245.03 1455.09 Q2242.6 1455.86 2239.83 1457.41 L2239.83 1452.69 Q2242.65 1451.55 2245.1 1450.97 Q2247.56 1450.39 2249.6 1450.39 Q2254.97 1450.39 2258.16 1453.08 Q2261.35 1455.77 2261.35 1460.26 Q2261.35 1462.39 2260.54 1464.31 Q2259.76 1466.2 2257.65 1468.8 Q2257.07 1469.47 2253.97 1472.69 Q2250.87 1475.88 2245.22 1481.64 Z" fill="#000000" fill-rule="nonzero" fill-opacity="1" /><path clip-path="url(#clip100)" d="M2281.35 1454.1 Q2277.74 1454.1 2275.91 1457.66 Q2274.11 1461.2 2274.11 1468.33 Q2274.11 1475.44 2275.91 1479.01 Q2277.74 1482.55 2281.35 1482.55 Q2284.99 1482.55 2286.79 1479.01 Q2288.62 1475.44 2288.62 1468.33 Q2288.62 1461.2 2286.79 1457.66 Q2284.99 1454.1 2281.35 1454.1 M2281.35 1450.39 Q2287.16 1450.39 2290.22 1455 Q2293.3 1459.58 2293.3 1468.33 Q2293.3 1477.06 2290.22 1481.67 Q2287.16 1486.25 2281.35 1486.25 Q2275.54 1486.25 2272.47 1481.67 Q2269.41 1477.06 2269.41 1468.33 Q2269.41 1459.58 2272.47 1455 Q2275.54 1450.39 2281.35 1450.39 Z" fill="#000000" fill-rule="nonzero" fill-opacity="1" /><path clip-path="url(#clip100)" d="M2311.52 1454.1 Q2307.9 1454.1 2306.08 1457.66 Q2304.27 1461.2 2304.27 1468.33 Q2304.27 1475.44 2306.08 1479.01 Q2307.9 1482.55 2311.52 1482.55 Q2315.15 1482.55 2316.96 1479.01 Q2318.78 1475.44 2318.78 1468.33 Q2318.78 1461.2 2316.96 1457.66 Q2315.15 1454.1 2311.52 1454.1 M2311.52 1450.39 Q2317.33 1450.39 2320.38 1455 Q2323.46 1459.58 2323.46 1468.33 Q2323.46 1477.06 2320.38 1481.67 Q2317.33 1486.25 2311.52 1486.25 Q2305.71 1486.25 2302.63 1481.67 Q2299.57 1477.06 2299.57 1468.33 Q2299.57 1459.58 2302.63 1455 Q2305.71 1450.39 2311.52 1450.39 Z" fill="#000000" fill-rule="nonzero" fill-opacity="1" /><path clip-path="url(#clip100)" d="M2341.68 1454.1 Q2338.07 1454.1 2336.24 1457.66 Q2334.43 1461.2 2334.43 1468.33 Q2334.43 1475.44 2336.24 1479.01 Q2338.07 1482.55 2341.68 1482.55 Q2345.31 1482.55 2347.12 1479.01 Q2348.95 1475.44 2348.95 1468.33 Q2348.95 1461.2 2347.12 1457.66 Q2345.31 1454.1 2341.68 1454.1 M2341.68 1450.39 Q2347.49 1450.39 2350.54 1455 Q2353.62 1459.58 2353.62 1468.33 Q2353.62 1477.06 2350.54 1481.67 Q2347.49 1486.25 2341.68 1486.25 Q2335.87 1486.25 2332.79 1481.67 Q2329.73 1477.06 2329.73 1468.33 Q2329.73 1459.58 2332.79 1455 Q2335.87 1450.39 2341.68 1450.39 Z" fill="#000000" fill-rule="nonzero" fill-opacity="1" /><path clip-path="url(#clip100)" d="M1342.84 1520.52 L1351.5 1520.52 L1372.57 1560.28 L1372.57 1520.52 L1378.8 1520.52 L1378.8 1568.04 L1370.15 1568.04 L1349.08 1528.29 L1349.08 1568.04 L1342.84 1568.04 L1342.84 1520.52 Z" fill="#000000" fill-rule="nonzero" fill-opacity="1" /><polyline clip-path="url(#clip102)" style="stroke:#000000; stroke-linecap:round; stroke-linejoin:round; stroke-width:2; stroke-opacity:0.1; fill:none" points="368.886,1388.83 2352.76,1388.83 "/>
<polyline clip-path="url(#clip102)" style="stroke:#000000; stroke-linecap:round; stroke-linejoin:round; stroke-width:2; stroke-opacity:0.1; fill:none" points="368.886,1203.33 2352.76,1203.33 "/>
<polyline clip-path="url(#clip102)" style="stroke:#000000; stroke-linecap:round; stroke-linejoin:round; stroke-width:2; stroke-opacity:0.1; fill:none" points="368.886,1017.83 2352.76,1017.83 "/>
<polyline clip-path="url(#clip102)" style="stroke:#000000; stroke-linecap:round; stroke-linejoin:round; stroke-width:2; stroke-opacity:0.1; fill:none" points="368.886,832.336 2352.76,832.336 "/>
<polyline clip-path="url(#clip102)" style="stroke:#000000; stroke-linecap:round; stroke-linejoin:round; stroke-width:2; stroke-opacity:0.1; fill:none" points="368.886,646.838 2352.76,646.838 "/>
<polyline clip-path="url(#clip102)" style="stroke:#000000; stroke-linecap:round; stroke-linejoin:round; stroke-width:2; stroke-opacity:0.1; fill:none" points="368.886,461.34 2352.76,461.34 "/>
<polyline clip-path="url(#clip102)" style="stroke:#000000; stroke-linecap:round; stroke-linejoin:round; stroke-width:2; stroke-opacity:0.1; fill:none" points="368.886,275.842 2352.76,275.842 "/>
<polyline clip-path="url(#clip100)" style="stroke:#000000; stroke-linecap:round; stroke-linejoin:round; stroke-width:4; stroke-opacity:1; fill:none" points="368.886,1423.18 368.886,123.472 "/>
<polyline clip-path="url(#clip100)" style="stroke:#000000; stroke-linecap:round; stroke-linejoin:round; stroke-width:4; stroke-opacity:1; fill:none" points="368.886,1388.83 387.784,1388.83 "/>
<polyline clip-path="url(#clip100)" style="stroke:#000000; stroke-linecap:round; stroke-linejoin:round; stroke-width:4; stroke-opacity:1; fill:none" points="368.886,1203.33 387.784,1203.33 "/>
<polyline clip-path="url(#clip100)" style="stroke:#000000; stroke-linecap:round; stroke-linejoin:round; stroke-width:4; stroke-opacity:1; fill:none" points="368.886,1017.83 387.784,1017.83 "/>
<polyline clip-path="url(#clip100)" style="stroke:#000000; stroke-linecap:round; stroke-linejoin:round; stroke-width:4; stroke-opacity:1; fill:none" points="368.886,832.336 387.784,832.336 "/>
<polyline clip-path="url(#clip100)" style="stroke:#000000; stroke-linecap:round; stroke-linejoin:round; stroke-width:4; stroke-opacity:1; fill:none" points="368.886,646.838 387.784,646.838 "/>
<polyline clip-path="url(#clip100)" style="stroke:#000000; stroke-linecap:round; stroke-linejoin:round; stroke-width:4; stroke-opacity:1; fill:none" points="368.886,461.34 387.784,461.34 "/>
<polyline clip-path="url(#clip100)" style="stroke:#000000; stroke-linecap:round; stroke-linejoin:round; stroke-width:4; stroke-opacity:1; fill:none" points="368.886,275.842 387.784,275.842 "/>
<path clip-path="url(#clip100)" d="M320.942 1374.63 Q317.331 1374.63 315.502 1378.19 Q313.696 1381.73 313.696 1388.86 Q313.696 1395.97 315.502 1399.54 Q317.331 1403.08 320.942 1403.08 Q324.576 1403.08 326.381 1399.54 Q328.21 1395.97 328.21 1388.86 Q328.21 1381.73 326.381 1378.19 Q324.576 1374.63 320.942 1374.63 M320.942 1370.92 Q326.752 1370.92 329.807 1375.53 Q332.886 1380.11 332.886 1388.86 Q332.886 1397.59 329.807 1402.2 Q326.752 1406.78 320.942 1406.78 Q315.131 1406.78 312.053 1402.2 Q308.997 1397.59 308.997 1388.86 Q308.997 1380.11 312.053 1375.53 Q315.131 1370.92 320.942 1370.92 Z" fill="#000000" fill-rule="nonzero" fill-opacity="1" /><path clip-path="url(#clip100)" d="M121.043 1223.12 L137.362 1223.12 L137.362 1227.06 L115.418 1227.06 L115.418 1223.12 Q118.08 1220.37 122.663 1215.74 Q127.269 1211.09 128.45 1209.74 Q130.695 1207.22 131.575 1205.49 Q132.478 1203.73 132.478 1202.04 Q132.478 1199.28 130.533 1197.55 Q128.612 1195.81 125.51 1195.81 Q123.311 1195.81 120.857 1196.57 Q118.427 1197.34 115.649 1198.89 L115.649 1194.17 Q118.473 1193.03 120.927 1192.45 Q123.38 1191.87 125.418 1191.87 Q130.788 1191.87 133.982 1194.56 Q137.177 1197.24 137.177 1201.74 Q137.177 1203.86 136.367 1205.79 Q135.579 1207.68 133.473 1210.28 Q132.894 1210.95 129.792 1214.17 Q126.691 1217.36 121.043 1223.12 Z" fill="#000000" fill-rule="nonzero" fill-opacity="1" /><path clip-path="url(#clip100)" d="M147.177 1221.18 L152.061 1221.18 L152.061 1227.06 L147.177 1227.06 L147.177 1221.18 Z" fill="#000000" fill-rule="nonzero" fill-opacity="1" /><path clip-path="url(#clip100)" d="M172.246 1195.58 Q168.635 1195.58 166.806 1199.14 Q165.001 1202.68 165.001 1209.81 Q165.001 1216.92 166.806 1220.49 Q168.635 1224.03 172.246 1224.03 Q175.88 1224.03 177.686 1220.49 Q179.514 1216.92 179.514 1209.81 Q179.514 1202.68 177.686 1199.14 Q175.88 1195.58 172.246 1195.58 M172.246 1191.87 Q178.056 1191.87 181.112 1196.48 Q184.19 1201.06 184.19 1209.81 Q184.19 1218.54 181.112 1223.15 Q178.056 1227.73 172.246 1227.73 Q166.436 1227.73 163.357 1223.15 Q160.302 1218.54 160.302 1209.81 Q160.302 1201.06 163.357 1196.48 Q166.436 1191.87 172.246 1191.87 Z" fill="#000000" fill-rule="nonzero" fill-opacity="1" /><path clip-path="url(#clip100)" d="M202.408 1195.58 Q198.797 1195.58 196.968 1199.14 Q195.163 1202.68 195.163 1209.81 Q195.163 1216.92 196.968 1220.49 Q198.797 1224.03 202.408 1224.03 Q206.042 1224.03 207.848 1220.49 Q209.676 1216.92 209.676 1209.81 Q209.676 1202.68 207.848 1199.14 Q206.042 1195.58 202.408 1195.58 M202.408 1191.87 Q208.218 1191.87 211.274 1196.48 Q214.352 1201.06 214.352 1209.81 Q214.352 1218.54 211.274 1223.15 Q208.218 1227.73 202.408 1227.73 Q196.598 1227.73 193.519 1223.15 Q190.463 1218.54 190.463 1209.81 Q190.463 1201.06 193.519 1196.48 Q196.598 1191.87 202.408 1191.87 Z" fill="#000000" fill-rule="nonzero" fill-opacity="1" /><path clip-path="url(#clip100)" d="M250.741 1201.6 L240.162 1212.22 L250.741 1222.8 L247.986 1225.6 L237.361 1214.98 L226.736 1225.6 L224.005 1222.8 L234.56 1212.22 L224.005 1201.6 L226.736 1198.8 L237.361 1209.42 L247.986 1198.8 L250.741 1201.6 Z" fill="#000000" fill-rule="nonzero" fill-opacity="1" /><path clip-path="url(#clip100)" d="M263.102 1223.12 L270.741 1223.12 L270.741 1196.76 L262.431 1198.43 L262.431 1194.17 L270.695 1192.5 L275.37 1192.5 L275.37 1223.12 L283.009 1223.12 L283.009 1227.06 L263.102 1227.06 L263.102 1223.12 Z" fill="#000000" fill-rule="nonzero" fill-opacity="1" /><path clip-path="url(#clip100)" d="M302.454 1195.58 Q298.843 1195.58 297.014 1199.14 Q295.208 1202.68 295.208 1209.81 Q295.208 1216.92 297.014 1220.49 Q298.843 1224.03 302.454 1224.03 Q306.088 1224.03 307.893 1220.49 Q309.722 1216.92 309.722 1209.81 Q309.722 1202.68 307.893 1199.14 Q306.088 1195.58 302.454 1195.58 M302.454 1191.87 Q308.264 1191.87 311.319 1196.48 Q314.398 1201.06 314.398 1209.81 Q314.398 1218.54 311.319 1223.15 Q308.264 1227.73 302.454 1227.73 Q296.643 1227.73 293.565 1223.15 Q290.509 1218.54 290.509 1209.81 Q290.509 1201.06 293.565 1196.48 Q296.643 1191.87 302.454 1191.87 Z" fill="#000000" fill-rule="nonzero" fill-opacity="1" /><path clip-path="url(#clip100)" d="M327.093 1184.51 Q329.82 1185.09 331.344 1186.93 Q332.886 1188.78 332.886 1191.49 Q332.886 1195.64 330.027 1197.92 Q327.168 1200.19 321.902 1200.19 Q320.134 1200.19 318.254 1199.84 Q316.392 1199.5 314.398 1198.8 L314.398 1195.13 Q315.978 1196.06 317.859 1196.53 Q319.739 1197 321.789 1197 Q325.363 1197 327.225 1195.59 Q329.106 1194.18 329.106 1191.49 Q329.106 1189 327.357 1187.61 Q325.626 1186.2 322.523 1186.2 L319.25 1186.2 L319.25 1183.08 L322.673 1183.08 Q325.476 1183.08 326.962 1181.97 Q328.447 1180.84 328.447 1178.73 Q328.447 1176.57 326.905 1175.42 Q325.382 1174.26 322.523 1174.26 Q320.962 1174.26 319.175 1174.6 Q317.388 1174.94 315.244 1175.65 L315.244 1172.26 Q317.407 1171.66 319.288 1171.36 Q321.188 1171.06 322.861 1171.06 Q327.187 1171.06 329.707 1173.04 Q332.228 1174.99 332.228 1178.34 Q332.228 1180.67 330.892 1182.29 Q329.557 1183.89 327.093 1184.51 Z" fill="#000000" fill-rule="nonzero" fill-opacity="1" /><path clip-path="url(#clip100)" d="M129.862 1011.08 L118.056 1029.52 L129.862 1029.52 L129.862 1011.08 M128.635 1007 L134.515 1007 L134.515 1029.52 L139.445 1029.52 L139.445 1033.41 L134.515 1033.41 L134.515 1041.56 L129.862 1041.56 L129.862 1033.41 L114.26 1033.41 L114.26 1028.9 L128.635 1007 Z" fill="#000000" fill-rule="nonzero" fill-opacity="1" /><path clip-path="url(#clip100)" d="M147.177 1035.68 L152.061 1035.68 L152.061 1041.56 L147.177 1041.56 L147.177 1035.68 Z" fill="#000000" fill-rule="nonzero" fill-opacity="1" /><path clip-path="url(#clip100)" d="M172.246 1010.08 Q168.635 1010.08 166.806 1013.64 Q165.001 1017.19 165.001 1024.32 Q165.001 1031.42 166.806 1034.99 Q168.635 1038.53 172.246 1038.53 Q175.88 1038.53 177.686 1034.99 Q179.514 1031.42 179.514 1024.32 Q179.514 1017.19 177.686 1013.64 Q175.88 1010.08 172.246 1010.08 M172.246 1006.38 Q178.056 1006.38 181.112 1010.98 Q184.19 1015.57 184.19 1024.32 Q184.19 1033.04 181.112 1037.65 Q178.056 1042.23 172.246 1042.23 Q166.436 1042.23 163.357 1037.65 Q160.302 1033.04 160.302 1024.32 Q160.302 1015.57 163.357 1010.98 Q166.436 1006.38 172.246 1006.38 Z" fill="#000000" fill-rule="nonzero" fill-opacity="1" /><path clip-path="url(#clip100)" d="M202.408 1010.08 Q198.797 1010.08 196.968 1013.64 Q195.163 1017.19 195.163 1024.32 Q195.163 1031.42 196.968 1034.99 Q198.797 1038.53 202.408 1038.53 Q206.042 1038.53 207.848 1034.99 Q209.676 1031.42 209.676 1024.32 Q209.676 1017.19 207.848 1013.64 Q206.042 1010.08 202.408 1010.08 M202.408 1006.38 Q208.218 1006.38 211.274 1010.98 Q214.352 1015.57 214.352 1024.32 Q214.352 1033.04 211.274 1037.65 Q208.218 1042.23 202.408 1042.23 Q196.598 1042.23 193.519 1037.65 Q190.463 1033.04 190.463 1024.32 Q190.463 1015.57 193.519 1010.98 Q196.598 1006.38 202.408 1006.38 Z" fill="#000000" fill-rule="nonzero" fill-opacity="1" /><path clip-path="url(#clip100)" d="M250.741 1016.1 L240.162 1026.72 L250.741 1037.3 L247.986 1040.1 L237.361 1029.48 L226.736 1040.1 L224.005 1037.3 L234.56 1026.72 L224.005 1016.1 L226.736 1013.3 L237.361 1023.92 L247.986 1013.3 L250.741 1016.1 Z" fill="#000000" fill-rule="nonzero" fill-opacity="1" /><path clip-path="url(#clip100)" d="M263.102 1037.63 L270.741 1037.63 L270.741 1011.26 L262.431 1012.93 L262.431 1008.67 L270.695 1007 L275.37 1007 L275.37 1037.63 L283.009 1037.63 L283.009 1041.56 L263.102 1041.56 L263.102 1037.63 Z" fill="#000000" fill-rule="nonzero" fill-opacity="1" /><path clip-path="url(#clip100)" d="M302.454 1010.08 Q298.843 1010.08 297.014 1013.64 Q295.208 1017.19 295.208 1024.32 Q295.208 1031.42 297.014 1034.99 Q298.843 1038.53 302.454 1038.53 Q306.088 1038.53 307.893 1034.99 Q309.722 1031.42 309.722 1024.32 Q309.722 1017.19 307.893 1013.64 Q306.088 1010.08 302.454 1010.08 M302.454 1006.38 Q308.264 1006.38 311.319 1010.98 Q314.398 1015.57 314.398 1024.32 Q314.398 1033.04 311.319 1037.65 Q308.264 1042.23 302.454 1042.23 Q296.643 1042.23 293.565 1037.65 Q290.509 1033.04 290.509 1024.32 Q290.509 1015.57 293.565 1010.98 Q296.643 1006.38 302.454 1006.38 Z" fill="#000000" fill-rule="nonzero" fill-opacity="1" /><path clip-path="url(#clip100)" d="M327.093 999.011 Q329.82 999.594 331.344 1001.44 Q332.886 1003.28 332.886 1005.99 Q332.886 1010.14 330.027 1012.42 Q327.168 1014.7 321.902 1014.7 Q320.134 1014.7 318.254 1014.34 Q316.392 1014 314.398 1013.3 L314.398 1009.64 Q315.978 1010.56 317.859 1011.03 Q319.739 1011.5 321.789 1011.5 Q325.363 1011.5 327.225 1010.09 Q329.106 1008.68 329.106 1005.99 Q329.106 1003.51 327.357 1002.11 Q325.626 1000.7 322.523 1000.7 L319.25 1000.7 L319.25 997.581 L322.673 997.581 Q325.476 997.581 326.962 996.472 Q328.447 995.343 328.447 993.237 Q328.447 991.074 326.905 989.926 Q325.382 988.76 322.523 988.76 Q320.962 988.76 319.175 989.099 Q317.388 989.437 315.244 990.152 L315.244 986.767 Q317.407 986.165 319.288 985.864 Q321.188 985.563 322.861 985.563 Q327.187 985.563 329.707 987.538 Q332.228 989.494 332.228 992.842 Q332.228 995.174 330.892 996.791 Q329.557 998.39 327.093 999.011 Z" fill="#000000" fill-rule="nonzero" fill-opacity="1" /><path clip-path="url(#clip100)" d="M127.593 836.92 Q124.445 836.92 122.593 839.073 Q120.765 841.225 120.765 844.975 Q120.765 848.702 122.593 850.878 Q124.445 853.031 127.593 853.031 Q130.742 853.031 132.57 850.878 Q134.422 848.702 134.422 844.975 Q134.422 841.225 132.57 839.073 Q130.742 836.92 127.593 836.92 M136.876 822.267 L136.876 826.526 Q135.117 825.693 133.311 825.253 Q131.529 824.814 129.769 824.814 Q125.14 824.814 122.686 827.939 Q120.255 831.064 119.908 837.383 Q121.274 835.369 123.334 834.304 Q125.394 833.216 127.871 833.216 Q133.08 833.216 136.089 836.388 Q139.121 839.536 139.121 844.975 Q139.121 850.3 135.973 853.517 Q132.825 856.735 127.593 856.735 Q121.598 856.735 118.427 852.151 Q115.256 847.545 115.256 838.818 Q115.256 830.624 119.144 825.763 Q123.033 820.878 129.584 820.878 Q131.343 820.878 133.126 821.226 Q134.931 821.573 136.876 822.267 Z" fill="#000000" fill-rule="nonzero" fill-opacity="1" /><path clip-path="url(#clip100)" d="M147.177 850.184 L152.061 850.184 L152.061 856.063 L147.177 856.063 L147.177 850.184 Z" fill="#000000" fill-rule="nonzero" fill-opacity="1" /><path clip-path="url(#clip100)" d="M172.246 824.582 Q168.635 824.582 166.806 828.147 Q165.001 831.689 165.001 838.818 Q165.001 845.925 166.806 849.489 Q168.635 853.031 172.246 853.031 Q175.88 853.031 177.686 849.489 Q179.514 845.925 179.514 838.818 Q179.514 831.689 177.686 828.147 Q175.88 824.582 172.246 824.582 M172.246 820.878 Q178.056 820.878 181.112 825.485 Q184.19 830.068 184.19 838.818 Q184.19 847.545 181.112 852.151 Q178.056 856.735 172.246 856.735 Q166.436 856.735 163.357 852.151 Q160.302 847.545 160.302 838.818 Q160.302 830.068 163.357 825.485 Q166.436 820.878 172.246 820.878 Z" fill="#000000" fill-rule="nonzero" fill-opacity="1" /><path clip-path="url(#clip100)" d="M202.408 824.582 Q198.797 824.582 196.968 828.147 Q195.163 831.689 195.163 838.818 Q195.163 845.925 196.968 849.489 Q198.797 853.031 202.408 853.031 Q206.042 853.031 207.848 849.489 Q209.676 845.925 209.676 838.818 Q209.676 831.689 207.848 828.147 Q206.042 824.582 202.408 824.582 M202.408 820.878 Q208.218 820.878 211.274 825.485 Q214.352 830.068 214.352 838.818 Q214.352 847.545 211.274 852.151 Q208.218 856.735 202.408 856.735 Q196.598 856.735 193.519 852.151 Q190.463 847.545 190.463 838.818 Q190.463 830.068 193.519 825.485 Q196.598 820.878 202.408 820.878 Z" fill="#000000" fill-rule="nonzero" fill-opacity="1" /><path clip-path="url(#clip100)" d="M250.741 830.601 L240.162 841.225 L250.741 851.804 L247.986 854.605 L237.361 843.98 L226.736 854.605 L224.005 851.804 L234.56 841.225 L224.005 830.601 L226.736 827.8 L237.361 838.425 L247.986 827.8 L250.741 830.601 Z" fill="#000000" fill-rule="nonzero" fill-opacity="1" /><path clip-path="url(#clip100)" d="M263.102 852.128 L270.741 852.128 L270.741 825.763 L262.431 827.429 L262.431 823.17 L270.695 821.503 L275.37 821.503 L275.37 852.128 L283.009 852.128 L283.009 856.063 L263.102 856.063 L263.102 852.128 Z" fill="#000000" fill-rule="nonzero" fill-opacity="1" /><path clip-path="url(#clip100)" d="M302.454 824.582 Q298.843 824.582 297.014 828.147 Q295.208 831.689 295.208 838.818 Q295.208 845.925 297.014 849.489 Q298.843 853.031 302.454 853.031 Q306.088 853.031 307.893 849.489 Q309.722 845.925 309.722 838.818 Q309.722 831.689 307.893 828.147 Q306.088 824.582 302.454 824.582 M302.454 820.878 Q308.264 820.878 311.319 825.485 Q314.398 830.068 314.398 838.818 Q314.398 847.545 311.319 852.151 Q308.264 856.735 302.454 856.735 Q296.643 856.735 293.565 852.151 Q290.509 847.545 290.509 838.818 Q290.509 830.068 293.565 825.485 Q296.643 820.878 302.454 820.878 Z" fill="#000000" fill-rule="nonzero" fill-opacity="1" /><path clip-path="url(#clip100)" d="M327.093 813.513 Q329.82 814.096 331.344 815.939 Q332.886 817.782 332.886 820.49 Q332.886 824.647 330.027 826.923 Q327.168 829.198 321.902 829.198 Q320.134 829.198 318.254 828.841 Q316.392 828.503 314.398 827.807 L314.398 824.139 Q315.978 825.061 317.859 825.531 Q319.739 826.001 321.789 826.001 Q325.363 826.001 327.225 824.59 Q329.106 823.18 329.106 820.49 Q329.106 818.008 327.357 816.616 Q325.626 815.205 322.523 815.205 L319.25 815.205 L319.25 812.083 L322.673 812.083 Q325.476 812.083 326.962 810.974 Q328.447 809.845 328.447 807.739 Q328.447 805.576 326.905 804.429 Q325.382 803.262 322.523 803.262 Q320.962 803.262 319.175 803.601 Q317.388 803.94 315.244 804.654 L315.244 801.269 Q317.407 800.667 319.288 800.366 Q321.188 800.065 322.861 800.065 Q327.187 800.065 329.707 802.04 Q332.228 803.996 332.228 807.344 Q332.228 809.676 330.892 811.293 Q329.557 812.892 327.093 813.513 Z" fill="#000000" fill-rule="nonzero" fill-opacity="1" /><path clip-path="url(#clip100)" d="M127.015 654.154 Q123.681 654.154 121.76 655.936 Q119.862 657.718 119.862 660.843 Q119.862 663.968 121.76 665.751 Q123.681 667.533 127.015 667.533 Q130.348 667.533 132.269 665.751 Q134.191 663.945 134.191 660.843 Q134.191 657.718 132.269 655.936 Q130.371 654.154 127.015 654.154 M122.339 652.163 Q119.33 651.422 117.64 649.362 Q115.973 647.302 115.973 644.339 Q115.973 640.195 118.913 637.788 Q121.876 635.38 127.015 635.38 Q132.177 635.38 135.117 637.788 Q138.056 640.195 138.056 644.339 Q138.056 647.302 136.367 649.362 Q134.7 651.422 131.714 652.163 Q135.093 652.95 136.968 655.241 Q138.867 657.533 138.867 660.843 Q138.867 665.866 135.788 668.552 Q132.732 671.237 127.015 671.237 Q121.297 671.237 118.218 668.552 Q115.163 665.866 115.163 660.843 Q115.163 657.533 117.061 655.241 Q118.959 652.95 122.339 652.163 M120.626 644.779 Q120.626 647.464 122.293 648.968 Q123.982 650.473 127.015 650.473 Q130.024 650.473 131.714 648.968 Q133.427 647.464 133.427 644.779 Q133.427 642.093 131.714 640.589 Q130.024 639.084 127.015 639.084 Q123.982 639.084 122.293 640.589 Q120.626 642.093 120.626 644.779 Z" fill="#000000" fill-rule="nonzero" fill-opacity="1" /><path clip-path="url(#clip100)" d="M147.177 664.686 L152.061 664.686 L152.061 670.565 L147.177 670.565 L147.177 664.686 Z" fill="#000000" fill-rule="nonzero" fill-opacity="1" /><path clip-path="url(#clip100)" d="M172.246 639.084 Q168.635 639.084 166.806 642.649 Q165.001 646.191 165.001 653.32 Q165.001 660.427 166.806 663.991 Q168.635 667.533 172.246 667.533 Q175.88 667.533 177.686 663.991 Q179.514 660.427 179.514 653.32 Q179.514 646.191 177.686 642.649 Q175.88 639.084 172.246 639.084 M172.246 635.38 Q178.056 635.38 181.112 639.987 Q184.19 644.57 184.19 653.32 Q184.19 662.047 181.112 666.653 Q178.056 671.237 172.246 671.237 Q166.436 671.237 163.357 666.653 Q160.302 662.047 160.302 653.32 Q160.302 644.57 163.357 639.987 Q166.436 635.38 172.246 635.38 Z" fill="#000000" fill-rule="nonzero" fill-opacity="1" /><path clip-path="url(#clip100)" d="M202.408 639.084 Q198.797 639.084 196.968 642.649 Q195.163 646.191 195.163 653.32 Q195.163 660.427 196.968 663.991 Q198.797 667.533 202.408 667.533 Q206.042 667.533 207.848 663.991 Q209.676 660.427 209.676 653.32 Q209.676 646.191 207.848 642.649 Q206.042 639.084 202.408 639.084 M202.408 635.38 Q208.218 635.38 211.274 639.987 Q214.352 644.57 214.352 653.32 Q214.352 662.047 211.274 666.653 Q208.218 671.237 202.408 671.237 Q196.598 671.237 193.519 666.653 Q190.463 662.047 190.463 653.32 Q190.463 644.57 193.519 639.987 Q196.598 635.38 202.408 635.38 Z" fill="#000000" fill-rule="nonzero" fill-opacity="1" /><path clip-path="url(#clip100)" d="M250.741 645.103 L240.162 655.728 L250.741 666.306 L247.986 669.107 L237.361 658.482 L226.736 669.107 L224.005 666.306 L234.56 655.728 L224.005 645.103 L226.736 642.302 L237.361 652.927 L247.986 642.302 L250.741 645.103 Z" fill="#000000" fill-rule="nonzero" fill-opacity="1" /><path clip-path="url(#clip100)" d="M263.102 666.63 L270.741 666.63 L270.741 640.265 L262.431 641.931 L262.431 637.672 L270.695 636.005 L275.37 636.005 L275.37 666.63 L283.009 666.63 L283.009 670.565 L263.102 670.565 L263.102 666.63 Z" fill="#000000" fill-rule="nonzero" fill-opacity="1" /><path clip-path="url(#clip100)" d="M302.454 639.084 Q298.843 639.084 297.014 642.649 Q295.208 646.191 295.208 653.32 Q295.208 660.427 297.014 663.991 Q298.843 667.533 302.454 667.533 Q306.088 667.533 307.893 663.991 Q309.722 660.427 309.722 653.32 Q309.722 646.191 307.893 642.649 Q306.088 639.084 302.454 639.084 M302.454 635.38 Q308.264 635.38 311.319 639.987 Q314.398 644.57 314.398 653.32 Q314.398 662.047 311.319 666.653 Q308.264 671.237 302.454 671.237 Q296.643 671.237 293.565 666.653 Q290.509 662.047 290.509 653.32 Q290.509 644.57 293.565 639.987 Q296.643 635.38 302.454 635.38 Z" fill="#000000" fill-rule="nonzero" fill-opacity="1" /><path clip-path="url(#clip100)" d="M327.093 628.015 Q329.82 628.598 331.344 630.441 Q332.886 632.284 332.886 634.993 Q332.886 639.149 330.027 641.425 Q327.168 643.7 321.902 643.7 Q320.134 643.7 318.254 643.343 Q316.392 643.005 314.398 642.309 L314.398 638.641 Q315.978 639.563 317.859 640.033 Q319.739 640.503 321.789 640.503 Q325.363 640.503 327.225 639.093 Q329.106 637.682 329.106 634.993 Q329.106 632.51 327.357 631.118 Q325.626 629.708 322.523 629.708 L319.25 629.708 L319.25 626.585 L322.673 626.585 Q325.476 626.585 326.962 625.476 Q328.447 624.347 328.447 622.241 Q328.447 620.078 326.905 618.931 Q325.382 617.765 322.523 617.765 Q320.962 617.765 319.175 618.103 Q317.388 618.442 315.244 619.156 L315.244 615.771 Q317.407 615.169 319.288 614.868 Q321.188 614.567 322.861 614.567 Q327.187 614.567 329.707 616.542 Q332.228 618.498 332.228 621.846 Q332.228 624.178 330.892 625.796 Q329.557 627.394 327.093 628.015 Z" fill="#000000" fill-rule="nonzero" fill-opacity="1" /><path clip-path="url(#clip100)" d="M115.85 481.132 L123.489 481.132 L123.489 454.767 L115.179 456.433 L115.179 452.174 L123.443 450.508 L128.119 450.508 L128.119 481.132 L135.757 481.132 L135.757 485.068 L115.85 485.068 L115.85 481.132 Z" fill="#000000" fill-rule="nonzero" fill-opacity="1" /><path clip-path="url(#clip100)" d="M145.202 479.188 L150.086 479.188 L150.086 485.068 L145.202 485.068 L145.202 479.188 Z" fill="#000000" fill-rule="nonzero" fill-opacity="1" /><path clip-path="url(#clip100)" d="M170.271 453.586 Q166.66 453.586 164.831 457.151 Q163.026 460.693 163.026 467.822 Q163.026 474.929 164.831 478.494 Q166.66 482.035 170.271 482.035 Q173.905 482.035 175.711 478.494 Q177.54 474.929 177.54 467.822 Q177.54 460.693 175.711 457.151 Q173.905 453.586 170.271 453.586 M170.271 449.883 Q176.081 449.883 179.137 454.489 Q182.216 459.072 182.216 467.822 Q182.216 476.549 179.137 481.156 Q176.081 485.739 170.271 485.739 Q164.461 485.739 161.382 481.156 Q158.327 476.549 158.327 467.822 Q158.327 459.072 161.382 454.489 Q164.461 449.883 170.271 449.883 Z" fill="#000000" fill-rule="nonzero" fill-opacity="1" /><path clip-path="url(#clip100)" d="M200.433 453.586 Q196.822 453.586 194.993 457.151 Q193.188 460.693 193.188 467.822 Q193.188 474.929 194.993 478.494 Q196.822 482.035 200.433 482.035 Q204.067 482.035 205.873 478.494 Q207.701 474.929 207.701 467.822 Q207.701 460.693 205.873 457.151 Q204.067 453.586 200.433 453.586 M200.433 449.883 Q206.243 449.883 209.299 454.489 Q212.377 459.072 212.377 467.822 Q212.377 476.549 209.299 481.156 Q206.243 485.739 200.433 485.739 Q194.623 485.739 191.544 481.156 Q188.489 476.549 188.489 467.822 Q188.489 459.072 191.544 454.489 Q194.623 449.883 200.433 449.883 Z" fill="#000000" fill-rule="nonzero" fill-opacity="1" /><path clip-path="url(#clip100)" d="M248.766 459.605 L238.187 470.23 L248.766 480.808 L246.011 483.609 L235.387 472.984 L224.762 483.609 L222.03 480.808 L232.586 470.23 L222.03 459.605 L224.762 456.804 L235.387 467.429 L246.011 456.804 L248.766 459.605 Z" fill="#000000" fill-rule="nonzero" fill-opacity="1" /><path clip-path="url(#clip100)" d="M261.127 481.132 L268.766 481.132 L268.766 454.767 L260.456 456.433 L260.456 452.174 L268.72 450.508 L273.396 450.508 L273.396 481.132 L281.034 481.132 L281.034 485.068 L261.127 485.068 L261.127 481.132 Z" fill="#000000" fill-rule="nonzero" fill-opacity="1" /><path clip-path="url(#clip100)" d="M300.479 453.586 Q296.868 453.586 295.039 457.151 Q293.233 460.693 293.233 467.822 Q293.233 474.929 295.039 478.494 Q296.868 482.035 300.479 482.035 Q304.113 482.035 305.919 478.494 Q307.747 474.929 307.747 467.822 Q307.747 460.693 305.919 457.151 Q304.113 453.586 300.479 453.586 M300.479 449.883 Q306.289 449.883 309.344 454.489 Q312.423 459.072 312.423 467.822 Q312.423 476.549 309.344 481.156 Q306.289 485.739 300.479 485.739 Q294.669 485.739 291.59 481.156 Q288.534 476.549 288.534 467.822 Q288.534 459.072 291.59 454.489 Q294.669 449.883 300.479 449.883 Z" fill="#000000" fill-rule="nonzero" fill-opacity="1" /><path clip-path="url(#clip100)" d="M325.1 432.887 L315.508 447.877 L325.1 447.877 L325.1 432.887 M324.103 429.577 L328.88 429.577 L328.88 447.877 L332.886 447.877 L332.886 451.037 L328.88 451.037 L328.88 457.657 L325.1 457.657 L325.1 451.037 L312.423 451.037 L312.423 447.369 L324.103 429.577 Z" fill="#000000" fill-rule="nonzero" fill-opacity="1" /><path clip-path="url(#clip100)" d="M115.85 295.635 L123.489 295.635 L123.489 269.269 L115.179 270.936 L115.179 266.676 L123.443 265.01 L128.119 265.01 L128.119 295.635 L135.757 295.635 L135.757 299.57 L115.85 299.57 L115.85 295.635 Z" fill="#000000" fill-rule="nonzero" fill-opacity="1" /><path clip-path="url(#clip100)" d="M145.202 293.69 L150.086 293.69 L150.086 299.57 L145.202 299.57 L145.202 293.69 Z" fill="#000000" fill-rule="nonzero" fill-opacity="1" /><path clip-path="url(#clip100)" d="M164.299 295.635 L180.618 295.635 L180.618 299.57 L158.674 299.57 L158.674 295.635 Q161.336 292.88 165.919 288.25 Q170.526 283.598 171.706 282.255 Q173.952 279.732 174.831 277.996 Q175.734 276.236 175.734 274.547 Q175.734 271.792 173.79 270.056 Q171.868 268.32 168.767 268.32 Q166.567 268.32 164.114 269.084 Q161.683 269.848 158.905 271.399 L158.905 266.676 Q161.73 265.542 164.183 264.963 Q166.637 264.385 168.674 264.385 Q174.044 264.385 177.239 267.07 Q180.433 269.755 180.433 274.246 Q180.433 276.375 179.623 278.297 Q178.836 280.195 176.729 282.787 Q176.151 283.459 173.049 286.676 Q169.947 289.871 164.299 295.635 Z" fill="#000000" fill-rule="nonzero" fill-opacity="1" /><path clip-path="url(#clip100)" d="M200.433 268.088 Q196.822 268.088 194.993 271.653 Q193.188 275.195 193.188 282.324 Q193.188 289.431 194.993 292.996 Q196.822 296.537 200.433 296.537 Q204.067 296.537 205.873 292.996 Q207.701 289.431 207.701 282.324 Q207.701 275.195 205.873 271.653 Q204.067 268.088 200.433 268.088 M200.433 264.385 Q206.243 264.385 209.299 268.991 Q212.377 273.574 212.377 282.324 Q212.377 291.051 209.299 295.658 Q206.243 300.241 200.433 300.241 Q194.623 300.241 191.544 295.658 Q188.489 291.051 188.489 282.324 Q188.489 273.574 191.544 268.991 Q194.623 264.385 200.433 264.385 Z" fill="#000000" fill-rule="nonzero" fill-opacity="1" /><path clip-path="url(#clip100)" d="M248.766 274.107 L238.187 284.732 L248.766 295.31 L246.011 298.111 L235.387 287.486 L224.762 298.111 L222.03 295.31 L232.586 284.732 L222.03 274.107 L224.762 271.306 L235.387 281.931 L246.011 271.306 L248.766 274.107 Z" fill="#000000" fill-rule="nonzero" fill-opacity="1" /><path clip-path="url(#clip100)" d="M261.127 295.635 L268.766 295.635 L268.766 269.269 L260.456 270.936 L260.456 266.676 L268.72 265.01 L273.396 265.01 L273.396 295.635 L281.034 295.635 L281.034 299.57 L261.127 299.57 L261.127 295.635 Z" fill="#000000" fill-rule="nonzero" fill-opacity="1" /><path clip-path="url(#clip100)" d="M300.479 268.088 Q296.868 268.088 295.039 271.653 Q293.233 275.195 293.233 282.324 Q293.233 289.431 295.039 292.996 Q296.868 296.537 300.479 296.537 Q304.113 296.537 305.919 292.996 Q307.747 289.431 307.747 282.324 Q307.747 275.195 305.919 271.653 Q304.113 268.088 300.479 268.088 M300.479 264.385 Q306.289 264.385 309.344 268.991 Q312.423 273.574 312.423 282.324 Q312.423 291.051 309.344 295.658 Q306.289 300.241 300.479 300.241 Q294.669 300.241 291.59 295.658 Q288.534 291.051 288.534 282.324 Q288.534 273.574 291.59 268.991 Q294.669 264.385 300.479 264.385 Z" fill="#000000" fill-rule="nonzero" fill-opacity="1" /><path clip-path="url(#clip100)" d="M325.1 247.389 L315.508 262.379 L325.1 262.379 L325.1 247.389 M324.103 244.079 L328.88 244.079 L328.88 262.379 L332.886 262.379 L332.886 265.539 L328.88 265.539 L328.88 272.159 L325.1 272.159 L325.1 265.539 L312.423 265.539 L312.423 261.871 L324.103 244.079 Z" fill="#000000" fill-rule="nonzero" fill-opacity="1" /><path clip-path="url(#clip100)" d="M16.4842 923.811 L16.4842 883.612 L21.895 883.612 L21.895 900.481 L64.0042 900.481 L64.0042 906.942 L21.895 906.942 L21.895 923.811 L16.4842 923.811 Z" fill="#000000" fill-rule="nonzero" fill-opacity="1" /><path clip-path="url(#clip100)" d="M28.3562 879.665 L28.3562 873.809 L64.0042 873.809 L64.0042 879.665 L28.3562 879.665 M14.479 879.665 L14.479 873.809 L21.895 873.809 L21.895 879.665 L14.479 879.665 Z" fill="#000000" fill-rule="nonzero" fill-opacity="1" /><path clip-path="url(#clip100)" d="M35.1993 833.8 Q31.2526 831.604 29.3747 828.548 Q27.4968 825.493 27.4968 821.355 Q27.4968 815.785 31.4117 812.762 Q35.2948 809.738 42.4881 809.738 L64.0042 809.738 L64.0042 815.626 L42.679 815.626 Q37.5546 815.626 35.072 817.44 Q32.5894 819.255 32.5894 822.978 Q32.5894 827.53 35.6131 830.172 Q38.6368 832.814 43.8567 832.814 L64.0042 832.814 L64.0042 838.702 L42.679 838.702 Q37.5228 838.702 35.072 840.516 Q32.5894 842.33 32.5894 846.118 Q32.5894 850.606 35.6449 853.247 Q38.6686 855.889 43.8567 855.889 L64.0042 855.889 L64.0042 861.777 L28.3562 861.777 L28.3562 855.889 L33.8944 855.889 Q30.616 853.884 29.0564 851.083 Q27.4968 848.282 27.4968 844.431 Q27.4968 840.548 29.4702 837.842 Q31.4436 835.105 35.1993 833.8 Z" fill="#000000" fill-rule="nonzero" fill-opacity="1" /><path clip-path="url(#clip100)" d="M44.7161 767.565 L47.5806 767.565 L47.5806 794.492 Q53.6281 794.11 56.8109 790.864 Q59.9619 787.585 59.9619 781.761 Q59.9619 778.387 59.1344 775.236 Q58.3069 772.053 56.6518 768.934 L62.1899 768.934 Q63.5267 772.085 64.227 775.395 Q64.9272 778.705 64.9272 782.111 Q64.9272 790.641 59.9619 795.638 Q54.9967 800.603 46.5303 800.603 Q37.7774 800.603 32.6531 795.892 Q27.4968 791.15 27.4968 783.129 Q27.4968 775.936 32.1438 771.766 Q36.7589 767.565 44.7161 767.565 M42.9973 773.421 Q38.1912 773.485 35.3266 776.127 Q32.4621 778.737 32.4621 783.066 Q32.4621 787.967 35.2312 790.927 Q38.0002 793.855 43.0292 794.301 L42.9973 773.421 Z" fill="#000000" fill-rule="nonzero" fill-opacity="1" /><path clip-path="url(#clip100)" d="M14.5426 723.164 Q21.8632 727.429 29.0246 729.498 Q36.186 731.567 43.5384 731.567 Q50.8908 731.567 58.1159 729.498 Q65.3091 727.397 72.5979 723.164 L72.5979 728.257 Q65.1182 733.031 57.8931 735.418 Q50.668 737.774 43.5384 737.774 Q36.4406 737.774 29.2474 735.418 Q22.0542 733.063 14.5426 728.257 L14.5426 723.164 Z" fill="#000000" fill-rule="nonzero" fill-opacity="1" /><path clip-path="url(#clip100)" d="M42.4881 682.169 L64.0042 682.169 L64.0042 688.026 L42.679 688.026 Q37.6183 688.026 35.1038 689.999 Q32.5894 691.972 32.5894 695.919 Q32.5894 700.661 35.6131 703.399 Q38.6368 706.136 43.8567 706.136 L64.0042 706.136 L64.0042 712.024 L28.3562 712.024 L28.3562 706.136 L33.8944 706.136 Q30.6797 704.035 29.0883 701.203 Q27.4968 698.338 27.4968 694.614 Q27.4968 688.471 31.3163 685.32 Q35.1038 682.169 42.4881 682.169 Z" fill="#000000" fill-rule="nonzero" fill-opacity="1" /><path clip-path="url(#clip100)" d="M29.4065 647.762 L34.9447 647.762 Q33.6716 650.245 33.035 652.919 Q32.3984 655.592 32.3984 658.457 Q32.3984 662.817 33.7352 665.013 Q35.072 667.178 37.7456 667.178 Q39.7826 667.178 40.9603 665.618 Q42.1061 664.059 43.1565 659.348 L43.6021 657.343 Q44.9389 651.104 47.3897 648.494 Q49.8086 645.853 54.1691 645.853 Q59.1344 645.853 62.0308 649.799 Q64.9272 653.714 64.9272 660.589 Q64.9272 663.454 64.3543 666.573 Q63.8132 669.66 62.6992 673.098 L56.6518 673.098 Q58.3387 669.851 59.198 666.7 Q60.0256 663.549 60.0256 660.462 Q60.0256 656.324 58.6251 654.096 Q57.1929 651.868 54.6147 651.868 Q52.2276 651.868 50.9545 653.492 Q49.6813 655.083 48.5037 660.526 L48.0262 662.563 Q46.8804 668.005 44.5251 670.424 Q42.138 672.843 38.0002 672.843 Q32.9713 672.843 30.2341 669.279 Q27.4968 665.714 27.4968 659.157 Q27.4968 655.911 27.9743 653.046 Q28.4517 650.181 29.4065 647.762 Z" fill="#000000" fill-rule="nonzero" fill-opacity="1" /><path clip-path="url(#clip100)" d="M14.5426 637.45 L14.5426 632.357 Q22.0542 627.583 29.2474 625.228 Q36.4406 622.841 43.5384 622.841 Q50.668 622.841 57.8931 625.228 Q65.1182 627.583 72.5979 632.357 L72.5979 637.45 Q65.3091 633.217 58.1159 631.148 Q50.8908 629.047 43.5384 629.047 Q36.186 629.047 29.0246 631.148 Q21.8632 633.217 14.5426 637.45 Z" fill="#000000" fill-rule="nonzero" fill-opacity="1" /><path clip-path="url(#clip100)" d="M768.275 12.096 L819.438 12.096 L819.438 18.9825 L797.968 18.9825 L797.968 72.576 L789.745 72.576 L789.745 18.9825 L768.275 18.9825 L768.275 12.096 Z" fill="#000000" fill-rule="nonzero" fill-opacity="1" /><path clip-path="url(#clip100)" d="M824.461 27.2059 L831.915 27.2059 L831.915 72.576 L824.461 72.576 L824.461 27.2059 M824.461 9.54393 L831.915 9.54393 L831.915 18.9825 L824.461 18.9825 L824.461 9.54393 Z" fill="#000000" fill-rule="nonzero" fill-opacity="1" /><path clip-path="url(#clip100)" d="M882.835 35.9153 Q885.63 30.8922 889.519 28.5022 Q893.407 26.1121 898.674 26.1121 Q905.763 26.1121 909.611 31.0947 Q913.459 36.0368 913.459 45.1919 L913.459 72.576 L905.965 72.576 L905.965 45.4349 Q905.965 38.913 903.656 35.7533 Q901.347 32.5936 896.608 32.5936 Q890.815 32.5936 887.453 36.4419 Q884.09 40.2903 884.09 46.9338 L884.09 72.576 L876.596 72.576 L876.596 45.4349 Q876.596 38.8725 874.287 35.7533 Q871.978 32.5936 867.158 32.5936 Q861.446 32.5936 858.083 36.4824 Q854.721 40.3308 854.721 46.9338 L854.721 72.576 L847.227 72.576 L847.227 27.2059 L854.721 27.2059 L854.721 34.2544 Q857.273 30.082 860.838 28.0971 Q864.403 26.1121 869.304 26.1121 Q874.247 26.1121 877.69 28.6237 Q881.174 31.1352 882.835 35.9153 Z" fill="#000000" fill-rule="nonzero" fill-opacity="1" /><path clip-path="url(#clip100)" d="M967.134 48.0275 L967.134 51.6733 L932.863 51.6733 Q933.349 59.3701 937.481 63.421 Q941.654 67.4314 949.067 67.4314 Q953.361 67.4314 957.371 66.3781 Q961.422 65.3249 965.392 63.2184 L965.392 70.267 Q961.382 71.9684 957.169 72.8596 Q952.956 73.7508 948.621 73.7508 Q937.765 73.7508 931.405 67.4314 Q925.085 61.1119 925.085 50.3365 Q925.085 39.1965 931.081 32.6746 Q937.117 26.1121 947.325 26.1121 Q956.48 26.1121 961.787 32.0264 Q967.134 37.9003 967.134 48.0275 M959.68 45.84 Q959.599 39.7232 956.237 36.0774 Q952.915 32.4315 947.406 32.4315 Q941.168 32.4315 937.4 35.9558 Q933.673 39.4801 933.106 45.8805 L959.68 45.84 Z" fill="#000000" fill-rule="nonzero" fill-opacity="1" /><path clip-path="url(#clip100)" d="M1013.11 14.324 L1013.11 27.2059 L1028.46 27.2059 L1028.46 32.9987 L1013.11 32.9987 L1013.11 57.6282 Q1013.11 63.1779 1014.61 64.7578 Q1016.15 66.3376 1020.81 66.3376 L1028.46 66.3376 L1028.46 72.576 L1020.81 72.576 Q1012.18 72.576 1008.9 69.3758 Q1005.62 66.1351 1005.62 57.6282 L1005.62 32.9987 L1000.15 32.9987 L1000.15 27.2059 L1005.62 27.2059 L1005.62 14.324 L1013.11 14.324 Z" fill="#000000" fill-rule="nonzero" fill-opacity="1" /><path clip-path="url(#clip100)" d="M1055.85 32.4315 Q1049.85 32.4315 1046.37 37.1306 Q1042.89 41.7891 1042.89 49.9314 Q1042.89 58.0738 1046.33 62.7728 Q1049.81 67.4314 1055.85 67.4314 Q1061.8 67.4314 1065.29 62.7323 Q1068.77 58.0333 1068.77 49.9314 Q1068.77 41.8701 1065.29 37.1711 Q1061.8 32.4315 1055.85 32.4315 M1055.85 26.1121 Q1065.57 26.1121 1071.12 32.4315 Q1076.67 38.7509 1076.67 49.9314 Q1076.67 61.0714 1071.12 67.4314 Q1065.57 73.7508 1055.85 73.7508 Q1046.09 73.7508 1040.54 67.4314 Q1035.03 61.0714 1035.03 49.9314 Q1035.03 38.7509 1040.54 32.4315 Q1046.09 26.1121 1055.85 26.1121 Z" fill="#000000" fill-rule="nonzero" fill-opacity="1" /><path clip-path="url(#clip100)" d="M1148.05 28.9478 L1148.05 35.9153 Q1144.89 34.1734 1141.69 33.3227 Q1138.53 32.4315 1135.29 32.4315 Q1128.04 32.4315 1124.03 37.0496 Q1120.01 41.6271 1120.01 49.9314 Q1120.01 58.2358 1124.03 62.8538 Q1128.04 67.4314 1135.29 67.4314 Q1138.53 67.4314 1141.69 66.5807 Q1144.89 65.6895 1148.05 63.9476 L1148.05 70.8341 Q1144.93 72.2924 1141.57 73.0216 Q1138.24 73.7508 1134.48 73.7508 Q1124.23 73.7508 1118.19 67.3098 Q1112.16 60.8689 1112.16 49.9314 Q1112.16 38.832 1118.23 32.472 Q1124.35 26.1121 1134.96 26.1121 Q1138.41 26.1121 1141.69 26.8413 Q1144.97 27.5299 1148.05 28.9478 Z" fill="#000000" fill-rule="nonzero" fill-opacity="1" /><path clip-path="url(#clip100)" d="M1178.59 32.4315 Q1172.6 32.4315 1169.11 37.1306 Q1165.63 41.7891 1165.63 49.9314 Q1165.63 58.0738 1169.07 62.7728 Q1172.56 67.4314 1178.59 67.4314 Q1184.55 67.4314 1188.03 62.7323 Q1191.51 58.0333 1191.51 49.9314 Q1191.51 41.8701 1188.03 37.1711 Q1184.55 32.4315 1178.59 32.4315 M1178.59 26.1121 Q1188.31 26.1121 1193.86 32.4315 Q1199.41 38.7509 1199.41 49.9314 Q1199.41 61.0714 1193.86 67.4314 Q1188.31 73.7508 1178.59 73.7508 Q1168.83 73.7508 1163.28 67.4314 Q1157.77 61.0714 1157.77 49.9314 Q1157.77 38.7509 1163.28 32.4315 Q1168.83 26.1121 1178.59 26.1121 Z" fill="#000000" fill-rule="nonzero" fill-opacity="1" /><path clip-path="url(#clip100)" d="M1247.09 35.9153 Q1249.89 30.8922 1253.78 28.5022 Q1257.66 26.1121 1262.93 26.1121 Q1270.02 26.1121 1273.87 31.0947 Q1277.72 36.0368 1277.72 45.1919 L1277.72 72.576 L1270.22 72.576 L1270.22 45.4349 Q1270.22 38.913 1267.91 35.7533 Q1265.6 32.5936 1260.86 32.5936 Q1255.07 32.5936 1251.71 36.4419 Q1248.35 40.2903 1248.35 46.9338 L1248.35 72.576 L1240.85 72.576 L1240.85 45.4349 Q1240.85 38.8725 1238.54 35.7533 Q1236.24 32.5936 1231.41 32.5936 Q1225.7 32.5936 1222.34 36.4824 Q1218.98 40.3308 1218.98 46.9338 L1218.98 72.576 L1211.48 72.576 L1211.48 27.2059 L1218.98 27.2059 L1218.98 34.2544 Q1221.53 30.082 1225.1 28.0971 Q1228.66 26.1121 1233.56 26.1121 Q1238.5 26.1121 1241.95 28.6237 Q1245.43 31.1352 1247.09 35.9153 Z" fill="#000000" fill-rule="nonzero" fill-opacity="1" /><path clip-path="url(#clip100)" d="M1299.79 65.7705 L1299.79 89.8329 L1292.3 89.8329 L1292.3 27.2059 L1299.79 27.2059 L1299.79 34.0924 Q1302.14 30.0415 1305.71 28.0971 Q1309.31 26.1121 1314.3 26.1121 Q1322.56 26.1121 1327.7 32.6746 Q1332.89 39.2371 1332.89 49.9314 Q1332.89 60.6258 1327.7 67.1883 Q1322.56 73.7508 1314.3 73.7508 Q1309.31 73.7508 1305.71 71.8063 Q1302.14 69.8214 1299.79 65.7705 M1325.15 49.9314 Q1325.15 41.7081 1321.75 37.0496 Q1318.39 32.3505 1312.47 32.3505 Q1306.56 32.3505 1303.16 37.0496 Q1299.79 41.7081 1299.79 49.9314 Q1299.79 58.1548 1303.16 62.8538 Q1306.56 67.5124 1312.47 67.5124 Q1318.39 67.5124 1321.75 62.8538 Q1325.15 58.1548 1325.15 49.9314 Z" fill="#000000" fill-rule="nonzero" fill-opacity="1" /><path clip-path="url(#clip100)" d="M1344.48 54.671 L1344.48 27.2059 L1351.93 27.2059 L1351.93 54.3874 Q1351.93 60.8284 1354.44 64.0691 Q1356.95 67.2693 1361.98 67.2693 Q1368.01 67.2693 1371.5 63.421 Q1375.02 59.5726 1375.02 52.9291 L1375.02 27.2059 L1382.47 27.2059 L1382.47 72.576 L1375.02 72.576 L1375.02 65.6084 Q1372.31 69.7404 1368.7 71.7658 Q1365.14 73.7508 1360.4 73.7508 Q1352.58 73.7508 1348.53 68.8897 Q1344.48 64.0286 1344.48 54.671 M1363.23 26.1121 L1363.23 26.1121 Z" fill="#000000" fill-rule="nonzero" fill-opacity="1" /><path clip-path="url(#clip100)" d="M1405.2 14.324 L1405.2 27.2059 L1420.55 27.2059 L1420.55 32.9987 L1405.2 32.9987 L1405.2 57.6282 Q1405.2 63.1779 1406.7 64.7578 Q1408.24 66.3376 1412.9 66.3376 L1420.55 66.3376 L1420.55 72.576 L1412.9 72.576 Q1404.27 72.576 1400.99 69.3758 Q1397.7 66.1351 1397.7 57.6282 L1397.7 32.9987 L1392.24 32.9987 L1392.24 27.2059 L1397.7 27.2059 L1397.7 14.324 L1405.2 14.324 Z" fill="#000000" fill-rule="nonzero" fill-opacity="1" /><path clip-path="url(#clip100)" d="M1469.16 48.0275 L1469.16 51.6733 L1434.89 51.6733 Q1435.38 59.3701 1439.51 63.421 Q1443.68 67.4314 1451.1 67.4314 Q1455.39 67.4314 1459.4 66.3781 Q1463.45 65.3249 1467.42 63.2184 L1467.42 70.267 Q1463.41 71.9684 1459.2 72.8596 Q1454.98 73.7508 1450.65 73.7508 Q1439.79 73.7508 1433.43 67.4314 Q1427.11 61.1119 1427.11 50.3365 Q1427.11 39.1965 1433.11 32.6746 Q1439.15 26.1121 1449.35 26.1121 Q1458.51 26.1121 1463.82 32.0264 Q1469.16 37.9003 1469.16 48.0275 M1461.71 45.84 Q1461.63 39.7232 1458.27 36.0774 Q1454.94 32.4315 1449.43 32.4315 Q1443.2 32.4315 1439.43 35.9558 Q1435.7 39.4801 1435.13 45.8805 L1461.71 45.84 Z" fill="#000000" fill-rule="nonzero" fill-opacity="1" /><path clip-path="url(#clip100)" d="M1528.31 20.1573 L1517.21 50.2555 L1539.45 50.2555 L1528.31 20.1573 M1523.69 12.096 L1532.96 12.096 L1556.01 72.576 L1547.51 72.576 L1542 57.061 L1514.74 57.061 L1509.23 72.576 L1500.6 72.576 L1523.69 12.096 Z" fill="#000000" fill-rule="nonzero" fill-opacity="1" /><path clip-path="url(#clip100)" d="M1595.71 28.9478 L1595.71 35.9153 Q1592.55 34.1734 1589.35 33.3227 Q1586.19 32.4315 1582.95 32.4315 Q1575.7 32.4315 1571.69 37.0496 Q1567.68 41.6271 1567.68 49.9314 Q1567.68 58.2358 1571.69 62.8538 Q1575.7 67.4314 1582.95 67.4314 Q1586.19 67.4314 1589.35 66.5807 Q1592.55 65.6895 1595.71 63.9476 L1595.71 70.8341 Q1592.59 72.2924 1589.23 73.0216 Q1585.91 73.7508 1582.14 73.7508 Q1571.89 73.7508 1565.86 67.3098 Q1559.82 60.8689 1559.82 49.9314 Q1559.82 38.832 1565.9 32.472 Q1572.01 26.1121 1582.63 26.1121 Q1586.07 26.1121 1589.35 26.8413 Q1592.63 27.5299 1595.71 28.9478 Z" fill="#000000" fill-rule="nonzero" fill-opacity="1" /><path clip-path="url(#clip100)" d="M1641.33 28.9478 L1641.33 35.9153 Q1638.17 34.1734 1634.97 33.3227 Q1631.81 32.4315 1628.57 32.4315 Q1621.31 32.4315 1617.3 37.0496 Q1613.29 41.6271 1613.29 49.9314 Q1613.29 58.2358 1617.3 62.8538 Q1621.31 67.4314 1628.57 67.4314 Q1631.81 67.4314 1634.97 66.5807 Q1638.17 65.6895 1641.33 63.9476 L1641.33 70.8341 Q1638.21 72.2924 1634.84 73.0216 Q1631.52 73.7508 1627.76 73.7508 Q1617.51 73.7508 1611.47 67.3098 Q1605.43 60.8689 1605.43 49.9314 Q1605.43 38.832 1611.51 32.472 Q1617.63 26.1121 1628.24 26.1121 Q1631.68 26.1121 1634.97 26.8413 Q1638.25 27.5299 1641.33 28.9478 Z" fill="#000000" fill-rule="nonzero" fill-opacity="1" /><path clip-path="url(#clip100)" d="M1693.1 48.0275 L1693.1 51.6733 L1658.83 51.6733 Q1659.31 59.3701 1663.44 63.421 Q1667.62 67.4314 1675.03 67.4314 Q1679.32 67.4314 1683.33 66.3781 Q1687.38 65.3249 1691.35 63.2184 L1691.35 70.267 Q1687.34 71.9684 1683.13 72.8596 Q1678.92 73.7508 1674.58 73.7508 Q1663.73 73.7508 1657.37 67.4314 Q1651.05 61.1119 1651.05 50.3365 Q1651.05 39.1965 1657.04 32.6746 Q1663.08 26.1121 1673.29 26.1121 Q1682.44 26.1121 1687.75 32.0264 Q1693.1 37.9003 1693.1 48.0275 M1685.64 45.84 Q1685.56 39.7232 1682.2 36.0774 Q1678.88 32.4315 1673.37 32.4315 Q1667.13 32.4315 1663.36 35.9558 Q1659.64 39.4801 1659.07 45.8805 L1685.64 45.84 Z" fill="#000000" fill-rule="nonzero" fill-opacity="1" /><path clip-path="url(#clip100)" d="M1734.25 28.5427 L1734.25 35.5912 Q1731.09 33.9709 1727.69 33.1607 Q1724.29 32.3505 1720.64 32.3505 Q1715.09 32.3505 1712.3 34.0519 Q1709.54 35.7533 1709.54 39.156 Q1709.54 41.7486 1711.53 43.2475 Q1713.51 44.7058 1719.51 46.0426 L1722.06 46.6097 Q1730 48.3111 1733.32 51.4303 Q1736.68 54.509 1736.68 60.0587 Q1736.68 66.3781 1731.66 70.0644 Q1726.68 73.7508 1717.93 73.7508 Q1714.28 73.7508 1710.31 73.0216 Q1706.38 72.3329 1702.01 70.9151 L1702.01 63.2184 Q1706.14 65.3654 1710.15 66.4591 Q1714.16 67.5124 1718.09 67.5124 Q1723.36 67.5124 1726.19 65.73 Q1729.03 63.9071 1729.03 60.6258 Q1729.03 57.5877 1726.96 55.9673 Q1724.94 54.3469 1718.01 52.8481 L1715.42 52.2405 Q1708.49 50.7821 1705.41 47.7845 Q1702.33 44.7463 1702.33 39.4801 Q1702.33 33.0797 1706.87 29.5959 Q1711.41 26.1121 1719.75 26.1121 Q1723.88 26.1121 1727.53 26.7198 Q1731.17 27.3274 1734.25 28.5427 Z" fill="#000000" fill-rule="nonzero" fill-opacity="1" /><path clip-path="url(#clip100)" d="M1777.48 28.5427 L1777.48 35.5912 Q1774.32 33.9709 1770.91 33.1607 Q1767.51 32.3505 1763.87 32.3505 Q1758.32 32.3505 1755.52 34.0519 Q1752.77 35.7533 1752.77 39.156 Q1752.77 41.7486 1754.75 43.2475 Q1756.74 44.7058 1762.73 46.0426 L1765.28 46.6097 Q1773.22 48.3111 1776.55 51.4303 Q1779.91 54.509 1779.91 60.0587 Q1779.91 66.3781 1774.88 70.0644 Q1769.9 73.7508 1761.15 73.7508 Q1757.51 73.7508 1753.54 73.0216 Q1749.61 72.3329 1745.23 70.9151 L1745.23 63.2184 Q1749.36 65.3654 1753.37 66.4591 Q1757.38 67.5124 1761.31 67.5124 Q1766.58 67.5124 1769.42 65.73 Q1772.25 63.9071 1772.25 60.6258 Q1772.25 57.5877 1770.19 55.9673 Q1768.16 54.3469 1761.23 52.8481 L1758.64 52.2405 Q1751.71 50.7821 1748.63 47.7845 Q1745.56 44.7463 1745.56 39.4801 Q1745.56 33.0797 1750.09 29.5959 Q1754.63 26.1121 1762.97 26.1121 Q1767.11 26.1121 1770.75 26.7198 Q1774.4 27.3274 1777.48 28.5427 Z" fill="#000000" fill-rule="nonzero" fill-opacity="1" /><path clip-path="url(#clip100)" d="M1818.47 12.096 L1826.65 12.096 L1826.65 65.6895 L1856.1 65.6895 L1856.1 72.576 L1818.47 72.576 L1818.47 12.096 Z" fill="#000000" fill-rule="nonzero" fill-opacity="1" /><path clip-path="url(#clip100)" d="M1864.37 27.2059 L1871.82 27.2059 L1871.82 72.576 L1864.37 72.576 L1864.37 27.2059 M1864.37 9.54393 L1871.82 9.54393 L1871.82 18.9825 L1864.37 18.9825 L1864.37 9.54393 Z" fill="#000000" fill-rule="nonzero" fill-opacity="1" /><path clip-path="url(#clip100)" d="M1916.34 28.5427 L1916.34 35.5912 Q1913.18 33.9709 1909.78 33.1607 Q1906.38 32.3505 1902.73 32.3505 Q1897.18 32.3505 1894.39 34.0519 Q1891.63 35.7533 1891.63 39.156 Q1891.63 41.7486 1893.62 43.2475 Q1895.6 44.7058 1901.6 46.0426 L1904.15 46.6097 Q1912.09 48.3111 1915.41 51.4303 Q1918.77 54.509 1918.77 60.0587 Q1918.77 66.3781 1913.75 70.0644 Q1908.77 73.7508 1900.02 73.7508 Q1896.37 73.7508 1892.4 73.0216 Q1888.47 72.3329 1884.1 70.9151 L1884.1 63.2184 Q1888.23 65.3654 1892.24 66.4591 Q1896.25 67.5124 1900.18 67.5124 Q1905.44 67.5124 1908.28 65.73 Q1911.12 63.9071 1911.12 60.6258 Q1911.12 57.5877 1909.05 55.9673 Q1907.02 54.3469 1900.1 52.8481 L1897.51 52.2405 Q1890.58 50.7821 1887.5 47.7845 Q1884.42 44.7463 1884.42 39.4801 Q1884.42 33.0797 1888.96 29.5959 Q1893.49 26.1121 1901.84 26.1121 Q1905.97 26.1121 1909.62 26.7198 Q1913.26 27.3274 1916.34 28.5427 Z" fill="#000000" fill-rule="nonzero" fill-opacity="1" /><path clip-path="url(#clip100)" d="M1938.01 14.324 L1938.01 27.2059 L1953.37 27.2059 L1953.37 32.9987 L1938.01 32.9987 L1938.01 57.6282 Q1938.01 63.1779 1939.51 64.7578 Q1941.05 66.3376 1945.71 66.3376 L1953.37 66.3376 L1953.37 72.576 L1945.71 72.576 Q1937.08 72.576 1933.8 69.3758 Q1930.52 66.1351 1930.52 57.6282 L1930.52 32.9987 L1925.05 32.9987 L1925.05 27.2059 L1930.52 27.2059 L1930.52 14.324 L1938.01 14.324 Z" fill="#000000" fill-rule="nonzero" fill-opacity="1" /><polyline clip-path="url(#clip102)" style="stroke:#009af9; stroke-linecap:round; stroke-linejoin:round; stroke-width:4; stroke-opacity:1; fill:none" points="425.033,1386.08 433.46,1386.01 470.91,1386.1 517.723,1386.07 564.535,1386.02 611.348,1386.07 658.161,1386.01 704.974,1386.08 751.787,1385.83 798.599,1385.82 892.225,1385.89 1360.35,1385.39 2296.61,1385.67 "/>
<polyline clip-path="url(#clip102)" style="stroke:#e26f46; stroke-linecap:round; stroke-linejoin:round; stroke-width:4; stroke-opacity:1; fill:none" points="425.033,1386.2 433.46,1384.48 470.91,1384.56 517.723,1384.07 564.535,1384.32 611.348,1382.78 658.161,1383.8 704.974,1382 751.787,1383.12 798.599,1380.65 892.225,1381.2 1360.35,1376.72 2296.61,1377.69 "/>
<polyline clip-path="url(#clip102)" style="stroke:#3da44d; stroke-linecap:round; stroke-linejoin:round; stroke-width:4; stroke-opacity:1; fill:none" points="425.033,1386.11 433.46,1380.91 470.91,1355.58 517.723,1325.21 564.535,1294.27 611.348,1261.93 658.161,1232.25 704.974,1200.3 751.787,1167.11 798.599,1135.73 892.225,1075.2 1360.35,762.478 2296.61,160.256 "/>
<polyline clip-path="url(#clip102)" style="stroke:#c271d2; stroke-linecap:round; stroke-linejoin:round; stroke-width:4; stroke-opacity:1; fill:none" points="425.033,1386.4 433.46,1383.31 470.91,1383.15 517.723,1382.77 564.535,1382.77 611.348,1381.96 658.161,1382.24 704.974,1381.4 751.787,1380.72 798.599,1379.77 892.225,1379.9 1360.35,1378.53 2296.61,1377.2 "/>
<polyline clip-path="url(#clip102)" style="stroke:#ac8d18; stroke-linecap:round; stroke-linejoin:round; stroke-width:4; stroke-opacity:1; fill:none" points="425.033,1386.05 433.46,1384.5 470.91,1384.53 517.723,1384.15 564.535,1384.36 611.348,1382.73 658.161,1383.47 704.974,1382.06 751.787,1382.18 798.599,1381.88 892.225,1381.45 1360.35,1379.75 2296.61,1377.22 "/>
<circle clip-path="url(#clip102)" cx="425.033" cy="1386.08" r="14.4" fill="#00a9ad" fill-rule="evenodd" fill-opacity="1" stroke="#000000" stroke-opacity="1" stroke-width="3.2"/>
<circle clip-path="url(#clip102)" cx="433.46" cy="1386.01" r="14.4" fill="#00a9ad" fill-rule="evenodd" fill-opacity="1" stroke="#000000" stroke-opacity="1" stroke-width="3.2"/>
<circle clip-path="url(#clip102)" cx="470.91" cy="1386.1" r="14.4" fill="#00a9ad" fill-rule="evenodd" fill-opacity="1" stroke="#000000" stroke-opacity="1" stroke-width="3.2"/>
<circle clip-path="url(#clip102)" cx="517.723" cy="1386.07" r="14.4" fill="#00a9ad" fill-rule="evenodd" fill-opacity="1" stroke="#000000" stroke-opacity="1" stroke-width="3.2"/>
<circle clip-path="url(#clip102)" cx="564.535" cy="1386.02" r="14.4" fill="#00a9ad" fill-rule="evenodd" fill-opacity="1" stroke="#000000" stroke-opacity="1" stroke-width="3.2"/>
<circle clip-path="url(#clip102)" cx="611.348" cy="1386.07" r="14.4" fill="#00a9ad" fill-rule="evenodd" fill-opacity="1" stroke="#000000" stroke-opacity="1" stroke-width="3.2"/>
<circle clip-path="url(#clip102)" cx="658.161" cy="1386.01" r="14.4" fill="#00a9ad" fill-rule="evenodd" fill-opacity="1" stroke="#000000" stroke-opacity="1" stroke-width="3.2"/>
<circle clip-path="url(#clip102)" cx="704.974" cy="1386.08" r="14.4" fill="#00a9ad" fill-rule="evenodd" fill-opacity="1" stroke="#000000" stroke-opacity="1" stroke-width="3.2"/>
<circle clip-path="url(#clip102)" cx="751.787" cy="1385.83" r="14.4" fill="#00a9ad" fill-rule="evenodd" fill-opacity="1" stroke="#000000" stroke-opacity="1" stroke-width="3.2"/>
<circle clip-path="url(#clip102)" cx="798.599" cy="1385.82" r="14.4" fill="#00a9ad" fill-rule="evenodd" fill-opacity="1" stroke="#000000" stroke-opacity="1" stroke-width="3.2"/>
<circle clip-path="url(#clip102)" cx="892.225" cy="1385.89" r="14.4" fill="#00a9ad" fill-rule="evenodd" fill-opacity="1" stroke="#000000" stroke-opacity="1" stroke-width="3.2"/>
<circle clip-path="url(#clip102)" cx="1360.35" cy="1385.39" r="14.4" fill="#00a9ad" fill-rule="evenodd" fill-opacity="1" stroke="#000000" stroke-opacity="1" stroke-width="3.2"/>
<circle clip-path="url(#clip102)" cx="2296.61" cy="1385.67" r="14.4" fill="#00a9ad" fill-rule="evenodd" fill-opacity="1" stroke="#000000" stroke-opacity="1" stroke-width="3.2"/>
<circle clip-path="url(#clip102)" cx="425.033" cy="1386.2" r="14.4" fill="#ed5d92" fill-rule="evenodd" fill-opacity="1" stroke="#000000" stroke-opacity="1" stroke-width="3.2"/>
<circle clip-path="url(#clip102)" cx="433.46" cy="1384.48" r="14.4" fill="#ed5d92" fill-rule="evenodd" fill-opacity="1" stroke="#000000" stroke-opacity="1" stroke-width="3.2"/>
<circle clip-path="url(#clip102)" cx="470.91" cy="1384.56" r="14.4" fill="#ed5d92" fill-rule="evenodd" fill-opacity="1" stroke="#000000" stroke-opacity="1" stroke-width="3.2"/>
<circle clip-path="url(#clip102)" cx="517.723" cy="1384.07" r="14.4" fill="#ed5d92" fill-rule="evenodd" fill-opacity="1" stroke="#000000" stroke-opacity="1" stroke-width="3.2"/>
<circle clip-path="url(#clip102)" cx="564.535" cy="1384.32" r="14.4" fill="#ed5d92" fill-rule="evenodd" fill-opacity="1" stroke="#000000" stroke-opacity="1" stroke-width="3.2"/>
<circle clip-path="url(#clip102)" cx="611.348" cy="1382.78" r="14.4" fill="#ed5d92" fill-rule="evenodd" fill-opacity="1" stroke="#000000" stroke-opacity="1" stroke-width="3.2"/>
<circle clip-path="url(#clip102)" cx="658.161" cy="1383.8" r="14.4" fill="#ed5d92" fill-rule="evenodd" fill-opacity="1" stroke="#000000" stroke-opacity="1" stroke-width="3.2"/>
<circle clip-path="url(#clip102)" cx="704.974" cy="1382" r="14.4" fill="#ed5d92" fill-rule="evenodd" fill-opacity="1" stroke="#000000" stroke-opacity="1" stroke-width="3.2"/>
<circle clip-path="url(#clip102)" cx="751.787" cy="1383.12" r="14.4" fill="#ed5d92" fill-rule="evenodd" fill-opacity="1" stroke="#000000" stroke-opacity="1" stroke-width="3.2"/>
<circle clip-path="url(#clip102)" cx="798.599" cy="1380.65" r="14.4" fill="#ed5d92" fill-rule="evenodd" fill-opacity="1" stroke="#000000" stroke-opacity="1" stroke-width="3.2"/>
<circle clip-path="url(#clip102)" cx="892.225" cy="1381.2" r="14.4" fill="#ed5d92" fill-rule="evenodd" fill-opacity="1" stroke="#000000" stroke-opacity="1" stroke-width="3.2"/>
<circle clip-path="url(#clip102)" cx="1360.35" cy="1376.72" r="14.4" fill="#ed5d92" fill-rule="evenodd" fill-opacity="1" stroke="#000000" stroke-opacity="1" stroke-width="3.2"/>
<circle clip-path="url(#clip102)" cx="2296.61" cy="1377.69" r="14.4" fill="#ed5d92" fill-rule="evenodd" fill-opacity="1" stroke="#000000" stroke-opacity="1" stroke-width="3.2"/>
<circle clip-path="url(#clip102)" cx="425.033" cy="1386.11" r="14.4" fill="#c68125" fill-rule="evenodd" fill-opacity="1" stroke="#000000" stroke-opacity="1" stroke-width="3.2"/>
<circle clip-path="url(#clip102)" cx="433.46" cy="1380.91" r="14.4" fill="#c68125" fill-rule="evenodd" fill-opacity="1" stroke="#000000" stroke-opacity="1" stroke-width="3.2"/>
<circle clip-path="url(#clip102)" cx="470.91" cy="1355.58" r="14.4" fill="#c68125" fill-rule="evenodd" fill-opacity="1" stroke="#000000" stroke-opacity="1" stroke-width="3.2"/>
<circle clip-path="url(#clip102)" cx="517.723" cy="1325.21" r="14.4" fill="#c68125" fill-rule="evenodd" fill-opacity="1" stroke="#000000" stroke-opacity="1" stroke-width="3.2"/>
<circle clip-path="url(#clip102)" cx="564.535" cy="1294.27" r="14.4" fill="#c68125" fill-rule="evenodd" fill-opacity="1" stroke="#000000" stroke-opacity="1" stroke-width="3.2"/>
<circle clip-path="url(#clip102)" cx="611.348" cy="1261.93" r="14.4" fill="#c68125" fill-rule="evenodd" fill-opacity="1" stroke="#000000" stroke-opacity="1" stroke-width="3.2"/>
<circle clip-path="url(#clip102)" cx="658.161" cy="1232.25" r="14.4" fill="#c68125" fill-rule="evenodd" fill-opacity="1" stroke="#000000" stroke-opacity="1" stroke-width="3.2"/>
<circle clip-path="url(#clip102)" cx="704.974" cy="1200.3" r="14.4" fill="#c68125" fill-rule="evenodd" fill-opacity="1" stroke="#000000" stroke-opacity="1" stroke-width="3.2"/>
<circle clip-path="url(#clip102)" cx="751.787" cy="1167.11" r="14.4" fill="#c68125" fill-rule="evenodd" fill-opacity="1" stroke="#000000" stroke-opacity="1" stroke-width="3.2"/>
<circle clip-path="url(#clip102)" cx="798.599" cy="1135.73" r="14.4" fill="#c68125" fill-rule="evenodd" fill-opacity="1" stroke="#000000" stroke-opacity="1" stroke-width="3.2"/>
<circle clip-path="url(#clip102)" cx="892.225" cy="1075.2" r="14.4" fill="#c68125" fill-rule="evenodd" fill-opacity="1" stroke="#000000" stroke-opacity="1" stroke-width="3.2"/>
<circle clip-path="url(#clip102)" cx="1360.35" cy="762.478" r="14.4" fill="#c68125" fill-rule="evenodd" fill-opacity="1" stroke="#000000" stroke-opacity="1" stroke-width="3.2"/>
<circle clip-path="url(#clip102)" cx="2296.61" cy="160.256" r="14.4" fill="#c68125" fill-rule="evenodd" fill-opacity="1" stroke="#000000" stroke-opacity="1" stroke-width="3.2"/>
<circle clip-path="url(#clip102)" cx="425.033" cy="1386.4" r="14.4" fill="#00a98d" fill-rule="evenodd" fill-opacity="1" stroke="#000000" stroke-opacity="1" stroke-width="3.2"/>
<circle clip-path="url(#clip102)" cx="433.46" cy="1383.31" r="14.4" fill="#00a98d" fill-rule="evenodd" fill-opacity="1" stroke="#000000" stroke-opacity="1" stroke-width="3.2"/>
<circle clip-path="url(#clip102)" cx="470.91" cy="1383.15" r="14.4" fill="#00a98d" fill-rule="evenodd" fill-opacity="1" stroke="#000000" stroke-opacity="1" stroke-width="3.2"/>
<circle clip-path="url(#clip102)" cx="517.723" cy="1382.77" r="14.4" fill="#00a98d" fill-rule="evenodd" fill-opacity="1" stroke="#000000" stroke-opacity="1" stroke-width="3.2"/>
<circle clip-path="url(#clip102)" cx="564.535" cy="1382.77" r="14.4" fill="#00a98d" fill-rule="evenodd" fill-opacity="1" stroke="#000000" stroke-opacity="1" stroke-width="3.2"/>
<circle clip-path="url(#clip102)" cx="611.348" cy="1381.96" r="14.4" fill="#00a98d" fill-rule="evenodd" fill-opacity="1" stroke="#000000" stroke-opacity="1" stroke-width="3.2"/>
<circle clip-path="url(#clip102)" cx="658.161" cy="1382.24" r="14.4" fill="#00a98d" fill-rule="evenodd" fill-opacity="1" stroke="#000000" stroke-opacity="1" stroke-width="3.2"/>
<circle clip-path="url(#clip102)" cx="704.974" cy="1381.4" r="14.4" fill="#00a98d" fill-rule="evenodd" fill-opacity="1" stroke="#000000" stroke-opacity="1" stroke-width="3.2"/>
<circle clip-path="url(#clip102)" cx="751.787" cy="1380.72" r="14.4" fill="#00a98d" fill-rule="evenodd" fill-opacity="1" stroke="#000000" stroke-opacity="1" stroke-width="3.2"/>
<circle clip-path="url(#clip102)" cx="798.599" cy="1379.77" r="14.4" fill="#00a98d" fill-rule="evenodd" fill-opacity="1" stroke="#000000" stroke-opacity="1" stroke-width="3.2"/>
<circle clip-path="url(#clip102)" cx="892.225" cy="1379.9" r="14.4" fill="#00a98d" fill-rule="evenodd" fill-opacity="1" stroke="#000000" stroke-opacity="1" stroke-width="3.2"/>
<circle clip-path="url(#clip102)" cx="1360.35" cy="1378.53" r="14.4" fill="#00a98d" fill-rule="evenodd" fill-opacity="1" stroke="#000000" stroke-opacity="1" stroke-width="3.2"/>
<circle clip-path="url(#clip102)" cx="2296.61" cy="1377.2" r="14.4" fill="#00a98d" fill-rule="evenodd" fill-opacity="1" stroke="#000000" stroke-opacity="1" stroke-width="3.2"/>
<circle clip-path="url(#clip102)" cx="425.033" cy="1386.05" r="14.4" fill="#8e971d" fill-rule="evenodd" fill-opacity="1" stroke="#000000" stroke-opacity="1" stroke-width="3.2"/>
<circle clip-path="url(#clip102)" cx="433.46" cy="1384.5" r="14.4" fill="#8e971d" fill-rule="evenodd" fill-opacity="1" stroke="#000000" stroke-opacity="1" stroke-width="3.2"/>
<circle clip-path="url(#clip102)" cx="470.91" cy="1384.53" r="14.4" fill="#8e971d" fill-rule="evenodd" fill-opacity="1" stroke="#000000" stroke-opacity="1" stroke-width="3.2"/>
<circle clip-path="url(#clip102)" cx="517.723" cy="1384.15" r="14.4" fill="#8e971d" fill-rule="evenodd" fill-opacity="1" stroke="#000000" stroke-opacity="1" stroke-width="3.2"/>
<circle clip-path="url(#clip102)" cx="564.535" cy="1384.36" r="14.4" fill="#8e971d" fill-rule="evenodd" fill-opacity="1" stroke="#000000" stroke-opacity="1" stroke-width="3.2"/>
<circle clip-path="url(#clip102)" cx="611.348" cy="1382.73" r="14.4" fill="#8e971d" fill-rule="evenodd" fill-opacity="1" stroke="#000000" stroke-opacity="1" stroke-width="3.2"/>
<circle clip-path="url(#clip102)" cx="658.161" cy="1383.47" r="14.4" fill="#8e971d" fill-rule="evenodd" fill-opacity="1" stroke="#000000" stroke-opacity="1" stroke-width="3.2"/>
<circle clip-path="url(#clip102)" cx="704.974" cy="1382.06" r="14.4" fill="#8e971d" fill-rule="evenodd" fill-opacity="1" stroke="#000000" stroke-opacity="1" stroke-width="3.2"/>
<circle clip-path="url(#clip102)" cx="751.787" cy="1382.18" r="14.4" fill="#8e971d" fill-rule="evenodd" fill-opacity="1" stroke="#000000" stroke-opacity="1" stroke-width="3.2"/>
<circle clip-path="url(#clip102)" cx="798.599" cy="1381.88" r="14.4" fill="#8e971d" fill-rule="evenodd" fill-opacity="1" stroke="#000000" stroke-opacity="1" stroke-width="3.2"/>
<circle clip-path="url(#clip102)" cx="892.225" cy="1381.45" r="14.4" fill="#8e971d" fill-rule="evenodd" fill-opacity="1" stroke="#000000" stroke-opacity="1" stroke-width="3.2"/>
<circle clip-path="url(#clip102)" cx="1360.35" cy="1379.75" r="14.4" fill="#8e971d" fill-rule="evenodd" fill-opacity="1" stroke="#000000" stroke-opacity="1" stroke-width="3.2"/>
<circle clip-path="url(#clip102)" cx="2296.61" cy="1377.22" r="14.4" fill="#8e971d" fill-rule="evenodd" fill-opacity="1" stroke="#000000" stroke-opacity="1" stroke-width="3.2"/>
<path clip-path="url(#clip100)" d="M435.015 477.836 L866.04 477.836 L866.04 166.796 L435.015 166.796  Z" fill="#ffffff" fill-rule="evenodd" fill-opacity="1"/>
<polyline clip-path="url(#clip100)" style="stroke:#000000; stroke-linecap:round; stroke-linejoin:round; stroke-width:4; stroke-opacity:1; fill:none" points="435.015,477.836 866.04,477.836 866.04,166.796 435.015,166.796 435.015,477.836 "/>
<polyline clip-path="url(#clip100)" style="stroke:#009af9; stroke-linecap:round; stroke-linejoin:round; stroke-width:4; stroke-opacity:1; fill:none" points="457.058,218.636 589.316,218.636 "/>
<path clip-path="url(#clip100)" d="M627.864 199.897 L627.864 203.439 L623.789 203.439 Q621.498 203.439 620.595 204.365 Q619.715 205.291 619.715 207.698 L619.715 209.99 L626.729 209.99 L626.729 213.3 L619.715 213.3 L619.715 235.916 L615.433 235.916 L615.433 213.3 L611.359 213.3 L611.359 209.99 L615.433 209.99 L615.433 208.184 Q615.433 203.856 617.447 201.888 Q619.461 199.897 623.836 199.897 L627.864 199.897 Z" fill="#000000" fill-rule="nonzero" fill-opacity="1" /><path clip-path="url(#clip100)" d="M631.428 209.99 L635.688 209.99 L635.688 235.916 L631.428 235.916 L631.428 209.99 M631.428 199.897 L635.688 199.897 L635.688 205.291 L631.428 205.291 L631.428 199.897 Z" fill="#000000" fill-rule="nonzero" fill-opacity="1" /><path clip-path="url(#clip100)" d="M659.623 213.971 Q658.905 213.555 658.049 213.37 Q657.215 213.161 656.197 213.161 Q652.586 213.161 650.641 215.522 Q648.72 217.86 648.72 222.258 L648.72 235.916 L644.438 235.916 L644.438 209.99 L648.72 209.99 L648.72 214.018 Q650.062 211.657 652.215 210.522 Q654.368 209.365 657.447 209.365 Q657.887 209.365 658.419 209.434 Q658.951 209.481 659.599 209.596 L659.623 213.971 Z" fill="#000000" fill-rule="nonzero" fill-opacity="1" /><path clip-path="url(#clip100)" d="M680.618 210.754 L680.618 214.782 Q678.812 213.856 676.868 213.393 Q674.923 212.93 672.84 212.93 Q669.669 212.93 668.072 213.902 Q666.498 214.874 666.498 216.819 Q666.498 218.3 667.632 219.157 Q668.766 219.99 672.192 220.754 L673.65 221.078 Q678.187 222.05 680.085 223.832 Q682.007 225.592 682.007 228.763 Q682.007 232.374 679.136 234.481 Q676.289 236.587 671.289 236.587 Q669.206 236.587 666.937 236.17 Q664.692 235.777 662.192 234.967 L662.192 230.569 Q664.553 231.795 666.845 232.42 Q669.136 233.022 671.382 233.022 Q674.391 233.022 676.011 232.004 Q677.632 230.962 677.632 229.087 Q677.632 227.351 676.451 226.425 Q675.294 225.499 671.336 224.643 L669.854 224.295 Q665.896 223.462 664.136 221.749 Q662.377 220.013 662.377 217.004 Q662.377 213.346 664.97 211.356 Q667.562 209.365 672.331 209.365 Q674.692 209.365 676.775 209.712 Q678.859 210.059 680.618 210.754 Z" fill="#000000" fill-rule="nonzero" fill-opacity="1" /><path clip-path="url(#clip100)" d="M693.002 202.629 L693.002 209.99 L701.775 209.99 L701.775 213.3 L693.002 213.3 L693.002 227.374 Q693.002 230.545 693.859 231.448 Q694.738 232.351 697.4 232.351 L701.775 232.351 L701.775 235.916 L697.4 235.916 Q692.47 235.916 690.595 234.087 Q688.72 232.235 688.72 227.374 L688.72 213.3 L685.595 213.3 L685.595 209.99 L688.72 209.99 L688.72 202.629 L693.002 202.629 Z" fill="#000000" fill-rule="nonzero" fill-opacity="1" /><polyline clip-path="url(#clip100)" style="stroke:#e26f46; stroke-linecap:round; stroke-linejoin:round; stroke-width:4; stroke-opacity:1; fill:none" points="457.058,270.476 589.316,270.476 "/>
<path clip-path="url(#clip100)" d="M629.785 262.594 L629.785 266.622 Q627.979 265.696 626.035 265.233 Q624.09 264.77 622.007 264.77 Q618.836 264.77 617.239 265.742 Q615.665 266.714 615.665 268.659 Q615.665 270.14 616.799 270.997 Q617.933 271.83 621.359 272.594 L622.817 272.918 Q627.354 273.89 629.252 275.672 Q631.174 277.432 631.174 280.603 Q631.174 284.214 628.303 286.321 Q625.456 288.427 620.456 288.427 Q618.373 288.427 616.104 288.01 Q613.859 287.617 611.359 286.807 L611.359 282.409 Q613.72 283.635 616.012 284.26 Q618.303 284.862 620.549 284.862 Q623.558 284.862 625.178 283.844 Q626.799 282.802 626.799 280.927 Q626.799 279.191 625.618 278.265 Q624.461 277.339 620.502 276.483 L619.021 276.135 Q615.063 275.302 613.303 273.589 Q611.544 271.853 611.544 268.844 Q611.544 265.186 614.137 263.196 Q616.729 261.205 621.498 261.205 Q623.859 261.205 625.942 261.552 Q628.026 261.899 629.785 262.594 Z" fill="#000000" fill-rule="nonzero" fill-opacity="1" /><path clip-path="url(#clip100)" d="M660.132 273.728 L660.132 275.811 L640.549 275.811 Q640.826 280.209 643.188 282.524 Q645.572 284.816 649.808 284.816 Q652.262 284.816 654.553 284.214 Q656.868 283.612 659.137 282.409 L659.137 286.436 Q656.845 287.408 654.437 287.918 Q652.03 288.427 649.553 288.427 Q643.35 288.427 639.715 284.816 Q636.104 281.205 636.104 275.047 Q636.104 268.682 639.53 264.955 Q642.979 261.205 648.813 261.205 Q654.044 261.205 657.076 264.585 Q660.132 267.941 660.132 273.728 M655.873 272.478 Q655.826 268.983 653.905 266.899 Q652.007 264.816 648.859 264.816 Q645.294 264.816 643.141 266.83 Q641.012 268.844 640.688 272.501 L655.873 272.478 Z" fill="#000000" fill-rule="nonzero" fill-opacity="1" /><path clip-path="url(#clip100)" d="M685.78 262.825 L685.78 266.807 Q683.974 265.811 682.146 265.325 Q680.34 264.816 678.488 264.816 Q674.345 264.816 672.053 267.455 Q669.761 270.071 669.761 274.816 Q669.761 279.561 672.053 282.2 Q674.345 284.816 678.488 284.816 Q680.34 284.816 682.146 284.33 Q683.974 283.821 685.78 282.825 L685.78 286.76 Q683.997 287.594 682.076 288.01 Q680.178 288.427 678.025 288.427 Q672.169 288.427 668.72 284.746 Q665.271 281.066 665.271 274.816 Q665.271 268.473 668.743 264.839 Q672.238 261.205 678.303 261.205 Q680.271 261.205 682.146 261.622 Q684.021 262.015 685.78 262.825 Z" fill="#000000" fill-rule="nonzero" fill-opacity="1" /><path clip-path="url(#clip100)" d="M703.234 264.816 Q699.808 264.816 697.817 267.501 Q695.826 270.163 695.826 274.816 Q695.826 279.469 697.794 282.154 Q699.784 284.816 703.234 284.816 Q706.636 284.816 708.627 282.131 Q710.618 279.446 710.618 274.816 Q710.618 270.21 708.627 267.524 Q706.636 264.816 703.234 264.816 M703.234 261.205 Q708.789 261.205 711.96 264.816 Q715.132 268.427 715.132 274.816 Q715.132 281.182 711.96 284.816 Q708.789 288.427 703.234 288.427 Q697.655 288.427 694.484 284.816 Q691.335 281.182 691.335 274.816 Q691.335 268.427 694.484 264.816 Q697.655 261.205 703.234 261.205 Z" fill="#000000" fill-rule="nonzero" fill-opacity="1" /><path clip-path="url(#clip100)" d="M743.743 272.108 L743.743 287.756 L739.483 287.756 L739.483 272.247 Q739.483 268.566 738.048 266.737 Q736.613 264.909 733.743 264.909 Q730.294 264.909 728.303 267.108 Q726.312 269.307 726.312 273.103 L726.312 287.756 L722.03 287.756 L722.03 261.83 L726.312 261.83 L726.312 265.858 Q727.84 263.52 729.9 262.362 Q731.983 261.205 734.692 261.205 Q739.159 261.205 741.451 263.983 Q743.743 266.737 743.743 272.108 Z" fill="#000000" fill-rule="nonzero" fill-opacity="1" /><path clip-path="url(#clip100)" d="M769.298 265.765 L769.298 251.737 L773.557 251.737 L773.557 287.756 L769.298 287.756 L769.298 283.867 Q767.955 286.182 765.895 287.316 Q763.858 288.427 760.988 288.427 Q756.289 288.427 753.326 284.677 Q750.386 280.927 750.386 274.816 Q750.386 268.705 753.326 264.955 Q756.289 261.205 760.988 261.205 Q763.858 261.205 765.895 262.339 Q767.955 263.45 769.298 265.765 M754.784 274.816 Q754.784 279.515 756.705 282.2 Q758.65 284.862 762.029 284.862 Q765.409 284.862 767.354 282.2 Q769.298 279.515 769.298 274.816 Q769.298 270.117 767.354 267.455 Q765.409 264.77 762.029 264.77 Q758.65 264.77 756.705 267.455 Q754.784 270.117 754.784 274.816 Z" fill="#000000" fill-rule="nonzero" fill-opacity="1" /><polyline clip-path="url(#clip100)" style="stroke:#3da44d; stroke-linecap:round; stroke-linejoin:round; stroke-width:4; stroke-opacity:1; fill:none" points="457.058,322.316 589.316,322.316 "/>
<path clip-path="url(#clip100)" d="M631.706 318.647 Q633.303 315.776 635.526 314.411 Q637.748 313.045 640.757 313.045 Q644.808 313.045 647.007 315.892 Q649.206 318.716 649.206 323.948 L649.206 339.596 L644.924 339.596 L644.924 324.087 Q644.924 320.36 643.604 318.554 Q642.285 316.749 639.576 316.749 Q636.266 316.749 634.345 318.948 Q632.424 321.147 632.424 324.943 L632.424 339.596 L628.141 339.596 L628.141 324.087 Q628.141 320.337 626.822 318.554 Q625.502 316.749 622.748 316.749 Q619.484 316.749 617.563 318.971 Q615.641 321.17 615.641 324.943 L615.641 339.596 L611.359 339.596 L611.359 313.67 L615.641 313.67 L615.641 317.698 Q617.1 315.313 619.137 314.179 Q621.174 313.045 623.975 313.045 Q626.799 313.045 628.766 314.48 Q630.757 315.915 631.706 318.647 Z" fill="#000000" fill-rule="nonzero" fill-opacity="1" /><path clip-path="url(#clip100)" d="M657.701 313.67 L661.961 313.67 L661.961 339.596 L657.701 339.596 L657.701 313.67 M657.701 303.577 L661.961 303.577 L661.961 308.971 L657.701 308.971 L657.701 303.577 Z" fill="#000000" fill-rule="nonzero" fill-opacity="1" /><path clip-path="url(#clip100)" d="M687.933 317.605 L687.933 303.577 L692.192 303.577 L692.192 339.596 L687.933 339.596 L687.933 335.707 Q686.59 338.022 684.53 339.156 Q682.493 340.267 679.623 340.267 Q674.923 340.267 671.961 336.517 Q669.021 332.767 669.021 326.656 Q669.021 320.545 671.961 316.795 Q674.923 313.045 679.623 313.045 Q682.493 313.045 684.53 314.179 Q686.59 315.29 687.933 317.605 M673.419 326.656 Q673.419 331.355 675.34 334.04 Q677.285 336.702 680.664 336.702 Q684.044 336.702 685.988 334.04 Q687.933 331.355 687.933 326.656 Q687.933 321.957 685.988 319.295 Q684.044 316.61 680.664 316.61 Q677.285 316.61 675.34 319.295 Q673.419 321.957 673.419 326.656 Z" fill="#000000" fill-rule="nonzero" fill-opacity="1" /><path clip-path="url(#clip100)" d="M718.025 317.605 L718.025 303.577 L722.284 303.577 L722.284 339.596 L718.025 339.596 L718.025 335.707 Q716.683 338.022 714.622 339.156 Q712.585 340.267 709.715 340.267 Q705.016 340.267 702.053 336.517 Q699.113 332.767 699.113 326.656 Q699.113 320.545 702.053 316.795 Q705.016 313.045 709.715 313.045 Q712.585 313.045 714.622 314.179 Q716.683 315.29 718.025 317.605 M703.511 326.656 Q703.511 331.355 705.433 334.04 Q707.377 336.702 710.757 336.702 Q714.136 336.702 716.081 334.04 Q718.025 331.355 718.025 326.656 Q718.025 321.957 716.081 319.295 Q714.136 316.61 710.757 316.61 Q707.377 316.61 705.433 319.295 Q703.511 321.957 703.511 326.656 Z" fill="#000000" fill-rule="nonzero" fill-opacity="1" /><path clip-path="url(#clip100)" d="M731.057 303.577 L735.317 303.577 L735.317 339.596 L731.057 339.596 L731.057 303.577 Z" fill="#000000" fill-rule="nonzero" fill-opacity="1" /><path clip-path="url(#clip100)" d="M766.404 325.568 L766.404 327.651 L746.821 327.651 Q747.099 332.049 749.46 334.364 Q751.844 336.656 756.08 336.656 Q758.534 336.656 760.826 336.054 Q763.141 335.452 765.409 334.249 L765.409 338.276 Q763.117 339.248 760.71 339.758 Q758.303 340.267 755.826 340.267 Q749.622 340.267 745.988 336.656 Q742.377 333.045 742.377 326.887 Q742.377 320.522 745.803 316.795 Q749.252 313.045 755.085 313.045 Q760.317 313.045 763.349 316.425 Q766.404 319.781 766.404 325.568 M762.145 324.318 Q762.099 320.823 760.178 318.739 Q758.28 316.656 755.131 316.656 Q751.567 316.656 749.414 318.67 Q747.284 320.684 746.96 324.341 L762.145 324.318 Z" fill="#000000" fill-rule="nonzero" fill-opacity="1" /><polyline clip-path="url(#clip100)" style="stroke:#c271d2; stroke-linecap:round; stroke-linejoin:round; stroke-width:4; stroke-opacity:1; fill:none" points="457.058,374.156 589.316,374.156 "/>
<path clip-path="url(#clip100)" d="M630.132 378.496 Q630.132 373.797 628.188 371.135 Q626.266 368.45 622.887 368.45 Q619.507 368.45 617.563 371.135 Q615.641 373.797 615.641 378.496 Q615.641 383.195 617.563 385.88 Q619.507 388.542 622.887 388.542 Q626.266 388.542 628.188 385.88 Q630.132 383.195 630.132 378.496 M615.641 369.445 Q616.984 367.13 619.021 366.019 Q621.081 364.885 623.928 364.885 Q628.651 364.885 631.59 368.635 Q634.553 372.385 634.553 378.496 Q634.553 384.607 631.59 388.357 Q628.651 392.107 623.928 392.107 Q621.081 392.107 619.021 390.996 Q616.984 389.862 615.641 387.547 L615.641 391.436 L611.359 391.436 L611.359 355.417 L615.641 355.417 L615.641 369.445 Z" fill="#000000" fill-rule="nonzero" fill-opacity="1" /><path clip-path="url(#clip100)" d="M663.789 377.408 L663.789 379.491 L644.206 379.491 Q644.484 383.889 646.845 386.204 Q649.229 388.496 653.465 388.496 Q655.919 388.496 658.211 387.894 Q660.525 387.292 662.794 386.089 L662.794 390.116 Q660.502 391.088 658.095 391.598 Q655.687 392.107 653.211 392.107 Q647.007 392.107 643.373 388.496 Q639.762 384.885 639.762 378.727 Q639.762 372.362 643.188 368.635 Q646.637 364.885 652.47 364.885 Q657.701 364.885 660.734 368.265 Q663.789 371.621 663.789 377.408 M659.53 376.158 Q659.484 372.663 657.562 370.579 Q655.664 368.496 652.516 368.496 Q648.951 368.496 646.799 370.51 Q644.669 372.524 644.345 376.181 L659.53 376.158 Z" fill="#000000" fill-rule="nonzero" fill-opacity="1" /><path clip-path="url(#clip100)" d="M683.905 355.417 L683.905 358.959 L679.831 358.959 Q677.539 358.959 676.636 359.885 Q675.757 360.811 675.757 363.218 L675.757 365.51 L682.771 365.51 L682.771 368.82 L675.757 368.82 L675.757 391.436 L671.474 391.436 L671.474 368.82 L667.4 368.82 L667.4 365.51 L671.474 365.51 L671.474 363.704 Q671.474 359.376 673.488 357.408 Q675.502 355.417 679.877 355.417 L683.905 355.417 Z" fill="#000000" fill-rule="nonzero" fill-opacity="1" /><path clip-path="url(#clip100)" d="M697.516 368.496 Q694.09 368.496 692.099 371.181 Q690.109 373.843 690.109 378.496 Q690.109 383.149 692.076 385.834 Q694.067 388.496 697.516 388.496 Q700.919 388.496 702.909 385.811 Q704.9 383.126 704.9 378.496 Q704.9 373.89 702.909 371.204 Q700.919 368.496 697.516 368.496 M697.516 364.885 Q703.071 364.885 706.243 368.496 Q709.414 372.107 709.414 378.496 Q709.414 384.862 706.243 388.496 Q703.071 392.107 697.516 392.107 Q691.937 392.107 688.766 388.496 Q685.618 384.862 685.618 378.496 Q685.618 372.107 688.766 368.496 Q691.937 364.885 697.516 364.885 Z" fill="#000000" fill-rule="nonzero" fill-opacity="1" /><path clip-path="url(#clip100)" d="M731.497 369.491 Q730.78 369.075 729.923 368.89 Q729.09 368.681 728.071 368.681 Q724.46 368.681 722.516 371.042 Q720.595 373.38 720.595 377.778 L720.595 391.436 L716.312 391.436 L716.312 365.51 L720.595 365.51 L720.595 369.538 Q721.937 367.177 724.09 366.042 Q726.243 364.885 729.321 364.885 Q729.761 364.885 730.294 364.954 Q730.826 365.001 731.474 365.116 L731.497 369.491 Z" fill="#000000" fill-rule="nonzero" fill-opacity="1" /><path clip-path="url(#clip100)" d="M757.099 377.408 L757.099 379.491 L737.516 379.491 Q737.794 383.889 740.155 386.204 Q742.539 388.496 746.775 388.496 Q749.229 388.496 751.52 387.894 Q753.835 387.292 756.104 386.089 L756.104 390.116 Q753.812 391.088 751.405 391.598 Q748.997 392.107 746.52 392.107 Q740.317 392.107 736.682 388.496 Q733.071 384.885 733.071 378.727 Q733.071 372.362 736.497 368.635 Q739.946 364.885 745.78 364.885 Q751.011 364.885 754.043 368.265 Q757.099 371.621 757.099 377.408 M752.84 376.158 Q752.793 372.663 750.872 370.579 Q748.974 368.496 745.826 368.496 Q742.261 368.496 740.108 370.51 Q737.979 372.524 737.655 376.181 L752.84 376.158 Z" fill="#000000" fill-rule="nonzero" fill-opacity="1" /><path clip-path="url(#clip100)" d="M764.09 355.417 L768.349 355.417 L768.349 391.436 L764.09 391.436 L764.09 355.417 Z" fill="#000000" fill-rule="nonzero" fill-opacity="1" /><path clip-path="url(#clip100)" d="M789.043 378.403 Q783.881 378.403 781.89 379.584 Q779.9 380.764 779.9 383.612 Q779.9 385.88 781.381 387.223 Q782.886 388.542 785.455 388.542 Q788.997 388.542 791.127 386.042 Q793.279 383.519 793.279 379.352 L793.279 378.403 L789.043 378.403 M797.539 376.644 L797.539 391.436 L793.279 391.436 L793.279 387.501 Q791.821 389.862 789.645 390.996 Q787.469 392.107 784.321 392.107 Q780.34 392.107 777.978 389.885 Q775.641 387.639 775.641 383.889 Q775.641 379.514 778.557 377.292 Q781.497 375.07 787.307 375.07 L793.279 375.07 L793.279 374.653 Q793.279 371.714 791.335 370.116 Q789.414 368.496 785.918 368.496 Q783.696 368.496 781.59 369.028 Q779.483 369.561 777.539 370.626 L777.539 366.69 Q779.877 365.788 782.076 365.348 Q784.275 364.885 786.358 364.885 Q791.983 364.885 794.761 367.802 Q797.539 370.718 797.539 376.644 Z" fill="#000000" fill-rule="nonzero" fill-opacity="1" /><path clip-path="url(#clip100)" d="M822.839 366.274 L822.839 370.302 Q821.034 369.376 819.089 368.913 Q817.145 368.45 815.062 368.45 Q811.89 368.45 810.293 369.422 Q808.719 370.394 808.719 372.339 Q808.719 373.82 809.853 374.677 Q810.988 375.51 814.413 376.274 L815.872 376.598 Q820.409 377.57 822.307 379.352 Q824.228 381.112 824.228 384.283 Q824.228 387.894 821.358 390.001 Q818.511 392.107 813.511 392.107 Q811.427 392.107 809.159 391.69 Q806.914 391.297 804.414 390.487 L804.414 386.089 Q806.775 387.315 809.066 387.94 Q811.358 388.542 813.603 388.542 Q816.613 388.542 818.233 387.524 Q819.853 386.482 819.853 384.607 Q819.853 382.871 818.673 381.945 Q817.515 381.019 813.557 380.163 L812.076 379.815 Q808.117 378.982 806.358 377.269 Q804.599 375.533 804.599 372.524 Q804.599 368.866 807.191 366.876 Q809.784 364.885 814.552 364.885 Q816.913 364.885 818.997 365.232 Q821.08 365.579 822.839 366.274 Z" fill="#000000" fill-rule="nonzero" fill-opacity="1" /><path clip-path="url(#clip100)" d="M835.224 358.149 L835.224 365.51 L843.997 365.51 L843.997 368.82 L835.224 368.82 L835.224 382.894 Q835.224 386.065 836.08 386.968 Q836.96 387.871 839.622 387.871 L843.997 387.871 L843.997 391.436 L839.622 391.436 Q834.691 391.436 832.816 389.607 Q830.941 387.755 830.941 382.894 L830.941 368.82 L827.816 368.82 L827.816 365.51 L830.941 365.51 L830.941 358.149 L835.224 358.149 Z" fill="#000000" fill-rule="nonzero" fill-opacity="1" /><polyline clip-path="url(#clip100)" style="stroke:#ac8d18; stroke-linecap:round; stroke-linejoin:round; stroke-width:4; stroke-opacity:1; fill:none" points="457.058,425.996 589.316,425.996 "/>
<path clip-path="url(#clip100)" d="M611.359 407.257 L615.618 407.257 L615.618 443.276 L611.359 443.276 L611.359 407.257 Z" fill="#000000" fill-rule="nonzero" fill-opacity="1" /><path clip-path="url(#clip100)" d="M636.313 430.243 Q631.151 430.243 629.16 431.424 Q627.169 432.604 627.169 435.452 Q627.169 437.72 628.651 439.063 Q630.155 440.382 632.725 440.382 Q636.266 440.382 638.396 437.882 Q640.549 435.359 640.549 431.192 L640.549 430.243 L636.313 430.243 M644.808 428.484 L644.808 443.276 L640.549 443.276 L640.549 439.341 Q639.09 441.702 636.914 442.836 Q634.739 443.947 631.59 443.947 Q627.609 443.947 625.248 441.725 Q622.91 439.479 622.91 435.729 Q622.91 431.354 625.827 429.132 Q628.766 426.91 634.576 426.91 L640.549 426.91 L640.549 426.493 Q640.549 423.554 638.604 421.956 Q636.683 420.336 633.188 420.336 Q630.965 420.336 628.859 420.868 Q626.752 421.401 624.808 422.466 L624.808 418.53 Q627.146 417.628 629.345 417.188 Q631.544 416.725 633.627 416.725 Q639.252 416.725 642.03 419.642 Q644.808 422.558 644.808 428.484 Z" fill="#000000" fill-rule="nonzero" fill-opacity="1" /><path clip-path="url(#clip100)" d="M670.109 418.114 L670.109 422.142 Q668.303 421.216 666.359 420.753 Q664.414 420.29 662.331 420.29 Q659.16 420.29 657.562 421.262 Q655.988 422.234 655.988 424.179 Q655.988 425.66 657.123 426.517 Q658.257 427.35 661.683 428.114 L663.141 428.438 Q667.678 429.41 669.576 431.192 Q671.498 432.952 671.498 436.123 Q671.498 439.734 668.627 441.841 Q665.78 443.947 660.78 443.947 Q658.697 443.947 656.428 443.53 Q654.183 443.137 651.683 442.327 L651.683 437.929 Q654.044 439.155 656.336 439.78 Q658.627 440.382 660.873 440.382 Q663.882 440.382 665.502 439.364 Q667.123 438.322 667.123 436.447 Q667.123 434.711 665.942 433.785 Q664.785 432.859 660.826 432.003 L659.345 431.655 Q655.387 430.822 653.627 429.109 Q651.868 427.373 651.868 424.364 Q651.868 420.706 654.461 418.716 Q657.053 416.725 661.822 416.725 Q664.183 416.725 666.266 417.072 Q668.349 417.419 670.109 418.114 Z" fill="#000000" fill-rule="nonzero" fill-opacity="1" /><path clip-path="url(#clip100)" d="M682.493 409.989 L682.493 417.35 L691.266 417.35 L691.266 420.66 L682.493 420.66 L682.493 434.734 Q682.493 437.905 683.349 438.808 Q684.229 439.711 686.891 439.711 L691.266 439.711 L691.266 443.276 L686.891 443.276 Q681.96 443.276 680.085 441.447 Q678.21 439.595 678.21 434.734 L678.21 420.66 L675.086 420.66 L675.086 417.35 L678.21 417.35 L678.21 409.989 L682.493 409.989 Z" fill="#000000" fill-rule="nonzero" fill-opacity="1" /></svg>
