<?xml version="1.0" encoding="utf-8"?>
<svg xmlns="http://www.w3.org/2000/svg" xmlns:xlink="http://www.w3.org/1999/xlink" width="600" height="400" viewBox="0 0 2400 1600">
<defs>
  <clipPath id="clip200">
    <rect x="0" y="0" width="2400" height="1600"/>
  </clipPath>
</defs>
<path clip-path="url(#clip200)" d="M0 1600 L2400 1600 L2400 0 L0 0  Z" fill="#ffffff" fill-rule="evenodd" fill-opacity="1"/>
<defs>
  <clipPath id="clip201">
    <rect x="480" y="0" width="1681" height="1600"/>
  </clipPath>
</defs>
<path clip-path="url(#clip200)" d="M340.699 1423.18 L2352.76 1423.18 L2352.76 123.472 L340.699 123.472  Z" fill="#ffffff" fill-rule="evenodd" fill-opacity="1"/>
<defs>
  <clipPath id="clip202">
    <rect x="340" y="123" width="2013" height="1301"/>
  </clipPath>
</defs>
<polyline clip-path="url(#clip202)" style="stroke:#000000; stroke-linecap:round; stroke-linejoin:round; stroke-width:2; stroke-opacity:0.1; fill:none" points="396.694,1423.18 396.694,123.472 "/>
<polyline clip-path="url(#clip202)" style="stroke:#000000; stroke-linecap:round; stroke-linejoin:round; stroke-width:2; stroke-opacity:0.1; fill:none" points="871.474,1423.18 871.474,123.472 "/>
<polyline clip-path="url(#clip202)" style="stroke:#000000; stroke-linecap:round; stroke-linejoin:round; stroke-width:2; stroke-opacity:0.1; fill:none" points="1346.25,1423.18 1346.25,123.472 "/>
<polyline clip-path="url(#clip202)" style="stroke:#000000; stroke-linecap:round; stroke-linejoin:round; stroke-width:2; stroke-opacity:0.1; fill:none" points="1821.03,1423.18 1821.03,123.472 "/>
<polyline clip-path="url(#clip202)" style="stroke:#000000; stroke-linecap:round; stroke-linejoin:round; stroke-width:2; stroke-opacity:0.1; fill:none" points="2295.81,1423.18 2295.81,123.472 "/>
<polyline clip-path="url(#clip200)" style="stroke:#000000; stroke-linecap:round; stroke-linejoin:round; stroke-width:4; stroke-opacity:1; fill:none" points="340.699,1423.18 2352.76,1423.18 "/>
<polyline clip-path="url(#clip200)" style="stroke:#000000; stroke-linecap:round; stroke-linejoin:round; stroke-width:4; stroke-opacity:1; fill:none" points="396.694,1423.18 396.694,1404.28 "/>
<polyline clip-path="url(#clip200)" style="stroke:#000000; stroke-linecap:round; stroke-linejoin:round; stroke-width:4; stroke-opacity:1; fill:none" points="871.474,1423.18 871.474,1404.28 "/>
<polyline clip-path="url(#clip200)" style="stroke:#000000; stroke-linecap:round; stroke-linejoin:round; stroke-width:4; stroke-opacity:1; fill:none" points="1346.25,1423.18 1346.25,1404.28 "/>
<polyline clip-path="url(#clip200)" style="stroke:#000000; stroke-linecap:round; stroke-linejoin:round; stroke-width:4; stroke-opacity:1; fill:none" points="1821.03,1423.18 1821.03,1404.28 "/>
<polyline clip-path="url(#clip200)" style="stroke:#000000; stroke-linecap:round; stroke-linejoin:round; stroke-width:4; stroke-opacity:1; fill:none" points="2295.81,1423.18 2295.81,1404.28 "/>
<path clip-path="url(#clip200)" d="M396.694 1454.1 Q393.083 1454.1 391.255 1457.66 Q389.449 1461.2 389.449 1468.33 Q389.449 1475.44 391.255 1479.01 Q393.083 1482.55 396.694 1482.55 Q400.329 1482.55 402.134 1479.01 Q403.963 1475.44 403.963 1468.33 Q403.963 1461.2 402.134 1457.66 Q400.329 1454.1 396.694 1454.1 M396.694 1450.39 Q402.505 1450.39 405.56 1455 Q408.639 1459.58 408.639 1468.33 Q408.639 1477.06 405.56 1481.67 Q402.505 1486.25 396.694 1486.25 Q390.884 1486.25 387.806 1481.67 Q384.75 1477.06 384.75 1468.33 Q384.75 1459.58 387.806 1455 Q390.884 1450.39 396.694 1450.39 Z" fill="#000000" fill-rule="nonzero" fill-opacity="1" /><path clip-path="url(#clip200)" d="M831.092 1451.02 L849.448 1451.02 L849.448 1454.96 L835.374 1454.96 L835.374 1463.43 Q836.393 1463.08 837.411 1462.92 Q838.43 1462.73 839.448 1462.73 Q845.235 1462.73 848.615 1465.9 Q851.994 1469.08 851.994 1474.49 Q851.994 1480.07 848.522 1483.17 Q845.05 1486.25 838.731 1486.25 Q836.555 1486.25 834.286 1485.88 Q832.041 1485.51 829.633 1484.77 L829.633 1480.07 Q831.717 1481.2 833.939 1481.76 Q836.161 1482.32 838.638 1482.32 Q842.643 1482.32 844.981 1480.21 Q847.319 1478.1 847.319 1474.49 Q847.319 1470.88 844.981 1468.77 Q842.643 1466.67 838.638 1466.67 Q836.763 1466.67 834.888 1467.08 Q833.036 1467.5 831.092 1468.38 L831.092 1451.02 Z" fill="#000000" fill-rule="nonzero" fill-opacity="1" /><path clip-path="url(#clip200)" d="M871.207 1454.1 Q867.596 1454.1 865.768 1457.66 Q863.962 1461.2 863.962 1468.33 Q863.962 1475.44 865.768 1479.01 Q867.596 1482.55 871.207 1482.55 Q874.842 1482.55 876.647 1479.01 Q878.476 1475.44 878.476 1468.33 Q878.476 1461.2 876.647 1457.66 Q874.842 1454.1 871.207 1454.1 M871.207 1450.39 Q877.017 1450.39 880.073 1455 Q883.152 1459.58 883.152 1468.33 Q883.152 1477.06 880.073 1481.67 Q877.017 1486.25 871.207 1486.25 Q865.397 1486.25 862.318 1481.67 Q859.263 1477.06 859.263 1468.33 Q859.263 1459.58 862.318 1455 Q865.397 1450.39 871.207 1450.39 Z" fill="#000000" fill-rule="nonzero" fill-opacity="1" /><path clip-path="url(#clip200)" d="M901.369 1454.1 Q897.758 1454.1 895.929 1457.66 Q894.124 1461.2 894.124 1468.33 Q894.124 1475.44 895.929 1479.01 Q897.758 1482.55 901.369 1482.55 Q905.003 1482.55 906.809 1479.01 Q908.638 1475.44 908.638 1468.33 Q908.638 1461.2 906.809 1457.66 Q905.003 1454.1 901.369 1454.1 M901.369 1450.39 Q907.179 1450.39 910.235 1455 Q913.314 1459.58 913.314 1468.33 Q913.314 1477.06 910.235 1481.67 Q907.179 1486.25 901.369 1486.25 Q895.559 1486.25 892.48 1481.67 Q889.425 1477.06 889.425 1468.33 Q889.425 1459.58 892.48 1455 Q895.559 1450.39 901.369 1450.39 Z" fill="#000000" fill-rule="nonzero" fill-opacity="1" /><path clip-path="url(#clip200)" d="M1290.78 1481.64 L1298.42 1481.64 L1298.42 1455.28 L1290.11 1456.95 L1290.11 1452.69 L1298.37 1451.02 L1303.05 1451.02 L1303.05 1481.64 L1310.69 1481.64 L1310.69 1485.58 L1290.78 1485.58 L1290.78 1481.64 Z" fill="#000000" fill-rule="nonzero" fill-opacity="1" /><path clip-path="url(#clip200)" d="M1330.13 1454.1 Q1326.52 1454.1 1324.69 1457.66 Q1322.88 1461.2 1322.88 1468.33 Q1322.88 1475.44 1324.69 1479.01 Q1326.52 1482.55 1330.13 1482.55 Q1333.76 1482.55 1335.57 1479.01 Q1337.4 1475.44 1337.4 1468.33 Q1337.4 1461.2 1335.57 1457.66 Q1333.76 1454.1 1330.13 1454.1 M1330.13 1450.39 Q1335.94 1450.39 1339 1455 Q1342.07 1459.58 1342.07 1468.33 Q1342.07 1477.06 1339 1481.67 Q1335.94 1486.25 1330.13 1486.25 Q1324.32 1486.25 1321.24 1481.67 Q1318.19 1477.06 1318.19 1468.33 Q1318.19 1459.58 1321.24 1455 Q1324.32 1450.39 1330.13 1450.39 Z" fill="#000000" fill-rule="nonzero" fill-opacity="1" /><path clip-path="url(#clip200)" d="M1360.29 1454.1 Q1356.68 1454.1 1354.85 1457.66 Q1353.05 1461.2 1353.05 1468.33 Q1353.05 1475.44 1354.85 1479.01 Q1356.68 1482.55 1360.29 1482.55 Q1363.93 1482.55 1365.73 1479.01 Q1367.56 1475.44 1367.56 1468.33 Q1367.56 1461.2 1365.73 1457.66 Q1363.93 1454.1 1360.29 1454.1 M1360.29 1450.39 Q1366.1 1450.39 1369.16 1455 Q1372.24 1459.58 1372.24 1468.33 Q1372.24 1477.06 1369.16 1481.67 Q1366.1 1486.25 1360.29 1486.25 Q1354.48 1486.25 1351.4 1481.67 Q1348.35 1477.06 1348.35 1468.33 Q1348.35 1459.58 1351.4 1455 Q1354.48 1450.39 1360.29 1450.39 Z" fill="#000000" fill-rule="nonzero" fill-opacity="1" /><path clip-path="url(#clip200)" d="M1390.45 1454.1 Q1386.84 1454.1 1385.01 1457.66 Q1383.21 1461.2 1383.21 1468.33 Q1383.21 1475.44 1385.01 1479.01 Q1386.84 1482.55 1390.45 1482.55 Q1394.09 1482.55 1395.89 1479.01 Q1397.72 1475.44 1397.72 1468.33 Q1397.72 1461.2 1395.89 1457.66 Q1394.09 1454.1 1390.45 1454.1 M1390.45 1450.39 Q1396.26 1450.39 1399.32 1455 Q1402.4 1459.58 1402.4 1468.33 Q1402.4 1477.06 1399.32 1481.67 Q1396.26 1486.25 1390.45 1486.25 Q1384.64 1486.25 1381.56 1481.67 Q1378.51 1477.06 1378.51 1468.33 Q1378.51 1459.58 1381.56 1455 Q1384.64 1450.39 1390.45 1450.39 Z" fill="#000000" fill-rule="nonzero" fill-opacity="1" /><path clip-path="url(#clip200)" d="M1765.56 1481.64 L1773.2 1481.64 L1773.2 1455.28 L1764.89 1456.95 L1764.89 1452.69 L1773.15 1451.02 L1777.83 1451.02 L1777.83 1481.64 L1785.46 1481.64 L1785.46 1485.58 L1765.56 1485.58 L1765.56 1481.64 Z" fill="#000000" fill-rule="nonzero" fill-opacity="1" /><path clip-path="url(#clip200)" d="M1794.96 1451.02 L1813.31 1451.02 L1813.31 1454.96 L1799.24 1454.96 L1799.24 1463.43 Q1800.26 1463.08 1801.27 1462.92 Q1802.29 1462.73 1803.31 1462.73 Q1809.1 1462.73 1812.48 1465.9 Q1815.86 1469.08 1815.86 1474.49 Q1815.86 1480.07 1812.39 1483.17 Q1808.91 1486.25 1802.59 1486.25 Q1800.42 1486.25 1798.15 1485.88 Q1795.9 1485.51 1793.5 1484.77 L1793.5 1480.07 Q1795.58 1481.2 1797.8 1481.76 Q1800.02 1482.32 1802.5 1482.32 Q1806.51 1482.32 1808.84 1480.21 Q1811.18 1478.1 1811.18 1474.49 Q1811.18 1470.88 1808.84 1468.77 Q1806.51 1466.67 1802.5 1466.67 Q1800.63 1466.67 1798.75 1467.08 Q1796.9 1467.5 1794.96 1468.38 L1794.96 1451.02 Z" fill="#000000" fill-rule="nonzero" fill-opacity="1" /><path clip-path="url(#clip200)" d="M1835.07 1454.1 Q1831.46 1454.1 1829.63 1457.66 Q1827.83 1461.2 1827.83 1468.33 Q1827.83 1475.44 1829.63 1479.01 Q1831.46 1482.55 1835.07 1482.55 Q1838.71 1482.55 1840.51 1479.01 Q1842.34 1475.44 1842.34 1468.33 Q1842.34 1461.2 1840.51 1457.66 Q1838.71 1454.1 1835.07 1454.1 M1835.07 1450.39 Q1840.88 1450.39 1843.94 1455 Q1847.02 1459.58 1847.02 1468.33 Q1847.02 1477.06 1843.94 1481.67 Q1840.88 1486.25 1835.07 1486.25 Q1829.26 1486.25 1826.18 1481.67 Q1823.13 1477.06 1823.13 1468.33 Q1823.13 1459.58 1826.18 1455 Q1829.26 1450.39 1835.07 1450.39 Z" fill="#000000" fill-rule="nonzero" fill-opacity="1" /><path clip-path="url(#clip200)" d="M1865.23 1454.1 Q1861.62 1454.1 1859.79 1457.66 Q1857.99 1461.2 1857.99 1468.33 Q1857.99 1475.44 1859.79 1479.01 Q1861.62 1482.55 1865.23 1482.55 Q1868.87 1482.55 1870.67 1479.01 Q1872.5 1475.44 1872.5 1468.33 Q1872.5 1461.2 1870.67 1457.66 Q1868.87 1454.1 1865.23 1454.1 M1865.23 1450.39 Q1871.04 1450.39 1874.1 1455 Q1877.18 1459.58 1877.18 1468.33 Q1877.18 1477.06 1874.1 1481.67 Q1871.04 1486.25 1865.23 1486.25 Q1859.42 1486.25 1856.34 1481.67 Q1853.29 1477.06 1853.29 1468.33 Q1853.29 1459.58 1856.34 1455 Q1859.42 1450.39 1865.23 1450.39 Z" fill="#000000" fill-rule="nonzero" fill-opacity="1" /><path clip-path="url(#clip200)" d="M2244.42 1481.64 L2260.74 1481.64 L2260.74 1485.58 L2238.8 1485.58 L2238.8 1481.64 Q2241.46 1478.89 2246.04 1474.26 Q2250.65 1469.61 2251.83 1468.27 Q2254.08 1465.74 2254.95 1464.01 Q2255.86 1462.25 2255.86 1460.56 Q2255.86 1457.8 2253.91 1456.07 Q2251.99 1454.33 2248.89 1454.33 Q2246.69 1454.33 2244.24 1455.09 Q2241.81 1455.86 2239.03 1457.41 L2239.03 1452.69 Q2241.85 1451.55 2244.31 1450.97 Q2246.76 1450.39 2248.8 1450.39 Q2254.17 1450.39 2257.36 1453.08 Q2260.56 1455.77 2260.56 1460.26 Q2260.56 1462.39 2259.75 1464.31 Q2258.96 1466.2 2256.85 1468.8 Q2256.27 1469.47 2253.17 1472.69 Q2250.07 1475.88 2244.42 1481.64 Z" fill="#000000" fill-rule="nonzero" fill-opacity="1" /><path clip-path="url(#clip200)" d="M2280.56 1454.1 Q2276.95 1454.1 2275.12 1457.66 Q2273.31 1461.2 2273.31 1468.33 Q2273.31 1475.44 2275.12 1479.01 Q2276.95 1482.55 2280.56 1482.55 Q2284.19 1482.55 2286 1479.01 Q2287.82 1475.44 2287.82 1468.33 Q2287.82 1461.2 2286 1457.66 Q2284.19 1454.1 2280.56 1454.1 M2280.56 1450.39 Q2286.37 1450.39 2289.42 1455 Q2292.5 1459.58 2292.5 1468.33 Q2292.5 1477.06 2289.42 1481.67 Q2286.37 1486.25 2280.56 1486.25 Q2274.75 1486.25 2271.67 1481.67 Q2268.61 1477.06 2268.61 1468.33 Q2268.61 1459.58 2271.67 1455 Q2274.75 1450.39 2280.56 1450.39 Z" fill="#000000" fill-rule="nonzero" fill-opacity="1" /><path clip-path="url(#clip200)" d="M2310.72 1454.1 Q2307.11 1454.1 2305.28 1457.66 Q2303.47 1461.2 2303.47 1468.33 Q2303.47 1475.44 2305.28 1479.01 Q2307.11 1482.55 2310.72 1482.55 Q2314.35 1482.55 2316.16 1479.01 Q2317.99 1475.44 2317.99 1468.33 Q2317.99 1461.2 2316.16 1457.66 Q2314.35 1454.1 2310.72 1454.1 M2310.72 1450.39 Q2316.53 1450.39 2319.58 1455 Q2322.66 1459.58 2322.66 1468.33 Q2322.66 1477.06 2319.58 1481.67 Q2316.53 1486.25 2310.72 1486.25 Q2304.91 1486.25 2301.83 1481.67 Q2298.77 1477.06 2298.77 1468.33 Q2298.77 1459.58 2301.83 1455 Q2304.91 1450.39 2310.72 1450.39 Z" fill="#000000" fill-rule="nonzero" fill-opacity="1" /><path clip-path="url(#clip200)" d="M2340.88 1454.1 Q2337.27 1454.1 2335.44 1457.66 Q2333.63 1461.2 2333.63 1468.33 Q2333.63 1475.44 2335.44 1479.01 Q2337.27 1482.55 2340.88 1482.55 Q2344.51 1482.55 2346.32 1479.01 Q2348.15 1475.44 2348.15 1468.33 Q2348.15 1461.2 2346.32 1457.66 Q2344.51 1454.1 2340.88 1454.1 M2340.88 1450.39 Q2346.69 1450.39 2349.75 1455 Q2352.82 1459.58 2352.82 1468.33 Q2352.82 1477.06 2349.75 1481.67 Q2346.69 1486.25 2340.88 1486.25 Q2335.07 1486.25 2331.99 1481.67 Q2328.94 1477.06 2328.94 1468.33 Q2328.94 1459.58 2331.99 1455 Q2335.07 1450.39 2340.88 1450.39 Z" fill="#000000" fill-rule="nonzero" fill-opacity="1" /><path clip-path="url(#clip200)" d="M1328.74 1520.52 L1337.4 1520.52 L1358.47 1560.28 L1358.47 1520.52 L1364.71 1520.52 L1364.71 1568.04 L1356.05 1568.04 L1334.98 1528.29 L1334.98 1568.04 L1328.74 1568.04 L1328.74 1520.52 Z" fill="#000000" fill-rule="nonzero" fill-opacity="1" /><polyline clip-path="url(#clip202)" style="stroke:#000000; stroke-linecap:round; stroke-linejoin:round; stroke-width:2; stroke-opacity:0.1; fill:none" points="340.699,1394.58 2352.76,1394.58 "/>
<polyline clip-path="url(#clip202)" style="stroke:#000000; stroke-linecap:round; stroke-linejoin:round; stroke-width:2; stroke-opacity:0.1; fill:none" points="340.699,1052.91 2352.76,1052.91 "/>
<polyline clip-path="url(#clip202)" style="stroke:#000000; stroke-linecap:round; stroke-linejoin:round; stroke-width:2; stroke-opacity:0.1; fill:none" points="340.699,711.241 2352.76,711.241 "/>
<polyline clip-path="url(#clip202)" style="stroke:#000000; stroke-linecap:round; stroke-linejoin:round; stroke-width:2; stroke-opacity:0.1; fill:none" points="340.699,369.569 2352.76,369.569 "/>
<polyline clip-path="url(#clip200)" style="stroke:#000000; stroke-linecap:round; stroke-linejoin:round; stroke-width:4; stroke-opacity:1; fill:none" points="340.699,1423.18 340.699,123.472 "/>
<polyline clip-path="url(#clip200)" style="stroke:#000000; stroke-linecap:round; stroke-linejoin:round; stroke-width:4; stroke-opacity:1; fill:none" points="340.699,1394.58 359.597,1394.58 "/>
<polyline clip-path="url(#clip200)" style="stroke:#000000; stroke-linecap:round; stroke-linejoin:round; stroke-width:4; stroke-opacity:1; fill:none" points="340.699,1052.91 359.597,1052.91 "/>
<polyline clip-path="url(#clip200)" style="stroke:#000000; stroke-linecap:round; stroke-linejoin:round; stroke-width:4; stroke-opacity:1; fill:none" points="340.699,711.241 359.597,711.241 "/>
<polyline clip-path="url(#clip200)" style="stroke:#000000; stroke-linecap:round; stroke-linejoin:round; stroke-width:4; stroke-opacity:1; fill:none" points="340.699,369.569 359.597,369.569 "/>
<path clip-path="url(#clip200)" d="M292.755 1380.38 Q289.143 1380.38 287.315 1383.95 Q285.509 1387.49 285.509 1394.62 Q285.509 1401.72 287.315 1405.29 Q289.143 1408.83 292.755 1408.83 Q296.389 1408.83 298.194 1405.29 Q300.023 1401.72 300.023 1394.62 Q300.023 1387.49 298.194 1383.95 Q296.389 1380.38 292.755 1380.38 M292.755 1376.68 Q298.565 1376.68 301.62 1381.29 Q304.699 1385.87 304.699 1394.62 Q304.699 1403.35 301.62 1407.95 Q298.565 1412.53 292.755 1412.53 Q286.944 1412.53 283.866 1407.95 Q280.81 1403.35 280.81 1394.62 Q280.81 1385.87 283.866 1381.29 Q286.944 1376.68 292.755 1376.68 Z" fill="#000000" fill-rule="nonzero" fill-opacity="1" /><path clip-path="url(#clip200)" d="M121.043 1072.7 L137.362 1072.7 L137.362 1076.64 L115.418 1076.64 L115.418 1072.7 Q118.08 1069.95 122.663 1065.32 Q127.269 1060.67 128.45 1059.33 Q130.695 1056.8 131.575 1055.07 Q132.478 1053.31 132.478 1051.62 Q132.478 1048.86 130.533 1047.13 Q128.612 1045.39 125.51 1045.39 Q123.311 1045.39 120.857 1046.15 Q118.427 1046.92 115.649 1048.47 L115.649 1043.75 Q118.473 1042.61 120.927 1042.03 Q123.38 1041.45 125.418 1041.45 Q130.788 1041.45 133.982 1044.14 Q137.177 1046.83 137.177 1051.32 Q137.177 1053.45 136.367 1055.37 Q135.579 1057.26 133.473 1059.86 Q132.894 1060.53 129.792 1063.75 Q126.691 1066.94 121.043 1072.7 Z" fill="#000000" fill-rule="nonzero" fill-opacity="1" /><path clip-path="url(#clip200)" d="M147.177 1070.76 L152.061 1070.76 L152.061 1076.64 L147.177 1076.64 L147.177 1070.76 Z" fill="#000000" fill-rule="nonzero" fill-opacity="1" /><path clip-path="url(#clip200)" d="M172.246 1045.16 Q168.635 1045.16 166.806 1048.72 Q165.001 1052.26 165.001 1059.39 Q165.001 1066.5 166.806 1070.07 Q168.635 1073.61 172.246 1073.61 Q175.88 1073.61 177.686 1070.07 Q179.514 1066.5 179.514 1059.39 Q179.514 1052.26 177.686 1048.72 Q175.88 1045.16 172.246 1045.16 M172.246 1041.45 Q178.056 1041.45 181.112 1046.06 Q184.19 1050.64 184.19 1059.39 Q184.19 1068.12 181.112 1072.73 Q178.056 1077.31 172.246 1077.31 Q166.436 1077.31 163.357 1072.73 Q160.302 1068.12 160.302 1059.39 Q160.302 1050.64 163.357 1046.06 Q166.436 1041.45 172.246 1041.45 Z" fill="#000000" fill-rule="nonzero" fill-opacity="1" /><path clip-path="url(#clip200)" d="M220.579 1051.18 L210 1061.8 L220.579 1072.38 L217.824 1075.18 L207.199 1064.56 L196.575 1075.18 L193.843 1072.38 L204.399 1061.8 L193.843 1051.18 L196.575 1048.38 L207.199 1059 L217.824 1048.38 L220.579 1051.18 Z" fill="#000000" fill-rule="nonzero" fill-opacity="1" /><path clip-path="url(#clip200)" d="M232.94 1072.7 L240.579 1072.7 L240.579 1046.34 L232.269 1048.01 L232.269 1043.75 L240.533 1042.08 L245.209 1042.08 L245.209 1072.7 L252.847 1072.7 L252.847 1076.64 L232.94 1076.64 L232.94 1072.7 Z" fill="#000000" fill-rule="nonzero" fill-opacity="1" /><path clip-path="url(#clip200)" d="M272.292 1045.16 Q268.681 1045.16 266.852 1048.72 Q265.046 1052.26 265.046 1059.39 Q265.046 1066.5 266.852 1070.07 Q268.681 1073.61 272.292 1073.61 Q275.926 1073.61 277.732 1070.07 Q279.56 1066.5 279.56 1059.39 Q279.56 1052.26 277.732 1048.72 Q275.926 1045.16 272.292 1045.16 M272.292 1041.45 Q278.102 1041.45 281.157 1046.06 Q284.236 1050.64 284.236 1059.39 Q284.236 1068.12 281.157 1072.73 Q278.102 1077.31 272.292 1077.31 Q266.482 1077.31 263.403 1072.73 Q260.347 1068.12 260.347 1059.39 Q260.347 1050.64 263.403 1046.06 Q266.482 1041.45 272.292 1041.45 Z" fill="#000000" fill-rule="nonzero" fill-opacity="1" /><path clip-path="url(#clip200)" d="M296.913 1024.46 L287.321 1039.45 L296.913 1039.45 L296.913 1024.46 M295.916 1021.15 L300.693 1021.15 L300.693 1039.45 L304.699 1039.45 L304.699 1042.61 L300.693 1042.61 L300.693 1049.23 L296.913 1049.23 L296.913 1042.61 L284.236 1042.61 L284.236 1038.94 L295.916 1021.15 Z" fill="#000000" fill-rule="nonzero" fill-opacity="1" /><path clip-path="url(#clip200)" d="M129.862 704.482 L118.056 722.931 L129.862 722.931 L129.862 704.482 M128.635 700.408 L134.515 700.408 L134.515 722.931 L139.445 722.931 L139.445 726.82 L134.515 726.82 L134.515 734.968 L129.862 734.968 L129.862 726.82 L114.26 726.82 L114.26 722.306 L128.635 700.408 Z" fill="#000000" fill-rule="nonzero" fill-opacity="1" /><path clip-path="url(#clip200)" d="M147.177 729.089 L152.061 729.089 L152.061 734.968 L147.177 734.968 L147.177 729.089 Z" fill="#000000" fill-rule="nonzero" fill-opacity="1" /><path clip-path="url(#clip200)" d="M172.246 703.487 Q168.635 703.487 166.806 707.052 Q165.001 710.593 165.001 717.723 Q165.001 724.829 166.806 728.394 Q168.635 731.936 172.246 731.936 Q175.88 731.936 177.686 728.394 Q179.514 724.829 179.514 717.723 Q179.514 710.593 177.686 707.052 Q175.88 703.487 172.246 703.487 M172.246 699.783 Q178.056 699.783 181.112 704.39 Q184.19 708.973 184.19 717.723 Q184.19 726.45 181.112 731.056 Q178.056 735.64 172.246 735.64 Q166.436 735.64 163.357 731.056 Q160.302 726.45 160.302 717.723 Q160.302 708.973 163.357 704.39 Q166.436 699.783 172.246 699.783 Z" fill="#000000" fill-rule="nonzero" fill-opacity="1" /><path clip-path="url(#clip200)" d="M220.579 709.505 L210 720.13 L220.579 730.709 L217.824 733.51 L207.199 722.885 L196.575 733.51 L193.843 730.709 L204.399 720.13 L193.843 709.505 L196.575 706.704 L207.199 717.329 L217.824 706.704 L220.579 709.505 Z" fill="#000000" fill-rule="nonzero" fill-opacity="1" /><path clip-path="url(#clip200)" d="M232.94 731.033 L240.579 731.033 L240.579 704.667 L232.269 706.334 L232.269 702.075 L240.533 700.408 L245.209 700.408 L245.209 731.033 L252.847 731.033 L252.847 734.968 L232.94 734.968 L232.94 731.033 Z" fill="#000000" fill-rule="nonzero" fill-opacity="1" /><path clip-path="url(#clip200)" d="M272.292 703.487 Q268.681 703.487 266.852 707.052 Q265.046 710.593 265.046 717.723 Q265.046 724.829 266.852 728.394 Q268.681 731.936 272.292 731.936 Q275.926 731.936 277.732 728.394 Q279.56 724.829 279.56 717.723 Q279.56 710.593 277.732 707.052 Q275.926 703.487 272.292 703.487 M272.292 699.783 Q278.102 699.783 281.157 704.39 Q284.236 708.973 284.236 717.723 Q284.236 726.45 281.157 731.056 Q278.102 735.64 272.292 735.64 Q266.482 735.64 263.403 731.056 Q260.347 726.45 260.347 717.723 Q260.347 708.973 263.403 704.39 Q266.482 699.783 272.292 699.783 Z" fill="#000000" fill-rule="nonzero" fill-opacity="1" /><path clip-path="url(#clip200)" d="M296.913 682.788 L287.321 697.778 L296.913 697.778 L296.913 682.788 M295.916 679.478 L300.693 679.478 L300.693 697.778 L304.699 697.778 L304.699 700.937 L300.693 700.937 L300.693 707.558 L296.913 707.558 L296.913 700.937 L284.236 700.937 L284.236 697.27 L295.916 679.478 Z" fill="#000000" fill-rule="nonzero" fill-opacity="1" /><path clip-path="url(#clip200)" d="M127.593 374.153 Q124.445 374.153 122.593 376.306 Q120.765 378.459 120.765 382.209 Q120.765 385.936 122.593 388.112 Q124.445 390.264 127.593 390.264 Q130.742 390.264 132.57 388.112 Q134.422 385.936 134.422 382.209 Q134.422 378.459 132.57 376.306 Q130.742 374.153 127.593 374.153 M136.876 359.501 L136.876 363.76 Q135.117 362.927 133.311 362.487 Q131.529 362.047 129.769 362.047 Q125.14 362.047 122.686 365.172 Q120.255 368.297 119.908 374.616 Q121.274 372.602 123.334 371.538 Q125.394 370.45 127.871 370.45 Q133.08 370.45 136.089 373.621 Q139.121 376.769 139.121 382.209 Q139.121 387.533 135.973 390.75 Q132.825 393.968 127.593 393.968 Q121.598 393.968 118.427 389.385 Q115.256 384.778 115.256 376.051 Q115.256 367.857 119.144 362.996 Q123.033 358.112 129.584 358.112 Q131.343 358.112 133.126 358.459 Q134.931 358.806 136.876 359.501 Z" fill="#000000" fill-rule="nonzero" fill-opacity="1" /><path clip-path="url(#clip200)" d="M147.177 387.417 L152.061 387.417 L152.061 393.297 L147.177 393.297 L147.177 387.417 Z" fill="#000000" fill-rule="nonzero" fill-opacity="1" /><path clip-path="url(#clip200)" d="M172.246 361.815 Q168.635 361.815 166.806 365.38 Q165.001 368.922 165.001 376.051 Q165.001 383.158 166.806 386.723 Q168.635 390.264 172.246 390.264 Q175.88 390.264 177.686 386.723 Q179.514 383.158 179.514 376.051 Q179.514 368.922 177.686 365.38 Q175.88 361.815 172.246 361.815 M172.246 358.112 Q178.056 358.112 181.112 362.718 Q184.19 367.301 184.19 376.051 Q184.19 384.778 181.112 389.385 Q178.056 393.968 172.246 393.968 Q166.436 393.968 163.357 389.385 Q160.302 384.778 160.302 376.051 Q160.302 367.301 163.357 362.718 Q166.436 358.112 172.246 358.112 Z" fill="#000000" fill-rule="nonzero" fill-opacity="1" /><path clip-path="url(#clip200)" d="M220.579 367.834 L210 378.459 L220.579 389.037 L217.824 391.838 L207.199 381.213 L196.575 391.838 L193.843 389.037 L204.399 378.459 L193.843 367.834 L196.575 365.033 L207.199 375.658 L217.824 365.033 L220.579 367.834 Z" fill="#000000" fill-rule="nonzero" fill-opacity="1" /><path clip-path="url(#clip200)" d="M232.94 389.362 L240.579 389.362 L240.579 362.996 L232.269 364.663 L232.269 360.403 L240.533 358.737 L245.209 358.737 L245.209 389.362 L252.847 389.362 L252.847 393.297 L232.94 393.297 L232.94 389.362 Z" fill="#000000" fill-rule="nonzero" fill-opacity="1" /><path clip-path="url(#clip200)" d="M272.292 361.815 Q268.681 361.815 266.852 365.38 Q265.046 368.922 265.046 376.051 Q265.046 383.158 266.852 386.723 Q268.681 390.264 272.292 390.264 Q275.926 390.264 277.732 386.723 Q279.56 383.158 279.56 376.051 Q279.56 368.922 277.732 365.38 Q275.926 361.815 272.292 361.815 M272.292 358.112 Q278.102 358.112 281.157 362.718 Q284.236 367.301 284.236 376.051 Q284.236 384.778 281.157 389.385 Q278.102 393.968 272.292 393.968 Q266.482 393.968 263.403 389.385 Q260.347 384.778 260.347 376.051 Q260.347 367.301 263.403 362.718 Q266.482 358.112 272.292 358.112 Z" fill="#000000" fill-rule="nonzero" fill-opacity="1" /><path clip-path="url(#clip200)" d="M296.913 341.116 L287.321 356.106 L296.913 356.106 L296.913 341.116 M295.916 337.806 L300.693 337.806 L300.693 356.106 L304.699 356.106 L304.699 359.266 L300.693 359.266 L300.693 365.886 L296.913 365.886 L296.913 359.266 L284.236 359.266 L284.236 355.598 L295.916 337.806 Z" fill="#000000" fill-rule="nonzero" fill-opacity="1" /><path clip-path="url(#clip200)" d="M16.4842 923.811 L16.4842 883.612 L21.895 883.612 L21.895 900.481 L64.0042 900.481 L64.0042 906.942 L21.895 906.942 L21.895 923.811 L16.4842 923.811 Z" fill="#000000" fill-rule="nonzero" fill-opacity="1" /><path clip-path="url(#clip200)" d="M28.3562 879.665 L28.3562 873.809 L64.0042 873.809 L64.0042 879.665 L28.3562 879.665 M14.479 879.665 L14.479 873.809 L21.895 873.809 L21.895 879.665 L14.479 879.665 Z" fill="#000000" fill-rule="nonzero" fill-opacity="1" /><path clip-path="url(#clip200)" d="M35.1993 833.8 Q31.2526 831.604 29.3747 828.548 Q27.4968 825.493 27.4968 821.355 Q27.4968 815.785 31.4117 812.762 Q35.2948 809.738 42.4881 809.738 L64.0042 809.738 L64.0042 815.626 L42.679 815.626 Q37.5546 815.626 35.072 817.44 Q32.5894 819.255 32.5894 822.978 Q32.5894 827.53 35.6131 830.172 Q38.6368 832.814 43.8567 832.814 L64.0042 832.814 L64.0042 838.702 L42.679 838.702 Q37.5228 838.702 35.072 840.516 Q32.5894 842.33 32.5894 846.118 Q32.5894 850.606 35.6449 853.247 Q38.6686 855.889 43.8567 855.889 L64.0042 855.889 L64.0042 861.777 L28.3562 861.777 L28.3562 855.889 L33.8944 855.889 Q30.616 853.884 29.0564 851.083 Q27.4968 848.282 27.4968 844.431 Q27.4968 840.548 29.4702 837.842 Q31.4436 835.105 35.1993 833.8 Z" fill="#000000" fill-rule="nonzero" fill-opacity="1" /><path clip-path="url(#clip200)" d="M44.7161 767.565 L47.5806 767.565 L47.5806 794.492 Q53.6281 794.11 56.8109 790.864 Q59.9619 787.585 59.9619 781.761 Q59.9619 778.387 59.1344 775.236 Q58.3069 772.053 56.6518 768.934 L62.1899 768.934 Q63.5267 772.085 64.227 775.395 Q64.9272 778.705 64.9272 782.111 Q64.9272 790.641 59.9619 795.638 Q54.9967 800.603 46.5303 800.603 Q37.7774 800.603 32.6531 795.892 Q27.4968 791.15 27.4968 783.129 Q27.4968 775.936 32.1438 771.766 Q36.7589 767.565 44.7161 767.565 M42.9973 773.421 Q38.1912 773.485 35.3266 776.127 Q32.4621 778.737 32.4621 783.066 Q32.4621 787.967 35.2312 790.927 Q38.0002 793.855 43.0292 794.301 L42.9973 773.421 Z" fill="#000000" fill-rule="nonzero" fill-opacity="1" /><path clip-path="url(#clip200)" d="M14.5426 723.164 Q21.8632 727.429 29.0246 729.498 Q36.186 731.567 43.5384 731.567 Q50.8908 731.567 58.1159 729.498 Q65.3091 727.397 72.5979 723.164 L72.5979 728.257 Q65.1182 733.031 57.8931 735.418 Q50.668 737.774 43.5384 737.774 Q36.4406 737.774 29.2474 735.418 Q22.0542 733.063 14.5426 728.257 L14.5426 723.164 Z" fill="#000000" fill-rule="nonzero" fill-opacity="1" /><path clip-path="url(#clip200)" d="M42.4881 682.169 L64.0042 682.169 L64.0042 688.026 L42.679 688.026 Q37.6183 688.026 35.1038 689.999 Q32.5894 691.972 32.5894 695.919 Q32.5894 700.661 35.6131 703.399 Q38.6368 706.136 43.8567 706.136 L64.0042 706.136 L64.0042 712.024 L28.3562 712.024 L28.3562 706.136 L33.8944 706.136 Q30.6797 704.035 29.0883 701.203 Q27.4968 698.338 27.4968 694.614 Q27.4968 688.471 31.3163 685.32 Q35.1038 682.169 42.4881 682.169 Z" fill="#000000" fill-rule="nonzero" fill-opacity="1" /><path clip-path="url(#clip200)" d="M29.4065 647.762 L34.9447 647.762 Q33.6716 650.245 33.035 652.919 Q32.3984 655.592 32.3984 658.457 Q32.3984 662.817 33.7352 665.013 Q35.072 667.178 37.7456 667.178 Q39.7826 667.178 40.9603 665.618 Q42.1061 664.059 43.1565 659.348 L43.6021 657.343 Q44.9389 651.104 47.3897 648.494 Q49.8086 645.853 54.1691 645.853 Q59.1344 645.853 62.0308 649.799 Q64.9272 653.714 64.9272 660.589 Q64.9272 663.454 64.3543 666.573 Q63.8132 669.66 62.6992 673.098 L56.6518 673.098 Q58.3387 669.851 59.198 666.7 Q60.0256 663.549 60.0256 660.462 Q60.0256 656.324 58.6251 654.096 Q57.1929 651.868 54.6147 651.868 Q52.2276 651.868 50.9545 653.492 Q49.6813 655.083 48.5037 660.526 L48.0262 662.563 Q46.8804 668.005 44.5251 670.424 Q42.138 672.843 38.0002 672.843 Q32.9713 672.843 30.2341 669.279 Q27.4968 665.714 27.4968 659.157 Q27.4968 655.911 27.9743 653.046 Q28.4517 650.181 29.4065 647.762 Z" fill="#000000" fill-rule="nonzero" fill-opacity="1" /><path clip-path="url(#clip200)" d="M14.5426 637.45 L14.5426 632.357 Q22.0542 627.583 29.2474 625.228 Q36.4406 622.841 43.5384 622.841 Q50.668 622.841 57.8931 625.228 Q65.1182 627.583 72.5979 632.357 L72.5979 637.45 Q65.3091 633.217 58.1159 631.148 Q50.8908 629.047 43.5384 629.047 Q36.186 629.047 29.0246 631.148 Q21.8632 633.217 14.5426 637.45 Z" fill="#000000" fill-rule="nonzero" fill-opacity="1" /><path clip-path="url(#clip200)" d="M820.94 12.096 L872.103 12.096 L872.103 18.9825 L850.633 18.9825 L850.633 72.576 L842.41 72.576 L842.41 18.9825 L820.94 18.9825 L820.94 12.096 Z" fill="#000000" fill-rule="nonzero" fill-opacity="1" /><path clip-path="url(#clip200)" d="M877.126 27.2059 L884.58 27.2059 L884.58 72.576 L877.126 72.576 L877.126 27.2059 M877.126 9.54393 L884.58 9.54393 L884.58 18.9825 L877.126 18.9825 L877.126 9.54393 Z" fill="#000000" fill-rule="nonzero" fill-opacity="1" /><path clip-path="url(#clip200)" d="M935.5 35.9153 Q938.295 30.8922 942.184 28.5022 Q946.073 26.1121 951.339 26.1121 Q958.428 26.1121 962.276 31.0947 Q966.125 36.0368 966.125 45.1919 L966.125 72.576 L958.631 72.576 L958.631 45.4349 Q958.631 38.913 956.322 35.7533 Q954.013 32.5936 949.273 32.5936 Q943.48 32.5936 940.118 36.4419 Q936.756 40.2903 936.756 46.9338 L936.756 72.576 L929.261 72.576 L929.261 45.4349 Q929.261 38.8725 926.952 35.7533 Q924.643 32.5936 919.823 32.5936 Q914.111 32.5936 910.749 36.4824 Q907.387 40.3308 907.387 46.9338 L907.387 72.576 L899.892 72.576 L899.892 27.2059 L907.387 27.2059 L907.387 34.2544 Q909.939 30.082 913.503 28.0971 Q917.068 26.1121 921.97 26.1121 Q926.912 26.1121 930.355 28.6237 Q933.839 31.1352 935.5 35.9153 Z" fill="#000000" fill-rule="nonzero" fill-opacity="1" /><path clip-path="url(#clip200)" d="M1019.8 48.0275 L1019.8 51.6733 L985.529 51.6733 Q986.015 59.3701 990.147 63.421 Q994.319 67.4314 1001.73 67.4314 Q1006.03 67.4314 1010.04 66.3781 Q1014.09 65.3249 1018.06 63.2184 L1018.06 70.267 Q1014.05 71.9684 1009.83 72.8596 Q1005.62 73.7508 1001.29 73.7508 Q990.43 73.7508 984.07 67.4314 Q977.751 61.1119 977.751 50.3365 Q977.751 39.1965 983.746 32.6746 Q989.782 26.1121 999.99 26.1121 Q1009.15 26.1121 1014.45 32.0264 Q1019.8 37.9003 1019.8 48.0275 M1012.35 45.84 Q1012.26 39.7232 1008.9 36.0774 Q1005.58 32.4315 1000.07 32.4315 Q993.833 32.4315 990.066 35.9558 Q986.339 39.4801 985.772 45.8805 L1012.35 45.84 Z" fill="#000000" fill-rule="nonzero" fill-opacity="1" /><path clip-path="url(#clip200)" d="M1065.78 14.324 L1065.78 27.2059 L1081.13 27.2059 L1081.13 32.9987 L1065.78 32.9987 L1065.78 57.6282 Q1065.78 63.1779 1067.28 64.7578 Q1068.82 66.3376 1073.47 66.3376 L1081.13 66.3376 L1081.13 72.576 L1073.47 72.576 Q1064.85 72.576 1061.56 69.3758 Q1058.28 66.1351 1058.28 57.6282 L1058.28 32.9987 L1052.81 32.9987 L1052.81 27.2059 L1058.28 27.2059 L1058.28 14.324 L1065.78 14.324 Z" fill="#000000" fill-rule="nonzero" fill-opacity="1" /><path clip-path="url(#clip200)" d="M1108.51 32.4315 Q1102.52 32.4315 1099.03 37.1306 Q1095.55 41.7891 1095.55 49.9314 Q1095.55 58.0738 1098.99 62.7728 Q1102.48 67.4314 1108.51 67.4314 Q1114.47 67.4314 1117.95 62.7323 Q1121.44 58.0333 1121.44 49.9314 Q1121.44 41.8701 1117.95 37.1711 Q1114.47 32.4315 1108.51 32.4315 M1108.51 26.1121 Q1118.24 26.1121 1123.79 32.4315 Q1129.34 38.7509 1129.34 49.9314 Q1129.34 61.0714 1123.79 67.4314 Q1118.24 73.7508 1108.51 73.7508 Q1098.75 73.7508 1093.2 67.4314 Q1087.69 61.0714 1087.69 49.9314 Q1087.69 38.7509 1093.2 32.4315 Q1098.75 26.1121 1108.51 26.1121 Z" fill="#000000" fill-rule="nonzero" fill-opacity="1" /><path clip-path="url(#clip200)" d="M1200.71 28.9478 L1200.71 35.9153 Q1197.55 34.1734 1194.35 33.3227 Q1191.19 32.4315 1187.95 32.4315 Q1180.7 32.4315 1176.69 37.0496 Q1172.68 41.6271 1172.68 49.9314 Q1172.68 58.2358 1176.69 62.8538 Q1180.7 67.4314 1187.95 67.4314 Q1191.19 67.4314 1194.35 66.5807 Q1197.55 65.6895 1200.71 63.9476 L1200.71 70.8341 Q1197.59 72.2924 1194.23 73.0216 Q1190.91 73.7508 1187.14 73.7508 Q1176.89 73.7508 1170.86 67.3098 Q1164.82 60.8689 1164.82 49.9314 Q1164.82 38.832 1170.9 32.472 Q1177.01 26.1121 1187.63 26.1121 Q1191.07 26.1121 1194.35 26.8413 Q1197.63 27.5299 1200.71 28.9478 Z" fill="#000000" fill-rule="nonzero" fill-opacity="1" /><path clip-path="url(#clip200)" d="M1231.26 32.4315 Q1225.26 32.4315 1221.78 37.1306 Q1218.29 41.7891 1218.29 49.9314 Q1218.29 58.0738 1221.74 62.7728 Q1225.22 67.4314 1231.26 67.4314 Q1237.21 67.4314 1240.7 62.7323 Q1244.18 58.0333 1244.18 49.9314 Q1244.18 41.8701 1240.7 37.1711 Q1237.21 32.4315 1231.26 32.4315 M1231.26 26.1121 Q1240.98 26.1121 1246.53 32.4315 Q1252.08 38.7509 1252.08 49.9314 Q1252.08 61.0714 1246.53 67.4314 Q1240.98 73.7508 1231.26 73.7508 Q1221.49 73.7508 1215.94 67.4314 Q1210.43 61.0714 1210.43 49.9314 Q1210.43 38.7509 1215.94 32.4315 Q1221.49 26.1121 1231.26 26.1121 Z" fill="#000000" fill-rule="nonzero" fill-opacity="1" /><path clip-path="url(#clip200)" d="M1299.76 35.9153 Q1302.55 30.8922 1306.44 28.5022 Q1310.33 26.1121 1315.6 26.1121 Q1322.69 26.1121 1326.53 31.0947 Q1330.38 36.0368 1330.38 45.1919 L1330.38 72.576 L1322.89 72.576 L1322.89 45.4349 Q1322.89 38.913 1320.58 35.7533 Q1318.27 32.5936 1313.53 32.5936 Q1307.74 32.5936 1304.38 36.4419 Q1301.01 40.2903 1301.01 46.9338 L1301.01 72.576 L1293.52 72.576 L1293.52 45.4349 Q1293.52 38.8725 1291.21 35.7533 Q1288.9 32.5936 1284.08 32.5936 Q1278.37 32.5936 1275.01 36.4824 Q1271.64 40.3308 1271.64 46.9338 L1271.64 72.576 L1264.15 72.576 L1264.15 27.2059 L1271.64 27.2059 L1271.64 34.2544 Q1274.2 30.082 1277.76 28.0971 Q1281.33 26.1121 1286.23 26.1121 Q1291.17 26.1121 1294.61 28.6237 Q1298.1 31.1352 1299.76 35.9153 Z" fill="#000000" fill-rule="nonzero" fill-opacity="1" /><path clip-path="url(#clip200)" d="M1352.46 65.7705 L1352.46 89.8329 L1344.97 89.8329 L1344.97 27.2059 L1352.46 27.2059 L1352.46 34.0924 Q1354.81 30.0415 1358.37 28.0971 Q1361.98 26.1121 1366.96 26.1121 Q1375.23 26.1121 1380.37 32.6746 Q1385.56 39.2371 1385.56 49.9314 Q1385.56 60.6258 1380.37 67.1883 Q1375.23 73.7508 1366.96 73.7508 Q1361.98 73.7508 1358.37 71.8063 Q1354.81 69.8214 1352.46 65.7705 M1377.82 49.9314 Q1377.82 41.7081 1374.42 37.0496 Q1371.05 32.3505 1365.14 32.3505 Q1359.22 32.3505 1355.82 37.0496 Q1352.46 41.7081 1352.46 49.9314 Q1352.46 58.1548 1355.82 62.8538 Q1359.22 67.5124 1365.14 67.5124 Q1371.05 67.5124 1374.42 62.8538 Q1377.82 58.1548 1377.82 49.9314 Z" fill="#000000" fill-rule="nonzero" fill-opacity="1" /><path clip-path="url(#clip200)" d="M1397.14 54.671 L1397.14 27.2059 L1404.59 27.2059 L1404.59 54.3874 Q1404.59 60.8284 1407.11 64.0691 Q1409.62 67.2693 1414.64 67.2693 Q1420.68 67.2693 1424.16 63.421 Q1427.68 59.5726 1427.68 52.9291 L1427.68 27.2059 L1435.14 27.2059 L1435.14 72.576 L1427.68 72.576 L1427.68 65.6084 Q1424.97 69.7404 1421.37 71.7658 Q1417.8 73.7508 1413.06 73.7508 Q1405.24 73.7508 1401.19 68.8897 Q1397.14 64.0286 1397.14 54.671 M1415.9 26.1121 L1415.9 26.1121 Z" fill="#000000" fill-rule="nonzero" fill-opacity="1" /><path clip-path="url(#clip200)" d="M1457.86 14.324 L1457.86 27.2059 L1473.22 27.2059 L1473.22 32.9987 L1457.86 32.9987 L1457.86 57.6282 Q1457.86 63.1779 1459.36 64.7578 Q1460.9 66.3376 1465.56 66.3376 L1473.22 66.3376 L1473.22 72.576 L1465.56 72.576 Q1456.93 72.576 1453.65 69.3758 Q1450.37 66.1351 1450.37 57.6282 L1450.37 32.9987 L1444.9 32.9987 L1444.9 27.2059 L1450.37 27.2059 L1450.37 14.324 L1457.86 14.324 Z" fill="#000000" fill-rule="nonzero" fill-opacity="1" /><path clip-path="url(#clip200)" d="M1521.83 48.0275 L1521.83 51.6733 L1487.56 51.6733 Q1488.04 59.3701 1492.18 63.421 Q1496.35 67.4314 1503.76 67.4314 Q1508.05 67.4314 1512.07 66.3781 Q1516.12 65.3249 1520.09 63.2184 L1520.09 70.267 Q1516.08 71.9684 1511.86 72.8596 Q1507.65 73.7508 1503.32 73.7508 Q1492.46 73.7508 1486.1 67.4314 Q1479.78 61.1119 1479.78 50.3365 Q1479.78 39.1965 1485.77 32.6746 Q1491.81 26.1121 1502.02 26.1121 Q1511.17 26.1121 1516.48 32.0264 Q1521.83 37.9003 1521.83 48.0275 M1514.37 45.84 Q1514.29 39.7232 1510.93 36.0774 Q1507.61 32.4315 1502.1 32.4315 Q1495.86 32.4315 1492.09 35.9558 Q1488.37 39.4801 1487.8 45.8805 L1514.37 45.84 Z" fill="#000000" fill-rule="nonzero" fill-opacity="1" /><path clip-path="url(#clip200)" d="M1568.94 18.8205 L1568.94 41.5461 L1579.23 41.5461 Q1584.94 41.5461 1588.06 38.5889 Q1591.18 35.6318 1591.18 30.163 Q1591.18 24.7348 1588.06 21.7777 Q1584.94 18.8205 1579.23 18.8205 L1568.94 18.8205 M1560.76 12.096 L1579.23 12.096 Q1589.4 12.096 1594.58 16.714 Q1599.81 21.2916 1599.81 30.163 Q1599.81 39.1155 1594.58 43.6931 Q1589.4 48.2706 1579.23 48.2706 L1568.94 48.2706 L1568.94 72.576 L1560.76 72.576 L1560.76 12.096 Z" fill="#000000" fill-rule="nonzero" fill-opacity="1" /><path clip-path="url(#clip200)" d="M1625.09 32.4315 Q1619.09 32.4315 1615.61 37.1306 Q1612.12 41.7891 1612.12 49.9314 Q1612.12 58.0738 1615.57 62.7728 Q1619.05 67.4314 1625.09 67.4314 Q1631.04 67.4314 1634.52 62.7323 Q1638.01 58.0333 1638.01 49.9314 Q1638.01 41.8701 1634.52 37.1711 Q1631.04 32.4315 1625.09 32.4315 M1625.09 26.1121 Q1634.81 26.1121 1640.36 32.4315 Q1645.91 38.7509 1645.91 49.9314 Q1645.91 61.0714 1640.36 67.4314 Q1634.81 73.7508 1625.09 73.7508 Q1615.32 73.7508 1609.77 67.4314 Q1604.26 61.0714 1604.26 49.9314 Q1604.26 38.7509 1609.77 32.4315 Q1615.32 26.1121 1625.09 26.1121 Z" fill="#000000" fill-rule="nonzero" fill-opacity="1" /><path clip-path="url(#clip200)" d="M1665.47 65.7705 L1665.47 89.8329 L1657.98 89.8329 L1657.98 27.2059 L1665.47 27.2059 L1665.47 34.0924 Q1667.82 30.0415 1671.39 28.0971 Q1674.99 26.1121 1679.98 26.1121 Q1688.24 26.1121 1693.38 32.6746 Q1698.57 39.2371 1698.57 49.9314 Q1698.57 60.6258 1693.38 67.1883 Q1688.24 73.7508 1679.98 73.7508 Q1674.99 73.7508 1671.39 71.8063 Q1667.82 69.8214 1665.47 65.7705 M1690.83 49.9314 Q1690.83 41.7081 1687.43 37.0496 Q1684.07 32.3505 1678.15 32.3505 Q1672.24 32.3505 1668.84 37.0496 Q1665.47 41.7081 1665.47 49.9314 Q1665.47 58.1548 1668.84 62.8538 Q1672.24 67.5124 1678.15 67.5124 Q1684.07 67.5124 1687.43 62.8538 Q1690.83 58.1548 1690.83 49.9314 Z" fill="#000000" fill-rule="nonzero" fill-opacity="1" /><path clip-path="url(#clip200)" d="M1737.62 12.096 L1745.8 12.096 L1745.8 65.6895 L1775.25 65.6895 L1775.25 72.576 L1737.62 72.576 L1737.62 12.096 Z" fill="#000000" fill-rule="nonzero" fill-opacity="1" /><path clip-path="url(#clip200)" d="M1783.52 27.2059 L1790.97 27.2059 L1790.97 72.576 L1783.52 72.576 L1783.52 27.2059 M1783.52 9.54393 L1790.97 9.54393 L1790.97 18.9825 L1783.52 18.9825 L1783.52 9.54393 Z" fill="#000000" fill-rule="nonzero" fill-opacity="1" /><path clip-path="url(#clip200)" d="M1835.49 28.5427 L1835.49 35.5912 Q1832.33 33.9709 1828.93 33.1607 Q1825.52 32.3505 1821.88 32.3505 Q1816.33 32.3505 1813.53 34.0519 Q1810.78 35.7533 1810.78 39.156 Q1810.78 41.7486 1812.76 43.2475 Q1814.75 44.7058 1820.74 46.0426 L1823.3 46.6097 Q1831.24 48.3111 1834.56 51.4303 Q1837.92 54.509 1837.92 60.0587 Q1837.92 66.3781 1832.9 70.0644 Q1827.91 73.7508 1819.16 73.7508 Q1815.52 73.7508 1811.55 73.0216 Q1807.62 72.3329 1803.24 70.9151 L1803.24 63.2184 Q1807.38 65.3654 1811.39 66.4591 Q1815.4 67.5124 1819.33 67.5124 Q1824.59 67.5124 1827.43 65.73 Q1830.26 63.9071 1830.26 60.6258 Q1830.26 57.5877 1828.2 55.9673 Q1826.17 54.3469 1819.25 52.8481 L1816.65 52.2405 Q1809.73 50.7821 1806.65 47.7845 Q1803.57 44.7463 1803.57 39.4801 Q1803.57 33.0797 1808.11 29.5959 Q1812.64 26.1121 1820.99 26.1121 Q1825.12 26.1121 1828.76 26.7198 Q1832.41 27.3274 1835.49 28.5427 Z" fill="#000000" fill-rule="nonzero" fill-opacity="1" /><path clip-path="url(#clip200)" d="M1857.16 14.324 L1857.16 27.2059 L1872.51 27.2059 L1872.51 32.9987 L1857.16 32.9987 L1857.16 57.6282 Q1857.16 63.1779 1858.66 64.7578 Q1860.2 66.3376 1864.86 66.3376 L1872.51 66.3376 L1872.51 72.576 L1864.86 72.576 Q1856.23 72.576 1852.95 69.3758 Q1849.67 66.1351 1849.67 57.6282 L1849.67 32.9987 L1844.2 32.9987 L1844.2 27.2059 L1849.67 27.2059 L1849.67 14.324 L1857.16 14.324 Z" fill="#000000" fill-rule="nonzero" fill-opacity="1" /><polyline clip-path="url(#clip202)" style="stroke:#009af9; stroke-linecap:round; stroke-linejoin:round; stroke-width:4; stroke-opacity:1; fill:none" points="397.644,1386.4 406.19,1386.23 444.172,1386.09 491.65,1385.24 539.128,1384.74 586.606,1383.83 634.084,1383.23 681.562,1383.19 729.04,1383.16 776.518,1383.02 871.474,1382.45 1346.25,1380.45 2295.81,1379.49 "/>
<polyline clip-path="url(#clip202)" style="stroke:#e26f46; stroke-linecap:round; stroke-linejoin:round; stroke-width:4; stroke-opacity:1; fill:none" points="397.644,1386.04 406.19,1386.23 444.172,1385.95 491.65,1385.46 539.128,1385.2 586.606,1383.47 634.084,1384.38 681.562,1382.65 729.04,1382.9 776.518,1381.85 871.474,1382.89 1346.25,1380.6 2295.81,1379.11 "/>
<polyline clip-path="url(#clip202)" style="stroke:#3da44d; stroke-linecap:round; stroke-linejoin:round; stroke-width:4; stroke-opacity:1; fill:none" points="397.644,1385.19 406.19,1379.71 444.172,1355.45 491.65,1324.63 539.128,1294.18 586.606,1262.35 634.084,1227.89 681.562,1202.89 729.04,1170.66 776.518,1140.8 871.474,1079.41 1346.25,773.495 2295.81,160.256 "/>
<circle clip-path="url(#clip202)" cx="397.644" cy="1386.4" r="14.4" fill="#c271d2" fill-rule="evenodd" fill-opacity="1" stroke="#000000" stroke-opacity="1" stroke-width="3.2"/>
<circle clip-path="url(#clip202)" cx="406.19" cy="1386.23" r="14.4" fill="#c271d2" fill-rule="evenodd" fill-opacity="1" stroke="#000000" stroke-opacity="1" stroke-width="3.2"/>
<circle clip-path="url(#clip202)" cx="444.172" cy="1386.09" r="14.4" fill="#c271d2" fill-rule="evenodd" fill-opacity="1" stroke="#000000" stroke-opacity="1" stroke-width="3.2"/>
<circle clip-path="url(#clip202)" cx="491.65" cy="1385.24" r="14.4" fill="#c271d2" fill-rule="evenodd" fill-opacity="1" stroke="#000000" stroke-opacity="1" stroke-width="3.2"/>
<circle clip-path="url(#clip202)" cx="539.128" cy="1384.74" r="14.4" fill="#c271d2" fill-rule="evenodd" fill-opacity="1" stroke="#000000" stroke-opacity="1" stroke-width="3.2"/>
<circle clip-path="url(#clip202)" cx="586.606" cy="1383.83" r="14.4" fill="#c271d2" fill-rule="evenodd" fill-opacity="1" stroke="#000000" stroke-opacity="1" stroke-width="3.2"/>
<circle clip-path="url(#clip202)" cx="634.084" cy="1383.23" r="14.4" fill="#c271d2" fill-rule="evenodd" fill-opacity="1" stroke="#000000" stroke-opacity="1" stroke-width="3.2"/>
<circle clip-path="url(#clip202)" cx="681.562" cy="1383.19" r="14.4" fill="#c271d2" fill-rule="evenodd" fill-opacity="1" stroke="#000000" stroke-opacity="1" stroke-width="3.2"/>
<circle clip-path="url(#clip202)" cx="729.04" cy="1383.16" r="14.4" fill="#c271d2" fill-rule="evenodd" fill-opacity="1" stroke="#000000" stroke-opacity="1" stroke-width="3.2"/>
<circle clip-path="url(#clip202)" cx="776.518" cy="1383.02" r="14.4" fill="#c271d2" fill-rule="evenodd" fill-opacity="1" stroke="#000000" stroke-opacity="1" stroke-width="3.2"/>
<circle clip-path="url(#clip202)" cx="871.474" cy="1382.45" r="14.4" fill="#c271d2" fill-rule="evenodd" fill-opacity="1" stroke="#000000" stroke-opacity="1" stroke-width="3.2"/>
<circle clip-path="url(#clip202)" cx="1346.25" cy="1380.45" r="14.4" fill="#c271d2" fill-rule="evenodd" fill-opacity="1" stroke="#000000" stroke-opacity="1" stroke-width="3.2"/>
<circle clip-path="url(#clip202)" cx="2295.81" cy="1379.49" r="14.4" fill="#c271d2" fill-rule="evenodd" fill-opacity="1" stroke="#000000" stroke-opacity="1" stroke-width="3.2"/>
<circle clip-path="url(#clip202)" cx="397.644" cy="1386.04" r="14.4" fill="#ac8d18" fill-rule="evenodd" fill-opacity="1" stroke="#000000" stroke-opacity="1" stroke-width="3.2"/>
<circle clip-path="url(#clip202)" cx="406.19" cy="1386.23" r="14.4" fill="#ac8d18" fill-rule="evenodd" fill-opacity="1" stroke="#000000" stroke-opacity="1" stroke-width="3.2"/>
<circle clip-path="url(#clip202)" cx="444.172" cy="1385.95" r="14.4" fill="#ac8d18" fill-rule="evenodd" fill-opacity="1" stroke="#000000" stroke-opacity="1" stroke-width="3.2"/>
<circle clip-path="url(#clip202)" cx="491.65" cy="1385.46" r="14.4" fill="#ac8d18" fill-rule="evenodd" fill-opacity="1" stroke="#000000" stroke-opacity="1" stroke-width="3.2"/>
<circle clip-path="url(#clip202)" cx="539.128" cy="1385.2" r="14.4" fill="#ac8d18" fill-rule="evenodd" fill-opacity="1" stroke="#000000" stroke-opacity="1" stroke-width="3.2"/>
<circle clip-path="url(#clip202)" cx="586.606" cy="1383.47" r="14.4" fill="#ac8d18" fill-rule="evenodd" fill-opacity="1" stroke="#000000" stroke-opacity="1" stroke-width="3.2"/>
<circle clip-path="url(#clip202)" cx="634.084" cy="1384.38" r="14.4" fill="#ac8d18" fill-rule="evenodd" fill-opacity="1" stroke="#000000" stroke-opacity="1" stroke-width="3.2"/>
<circle clip-path="url(#clip202)" cx="681.562" cy="1382.65" r="14.4" fill="#ac8d18" fill-rule="evenodd" fill-opacity="1" stroke="#000000" stroke-opacity="1" stroke-width="3.2"/>
<circle clip-path="url(#clip202)" cx="729.04" cy="1382.9" r="14.4" fill="#ac8d18" fill-rule="evenodd" fill-opacity="1" stroke="#000000" stroke-opacity="1" stroke-width="3.2"/>
<circle clip-path="url(#clip202)" cx="776.518" cy="1381.85" r="14.4" fill="#ac8d18" fill-rule="evenodd" fill-opacity="1" stroke="#000000" stroke-opacity="1" stroke-width="3.2"/>
<circle clip-path="url(#clip202)" cx="871.474" cy="1382.89" r="14.4" fill="#ac8d18" fill-rule="evenodd" fill-opacity="1" stroke="#000000" stroke-opacity="1" stroke-width="3.2"/>
<circle clip-path="url(#clip202)" cx="1346.25" cy="1380.6" r="14.4" fill="#ac8d18" fill-rule="evenodd" fill-opacity="1" stroke="#000000" stroke-opacity="1" stroke-width="3.2"/>
<circle clip-path="url(#clip202)" cx="2295.81" cy="1379.11" r="14.4" fill="#ac8d18" fill-rule="evenodd" fill-opacity="1" stroke="#000000" stroke-opacity="1" stroke-width="3.2"/>
<circle clip-path="url(#clip202)" cx="397.644" cy="1385.19" r="14.4" fill="#00a9ad" fill-rule="evenodd" fill-opacity="1" stroke="#000000" stroke-opacity="1" stroke-width="3.2"/>
<circle clip-path="url(#clip202)" cx="406.19" cy="1379.71" r="14.4" fill="#00a9ad" fill-rule="evenodd" fill-opacity="1" stroke="#000000" stroke-opacity="1" stroke-width="3.2"/>
<circle clip-path="url(#clip202)" cx="444.172" cy="1355.45" r="14.4" fill="#00a9ad" fill-rule="evenodd" fill-opacity="1" stroke="#000000" stroke-opacity="1" stroke-width="3.2"/>
<circle clip-path="url(#clip202)" cx="491.65" cy="1324.63" r="14.4" fill="#00a9ad" fill-rule="evenodd" fill-opacity="1" stroke="#000000" stroke-opacity="1" stroke-width="3.2"/>
<circle clip-path="url(#clip202)" cx="539.128" cy="1294.18" r="14.4" fill="#00a9ad" fill-rule="evenodd" fill-opacity="1" stroke="#000000" stroke-opacity="1" stroke-width="3.2"/>
<circle clip-path="url(#clip202)" cx="586.606" cy="1262.35" r="14.4" fill="#00a9ad" fill-rule="evenodd" fill-opacity="1" stroke="#000000" stroke-opacity="1" stroke-width="3.2"/>
<circle clip-path="url(#clip202)" cx="634.084" cy="1227.89" r="14.4" fill="#00a9ad" fill-rule="evenodd" fill-opacity="1" stroke="#000000" stroke-opacity="1" stroke-width="3.2"/>
<circle clip-path="url(#clip202)" cx="681.562" cy="1202.89" r="14.4" fill="#00a9ad" fill-rule="evenodd" fill-opacity="1" stroke="#000000" stroke-opacity="1" stroke-width="3.2"/>
<circle clip-path="url(#clip202)" cx="729.04" cy="1170.66" r="14.4" fill="#00a9ad" fill-rule="evenodd" fill-opacity="1" stroke="#000000" stroke-opacity="1" stroke-width="3.2"/>
<circle clip-path="url(#clip202)" cx="776.518" cy="1140.8" r="14.4" fill="#00a9ad" fill-rule="evenodd" fill-opacity="1" stroke="#000000" stroke-opacity="1" stroke-width="3.2"/>
<circle clip-path="url(#clip202)" cx="871.474" cy="1079.41" r="14.4" fill="#00a9ad" fill-rule="evenodd" fill-opacity="1" stroke="#000000" stroke-opacity="1" stroke-width="3.2"/>
<circle clip-path="url(#clip202)" cx="1346.25" cy="773.495" r="14.4" fill="#00a9ad" fill-rule="evenodd" fill-opacity="1" stroke="#000000" stroke-opacity="1" stroke-width="3.2"/>
<circle clip-path="url(#clip202)" cx="2295.81" cy="160.256" r="14.4" fill="#00a9ad" fill-rule="evenodd" fill-opacity="1" stroke="#000000" stroke-opacity="1" stroke-width="3.2"/>
<path clip-path="url(#clip200)" d="M407.768 374.156 L798.347 374.156 L798.347 166.796 L407.768 166.796  Z" fill="#ffffff" fill-rule="evenodd" fill-opacity="1"/>
<polyline clip-path="url(#clip200)" style="stroke:#000000; stroke-linecap:round; stroke-linejoin:round; stroke-width:4; stroke-opacity:1; fill:none" points="407.768,374.156 798.347,374.156 798.347,166.796 407.768,166.796 407.768,374.156 "/>
<polyline clip-path="url(#clip200)" style="stroke:#009af9; stroke-linecap:round; stroke-linejoin:round; stroke-width:4; stroke-opacity:1; fill:none" points="430.124,218.636 564.261,218.636 "/>
<path clip-path="url(#clip200)" d="M590.899 232.027 L590.899 245.777 L586.617 245.777 L586.617 209.99 L590.899 209.99 L590.899 213.925 Q592.242 211.61 594.279 210.499 Q596.339 209.365 599.186 209.365 Q603.909 209.365 606.848 213.115 Q609.811 216.865 609.811 222.976 Q609.811 229.087 606.848 232.837 Q603.909 236.587 599.186 236.587 Q596.339 236.587 594.279 235.476 Q592.242 234.342 590.899 232.027 M605.39 222.976 Q605.39 218.277 603.446 215.615 Q601.524 212.93 598.145 212.93 Q594.765 212.93 592.821 215.615 Q590.899 218.277 590.899 222.976 Q590.899 227.675 592.821 230.36 Q594.765 233.022 598.145 233.022 Q601.524 233.022 603.446 230.36 Q605.39 227.675 605.39 222.976 Z" fill="#000000" fill-rule="nonzero" fill-opacity="1" /><path clip-path="url(#clip200)" d="M626.918 212.976 Q623.492 212.976 621.501 215.661 Q619.51 218.323 619.51 222.976 Q619.51 227.629 621.478 230.314 Q623.469 232.976 626.918 232.976 Q630.32 232.976 632.311 230.291 Q634.302 227.606 634.302 222.976 Q634.302 218.37 632.311 215.684 Q630.32 212.976 626.918 212.976 M626.918 209.365 Q632.473 209.365 635.645 212.976 Q638.816 216.587 638.816 222.976 Q638.816 229.342 635.645 232.976 Q632.473 236.587 626.918 236.587 Q621.339 236.587 618.168 232.976 Q615.02 229.342 615.02 222.976 Q615.02 216.587 618.168 212.976 Q621.339 209.365 626.918 209.365 Z" fill="#000000" fill-rule="nonzero" fill-opacity="1" /><path clip-path="url(#clip200)" d="M649.996 232.027 L649.996 245.777 L645.714 245.777 L645.714 209.99 L649.996 209.99 L649.996 213.925 Q651.339 211.61 653.376 210.499 Q655.436 209.365 658.283 209.365 Q663.006 209.365 665.945 213.115 Q668.908 216.865 668.908 222.976 Q668.908 229.087 665.945 232.837 Q663.006 236.587 658.283 236.587 Q655.436 236.587 653.376 235.476 Q651.339 234.342 649.996 232.027 M664.487 222.976 Q664.487 218.277 662.543 215.615 Q660.621 212.93 657.242 212.93 Q653.862 212.93 651.918 215.615 Q649.996 218.277 649.996 222.976 Q649.996 227.675 651.918 230.36 Q653.862 233.022 657.242 233.022 Q660.621 233.022 662.543 230.36 Q664.487 227.675 664.487 222.976 Z" fill="#000000" fill-rule="nonzero" fill-opacity="1" /><path clip-path="url(#clip200)" d="M689.093 199.897 L689.093 203.439 L685.019 203.439 Q682.728 203.439 681.825 204.365 Q680.945 205.291 680.945 207.698 L680.945 209.99 L687.959 209.99 L687.959 213.3 L680.945 213.3 L680.945 235.916 L676.663 235.916 L676.663 213.3 L672.589 213.3 L672.589 209.99 L676.663 209.99 L676.663 208.184 Q676.663 203.856 678.677 201.888 Q680.691 199.897 685.066 199.897 L689.093 199.897 Z" fill="#000000" fill-rule="nonzero" fill-opacity="1" /><path clip-path="url(#clip200)" d="M692.658 209.99 L696.917 209.99 L696.917 235.916 L692.658 235.916 L692.658 209.99 M692.658 199.897 L696.917 199.897 L696.917 205.291 L692.658 205.291 L692.658 199.897 Z" fill="#000000" fill-rule="nonzero" fill-opacity="1" /><path clip-path="url(#clip200)" d="M720.852 213.971 Q720.135 213.555 719.278 213.37 Q718.445 213.161 717.427 213.161 Q713.815 213.161 711.871 215.522 Q709.95 217.86 709.95 222.258 L709.95 235.916 L705.667 235.916 L705.667 209.99 L709.95 209.99 L709.95 214.018 Q711.292 211.657 713.445 210.522 Q715.598 209.365 718.677 209.365 Q719.116 209.365 719.649 209.434 Q720.181 209.481 720.829 209.596 L720.852 213.971 Z" fill="#000000" fill-rule="nonzero" fill-opacity="1" /><path clip-path="url(#clip200)" d="M741.848 210.754 L741.848 214.782 Q740.042 213.856 738.098 213.393 Q736.153 212.93 734.07 212.93 Q730.899 212.93 729.301 213.902 Q727.727 214.874 727.727 216.819 Q727.727 218.3 728.862 219.157 Q729.996 219.99 733.422 220.754 L734.88 221.078 Q739.417 222.05 741.315 223.832 Q743.237 225.592 743.237 228.763 Q743.237 232.374 740.366 234.481 Q737.519 236.587 732.519 236.587 Q730.436 236.587 728.167 236.17 Q725.922 235.777 723.422 234.967 L723.422 230.569 Q725.783 231.795 728.075 232.42 Q730.366 233.022 732.612 233.022 Q735.621 233.022 737.241 232.004 Q738.862 230.962 738.862 229.087 Q738.862 227.351 737.681 226.425 Q736.524 225.499 732.565 224.643 L731.084 224.295 Q727.126 223.462 725.366 221.749 Q723.607 220.013 723.607 217.004 Q723.607 213.346 726.2 211.356 Q728.792 209.365 733.561 209.365 Q735.922 209.365 738.005 209.712 Q740.088 210.059 741.848 210.754 Z" fill="#000000" fill-rule="nonzero" fill-opacity="1" /><path clip-path="url(#clip200)" d="M754.232 202.629 L754.232 209.99 L763.005 209.99 L763.005 213.3 L754.232 213.3 L754.232 227.374 Q754.232 230.545 755.088 231.448 Q755.968 232.351 758.63 232.351 L763.005 232.351 L763.005 235.916 L758.63 235.916 Q753.699 235.916 751.824 234.087 Q749.949 232.235 749.949 227.374 L749.949 213.3 L746.824 213.3 L746.824 209.99 L749.949 209.99 L749.949 202.629 L754.232 202.629 Z" fill="#000000" fill-rule="nonzero" fill-opacity="1" /><path clip-path="url(#clip200)" d="M771.292 230.036 L775.991 230.036 L775.991 235.916 L771.292 235.916 L771.292 230.036 M771.292 201.356 L775.991 201.356 L775.991 216.518 L775.528 224.782 L771.778 224.782 L771.292 216.518 L771.292 201.356 Z" fill="#000000" fill-rule="nonzero" fill-opacity="1" /><polyline clip-path="url(#clip200)" style="stroke:#e26f46; stroke-linecap:round; stroke-linejoin:round; stroke-width:4; stroke-opacity:1; fill:none" points="430.124,270.476 564.261,270.476 "/>
<path clip-path="url(#clip200)" d="M590.899 283.867 L590.899 297.617 L586.617 297.617 L586.617 261.83 L590.899 261.83 L590.899 265.765 Q592.242 263.45 594.279 262.339 Q596.339 261.205 599.186 261.205 Q603.909 261.205 606.848 264.955 Q609.811 268.705 609.811 274.816 Q609.811 280.927 606.848 284.677 Q603.909 288.427 599.186 288.427 Q596.339 288.427 594.279 287.316 Q592.242 286.182 590.899 283.867 M605.39 274.816 Q605.39 270.117 603.446 267.455 Q601.524 264.77 598.145 264.77 Q594.765 264.77 592.821 267.455 Q590.899 270.117 590.899 274.816 Q590.899 279.515 592.821 282.2 Q594.765 284.862 598.145 284.862 Q601.524 284.862 603.446 282.2 Q605.39 279.515 605.39 274.816 Z" fill="#000000" fill-rule="nonzero" fill-opacity="1" /><path clip-path="url(#clip200)" d="M626.918 264.816 Q623.492 264.816 621.501 267.501 Q619.51 270.163 619.51 274.816 Q619.51 279.469 621.478 282.154 Q623.469 284.816 626.918 284.816 Q630.32 284.816 632.311 282.131 Q634.302 279.446 634.302 274.816 Q634.302 270.21 632.311 267.524 Q630.32 264.816 626.918 264.816 M626.918 261.205 Q632.473 261.205 635.645 264.816 Q638.816 268.427 638.816 274.816 Q638.816 281.182 635.645 284.816 Q632.473 288.427 626.918 288.427 Q621.339 288.427 618.168 284.816 Q615.02 281.182 615.02 274.816 Q615.02 268.427 618.168 264.816 Q621.339 261.205 626.918 261.205 Z" fill="#000000" fill-rule="nonzero" fill-opacity="1" /><path clip-path="url(#clip200)" d="M649.996 283.867 L649.996 297.617 L645.714 297.617 L645.714 261.83 L649.996 261.83 L649.996 265.765 Q651.339 263.45 653.376 262.339 Q655.436 261.205 658.283 261.205 Q663.006 261.205 665.945 264.955 Q668.908 268.705 668.908 274.816 Q668.908 280.927 665.945 284.677 Q663.006 288.427 658.283 288.427 Q655.436 288.427 653.376 287.316 Q651.339 286.182 649.996 283.867 M664.487 274.816 Q664.487 270.117 662.543 267.455 Q660.621 264.77 657.242 264.77 Q653.862 264.77 651.918 267.455 Q649.996 270.117 649.996 274.816 Q649.996 279.515 651.918 282.2 Q653.862 284.862 657.242 284.862 Q660.621 284.862 662.543 282.2 Q664.487 279.515 664.487 274.816 Z" fill="#000000" fill-rule="nonzero" fill-opacity="1" /><path clip-path="url(#clip200)" d="M678.654 281.876 L683.353 281.876 L683.353 287.756 L678.654 287.756 L678.654 281.876 M678.654 253.196 L683.353 253.196 L683.353 268.358 L682.89 276.622 L679.14 276.622 L678.654 268.358 L678.654 253.196 Z" fill="#000000" fill-rule="nonzero" fill-opacity="1" /><polyline clip-path="url(#clip200)" style="stroke:#3da44d; stroke-linecap:round; stroke-linejoin:round; stroke-width:4; stroke-opacity:1; fill:none" points="430.124,322.316 564.261,322.316 "/>
<path clip-path="url(#clip200)" d="M590.899 335.707 L590.899 349.457 L586.617 349.457 L586.617 313.67 L590.899 313.67 L590.899 317.605 Q592.242 315.29 594.279 314.179 Q596.339 313.045 599.186 313.045 Q603.909 313.045 606.848 316.795 Q609.811 320.545 609.811 326.656 Q609.811 332.767 606.848 336.517 Q603.909 340.267 599.186 340.267 Q596.339 340.267 594.279 339.156 Q592.242 338.022 590.899 335.707 M605.39 326.656 Q605.39 321.957 603.446 319.295 Q601.524 316.61 598.145 316.61 Q594.765 316.61 592.821 319.295 Q590.899 321.957 590.899 326.656 Q590.899 331.355 592.821 334.04 Q594.765 336.702 598.145 336.702 Q601.524 336.702 603.446 334.04 Q605.39 331.355 605.39 326.656 Z" fill="#000000" fill-rule="nonzero" fill-opacity="1" /><path clip-path="url(#clip200)" d="M626.918 316.656 Q623.492 316.656 621.501 319.341 Q619.51 322.003 619.51 326.656 Q619.51 331.309 621.478 333.994 Q623.469 336.656 626.918 336.656 Q630.32 336.656 632.311 333.971 Q634.302 331.286 634.302 326.656 Q634.302 322.05 632.311 319.364 Q630.32 316.656 626.918 316.656 M626.918 313.045 Q632.473 313.045 635.645 316.656 Q638.816 320.267 638.816 326.656 Q638.816 333.022 635.645 336.656 Q632.473 340.267 626.918 340.267 Q621.339 340.267 618.168 336.656 Q615.02 333.022 615.02 326.656 Q615.02 320.267 618.168 316.656 Q621.339 313.045 626.918 313.045 Z" fill="#000000" fill-rule="nonzero" fill-opacity="1" /><path clip-path="url(#clip200)" d="M649.996 335.707 L649.996 349.457 L645.714 349.457 L645.714 313.67 L649.996 313.67 L649.996 317.605 Q651.339 315.29 653.376 314.179 Q655.436 313.045 658.283 313.045 Q663.006 313.045 665.945 316.795 Q668.908 320.545 668.908 326.656 Q668.908 332.767 665.945 336.517 Q663.006 340.267 658.283 340.267 Q655.436 340.267 653.376 339.156 Q651.339 338.022 649.996 335.707 M664.487 326.656 Q664.487 321.957 662.543 319.295 Q660.621 316.61 657.242 316.61 Q653.862 316.61 651.918 319.295 Q649.996 321.957 649.996 326.656 Q649.996 331.355 651.918 334.04 Q653.862 336.702 657.242 336.702 Q660.621 336.702 662.543 334.04 Q664.487 331.355 664.487 326.656 Z" fill="#000000" fill-rule="nonzero" fill-opacity="1" /><path clip-path="url(#clip200)" d="M687.751 326.563 Q682.589 326.563 680.598 327.744 Q678.607 328.924 678.607 331.772 Q678.607 334.04 680.089 335.383 Q681.593 336.702 684.163 336.702 Q687.704 336.702 689.834 334.202 Q691.987 331.679 691.987 327.512 L691.987 326.563 L687.751 326.563 M696.246 324.804 L696.246 339.596 L691.987 339.596 L691.987 335.661 Q690.529 338.022 688.353 339.156 Q686.177 340.267 683.029 340.267 Q679.047 340.267 676.686 338.045 Q674.348 335.799 674.348 332.049 Q674.348 327.674 677.265 325.452 Q680.204 323.23 686.015 323.23 L691.987 323.23 L691.987 322.813 Q691.987 319.874 690.042 318.276 Q688.121 316.656 684.626 316.656 Q682.404 316.656 680.297 317.188 Q678.191 317.721 676.246 318.786 L676.246 314.85 Q678.584 313.948 680.783 313.508 Q682.982 313.045 685.066 313.045 Q690.691 313.045 693.468 315.962 Q696.246 318.878 696.246 324.804 Z" fill="#000000" fill-rule="nonzero" fill-opacity="1" /><path clip-path="url(#clip200)" d="M709.232 306.309 L709.232 313.67 L718.005 313.67 L718.005 316.98 L709.232 316.98 L709.232 331.054 Q709.232 334.225 710.089 335.128 Q710.968 336.031 713.63 336.031 L718.005 336.031 L718.005 339.596 L713.63 339.596 Q708.7 339.596 706.825 337.767 Q704.95 335.915 704.95 331.054 L704.95 316.98 L701.825 316.98 L701.825 313.67 L704.95 313.67 L704.95 306.309 L709.232 306.309 Z" fill="#000000" fill-rule="nonzero" fill-opacity="1" /><path clip-path="url(#clip200)" d="M726.292 333.716 L730.991 333.716 L730.991 339.596 L726.292 339.596 L726.292 333.716 M726.292 305.036 L730.991 305.036 L730.991 320.198 L730.528 328.462 L726.778 328.462 L726.292 320.198 L726.292 305.036 Z" fill="#000000" fill-rule="nonzero" fill-opacity="1" /></svg>
