<?xml version="1.0" encoding="utf-8"?>
<svg xmlns="http://www.w3.org/2000/svg" xmlns:xlink="http://www.w3.org/1999/xlink" width="600" height="400" viewBox="0 0 2400 1600">
<defs>
  <clipPath id="clip960">
    <rect x="0" y="0" width="2400" height="1600"/>
  </clipPath>
</defs>
<path clip-path="url(#clip960)" d="M0 1600 L2400 1600 L2400 0 L0 0  Z" fill="#ffffff" fill-rule="evenodd" fill-opacity="1"/>
<defs>
  <clipPath id="clip961">
    <rect x="480" y="0" width="1681" height="1600"/>
  </clipPath>
</defs>
<path clip-path="url(#clip960)" d="M369.703 1423.18 L2352.76 1423.18 L2352.76 123.472 L369.703 123.472  Z" fill="#ffffff" fill-rule="evenodd" fill-opacity="1"/>
<defs>
  <clipPath id="clip962">
    <rect x="369" y="123" width="1984" height="1301"/>
  </clipPath>
</defs>
<polyline clip-path="url(#clip962)" style="stroke:#000000; stroke-linecap:round; stroke-linejoin:round; stroke-width:2; stroke-opacity:0.1; fill:none" points="424.892,1423.18 424.892,123.472 "/>
<polyline clip-path="url(#clip962)" style="stroke:#000000; stroke-linecap:round; stroke-linejoin:round; stroke-width:2; stroke-opacity:0.1; fill:none" points="892.827,1423.18 892.827,123.472 "/>
<polyline clip-path="url(#clip962)" style="stroke:#000000; stroke-linecap:round; stroke-linejoin:round; stroke-width:2; stroke-opacity:0.1; fill:none" points="1360.76,1423.18 1360.76,123.472 "/>
<polyline clip-path="url(#clip962)" style="stroke:#000000; stroke-linecap:round; stroke-linejoin:round; stroke-width:2; stroke-opacity:0.1; fill:none" points="1828.7,1423.18 1828.7,123.472 "/>
<polyline clip-path="url(#clip962)" style="stroke:#000000; stroke-linecap:round; stroke-linejoin:round; stroke-width:2; stroke-opacity:0.1; fill:none" points="2296.63,1423.18 2296.63,123.472 "/>
<polyline clip-path="url(#clip960)" style="stroke:#000000; stroke-linecap:round; stroke-linejoin:round; stroke-width:4; stroke-opacity:1; fill:none" points="369.703,1423.18 2352.76,1423.18 "/>
<polyline clip-path="url(#clip960)" style="stroke:#000000; stroke-linecap:round; stroke-linejoin:round; stroke-width:4; stroke-opacity:1; fill:none" points="424.892,1423.18 424.892,1404.28 "/>
<polyline clip-path="url(#clip960)" style="stroke:#000000; stroke-linecap:round; stroke-linejoin:round; stroke-width:4; stroke-opacity:1; fill:none" points="892.827,1423.18 892.827,1404.28 "/>
<polyline clip-path="url(#clip960)" style="stroke:#000000; stroke-linecap:round; stroke-linejoin:round; stroke-width:4; stroke-opacity:1; fill:none" points="1360.76,1423.18 1360.76,1404.28 "/>
<polyline clip-path="url(#clip960)" style="stroke:#000000; stroke-linecap:round; stroke-linejoin:round; stroke-width:4; stroke-opacity:1; fill:none" points="1828.7,1423.18 1828.7,1404.28 "/>
<polyline clip-path="url(#clip960)" style="stroke:#000000; stroke-linecap:round; stroke-linejoin:round; stroke-width:4; stroke-opacity:1; fill:none" points="2296.63,1423.18 2296.63,1404.28 "/>
<path clip-path="url(#clip960)" d="M424.892 1454.1 Q421.281 1454.1 419.452 1457.66 Q417.646 1461.2 417.646 1468.33 Q417.646 1475.44 419.452 1479.01 Q421.281 1482.55 424.892 1482.55 Q428.526 1482.55 430.331 1479.01 Q432.16 1475.44 432.16 1468.33 Q432.16 1461.2 430.331 1457.66 Q428.526 1454.1 424.892 1454.1 M424.892 1450.39 Q430.702 1450.39 433.757 1455 Q436.836 1459.58 436.836 1468.33 Q436.836 1477.06 433.757 1481.67 Q430.702 1486.25 424.892 1486.25 Q419.082 1486.25 416.003 1481.67 Q412.947 1477.06 412.947 1468.33 Q412.947 1459.58 416.003 1455 Q419.082 1450.39 424.892 1450.39 Z" fill="#000000" fill-rule="nonzero" fill-opacity="1" /><path clip-path="url(#clip960)" d="M852.445 1451.02 L870.801 1451.02 L870.801 1454.96 L856.727 1454.96 L856.727 1463.43 Q857.746 1463.08 858.764 1462.92 Q859.783 1462.73 860.801 1462.73 Q866.588 1462.73 869.968 1465.9 Q873.348 1469.08 873.348 1474.49 Q873.348 1480.07 869.875 1483.17 Q866.403 1486.25 860.084 1486.25 Q857.908 1486.25 855.639 1485.88 Q853.394 1485.51 850.987 1484.77 L850.987 1480.07 Q853.07 1481.2 855.292 1481.76 Q857.514 1482.32 859.991 1482.32 Q863.996 1482.32 866.334 1480.21 Q868.672 1478.1 868.672 1474.49 Q868.672 1470.88 866.334 1468.77 Q863.996 1466.67 859.991 1466.67 Q858.116 1466.67 856.241 1467.08 Q854.389 1467.5 852.445 1468.38 L852.445 1451.02 Z" fill="#000000" fill-rule="nonzero" fill-opacity="1" /><path clip-path="url(#clip960)" d="M892.561 1454.1 Q888.949 1454.1 887.121 1457.66 Q885.315 1461.2 885.315 1468.33 Q885.315 1475.44 887.121 1479.01 Q888.949 1482.55 892.561 1482.55 Q896.195 1482.55 898 1479.01 Q899.829 1475.44 899.829 1468.33 Q899.829 1461.2 898 1457.66 Q896.195 1454.1 892.561 1454.1 M892.561 1450.39 Q898.371 1450.39 901.426 1455 Q904.505 1459.58 904.505 1468.33 Q904.505 1477.06 901.426 1481.67 Q898.371 1486.25 892.561 1486.25 Q886.75 1486.25 883.672 1481.67 Q880.616 1477.06 880.616 1468.33 Q880.616 1459.58 883.672 1455 Q886.75 1450.39 892.561 1450.39 Z" fill="#000000" fill-rule="nonzero" fill-opacity="1" /><path clip-path="url(#clip960)" d="M922.722 1454.1 Q919.111 1454.1 917.283 1457.66 Q915.477 1461.2 915.477 1468.33 Q915.477 1475.44 917.283 1479.01 Q919.111 1482.55 922.722 1482.55 Q926.357 1482.55 928.162 1479.01 Q929.991 1475.44 929.991 1468.33 Q929.991 1461.2 928.162 1457.66 Q926.357 1454.1 922.722 1454.1 M922.722 1450.39 Q928.533 1450.39 931.588 1455 Q934.667 1459.58 934.667 1468.33 Q934.667 1477.06 931.588 1481.67 Q928.533 1486.25 922.722 1486.25 Q916.912 1486.25 913.834 1481.67 Q910.778 1477.06 910.778 1468.33 Q910.778 1459.58 913.834 1455 Q916.912 1450.39 922.722 1450.39 Z" fill="#000000" fill-rule="nonzero" fill-opacity="1" /><path clip-path="url(#clip960)" d="M1305.29 1481.64 L1312.93 1481.64 L1312.93 1455.28 L1304.62 1456.95 L1304.62 1452.69 L1312.88 1451.02 L1317.56 1451.02 L1317.56 1481.64 L1325.19 1481.64 L1325.19 1485.58 L1305.29 1485.58 L1305.29 1481.64 Z" fill="#000000" fill-rule="nonzero" fill-opacity="1" /><path clip-path="url(#clip960)" d="M1344.64 1454.1 Q1341.03 1454.1 1339.2 1457.66 Q1337.39 1461.2 1337.39 1468.33 Q1337.39 1475.44 1339.2 1479.01 Q1341.03 1482.55 1344.64 1482.55 Q1348.27 1482.55 1350.08 1479.01 Q1351.91 1475.44 1351.91 1468.33 Q1351.91 1461.2 1350.08 1457.66 Q1348.27 1454.1 1344.64 1454.1 M1344.64 1450.39 Q1350.45 1450.39 1353.5 1455 Q1356.58 1459.58 1356.58 1468.33 Q1356.58 1477.06 1353.5 1481.67 Q1350.45 1486.25 1344.64 1486.25 Q1338.83 1486.25 1335.75 1481.67 Q1332.69 1477.06 1332.69 1468.33 Q1332.69 1459.58 1335.75 1455 Q1338.83 1450.39 1344.64 1450.39 Z" fill="#000000" fill-rule="nonzero" fill-opacity="1" /><path clip-path="url(#clip960)" d="M1374.8 1454.1 Q1371.19 1454.1 1369.36 1457.66 Q1367.56 1461.2 1367.56 1468.33 Q1367.56 1475.44 1369.36 1479.01 Q1371.19 1482.55 1374.8 1482.55 Q1378.44 1482.55 1380.24 1479.01 Q1382.07 1475.44 1382.07 1468.33 Q1382.07 1461.2 1380.24 1457.66 Q1378.44 1454.1 1374.8 1454.1 M1374.8 1450.39 Q1380.61 1450.39 1383.67 1455 Q1386.75 1459.58 1386.75 1468.33 Q1386.75 1477.06 1383.67 1481.67 Q1380.61 1486.25 1374.8 1486.25 Q1368.99 1486.25 1365.91 1481.67 Q1362.86 1477.06 1362.86 1468.33 Q1362.86 1459.58 1365.91 1455 Q1368.99 1450.39 1374.8 1450.39 Z" fill="#000000" fill-rule="nonzero" fill-opacity="1" /><path clip-path="url(#clip960)" d="M1404.96 1454.1 Q1401.35 1454.1 1399.52 1457.66 Q1397.72 1461.2 1397.72 1468.33 Q1397.72 1475.44 1399.52 1479.01 Q1401.35 1482.55 1404.96 1482.55 Q1408.6 1482.55 1410.4 1479.01 Q1412.23 1475.44 1412.23 1468.33 Q1412.23 1461.2 1410.4 1457.66 Q1408.6 1454.1 1404.96 1454.1 M1404.96 1450.39 Q1410.77 1450.39 1413.83 1455 Q1416.91 1459.58 1416.91 1468.33 Q1416.91 1477.06 1413.83 1481.67 Q1410.77 1486.25 1404.96 1486.25 Q1399.15 1486.25 1396.07 1481.67 Q1393.02 1477.06 1393.02 1468.33 Q1393.02 1459.58 1396.07 1455 Q1399.15 1450.39 1404.96 1450.39 Z" fill="#000000" fill-rule="nonzero" fill-opacity="1" /><path clip-path="url(#clip960)" d="M1773.22 1481.64 L1780.86 1481.64 L1780.86 1455.28 L1772.55 1456.95 L1772.55 1452.69 L1780.82 1451.02 L1785.49 1451.02 L1785.49 1481.64 L1793.13 1481.64 L1793.13 1485.58 L1773.22 1485.58 L1773.22 1481.64 Z" fill="#000000" fill-rule="nonzero" fill-opacity="1" /><path clip-path="url(#clip960)" d="M1802.62 1451.02 L1820.98 1451.02 L1820.98 1454.96 L1806.9 1454.96 L1806.9 1463.43 Q1807.92 1463.08 1808.94 1462.92 Q1809.96 1462.73 1810.98 1462.73 Q1816.76 1462.73 1820.14 1465.9 Q1823.52 1469.08 1823.52 1474.49 Q1823.52 1480.07 1820.05 1483.17 Q1816.58 1486.25 1810.26 1486.25 Q1808.08 1486.25 1805.81 1485.88 Q1803.57 1485.51 1801.16 1484.77 L1801.16 1480.07 Q1803.25 1481.2 1805.47 1481.76 Q1807.69 1482.32 1810.17 1482.32 Q1814.17 1482.32 1816.51 1480.21 Q1818.85 1478.1 1818.85 1474.49 Q1818.85 1470.88 1816.51 1468.77 Q1814.17 1466.67 1810.17 1466.67 Q1808.29 1466.67 1806.42 1467.08 Q1804.56 1467.5 1802.62 1468.38 L1802.62 1451.02 Z" fill="#000000" fill-rule="nonzero" fill-opacity="1" /><path clip-path="url(#clip960)" d="M1842.74 1454.1 Q1839.12 1454.1 1837.3 1457.66 Q1835.49 1461.2 1835.49 1468.33 Q1835.49 1475.44 1837.3 1479.01 Q1839.12 1482.55 1842.74 1482.55 Q1846.37 1482.55 1848.18 1479.01 Q1850 1475.44 1850 1468.33 Q1850 1461.2 1848.18 1457.66 Q1846.37 1454.1 1842.74 1454.1 M1842.74 1450.39 Q1848.55 1450.39 1851.6 1455 Q1854.68 1459.58 1854.68 1468.33 Q1854.68 1477.06 1851.6 1481.67 Q1848.55 1486.25 1842.74 1486.25 Q1836.93 1486.25 1833.85 1481.67 Q1830.79 1477.06 1830.79 1468.33 Q1830.79 1459.58 1833.85 1455 Q1836.93 1450.39 1842.74 1450.39 Z" fill="#000000" fill-rule="nonzero" fill-opacity="1" /><path clip-path="url(#clip960)" d="M1872.9 1454.1 Q1869.29 1454.1 1867.46 1457.66 Q1865.65 1461.2 1865.65 1468.33 Q1865.65 1475.44 1867.46 1479.01 Q1869.29 1482.55 1872.9 1482.55 Q1876.53 1482.55 1878.34 1479.01 Q1880.17 1475.44 1880.17 1468.33 Q1880.17 1461.2 1878.34 1457.66 Q1876.53 1454.1 1872.9 1454.1 M1872.9 1450.39 Q1878.71 1450.39 1881.76 1455 Q1884.84 1459.58 1884.84 1468.33 Q1884.84 1477.06 1881.76 1481.67 Q1878.71 1486.25 1872.9 1486.25 Q1867.09 1486.25 1864.01 1481.67 Q1860.95 1477.06 1860.95 1468.33 Q1860.95 1459.58 1864.01 1455 Q1867.09 1450.39 1872.9 1450.39 Z" fill="#000000" fill-rule="nonzero" fill-opacity="1" /><path clip-path="url(#clip960)" d="M2245.24 1481.64 L2261.56 1481.64 L2261.56 1485.58 L2239.62 1485.58 L2239.62 1481.64 Q2242.28 1478.89 2246.86 1474.26 Q2251.47 1469.61 2252.65 1468.27 Q2254.9 1465.74 2255.78 1464.01 Q2256.68 1462.25 2256.68 1460.56 Q2256.68 1457.8 2254.73 1456.07 Q2252.81 1454.33 2249.71 1454.33 Q2247.51 1454.33 2245.06 1455.09 Q2242.63 1455.86 2239.85 1457.41 L2239.85 1452.69 Q2242.67 1451.55 2245.13 1450.97 Q2247.58 1450.39 2249.62 1450.39 Q2254.99 1450.39 2258.18 1453.08 Q2261.38 1455.77 2261.38 1460.26 Q2261.38 1462.39 2260.57 1464.31 Q2259.78 1466.2 2257.67 1468.8 Q2257.09 1469.47 2253.99 1472.69 Q2250.89 1475.88 2245.24 1481.64 Z" fill="#000000" fill-rule="nonzero" fill-opacity="1" /><path clip-path="url(#clip960)" d="M2281.38 1454.1 Q2277.77 1454.1 2275.94 1457.66 Q2274.13 1461.2 2274.13 1468.33 Q2274.13 1475.44 2275.94 1479.01 Q2277.77 1482.55 2281.38 1482.55 Q2285.01 1482.55 2286.82 1479.01 Q2288.65 1475.44 2288.65 1468.33 Q2288.65 1461.2 2286.82 1457.66 Q2285.01 1454.1 2281.38 1454.1 M2281.38 1450.39 Q2287.19 1450.39 2290.24 1455 Q2293.32 1459.58 2293.32 1468.33 Q2293.32 1477.06 2290.24 1481.67 Q2287.19 1486.25 2281.38 1486.25 Q2275.57 1486.25 2272.49 1481.67 Q2269.43 1477.06 2269.43 1468.33 Q2269.43 1459.58 2272.49 1455 Q2275.57 1450.39 2281.38 1450.39 Z" fill="#000000" fill-rule="nonzero" fill-opacity="1" /><path clip-path="url(#clip960)" d="M2311.54 1454.1 Q2307.93 1454.1 2306.1 1457.66 Q2304.29 1461.2 2304.29 1468.33 Q2304.29 1475.44 2306.1 1479.01 Q2307.93 1482.55 2311.54 1482.55 Q2315.17 1482.55 2316.98 1479.01 Q2318.81 1475.44 2318.81 1468.33 Q2318.81 1461.2 2316.98 1457.66 Q2315.17 1454.1 2311.54 1454.1 M2311.54 1450.39 Q2317.35 1450.39 2320.4 1455 Q2323.48 1459.58 2323.48 1468.33 Q2323.48 1477.06 2320.4 1481.67 Q2317.35 1486.25 2311.54 1486.25 Q2305.73 1486.25 2302.65 1481.67 Q2299.59 1477.06 2299.59 1468.33 Q2299.59 1459.58 2302.65 1455 Q2305.73 1450.39 2311.54 1450.39 Z" fill="#000000" fill-rule="nonzero" fill-opacity="1" /><path clip-path="url(#clip960)" d="M2341.7 1454.1 Q2338.09 1454.1 2336.26 1457.66 Q2334.46 1461.2 2334.46 1468.33 Q2334.46 1475.44 2336.26 1479.01 Q2338.09 1482.55 2341.7 1482.55 Q2345.34 1482.55 2347.14 1479.01 Q2348.97 1475.44 2348.97 1468.33 Q2348.97 1461.2 2347.14 1457.66 Q2345.34 1454.1 2341.7 1454.1 M2341.7 1450.39 Q2347.51 1450.39 2350.57 1455 Q2353.65 1459.58 2353.65 1468.33 Q2353.65 1477.06 2350.57 1481.67 Q2347.51 1486.25 2341.7 1486.25 Q2335.89 1486.25 2332.81 1481.67 Q2329.76 1477.06 2329.76 1468.33 Q2329.76 1459.58 2332.81 1455 Q2335.89 1450.39 2341.7 1450.39 Z" fill="#000000" fill-rule="nonzero" fill-opacity="1" /><path clip-path="url(#clip960)" d="M1343.25 1520.52 L1351.9 1520.52 L1372.97 1560.28 L1372.97 1520.52 L1379.21 1520.52 L1379.21 1568.04 L1370.56 1568.04 L1349.48 1528.29 L1349.48 1568.04 L1343.25 1568.04 L1343.25 1520.52 Z" fill="#000000" fill-rule="nonzero" fill-opacity="1" /><polyline clip-path="url(#clip962)" style="stroke:#000000; stroke-linecap:round; stroke-linejoin:round; stroke-width:2; stroke-opacity:0.1; fill:none" points="369.703,1387.16 2352.76,1387.16 "/>
<polyline clip-path="url(#clip962)" style="stroke:#000000; stroke-linecap:round; stroke-linejoin:round; stroke-width:2; stroke-opacity:0.1; fill:none" points="369.703,1114.85 2352.76,1114.85 "/>
<polyline clip-path="url(#clip962)" style="stroke:#000000; stroke-linecap:round; stroke-linejoin:round; stroke-width:2; stroke-opacity:0.1; fill:none" points="369.703,842.551 2352.76,842.551 "/>
<polyline clip-path="url(#clip962)" style="stroke:#000000; stroke-linecap:round; stroke-linejoin:round; stroke-width:2; stroke-opacity:0.1; fill:none" points="369.703,570.249 2352.76,570.249 "/>
<polyline clip-path="url(#clip962)" style="stroke:#000000; stroke-linecap:round; stroke-linejoin:round; stroke-width:2; stroke-opacity:0.1; fill:none" points="369.703,297.947 2352.76,297.947 "/>
<polyline clip-path="url(#clip960)" style="stroke:#000000; stroke-linecap:round; stroke-linejoin:round; stroke-width:4; stroke-opacity:1; fill:none" points="369.703,1423.18 369.703,123.472 "/>
<polyline clip-path="url(#clip960)" style="stroke:#000000; stroke-linecap:round; stroke-linejoin:round; stroke-width:4; stroke-opacity:1; fill:none" points="369.703,1387.16 388.601,1387.16 "/>
<polyline clip-path="url(#clip960)" style="stroke:#000000; stroke-linecap:round; stroke-linejoin:round; stroke-width:4; stroke-opacity:1; fill:none" points="369.703,1114.85 388.601,1114.85 "/>
<polyline clip-path="url(#clip960)" style="stroke:#000000; stroke-linecap:round; stroke-linejoin:round; stroke-width:4; stroke-opacity:1; fill:none" points="369.703,842.551 388.601,842.551 "/>
<polyline clip-path="url(#clip960)" style="stroke:#000000; stroke-linecap:round; stroke-linejoin:round; stroke-width:4; stroke-opacity:1; fill:none" points="369.703,570.249 388.601,570.249 "/>
<polyline clip-path="url(#clip960)" style="stroke:#000000; stroke-linecap:round; stroke-linejoin:round; stroke-width:4; stroke-opacity:1; fill:none" points="369.703,297.947 388.601,297.947 "/>
<path clip-path="url(#clip960)" d="M321.759 1372.95 Q318.148 1372.95 316.319 1376.52 Q314.514 1380.06 314.514 1387.19 Q314.514 1394.3 316.319 1397.86 Q318.148 1401.4 321.759 1401.4 Q325.393 1401.4 327.199 1397.86 Q329.028 1394.3 329.028 1387.19 Q329.028 1380.06 327.199 1376.52 Q325.393 1372.95 321.759 1372.95 M321.759 1369.25 Q327.569 1369.25 330.625 1373.86 Q333.703 1378.44 333.703 1387.19 Q333.703 1395.92 330.625 1400.52 Q327.569 1405.11 321.759 1405.11 Q315.949 1405.11 312.87 1400.52 Q309.815 1395.92 309.815 1387.19 Q309.815 1378.44 312.87 1373.86 Q315.949 1369.25 321.759 1369.25 Z" fill="#000000" fill-rule="nonzero" fill-opacity="1" /><path clip-path="url(#clip960)" d="M119.885 1134.65 L136.204 1134.65 L136.204 1138.58 L114.26 1138.58 L114.26 1134.65 Q116.922 1131.89 121.505 1127.26 Q126.112 1122.61 127.292 1121.27 Q129.538 1118.74 130.417 1117.01 Q131.32 1115.25 131.32 1113.56 Q131.32 1110.8 129.376 1109.07 Q127.455 1107.33 124.353 1107.33 Q122.154 1107.33 119.7 1108.1 Q117.269 1108.86 114.492 1110.41 L114.492 1105.69 Q117.316 1104.55 119.769 1103.97 Q122.223 1103.4 124.26 1103.4 Q129.63 1103.4 132.825 1106.08 Q136.019 1108.77 136.019 1113.26 Q136.019 1115.39 135.209 1117.31 Q134.422 1119.21 132.316 1121.8 Q131.737 1122.47 128.635 1125.69 Q125.533 1128.88 119.885 1134.65 Z" fill="#000000" fill-rule="nonzero" fill-opacity="1" /><path clip-path="url(#clip960)" d="M146.019 1132.7 L150.903 1132.7 L150.903 1138.58 L146.019 1138.58 L146.019 1132.7 Z" fill="#000000" fill-rule="nonzero" fill-opacity="1" /><path clip-path="url(#clip960)" d="M161.135 1104.02 L179.491 1104.02 L179.491 1107.96 L165.417 1107.96 L165.417 1116.43 Q166.436 1116.08 167.454 1115.92 Q168.473 1115.73 169.491 1115.73 Q175.278 1115.73 178.658 1118.91 Q182.038 1122.08 182.038 1127.49 Q182.038 1133.07 178.565 1136.17 Q175.093 1139.25 168.774 1139.25 Q166.598 1139.25 164.329 1138.88 Q162.084 1138.51 159.677 1137.77 L159.677 1133.07 Q161.76 1134.21 163.982 1134.76 Q166.204 1135.32 168.681 1135.32 Q172.686 1135.32 175.024 1133.21 Q177.362 1131.1 177.362 1127.49 Q177.362 1123.88 175.024 1121.78 Q172.686 1119.67 168.681 1119.67 Q166.806 1119.67 164.931 1120.09 Q163.079 1120.5 161.135 1121.38 L161.135 1104.02 Z" fill="#000000" fill-rule="nonzero" fill-opacity="1" /><path clip-path="url(#clip960)" d="M201.25 1107.1 Q197.639 1107.1 195.811 1110.66 Q194.005 1114.21 194.005 1121.34 Q194.005 1128.44 195.811 1132.01 Q197.639 1135.55 201.25 1135.55 Q204.885 1135.55 206.69 1132.01 Q208.519 1128.44 208.519 1121.34 Q208.519 1114.21 206.69 1110.66 Q204.885 1107.1 201.25 1107.1 M201.25 1103.4 Q207.061 1103.4 210.116 1108 Q213.195 1112.59 213.195 1121.34 Q213.195 1130.06 210.116 1134.67 Q207.061 1139.25 201.25 1139.25 Q195.44 1139.25 192.362 1134.67 Q189.306 1130.06 189.306 1121.34 Q189.306 1112.59 192.362 1108 Q195.44 1103.4 201.25 1103.4 Z" fill="#000000" fill-rule="nonzero" fill-opacity="1" /><path clip-path="url(#clip960)" d="M249.584 1113.12 L239.005 1123.74 L249.584 1134.32 L246.829 1137.12 L236.204 1126.5 L225.579 1137.12 L222.848 1134.32 L233.403 1123.74 L222.848 1113.12 L225.579 1110.32 L236.204 1120.94 L246.829 1110.32 L249.584 1113.12 Z" fill="#000000" fill-rule="nonzero" fill-opacity="1" /><path clip-path="url(#clip960)" d="M261.945 1134.65 L269.583 1134.65 L269.583 1108.28 L261.273 1109.95 L261.273 1105.69 L269.537 1104.02 L274.213 1104.02 L274.213 1134.65 L281.852 1134.65 L281.852 1138.58 L261.945 1138.58 L261.945 1134.65 Z" fill="#000000" fill-rule="nonzero" fill-opacity="1" /><path clip-path="url(#clip960)" d="M301.296 1107.1 Q297.685 1107.1 295.856 1110.66 Q294.051 1114.21 294.051 1121.34 Q294.051 1128.44 295.856 1132.01 Q297.685 1135.55 301.296 1135.55 Q304.93 1135.55 306.736 1132.01 Q308.565 1128.44 308.565 1121.34 Q308.565 1114.21 306.736 1110.66 Q304.93 1107.1 301.296 1107.1 M301.296 1103.4 Q307.106 1103.4 310.162 1108 Q313.241 1112.59 313.241 1121.34 Q313.241 1130.06 310.162 1134.67 Q307.106 1139.25 301.296 1139.25 Q295.486 1139.25 292.407 1134.67 Q289.352 1130.06 289.352 1121.34 Q289.352 1112.59 292.407 1108 Q295.486 1103.4 301.296 1103.4 Z" fill="#000000" fill-rule="nonzero" fill-opacity="1" /><path clip-path="url(#clip960)" d="M325.917 1086.4 L316.325 1101.39 L325.917 1101.39 L325.917 1086.4 M324.92 1083.09 L329.697 1083.09 L329.697 1101.39 L333.703 1101.39 L333.703 1104.55 L329.697 1104.55 L329.697 1111.17 L325.917 1111.17 L325.917 1104.55 L313.241 1104.55 L313.241 1100.88 L324.92 1083.09 Z" fill="#000000" fill-rule="nonzero" fill-opacity="1" /><path clip-path="url(#clip960)" d="M115.904 831.719 L134.26 831.719 L134.26 835.654 L120.186 835.654 L120.186 844.126 Q121.205 843.779 122.223 843.617 Q123.242 843.432 124.26 843.432 Q130.047 843.432 133.427 846.603 Q136.806 849.774 136.806 855.191 Q136.806 860.77 133.334 863.871 Q129.862 866.95 123.543 866.95 Q121.367 866.95 119.098 866.58 Q116.853 866.209 114.445 865.469 L114.445 860.77 Q116.529 861.904 118.751 862.459 Q120.973 863.015 123.45 863.015 Q127.455 863.015 129.792 860.908 Q132.13 858.802 132.13 855.191 Q132.13 851.58 129.792 849.473 Q127.455 847.367 123.45 847.367 Q121.575 847.367 119.7 847.783 Q117.848 848.2 115.904 849.08 L115.904 831.719 Z" fill="#000000" fill-rule="nonzero" fill-opacity="1" /><path clip-path="url(#clip960)" d="M146.019 860.399 L150.903 860.399 L150.903 866.279 L146.019 866.279 L146.019 860.399 Z" fill="#000000" fill-rule="nonzero" fill-opacity="1" /><path clip-path="url(#clip960)" d="M171.089 834.797 Q167.477 834.797 165.649 838.362 Q163.843 841.904 163.843 849.033 Q163.843 856.14 165.649 859.705 Q167.477 863.246 171.089 863.246 Q174.723 863.246 176.528 859.705 Q178.357 856.14 178.357 849.033 Q178.357 841.904 176.528 838.362 Q174.723 834.797 171.089 834.797 M171.089 831.094 Q176.899 831.094 179.954 835.7 Q183.033 840.284 183.033 849.033 Q183.033 857.76 179.954 862.367 Q176.899 866.95 171.089 866.95 Q165.278 866.95 162.2 862.367 Q159.144 857.76 159.144 849.033 Q159.144 840.284 162.2 835.7 Q165.278 831.094 171.089 831.094 Z" fill="#000000" fill-rule="nonzero" fill-opacity="1" /><path clip-path="url(#clip960)" d="M201.25 834.797 Q197.639 834.797 195.811 838.362 Q194.005 841.904 194.005 849.033 Q194.005 856.14 195.811 859.705 Q197.639 863.246 201.25 863.246 Q204.885 863.246 206.69 859.705 Q208.519 856.14 208.519 849.033 Q208.519 841.904 206.69 838.362 Q204.885 834.797 201.25 834.797 M201.25 831.094 Q207.061 831.094 210.116 835.7 Q213.195 840.284 213.195 849.033 Q213.195 857.76 210.116 862.367 Q207.061 866.95 201.25 866.95 Q195.44 866.95 192.362 862.367 Q189.306 857.76 189.306 849.033 Q189.306 840.284 192.362 835.7 Q195.44 831.094 201.25 831.094 Z" fill="#000000" fill-rule="nonzero" fill-opacity="1" /><path clip-path="url(#clip960)" d="M249.584 840.816 L239.005 851.441 L249.584 862.02 L246.829 864.82 L236.204 854.195 L225.579 864.82 L222.848 862.02 L233.403 851.441 L222.848 840.816 L225.579 838.015 L236.204 848.64 L246.829 838.015 L249.584 840.816 Z" fill="#000000" fill-rule="nonzero" fill-opacity="1" /><path clip-path="url(#clip960)" d="M261.945 862.344 L269.583 862.344 L269.583 835.978 L261.273 837.645 L261.273 833.385 L269.537 831.719 L274.213 831.719 L274.213 862.344 L281.852 862.344 L281.852 866.279 L261.945 866.279 L261.945 862.344 Z" fill="#000000" fill-rule="nonzero" fill-opacity="1" /><path clip-path="url(#clip960)" d="M301.296 834.797 Q297.685 834.797 295.856 838.362 Q294.051 841.904 294.051 849.033 Q294.051 856.14 295.856 859.705 Q297.685 863.246 301.296 863.246 Q304.93 863.246 306.736 859.705 Q308.565 856.14 308.565 849.033 Q308.565 841.904 306.736 838.362 Q304.93 834.797 301.296 834.797 M301.296 831.094 Q307.106 831.094 310.162 835.7 Q313.241 840.284 313.241 849.033 Q313.241 857.76 310.162 862.367 Q307.106 866.95 301.296 866.95 Q295.486 866.95 292.407 862.367 Q289.352 857.76 289.352 849.033 Q289.352 840.284 292.407 835.7 Q295.486 831.094 301.296 831.094 Z" fill="#000000" fill-rule="nonzero" fill-opacity="1" /><path clip-path="url(#clip960)" d="M325.917 814.099 L316.325 829.088 L325.917 829.088 L325.917 814.099 M324.92 810.788 L329.697 810.788 L329.697 829.088 L333.703 829.088 L333.703 832.248 L329.697 832.248 L329.697 838.868 L325.917 838.868 L325.917 832.248 L313.241 832.248 L313.241 828.58 L324.92 810.788 Z" fill="#000000" fill-rule="nonzero" fill-opacity="1" /><path clip-path="url(#clip960)" d="M114.677 559.416 L136.899 559.416 L136.899 561.407 L124.353 593.976 L119.468 593.976 L131.274 563.352 L114.677 563.352 L114.677 559.416 Z" fill="#000000" fill-rule="nonzero" fill-opacity="1" /><path clip-path="url(#clip960)" d="M146.019 588.097 L150.903 588.097 L150.903 593.976 L146.019 593.976 L146.019 588.097 Z" fill="#000000" fill-rule="nonzero" fill-opacity="1" /><path clip-path="url(#clip960)" d="M161.135 559.416 L179.491 559.416 L179.491 563.352 L165.417 563.352 L165.417 571.824 Q166.436 571.477 167.454 571.315 Q168.473 571.129 169.491 571.129 Q175.278 571.129 178.658 574.301 Q182.038 577.472 182.038 582.889 Q182.038 588.467 178.565 591.569 Q175.093 594.648 168.774 594.648 Q166.598 594.648 164.329 594.277 Q162.084 593.907 159.677 593.166 L159.677 588.467 Q161.76 589.601 163.982 590.157 Q166.204 590.713 168.681 590.713 Q172.686 590.713 175.024 588.606 Q177.362 586.5 177.362 582.889 Q177.362 579.277 175.024 577.171 Q172.686 575.065 168.681 575.065 Q166.806 575.065 164.931 575.481 Q163.079 575.898 161.135 576.777 L161.135 559.416 Z" fill="#000000" fill-rule="nonzero" fill-opacity="1" /><path clip-path="url(#clip960)" d="M201.25 562.495 Q197.639 562.495 195.811 566.06 Q194.005 569.602 194.005 576.731 Q194.005 583.838 195.811 587.402 Q197.639 590.944 201.25 590.944 Q204.885 590.944 206.69 587.402 Q208.519 583.838 208.519 576.731 Q208.519 569.602 206.69 566.06 Q204.885 562.495 201.25 562.495 M201.25 558.791 Q207.061 558.791 210.116 563.398 Q213.195 567.981 213.195 576.731 Q213.195 585.458 210.116 590.064 Q207.061 594.648 201.25 594.648 Q195.44 594.648 192.362 590.064 Q189.306 585.458 189.306 576.731 Q189.306 567.981 192.362 563.398 Q195.44 558.791 201.25 558.791 Z" fill="#000000" fill-rule="nonzero" fill-opacity="1" /><path clip-path="url(#clip960)" d="M249.584 568.514 L239.005 579.139 L249.584 589.717 L246.829 592.518 L236.204 581.893 L225.579 592.518 L222.848 589.717 L233.403 579.139 L222.848 568.514 L225.579 565.713 L236.204 576.338 L246.829 565.713 L249.584 568.514 Z" fill="#000000" fill-rule="nonzero" fill-opacity="1" /><path clip-path="url(#clip960)" d="M261.945 590.041 L269.583 590.041 L269.583 563.676 L261.273 565.342 L261.273 561.083 L269.537 559.416 L274.213 559.416 L274.213 590.041 L281.852 590.041 L281.852 593.976 L261.945 593.976 L261.945 590.041 Z" fill="#000000" fill-rule="nonzero" fill-opacity="1" /><path clip-path="url(#clip960)" d="M301.296 562.495 Q297.685 562.495 295.856 566.06 Q294.051 569.602 294.051 576.731 Q294.051 583.838 295.856 587.402 Q297.685 590.944 301.296 590.944 Q304.93 590.944 306.736 587.402 Q308.565 583.838 308.565 576.731 Q308.565 569.602 306.736 566.06 Q304.93 562.495 301.296 562.495 M301.296 558.791 Q307.106 558.791 310.162 563.398 Q313.241 567.981 313.241 576.731 Q313.241 585.458 310.162 590.064 Q307.106 594.648 301.296 594.648 Q295.486 594.648 292.407 590.064 Q289.352 585.458 289.352 576.731 Q289.352 567.981 292.407 563.398 Q295.486 558.791 301.296 558.791 Z" fill="#000000" fill-rule="nonzero" fill-opacity="1" /><path clip-path="url(#clip960)" d="M325.917 541.796 L316.325 556.786 L325.917 556.786 L325.917 541.796 M324.92 538.486 L329.697 538.486 L329.697 556.786 L333.703 556.786 L333.703 559.946 L329.697 559.946 L329.697 566.566 L325.917 566.566 L325.917 559.946 L313.241 559.946 L313.241 556.278 L324.92 538.486 Z" fill="#000000" fill-rule="nonzero" fill-opacity="1" /><path clip-path="url(#clip960)" d="M118.962 317.739 L126.601 317.739 L126.601 291.373 L118.291 293.04 L118.291 288.781 L126.555 287.114 L131.231 287.114 L131.231 317.739 L138.869 317.739 L138.869 321.674 L118.962 321.674 L118.962 317.739 Z" fill="#000000" fill-rule="nonzero" fill-opacity="1" /><path clip-path="url(#clip960)" d="M148.314 315.795 L153.198 315.795 L153.198 321.674 L148.314 321.674 L148.314 315.795 Z" fill="#000000" fill-rule="nonzero" fill-opacity="1" /><path clip-path="url(#clip960)" d="M173.383 290.193 Q169.772 290.193 167.943 293.758 Q166.138 297.299 166.138 304.429 Q166.138 311.535 167.943 315.1 Q169.772 318.642 173.383 318.642 Q177.017 318.642 178.823 315.1 Q180.652 311.535 180.652 304.429 Q180.652 297.299 178.823 293.758 Q177.017 290.193 173.383 290.193 M173.383 286.489 Q179.193 286.489 182.249 291.096 Q185.327 295.679 185.327 304.429 Q185.327 313.156 182.249 317.762 Q179.193 322.345 173.383 322.345 Q167.573 322.345 164.494 317.762 Q161.439 313.156 161.439 304.429 Q161.439 295.679 164.494 291.096 Q167.573 286.489 173.383 286.489 Z" fill="#000000" fill-rule="nonzero" fill-opacity="1" /><path clip-path="url(#clip960)" d="M203.545 290.193 Q199.934 290.193 198.105 293.758 Q196.3 297.299 196.3 304.429 Q196.3 311.535 198.105 315.1 Q199.934 318.642 203.545 318.642 Q207.179 318.642 208.985 315.1 Q210.813 311.535 210.813 304.429 Q210.813 297.299 208.985 293.758 Q207.179 290.193 203.545 290.193 M203.545 286.489 Q209.355 286.489 212.411 291.096 Q215.489 295.679 215.489 304.429 Q215.489 313.156 212.411 317.762 Q209.355 322.345 203.545 322.345 Q197.735 322.345 194.656 317.762 Q191.601 313.156 191.601 304.429 Q191.601 295.679 194.656 291.096 Q197.735 286.489 203.545 286.489 Z" fill="#000000" fill-rule="nonzero" fill-opacity="1" /><path clip-path="url(#clip960)" d="M251.878 296.211 L241.299 306.836 L251.878 317.415 L249.123 320.216 L238.498 309.591 L227.874 320.216 L225.142 317.415 L235.698 306.836 L225.142 296.211 L227.874 293.41 L238.498 304.035 L249.123 293.41 L251.878 296.211 Z" fill="#000000" fill-rule="nonzero" fill-opacity="1" /><path clip-path="url(#clip960)" d="M264.239 317.739 L271.878 317.739 L271.878 291.373 L263.568 293.04 L263.568 288.781 L271.832 287.114 L276.508 287.114 L276.508 317.739 L284.146 317.739 L284.146 321.674 L264.239 321.674 L264.239 317.739 Z" fill="#000000" fill-rule="nonzero" fill-opacity="1" /><path clip-path="url(#clip960)" d="M303.591 290.193 Q299.98 290.193 298.151 293.758 Q296.345 297.299 296.345 304.429 Q296.345 311.535 298.151 315.1 Q299.98 318.642 303.591 318.642 Q307.225 318.642 309.031 315.1 Q310.859 311.535 310.859 304.429 Q310.859 297.299 309.031 293.758 Q307.225 290.193 303.591 290.193 M303.591 286.489 Q309.401 286.489 312.456 291.096 Q315.535 295.679 315.535 304.429 Q315.535 313.156 312.456 317.762 Q309.401 322.345 303.591 322.345 Q297.781 322.345 294.702 317.762 Q291.646 313.156 291.646 304.429 Q291.646 295.679 294.702 291.096 Q297.781 286.489 303.591 286.489 Z" fill="#000000" fill-rule="nonzero" fill-opacity="1" /><path clip-path="url(#clip960)" d="M316.72 266.184 L331.635 266.184 L331.635 269.381 L320.199 269.381 L320.199 276.265 Q321.027 275.983 321.855 275.851 Q322.682 275.7 323.51 275.7 Q328.212 275.7 330.957 278.277 Q333.703 280.854 333.703 285.255 Q333.703 289.788 330.882 292.308 Q328.061 294.809 322.927 294.809 Q321.159 294.809 319.315 294.508 Q317.491 294.207 315.535 293.605 L315.535 289.788 Q317.228 290.709 319.033 291.16 Q320.839 291.612 322.851 291.612 Q326.105 291.612 328.005 289.9 Q329.904 288.189 329.904 285.255 Q329.904 282.321 328.005 280.609 Q326.105 278.898 322.851 278.898 Q321.328 278.898 319.804 279.236 Q318.3 279.575 316.72 280.29 L316.72 266.184 Z" fill="#000000" fill-rule="nonzero" fill-opacity="1" /><path clip-path="url(#clip960)" d="M16.4842 923.811 L16.4842 883.612 L21.895 883.612 L21.895 900.481 L64.0042 900.481 L64.0042 906.942 L21.895 906.942 L21.895 923.811 L16.4842 923.811 Z" fill="#000000" fill-rule="nonzero" fill-opacity="1" /><path clip-path="url(#clip960)" d="M28.3562 879.665 L28.3562 873.809 L64.0042 873.809 L64.0042 879.665 L28.3562 879.665 M14.479 879.665 L14.479 873.809 L21.895 873.809 L21.895 879.665 L14.479 879.665 Z" fill="#000000" fill-rule="nonzero" fill-opacity="1" /><path clip-path="url(#clip960)" d="M35.1993 833.8 Q31.2526 831.604 29.3747 828.548 Q27.4968 825.493 27.4968 821.355 Q27.4968 815.785 31.4117 812.762 Q35.2948 809.738 42.4881 809.738 L64.0042 809.738 L64.0042 815.626 L42.679 815.626 Q37.5546 815.626 35.072 817.44 Q32.5894 819.255 32.5894 822.978 Q32.5894 827.53 35.6131 830.172 Q38.6368 832.814 43.8567 832.814 L64.0042 832.814 L64.0042 838.702 L42.679 838.702 Q37.5228 838.702 35.072 840.516 Q32.5894 842.33 32.5894 846.118 Q32.5894 850.606 35.6449 853.247 Q38.6686 855.889 43.8567 855.889 L64.0042 855.889 L64.0042 861.777 L28.3562 861.777 L28.3562 855.889 L33.8944 855.889 Q30.616 853.884 29.0564 851.083 Q27.4968 848.282 27.4968 844.431 Q27.4968 840.548 29.4702 837.842 Q31.4436 835.105 35.1993 833.8 Z" fill="#000000" fill-rule="nonzero" fill-opacity="1" /><path clip-path="url(#clip960)" d="M44.7161 767.565 L47.5806 767.565 L47.5806 794.492 Q53.6281 794.11 56.8109 790.864 Q59.9619 787.585 59.9619 781.761 Q59.9619 778.387 59.1344 775.236 Q58.3069 772.053 56.6518 768.934 L62.1899 768.934 Q63.5267 772.085 64.227 775.395 Q64.9272 778.705 64.9272 782.111 Q64.9272 790.641 59.9619 795.638 Q54.9967 800.603 46.5303 800.603 Q37.7774 800.603 32.6531 795.892 Q27.4968 791.15 27.4968 783.129 Q27.4968 775.936 32.1438 771.766 Q36.7589 767.565 44.7161 767.565 M42.9973 773.421 Q38.1912 773.485 35.3266 776.127 Q32.4621 778.737 32.4621 783.066 Q32.4621 787.967 35.2312 790.927 Q38.0002 793.855 43.0292 794.301 L42.9973 773.421 Z" fill="#000000" fill-rule="nonzero" fill-opacity="1" /><path clip-path="url(#clip960)" d="M14.5426 723.164 Q21.8632 727.429 29.0246 729.498 Q36.186 731.567 43.5384 731.567 Q50.8908 731.567 58.1159 729.498 Q65.3091 727.397 72.5979 723.164 L72.5979 728.257 Q65.1182 733.031 57.8931 735.418 Q50.668 737.774 43.5384 737.774 Q36.4406 737.774 29.2474 735.418 Q22.0542 733.063 14.5426 728.257 L14.5426 723.164 Z" fill="#000000" fill-rule="nonzero" fill-opacity="1" /><path clip-path="url(#clip960)" d="M42.4881 682.169 L64.0042 682.169 L64.0042 688.026 L42.679 688.026 Q37.6183 688.026 35.1038 689.999 Q32.5894 691.972 32.5894 695.919 Q32.5894 700.661 35.6131 703.399 Q38.6368 706.136 43.8567 706.136 L64.0042 706.136 L64.0042 712.024 L28.3562 712.024 L28.3562 706.136 L33.8944 706.136 Q30.6797 704.035 29.0883 701.203 Q27.4968 698.338 27.4968 694.614 Q27.4968 688.471 31.3163 685.32 Q35.1038 682.169 42.4881 682.169 Z" fill="#000000" fill-rule="nonzero" fill-opacity="1" /><path clip-path="url(#clip960)" d="M29.4065 647.762 L34.9447 647.762 Q33.6716 650.245 33.035 652.919 Q32.3984 655.592 32.3984 658.457 Q32.3984 662.817 33.7352 665.013 Q35.072 667.178 37.7456 667.178 Q39.7826 667.178 40.9603 665.618 Q42.1061 664.059 43.1565 659.348 L43.6021 657.343 Q44.9389 651.104 47.3897 648.494 Q49.8086 645.853 54.1691 645.853 Q59.1344 645.853 62.0308 649.799 Q64.9272 653.714 64.9272 660.589 Q64.9272 663.454 64.3543 666.573 Q63.8132 669.66 62.6992 673.098 L56.6518 673.098 Q58.3387 669.851 59.198 666.7 Q60.0256 663.549 60.0256 660.462 Q60.0256 656.324 58.6251 654.096 Q57.1929 651.868 54.6147 651.868 Q52.2276 651.868 50.9545 653.492 Q49.6813 655.083 48.5037 660.526 L48.0262 662.563 Q46.8804 668.005 44.5251 670.424 Q42.138 672.843 38.0002 672.843 Q32.9713 672.843 30.2341 669.279 Q27.4968 665.714 27.4968 659.157 Q27.4968 655.911 27.9743 653.046 Q28.4517 650.181 29.4065 647.762 Z" fill="#000000" fill-rule="nonzero" fill-opacity="1" /><path clip-path="url(#clip960)" d="M14.5426 637.45 L14.5426 632.357 Q22.0542 627.583 29.2474 625.228 Q36.4406 622.841 43.5384 622.841 Q50.668 622.841 57.8931 625.228 Q65.1182 627.583 72.5979 632.357 L72.5979 637.45 Q65.3091 633.217 58.1159 631.148 Q50.8908 629.047 43.5384 629.047 Q36.186 629.047 29.0246 631.148 Q21.8632 633.217 14.5426 637.45 Z" fill="#000000" fill-rule="nonzero" fill-opacity="1" /><path clip-path="url(#clip960)" d="M835.443 12.096 L886.605 12.096 L886.605 18.9825 L865.136 18.9825 L865.136 72.576 L856.912 72.576 L856.912 18.9825 L835.443 18.9825 L835.443 12.096 Z" fill="#000000" fill-rule="nonzero" fill-opacity="1" /><path clip-path="url(#clip960)" d="M891.629 27.2059 L899.082 27.2059 L899.082 72.576 L891.629 72.576 L891.629 27.2059 M891.629 9.54393 L899.082 9.54393 L899.082 18.9825 L891.629 18.9825 L891.629 9.54393 Z" fill="#000000" fill-rule="nonzero" fill-opacity="1" /><path clip-path="url(#clip960)" d="M950.002 35.9153 Q952.797 30.8922 956.686 28.5022 Q960.575 26.1121 965.841 26.1121 Q972.93 26.1121 976.779 31.0947 Q980.627 36.0368 980.627 45.1919 L980.627 72.576 L973.133 72.576 L973.133 45.4349 Q973.133 38.913 970.824 35.7533 Q968.515 32.5936 963.775 32.5936 Q957.982 32.5936 954.62 36.4419 Q951.258 40.2903 951.258 46.9338 L951.258 72.576 L943.764 72.576 L943.764 45.4349 Q943.764 38.8725 941.455 35.7533 Q939.146 32.5936 934.325 32.5936 Q928.613 32.5936 925.251 36.4824 Q921.889 40.3308 921.889 46.9338 L921.889 72.576 L914.395 72.576 L914.395 27.2059 L921.889 27.2059 L921.889 34.2544 Q924.441 30.082 928.006 28.0971 Q931.571 26.1121 936.472 26.1121 Q941.414 26.1121 944.857 28.6237 Q948.341 31.1352 950.002 35.9153 Z" fill="#000000" fill-rule="nonzero" fill-opacity="1" /><path clip-path="url(#clip960)" d="M1034.3 48.0275 L1034.3 51.6733 L1000.03 51.6733 Q1000.52 59.3701 1004.65 63.421 Q1008.82 67.4314 1016.23 67.4314 Q1020.53 67.4314 1024.54 66.3781 Q1028.59 65.3249 1032.56 63.2184 L1032.56 70.267 Q1028.55 71.9684 1024.34 72.8596 Q1020.12 73.7508 1015.79 73.7508 Q1004.93 73.7508 998.572 67.4314 Q992.253 61.1119 992.253 50.3365 Q992.253 39.1965 998.248 32.6746 Q1004.28 26.1121 1014.49 26.1121 Q1023.65 26.1121 1028.95 32.0264 Q1034.3 37.9003 1034.3 48.0275 M1026.85 45.84 Q1026.77 39.7232 1023.4 36.0774 Q1020.08 32.4315 1014.57 32.4315 Q1008.34 32.4315 1004.57 35.9558 Q1000.84 39.4801 1000.27 45.8805 L1026.85 45.84 Z" fill="#000000" fill-rule="nonzero" fill-opacity="1" /><path clip-path="url(#clip960)" d="M1080.28 14.324 L1080.28 27.2059 L1095.63 27.2059 L1095.63 32.9987 L1080.28 32.9987 L1080.28 57.6282 Q1080.28 63.1779 1081.78 64.7578 Q1083.32 66.3376 1087.98 66.3376 L1095.63 66.3376 L1095.63 72.576 L1087.98 72.576 Q1079.35 72.576 1076.07 69.3758 Q1072.79 66.1351 1072.79 57.6282 L1072.79 32.9987 L1067.32 32.9987 L1067.32 27.2059 L1072.79 27.2059 L1072.79 14.324 L1080.28 14.324 Z" fill="#000000" fill-rule="nonzero" fill-opacity="1" /><path clip-path="url(#clip960)" d="M1123.02 32.4315 Q1117.02 32.4315 1113.54 37.1306 Q1110.05 41.7891 1110.05 49.9314 Q1110.05 58.0738 1113.5 62.7728 Q1116.98 67.4314 1123.02 67.4314 Q1128.97 67.4314 1132.45 62.7323 Q1135.94 58.0333 1135.94 49.9314 Q1135.94 41.8701 1132.45 37.1711 Q1128.97 32.4315 1123.02 32.4315 M1123.02 26.1121 Q1132.74 26.1121 1138.29 32.4315 Q1143.84 38.7509 1143.84 49.9314 Q1143.84 61.0714 1138.29 67.4314 Q1132.74 73.7508 1123.02 73.7508 Q1113.25 73.7508 1107.7 67.4314 Q1102.19 61.0714 1102.19 49.9314 Q1102.19 38.7509 1107.7 32.4315 Q1113.25 26.1121 1123.02 26.1121 Z" fill="#000000" fill-rule="nonzero" fill-opacity="1" /><path clip-path="url(#clip960)" d="M1215.21 28.9478 L1215.21 35.9153 Q1212.06 34.1734 1208.85 33.3227 Q1205.7 32.4315 1202.45 32.4315 Q1195.2 32.4315 1191.19 37.0496 Q1187.18 41.6271 1187.18 49.9314 Q1187.18 58.2358 1191.19 62.8538 Q1195.2 67.4314 1202.45 67.4314 Q1205.7 67.4314 1208.85 66.5807 Q1212.06 65.6895 1215.21 63.9476 L1215.21 70.8341 Q1212.1 72.2924 1208.73 73.0216 Q1205.41 73.7508 1201.64 73.7508 Q1191.4 73.7508 1185.36 67.3098 Q1179.32 60.8689 1179.32 49.9314 Q1179.32 38.832 1185.4 32.472 Q1191.52 26.1121 1202.13 26.1121 Q1205.57 26.1121 1208.85 26.8413 Q1212.14 27.5299 1215.21 28.9478 Z" fill="#000000" fill-rule="nonzero" fill-opacity="1" /><path clip-path="url(#clip960)" d="M1245.76 32.4315 Q1239.76 32.4315 1236.28 37.1306 Q1232.8 41.7891 1232.8 49.9314 Q1232.8 58.0738 1236.24 62.7728 Q1239.72 67.4314 1245.76 67.4314 Q1251.71 67.4314 1255.2 62.7323 Q1258.68 58.0333 1258.68 49.9314 Q1258.68 41.8701 1255.2 37.1711 Q1251.71 32.4315 1245.76 32.4315 M1245.76 26.1121 Q1255.48 26.1121 1261.03 32.4315 Q1266.58 38.7509 1266.58 49.9314 Q1266.58 61.0714 1261.03 67.4314 Q1255.48 73.7508 1245.76 73.7508 Q1236 73.7508 1230.45 67.4314 Q1224.94 61.0714 1224.94 49.9314 Q1224.94 38.7509 1230.45 32.4315 Q1236 26.1121 1245.76 26.1121 Z" fill="#000000" fill-rule="nonzero" fill-opacity="1" /><path clip-path="url(#clip960)" d="M1314.26 35.9153 Q1317.05 30.8922 1320.94 28.5022 Q1324.83 26.1121 1330.1 26.1121 Q1337.19 26.1121 1341.04 31.0947 Q1344.88 36.0368 1344.88 45.1919 L1344.88 72.576 L1337.39 72.576 L1337.39 45.4349 Q1337.39 38.913 1335.08 35.7533 Q1332.77 32.5936 1328.03 32.5936 Q1322.24 32.5936 1318.88 36.4419 Q1315.52 40.2903 1315.52 46.9338 L1315.52 72.576 L1308.02 72.576 L1308.02 45.4349 Q1308.02 38.8725 1305.71 35.7533 Q1303.4 32.5936 1298.58 32.5936 Q1292.87 32.5936 1289.51 36.4824 Q1286.15 40.3308 1286.15 46.9338 L1286.15 72.576 L1278.65 72.576 L1278.65 27.2059 L1286.15 27.2059 L1286.15 34.2544 Q1288.7 30.082 1292.26 28.0971 Q1295.83 26.1121 1300.73 26.1121 Q1305.67 26.1121 1309.11 28.6237 Q1312.6 31.1352 1314.26 35.9153 Z" fill="#000000" fill-rule="nonzero" fill-opacity="1" /><path clip-path="url(#clip960)" d="M1366.96 65.7705 L1366.96 89.8329 L1359.47 89.8329 L1359.47 27.2059 L1366.96 27.2059 L1366.96 34.0924 Q1369.31 30.0415 1372.88 28.0971 Q1376.48 26.1121 1381.46 26.1121 Q1389.73 26.1121 1394.87 32.6746 Q1400.06 39.2371 1400.06 49.9314 Q1400.06 60.6258 1394.87 67.1883 Q1389.73 73.7508 1381.46 73.7508 Q1376.48 73.7508 1372.88 71.8063 Q1369.31 69.8214 1366.96 65.7705 M1392.32 49.9314 Q1392.32 41.7081 1388.92 37.0496 Q1385.56 32.3505 1379.64 32.3505 Q1373.73 32.3505 1370.32 37.0496 Q1366.96 41.7081 1366.96 49.9314 Q1366.96 58.1548 1370.32 62.8538 Q1373.73 67.5124 1379.64 67.5124 Q1385.56 67.5124 1388.92 62.8538 Q1392.32 58.1548 1392.32 49.9314 Z" fill="#000000" fill-rule="nonzero" fill-opacity="1" /><path clip-path="url(#clip960)" d="M1411.64 54.671 L1411.64 27.2059 L1419.1 27.2059 L1419.1 54.3874 Q1419.1 60.8284 1421.61 64.0691 Q1424.12 67.2693 1429.14 67.2693 Q1435.18 67.2693 1438.66 63.421 Q1442.19 59.5726 1442.19 52.9291 L1442.19 27.2059 L1449.64 27.2059 L1449.64 72.576 L1442.19 72.576 L1442.19 65.6084 Q1439.47 69.7404 1435.87 71.7658 Q1432.3 73.7508 1427.56 73.7508 Q1419.74 73.7508 1415.69 68.8897 Q1411.64 64.0286 1411.64 54.671 M1430.4 26.1121 L1430.4 26.1121 Z" fill="#000000" fill-rule="nonzero" fill-opacity="1" /><path clip-path="url(#clip960)" d="M1472.37 14.324 L1472.37 27.2059 L1487.72 27.2059 L1487.72 32.9987 L1472.37 32.9987 L1472.37 57.6282 Q1472.37 63.1779 1473.87 64.7578 Q1475.4 66.3376 1480.06 66.3376 L1487.72 66.3376 L1487.72 72.576 L1480.06 72.576 Q1471.43 72.576 1468.15 69.3758 Q1464.87 66.1351 1464.87 57.6282 L1464.87 32.9987 L1459.4 32.9987 L1459.4 27.2059 L1464.87 27.2059 L1464.87 14.324 L1472.37 14.324 Z" fill="#000000" fill-rule="nonzero" fill-opacity="1" /><path clip-path="url(#clip960)" d="M1536.33 48.0275 L1536.33 51.6733 L1502.06 51.6733 Q1502.55 59.3701 1506.68 63.421 Q1510.85 67.4314 1518.26 67.4314 Q1522.56 67.4314 1526.57 66.3781 Q1530.62 65.3249 1534.59 63.2184 L1534.59 70.267 Q1530.58 71.9684 1526.36 72.8596 Q1522.15 73.7508 1517.82 73.7508 Q1506.96 73.7508 1500.6 67.4314 Q1494.28 61.1119 1494.28 50.3365 Q1494.28 39.1965 1500.28 32.6746 Q1506.31 26.1121 1516.52 26.1121 Q1525.68 26.1121 1530.98 32.0264 Q1536.33 37.9003 1536.33 48.0275 M1528.88 45.84 Q1528.8 39.7232 1525.43 36.0774 Q1522.11 32.4315 1516.6 32.4315 Q1510.36 32.4315 1506.6 35.9558 Q1502.87 39.4801 1502.3 45.8805 L1528.88 45.84 Z" fill="#000000" fill-rule="nonzero" fill-opacity="1" /><path clip-path="url(#clip960)" d="M1583.44 18.8205 L1583.44 41.5461 L1593.73 41.5461 Q1599.44 41.5461 1602.56 38.5889 Q1605.68 35.6318 1605.68 30.163 Q1605.68 24.7348 1602.56 21.7777 Q1599.44 18.8205 1593.73 18.8205 L1583.44 18.8205 M1575.26 12.096 L1593.73 12.096 Q1603.9 12.096 1609.08 16.714 Q1614.31 21.2916 1614.31 30.163 Q1614.31 39.1155 1609.08 43.6931 Q1603.9 48.2706 1593.73 48.2706 L1583.44 48.2706 L1583.44 72.576 L1575.26 72.576 L1575.26 12.096 Z" fill="#000000" fill-rule="nonzero" fill-opacity="1" /><path clip-path="url(#clip960)" d="M1639.59 32.4315 Q1633.59 32.4315 1630.11 37.1306 Q1626.62 41.7891 1626.62 49.9314 Q1626.62 58.0738 1630.07 62.7728 Q1633.55 67.4314 1639.59 67.4314 Q1645.54 67.4314 1649.03 62.7323 Q1652.51 58.0333 1652.51 49.9314 Q1652.51 41.8701 1649.03 37.1711 Q1645.54 32.4315 1639.59 32.4315 M1639.59 26.1121 Q1649.31 26.1121 1654.86 32.4315 Q1660.41 38.7509 1660.41 49.9314 Q1660.41 61.0714 1654.86 67.4314 Q1649.31 73.7508 1639.59 73.7508 Q1629.82 73.7508 1624.28 67.4314 Q1618.77 61.0714 1618.77 49.9314 Q1618.77 38.7509 1624.28 32.4315 Q1629.82 26.1121 1639.59 26.1121 Z" fill="#000000" fill-rule="nonzero" fill-opacity="1" /><path clip-path="url(#clip960)" d="M1679.98 65.7705 L1679.98 89.8329 L1672.48 89.8329 L1672.48 27.2059 L1679.98 27.2059 L1679.98 34.0924 Q1682.32 30.0415 1685.89 28.0971 Q1689.49 26.1121 1694.48 26.1121 Q1702.74 26.1121 1707.89 32.6746 Q1713.07 39.2371 1713.07 49.9314 Q1713.07 60.6258 1707.89 67.1883 Q1702.74 73.7508 1694.48 73.7508 Q1689.49 73.7508 1685.89 71.8063 Q1682.32 69.8214 1679.98 65.7705 M1705.33 49.9314 Q1705.33 41.7081 1701.93 37.0496 Q1698.57 32.3505 1692.65 32.3505 Q1686.74 32.3505 1683.34 37.0496 Q1679.98 41.7081 1679.98 49.9314 Q1679.98 58.1548 1683.34 62.8538 Q1686.74 67.5124 1692.65 67.5124 Q1698.57 67.5124 1701.93 62.8538 Q1705.33 58.1548 1705.33 49.9314 Z" fill="#000000" fill-rule="nonzero" fill-opacity="1" /><path clip-path="url(#clip960)" d="M1752.12 12.096 L1760.3 12.096 L1760.3 65.6895 L1789.75 65.6895 L1789.75 72.576 L1752.12 72.576 L1752.12 12.096 Z" fill="#000000" fill-rule="nonzero" fill-opacity="1" /><path clip-path="url(#clip960)" d="M1798.02 27.2059 L1805.47 27.2059 L1805.47 72.576 L1798.02 72.576 L1798.02 27.2059 M1798.02 9.54393 L1805.47 9.54393 L1805.47 18.9825 L1798.02 18.9825 L1798.02 9.54393 Z" fill="#000000" fill-rule="nonzero" fill-opacity="1" /><path clip-path="url(#clip960)" d="M1849.99 28.5427 L1849.99 35.5912 Q1846.83 33.9709 1843.43 33.1607 Q1840.03 32.3505 1836.38 32.3505 Q1830.83 32.3505 1828.04 34.0519 Q1825.28 35.7533 1825.28 39.156 Q1825.28 41.7486 1827.27 43.2475 Q1829.25 44.7058 1835.25 46.0426 L1837.8 46.6097 Q1845.74 48.3111 1849.06 51.4303 Q1852.42 54.509 1852.42 60.0587 Q1852.42 66.3781 1847.4 70.0644 Q1842.42 73.7508 1833.67 73.7508 Q1830.02 73.7508 1826.05 73.0216 Q1822.12 72.3329 1817.75 70.9151 L1817.75 63.2184 Q1821.88 65.3654 1825.89 66.4591 Q1829.9 67.5124 1833.83 67.5124 Q1839.09 67.5124 1841.93 65.73 Q1844.77 63.9071 1844.77 60.6258 Q1844.77 57.5877 1842.7 55.9673 Q1840.67 54.3469 1833.75 52.8481 L1831.15 52.2405 Q1824.23 50.7821 1821.15 47.7845 Q1818.07 44.7463 1818.07 39.4801 Q1818.07 33.0797 1822.61 29.5959 Q1827.14 26.1121 1835.49 26.1121 Q1839.62 26.1121 1843.27 26.7198 Q1846.91 27.3274 1849.99 28.5427 Z" fill="#000000" fill-rule="nonzero" fill-opacity="1" /><path clip-path="url(#clip960)" d="M1871.66 14.324 L1871.66 27.2059 L1887.02 27.2059 L1887.02 32.9987 L1871.66 32.9987 L1871.66 57.6282 Q1871.66 63.1779 1873.16 64.7578 Q1874.7 66.3376 1879.36 66.3376 L1887.02 66.3376 L1887.02 72.576 L1879.36 72.576 Q1870.73 72.576 1867.45 69.3758 Q1864.17 66.1351 1864.17 57.6282 L1864.17 32.9987 L1858.7 32.9987 L1858.7 27.2059 L1864.17 27.2059 L1864.17 14.324 L1871.66 14.324 Z" fill="#000000" fill-rule="nonzero" fill-opacity="1" /><polyline clip-path="url(#clip962)" style="stroke:#009af9; stroke-linecap:round; stroke-linejoin:round; stroke-width:4; stroke-opacity:1; fill:none" points="425.828,1386.4 434.25,1386.13 471.685,1386.11 518.479,1386.07 565.272,1385.95 612.066,1385.92 658.859,1385.8 705.653,1385.65 752.446,1385.68 799.24,1385.51 892.827,1385.51 1360.76,1385.12 2296.63,1384.86 "/>
<polyline clip-path="url(#clip962)" style="stroke:#e26f46; stroke-linecap:round; stroke-linejoin:round; stroke-width:4; stroke-opacity:1; fill:none" points="425.828,1385.85 434.25,1379.06 471.685,1354.53 518.479,1324.12 565.272,1293.74 612.066,1263.53 658.859,1233.01 705.653,1202.71 752.446,1170.53 799.24,1138.3 892.827,1080.13 1360.76,777.076 2296.63,160.256 "/>
<polyline clip-path="url(#clip962)" style="stroke:#3da44d; stroke-linecap:round; stroke-linejoin:round; stroke-width:4; stroke-opacity:1; fill:none" points="425.828,1385.95 434.25,1377.6 471.685,1362.59 518.479,1343.33 565.272,1323.46 612.066,1304.5 658.859,1284.61 705.653,1265.74 752.446,1244.97 799.24,1228.04 892.827,1190.48 1360.76,999.41 2296.63,617.314 "/>
<circle clip-path="url(#clip962)" cx="425.828" cy="1386.4" r="14.4" fill="#c271d2" fill-rule="evenodd" fill-opacity="1" stroke="#000000" stroke-opacity="1" stroke-width="3.2"/>
<circle clip-path="url(#clip962)" cx="434.25" cy="1386.13" r="14.4" fill="#c271d2" fill-rule="evenodd" fill-opacity="1" stroke="#000000" stroke-opacity="1" stroke-width="3.2"/>
<circle clip-path="url(#clip962)" cx="471.685" cy="1386.11" r="14.4" fill="#c271d2" fill-rule="evenodd" fill-opacity="1" stroke="#000000" stroke-opacity="1" stroke-width="3.2"/>
<circle clip-path="url(#clip962)" cx="518.479" cy="1386.07" r="14.4" fill="#c271d2" fill-rule="evenodd" fill-opacity="1" stroke="#000000" stroke-opacity="1" stroke-width="3.2"/>
<circle clip-path="url(#clip962)" cx="565.272" cy="1385.95" r="14.4" fill="#c271d2" fill-rule="evenodd" fill-opacity="1" stroke="#000000" stroke-opacity="1" stroke-width="3.2"/>
<circle clip-path="url(#clip962)" cx="612.066" cy="1385.92" r="14.4" fill="#c271d2" fill-rule="evenodd" fill-opacity="1" stroke="#000000" stroke-opacity="1" stroke-width="3.2"/>
<circle clip-path="url(#clip962)" cx="658.859" cy="1385.8" r="14.4" fill="#c271d2" fill-rule="evenodd" fill-opacity="1" stroke="#000000" stroke-opacity="1" stroke-width="3.2"/>
<circle clip-path="url(#clip962)" cx="705.653" cy="1385.65" r="14.4" fill="#c271d2" fill-rule="evenodd" fill-opacity="1" stroke="#000000" stroke-opacity="1" stroke-width="3.2"/>
<circle clip-path="url(#clip962)" cx="752.446" cy="1385.68" r="14.4" fill="#c271d2" fill-rule="evenodd" fill-opacity="1" stroke="#000000" stroke-opacity="1" stroke-width="3.2"/>
<circle clip-path="url(#clip962)" cx="799.24" cy="1385.51" r="14.4" fill="#c271d2" fill-rule="evenodd" fill-opacity="1" stroke="#000000" stroke-opacity="1" stroke-width="3.2"/>
<circle clip-path="url(#clip962)" cx="892.827" cy="1385.51" r="14.4" fill="#c271d2" fill-rule="evenodd" fill-opacity="1" stroke="#000000" stroke-opacity="1" stroke-width="3.2"/>
<circle clip-path="url(#clip962)" cx="1360.76" cy="1385.12" r="14.4" fill="#c271d2" fill-rule="evenodd" fill-opacity="1" stroke="#000000" stroke-opacity="1" stroke-width="3.2"/>
<circle clip-path="url(#clip962)" cx="2296.63" cy="1384.86" r="14.4" fill="#c271d2" fill-rule="evenodd" fill-opacity="1" stroke="#000000" stroke-opacity="1" stroke-width="3.2"/>
<circle clip-path="url(#clip962)" cx="425.828" cy="1385.85" r="14.4" fill="#ac8d18" fill-rule="evenodd" fill-opacity="1" stroke="#000000" stroke-opacity="1" stroke-width="3.2"/>
<circle clip-path="url(#clip962)" cx="434.25" cy="1379.06" r="14.4" fill="#ac8d18" fill-rule="evenodd" fill-opacity="1" stroke="#000000" stroke-opacity="1" stroke-width="3.2"/>
<circle clip-path="url(#clip962)" cx="471.685" cy="1354.53" r="14.4" fill="#ac8d18" fill-rule="evenodd" fill-opacity="1" stroke="#000000" stroke-opacity="1" stroke-width="3.2"/>
<circle clip-path="url(#clip962)" cx="518.479" cy="1324.12" r="14.4" fill="#ac8d18" fill-rule="evenodd" fill-opacity="1" stroke="#000000" stroke-opacity="1" stroke-width="3.2"/>
<circle clip-path="url(#clip962)" cx="565.272" cy="1293.74" r="14.4" fill="#ac8d18" fill-rule="evenodd" fill-opacity="1" stroke="#000000" stroke-opacity="1" stroke-width="3.2"/>
<circle clip-path="url(#clip962)" cx="612.066" cy="1263.53" r="14.4" fill="#ac8d18" fill-rule="evenodd" fill-opacity="1" stroke="#000000" stroke-opacity="1" stroke-width="3.2"/>
<circle clip-path="url(#clip962)" cx="658.859" cy="1233.01" r="14.4" fill="#ac8d18" fill-rule="evenodd" fill-opacity="1" stroke="#000000" stroke-opacity="1" stroke-width="3.2"/>
<circle clip-path="url(#clip962)" cx="705.653" cy="1202.71" r="14.4" fill="#ac8d18" fill-rule="evenodd" fill-opacity="1" stroke="#000000" stroke-opacity="1" stroke-width="3.2"/>
<circle clip-path="url(#clip962)" cx="752.446" cy="1170.53" r="14.4" fill="#ac8d18" fill-rule="evenodd" fill-opacity="1" stroke="#000000" stroke-opacity="1" stroke-width="3.2"/>
<circle clip-path="url(#clip962)" cx="799.24" cy="1138.3" r="14.4" fill="#ac8d18" fill-rule="evenodd" fill-opacity="1" stroke="#000000" stroke-opacity="1" stroke-width="3.2"/>
<circle clip-path="url(#clip962)" cx="892.827" cy="1080.13" r="14.4" fill="#ac8d18" fill-rule="evenodd" fill-opacity="1" stroke="#000000" stroke-opacity="1" stroke-width="3.2"/>
<circle clip-path="url(#clip962)" cx="1360.76" cy="777.076" r="14.4" fill="#ac8d18" fill-rule="evenodd" fill-opacity="1" stroke="#000000" stroke-opacity="1" stroke-width="3.2"/>
<circle clip-path="url(#clip962)" cx="2296.63" cy="160.256" r="14.4" fill="#ac8d18" fill-rule="evenodd" fill-opacity="1" stroke="#000000" stroke-opacity="1" stroke-width="3.2"/>
<circle clip-path="url(#clip962)" cx="425.828" cy="1385.95" r="14.4" fill="#00a9ad" fill-rule="evenodd" fill-opacity="1" stroke="#000000" stroke-opacity="1" stroke-width="3.2"/>
<circle clip-path="url(#clip962)" cx="434.25" cy="1377.6" r="14.4" fill="#00a9ad" fill-rule="evenodd" fill-opacity="1" stroke="#000000" stroke-opacity="1" stroke-width="3.2"/>
<circle clip-path="url(#clip962)" cx="471.685" cy="1362.59" r="14.4" fill="#00a9ad" fill-rule="evenodd" fill-opacity="1" stroke="#000000" stroke-opacity="1" stroke-width="3.2"/>
<circle clip-path="url(#clip962)" cx="518.479" cy="1343.33" r="14.4" fill="#00a9ad" fill-rule="evenodd" fill-opacity="1" stroke="#000000" stroke-opacity="1" stroke-width="3.2"/>
<circle clip-path="url(#clip962)" cx="565.272" cy="1323.46" r="14.4" fill="#00a9ad" fill-rule="evenodd" fill-opacity="1" stroke="#000000" stroke-opacity="1" stroke-width="3.2"/>
<circle clip-path="url(#clip962)" cx="612.066" cy="1304.5" r="14.4" fill="#00a9ad" fill-rule="evenodd" fill-opacity="1" stroke="#000000" stroke-opacity="1" stroke-width="3.2"/>
<circle clip-path="url(#clip962)" cx="658.859" cy="1284.61" r="14.4" fill="#00a9ad" fill-rule="evenodd" fill-opacity="1" stroke="#000000" stroke-opacity="1" stroke-width="3.2"/>
<circle clip-path="url(#clip962)" cx="705.653" cy="1265.74" r="14.4" fill="#00a9ad" fill-rule="evenodd" fill-opacity="1" stroke="#000000" stroke-opacity="1" stroke-width="3.2"/>
<circle clip-path="url(#clip962)" cx="752.446" cy="1244.97" r="14.4" fill="#00a9ad" fill-rule="evenodd" fill-opacity="1" stroke="#000000" stroke-opacity="1" stroke-width="3.2"/>
<circle clip-path="url(#clip962)" cx="799.24" cy="1228.04" r="14.4" fill="#00a9ad" fill-rule="evenodd" fill-opacity="1" stroke="#000000" stroke-opacity="1" stroke-width="3.2"/>
<circle clip-path="url(#clip962)" cx="892.827" cy="1190.48" r="14.4" fill="#00a9ad" fill-rule="evenodd" fill-opacity="1" stroke="#000000" stroke-opacity="1" stroke-width="3.2"/>
<circle clip-path="url(#clip962)" cx="1360.76" cy="999.41" r="14.4" fill="#00a9ad" fill-rule="evenodd" fill-opacity="1" stroke="#000000" stroke-opacity="1" stroke-width="3.2"/>
<circle clip-path="url(#clip962)" cx="2296.63" cy="617.314" r="14.4" fill="#00a9ad" fill-rule="evenodd" fill-opacity="1" stroke="#000000" stroke-opacity="1" stroke-width="3.2"/>
<path clip-path="url(#clip960)" d="M435.805 374.156 L823.484 374.156 L823.484 166.796 L435.805 166.796  Z" fill="#ffffff" fill-rule="evenodd" fill-opacity="1"/>
<polyline clip-path="url(#clip960)" style="stroke:#000000; stroke-linecap:round; stroke-linejoin:round; stroke-width:4; stroke-opacity:1; fill:none" points="435.805,374.156 823.484,374.156 823.484,166.796 435.805,166.796 435.805,374.156 "/>
<polyline clip-path="url(#clip960)" style="stroke:#009af9; stroke-linecap:round; stroke-linejoin:round; stroke-width:4; stroke-opacity:1; fill:none" points="457.839,218.636 590.043,218.636 "/>
<path clip-path="url(#clip960)" d="M616.359 232.027 L616.359 245.777 L612.077 245.777 L612.077 209.99 L616.359 209.99 L616.359 213.925 Q617.701 211.61 619.739 210.499 Q621.799 209.365 624.646 209.365 Q629.368 209.365 632.308 213.115 Q635.271 216.865 635.271 222.976 Q635.271 229.087 632.308 232.837 Q629.368 236.587 624.646 236.587 Q621.799 236.587 619.739 235.476 Q617.701 234.342 616.359 232.027 M630.85 222.976 Q630.85 218.277 628.905 215.615 Q626.984 212.93 623.604 212.93 Q620.225 212.93 618.28 215.615 Q616.359 218.277 616.359 222.976 Q616.359 227.675 618.28 230.36 Q620.225 233.022 623.604 233.022 Q626.984 233.022 628.905 230.36 Q630.85 227.675 630.85 222.976 Z" fill="#000000" fill-rule="nonzero" fill-opacity="1" /><path clip-path="url(#clip960)" d="M652.377 212.976 Q648.951 212.976 646.961 215.661 Q644.97 218.323 644.97 222.976 Q644.97 227.629 646.937 230.314 Q648.928 232.976 652.377 232.976 Q655.78 232.976 657.771 230.291 Q659.761 227.606 659.761 222.976 Q659.761 218.37 657.771 215.684 Q655.78 212.976 652.377 212.976 M652.377 209.365 Q657.933 209.365 661.104 212.976 Q664.275 216.587 664.275 222.976 Q664.275 229.342 661.104 232.976 Q657.933 236.587 652.377 236.587 Q646.799 236.587 643.627 232.976 Q640.479 229.342 640.479 222.976 Q640.479 216.587 643.627 212.976 Q646.799 209.365 652.377 209.365 Z" fill="#000000" fill-rule="nonzero" fill-opacity="1" /><path clip-path="url(#clip960)" d="M675.456 232.027 L675.456 245.777 L671.173 245.777 L671.173 209.99 L675.456 209.99 L675.456 213.925 Q676.798 211.61 678.835 210.499 Q680.896 209.365 683.743 209.365 Q688.465 209.365 691.405 213.115 Q694.368 216.865 694.368 222.976 Q694.368 229.087 691.405 232.837 Q688.465 236.587 683.743 236.587 Q680.896 236.587 678.835 235.476 Q676.798 234.342 675.456 232.027 M689.946 222.976 Q689.946 218.277 688.002 215.615 Q686.081 212.93 682.701 212.93 Q679.322 212.93 677.377 215.615 Q675.456 218.277 675.456 222.976 Q675.456 227.675 677.377 230.36 Q679.322 233.022 682.701 233.022 Q686.081 233.022 688.002 230.36 Q689.946 227.675 689.946 222.976 Z" fill="#000000" fill-rule="nonzero" fill-opacity="1" /><path clip-path="url(#clip960)" d="M714.553 199.897 L714.553 203.439 L710.479 203.439 Q708.187 203.439 707.284 204.365 Q706.405 205.291 706.405 207.698 L706.405 209.99 L713.419 209.99 L713.419 213.3 L706.405 213.3 L706.405 235.916 L702.122 235.916 L702.122 213.3 L698.048 213.3 L698.048 209.99 L702.122 209.99 L702.122 208.184 Q702.122 203.856 704.136 201.888 Q706.15 199.897 710.525 199.897 L714.553 199.897 Z" fill="#000000" fill-rule="nonzero" fill-opacity="1" /><path clip-path="url(#clip960)" d="M718.118 209.99 L722.377 209.99 L722.377 235.916 L718.118 235.916 L718.118 209.99 M718.118 199.897 L722.377 199.897 L722.377 205.291 L718.118 205.291 L718.118 199.897 Z" fill="#000000" fill-rule="nonzero" fill-opacity="1" /><path clip-path="url(#clip960)" d="M746.312 213.971 Q745.594 213.555 744.738 213.37 Q743.905 213.161 742.886 213.161 Q739.275 213.161 737.33 215.522 Q735.409 217.86 735.409 222.258 L735.409 235.916 L731.127 235.916 L731.127 209.99 L735.409 209.99 L735.409 214.018 Q736.752 211.657 738.905 210.522 Q741.057 209.365 744.136 209.365 Q744.576 209.365 745.108 209.434 Q745.641 209.481 746.289 209.596 L746.312 213.971 Z" fill="#000000" fill-rule="nonzero" fill-opacity="1" /><path clip-path="url(#clip960)" d="M767.307 210.754 L767.307 214.782 Q765.502 213.856 763.557 213.393 Q761.613 212.93 759.529 212.93 Q756.358 212.93 754.761 213.902 Q753.187 214.874 753.187 216.819 Q753.187 218.3 754.321 219.157 Q755.455 219.99 758.881 220.754 L760.34 221.078 Q764.877 222.05 766.775 223.832 Q768.696 225.592 768.696 228.763 Q768.696 232.374 765.826 234.481 Q762.978 236.587 757.979 236.587 Q755.895 236.587 753.627 236.17 Q751.381 235.777 748.881 234.967 L748.881 230.569 Q751.242 231.795 753.534 232.42 Q755.826 233.022 758.071 233.022 Q761.08 233.022 762.701 232.004 Q764.321 230.962 764.321 229.087 Q764.321 227.351 763.141 226.425 Q761.983 225.499 758.025 224.643 L756.543 224.295 Q752.585 223.462 750.826 221.749 Q749.067 220.013 749.067 217.004 Q749.067 213.346 751.659 211.356 Q754.252 209.365 759.02 209.365 Q761.381 209.365 763.465 209.712 Q765.548 210.059 767.307 210.754 Z" fill="#000000" fill-rule="nonzero" fill-opacity="1" /><path clip-path="url(#clip960)" d="M779.691 202.629 L779.691 209.99 L788.464 209.99 L788.464 213.3 L779.691 213.3 L779.691 227.374 Q779.691 230.545 780.548 231.448 Q781.427 232.351 784.089 232.351 L788.464 232.351 L788.464 235.916 L784.089 235.916 Q779.159 235.916 777.284 234.087 Q775.409 232.235 775.409 227.374 L775.409 213.3 L772.284 213.3 L772.284 209.99 L775.409 209.99 L775.409 202.629 L779.691 202.629 Z" fill="#000000" fill-rule="nonzero" fill-opacity="1" /><path clip-path="url(#clip960)" d="M796.751 230.036 L801.45 230.036 L801.45 235.916 L796.751 235.916 L796.751 230.036 M796.751 201.356 L801.45 201.356 L801.45 216.518 L800.988 224.782 L797.238 224.782 L796.751 216.518 L796.751 201.356 Z" fill="#000000" fill-rule="nonzero" fill-opacity="1" /><polyline clip-path="url(#clip960)" style="stroke:#e26f46; stroke-linecap:round; stroke-linejoin:round; stroke-width:4; stroke-opacity:1; fill:none" points="457.839,270.476 590.043,270.476 "/>
<path clip-path="url(#clip960)" d="M616.359 283.867 L616.359 297.617 L612.077 297.617 L612.077 261.83 L616.359 261.83 L616.359 265.765 Q617.701 263.45 619.739 262.339 Q621.799 261.205 624.646 261.205 Q629.368 261.205 632.308 264.955 Q635.271 268.705 635.271 274.816 Q635.271 280.927 632.308 284.677 Q629.368 288.427 624.646 288.427 Q621.799 288.427 619.739 287.316 Q617.701 286.182 616.359 283.867 M630.85 274.816 Q630.85 270.117 628.905 267.455 Q626.984 264.77 623.604 264.77 Q620.225 264.77 618.28 267.455 Q616.359 270.117 616.359 274.816 Q616.359 279.515 618.28 282.2 Q620.225 284.862 623.604 284.862 Q626.984 284.862 628.905 282.2 Q630.85 279.515 630.85 274.816 Z" fill="#000000" fill-rule="nonzero" fill-opacity="1" /><path clip-path="url(#clip960)" d="M652.377 264.816 Q648.951 264.816 646.961 267.501 Q644.97 270.163 644.97 274.816 Q644.97 279.469 646.937 282.154 Q648.928 284.816 652.377 284.816 Q655.78 284.816 657.771 282.131 Q659.761 279.446 659.761 274.816 Q659.761 270.21 657.771 267.524 Q655.78 264.816 652.377 264.816 M652.377 261.205 Q657.933 261.205 661.104 264.816 Q664.275 268.427 664.275 274.816 Q664.275 281.182 661.104 284.816 Q657.933 288.427 652.377 288.427 Q646.799 288.427 643.627 284.816 Q640.479 281.182 640.479 274.816 Q640.479 268.427 643.627 264.816 Q646.799 261.205 652.377 261.205 Z" fill="#000000" fill-rule="nonzero" fill-opacity="1" /><path clip-path="url(#clip960)" d="M675.456 283.867 L675.456 297.617 L671.173 297.617 L671.173 261.83 L675.456 261.83 L675.456 265.765 Q676.798 263.45 678.835 262.339 Q680.896 261.205 683.743 261.205 Q688.465 261.205 691.405 264.955 Q694.368 268.705 694.368 274.816 Q694.368 280.927 691.405 284.677 Q688.465 288.427 683.743 288.427 Q680.896 288.427 678.835 287.316 Q676.798 286.182 675.456 283.867 M689.946 274.816 Q689.946 270.117 688.002 267.455 Q686.081 264.77 682.701 264.77 Q679.322 264.77 677.377 267.455 Q675.456 270.117 675.456 274.816 Q675.456 279.515 677.377 282.2 Q679.322 284.862 682.701 284.862 Q686.081 284.862 688.002 282.2 Q689.946 279.515 689.946 274.816 Z" fill="#000000" fill-rule="nonzero" fill-opacity="1" /><path clip-path="url(#clip960)" d="M704.113 281.876 L708.812 281.876 L708.812 287.756 L704.113 287.756 L704.113 281.876 M704.113 253.196 L708.812 253.196 L708.812 268.358 L708.349 276.622 L704.599 276.622 L704.113 268.358 L704.113 253.196 Z" fill="#000000" fill-rule="nonzero" fill-opacity="1" /><polyline clip-path="url(#clip960)" style="stroke:#3da44d; stroke-linecap:round; stroke-linejoin:round; stroke-width:4; stroke-opacity:1; fill:none" points="457.839,322.316 590.043,322.316 "/>
<path clip-path="url(#clip960)" d="M616.359 335.707 L616.359 349.457 L612.077 349.457 L612.077 313.67 L616.359 313.67 L616.359 317.605 Q617.701 315.29 619.739 314.179 Q621.799 313.045 624.646 313.045 Q629.368 313.045 632.308 316.795 Q635.271 320.545 635.271 326.656 Q635.271 332.767 632.308 336.517 Q629.368 340.267 624.646 340.267 Q621.799 340.267 619.739 339.156 Q617.701 338.022 616.359 335.707 M630.85 326.656 Q630.85 321.957 628.905 319.295 Q626.984 316.61 623.604 316.61 Q620.225 316.61 618.28 319.295 Q616.359 321.957 616.359 326.656 Q616.359 331.355 618.28 334.04 Q620.225 336.702 623.604 336.702 Q626.984 336.702 628.905 334.04 Q630.85 331.355 630.85 326.656 Z" fill="#000000" fill-rule="nonzero" fill-opacity="1" /><path clip-path="url(#clip960)" d="M652.377 316.656 Q648.951 316.656 646.961 319.341 Q644.97 322.003 644.97 326.656 Q644.97 331.309 646.937 333.994 Q648.928 336.656 652.377 336.656 Q655.78 336.656 657.771 333.971 Q659.761 331.286 659.761 326.656 Q659.761 322.05 657.771 319.364 Q655.78 316.656 652.377 316.656 M652.377 313.045 Q657.933 313.045 661.104 316.656 Q664.275 320.267 664.275 326.656 Q664.275 333.022 661.104 336.656 Q657.933 340.267 652.377 340.267 Q646.799 340.267 643.627 336.656 Q640.479 333.022 640.479 326.656 Q640.479 320.267 643.627 316.656 Q646.799 313.045 652.377 313.045 Z" fill="#000000" fill-rule="nonzero" fill-opacity="1" /><path clip-path="url(#clip960)" d="M675.456 335.707 L675.456 349.457 L671.173 349.457 L671.173 313.67 L675.456 313.67 L675.456 317.605 Q676.798 315.29 678.835 314.179 Q680.896 313.045 683.743 313.045 Q688.465 313.045 691.405 316.795 Q694.368 320.545 694.368 326.656 Q694.368 332.767 691.405 336.517 Q688.465 340.267 683.743 340.267 Q680.896 340.267 678.835 339.156 Q676.798 338.022 675.456 335.707 M689.946 326.656 Q689.946 321.957 688.002 319.295 Q686.081 316.61 682.701 316.61 Q679.322 316.61 677.377 319.295 Q675.456 321.957 675.456 326.656 Q675.456 331.355 677.377 334.04 Q679.322 336.702 682.701 336.702 Q686.081 336.702 688.002 334.04 Q689.946 331.355 689.946 326.656 Z" fill="#000000" fill-rule="nonzero" fill-opacity="1" /><path clip-path="url(#clip960)" d="M713.21 326.563 Q708.048 326.563 706.057 327.744 Q704.067 328.924 704.067 331.772 Q704.067 334.04 705.548 335.383 Q707.053 336.702 709.622 336.702 Q713.164 336.702 715.294 334.202 Q717.446 331.679 717.446 327.512 L717.446 326.563 L713.21 326.563 M721.706 324.804 L721.706 339.596 L717.446 339.596 L717.446 335.661 Q715.988 338.022 713.812 339.156 Q711.636 340.267 708.488 340.267 Q704.507 340.267 702.145 338.045 Q699.808 335.799 699.808 332.049 Q699.808 327.674 702.724 325.452 Q705.664 323.23 711.474 323.23 L717.446 323.23 L717.446 322.813 Q717.446 319.874 715.502 318.276 Q713.581 316.656 710.085 316.656 Q707.863 316.656 705.757 317.188 Q703.65 317.721 701.706 318.786 L701.706 314.85 Q704.044 313.948 706.243 313.508 Q708.442 313.045 710.525 313.045 Q716.15 313.045 718.928 315.962 Q721.706 318.878 721.706 324.804 Z" fill="#000000" fill-rule="nonzero" fill-opacity="1" /><path clip-path="url(#clip960)" d="M734.692 306.309 L734.692 313.67 L743.465 313.67 L743.465 316.98 L734.692 316.98 L734.692 331.054 Q734.692 334.225 735.548 335.128 Q736.428 336.031 739.09 336.031 L743.465 336.031 L743.465 339.596 L739.09 339.596 Q734.159 339.596 732.284 337.767 Q730.409 335.915 730.409 331.054 L730.409 316.98 L727.284 316.98 L727.284 313.67 L730.409 313.67 L730.409 306.309 L734.692 306.309 Z" fill="#000000" fill-rule="nonzero" fill-opacity="1" /><path clip-path="url(#clip960)" d="M751.752 333.716 L756.451 333.716 L756.451 339.596 L751.752 339.596 L751.752 333.716 M751.752 305.036 L756.451 305.036 L756.451 320.198 L755.988 328.462 L752.238 328.462 L751.752 320.198 L751.752 305.036 Z" fill="#000000" fill-rule="nonzero" fill-opacity="1" /></svg>
