<?xml version="1.0" encoding="utf-8"?>
<svg xmlns="http://www.w3.org/2000/svg" xmlns:xlink="http://www.w3.org/1999/xlink" width="600" height="400" viewBox="0 0 2400 1600">
<defs>
  <clipPath id="clip260">
    <rect x="0" y="0" width="2400" height="1600"/>
  </clipPath>
</defs>
<path clip-path="url(#clip260)" d="M0 1600 L2400 1600 L2400 0 L0 0  Z" fill="#ffffff" fill-rule="evenodd" fill-opacity="1"/>
<defs>
  <clipPath id="clip261">
    <rect x="480" y="0" width="1681" height="1600"/>
  </clipPath>
</defs>
<path clip-path="url(#clip260)" d="M369.703 1423.18 L2352.76 1423.18 L2352.76 123.472 L369.703 123.472  Z" fill="#ffffff" fill-rule="evenodd" fill-opacity="1"/>
<defs>
  <clipPath id="clip262">
    <rect x="369" y="123" width="1984" height="1301"/>
  </clipPath>
</defs>
<polyline clip-path="url(#clip262)" style="stroke:#000000; stroke-linecap:round; stroke-linejoin:round; stroke-width:2; stroke-opacity:0.1; fill:none" points="424.892,1423.18 424.892,123.472 "/>
<polyline clip-path="url(#clip262)" style="stroke:#000000; stroke-linecap:round; stroke-linejoin:round; stroke-width:2; stroke-opacity:0.1; fill:none" points="892.827,1423.18 892.827,123.472 "/>
<polyline clip-path="url(#clip262)" style="stroke:#000000; stroke-linecap:round; stroke-linejoin:round; stroke-width:2; stroke-opacity:0.1; fill:none" points="1360.76,1423.18 1360.76,123.472 "/>
<polyline clip-path="url(#clip262)" style="stroke:#000000; stroke-linecap:round; stroke-linejoin:round; stroke-width:2; stroke-opacity:0.1; fill:none" points="1828.7,1423.18 1828.7,123.472 "/>
<polyline clip-path="url(#clip262)" style="stroke:#000000; stroke-linecap:round; stroke-linejoin:round; stroke-width:2; stroke-opacity:0.1; fill:none" points="2296.63,1423.18 2296.63,123.472 "/>
<polyline clip-path="url(#clip260)" style="stroke:#000000; stroke-linecap:round; stroke-linejoin:round; stroke-width:4; stroke-opacity:1; fill:none" points="369.703,1423.18 2352.76,1423.18 "/>
<polyline clip-path="url(#clip260)" style="stroke:#000000; stroke-linecap:round; stroke-linejoin:round; stroke-width:4; stroke-opacity:1; fill:none" points="424.892,1423.18 424.892,1404.28 "/>
<polyline clip-path="url(#clip260)" style="stroke:#000000; stroke-linecap:round; stroke-linejoin:round; stroke-width:4; stroke-opacity:1; fill:none" points="892.827,1423.18 892.827,1404.28 "/>
<polyline clip-path="url(#clip260)" style="stroke:#000000; stroke-linecap:round; stroke-linejoin:round; stroke-width:4; stroke-opacity:1; fill:none" points="1360.76,1423.18 1360.76,1404.28 "/>
<polyline clip-path="url(#clip260)" style="stroke:#000000; stroke-linecap:round; stroke-linejoin:round; stroke-width:4; stroke-opacity:1; fill:none" points="1828.7,1423.18 1828.7,1404.28 "/>
<polyline clip-path="url(#clip260)" style="stroke:#000000; stroke-linecap:round; stroke-linejoin:round; stroke-width:4; stroke-opacity:1; fill:none" points="2296.63,1423.18 2296.63,1404.28 "/>
<path clip-path="url(#clip260)" d="M424.892 1454.1 Q421.281 1454.1 419.452 1457.66 Q417.646 1461.2 417.646 1468.33 Q417.646 1475.44 419.452 1479.01 Q421.281 1482.55 424.892 1482.55 Q428.526 1482.55 430.331 1479.01 Q432.16 1475.44 432.16 1468.33 Q432.16 1461.2 430.331 1457.66 Q428.526 1454.1 424.892 1454.1 M424.892 1450.39 Q430.702 1450.39 433.757 1455 Q436.836 1459.58 436.836 1468.33 Q436.836 1477.06 433.757 1481.67 Q430.702 1486.25 424.892 1486.25 Q419.082 1486.25 416.003 1481.67 Q412.947 1477.06 412.947 1468.33 Q412.947 1459.58 416.003 1455 Q419.082 1450.39 424.892 1450.39 Z" fill="#000000" fill-rule="nonzero" fill-opacity="1" /><path clip-path="url(#clip260)" d="M852.445 1451.02 L870.801 1451.02 L870.801 1454.96 L856.727 1454.96 L856.727 1463.43 Q857.746 1463.08 858.764 1462.92 Q859.783 1462.73 860.801 1462.73 Q866.588 1462.73 869.968 1465.9 Q873.348 1469.08 873.348 1474.49 Q873.348 1480.07 869.875 1483.17 Q866.403 1486.25 860.084 1486.25 Q857.908 1486.25 855.639 1485.88 Q853.394 1485.51 850.987 1484.77 L850.987 1480.07 Q853.07 1481.2 855.292 1481.76 Q857.514 1482.32 859.991 1482.32 Q863.996 1482.32 866.334 1480.21 Q868.672 1478.1 868.672 1474.49 Q868.672 1470.88 866.334 1468.77 Q863.996 1466.67 859.991 1466.67 Q858.116 1466.67 856.241 1467.08 Q854.389 1467.5 852.445 1468.38 L852.445 1451.02 Z" fill="#000000" fill-rule="nonzero" fill-opacity="1" /><path clip-path="url(#clip260)" d="M892.561 1454.1 Q888.949 1454.1 887.121 1457.66 Q885.315 1461.2 885.315 1468.33 Q885.315 1475.44 887.121 1479.01 Q888.949 1482.55 892.561 1482.55 Q896.195 1482.55 898 1479.01 Q899.829 1475.44 899.829 1468.33 Q899.829 1461.2 898 1457.66 Q896.195 1454.1 892.561 1454.1 M892.561 1450.39 Q898.371 1450.39 901.426 1455 Q904.505 1459.58 904.505 1468.33 Q904.505 1477.06 901.426 1481.67 Q898.371 1486.25 892.561 1486.25 Q886.75 1486.25 883.672 1481.67 Q880.616 1477.06 880.616 1468.33 Q880.616 1459.58 883.672 1455 Q886.75 1450.39 892.561 1450.39 Z" fill="#000000" fill-rule="nonzero" fill-opacity="1" /><path clip-path="url(#clip260)" d="M922.722 1454.1 Q919.111 1454.1 917.283 1457.66 Q915.477 1461.2 915.477 1468.33 Q915.477 1475.44 917.283 1479.01 Q919.111 1482.55 922.722 1482.55 Q926.357 1482.55 928.162 1479.01 Q929.991 1475.44 929.991 1468.33 Q929.991 1461.2 928.162 1457.66 Q926.357 1454.1 922.722 1454.1 M922.722 1450.39 Q928.533 1450.39 931.588 1455 Q934.667 1459.58 934.667 1468.33 Q934.667 1477.06 931.588 1481.67 Q928.533 1486.25 922.722 1486.25 Q916.912 1486.25 913.834 1481.67 Q910.778 1477.06 910.778 1468.33 Q910.778 1459.58 913.834 1455 Q916.912 1450.39 922.722 1450.39 Z" fill="#000000" fill-rule="nonzero" fill-opacity="1" /><path clip-path="url(#clip260)" d="M1305.29 1481.64 L1312.93 1481.64 L1312.93 1455.28 L1304.62 1456.95 L1304.62 1452.69 L1312.88 1451.02 L1317.56 1451.02 L1317.56 1481.64 L1325.19 1481.64 L1325.19 1485.58 L1305.29 1485.58 L1305.29 1481.64 Z" fill="#000000" fill-rule="nonzero" fill-opacity="1" /><path clip-path="url(#clip260)" d="M1344.64 1454.1 Q1341.03 1454.1 1339.2 1457.66 Q1337.39 1461.2 1337.39 1468.33 Q1337.39 1475.44 1339.2 1479.01 Q1341.03 1482.55 1344.64 1482.55 Q1348.27 1482.55 1350.08 1479.01 Q1351.91 1475.44 1351.91 1468.33 Q1351.91 1461.2 1350.08 1457.66 Q1348.27 1454.1 1344.64 1454.1 M1344.64 1450.39 Q1350.45 1450.39 1353.5 1455 Q1356.58 1459.58 1356.58 1468.33 Q1356.58 1477.06 1353.5 1481.67 Q1350.45 1486.25 1344.64 1486.25 Q1338.83 1486.25 1335.75 1481.67 Q1332.69 1477.06 1332.69 1468.33 Q1332.69 1459.58 1335.75 1455 Q1338.83 1450.39 1344.64 1450.39 Z" fill="#000000" fill-rule="nonzero" fill-opacity="1" /><path clip-path="url(#clip260)" d="M1374.8 1454.1 Q1371.19 1454.1 1369.36 1457.66 Q1367.56 1461.2 1367.56 1468.33 Q1367.56 1475.44 1369.36 1479.01 Q1371.19 1482.55 1374.8 1482.55 Q1378.44 1482.55 1380.24 1479.01 Q1382.07 1475.44 1382.07 1468.33 Q1382.07 1461.2 1380.24 1457.66 Q1378.44 1454.1 1374.8 1454.1 M1374.8 1450.39 Q1380.61 1450.39 1383.67 1455 Q1386.75 1459.58 1386.75 1468.33 Q1386.75 1477.06 1383.67 1481.67 Q1380.61 1486.25 1374.8 1486.25 Q1368.99 1486.25 1365.91 1481.67 Q1362.86 1477.06 1362.86 1468.33 Q1362.86 1459.58 1365.91 1455 Q1368.99 1450.39 1374.8 1450.39 Z" fill="#000000" fill-rule="nonzero" fill-opacity="1" /><path clip-path="url(#clip260)" d="M1404.96 1454.1 Q1401.35 1454.1 1399.52 1457.66 Q1397.72 1461.2 1397.72 1468.33 Q1397.72 1475.44 1399.52 1479.01 Q1401.35 1482.55 1404.96 1482.55 Q1408.6 1482.55 1410.4 1479.01 Q1412.23 1475.44 1412.23 1468.33 Q1412.23 1461.2 1410.4 1457.66 Q1408.6 1454.1 1404.96 1454.1 M1404.96 1450.39 Q1410.77 1450.39 1413.83 1455 Q1416.91 1459.58 1416.91 1468.33 Q1416.91 1477.06 1413.83 1481.67 Q1410.77 1486.25 1404.96 1486.25 Q1399.15 1486.25 1396.07 1481.67 Q1393.02 1477.06 1393.02 1468.33 Q1393.02 1459.58 1396.07 1455 Q1399.15 1450.39 1404.96 1450.39 Z" fill="#000000" fill-rule="nonzero" fill-opacity="1" /><path clip-path="url(#clip260)" d="M1773.22 1481.64 L1780.86 1481.64 L1780.86 1455.28 L1772.55 1456.95 L1772.55 1452.69 L1780.82 1451.02 L1785.49 1451.02 L1785.49 1481.64 L1793.13 1481.64 L1793.13 1485.58 L1773.22 1485.58 L1773.22 1481.64 Z" fill="#000000" fill-rule="nonzero" fill-opacity="1" /><path clip-path="url(#clip260)" d="M1802.62 1451.02 L1820.98 1451.02 L1820.98 1454.96 L1806.9 1454.96 L1806.9 1463.43 Q1807.92 1463.08 1808.94 1462.92 Q1809.96 1462.73 1810.98 1462.73 Q1816.76 1462.73 1820.14 1465.9 Q1823.52 1469.08 1823.52 1474.49 Q1823.52 1480.07 1820.05 1483.17 Q1816.58 1486.25 1810.26 1486.25 Q1808.08 1486.25 1805.81 1485.88 Q1803.57 1485.51 1801.16 1484.77 L1801.16 1480.07 Q1803.25 1481.2 1805.47 1481.76 Q1807.69 1482.32 1810.17 1482.32 Q1814.17 1482.32 1816.51 1480.21 Q1818.85 1478.1 1818.85 1474.49 Q1818.85 1470.88 1816.51 1468.77 Q1814.17 1466.67 1810.17 1466.67 Q1808.29 1466.67 1806.42 1467.08 Q1804.56 1467.5 1802.62 1468.38 L1802.62 1451.02 Z" fill="#000000" fill-rule="nonzero" fill-opacity="1" /><path clip-path="url(#clip260)" d="M1842.74 1454.1 Q1839.12 1454.1 1837.3 1457.66 Q1835.49 1461.2 1835.49 1468.33 Q1835.49 1475.44 1837.3 1479.01 Q1839.12 1482.55 1842.74 1482.55 Q1846.37 1482.55 1848.18 1479.01 Q1850 1475.44 1850 1468.33 Q1850 1461.2 1848.18 1457.66 Q1846.37 1454.1 1842.74 1454.1 M1842.74 1450.39 Q1848.55 1450.39 1851.6 1455 Q1854.68 1459.58 1854.68 1468.33 Q1854.68 1477.06 1851.6 1481.67 Q1848.55 1486.25 1842.74 1486.25 Q1836.93 1486.25 1833.85 1481.67 Q1830.79 1477.06 1830.79 1468.33 Q1830.79 1459.58 1833.85 1455 Q1836.93 1450.39 1842.74 1450.39 Z" fill="#000000" fill-rule="nonzero" fill-opacity="1" /><path clip-path="url(#clip260)" d="M1872.9 1454.1 Q1869.29 1454.1 1867.46 1457.66 Q1865.65 1461.2 1865.65 1468.33 Q1865.65 1475.44 1867.46 1479.01 Q1869.29 1482.55 1872.9 1482.55 Q1876.53 1482.55 1878.34 1479.01 Q1880.17 1475.44 1880.17 1468.33 Q1880.17 1461.2 1878.34 1457.66 Q1876.53 1454.1 1872.9 1454.1 M1872.9 1450.39 Q1878.71 1450.39 1881.76 1455 Q1884.84 1459.58 1884.84 1468.33 Q1884.84 1477.06 1881.76 1481.67 Q1878.71 1486.25 1872.9 1486.25 Q1867.09 1486.25 1864.01 1481.67 Q1860.95 1477.06 1860.95 1468.33 Q1860.95 1459.58 1864.01 1455 Q1867.09 1450.39 1872.9 1450.39 Z" fill="#000000" fill-rule="nonzero" fill-opacity="1" /><path clip-path="url(#clip260)" d="M2245.24 1481.64 L2261.56 1481.64 L2261.56 1485.58 L2239.62 1485.58 L2239.62 1481.64 Q2242.28 1478.89 2246.86 1474.26 Q2251.47 1469.61 2252.65 1468.27 Q2254.9 1465.74 2255.78 1464.01 Q2256.68 1462.25 2256.68 1460.56 Q2256.68 1457.8 2254.73 1456.07 Q2252.81 1454.33 2249.71 1454.33 Q2247.51 1454.33 2245.06 1455.09 Q2242.63 1455.86 2239.85 1457.41 L2239.85 1452.69 Q2242.67 1451.55 2245.13 1450.97 Q2247.58 1450.39 2249.62 1450.39 Q2254.99 1450.39 2258.18 1453.08 Q2261.38 1455.77 2261.38 1460.26 Q2261.38 1462.39 2260.57 1464.31 Q2259.78 1466.2 2257.67 1468.8 Q2257.09 1469.47 2253.99 1472.69 Q2250.89 1475.88 2245.24 1481.64 Z" fill="#000000" fill-rule="nonzero" fill-opacity="1" /><path clip-path="url(#clip260)" d="M2281.38 1454.1 Q2277.77 1454.1 2275.94 1457.66 Q2274.13 1461.2 2274.13 1468.33 Q2274.13 1475.44 2275.94 1479.01 Q2277.77 1482.55 2281.38 1482.55 Q2285.01 1482.55 2286.82 1479.01 Q2288.65 1475.44 2288.65 1468.33 Q2288.65 1461.2 2286.82 1457.66 Q2285.01 1454.1 2281.38 1454.1 M2281.38 1450.39 Q2287.19 1450.39 2290.24 1455 Q2293.32 1459.58 2293.32 1468.33 Q2293.32 1477.06 2290.24 1481.67 Q2287.19 1486.25 2281.38 1486.25 Q2275.57 1486.25 2272.49 1481.67 Q2269.43 1477.06 2269.43 1468.33 Q2269.43 1459.58 2272.49 1455 Q2275.57 1450.39 2281.38 1450.39 Z" fill="#000000" fill-rule="nonzero" fill-opacity="1" /><path clip-path="url(#clip260)" d="M2311.54 1454.1 Q2307.93 1454.1 2306.1 1457.66 Q2304.29 1461.2 2304.29 1468.33 Q2304.29 1475.44 2306.1 1479.01 Q2307.93 1482.55 2311.54 1482.55 Q2315.17 1482.55 2316.98 1479.01 Q2318.81 1475.44 2318.81 1468.33 Q2318.81 1461.2 2316.98 1457.66 Q2315.17 1454.1 2311.54 1454.1 M2311.54 1450.39 Q2317.35 1450.39 2320.4 1455 Q2323.48 1459.58 2323.48 1468.33 Q2323.48 1477.06 2320.4 1481.67 Q2317.35 1486.25 2311.54 1486.25 Q2305.73 1486.25 2302.65 1481.67 Q2299.59 1477.06 2299.59 1468.33 Q2299.59 1459.58 2302.65 1455 Q2305.73 1450.39 2311.54 1450.39 Z" fill="#000000" fill-rule="nonzero" fill-opacity="1" /><path clip-path="url(#clip260)" d="M2341.7 1454.1 Q2338.09 1454.1 2336.26 1457.66 Q2334.46 1461.2 2334.46 1468.33 Q2334.46 1475.44 2336.26 1479.01 Q2338.09 1482.55 2341.7 1482.55 Q2345.34 1482.55 2347.14 1479.01 Q2348.97 1475.44 2348.97 1468.33 Q2348.97 1461.2 2347.14 1457.66 Q2345.34 1454.1 2341.7 1454.1 M2341.7 1450.39 Q2347.51 1450.39 2350.57 1455 Q2353.65 1459.58 2353.65 1468.33 Q2353.65 1477.06 2350.57 1481.67 Q2347.51 1486.25 2341.7 1486.25 Q2335.89 1486.25 2332.81 1481.67 Q2329.76 1477.06 2329.76 1468.33 Q2329.76 1459.58 2332.81 1455 Q2335.89 1450.39 2341.7 1450.39 Z" fill="#000000" fill-rule="nonzero" fill-opacity="1" /><path clip-path="url(#clip260)" d="M1343.25 1520.52 L1351.9 1520.52 L1372.97 1560.28 L1372.97 1520.52 L1379.21 1520.52 L1379.21 1568.04 L1370.56 1568.04 L1349.48 1528.29 L1349.48 1568.04 L1343.25 1568.04 L1343.25 1520.52 Z" fill="#000000" fill-rule="nonzero" fill-opacity="1" /><polyline clip-path="url(#clip262)" style="stroke:#000000; stroke-linecap:round; stroke-linejoin:round; stroke-width:2; stroke-opacity:0.1; fill:none" points="369.703,1388.32 2352.76,1388.32 "/>
<polyline clip-path="url(#clip262)" style="stroke:#000000; stroke-linecap:round; stroke-linejoin:round; stroke-width:2; stroke-opacity:0.1; fill:none" points="369.703,1163.02 2352.76,1163.02 "/>
<polyline clip-path="url(#clip262)" style="stroke:#000000; stroke-linecap:round; stroke-linejoin:round; stroke-width:2; stroke-opacity:0.1; fill:none" points="369.703,937.714 2352.76,937.714 "/>
<polyline clip-path="url(#clip262)" style="stroke:#000000; stroke-linecap:round; stroke-linejoin:round; stroke-width:2; stroke-opacity:0.1; fill:none" points="369.703,712.41 2352.76,712.41 "/>
<polyline clip-path="url(#clip262)" style="stroke:#000000; stroke-linecap:round; stroke-linejoin:round; stroke-width:2; stroke-opacity:0.1; fill:none" points="369.703,487.106 2352.76,487.106 "/>
<polyline clip-path="url(#clip262)" style="stroke:#000000; stroke-linecap:round; stroke-linejoin:round; stroke-width:2; stroke-opacity:0.1; fill:none" points="369.703,261.802 2352.76,261.802 "/>
<polyline clip-path="url(#clip260)" style="stroke:#000000; stroke-linecap:round; stroke-linejoin:round; stroke-width:4; stroke-opacity:1; fill:none" points="369.703,1423.18 369.703,123.472 "/>
<polyline clip-path="url(#clip260)" style="stroke:#000000; stroke-linecap:round; stroke-linejoin:round; stroke-width:4; stroke-opacity:1; fill:none" points="369.703,1388.32 388.601,1388.32 "/>
<polyline clip-path="url(#clip260)" style="stroke:#000000; stroke-linecap:round; stroke-linejoin:round; stroke-width:4; stroke-opacity:1; fill:none" points="369.703,1163.02 388.601,1163.02 "/>
<polyline clip-path="url(#clip260)" style="stroke:#000000; stroke-linecap:round; stroke-linejoin:round; stroke-width:4; stroke-opacity:1; fill:none" points="369.703,937.714 388.601,937.714 "/>
<polyline clip-path="url(#clip260)" style="stroke:#000000; stroke-linecap:round; stroke-linejoin:round; stroke-width:4; stroke-opacity:1; fill:none" points="369.703,712.41 388.601,712.41 "/>
<polyline clip-path="url(#clip260)" style="stroke:#000000; stroke-linecap:round; stroke-linejoin:round; stroke-width:4; stroke-opacity:1; fill:none" points="369.703,487.106 388.601,487.106 "/>
<polyline clip-path="url(#clip260)" style="stroke:#000000; stroke-linecap:round; stroke-linejoin:round; stroke-width:4; stroke-opacity:1; fill:none" points="369.703,261.802 388.601,261.802 "/>
<path clip-path="url(#clip260)" d="M321.759 1374.12 Q318.148 1374.12 316.319 1377.69 Q314.514 1381.23 314.514 1388.36 Q314.514 1395.46 316.319 1399.03 Q318.148 1402.57 321.759 1402.57 Q325.393 1402.57 327.199 1399.03 Q329.028 1395.46 329.028 1388.36 Q329.028 1381.23 327.199 1377.69 Q325.393 1374.12 321.759 1374.12 M321.759 1370.42 Q327.569 1370.42 330.625 1375.02 Q333.703 1379.61 333.703 1388.36 Q333.703 1397.08 330.625 1401.69 Q327.569 1406.27 321.759 1406.27 Q315.949 1406.27 312.87 1401.69 Q309.815 1397.08 309.815 1388.36 Q309.815 1379.61 312.87 1375.02 Q315.949 1370.42 321.759 1370.42 Z" fill="#000000" fill-rule="nonzero" fill-opacity="1" /><path clip-path="url(#clip260)" d="M117.878 1152.19 L136.235 1152.19 L136.235 1156.12 L122.161 1156.12 L122.161 1164.59 Q123.179 1164.25 124.198 1164.08 Q125.216 1163.9 126.235 1163.9 Q132.022 1163.9 135.402 1167.07 Q138.781 1170.24 138.781 1175.66 Q138.781 1181.24 135.309 1184.34 Q131.837 1187.42 125.517 1187.42 Q123.341 1187.42 121.073 1187.05 Q118.828 1186.68 116.42 1185.94 L116.42 1181.24 Q118.503 1182.37 120.726 1182.93 Q122.948 1183.48 125.425 1183.48 Q129.429 1183.48 131.767 1181.38 Q134.105 1179.27 134.105 1175.66 Q134.105 1172.05 131.767 1169.94 Q129.429 1167.83 125.425 1167.83 Q123.55 1167.83 121.675 1168.25 Q119.823 1168.67 117.878 1169.55 L117.878 1152.19 Z" fill="#000000" fill-rule="nonzero" fill-opacity="1" /><path clip-path="url(#clip260)" d="M147.994 1180.87 L152.878 1180.87 L152.878 1186.75 L147.994 1186.75 L147.994 1180.87 Z" fill="#000000" fill-rule="nonzero" fill-opacity="1" /><path clip-path="url(#clip260)" d="M173.063 1155.26 Q169.452 1155.26 167.624 1158.83 Q165.818 1162.37 165.818 1169.5 Q165.818 1176.61 167.624 1180.17 Q169.452 1183.71 173.063 1183.71 Q176.698 1183.71 178.503 1180.17 Q180.332 1176.61 180.332 1169.5 Q180.332 1162.37 178.503 1158.83 Q176.698 1155.26 173.063 1155.26 M173.063 1151.56 Q178.874 1151.56 181.929 1156.17 Q185.008 1160.75 185.008 1169.5 Q185.008 1178.23 181.929 1182.83 Q178.874 1187.42 173.063 1187.42 Q167.253 1187.42 164.175 1182.83 Q161.119 1178.23 161.119 1169.5 Q161.119 1160.75 164.175 1156.17 Q167.253 1151.56 173.063 1151.56 Z" fill="#000000" fill-rule="nonzero" fill-opacity="1" /><path clip-path="url(#clip260)" d="M203.225 1155.26 Q199.614 1155.26 197.785 1158.83 Q195.98 1162.37 195.98 1169.5 Q195.98 1176.61 197.785 1180.17 Q199.614 1183.71 203.225 1183.71 Q206.859 1183.71 208.665 1180.17 Q210.494 1176.61 210.494 1169.5 Q210.494 1162.37 208.665 1158.83 Q206.859 1155.26 203.225 1155.26 M203.225 1151.56 Q209.035 1151.56 212.091 1156.17 Q215.17 1160.75 215.17 1169.5 Q215.17 1178.23 212.091 1182.83 Q209.035 1187.42 203.225 1187.42 Q197.415 1187.42 194.336 1182.83 Q191.281 1178.23 191.281 1169.5 Q191.281 1160.75 194.336 1156.17 Q197.415 1151.56 203.225 1151.56 Z" fill="#000000" fill-rule="nonzero" fill-opacity="1" /><path clip-path="url(#clip260)" d="M251.558 1161.28 L240.98 1171.91 L251.558 1182.49 L248.804 1185.29 L238.179 1174.66 L227.554 1185.29 L224.822 1182.49 L235.378 1171.91 L224.822 1161.28 L227.554 1158.48 L238.179 1169.11 L248.804 1158.48 L251.558 1161.28 Z" fill="#000000" fill-rule="nonzero" fill-opacity="1" /><path clip-path="url(#clip260)" d="M263.919 1182.81 L271.558 1182.81 L271.558 1156.45 L263.248 1158.11 L263.248 1153.85 L271.512 1152.19 L276.188 1152.19 L276.188 1182.81 L283.827 1182.81 L283.827 1186.75 L263.919 1186.75 L263.919 1182.81 Z" fill="#000000" fill-rule="nonzero" fill-opacity="1" /><path clip-path="url(#clip260)" d="M303.271 1155.26 Q299.66 1155.26 297.831 1158.83 Q296.026 1162.37 296.026 1169.5 Q296.026 1176.61 297.831 1180.17 Q299.66 1183.71 303.271 1183.71 Q306.905 1183.71 308.711 1180.17 Q310.539 1176.61 310.539 1169.5 Q310.539 1162.37 308.711 1158.83 Q306.905 1155.26 303.271 1155.26 M303.271 1151.56 Q309.081 1151.56 312.137 1156.17 Q315.215 1160.75 315.215 1169.5 Q315.215 1178.23 312.137 1182.83 Q309.081 1187.42 303.271 1187.42 Q297.461 1187.42 294.382 1182.83 Q291.327 1178.23 291.327 1169.5 Q291.327 1160.75 294.382 1156.17 Q297.461 1151.56 303.271 1151.56 Z" fill="#000000" fill-rule="nonzero" fill-opacity="1" /><path clip-path="url(#clip260)" d="M327.911 1144.2 Q330.638 1144.78 332.161 1146.62 Q333.703 1148.46 333.703 1151.17 Q333.703 1155.33 330.845 1157.61 Q327.986 1159.88 322.72 1159.88 Q320.952 1159.88 319.071 1159.52 Q317.209 1159.19 315.215 1158.49 L315.215 1154.82 Q316.795 1155.74 318.676 1156.21 Q320.557 1156.68 322.607 1156.68 Q326.18 1156.68 328.042 1155.27 Q329.923 1153.86 329.923 1151.17 Q329.923 1148.69 328.174 1147.3 Q326.444 1145.89 323.34 1145.89 L320.068 1145.89 L320.068 1142.77 L323.491 1142.77 Q326.293 1142.77 327.779 1141.66 Q329.265 1140.53 329.265 1138.42 Q329.265 1136.26 327.723 1135.11 Q326.199 1133.95 323.34 1133.95 Q321.779 1133.95 319.993 1134.28 Q318.206 1134.62 316.062 1135.34 L316.062 1131.95 Q318.225 1131.35 320.105 1131.05 Q322.005 1130.75 323.679 1130.75 Q328.005 1130.75 330.525 1132.72 Q333.045 1134.68 333.045 1138.03 Q333.045 1140.36 331.71 1141.98 Q330.374 1143.57 327.911 1144.2 Z" fill="#000000" fill-rule="nonzero" fill-opacity="1" /><path clip-path="url(#clip260)" d="M116.668 957.507 L124.306 957.507 L124.306 931.141 L115.996 932.808 L115.996 928.549 L124.26 926.882 L128.936 926.882 L128.936 957.507 L136.575 957.507 L136.575 961.442 L116.668 961.442 L116.668 957.507 Z" fill="#000000" fill-rule="nonzero" fill-opacity="1" /><path clip-path="url(#clip260)" d="M146.019 955.562 L150.903 955.562 L150.903 961.442 L146.019 961.442 L146.019 955.562 Z" fill="#000000" fill-rule="nonzero" fill-opacity="1" /><path clip-path="url(#clip260)" d="M171.089 929.961 Q167.477 929.961 165.649 933.525 Q163.843 937.067 163.843 944.197 Q163.843 951.303 165.649 954.868 Q167.477 958.41 171.089 958.41 Q174.723 958.41 176.528 954.868 Q178.357 951.303 178.357 944.197 Q178.357 937.067 176.528 933.525 Q174.723 929.961 171.089 929.961 M171.089 926.257 Q176.899 926.257 179.954 930.863 Q183.033 935.447 183.033 944.197 Q183.033 952.923 179.954 957.53 Q176.899 962.113 171.089 962.113 Q165.278 962.113 162.2 957.53 Q159.144 952.923 159.144 944.197 Q159.144 935.447 162.2 930.863 Q165.278 926.257 171.089 926.257 Z" fill="#000000" fill-rule="nonzero" fill-opacity="1" /><path clip-path="url(#clip260)" d="M201.25 929.961 Q197.639 929.961 195.811 933.525 Q194.005 937.067 194.005 944.197 Q194.005 951.303 195.811 954.868 Q197.639 958.41 201.25 958.41 Q204.885 958.41 206.69 954.868 Q208.519 951.303 208.519 944.197 Q208.519 937.067 206.69 933.525 Q204.885 929.961 201.25 929.961 M201.25 926.257 Q207.061 926.257 210.116 930.863 Q213.195 935.447 213.195 944.197 Q213.195 952.923 210.116 957.53 Q207.061 962.113 201.25 962.113 Q195.44 962.113 192.362 957.53 Q189.306 952.923 189.306 944.197 Q189.306 935.447 192.362 930.863 Q195.44 926.257 201.25 926.257 Z" fill="#000000" fill-rule="nonzero" fill-opacity="1" /><path clip-path="url(#clip260)" d="M249.584 935.979 L239.005 946.604 L249.584 957.183 L246.829 959.984 L236.204 949.359 L225.579 959.984 L222.848 957.183 L233.403 946.604 L222.848 935.979 L225.579 933.178 L236.204 943.803 L246.829 933.178 L249.584 935.979 Z" fill="#000000" fill-rule="nonzero" fill-opacity="1" /><path clip-path="url(#clip260)" d="M261.945 957.507 L269.583 957.507 L269.583 931.141 L261.273 932.808 L261.273 928.549 L269.537 926.882 L274.213 926.882 L274.213 957.507 L281.852 957.507 L281.852 961.442 L261.945 961.442 L261.945 957.507 Z" fill="#000000" fill-rule="nonzero" fill-opacity="1" /><path clip-path="url(#clip260)" d="M301.296 929.961 Q297.685 929.961 295.856 933.525 Q294.051 937.067 294.051 944.197 Q294.051 951.303 295.856 954.868 Q297.685 958.41 301.296 958.41 Q304.93 958.41 306.736 954.868 Q308.565 951.303 308.565 944.197 Q308.565 937.067 306.736 933.525 Q304.93 929.961 301.296 929.961 M301.296 926.257 Q307.106 926.257 310.162 930.863 Q313.241 935.447 313.241 944.197 Q313.241 952.923 310.162 957.53 Q307.106 962.113 301.296 962.113 Q295.486 962.113 292.407 957.53 Q289.352 952.923 289.352 944.197 Q289.352 935.447 292.407 930.863 Q295.486 926.257 301.296 926.257 Z" fill="#000000" fill-rule="nonzero" fill-opacity="1" /><path clip-path="url(#clip260)" d="M325.917 909.262 L316.325 924.252 L325.917 924.252 L325.917 909.262 M324.92 905.952 L329.697 905.952 L329.697 924.252 L333.703 924.252 L333.703 927.411 L329.697 927.411 L329.697 934.032 L325.917 934.032 L325.917 927.411 L313.241 927.411 L313.241 923.744 L324.92 905.952 Z" fill="#000000" fill-rule="nonzero" fill-opacity="1" /><path clip-path="url(#clip260)" d="M116.668 732.203 L124.306 732.203 L124.306 705.837 L115.996 707.504 L115.996 703.245 L124.26 701.578 L128.936 701.578 L128.936 732.203 L136.575 732.203 L136.575 736.138 L116.668 736.138 L116.668 732.203 Z" fill="#000000" fill-rule="nonzero" fill-opacity="1" /><path clip-path="url(#clip260)" d="M146.019 730.258 L150.903 730.258 L150.903 736.138 L146.019 736.138 L146.019 730.258 Z" fill="#000000" fill-rule="nonzero" fill-opacity="1" /><path clip-path="url(#clip260)" d="M161.135 701.578 L179.491 701.578 L179.491 705.513 L165.417 705.513 L165.417 713.985 Q166.436 713.638 167.454 713.476 Q168.473 713.291 169.491 713.291 Q175.278 713.291 178.658 716.462 Q182.038 719.633 182.038 725.05 Q182.038 730.629 178.565 733.73 Q175.093 736.809 168.774 736.809 Q166.598 736.809 164.329 736.439 Q162.084 736.068 159.677 735.328 L159.677 730.629 Q161.76 731.763 163.982 732.318 Q166.204 732.874 168.681 732.874 Q172.686 732.874 175.024 730.768 Q177.362 728.661 177.362 725.05 Q177.362 721.439 175.024 719.332 Q172.686 717.226 168.681 717.226 Q166.806 717.226 164.931 717.643 Q163.079 718.059 161.135 718.939 L161.135 701.578 Z" fill="#000000" fill-rule="nonzero" fill-opacity="1" /><path clip-path="url(#clip260)" d="M201.25 704.657 Q197.639 704.657 195.811 708.221 Q194.005 711.763 194.005 718.893 Q194.005 725.999 195.811 729.564 Q197.639 733.105 201.25 733.105 Q204.885 733.105 206.69 729.564 Q208.519 725.999 208.519 718.893 Q208.519 711.763 206.69 708.221 Q204.885 704.657 201.25 704.657 M201.25 700.953 Q207.061 700.953 210.116 705.559 Q213.195 710.143 213.195 718.893 Q213.195 727.619 210.116 732.226 Q207.061 736.809 201.25 736.809 Q195.44 736.809 192.362 732.226 Q189.306 727.619 189.306 718.893 Q189.306 710.143 192.362 705.559 Q195.44 700.953 201.25 700.953 Z" fill="#000000" fill-rule="nonzero" fill-opacity="1" /><path clip-path="url(#clip260)" d="M249.584 710.675 L239.005 721.3 L249.584 731.879 L246.829 734.68 L236.204 724.055 L225.579 734.68 L222.848 731.879 L233.403 721.3 L222.848 710.675 L225.579 707.874 L236.204 718.499 L246.829 707.874 L249.584 710.675 Z" fill="#000000" fill-rule="nonzero" fill-opacity="1" /><path clip-path="url(#clip260)" d="M261.945 732.203 L269.583 732.203 L269.583 705.837 L261.273 707.504 L261.273 703.245 L269.537 701.578 L274.213 701.578 L274.213 732.203 L281.852 732.203 L281.852 736.138 L261.945 736.138 L261.945 732.203 Z" fill="#000000" fill-rule="nonzero" fill-opacity="1" /><path clip-path="url(#clip260)" d="M301.296 704.657 Q297.685 704.657 295.856 708.221 Q294.051 711.763 294.051 718.893 Q294.051 725.999 295.856 729.564 Q297.685 733.105 301.296 733.105 Q304.93 733.105 306.736 729.564 Q308.565 725.999 308.565 718.893 Q308.565 711.763 306.736 708.221 Q304.93 704.657 301.296 704.657 M301.296 700.953 Q307.106 700.953 310.162 705.559 Q313.241 710.143 313.241 718.893 Q313.241 727.619 310.162 732.226 Q307.106 736.809 301.296 736.809 Q295.486 736.809 292.407 732.226 Q289.352 727.619 289.352 718.893 Q289.352 710.143 292.407 705.559 Q295.486 700.953 301.296 700.953 Z" fill="#000000" fill-rule="nonzero" fill-opacity="1" /><path clip-path="url(#clip260)" d="M325.917 683.958 L316.325 698.947 L325.917 698.947 L325.917 683.958 M324.92 680.647 L329.697 680.647 L329.697 698.947 L333.703 698.947 L333.703 702.107 L329.697 702.107 L329.697 708.727 L325.917 708.727 L325.917 702.107 L313.241 702.107 L313.241 698.44 L324.92 680.647 Z" fill="#000000" fill-rule="nonzero" fill-opacity="1" /><path clip-path="url(#clip260)" d="M119.885 506.899 L136.204 506.899 L136.204 510.834 L114.26 510.834 L114.26 506.899 Q116.922 504.144 121.505 499.514 Q126.112 494.862 127.292 493.519 Q129.538 490.996 130.417 489.26 Q131.32 487.501 131.32 485.811 Q131.32 483.056 129.376 481.32 Q127.455 479.584 124.353 479.584 Q122.154 479.584 119.7 480.348 Q117.269 481.112 114.492 482.663 L114.492 477.94 Q117.316 476.806 119.769 476.228 Q122.223 475.649 124.26 475.649 Q129.63 475.649 132.825 478.334 Q136.019 481.019 136.019 485.51 Q136.019 487.639 135.209 489.561 Q134.422 491.459 132.316 494.051 Q131.737 494.723 128.635 497.94 Q125.533 501.135 119.885 506.899 Z" fill="#000000" fill-rule="nonzero" fill-opacity="1" /><path clip-path="url(#clip260)" d="M146.019 504.954 L150.903 504.954 L150.903 510.834 L146.019 510.834 L146.019 504.954 Z" fill="#000000" fill-rule="nonzero" fill-opacity="1" /><path clip-path="url(#clip260)" d="M171.089 479.352 Q167.477 479.352 165.649 482.917 Q163.843 486.459 163.843 493.589 Q163.843 500.695 165.649 504.26 Q167.477 507.801 171.089 507.801 Q174.723 507.801 176.528 504.26 Q178.357 500.695 178.357 493.589 Q178.357 486.459 176.528 482.917 Q174.723 479.352 171.089 479.352 M171.089 475.649 Q176.899 475.649 179.954 480.255 Q183.033 484.839 183.033 493.589 Q183.033 502.315 179.954 506.922 Q176.899 511.505 171.089 511.505 Q165.278 511.505 162.2 506.922 Q159.144 502.315 159.144 493.589 Q159.144 484.839 162.2 480.255 Q165.278 475.649 171.089 475.649 Z" fill="#000000" fill-rule="nonzero" fill-opacity="1" /><path clip-path="url(#clip260)" d="M201.25 479.352 Q197.639 479.352 195.811 482.917 Q194.005 486.459 194.005 493.589 Q194.005 500.695 195.811 504.26 Q197.639 507.801 201.25 507.801 Q204.885 507.801 206.69 504.26 Q208.519 500.695 208.519 493.589 Q208.519 486.459 206.69 482.917 Q204.885 479.352 201.25 479.352 M201.25 475.649 Q207.061 475.649 210.116 480.255 Q213.195 484.839 213.195 493.589 Q213.195 502.315 210.116 506.922 Q207.061 511.505 201.25 511.505 Q195.44 511.505 192.362 506.922 Q189.306 502.315 189.306 493.589 Q189.306 484.839 192.362 480.255 Q195.44 475.649 201.25 475.649 Z" fill="#000000" fill-rule="nonzero" fill-opacity="1" /><path clip-path="url(#clip260)" d="M249.584 485.371 L239.005 495.996 L249.584 506.575 L246.829 509.375 L236.204 498.751 L225.579 509.375 L222.848 506.575 L233.403 495.996 L222.848 485.371 L225.579 482.57 L236.204 493.195 L246.829 482.57 L249.584 485.371 Z" fill="#000000" fill-rule="nonzero" fill-opacity="1" /><path clip-path="url(#clip260)" d="M261.945 506.899 L269.583 506.899 L269.583 480.533 L261.273 482.2 L261.273 477.94 L269.537 476.274 L274.213 476.274 L274.213 506.899 L281.852 506.899 L281.852 510.834 L261.945 510.834 L261.945 506.899 Z" fill="#000000" fill-rule="nonzero" fill-opacity="1" /><path clip-path="url(#clip260)" d="M301.296 479.352 Q297.685 479.352 295.856 482.917 Q294.051 486.459 294.051 493.589 Q294.051 500.695 295.856 504.26 Q297.685 507.801 301.296 507.801 Q304.93 507.801 306.736 504.26 Q308.565 500.695 308.565 493.589 Q308.565 486.459 306.736 482.917 Q304.93 479.352 301.296 479.352 M301.296 475.649 Q307.106 475.649 310.162 480.255 Q313.241 484.839 313.241 493.589 Q313.241 502.315 310.162 506.922 Q307.106 511.505 301.296 511.505 Q295.486 511.505 292.407 506.922 Q289.352 502.315 289.352 493.589 Q289.352 484.839 292.407 480.255 Q295.486 475.649 301.296 475.649 Z" fill="#000000" fill-rule="nonzero" fill-opacity="1" /><path clip-path="url(#clip260)" d="M325.917 458.654 L316.325 473.643 L325.917 473.643 L325.917 458.654 M324.92 455.343 L329.697 455.343 L329.697 473.643 L333.703 473.643 L333.703 476.803 L329.697 476.803 L329.697 483.423 L325.917 483.423 L325.917 476.803 L313.241 476.803 L313.241 473.136 L324.92 455.343 Z" fill="#000000" fill-rule="nonzero" fill-opacity="1" /><path clip-path="url(#clip260)" d="M119.885 281.595 L136.204 281.595 L136.204 285.53 L114.26 285.53 L114.26 281.595 Q116.922 278.84 121.505 274.21 Q126.112 269.558 127.292 268.215 Q129.538 265.692 130.417 263.956 Q131.32 262.197 131.32 260.507 Q131.32 257.752 129.376 256.016 Q127.455 254.28 124.353 254.28 Q122.154 254.28 119.7 255.044 Q117.269 255.808 114.492 257.359 L114.492 252.636 Q117.316 251.502 119.769 250.923 Q122.223 250.345 124.26 250.345 Q129.63 250.345 132.825 253.03 Q136.019 255.715 136.019 260.206 Q136.019 262.335 135.209 264.257 Q134.422 266.155 132.316 268.747 Q131.737 269.419 128.635 272.636 Q125.533 275.831 119.885 281.595 Z" fill="#000000" fill-rule="nonzero" fill-opacity="1" /><path clip-path="url(#clip260)" d="M146.019 279.65 L150.903 279.65 L150.903 285.53 L146.019 285.53 L146.019 279.65 Z" fill="#000000" fill-rule="nonzero" fill-opacity="1" /><path clip-path="url(#clip260)" d="M161.135 250.97 L179.491 250.97 L179.491 254.905 L165.417 254.905 L165.417 263.377 Q166.436 263.03 167.454 262.868 Q168.473 262.683 169.491 262.683 Q175.278 262.683 178.658 265.854 Q182.038 269.025 182.038 274.442 Q182.038 280.02 178.565 283.122 Q175.093 286.201 168.774 286.201 Q166.598 286.201 164.329 285.831 Q162.084 285.46 159.677 284.72 L159.677 280.02 Q161.76 281.155 163.982 281.71 Q166.204 282.266 168.681 282.266 Q172.686 282.266 175.024 280.159 Q177.362 278.053 177.362 274.442 Q177.362 270.831 175.024 268.724 Q172.686 266.618 168.681 266.618 Q166.806 266.618 164.931 267.034 Q163.079 267.451 161.135 268.331 L161.135 250.97 Z" fill="#000000" fill-rule="nonzero" fill-opacity="1" /><path clip-path="url(#clip260)" d="M201.25 254.048 Q197.639 254.048 195.811 257.613 Q194.005 261.155 194.005 268.284 Q194.005 275.391 195.811 278.956 Q197.639 282.497 201.25 282.497 Q204.885 282.497 206.69 278.956 Q208.519 275.391 208.519 268.284 Q208.519 261.155 206.69 257.613 Q204.885 254.048 201.25 254.048 M201.25 250.345 Q207.061 250.345 210.116 254.951 Q213.195 259.534 213.195 268.284 Q213.195 277.011 210.116 281.618 Q207.061 286.201 201.25 286.201 Q195.44 286.201 192.362 281.618 Q189.306 277.011 189.306 268.284 Q189.306 259.534 192.362 254.951 Q195.44 250.345 201.25 250.345 Z" fill="#000000" fill-rule="nonzero" fill-opacity="1" /><path clip-path="url(#clip260)" d="M249.584 260.067 L239.005 270.692 L249.584 281.27 L246.829 284.071 L236.204 273.446 L225.579 284.071 L222.848 281.27 L233.403 270.692 L222.848 260.067 L225.579 257.266 L236.204 267.891 L246.829 257.266 L249.584 260.067 Z" fill="#000000" fill-rule="nonzero" fill-opacity="1" /><path clip-path="url(#clip260)" d="M261.945 281.595 L269.583 281.595 L269.583 255.229 L261.273 256.896 L261.273 252.636 L269.537 250.97 L274.213 250.97 L274.213 281.595 L281.852 281.595 L281.852 285.53 L261.945 285.53 L261.945 281.595 Z" fill="#000000" fill-rule="nonzero" fill-opacity="1" /><path clip-path="url(#clip260)" d="M301.296 254.048 Q297.685 254.048 295.856 257.613 Q294.051 261.155 294.051 268.284 Q294.051 275.391 295.856 278.956 Q297.685 282.497 301.296 282.497 Q304.93 282.497 306.736 278.956 Q308.565 275.391 308.565 268.284 Q308.565 261.155 306.736 257.613 Q304.93 254.048 301.296 254.048 M301.296 250.345 Q307.106 250.345 310.162 254.951 Q313.241 259.534 313.241 268.284 Q313.241 277.011 310.162 281.618 Q307.106 286.201 301.296 286.201 Q295.486 286.201 292.407 281.618 Q289.352 277.011 289.352 268.284 Q289.352 259.534 292.407 254.951 Q295.486 250.345 301.296 250.345 Z" fill="#000000" fill-rule="nonzero" fill-opacity="1" /><path clip-path="url(#clip260)" d="M325.917 233.349 L316.325 248.339 L325.917 248.339 L325.917 233.349 M324.92 230.039 L329.697 230.039 L329.697 248.339 L333.703 248.339 L333.703 251.499 L329.697 251.499 L329.697 258.119 L325.917 258.119 L325.917 251.499 L313.241 251.499 L313.241 247.831 L324.92 230.039 Z" fill="#000000" fill-rule="nonzero" fill-opacity="1" /><path clip-path="url(#clip260)" d="M16.4842 923.811 L16.4842 883.612 L21.895 883.612 L21.895 900.481 L64.0042 900.481 L64.0042 906.942 L21.895 906.942 L21.895 923.811 L16.4842 923.811 Z" fill="#000000" fill-rule="nonzero" fill-opacity="1" /><path clip-path="url(#clip260)" d="M28.3562 879.665 L28.3562 873.809 L64.0042 873.809 L64.0042 879.665 L28.3562 879.665 M14.479 879.665 L14.479 873.809 L21.895 873.809 L21.895 879.665 L14.479 879.665 Z" fill="#000000" fill-rule="nonzero" fill-opacity="1" /><path clip-path="url(#clip260)" d="M35.1993 833.8 Q31.2526 831.604 29.3747 828.548 Q27.4968 825.493 27.4968 821.355 Q27.4968 815.785 31.4117 812.762 Q35.2948 809.738 42.4881 809.738 L64.0042 809.738 L64.0042 815.626 L42.679 815.626 Q37.5546 815.626 35.072 817.44 Q32.5894 819.255 32.5894 822.978 Q32.5894 827.53 35.6131 830.172 Q38.6368 832.814 43.8567 832.814 L64.0042 832.814 L64.0042 838.702 L42.679 838.702 Q37.5228 838.702 35.072 840.516 Q32.5894 842.33 32.5894 846.118 Q32.5894 850.606 35.6449 853.247 Q38.6686 855.889 43.8567 855.889 L64.0042 855.889 L64.0042 861.777 L28.3562 861.777 L28.3562 855.889 L33.8944 855.889 Q30.616 853.884 29.0564 851.083 Q27.4968 848.282 27.4968 844.431 Q27.4968 840.548 29.4702 837.842 Q31.4436 835.105 35.1993 833.8 Z" fill="#000000" fill-rule="nonzero" fill-opacity="1" /><path clip-path="url(#clip260)" d="M44.7161 767.565 L47.5806 767.565 L47.5806 794.492 Q53.6281 794.11 56.8109 790.864 Q59.9619 787.585 59.9619 781.761 Q59.9619 778.387 59.1344 775.236 Q58.3069 772.053 56.6518 768.934 L62.1899 768.934 Q63.5267 772.085 64.227 775.395 Q64.9272 778.705 64.9272 782.111 Q64.9272 790.641 59.9619 795.638 Q54.9967 800.603 46.5303 800.603 Q37.7774 800.603 32.6531 795.892 Q27.4968 791.15 27.4968 783.129 Q27.4968 775.936 32.1438 771.766 Q36.7589 767.565 44.7161 767.565 M42.9973 773.421 Q38.1912 773.485 35.3266 776.127 Q32.4621 778.737 32.4621 783.066 Q32.4621 787.967 35.2312 790.927 Q38.0002 793.855 43.0292 794.301 L42.9973 773.421 Z" fill="#000000" fill-rule="nonzero" fill-opacity="1" /><path clip-path="url(#clip260)" d="M14.5426 723.164 Q21.8632 727.429 29.0246 729.498 Q36.186 731.567 43.5384 731.567 Q50.8908 731.567 58.1159 729.498 Q65.3091 727.397 72.5979 723.164 L72.5979 728.257 Q65.1182 733.031 57.8931 735.418 Q50.668 737.774 43.5384 737.774 Q36.4406 737.774 29.2474 735.418 Q22.0542 733.063 14.5426 728.257 L14.5426 723.164 Z" fill="#000000" fill-rule="nonzero" fill-opacity="1" /><path clip-path="url(#clip260)" d="M42.4881 682.169 L64.0042 682.169 L64.0042 688.026 L42.679 688.026 Q37.6183 688.026 35.1038 689.999 Q32.5894 691.972 32.5894 695.919 Q32.5894 700.661 35.6131 703.399 Q38.6368 706.136 43.8567 706.136 L64.0042 706.136 L64.0042 712.024 L28.3562 712.024 L28.3562 706.136 L33.8944 706.136 Q30.6797 704.035 29.0883 701.203 Q27.4968 698.338 27.4968 694.614 Q27.4968 688.471 31.3163 685.32 Q35.1038 682.169 42.4881 682.169 Z" fill="#000000" fill-rule="nonzero" fill-opacity="1" /><path clip-path="url(#clip260)" d="M29.4065 647.762 L34.9447 647.762 Q33.6716 650.245 33.035 652.919 Q32.3984 655.592 32.3984 658.457 Q32.3984 662.817 33.7352 665.013 Q35.072 667.178 37.7456 667.178 Q39.7826 667.178 40.9603 665.618 Q42.1061 664.059 43.1565 659.348 L43.6021 657.343 Q44.9389 651.104 47.3897 648.494 Q49.8086 645.853 54.1691 645.853 Q59.1344 645.853 62.0308 649.799 Q64.9272 653.714 64.9272 660.589 Q64.9272 663.454 64.3543 666.573 Q63.8132 669.66 62.6992 673.098 L56.6518 673.098 Q58.3387 669.851 59.198 666.7 Q60.0256 663.549 60.0256 660.462 Q60.0256 656.324 58.6251 654.096 Q57.1929 651.868 54.6147 651.868 Q52.2276 651.868 50.9545 653.492 Q49.6813 655.083 48.5037 660.526 L48.0262 662.563 Q46.8804 668.005 44.5251 670.424 Q42.138 672.843 38.0002 672.843 Q32.9713 672.843 30.2341 669.279 Q27.4968 665.714 27.4968 659.157 Q27.4968 655.911 27.9743 653.046 Q28.4517 650.181 29.4065 647.762 Z" fill="#000000" fill-rule="nonzero" fill-opacity="1" /><path clip-path="url(#clip260)" d="M14.5426 637.45 L14.5426 632.357 Q22.0542 627.583 29.2474 625.228 Q36.4406 622.841 43.5384 622.841 Q50.668 622.841 57.8931 625.228 Q65.1182 627.583 72.5979 632.357 L72.5979 637.45 Q65.3091 633.217 58.1159 631.148 Q50.8908 629.047 43.5384 629.047 Q36.186 629.047 29.0246 631.148 Q21.8632 633.217 14.5426 637.45 Z" fill="#000000" fill-rule="nonzero" fill-opacity="1" /><path clip-path="url(#clip260)" d="M767.61 12.096 L818.773 12.096 L818.773 18.9825 L797.303 18.9825 L797.303 72.576 L789.08 72.576 L789.08 18.9825 L767.61 18.9825 L767.61 12.096 Z" fill="#000000" fill-rule="nonzero" fill-opacity="1" /><path clip-path="url(#clip260)" d="M823.796 27.2059 L831.25 27.2059 L831.25 72.576 L823.796 72.576 L823.796 27.2059 M823.796 9.54393 L831.25 9.54393 L831.25 18.9825 L823.796 18.9825 L823.796 9.54393 Z" fill="#000000" fill-rule="nonzero" fill-opacity="1" /><path clip-path="url(#clip260)" d="M882.17 35.9153 Q884.965 30.8922 888.854 28.5022 Q892.743 26.1121 898.009 26.1121 Q905.098 26.1121 908.946 31.0947 Q912.795 36.0368 912.795 45.1919 L912.795 72.576 L905.3 72.576 L905.3 45.4349 Q905.3 38.913 902.991 35.7533 Q900.682 32.5936 895.943 32.5936 Q890.15 32.5936 886.788 36.4419 Q883.426 40.2903 883.426 46.9338 L883.426 72.576 L875.931 72.576 L875.931 45.4349 Q875.931 38.8725 873.622 35.7533 Q871.313 32.5936 866.493 32.5936 Q860.781 32.5936 857.419 36.4824 Q854.056 40.3308 854.056 46.9338 L854.056 72.576 L846.562 72.576 L846.562 27.2059 L854.056 27.2059 L854.056 34.2544 Q856.609 30.082 860.173 28.0971 Q863.738 26.1121 868.64 26.1121 Q873.582 26.1121 877.025 28.6237 Q880.509 31.1352 882.17 35.9153 Z" fill="#000000" fill-rule="nonzero" fill-opacity="1" /><path clip-path="url(#clip260)" d="M966.469 48.0275 L966.469 51.6733 L932.198 51.6733 Q932.685 59.3701 936.816 63.421 Q940.989 67.4314 948.402 67.4314 Q952.696 67.4314 956.706 66.3781 Q960.757 65.3249 964.727 63.2184 L964.727 70.267 Q960.717 71.9684 956.504 72.8596 Q952.291 73.7508 947.956 73.7508 Q937.1 73.7508 930.74 67.4314 Q924.421 61.1119 924.421 50.3365 Q924.421 39.1965 930.416 32.6746 Q936.452 26.1121 946.66 26.1121 Q955.815 26.1121 961.122 32.0264 Q966.469 37.9003 966.469 48.0275 M959.015 45.84 Q958.934 39.7232 955.572 36.0774 Q952.25 32.4315 946.741 32.4315 Q940.503 32.4315 936.735 35.9558 Q933.009 39.4801 932.441 45.8805 L959.015 45.84 Z" fill="#000000" fill-rule="nonzero" fill-opacity="1" /><path clip-path="url(#clip260)" d="M1012.45 14.324 L1012.45 27.2059 L1027.8 27.2059 L1027.8 32.9987 L1012.45 32.9987 L1012.45 57.6282 Q1012.45 63.1779 1013.95 64.7578 Q1015.48 66.3376 1020.14 66.3376 L1027.8 66.3376 L1027.8 72.576 L1020.14 72.576 Q1011.52 72.576 1008.23 69.3758 Q1004.95 66.1351 1004.95 57.6282 L1004.95 32.9987 L999.484 32.9987 L999.484 27.2059 L1004.95 27.2059 L1004.95 14.324 L1012.45 14.324 Z" fill="#000000" fill-rule="nonzero" fill-opacity="1" /><path clip-path="url(#clip260)" d="M1055.18 32.4315 Q1049.19 32.4315 1045.7 37.1306 Q1042.22 41.7891 1042.22 49.9314 Q1042.22 58.0738 1045.66 62.7728 Q1049.15 67.4314 1055.18 67.4314 Q1061.14 67.4314 1064.62 62.7323 Q1068.11 58.0333 1068.11 49.9314 Q1068.11 41.8701 1064.62 37.1711 Q1061.14 32.4315 1055.18 32.4315 M1055.18 26.1121 Q1064.91 26.1121 1070.46 32.4315 Q1076.01 38.7509 1076.01 49.9314 Q1076.01 61.0714 1070.46 67.4314 Q1064.91 73.7508 1055.18 73.7508 Q1045.42 73.7508 1039.87 67.4314 Q1034.36 61.0714 1034.36 49.9314 Q1034.36 38.7509 1039.87 32.4315 Q1045.42 26.1121 1055.18 26.1121 Z" fill="#000000" fill-rule="nonzero" fill-opacity="1" /><path clip-path="url(#clip260)" d="M1147.38 28.9478 L1147.38 35.9153 Q1144.22 34.1734 1141.02 33.3227 Q1137.86 32.4315 1134.62 32.4315 Q1127.37 32.4315 1123.36 37.0496 Q1119.35 41.6271 1119.35 49.9314 Q1119.35 58.2358 1123.36 62.8538 Q1127.37 67.4314 1134.62 67.4314 Q1137.86 67.4314 1141.02 66.5807 Q1144.22 65.6895 1147.38 63.9476 L1147.38 70.8341 Q1144.26 72.2924 1140.9 73.0216 Q1137.58 73.7508 1133.81 73.7508 Q1123.56 73.7508 1117.53 67.3098 Q1111.49 60.8689 1111.49 49.9314 Q1111.49 38.832 1117.57 32.472 Q1123.68 26.1121 1134.3 26.1121 Q1137.74 26.1121 1141.02 26.8413 Q1144.3 27.5299 1147.38 28.9478 Z" fill="#000000" fill-rule="nonzero" fill-opacity="1" /><path clip-path="url(#clip260)" d="M1177.93 32.4315 Q1171.93 32.4315 1168.45 37.1306 Q1164.96 41.7891 1164.96 49.9314 Q1164.96 58.0738 1168.41 62.7728 Q1171.89 67.4314 1177.93 67.4314 Q1183.88 67.4314 1187.36 62.7323 Q1190.85 58.0333 1190.85 49.9314 Q1190.85 41.8701 1187.36 37.1711 Q1183.88 32.4315 1177.93 32.4315 M1177.93 26.1121 Q1187.65 26.1121 1193.2 32.4315 Q1198.75 38.7509 1198.75 49.9314 Q1198.75 61.0714 1193.2 67.4314 Q1187.65 73.7508 1177.93 73.7508 Q1168.16 73.7508 1162.61 67.4314 Q1157.1 61.0714 1157.1 49.9314 Q1157.1 38.7509 1162.61 32.4315 Q1168.16 26.1121 1177.93 26.1121 Z" fill="#000000" fill-rule="nonzero" fill-opacity="1" /><path clip-path="url(#clip260)" d="M1246.43 35.9153 Q1249.22 30.8922 1253.11 28.5022 Q1257 26.1121 1262.27 26.1121 Q1269.36 26.1121 1273.2 31.0947 Q1277.05 36.0368 1277.05 45.1919 L1277.05 72.576 L1269.56 72.576 L1269.56 45.4349 Q1269.56 38.913 1267.25 35.7533 Q1264.94 32.5936 1260.2 32.5936 Q1254.41 32.5936 1251.05 36.4419 Q1247.68 40.2903 1247.68 46.9338 L1247.68 72.576 L1240.19 72.576 L1240.19 45.4349 Q1240.19 38.8725 1237.88 35.7533 Q1235.57 32.5936 1230.75 32.5936 Q1225.04 32.5936 1221.68 36.4824 Q1218.31 40.3308 1218.31 46.9338 L1218.31 72.576 L1210.82 72.576 L1210.82 27.2059 L1218.31 27.2059 L1218.31 34.2544 Q1220.87 30.082 1224.43 28.0971 Q1228 26.1121 1232.9 26.1121 Q1237.84 26.1121 1241.28 28.6237 Q1244.77 31.1352 1246.43 35.9153 Z" fill="#000000" fill-rule="nonzero" fill-opacity="1" /><path clip-path="url(#clip260)" d="M1299.13 65.7705 L1299.13 89.8329 L1291.64 89.8329 L1291.64 27.2059 L1299.13 27.2059 L1299.13 34.0924 Q1301.48 30.0415 1305.04 28.0971 Q1308.65 26.1121 1313.63 26.1121 Q1321.9 26.1121 1327.04 32.6746 Q1332.23 39.2371 1332.23 49.9314 Q1332.23 60.6258 1327.04 67.1883 Q1321.9 73.7508 1313.63 73.7508 Q1308.65 73.7508 1305.04 71.8063 Q1301.48 69.8214 1299.13 65.7705 M1324.49 49.9314 Q1324.49 41.7081 1321.09 37.0496 Q1317.72 32.3505 1311.81 32.3505 Q1305.89 32.3505 1302.49 37.0496 Q1299.13 41.7081 1299.13 49.9314 Q1299.13 58.1548 1302.49 62.8538 Q1305.89 67.5124 1311.81 67.5124 Q1317.72 67.5124 1321.09 62.8538 Q1324.49 58.1548 1324.49 49.9314 Z" fill="#000000" fill-rule="nonzero" fill-opacity="1" /><path clip-path="url(#clip260)" d="M1343.81 54.671 L1343.81 27.2059 L1351.26 27.2059 L1351.26 54.3874 Q1351.26 60.8284 1353.78 64.0691 Q1356.29 67.2693 1361.31 67.2693 Q1367.35 67.2693 1370.83 63.421 Q1374.35 59.5726 1374.35 52.9291 L1374.35 27.2059 L1381.81 27.2059 L1381.81 72.576 L1374.35 72.576 L1374.35 65.6084 Q1371.64 69.7404 1368.04 71.7658 Q1364.47 73.7508 1359.73 73.7508 Q1351.91 73.7508 1347.86 68.8897 Q1343.81 64.0286 1343.81 54.671 M1362.57 26.1121 L1362.57 26.1121 Z" fill="#000000" fill-rule="nonzero" fill-opacity="1" /><path clip-path="url(#clip260)" d="M1404.53 14.324 L1404.53 27.2059 L1419.89 27.2059 L1419.89 32.9987 L1404.53 32.9987 L1404.53 57.6282 Q1404.53 63.1779 1406.03 64.7578 Q1407.57 66.3376 1412.23 66.3376 L1419.89 66.3376 L1419.89 72.576 L1412.23 72.576 Q1403.6 72.576 1400.32 69.3758 Q1397.04 66.1351 1397.04 57.6282 L1397.04 32.9987 L1391.57 32.9987 L1391.57 27.2059 L1397.04 27.2059 L1397.04 14.324 L1404.53 14.324 Z" fill="#000000" fill-rule="nonzero" fill-opacity="1" /><path clip-path="url(#clip260)" d="M1468.5 48.0275 L1468.5 51.6733 L1434.23 51.6733 Q1434.71 59.3701 1438.84 63.421 Q1443.02 67.4314 1450.43 67.4314 Q1454.72 67.4314 1458.73 66.3781 Q1462.79 65.3249 1466.76 63.2184 L1466.76 70.267 Q1462.75 71.9684 1458.53 72.8596 Q1454.32 73.7508 1449.98 73.7508 Q1439.13 73.7508 1432.77 67.4314 Q1426.45 61.1119 1426.45 50.3365 Q1426.45 39.1965 1432.44 32.6746 Q1438.48 26.1121 1448.69 26.1121 Q1457.84 26.1121 1463.15 32.0264 Q1468.5 37.9003 1468.5 48.0275 M1461.04 45.84 Q1460.96 39.7232 1457.6 36.0774 Q1454.28 32.4315 1448.77 32.4315 Q1442.53 32.4315 1438.76 35.9558 Q1435.04 39.4801 1434.47 45.8805 L1461.04 45.84 Z" fill="#000000" fill-rule="nonzero" fill-opacity="1" /><path clip-path="url(#clip260)" d="M1507.43 12.096 L1515.61 12.096 L1515.61 65.6895 L1545.06 65.6895 L1545.06 72.576 L1507.43 72.576 L1507.43 12.096 Z" fill="#000000" fill-rule="nonzero" fill-opacity="1" /><path clip-path="url(#clip260)" d="M1590.67 48.0275 L1590.67 51.6733 L1556.4 51.6733 Q1556.89 59.3701 1561.02 63.421 Q1565.19 67.4314 1572.61 67.4314 Q1576.9 67.4314 1580.91 66.3781 Q1584.96 65.3249 1588.93 63.2184 L1588.93 70.267 Q1584.92 71.9684 1580.71 72.8596 Q1576.49 73.7508 1572.16 73.7508 Q1561.3 73.7508 1554.94 67.4314 Q1548.62 61.1119 1548.62 50.3365 Q1548.62 39.1965 1554.62 32.6746 Q1560.66 26.1121 1570.86 26.1121 Q1580.02 26.1121 1585.33 32.0264 Q1590.67 37.9003 1590.67 48.0275 M1583.22 45.84 Q1583.14 39.7232 1579.78 36.0774 Q1576.45 32.4315 1570.94 32.4315 Q1564.71 32.4315 1560.94 35.9558 Q1557.21 39.4801 1556.65 45.8805 L1583.22 45.84 Z" fill="#000000" fill-rule="nonzero" fill-opacity="1" /><path clip-path="url(#clip260)" d="M1640.62 45.1919 L1640.62 72.576 L1633.17 72.576 L1633.17 45.4349 Q1633.17 38.994 1630.66 35.7938 Q1628.14 32.5936 1623.12 32.5936 Q1617.08 32.5936 1613.6 36.4419 Q1610.12 40.2903 1610.12 46.9338 L1610.12 72.576 L1602.62 72.576 L1602.62 27.2059 L1610.12 27.2059 L1610.12 34.2544 Q1612.79 30.163 1616.4 28.1376 Q1620.04 26.1121 1624.78 26.1121 Q1632.6 26.1121 1636.61 30.9732 Q1640.62 35.7938 1640.62 45.1919 Z" fill="#000000" fill-rule="nonzero" fill-opacity="1" /><path clip-path="url(#clip260)" d="M1685.34 49.3643 Q1685.34 41.2625 1681.98 36.8065 Q1678.66 32.3505 1672.62 32.3505 Q1666.63 32.3505 1663.27 36.8065 Q1659.94 41.2625 1659.94 49.3643 Q1659.94 57.4256 1663.27 61.8816 Q1666.63 66.3376 1672.62 66.3376 Q1678.66 66.3376 1681.98 61.8816 Q1685.34 57.4256 1685.34 49.3643 M1692.8 66.9452 Q1692.8 78.5308 1687.65 84.1616 Q1682.51 89.8329 1671.89 89.8329 Q1667.96 89.8329 1664.48 89.2252 Q1661 88.6581 1657.72 87.4428 L1657.72 80.1917 Q1661 81.9741 1664.2 82.8248 Q1667.4 83.6755 1670.72 83.6755 Q1678.05 83.6755 1681.7 79.8271 Q1685.34 76.0193 1685.34 68.282 L1685.34 64.5957 Q1683.03 68.6061 1679.43 70.5911 Q1675.82 72.576 1670.8 72.576 Q1662.45 72.576 1657.35 66.2161 Q1652.25 59.8562 1652.25 49.3643 Q1652.25 38.832 1657.35 32.472 Q1662.45 26.1121 1670.8 26.1121 Q1675.82 26.1121 1679.43 28.0971 Q1683.03 30.082 1685.34 34.0924 L1685.34 27.2059 L1692.8 27.2059 L1692.8 66.9452 Z" fill="#000000" fill-rule="nonzero" fill-opacity="1" /><path clip-path="url(#clip260)" d="M1715.52 14.324 L1715.52 27.2059 L1730.87 27.2059 L1730.87 32.9987 L1715.52 32.9987 L1715.52 57.6282 Q1715.52 63.1779 1717.02 64.7578 Q1718.56 66.3376 1723.22 66.3376 L1730.87 66.3376 L1730.87 72.576 L1723.22 72.576 Q1714.59 72.576 1711.31 69.3758 Q1708.03 66.1351 1708.03 57.6282 L1708.03 32.9987 L1702.56 32.9987 L1702.56 27.2059 L1708.03 27.2059 L1708.03 14.324 L1715.52 14.324 Z" fill="#000000" fill-rule="nonzero" fill-opacity="1" /><path clip-path="url(#clip260)" d="M1778.39 45.1919 L1778.39 72.576 L1770.94 72.576 L1770.94 45.4349 Q1770.94 38.994 1768.43 35.7938 Q1765.91 32.5936 1760.89 32.5936 Q1754.86 32.5936 1751.37 36.4419 Q1747.89 40.2903 1747.89 46.9338 L1747.89 72.576 L1740.39 72.576 L1740.39 9.54393 L1747.89 9.54393 L1747.89 34.2544 Q1750.56 30.163 1754.17 28.1376 Q1757.81 26.1121 1762.55 26.1121 Q1770.37 26.1121 1774.38 30.9732 Q1778.39 35.7938 1778.39 45.1919 Z" fill="#000000" fill-rule="nonzero" fill-opacity="1" /><path clip-path="url(#clip260)" d="M1819.95 12.096 L1828.14 12.096 L1828.14 65.6895 L1857.59 65.6895 L1857.59 72.576 L1819.95 72.576 L1819.95 12.096 Z" fill="#000000" fill-rule="nonzero" fill-opacity="1" /><path clip-path="url(#clip260)" d="M1865.85 27.2059 L1873.3 27.2059 L1873.3 72.576 L1865.85 72.576 L1865.85 27.2059 M1865.85 9.54393 L1873.3 9.54393 L1873.3 18.9825 L1865.85 18.9825 L1865.85 9.54393 Z" fill="#000000" fill-rule="nonzero" fill-opacity="1" /><path clip-path="url(#clip260)" d="M1917.82 28.5427 L1917.82 35.5912 Q1914.66 33.9709 1911.26 33.1607 Q1907.86 32.3505 1904.21 32.3505 Q1898.66 32.3505 1895.87 34.0519 Q1893.11 35.7533 1893.11 39.156 Q1893.11 41.7486 1895.1 43.2475 Q1897.08 44.7058 1903.08 46.0426 L1905.63 46.6097 Q1913.57 48.3111 1916.89 51.4303 Q1920.25 54.509 1920.25 60.0587 Q1920.25 66.3781 1915.23 70.0644 Q1910.25 73.7508 1901.5 73.7508 Q1897.85 73.7508 1893.88 73.0216 Q1889.95 72.3329 1885.58 70.9151 L1885.58 63.2184 Q1889.71 65.3654 1893.72 66.4591 Q1897.73 67.5124 1901.66 67.5124 Q1906.93 67.5124 1909.76 65.73 Q1912.6 63.9071 1912.6 60.6258 Q1912.6 57.5877 1910.53 55.9673 Q1908.51 54.3469 1901.58 52.8481 L1898.99 52.2405 Q1892.06 50.7821 1888.98 47.7845 Q1885.9 44.7463 1885.9 39.4801 Q1885.9 33.0797 1890.44 29.5959 Q1894.98 26.1121 1903.32 26.1121 Q1907.45 26.1121 1911.1 26.7198 Q1914.75 27.3274 1917.82 28.5427 Z" fill="#000000" fill-rule="nonzero" fill-opacity="1" /><path clip-path="url(#clip260)" d="M1939.5 14.324 L1939.5 27.2059 L1954.85 27.2059 L1954.85 32.9987 L1939.5 32.9987 L1939.5 57.6282 Q1939.5 63.1779 1941 64.7578 Q1942.53 66.3376 1947.19 66.3376 L1954.85 66.3376 L1954.85 72.576 L1947.19 72.576 Q1938.56 72.576 1935.28 69.3758 Q1932 66.1351 1932 57.6282 L1932 32.9987 L1926.53 32.9987 L1926.53 27.2059 L1932 27.2059 L1932 14.324 L1939.5 14.324 Z" fill="#000000" fill-rule="nonzero" fill-opacity="1" /><polyline clip-path="url(#clip262)" style="stroke:#009af9; stroke-linecap:round; stroke-linejoin:round; stroke-width:4; stroke-opacity:1; fill:none" points="425.828,1386.4 434.25,1380.41 471.685,1355.61 518.479,1324.69 565.272,1293.59 612.066,1262.11 658.859,1231.36 705.653,1200.49 752.446,1169.02 799.24,1139.78 892.827,1079.43 1360.76,771.141 2296.63,160.256 "/>
<circle clip-path="url(#clip262)" cx="425.828" cy="1386.4" r="14.4" fill="#e26f46" fill-rule="evenodd" fill-opacity="1" stroke="#000000" stroke-opacity="1" stroke-width="3.2"/>
<circle clip-path="url(#clip262)" cx="434.25" cy="1380.41" r="14.4" fill="#e26f46" fill-rule="evenodd" fill-opacity="1" stroke="#000000" stroke-opacity="1" stroke-width="3.2"/>
<circle clip-path="url(#clip262)" cx="471.685" cy="1355.61" r="14.4" fill="#e26f46" fill-rule="evenodd" fill-opacity="1" stroke="#000000" stroke-opacity="1" stroke-width="3.2"/>
<circle clip-path="url(#clip262)" cx="518.479" cy="1324.69" r="14.4" fill="#e26f46" fill-rule="evenodd" fill-opacity="1" stroke="#000000" stroke-opacity="1" stroke-width="3.2"/>
<circle clip-path="url(#clip262)" cx="565.272" cy="1293.59" r="14.4" fill="#e26f46" fill-rule="evenodd" fill-opacity="1" stroke="#000000" stroke-opacity="1" stroke-width="3.2"/>
<circle clip-path="url(#clip262)" cx="612.066" cy="1262.11" r="14.4" fill="#e26f46" fill-rule="evenodd" fill-opacity="1" stroke="#000000" stroke-opacity="1" stroke-width="3.2"/>
<circle clip-path="url(#clip262)" cx="658.859" cy="1231.36" r="14.4" fill="#e26f46" fill-rule="evenodd" fill-opacity="1" stroke="#000000" stroke-opacity="1" stroke-width="3.2"/>
<circle clip-path="url(#clip262)" cx="705.653" cy="1200.49" r="14.4" fill="#e26f46" fill-rule="evenodd" fill-opacity="1" stroke="#000000" stroke-opacity="1" stroke-width="3.2"/>
<circle clip-path="url(#clip262)" cx="752.446" cy="1169.02" r="14.4" fill="#e26f46" fill-rule="evenodd" fill-opacity="1" stroke="#000000" stroke-opacity="1" stroke-width="3.2"/>
<circle clip-path="url(#clip262)" cx="799.24" cy="1139.78" r="14.4" fill="#e26f46" fill-rule="evenodd" fill-opacity="1" stroke="#000000" stroke-opacity="1" stroke-width="3.2"/>
<circle clip-path="url(#clip262)" cx="892.827" cy="1079.43" r="14.4" fill="#e26f46" fill-rule="evenodd" fill-opacity="1" stroke="#000000" stroke-opacity="1" stroke-width="3.2"/>
<circle clip-path="url(#clip262)" cx="1360.76" cy="771.141" r="14.4" fill="#e26f46" fill-rule="evenodd" fill-opacity="1" stroke="#000000" stroke-opacity="1" stroke-width="3.2"/>
<circle clip-path="url(#clip262)" cx="2296.63" cy="160.256" r="14.4" fill="#e26f46" fill-rule="evenodd" fill-opacity="1" stroke="#000000" stroke-opacity="1" stroke-width="3.2"/>
</svg>
