<?xml version="1.0" encoding="utf-8"?>
<svg xmlns="http://www.w3.org/2000/svg" xmlns:xlink="http://www.w3.org/1999/xlink" width="600" height="400" viewBox="0 0 2400 1600">
<defs>
  <clipPath id="clip940">
    <rect x="0" y="0" width="2400" height="1600"/>
  </clipPath>
</defs>
<path clip-path="url(#clip940)" d="M0 1600 L2400 1600 L2400 0 L0 0  Z" fill="#ffffff" fill-rule="evenodd" fill-opacity="1"/>
<defs>
  <clipPath id="clip941">
    <rect x="480" y="0" width="1681" height="1600"/>
  </clipPath>
</defs>
<path clip-path="url(#clip940)" d="M369.703 1423.18 L2352.76 1423.18 L2352.76 123.472 L369.703 123.472  Z" fill="#ffffff" fill-rule="evenodd" fill-opacity="1"/>
<defs>
  <clipPath id="clip942">
    <rect x="369" y="123" width="1984" height="1301"/>
  </clipPath>
</defs>
<polyline clip-path="url(#clip942)" style="stroke:#000000; stroke-linecap:round; stroke-linejoin:round; stroke-width:2; stroke-opacity:0.1; fill:none" points="424.892,1423.18 424.892,123.472 "/>
<polyline clip-path="url(#clip942)" style="stroke:#000000; stroke-linecap:round; stroke-linejoin:round; stroke-width:2; stroke-opacity:0.1; fill:none" points="892.827,1423.18 892.827,123.472 "/>
<polyline clip-path="url(#clip942)" style="stroke:#000000; stroke-linecap:round; stroke-linejoin:round; stroke-width:2; stroke-opacity:0.1; fill:none" points="1360.76,1423.18 1360.76,123.472 "/>
<polyline clip-path="url(#clip942)" style="stroke:#000000; stroke-linecap:round; stroke-linejoin:round; stroke-width:2; stroke-opacity:0.1; fill:none" points="1828.7,1423.18 1828.7,123.472 "/>
<polyline clip-path="url(#clip942)" style="stroke:#000000; stroke-linecap:round; stroke-linejoin:round; stroke-width:2; stroke-opacity:0.1; fill:none" points="2296.63,1423.18 2296.63,123.472 "/>
<polyline clip-path="url(#clip940)" style="stroke:#000000; stroke-linecap:round; stroke-linejoin:round; stroke-width:4; stroke-opacity:1; fill:none" points="369.703,1423.18 2352.76,1423.18 "/>
<polyline clip-path="url(#clip940)" style="stroke:#000000; stroke-linecap:round; stroke-linejoin:round; stroke-width:4; stroke-opacity:1; fill:none" points="424.892,1423.18 424.892,1404.28 "/>
<polyline clip-path="url(#clip940)" style="stroke:#000000; stroke-linecap:round; stroke-linejoin:round; stroke-width:4; stroke-opacity:1; fill:none" points="892.827,1423.18 892.827,1404.28 "/>
<polyline clip-path="url(#clip940)" style="stroke:#000000; stroke-linecap:round; stroke-linejoin:round; stroke-width:4; stroke-opacity:1; fill:none" points="1360.76,1423.18 1360.76,1404.28 "/>
<polyline clip-path="url(#clip940)" style="stroke:#000000; stroke-linecap:round; stroke-linejoin:round; stroke-width:4; stroke-opacity:1; fill:none" points="1828.7,1423.18 1828.7,1404.28 "/>
<polyline clip-path="url(#clip940)" style="stroke:#000000; stroke-linecap:round; stroke-linejoin:round; stroke-width:4; stroke-opacity:1; fill:none" points="2296.63,1423.18 2296.63,1404.28 "/>
<path clip-path="url(#clip940)" d="M424.892 1454.1 Q421.281 1454.1 419.452 1457.66 Q417.646 1461.2 417.646 1468.33 Q417.646 1475.44 419.452 1479.01 Q421.281 1482.55 424.892 1482.55 Q428.526 1482.55 430.331 1479.01 Q432.16 1475.44 432.16 1468.33 Q432.16 1461.2 430.331 1457.66 Q428.526 1454.1 424.892 1454.1 M424.892 1450.39 Q430.702 1450.39 433.757 1455 Q436.836 1459.58 436.836 1468.33 Q436.836 1477.06 433.757 1481.67 Q430.702 1486.25 424.892 1486.25 Q419.082 1486.25 416.003 1481.67 Q412.947 1477.06 412.947 1468.33 Q412.947 1459.58 416.003 1455 Q419.082 1450.39 424.892 1450.39 Z" fill="#000000" fill-rule="nonzero" fill-opacity="1" /><path clip-path="url(#clip940)" d="M852.445 1451.02 L870.801 1451.02 L870.801 1454.96 L856.727 1454.96 L856.727 1463.43 Q857.746 1463.08 858.764 1462.92 Q859.783 1462.73 860.801 1462.73 Q866.588 1462.73 869.968 1465.9 Q873.348 1469.08 873.348 1474.49 Q873.348 1480.07 869.875 1483.17 Q866.403 1486.25 860.084 1486.25 Q857.908 1486.25 855.639 1485.88 Q853.394 1485.51 850.987 1484.77 L850.987 1480.07 Q853.07 1481.2 855.292 1481.76 Q857.514 1482.32 859.991 1482.32 Q863.996 1482.32 866.334 1480.21 Q868.672 1478.1 868.672 1474.49 Q868.672 1470.88 866.334 1468.77 Q863.996 1466.67 859.991 1466.67 Q858.116 1466.67 856.241 1467.08 Q854.389 1467.5 852.445 1468.38 L852.445 1451.02 Z" fill="#000000" fill-rule="nonzero" fill-opacity="1" /><path clip-path="url(#clip940)" d="M892.561 1454.1 Q888.949 1454.1 887.121 1457.66 Q885.315 1461.2 885.315 1468.33 Q885.315 1475.44 887.121 1479.01 Q888.949 1482.55 892.561 1482.55 Q896.195 1482.55 898 1479.01 Q899.829 1475.44 899.829 1468.33 Q899.829 1461.2 898 1457.66 Q896.195 1454.1 892.561 1454.1 M892.561 1450.39 Q898.371 1450.39 901.426 1455 Q904.505 1459.58 904.505 1468.33 Q904.505 1477.06 901.426 1481.67 Q898.371 1486.25 892.561 1486.25 Q886.75 1486.25 883.672 1481.67 Q880.616 1477.06 880.616 1468.33 Q880.616 1459.58 883.672 1455 Q886.75 1450.39 892.561 1450.39 Z" fill="#000000" fill-rule="nonzero" fill-opacity="1" /><path clip-path="url(#clip940)" d="M922.722 1454.1 Q919.111 1454.1 917.283 1457.66 Q915.477 1461.2 915.477 1468.33 Q915.477 1475.44 917.283 1479.01 Q919.111 1482.55 922.722 1482.55 Q926.357 1482.55 928.162 1479.01 Q929.991 1475.44 929.991 1468.33 Q929.991 1461.2 928.162 1457.66 Q926.357 1454.1 922.722 1454.1 M922.722 1450.39 Q928.533 1450.39 931.588 1455 Q934.667 1459.58 934.667 1468.33 Q934.667 1477.06 931.588 1481.67 Q928.533 1486.25 922.722 1486.25 Q916.912 1486.25 913.834 1481.67 Q910.778 1477.06 910.778 1468.33 Q910.778 1459.58 913.834 1455 Q916.912 1450.39 922.722 1450.39 Z" fill="#000000" fill-rule="nonzero" fill-opacity="1" /><path clip-path="url(#clip940)" d="M1305.29 1481.64 L1312.93 1481.64 L1312.93 1455.28 L1304.62 1456.95 L1304.62 1452.69 L1312.88 1451.02 L1317.56 1451.02 L1317.56 1481.64 L1325.19 1481.64 L1325.19 1485.58 L1305.29 1485.58 L1305.29 1481.64 Z" fill="#000000" fill-rule="nonzero" fill-opacity="1" /><path clip-path="url(#clip940)" d="M1344.64 1454.1 Q1341.03 1454.1 1339.2 1457.66 Q1337.39 1461.2 1337.39 1468.33 Q1337.39 1475.44 1339.2 1479.01 Q1341.03 1482.55 1344.64 1482.55 Q1348.27 1482.55 1350.08 1479.01 Q1351.91 1475.44 1351.91 1468.33 Q1351.91 1461.2 1350.08 1457.66 Q1348.27 1454.1 1344.64 1454.1 M1344.64 1450.39 Q1350.45 1450.39 1353.5 1455 Q1356.58 1459.58 1356.58 1468.33 Q1356.58 1477.06 1353.5 1481.67 Q1350.45 1486.25 1344.64 1486.25 Q1338.83 1486.25 1335.75 1481.67 Q1332.69 1477.06 1332.69 1468.33 Q1332.69 1459.58 1335.75 1455 Q1338.83 1450.39 1344.64 1450.39 Z" fill="#000000" fill-rule="nonzero" fill-opacity="1" /><path clip-path="url(#clip940)" d="M1374.8 1454.1 Q1371.19 1454.1 1369.36 1457.66 Q1367.56 1461.2 1367.56 1468.33 Q1367.56 1475.44 1369.36 1479.01 Q1371.19 1482.55 1374.8 1482.55 Q1378.44 1482.55 1380.24 1479.01 Q1382.07 1475.44 1382.07 1468.33 Q1382.07 1461.2 1380.24 1457.66 Q1378.44 1454.1 1374.8 1454.1 M1374.8 1450.39 Q1380.61 1450.39 1383.67 1455 Q1386.75 1459.58 1386.75 1468.33 Q1386.75 1477.06 1383.67 1481.67 Q1380.61 1486.25 1374.8 1486.25 Q1368.99 1486.25 1365.91 1481.67 Q1362.86 1477.06 1362.86 1468.33 Q1362.86 1459.58 1365.91 1455 Q1368.99 1450.39 1374.8 1450.39 Z" fill="#000000" fill-rule="nonzero" fill-opacity="1" /><path clip-path="url(#clip940)" d="M1404.96 1454.1 Q1401.35 1454.1 1399.52 1457.66 Q1397.72 1461.2 1397.72 1468.33 Q1397.72 1475.44 1399.52 1479.01 Q1401.35 1482.55 1404.96 1482.55 Q1408.6 1482.55 1410.4 1479.01 Q1412.23 1475.44 1412.23 1468.33 Q1412.23 1461.2 1410.4 1457.66 Q1408.6 1454.1 1404.96 1454.1 M1404.96 1450.39 Q1410.77 1450.39 1413.83 1455 Q1416.91 1459.58 1416.91 1468.33 Q1416.91 1477.06 1413.83 1481.67 Q1410.77 1486.25 1404.96 1486.25 Q1399.15 1486.25 1396.07 1481.67 Q1393.02 1477.06 1393.02 1468.33 Q1393.02 1459.58 1396.07 1455 Q1399.15 1450.39 1404.96 1450.39 Z" fill="#000000" fill-rule="nonzero" fill-opacity="1" /><path clip-path="url(#clip940)" d="M1773.22 1481.64 L1780.86 1481.64 L1780.86 1455.28 L1772.55 1456.95 L1772.55 1452.69 L1780.82 1451.02 L1785.49 1451.02 L1785.49 1481.64 L1793.13 1481.64 L1793.13 1485.58 L1773.22 1485.58 L1773.22 1481.64 Z" fill="#000000" fill-rule="nonzero" fill-opacity="1" /><path clip-path="url(#clip940)" d="M1802.62 1451.02 L1820.98 1451.02 L1820.98 1454.96 L1806.9 1454.96 L1806.9 1463.43 Q1807.92 1463.08 1808.94 1462.92 Q1809.96 1462.73 1810.98 1462.73 Q1816.76 1462.73 1820.14 1465.9 Q1823.52 1469.08 1823.52 1474.49 Q1823.52 1480.07 1820.05 1483.17 Q1816.58 1486.25 1810.26 1486.25 Q1808.08 1486.25 1805.81 1485.88 Q1803.57 1485.51 1801.16 1484.77 L1801.16 1480.07 Q1803.25 1481.2 1805.47 1481.76 Q1807.69 1482.32 1810.17 1482.32 Q1814.17 1482.32 1816.51 1480.21 Q1818.85 1478.1 1818.85 1474.49 Q1818.85 1470.88 1816.51 1468.77 Q1814.17 1466.67 1810.17 1466.67 Q1808.29 1466.67 1806.42 1467.08 Q1804.56 1467.5 1802.62 1468.38 L1802.62 1451.02 Z" fill="#000000" fill-rule="nonzero" fill-opacity="1" /><path clip-path="url(#clip940)" d="M1842.74 1454.1 Q1839.12 1454.1 1837.3 1457.66 Q1835.49 1461.2 1835.49 1468.33 Q1835.49 1475.44 1837.3 1479.01 Q1839.12 1482.55 1842.74 1482.55 Q1846.37 1482.55 1848.18 1479.01 Q1850 1475.44 1850 1468.33 Q1850 1461.2 1848.18 1457.66 Q1846.37 1454.1 1842.74 1454.1 M1842.74 1450.39 Q1848.55 1450.39 1851.6 1455 Q1854.68 1459.58 1854.68 1468.33 Q1854.68 1477.06 1851.6 1481.67 Q1848.55 1486.25 1842.74 1486.25 Q1836.93 1486.25 1833.85 1481.67 Q1830.79 1477.06 1830.79 1468.33 Q1830.79 1459.58 1833.85 1455 Q1836.93 1450.39 1842.74 1450.39 Z" fill="#000000" fill-rule="nonzero" fill-opacity="1" /><path clip-path="url(#clip940)" d="M1872.9 1454.1 Q1869.29 1454.1 1867.46 1457.66 Q1865.65 1461.2 1865.65 1468.33 Q1865.65 1475.44 1867.46 1479.01 Q1869.29 1482.55 1872.9 1482.55 Q1876.53 1482.55 1878.34 1479.01 Q1880.17 1475.44 1880.17 1468.33 Q1880.17 1461.2 1878.34 1457.66 Q1876.53 1454.1 1872.9 1454.1 M1872.9 1450.39 Q1878.71 1450.39 1881.76 1455 Q1884.84 1459.58 1884.84 1468.33 Q1884.84 1477.06 1881.76 1481.67 Q1878.71 1486.25 1872.9 1486.25 Q1867.09 1486.25 1864.01 1481.67 Q1860.95 1477.06 1860.95 1468.33 Q1860.95 1459.58 1864.01 1455 Q1867.09 1450.39 1872.9 1450.39 Z" fill="#000000" fill-rule="nonzero" fill-opacity="1" /><path clip-path="url(#clip940)" d="M2245.24 1481.64 L2261.56 1481.64 L2261.56 1485.58 L2239.62 1485.58 L2239.62 1481.64 Q2242.28 1478.89 2246.86 1474.26 Q2251.47 1469.61 2252.65 1468.27 Q2254.9 1465.74 2255.78 1464.01 Q2256.68 1462.25 2256.68 1460.56 Q2256.68 1457.8 2254.73 1456.07 Q2252.81 1454.33 2249.71 1454.33 Q2247.51 1454.33 2245.06 1455.09 Q2242.63 1455.86 2239.85 1457.41 L2239.85 1452.69 Q2242.67 1451.55 2245.13 1450.97 Q2247.58 1450.39 2249.62 1450.39 Q2254.99 1450.39 2258.18 1453.08 Q2261.38 1455.77 2261.38 1460.26 Q2261.38 1462.39 2260.57 1464.31 Q2259.78 1466.2 2257.67 1468.8 Q2257.09 1469.47 2253.99 1472.69 Q2250.89 1475.88 2245.24 1481.64 Z" fill="#000000" fill-rule="nonzero" fill-opacity="1" /><path clip-path="url(#clip940)" d="M2281.38 1454.1 Q2277.77 1454.1 2275.94 1457.66 Q2274.13 1461.2 2274.13 1468.33 Q2274.13 1475.44 2275.94 1479.01 Q2277.77 1482.55 2281.38 1482.55 Q2285.01 1482.55 2286.82 1479.01 Q2288.65 1475.44 2288.65 1468.33 Q2288.65 1461.2 2286.82 1457.66 Q2285.01 1454.1 2281.38 1454.1 M2281.38 1450.39 Q2287.19 1450.39 2290.24 1455 Q2293.32 1459.58 2293.32 1468.33 Q2293.32 1477.06 2290.24 1481.67 Q2287.19 1486.25 2281.38 1486.25 Q2275.57 1486.25 2272.49 1481.67 Q2269.43 1477.06 2269.43 1468.33 Q2269.43 1459.58 2272.49 1455 Q2275.57 1450.39 2281.38 1450.39 Z" fill="#000000" fill-rule="nonzero" fill-opacity="1" /><path clip-path="url(#clip940)" d="M2311.54 1454.1 Q2307.93 1454.1 2306.1 1457.66 Q2304.29 1461.2 2304.29 1468.33 Q2304.29 1475.44 2306.1 1479.01 Q2307.93 1482.55 2311.54 1482.55 Q2315.17 1482.55 2316.98 1479.01 Q2318.81 1475.44 2318.81 1468.33 Q2318.81 1461.2 2316.98 1457.66 Q2315.17 1454.1 2311.54 1454.1 M2311.54 1450.39 Q2317.35 1450.39 2320.4 1455 Q2323.48 1459.58 2323.48 1468.33 Q2323.48 1477.06 2320.4 1481.67 Q2317.35 1486.25 2311.54 1486.25 Q2305.73 1486.25 2302.65 1481.67 Q2299.59 1477.06 2299.59 1468.33 Q2299.59 1459.58 2302.65 1455 Q2305.73 1450.39 2311.54 1450.39 Z" fill="#000000" fill-rule="nonzero" fill-opacity="1" /><path clip-path="url(#clip940)" d="M2341.7 1454.1 Q2338.09 1454.1 2336.26 1457.66 Q2334.46 1461.2 2334.46 1468.33 Q2334.46 1475.44 2336.26 1479.01 Q2338.09 1482.55 2341.7 1482.55 Q2345.34 1482.55 2347.14 1479.01 Q2348.97 1475.44 2348.97 1468.33 Q2348.97 1461.2 2347.14 1457.66 Q2345.34 1454.1 2341.7 1454.1 M2341.7 1450.39 Q2347.51 1450.39 2350.57 1455 Q2353.65 1459.58 2353.65 1468.33 Q2353.65 1477.06 2350.57 1481.67 Q2347.51 1486.25 2341.7 1486.25 Q2335.89 1486.25 2332.81 1481.67 Q2329.76 1477.06 2329.76 1468.33 Q2329.76 1459.58 2332.81 1455 Q2335.89 1450.39 2341.7 1450.39 Z" fill="#000000" fill-rule="nonzero" fill-opacity="1" /><path clip-path="url(#clip940)" d="M1343.25 1520.52 L1351.9 1520.52 L1372.97 1560.28 L1372.97 1520.52 L1379.21 1520.52 L1379.21 1568.04 L1370.56 1568.04 L1349.48 1528.29 L1349.48 1568.04 L1343.25 1568.04 L1343.25 1520.52 Z" fill="#000000" fill-rule="nonzero" fill-opacity="1" /><polyline clip-path="url(#clip942)" style="stroke:#000000; stroke-linecap:round; stroke-linejoin:round; stroke-width:2; stroke-opacity:0.1; fill:none" points="369.703,1387.71 2352.76,1387.71 "/>
<polyline clip-path="url(#clip942)" style="stroke:#000000; stroke-linecap:round; stroke-linejoin:round; stroke-width:2; stroke-opacity:0.1; fill:none" points="369.703,1160.38 2352.76,1160.38 "/>
<polyline clip-path="url(#clip942)" style="stroke:#000000; stroke-linecap:round; stroke-linejoin:round; stroke-width:2; stroke-opacity:0.1; fill:none" points="369.703,933.061 2352.76,933.061 "/>
<polyline clip-path="url(#clip942)" style="stroke:#000000; stroke-linecap:round; stroke-linejoin:round; stroke-width:2; stroke-opacity:0.1; fill:none" points="369.703,705.738 2352.76,705.738 "/>
<polyline clip-path="url(#clip942)" style="stroke:#000000; stroke-linecap:round; stroke-linejoin:round; stroke-width:2; stroke-opacity:0.1; fill:none" points="369.703,478.416 2352.76,478.416 "/>
<polyline clip-path="url(#clip942)" style="stroke:#000000; stroke-linecap:round; stroke-linejoin:round; stroke-width:2; stroke-opacity:0.1; fill:none" points="369.703,251.094 2352.76,251.094 "/>
<polyline clip-path="url(#clip940)" style="stroke:#000000; stroke-linecap:round; stroke-linejoin:round; stroke-width:4; stroke-opacity:1; fill:none" points="369.703,1423.18 369.703,123.472 "/>
<polyline clip-path="url(#clip940)" style="stroke:#000000; stroke-linecap:round; stroke-linejoin:round; stroke-width:4; stroke-opacity:1; fill:none" points="369.703,1387.71 388.601,1387.71 "/>
<polyline clip-path="url(#clip940)" style="stroke:#000000; stroke-linecap:round; stroke-linejoin:round; stroke-width:4; stroke-opacity:1; fill:none" points="369.703,1160.38 388.601,1160.38 "/>
<polyline clip-path="url(#clip940)" style="stroke:#000000; stroke-linecap:round; stroke-linejoin:round; stroke-width:4; stroke-opacity:1; fill:none" points="369.703,933.061 388.601,933.061 "/>
<polyline clip-path="url(#clip940)" style="stroke:#000000; stroke-linecap:round; stroke-linejoin:round; stroke-width:4; stroke-opacity:1; fill:none" points="369.703,705.738 388.601,705.738 "/>
<polyline clip-path="url(#clip940)" style="stroke:#000000; stroke-linecap:round; stroke-linejoin:round; stroke-width:4; stroke-opacity:1; fill:none" points="369.703,478.416 388.601,478.416 "/>
<polyline clip-path="url(#clip940)" style="stroke:#000000; stroke-linecap:round; stroke-linejoin:round; stroke-width:4; stroke-opacity:1; fill:none" points="369.703,251.094 388.601,251.094 "/>
<path clip-path="url(#clip940)" d="M321.759 1373.5 Q318.148 1373.5 316.319 1377.07 Q314.514 1380.61 314.514 1387.74 Q314.514 1394.85 316.319 1398.41 Q318.148 1401.95 321.759 1401.95 Q325.393 1401.95 327.199 1398.41 Q329.028 1394.85 329.028 1387.74 Q329.028 1380.61 327.199 1377.07 Q325.393 1373.5 321.759 1373.5 M321.759 1369.8 Q327.569 1369.8 330.625 1374.41 Q333.703 1378.99 333.703 1387.74 Q333.703 1396.47 330.625 1401.07 Q327.569 1405.66 321.759 1405.66 Q315.949 1405.66 312.87 1401.07 Q309.815 1396.47 309.815 1387.74 Q309.815 1378.99 312.87 1374.41 Q315.949 1369.8 321.759 1369.8 Z" fill="#000000" fill-rule="nonzero" fill-opacity="1" /><path clip-path="url(#clip940)" d="M117.878 1149.55 L136.235 1149.55 L136.235 1153.49 L122.161 1153.49 L122.161 1161.96 Q123.179 1161.61 124.198 1161.45 Q125.216 1161.26 126.235 1161.26 Q132.022 1161.26 135.402 1164.43 Q138.781 1167.61 138.781 1173.02 Q138.781 1178.6 135.309 1181.7 Q131.837 1184.78 125.517 1184.78 Q123.341 1184.78 121.073 1184.41 Q118.828 1184.04 116.42 1183.3 L116.42 1178.6 Q118.503 1179.74 120.726 1180.29 Q122.948 1180.85 125.425 1180.85 Q129.429 1180.85 131.767 1178.74 Q134.105 1176.63 134.105 1173.02 Q134.105 1169.41 131.767 1167.31 Q129.429 1165.2 125.425 1165.2 Q123.55 1165.2 121.675 1165.62 Q119.823 1166.03 117.878 1166.91 L117.878 1149.55 Z" fill="#000000" fill-rule="nonzero" fill-opacity="1" /><path clip-path="url(#clip940)" d="M147.994 1178.23 L152.878 1178.23 L152.878 1184.11 L147.994 1184.11 L147.994 1178.23 Z" fill="#000000" fill-rule="nonzero" fill-opacity="1" /><path clip-path="url(#clip940)" d="M173.063 1152.63 Q169.452 1152.63 167.624 1156.19 Q165.818 1159.74 165.818 1166.87 Q165.818 1173.97 167.624 1177.54 Q169.452 1181.08 173.063 1181.08 Q176.698 1181.08 178.503 1177.54 Q180.332 1173.97 180.332 1166.87 Q180.332 1159.74 178.503 1156.19 Q176.698 1152.63 173.063 1152.63 M173.063 1148.93 Q178.874 1148.93 181.929 1153.53 Q185.008 1158.12 185.008 1166.87 Q185.008 1175.59 181.929 1180.2 Q178.874 1184.78 173.063 1184.78 Q167.253 1184.78 164.175 1180.2 Q161.119 1175.59 161.119 1166.87 Q161.119 1158.12 164.175 1153.53 Q167.253 1148.93 173.063 1148.93 Z" fill="#000000" fill-rule="nonzero" fill-opacity="1" /><path clip-path="url(#clip940)" d="M203.225 1152.63 Q199.614 1152.63 197.785 1156.19 Q195.98 1159.74 195.98 1166.87 Q195.98 1173.97 197.785 1177.54 Q199.614 1181.08 203.225 1181.08 Q206.859 1181.08 208.665 1177.54 Q210.494 1173.97 210.494 1166.87 Q210.494 1159.74 208.665 1156.19 Q206.859 1152.63 203.225 1152.63 M203.225 1148.93 Q209.035 1148.93 212.091 1153.53 Q215.17 1158.12 215.17 1166.87 Q215.17 1175.59 212.091 1180.2 Q209.035 1184.78 203.225 1184.78 Q197.415 1184.78 194.336 1180.2 Q191.281 1175.59 191.281 1166.87 Q191.281 1158.12 194.336 1153.53 Q197.415 1148.93 203.225 1148.93 Z" fill="#000000" fill-rule="nonzero" fill-opacity="1" /><path clip-path="url(#clip940)" d="M251.558 1158.65 L240.98 1169.27 L251.558 1179.85 L248.804 1182.65 L238.179 1172.03 L227.554 1182.65 L224.822 1179.85 L235.378 1169.27 L224.822 1158.65 L227.554 1155.85 L238.179 1166.47 L248.804 1155.85 L251.558 1158.65 Z" fill="#000000" fill-rule="nonzero" fill-opacity="1" /><path clip-path="url(#clip940)" d="M263.919 1180.18 L271.558 1180.18 L271.558 1153.81 L263.248 1155.48 L263.248 1151.22 L271.512 1149.55 L276.188 1149.55 L276.188 1180.18 L283.827 1180.18 L283.827 1184.11 L263.919 1184.11 L263.919 1180.18 Z" fill="#000000" fill-rule="nonzero" fill-opacity="1" /><path clip-path="url(#clip940)" d="M303.271 1152.63 Q299.66 1152.63 297.831 1156.19 Q296.026 1159.74 296.026 1166.87 Q296.026 1173.97 297.831 1177.54 Q299.66 1181.08 303.271 1181.08 Q306.905 1181.08 308.711 1177.54 Q310.539 1173.97 310.539 1166.87 Q310.539 1159.74 308.711 1156.19 Q306.905 1152.63 303.271 1152.63 M303.271 1148.93 Q309.081 1148.93 312.137 1153.53 Q315.215 1158.12 315.215 1166.87 Q315.215 1175.59 312.137 1180.2 Q309.081 1184.78 303.271 1184.78 Q297.461 1184.78 294.382 1180.2 Q291.327 1175.59 291.327 1166.87 Q291.327 1158.12 294.382 1153.53 Q297.461 1148.93 303.271 1148.93 Z" fill="#000000" fill-rule="nonzero" fill-opacity="1" /><path clip-path="url(#clip940)" d="M327.911 1141.56 Q330.638 1142.14 332.161 1143.99 Q333.703 1145.83 333.703 1148.54 Q333.703 1152.69 330.845 1154.97 Q327.986 1157.25 322.72 1157.25 Q320.952 1157.25 319.071 1156.89 Q317.209 1156.55 315.215 1155.85 L315.215 1152.19 Q316.795 1153.11 318.676 1153.58 Q320.557 1154.05 322.607 1154.05 Q326.18 1154.05 328.042 1152.64 Q329.923 1151.23 329.923 1148.54 Q329.923 1146.05 328.174 1144.66 Q326.444 1143.25 323.34 1143.25 L320.068 1143.25 L320.068 1140.13 L323.491 1140.13 Q326.293 1140.13 327.779 1139.02 Q329.265 1137.89 329.265 1135.79 Q329.265 1133.62 327.723 1132.48 Q326.199 1131.31 323.34 1131.31 Q321.779 1131.31 319.993 1131.65 Q318.206 1131.99 316.062 1132.7 L316.062 1129.32 Q318.225 1128.71 320.105 1128.41 Q322.005 1128.11 323.679 1128.11 Q328.005 1128.11 330.525 1130.09 Q333.045 1132.04 333.045 1135.39 Q333.045 1137.72 331.71 1139.34 Q330.374 1140.94 327.911 1141.56 Z" fill="#000000" fill-rule="nonzero" fill-opacity="1" /><path clip-path="url(#clip940)" d="M116.668 952.853 L124.306 952.853 L124.306 926.488 L115.996 928.154 L115.996 923.895 L124.26 922.228 L128.936 922.228 L128.936 952.853 L136.575 952.853 L136.575 956.788 L116.668 956.788 L116.668 952.853 Z" fill="#000000" fill-rule="nonzero" fill-opacity="1" /><path clip-path="url(#clip940)" d="M146.019 950.909 L150.903 950.909 L150.903 956.788 L146.019 956.788 L146.019 950.909 Z" fill="#000000" fill-rule="nonzero" fill-opacity="1" /><path clip-path="url(#clip940)" d="M171.089 925.307 Q167.477 925.307 165.649 928.872 Q163.843 932.413 163.843 939.543 Q163.843 946.649 165.649 950.214 Q167.477 953.756 171.089 953.756 Q174.723 953.756 176.528 950.214 Q178.357 946.649 178.357 939.543 Q178.357 932.413 176.528 928.872 Q174.723 925.307 171.089 925.307 M171.089 921.603 Q176.899 921.603 179.954 926.21 Q183.033 930.793 183.033 939.543 Q183.033 948.27 179.954 952.876 Q176.899 957.46 171.089 957.46 Q165.278 957.46 162.2 952.876 Q159.144 948.27 159.144 939.543 Q159.144 930.793 162.2 926.21 Q165.278 921.603 171.089 921.603 Z" fill="#000000" fill-rule="nonzero" fill-opacity="1" /><path clip-path="url(#clip940)" d="M201.25 925.307 Q197.639 925.307 195.811 928.872 Q194.005 932.413 194.005 939.543 Q194.005 946.649 195.811 950.214 Q197.639 953.756 201.25 953.756 Q204.885 953.756 206.69 950.214 Q208.519 946.649 208.519 939.543 Q208.519 932.413 206.69 928.872 Q204.885 925.307 201.25 925.307 M201.25 921.603 Q207.061 921.603 210.116 926.21 Q213.195 930.793 213.195 939.543 Q213.195 948.27 210.116 952.876 Q207.061 957.46 201.25 957.46 Q195.44 957.46 192.362 952.876 Q189.306 948.27 189.306 939.543 Q189.306 930.793 192.362 926.21 Q195.44 921.603 201.25 921.603 Z" fill="#000000" fill-rule="nonzero" fill-opacity="1" /><path clip-path="url(#clip940)" d="M249.584 931.325 L239.005 941.95 L249.584 952.529 L246.829 955.33 L236.204 944.705 L225.579 955.33 L222.848 952.529 L233.403 941.95 L222.848 931.325 L225.579 928.525 L236.204 939.149 L246.829 928.525 L249.584 931.325 Z" fill="#000000" fill-rule="nonzero" fill-opacity="1" /><path clip-path="url(#clip940)" d="M261.945 952.853 L269.583 952.853 L269.583 926.488 L261.273 928.154 L261.273 923.895 L269.537 922.228 L274.213 922.228 L274.213 952.853 L281.852 952.853 L281.852 956.788 L261.945 956.788 L261.945 952.853 Z" fill="#000000" fill-rule="nonzero" fill-opacity="1" /><path clip-path="url(#clip940)" d="M301.296 925.307 Q297.685 925.307 295.856 928.872 Q294.051 932.413 294.051 939.543 Q294.051 946.649 295.856 950.214 Q297.685 953.756 301.296 953.756 Q304.93 953.756 306.736 950.214 Q308.565 946.649 308.565 939.543 Q308.565 932.413 306.736 928.872 Q304.93 925.307 301.296 925.307 M301.296 921.603 Q307.106 921.603 310.162 926.21 Q313.241 930.793 313.241 939.543 Q313.241 948.27 310.162 952.876 Q307.106 957.46 301.296 957.46 Q295.486 957.46 292.407 952.876 Q289.352 948.27 289.352 939.543 Q289.352 930.793 292.407 926.21 Q295.486 921.603 301.296 921.603 Z" fill="#000000" fill-rule="nonzero" fill-opacity="1" /><path clip-path="url(#clip940)" d="M325.917 904.608 L316.325 919.598 L325.917 919.598 L325.917 904.608 M324.92 901.298 L329.697 901.298 L329.697 919.598 L333.703 919.598 L333.703 922.758 L329.697 922.758 L329.697 929.378 L325.917 929.378 L325.917 922.758 L313.241 922.758 L313.241 919.09 L324.92 901.298 Z" fill="#000000" fill-rule="nonzero" fill-opacity="1" /><path clip-path="url(#clip940)" d="M116.668 725.531 L124.306 725.531 L124.306 699.165 L115.996 700.832 L115.996 696.573 L124.26 694.906 L128.936 694.906 L128.936 725.531 L136.575 725.531 L136.575 729.466 L116.668 729.466 L116.668 725.531 Z" fill="#000000" fill-rule="nonzero" fill-opacity="1" /><path clip-path="url(#clip940)" d="M146.019 723.586 L150.903 723.586 L150.903 729.466 L146.019 729.466 L146.019 723.586 Z" fill="#000000" fill-rule="nonzero" fill-opacity="1" /><path clip-path="url(#clip940)" d="M161.135 694.906 L179.491 694.906 L179.491 698.841 L165.417 698.841 L165.417 707.313 Q166.436 706.966 167.454 706.804 Q168.473 706.619 169.491 706.619 Q175.278 706.619 178.658 709.79 Q182.038 712.962 182.038 718.378 Q182.038 723.957 178.565 727.059 Q175.093 730.137 168.774 730.137 Q166.598 730.137 164.329 729.767 Q162.084 729.397 159.677 728.656 L159.677 723.957 Q161.76 725.091 163.982 725.647 Q166.204 726.202 168.681 726.202 Q172.686 726.202 175.024 724.096 Q177.362 721.989 177.362 718.378 Q177.362 714.767 175.024 712.661 Q172.686 710.554 168.681 710.554 Q166.806 710.554 164.931 710.971 Q163.079 711.387 161.135 712.267 L161.135 694.906 Z" fill="#000000" fill-rule="nonzero" fill-opacity="1" /><path clip-path="url(#clip940)" d="M201.25 697.985 Q197.639 697.985 195.811 701.55 Q194.005 705.091 194.005 712.221 Q194.005 719.327 195.811 722.892 Q197.639 726.434 201.25 726.434 Q204.885 726.434 206.69 722.892 Q208.519 719.327 208.519 712.221 Q208.519 705.091 206.69 701.55 Q204.885 697.985 201.25 697.985 M201.25 694.281 Q207.061 694.281 210.116 698.888 Q213.195 703.471 213.195 712.221 Q213.195 720.948 210.116 725.554 Q207.061 730.137 201.25 730.137 Q195.44 730.137 192.362 725.554 Q189.306 720.948 189.306 712.221 Q189.306 703.471 192.362 698.888 Q195.44 694.281 201.25 694.281 Z" fill="#000000" fill-rule="nonzero" fill-opacity="1" /><path clip-path="url(#clip940)" d="M249.584 704.003 L239.005 714.628 L249.584 725.207 L246.829 728.008 L236.204 717.383 L225.579 728.008 L222.848 725.207 L233.403 714.628 L222.848 704.003 L225.579 701.202 L236.204 711.827 L246.829 701.202 L249.584 704.003 Z" fill="#000000" fill-rule="nonzero" fill-opacity="1" /><path clip-path="url(#clip940)" d="M261.945 725.531 L269.583 725.531 L269.583 699.165 L261.273 700.832 L261.273 696.573 L269.537 694.906 L274.213 694.906 L274.213 725.531 L281.852 725.531 L281.852 729.466 L261.945 729.466 L261.945 725.531 Z" fill="#000000" fill-rule="nonzero" fill-opacity="1" /><path clip-path="url(#clip940)" d="M301.296 697.985 Q297.685 697.985 295.856 701.55 Q294.051 705.091 294.051 712.221 Q294.051 719.327 295.856 722.892 Q297.685 726.434 301.296 726.434 Q304.93 726.434 306.736 722.892 Q308.565 719.327 308.565 712.221 Q308.565 705.091 306.736 701.55 Q304.93 697.985 301.296 697.985 M301.296 694.281 Q307.106 694.281 310.162 698.888 Q313.241 703.471 313.241 712.221 Q313.241 720.948 310.162 725.554 Q307.106 730.137 301.296 730.137 Q295.486 730.137 292.407 725.554 Q289.352 720.948 289.352 712.221 Q289.352 703.471 292.407 698.888 Q295.486 694.281 301.296 694.281 Z" fill="#000000" fill-rule="nonzero" fill-opacity="1" /><path clip-path="url(#clip940)" d="M325.917 677.286 L316.325 692.276 L325.917 692.276 L325.917 677.286 M324.92 673.976 L329.697 673.976 L329.697 692.276 L333.703 692.276 L333.703 695.435 L329.697 695.435 L329.697 702.056 L325.917 702.056 L325.917 695.435 L313.241 695.435 L313.241 691.768 L324.92 673.976 Z" fill="#000000" fill-rule="nonzero" fill-opacity="1" /><path clip-path="url(#clip940)" d="M119.885 498.209 L136.204 498.209 L136.204 502.144 L114.26 502.144 L114.26 498.209 Q116.922 495.454 121.505 490.824 Q126.112 486.172 127.292 484.829 Q129.538 482.306 130.417 480.57 Q131.32 478.811 131.32 477.121 Q131.32 474.366 129.376 472.63 Q127.455 470.894 124.353 470.894 Q122.154 470.894 119.7 471.658 Q117.269 472.422 114.492 473.973 L114.492 469.251 Q117.316 468.116 119.769 467.538 Q122.223 466.959 124.26 466.959 Q129.63 466.959 132.825 469.644 Q136.019 472.329 136.019 476.82 Q136.019 478.95 135.209 480.871 Q134.422 482.769 132.316 485.362 Q131.737 486.033 128.635 489.25 Q125.533 492.445 119.885 498.209 Z" fill="#000000" fill-rule="nonzero" fill-opacity="1" /><path clip-path="url(#clip940)" d="M146.019 496.264 L150.903 496.264 L150.903 502.144 L146.019 502.144 L146.019 496.264 Z" fill="#000000" fill-rule="nonzero" fill-opacity="1" /><path clip-path="url(#clip940)" d="M171.089 470.663 Q167.477 470.663 165.649 474.227 Q163.843 477.769 163.843 484.899 Q163.843 492.005 165.649 495.57 Q167.477 499.111 171.089 499.111 Q174.723 499.111 176.528 495.57 Q178.357 492.005 178.357 484.899 Q178.357 477.769 176.528 474.227 Q174.723 470.663 171.089 470.663 M171.089 466.959 Q176.899 466.959 179.954 471.565 Q183.033 476.149 183.033 484.899 Q183.033 493.625 179.954 498.232 Q176.899 502.815 171.089 502.815 Q165.278 502.815 162.2 498.232 Q159.144 493.625 159.144 484.899 Q159.144 476.149 162.2 471.565 Q165.278 466.959 171.089 466.959 Z" fill="#000000" fill-rule="nonzero" fill-opacity="1" /><path clip-path="url(#clip940)" d="M201.25 470.663 Q197.639 470.663 195.811 474.227 Q194.005 477.769 194.005 484.899 Q194.005 492.005 195.811 495.57 Q197.639 499.111 201.25 499.111 Q204.885 499.111 206.69 495.57 Q208.519 492.005 208.519 484.899 Q208.519 477.769 206.69 474.227 Q204.885 470.663 201.25 470.663 M201.25 466.959 Q207.061 466.959 210.116 471.565 Q213.195 476.149 213.195 484.899 Q213.195 493.625 210.116 498.232 Q207.061 502.815 201.25 502.815 Q195.44 502.815 192.362 498.232 Q189.306 493.625 189.306 484.899 Q189.306 476.149 192.362 471.565 Q195.44 466.959 201.25 466.959 Z" fill="#000000" fill-rule="nonzero" fill-opacity="1" /><path clip-path="url(#clip940)" d="M249.584 476.681 L239.005 487.306 L249.584 497.885 L246.829 500.686 L236.204 490.061 L225.579 500.686 L222.848 497.885 L233.403 487.306 L222.848 476.681 L225.579 473.88 L236.204 484.505 L246.829 473.88 L249.584 476.681 Z" fill="#000000" fill-rule="nonzero" fill-opacity="1" /><path clip-path="url(#clip940)" d="M261.945 498.209 L269.583 498.209 L269.583 471.843 L261.273 473.51 L261.273 469.251 L269.537 467.584 L274.213 467.584 L274.213 498.209 L281.852 498.209 L281.852 502.144 L261.945 502.144 L261.945 498.209 Z" fill="#000000" fill-rule="nonzero" fill-opacity="1" /><path clip-path="url(#clip940)" d="M301.296 470.663 Q297.685 470.663 295.856 474.227 Q294.051 477.769 294.051 484.899 Q294.051 492.005 295.856 495.57 Q297.685 499.111 301.296 499.111 Q304.93 499.111 306.736 495.57 Q308.565 492.005 308.565 484.899 Q308.565 477.769 306.736 474.227 Q304.93 470.663 301.296 470.663 M301.296 466.959 Q307.106 466.959 310.162 471.565 Q313.241 476.149 313.241 484.899 Q313.241 493.625 310.162 498.232 Q307.106 502.815 301.296 502.815 Q295.486 502.815 292.407 498.232 Q289.352 493.625 289.352 484.899 Q289.352 476.149 292.407 471.565 Q295.486 466.959 301.296 466.959 Z" fill="#000000" fill-rule="nonzero" fill-opacity="1" /><path clip-path="url(#clip940)" d="M325.917 449.964 L316.325 464.953 L325.917 464.953 L325.917 449.964 M324.92 446.653 L329.697 446.653 L329.697 464.953 L333.703 464.953 L333.703 468.113 L329.697 468.113 L329.697 474.733 L325.917 474.733 L325.917 468.113 L313.241 468.113 L313.241 464.446 L324.92 446.653 Z" fill="#000000" fill-rule="nonzero" fill-opacity="1" /><path clip-path="url(#clip940)" d="M119.885 270.886 L136.204 270.886 L136.204 274.822 L114.26 274.822 L114.26 270.886 Q116.922 268.132 121.505 263.502 Q126.112 258.85 127.292 257.507 Q129.538 254.984 130.417 253.248 Q131.32 251.488 131.32 249.799 Q131.32 247.044 129.376 245.308 Q127.455 243.572 124.353 243.572 Q122.154 243.572 119.7 244.336 Q117.269 245.1 114.492 246.651 L114.492 241.928 Q117.316 240.794 119.769 240.215 Q122.223 239.637 124.26 239.637 Q129.63 239.637 132.825 242.322 Q136.019 245.007 136.019 249.498 Q136.019 251.627 135.209 253.549 Q134.422 255.447 132.316 258.039 Q131.737 258.711 128.635 261.928 Q125.533 265.123 119.885 270.886 Z" fill="#000000" fill-rule="nonzero" fill-opacity="1" /><path clip-path="url(#clip940)" d="M146.019 268.942 L150.903 268.942 L150.903 274.822 L146.019 274.822 L146.019 268.942 Z" fill="#000000" fill-rule="nonzero" fill-opacity="1" /><path clip-path="url(#clip940)" d="M161.135 240.262 L179.491 240.262 L179.491 244.197 L165.417 244.197 L165.417 252.669 Q166.436 252.322 167.454 252.16 Q168.473 251.975 169.491 251.975 Q175.278 251.975 178.658 255.146 Q182.038 258.317 182.038 263.734 Q182.038 269.312 178.565 272.414 Q175.093 275.493 168.774 275.493 Q166.598 275.493 164.329 275.123 Q162.084 274.752 159.677 274.011 L159.677 269.312 Q161.76 270.447 163.982 271.002 Q166.204 271.558 168.681 271.558 Q172.686 271.558 175.024 269.451 Q177.362 267.345 177.362 263.734 Q177.362 260.123 175.024 258.016 Q172.686 255.91 168.681 255.91 Q166.806 255.91 164.931 256.326 Q163.079 256.743 161.135 257.623 L161.135 240.262 Z" fill="#000000" fill-rule="nonzero" fill-opacity="1" /><path clip-path="url(#clip940)" d="M201.25 243.34 Q197.639 243.34 195.811 246.905 Q194.005 250.447 194.005 257.576 Q194.005 264.683 195.811 268.248 Q197.639 271.789 201.25 271.789 Q204.885 271.789 206.69 268.248 Q208.519 264.683 208.519 257.576 Q208.519 250.447 206.69 246.905 Q204.885 243.34 201.25 243.34 M201.25 239.637 Q207.061 239.637 210.116 244.243 Q213.195 248.826 213.195 257.576 Q213.195 266.303 210.116 270.91 Q207.061 275.493 201.25 275.493 Q195.44 275.493 192.362 270.91 Q189.306 266.303 189.306 257.576 Q189.306 248.826 192.362 244.243 Q195.44 239.637 201.25 239.637 Z" fill="#000000" fill-rule="nonzero" fill-opacity="1" /><path clip-path="url(#clip940)" d="M249.584 249.359 L239.005 259.984 L249.584 270.562 L246.829 273.363 L236.204 262.738 L225.579 273.363 L222.848 270.562 L233.403 259.984 L222.848 249.359 L225.579 246.558 L236.204 257.183 L246.829 246.558 L249.584 249.359 Z" fill="#000000" fill-rule="nonzero" fill-opacity="1" /><path clip-path="url(#clip940)" d="M261.945 270.886 L269.583 270.886 L269.583 244.521 L261.273 246.188 L261.273 241.928 L269.537 240.262 L274.213 240.262 L274.213 270.886 L281.852 270.886 L281.852 274.822 L261.945 274.822 L261.945 270.886 Z" fill="#000000" fill-rule="nonzero" fill-opacity="1" /><path clip-path="url(#clip940)" d="M301.296 243.34 Q297.685 243.34 295.856 246.905 Q294.051 250.447 294.051 257.576 Q294.051 264.683 295.856 268.248 Q297.685 271.789 301.296 271.789 Q304.93 271.789 306.736 268.248 Q308.565 264.683 308.565 257.576 Q308.565 250.447 306.736 246.905 Q304.93 243.34 301.296 243.34 M301.296 239.637 Q307.106 239.637 310.162 244.243 Q313.241 248.826 313.241 257.576 Q313.241 266.303 310.162 270.91 Q307.106 275.493 301.296 275.493 Q295.486 275.493 292.407 270.91 Q289.352 266.303 289.352 257.576 Q289.352 248.826 292.407 244.243 Q295.486 239.637 301.296 239.637 Z" fill="#000000" fill-rule="nonzero" fill-opacity="1" /><path clip-path="url(#clip940)" d="M325.917 222.641 L316.325 237.631 L325.917 237.631 L325.917 222.641 M324.92 219.331 L329.697 219.331 L329.697 237.631 L333.703 237.631 L333.703 240.791 L329.697 240.791 L329.697 247.411 L325.917 247.411 L325.917 240.791 L313.241 240.791 L313.241 237.123 L324.92 219.331 Z" fill="#000000" fill-rule="nonzero" fill-opacity="1" /><path clip-path="url(#clip940)" d="M16.4842 923.811 L16.4842 883.612 L21.895 883.612 L21.895 900.481 L64.0042 900.481 L64.0042 906.942 L21.895 906.942 L21.895 923.811 L16.4842 923.811 Z" fill="#000000" fill-rule="nonzero" fill-opacity="1" /><path clip-path="url(#clip940)" d="M28.3562 879.665 L28.3562 873.809 L64.0042 873.809 L64.0042 879.665 L28.3562 879.665 M14.479 879.665 L14.479 873.809 L21.895 873.809 L21.895 879.665 L14.479 879.665 Z" fill="#000000" fill-rule="nonzero" fill-opacity="1" /><path clip-path="url(#clip940)" d="M35.1993 833.8 Q31.2526 831.604 29.3747 828.548 Q27.4968 825.493 27.4968 821.355 Q27.4968 815.785 31.4117 812.762 Q35.2948 809.738 42.4881 809.738 L64.0042 809.738 L64.0042 815.626 L42.679 815.626 Q37.5546 815.626 35.072 817.44 Q32.5894 819.255 32.5894 822.978 Q32.5894 827.53 35.6131 830.172 Q38.6368 832.814 43.8567 832.814 L64.0042 832.814 L64.0042 838.702 L42.679 838.702 Q37.5228 838.702 35.072 840.516 Q32.5894 842.33 32.5894 846.118 Q32.5894 850.606 35.6449 853.247 Q38.6686 855.889 43.8567 855.889 L64.0042 855.889 L64.0042 861.777 L28.3562 861.777 L28.3562 855.889 L33.8944 855.889 Q30.616 853.884 29.0564 851.083 Q27.4968 848.282 27.4968 844.431 Q27.4968 840.548 29.4702 837.842 Q31.4436 835.105 35.1993 833.8 Z" fill="#000000" fill-rule="nonzero" fill-opacity="1" /><path clip-path="url(#clip940)" d="M44.7161 767.565 L47.5806 767.565 L47.5806 794.492 Q53.6281 794.11 56.8109 790.864 Q59.9619 787.585 59.9619 781.761 Q59.9619 778.387 59.1344 775.236 Q58.3069 772.053 56.6518 768.934 L62.1899 768.934 Q63.5267 772.085 64.227 775.395 Q64.9272 778.705 64.9272 782.111 Q64.9272 790.641 59.9619 795.638 Q54.9967 800.603 46.5303 800.603 Q37.7774 800.603 32.6531 795.892 Q27.4968 791.15 27.4968 783.129 Q27.4968 775.936 32.1438 771.766 Q36.7589 767.565 44.7161 767.565 M42.9973 773.421 Q38.1912 773.485 35.3266 776.127 Q32.4621 778.737 32.4621 783.066 Q32.4621 787.967 35.2312 790.927 Q38.0002 793.855 43.0292 794.301 L42.9973 773.421 Z" fill="#000000" fill-rule="nonzero" fill-opacity="1" /><path clip-path="url(#clip940)" d="M14.5426 723.164 Q21.8632 727.429 29.0246 729.498 Q36.186 731.567 43.5384 731.567 Q50.8908 731.567 58.1159 729.498 Q65.3091 727.397 72.5979 723.164 L72.5979 728.257 Q65.1182 733.031 57.8931 735.418 Q50.668 737.774 43.5384 737.774 Q36.4406 737.774 29.2474 735.418 Q22.0542 733.063 14.5426 728.257 L14.5426 723.164 Z" fill="#000000" fill-rule="nonzero" fill-opacity="1" /><path clip-path="url(#clip940)" d="M42.4881 682.169 L64.0042 682.169 L64.0042 688.026 L42.679 688.026 Q37.6183 688.026 35.1038 689.999 Q32.5894 691.972 32.5894 695.919 Q32.5894 700.661 35.6131 703.399 Q38.6368 706.136 43.8567 706.136 L64.0042 706.136 L64.0042 712.024 L28.3562 712.024 L28.3562 706.136 L33.8944 706.136 Q30.6797 704.035 29.0883 701.203 Q27.4968 698.338 27.4968 694.614 Q27.4968 688.471 31.3163 685.32 Q35.1038 682.169 42.4881 682.169 Z" fill="#000000" fill-rule="nonzero" fill-opacity="1" /><path clip-path="url(#clip940)" d="M29.4065 647.762 L34.9447 647.762 Q33.6716 650.245 33.035 652.919 Q32.3984 655.592 32.3984 658.457 Q32.3984 662.817 33.7352 665.013 Q35.072 667.178 37.7456 667.178 Q39.7826 667.178 40.9603 665.618 Q42.1061 664.059 43.1565 659.348 L43.6021 657.343 Q44.9389 651.104 47.3897 648.494 Q49.8086 645.853 54.1691 645.853 Q59.1344 645.853 62.0308 649.799 Q64.9272 653.714 64.9272 660.589 Q64.9272 663.454 64.3543 666.573 Q63.8132 669.66 62.6992 673.098 L56.6518 673.098 Q58.3387 669.851 59.198 666.7 Q60.0256 663.549 60.0256 660.462 Q60.0256 656.324 58.6251 654.096 Q57.1929 651.868 54.6147 651.868 Q52.2276 651.868 50.9545 653.492 Q49.6813 655.083 48.5037 660.526 L48.0262 662.563 Q46.8804 668.005 44.5251 670.424 Q42.138 672.843 38.0002 672.843 Q32.9713 672.843 30.2341 669.279 Q27.4968 665.714 27.4968 659.157 Q27.4968 655.911 27.9743 653.046 Q28.4517 650.181 29.4065 647.762 Z" fill="#000000" fill-rule="nonzero" fill-opacity="1" /><path clip-path="url(#clip940)" d="M14.5426 637.45 L14.5426 632.357 Q22.0542 627.583 29.2474 625.228 Q36.4406 622.841 43.5384 622.841 Q50.668 622.841 57.8931 625.228 Q65.1182 627.583 72.5979 632.357 L72.5979 637.45 Q65.3091 633.217 58.1159 631.148 Q50.8908 629.047 43.5384 629.047 Q36.186 629.047 29.0246 631.148 Q21.8632 633.217 14.5426 637.45 Z" fill="#000000" fill-rule="nonzero" fill-opacity="1" /><path clip-path="url(#clip940)" d="M768.684 12.096 L819.847 12.096 L819.847 18.9825 L798.377 18.9825 L798.377 72.576 L790.153 72.576 L790.153 18.9825 L768.684 18.9825 L768.684 12.096 Z" fill="#000000" fill-rule="nonzero" fill-opacity="1" /><path clip-path="url(#clip940)" d="M824.87 27.2059 L832.323 27.2059 L832.323 72.576 L824.87 72.576 L824.87 27.2059 M824.87 9.54393 L832.323 9.54393 L832.323 18.9825 L824.87 18.9825 L824.87 9.54393 Z" fill="#000000" fill-rule="nonzero" fill-opacity="1" /><path clip-path="url(#clip940)" d="M883.243 35.9153 Q886.038 30.8922 889.927 28.5022 Q893.816 26.1121 899.082 26.1121 Q906.171 26.1121 910.02 31.0947 Q913.868 36.0368 913.868 45.1919 L913.868 72.576 L906.374 72.576 L906.374 45.4349 Q906.374 38.913 904.065 35.7533 Q901.756 32.5936 897.016 32.5936 Q891.224 32.5936 887.861 36.4419 Q884.499 40.2903 884.499 46.9338 L884.499 72.576 L877.005 72.576 L877.005 45.4349 Q877.005 38.8725 874.696 35.7533 Q872.387 32.5936 867.566 32.5936 Q861.854 32.5936 858.492 36.4824 Q855.13 40.3308 855.13 46.9338 L855.13 72.576 L847.636 72.576 L847.636 27.2059 L855.13 27.2059 L855.13 34.2544 Q857.682 30.082 861.247 28.0971 Q864.812 26.1121 869.713 26.1121 Q874.655 26.1121 878.099 28.6237 Q881.582 31.1352 883.243 35.9153 Z" fill="#000000" fill-rule="nonzero" fill-opacity="1" /><path clip-path="url(#clip940)" d="M967.543 48.0275 L967.543 51.6733 L933.272 51.6733 Q933.758 59.3701 937.89 63.421 Q942.062 67.4314 949.476 67.4314 Q953.769 67.4314 957.78 66.3781 Q961.831 65.3249 965.801 63.2184 L965.801 70.267 Q961.79 71.9684 957.577 72.8596 Q953.364 73.7508 949.03 73.7508 Q938.173 73.7508 931.814 67.4314 Q925.494 61.1119 925.494 50.3365 Q925.494 39.1965 931.489 32.6746 Q937.525 26.1121 947.734 26.1121 Q956.889 26.1121 962.195 32.0264 Q967.543 37.9003 967.543 48.0275 M960.089 45.84 Q960.008 39.7232 956.646 36.0774 Q953.324 32.4315 947.815 32.4315 Q941.576 32.4315 937.809 35.9558 Q934.082 39.4801 933.515 45.8805 L960.089 45.84 Z" fill="#000000" fill-rule="nonzero" fill-opacity="1" /><path clip-path="url(#clip940)" d="M1013.52 14.324 L1013.52 27.2059 L1028.87 27.2059 L1028.87 32.9987 L1013.52 32.9987 L1013.52 57.6282 Q1013.52 63.1779 1015.02 64.7578 Q1016.56 66.3376 1021.22 66.3376 L1028.87 66.3376 L1028.87 72.576 L1021.22 72.576 Q1012.59 72.576 1009.31 69.3758 Q1006.03 66.1351 1006.03 57.6282 L1006.03 32.9987 L1000.56 32.9987 L1000.56 27.2059 L1006.03 27.2059 L1006.03 14.324 L1013.52 14.324 Z" fill="#000000" fill-rule="nonzero" fill-opacity="1" /><path clip-path="url(#clip940)" d="M1056.26 32.4315 Q1050.26 32.4315 1046.78 37.1306 Q1043.29 41.7891 1043.29 49.9314 Q1043.29 58.0738 1046.74 62.7728 Q1050.22 67.4314 1056.26 67.4314 Q1062.21 67.4314 1065.7 62.7323 Q1069.18 58.0333 1069.18 49.9314 Q1069.18 41.8701 1065.7 37.1711 Q1062.21 32.4315 1056.26 32.4315 M1056.26 26.1121 Q1065.98 26.1121 1071.53 32.4315 Q1077.08 38.7509 1077.08 49.9314 Q1077.08 61.0714 1071.53 67.4314 Q1065.98 73.7508 1056.26 73.7508 Q1046.49 73.7508 1040.94 67.4314 Q1035.44 61.0714 1035.44 49.9314 Q1035.44 38.7509 1040.94 32.4315 Q1046.49 26.1121 1056.26 26.1121 Z" fill="#000000" fill-rule="nonzero" fill-opacity="1" /><path clip-path="url(#clip940)" d="M1148.46 28.9478 L1148.46 35.9153 Q1145.3 34.1734 1142.1 33.3227 Q1138.94 32.4315 1135.7 32.4315 Q1128.44 32.4315 1124.43 37.0496 Q1120.42 41.6271 1120.42 49.9314 Q1120.42 58.2358 1124.43 62.8538 Q1128.44 67.4314 1135.7 67.4314 Q1138.94 67.4314 1142.1 66.5807 Q1145.3 65.6895 1148.46 63.9476 L1148.46 70.8341 Q1145.34 72.2924 1141.97 73.0216 Q1138.65 73.7508 1134.89 73.7508 Q1124.64 73.7508 1118.6 67.3098 Q1112.56 60.8689 1112.56 49.9314 Q1112.56 38.832 1118.64 32.472 Q1124.76 26.1121 1135.37 26.1121 Q1138.81 26.1121 1142.1 26.8413 Q1145.38 27.5299 1148.46 28.9478 Z" fill="#000000" fill-rule="nonzero" fill-opacity="1" /><path clip-path="url(#clip940)" d="M1179 32.4315 Q1173 32.4315 1169.52 37.1306 Q1166.04 41.7891 1166.04 49.9314 Q1166.04 58.0738 1169.48 62.7728 Q1172.96 67.4314 1179 67.4314 Q1184.95 67.4314 1188.44 62.7323 Q1191.92 58.0333 1191.92 49.9314 Q1191.92 41.8701 1188.44 37.1711 Q1184.95 32.4315 1179 32.4315 M1179 26.1121 Q1188.72 26.1121 1194.27 32.4315 Q1199.82 38.7509 1199.82 49.9314 Q1199.82 61.0714 1194.27 67.4314 Q1188.72 73.7508 1179 73.7508 Q1169.24 73.7508 1163.69 67.4314 Q1158.18 61.0714 1158.18 49.9314 Q1158.18 38.7509 1163.69 32.4315 Q1169.24 26.1121 1179 26.1121 Z" fill="#000000" fill-rule="nonzero" fill-opacity="1" /><path clip-path="url(#clip940)" d="M1247.5 35.9153 Q1250.3 30.8922 1254.18 28.5022 Q1258.07 26.1121 1263.34 26.1121 Q1270.43 26.1121 1274.28 31.0947 Q1278.13 36.0368 1278.13 45.1919 L1278.13 72.576 L1270.63 72.576 L1270.63 45.4349 Q1270.63 38.913 1268.32 35.7533 Q1266.01 32.5936 1261.27 32.5936 Q1255.48 32.5936 1252.12 36.4419 Q1248.76 40.2903 1248.76 46.9338 L1248.76 72.576 L1241.26 72.576 L1241.26 45.4349 Q1241.26 38.8725 1238.95 35.7533 Q1236.64 32.5936 1231.82 32.5936 Q1226.11 32.5936 1222.75 36.4824 Q1219.39 40.3308 1219.39 46.9338 L1219.39 72.576 L1211.89 72.576 L1211.89 27.2059 L1219.39 27.2059 L1219.39 34.2544 Q1221.94 30.082 1225.5 28.0971 Q1229.07 26.1121 1233.97 26.1121 Q1238.91 26.1121 1242.36 28.6237 Q1245.84 31.1352 1247.5 35.9153 Z" fill="#000000" fill-rule="nonzero" fill-opacity="1" /><path clip-path="url(#clip940)" d="M1300.2 65.7705 L1300.2 89.8329 L1292.71 89.8329 L1292.71 27.2059 L1300.2 27.2059 L1300.2 34.0924 Q1302.55 30.0415 1306.12 28.0971 Q1309.72 26.1121 1314.71 26.1121 Q1322.97 26.1121 1328.11 32.6746 Q1333.3 39.2371 1333.3 49.9314 Q1333.3 60.6258 1328.11 67.1883 Q1322.97 73.7508 1314.71 73.7508 Q1309.72 73.7508 1306.12 71.8063 Q1302.55 69.8214 1300.2 65.7705 M1325.56 49.9314 Q1325.56 41.7081 1322.16 37.0496 Q1318.8 32.3505 1312.88 32.3505 Q1306.97 32.3505 1303.57 37.0496 Q1300.2 41.7081 1300.2 49.9314 Q1300.2 58.1548 1303.57 62.8538 Q1306.97 67.5124 1312.88 67.5124 Q1318.8 67.5124 1322.16 62.8538 Q1325.56 58.1548 1325.56 49.9314 Z" fill="#000000" fill-rule="nonzero" fill-opacity="1" /><path clip-path="url(#clip940)" d="M1344.88 54.671 L1344.88 27.2059 L1352.34 27.2059 L1352.34 54.3874 Q1352.34 60.8284 1354.85 64.0691 Q1357.36 67.2693 1362.38 67.2693 Q1368.42 67.2693 1371.9 63.421 Q1375.43 59.5726 1375.43 52.9291 L1375.43 27.2059 L1382.88 27.2059 L1382.88 72.576 L1375.43 72.576 L1375.43 65.6084 Q1372.71 69.7404 1369.11 71.7658 Q1365.54 73.7508 1360.8 73.7508 Q1352.99 73.7508 1348.94 68.8897 Q1344.88 64.0286 1344.88 54.671 M1363.64 26.1121 L1363.64 26.1121 Z" fill="#000000" fill-rule="nonzero" fill-opacity="1" /><path clip-path="url(#clip940)" d="M1405.61 14.324 L1405.61 27.2059 L1420.96 27.2059 L1420.96 32.9987 L1405.61 32.9987 L1405.61 57.6282 Q1405.61 63.1779 1407.11 64.7578 Q1408.65 66.3376 1413.3 66.3376 L1420.96 66.3376 L1420.96 72.576 L1413.3 72.576 Q1404.68 72.576 1401.39 69.3758 Q1398.11 66.1351 1398.11 57.6282 L1398.11 32.9987 L1392.64 32.9987 L1392.64 27.2059 L1398.11 27.2059 L1398.11 14.324 L1405.61 14.324 Z" fill="#000000" fill-rule="nonzero" fill-opacity="1" /><path clip-path="url(#clip940)" d="M1469.57 48.0275 L1469.57 51.6733 L1435.3 51.6733 Q1435.79 59.3701 1439.92 63.421 Q1444.09 67.4314 1451.5 67.4314 Q1455.8 67.4314 1459.81 66.3781 Q1463.86 65.3249 1467.83 63.2184 L1467.83 70.267 Q1463.82 71.9684 1459.61 72.8596 Q1455.39 73.7508 1451.06 73.7508 Q1440.2 73.7508 1433.84 67.4314 Q1427.52 61.1119 1427.52 50.3365 Q1427.52 39.1965 1433.52 32.6746 Q1439.55 26.1121 1449.76 26.1121 Q1458.92 26.1121 1464.22 32.0264 Q1469.57 37.9003 1469.57 48.0275 M1462.12 45.84 Q1462.04 39.7232 1458.67 36.0774 Q1455.35 32.4315 1449.84 32.4315 Q1443.6 32.4315 1439.84 35.9558 Q1436.11 39.4801 1435.54 45.8805 L1462.12 45.84 Z" fill="#000000" fill-rule="nonzero" fill-opacity="1" /><path clip-path="url(#clip940)" d="M1528.71 20.1573 L1517.61 50.2555 L1539.85 50.2555 L1528.71 20.1573 M1524.1 12.096 L1533.37 12.096 L1556.42 72.576 L1547.92 72.576 L1542.41 57.061 L1515.14 57.061 L1509.63 72.576 L1501.01 72.576 L1524.1 12.096 Z" fill="#000000" fill-rule="nonzero" fill-opacity="1" /><path clip-path="url(#clip940)" d="M1596.12 28.9478 L1596.12 35.9153 Q1592.96 34.1734 1589.76 33.3227 Q1586.6 32.4315 1583.36 32.4315 Q1576.11 32.4315 1572.1 37.0496 Q1568.09 41.6271 1568.09 49.9314 Q1568.09 58.2358 1572.1 62.8538 Q1576.11 67.4314 1583.36 67.4314 Q1586.6 67.4314 1589.76 66.5807 Q1592.96 65.6895 1596.12 63.9476 L1596.12 70.8341 Q1593 72.2924 1589.64 73.0216 Q1586.32 73.7508 1582.55 73.7508 Q1572.3 73.7508 1566.27 67.3098 Q1560.23 60.8689 1560.23 49.9314 Q1560.23 38.832 1566.31 32.472 Q1572.42 26.1121 1583.04 26.1121 Q1586.48 26.1121 1589.76 26.8413 Q1593.04 27.5299 1596.12 28.9478 Z" fill="#000000" fill-rule="nonzero" fill-opacity="1" /><path clip-path="url(#clip940)" d="M1641.73 28.9478 L1641.73 35.9153 Q1638.57 34.1734 1635.37 33.3227 Q1632.21 32.4315 1628.97 32.4315 Q1621.72 32.4315 1617.71 37.0496 Q1613.7 41.6271 1613.7 49.9314 Q1613.7 58.2358 1617.71 62.8538 Q1621.72 67.4314 1628.97 67.4314 Q1632.21 67.4314 1635.37 66.5807 Q1638.57 65.6895 1641.73 63.9476 L1641.73 70.8341 Q1638.62 72.2924 1635.25 73.0216 Q1631.93 73.7508 1628.16 73.7508 Q1617.92 73.7508 1611.88 67.3098 Q1605.84 60.8689 1605.84 49.9314 Q1605.84 38.832 1611.92 32.472 Q1618.04 26.1121 1628.65 26.1121 Q1632.09 26.1121 1635.37 26.8413 Q1638.66 27.5299 1641.73 28.9478 Z" fill="#000000" fill-rule="nonzero" fill-opacity="1" /><path clip-path="url(#clip940)" d="M1693.51 48.0275 L1693.51 51.6733 L1659.23 51.6733 Q1659.72 59.3701 1663.85 63.421 Q1668.02 67.4314 1675.44 67.4314 Q1679.73 67.4314 1683.74 66.3781 Q1687.79 65.3249 1691.76 63.2184 L1691.76 70.267 Q1687.75 71.9684 1683.54 72.8596 Q1679.33 73.7508 1674.99 73.7508 Q1664.14 73.7508 1657.78 67.4314 Q1651.46 61.1119 1651.46 50.3365 Q1651.46 39.1965 1657.45 32.6746 Q1663.49 26.1121 1673.7 26.1121 Q1682.85 26.1121 1688.16 32.0264 Q1693.51 37.9003 1693.51 48.0275 M1686.05 45.84 Q1685.97 39.7232 1682.61 36.0774 Q1679.29 32.4315 1673.78 32.4315 Q1667.54 32.4315 1663.77 35.9558 Q1660.04 39.4801 1659.48 45.8805 L1686.05 45.84 Z" fill="#000000" fill-rule="nonzero" fill-opacity="1" /><path clip-path="url(#clip940)" d="M1734.66 28.5427 L1734.66 35.5912 Q1731.5 33.9709 1728.1 33.1607 Q1724.7 32.3505 1721.05 32.3505 Q1715.5 32.3505 1712.71 34.0519 Q1709.95 35.7533 1709.95 39.156 Q1709.95 41.7486 1711.94 43.2475 Q1713.92 44.7058 1719.92 46.0426 L1722.47 46.6097 Q1730.41 48.3111 1733.73 51.4303 Q1737.09 54.509 1737.09 60.0587 Q1737.09 66.3781 1732.07 70.0644 Q1727.09 73.7508 1718.34 73.7508 Q1714.69 73.7508 1710.72 73.0216 Q1706.79 72.3329 1702.42 70.9151 L1702.42 63.2184 Q1706.55 65.3654 1710.56 66.4591 Q1714.57 67.5124 1718.5 67.5124 Q1723.77 67.5124 1726.6 65.73 Q1729.44 63.9071 1729.44 60.6258 Q1729.44 57.5877 1727.37 55.9673 Q1725.35 54.3469 1718.42 52.8481 L1715.83 52.2405 Q1708.9 50.7821 1705.82 47.7845 Q1702.74 44.7463 1702.74 39.4801 Q1702.74 33.0797 1707.28 29.5959 Q1711.82 26.1121 1720.16 26.1121 Q1724.29 26.1121 1727.94 26.7198 Q1731.58 27.3274 1734.66 28.5427 Z" fill="#000000" fill-rule="nonzero" fill-opacity="1" /><path clip-path="url(#clip940)" d="M1777.89 28.5427 L1777.89 35.5912 Q1774.73 33.9709 1771.32 33.1607 Q1767.92 32.3505 1764.27 32.3505 Q1758.72 32.3505 1755.93 34.0519 Q1753.17 35.7533 1753.17 39.156 Q1753.17 41.7486 1755.16 43.2475 Q1757.14 44.7058 1763.14 46.0426 L1765.69 46.6097 Q1773.63 48.3111 1776.95 51.4303 Q1780.32 54.509 1780.32 60.0587 Q1780.32 66.3781 1775.29 70.0644 Q1770.31 73.7508 1761.56 73.7508 Q1757.91 73.7508 1753.94 73.0216 Q1750.02 72.3329 1745.64 70.9151 L1745.64 63.2184 Q1749.77 65.3654 1753.78 66.4591 Q1757.79 67.5124 1761.72 67.5124 Q1766.99 67.5124 1769.82 65.73 Q1772.66 63.9071 1772.66 60.6258 Q1772.66 57.5877 1770.59 55.9673 Q1768.57 54.3469 1761.64 52.8481 L1759.05 52.2405 Q1752.12 50.7821 1749.04 47.7845 Q1745.96 44.7463 1745.96 39.4801 Q1745.96 33.0797 1750.5 29.5959 Q1755.04 26.1121 1763.38 26.1121 Q1767.52 26.1121 1771.16 26.7198 Q1774.81 27.3274 1777.89 28.5427 Z" fill="#000000" fill-rule="nonzero" fill-opacity="1" /><path clip-path="url(#clip940)" d="M1818.88 12.096 L1827.06 12.096 L1827.06 65.6895 L1856.51 65.6895 L1856.51 72.576 L1818.88 72.576 L1818.88 12.096 Z" fill="#000000" fill-rule="nonzero" fill-opacity="1" /><path clip-path="url(#clip940)" d="M1864.78 27.2059 L1872.23 27.2059 L1872.23 72.576 L1864.78 72.576 L1864.78 27.2059 M1864.78 9.54393 L1872.23 9.54393 L1872.23 18.9825 L1864.78 18.9825 L1864.78 9.54393 Z" fill="#000000" fill-rule="nonzero" fill-opacity="1" /><path clip-path="url(#clip940)" d="M1916.75 28.5427 L1916.75 35.5912 Q1913.59 33.9709 1910.19 33.1607 Q1906.79 32.3505 1903.14 32.3505 Q1897.59 32.3505 1894.79 34.0519 Q1892.04 35.7533 1892.04 39.156 Q1892.04 41.7486 1894.02 43.2475 Q1896.01 44.7058 1902.01 46.0426 L1904.56 46.6097 Q1912.5 48.3111 1915.82 51.4303 Q1919.18 54.509 1919.18 60.0587 Q1919.18 66.3781 1914.16 70.0644 Q1909.18 73.7508 1900.43 73.7508 Q1896.78 73.7508 1892.81 73.0216 Q1888.88 72.3329 1884.51 70.9151 L1884.51 63.2184 Q1888.64 65.3654 1892.65 66.4591 Q1896.66 67.5124 1900.59 67.5124 Q1905.85 67.5124 1908.69 65.73 Q1911.52 63.9071 1911.52 60.6258 Q1911.52 57.5877 1909.46 55.9673 Q1907.43 54.3469 1900.51 52.8481 L1897.91 52.2405 Q1890.99 50.7821 1887.91 47.7845 Q1884.83 44.7463 1884.83 39.4801 Q1884.83 33.0797 1889.37 29.5959 Q1893.9 26.1121 1902.25 26.1121 Q1906.38 26.1121 1910.03 26.7198 Q1913.67 27.3274 1916.75 28.5427 Z" fill="#000000" fill-rule="nonzero" fill-opacity="1" /><path clip-path="url(#clip940)" d="M1938.42 14.324 L1938.42 27.2059 L1953.78 27.2059 L1953.78 32.9987 L1938.42 32.9987 L1938.42 57.6282 Q1938.42 63.1779 1939.92 64.7578 Q1941.46 66.3376 1946.12 66.3376 L1953.78 66.3376 L1953.78 72.576 L1946.12 72.576 Q1937.49 72.576 1934.21 69.3758 Q1930.93 66.1351 1930.93 57.6282 L1930.93 32.9987 L1925.46 32.9987 L1925.46 27.2059 L1930.93 27.2059 L1930.93 14.324 L1938.42 14.324 Z" fill="#000000" fill-rule="nonzero" fill-opacity="1" /><polyline clip-path="url(#clip942)" style="stroke:#009af9; stroke-linecap:round; stroke-linejoin:round; stroke-width:4; stroke-opacity:1; fill:none" points="425.828,1386.4 434.25,1386.37 471.685,1386.36 518.479,1386.27 565.272,1386.34 612.066,1386.32 658.859,1386.34 705.653,1386.26 752.446,1386.31 799.24,1386.29 892.827,1386.32 1360.76,1386.23 2296.63,1385.77 "/>
<polyline clip-path="url(#clip942)" style="stroke:#e26f46; stroke-linecap:round; stroke-linejoin:round; stroke-width:4; stroke-opacity:1; fill:none" points="425.828,1386.27 434.25,1385.72 471.685,1385.76 518.479,1385.31 565.272,1384.47 612.066,1385.17 658.859,1384.82 705.653,1384.11 752.446,1384.32 799.24,1384.45 892.827,1383.87 1360.76,1383.33 2296.63,1383.26 "/>
<polyline clip-path="url(#clip942)" style="stroke:#3da44d; stroke-linecap:round; stroke-linejoin:round; stroke-width:4; stroke-opacity:1; fill:none" points="425.828,1386.21 434.25,1383.78 471.685,1370.9 518.479,1355.64 565.272,1338.62 612.066,1323.85 658.859,1308.31 705.653,1292.03 752.446,1276.5 799.24,1260.14 892.827,1229.99 1360.76,1072.32 2296.63,765.941 "/>
<polyline clip-path="url(#clip942)" style="stroke:#c271d2; stroke-linecap:round; stroke-linejoin:round; stroke-width:4; stroke-opacity:1; fill:none" points="425.828,1386.26 434.25,1381.47 471.685,1356.59 518.479,1326.4 565.272,1295.7 612.066,1264.01 658.859,1233.45 705.653,1202.33 752.446,1168.16 799.24,1139.84 892.827,1079.02 1360.76,767.664 2296.63,160.256 "/>
<polyline clip-path="url(#clip942)" style="stroke:#ac8d18; stroke-linecap:round; stroke-linejoin:round; stroke-width:4; stroke-opacity:1; fill:none" points="425.828,1386.37 434.25,1380.85 471.685,1356.37 518.479,1325.83 565.272,1294.65 612.066,1263.38 658.859,1233.33 705.653,1202.59 752.446,1170.74 799.24,1141.55 892.827,1079.68 1360.76,772.687 2296.63,162.516 "/>
<circle clip-path="url(#clip942)" cx="425.828" cy="1386.4" r="14.4" fill="#00a9ad" fill-rule="evenodd" fill-opacity="1" stroke="#000000" stroke-opacity="1" stroke-width="3.2"/>
<circle clip-path="url(#clip942)" cx="434.25" cy="1386.37" r="14.4" fill="#00a9ad" fill-rule="evenodd" fill-opacity="1" stroke="#000000" stroke-opacity="1" stroke-width="3.2"/>
<circle clip-path="url(#clip942)" cx="471.685" cy="1386.36" r="14.4" fill="#00a9ad" fill-rule="evenodd" fill-opacity="1" stroke="#000000" stroke-opacity="1" stroke-width="3.2"/>
<circle clip-path="url(#clip942)" cx="518.479" cy="1386.27" r="14.4" fill="#00a9ad" fill-rule="evenodd" fill-opacity="1" stroke="#000000" stroke-opacity="1" stroke-width="3.2"/>
<circle clip-path="url(#clip942)" cx="565.272" cy="1386.34" r="14.4" fill="#00a9ad" fill-rule="evenodd" fill-opacity="1" stroke="#000000" stroke-opacity="1" stroke-width="3.2"/>
<circle clip-path="url(#clip942)" cx="612.066" cy="1386.32" r="14.4" fill="#00a9ad" fill-rule="evenodd" fill-opacity="1" stroke="#000000" stroke-opacity="1" stroke-width="3.2"/>
<circle clip-path="url(#clip942)" cx="658.859" cy="1386.34" r="14.4" fill="#00a9ad" fill-rule="evenodd" fill-opacity="1" stroke="#000000" stroke-opacity="1" stroke-width="3.2"/>
<circle clip-path="url(#clip942)" cx="705.653" cy="1386.26" r="14.4" fill="#00a9ad" fill-rule="evenodd" fill-opacity="1" stroke="#000000" stroke-opacity="1" stroke-width="3.2"/>
<circle clip-path="url(#clip942)" cx="752.446" cy="1386.31" r="14.4" fill="#00a9ad" fill-rule="evenodd" fill-opacity="1" stroke="#000000" stroke-opacity="1" stroke-width="3.2"/>
<circle clip-path="url(#clip942)" cx="799.24" cy="1386.29" r="14.4" fill="#00a9ad" fill-rule="evenodd" fill-opacity="1" stroke="#000000" stroke-opacity="1" stroke-width="3.2"/>
<circle clip-path="url(#clip942)" cx="892.827" cy="1386.32" r="14.4" fill="#00a9ad" fill-rule="evenodd" fill-opacity="1" stroke="#000000" stroke-opacity="1" stroke-width="3.2"/>
<circle clip-path="url(#clip942)" cx="1360.76" cy="1386.23" r="14.4" fill="#00a9ad" fill-rule="evenodd" fill-opacity="1" stroke="#000000" stroke-opacity="1" stroke-width="3.2"/>
<circle clip-path="url(#clip942)" cx="2296.63" cy="1385.77" r="14.4" fill="#00a9ad" fill-rule="evenodd" fill-opacity="1" stroke="#000000" stroke-opacity="1" stroke-width="3.2"/>
<circle clip-path="url(#clip942)" cx="425.828" cy="1386.27" r="14.4" fill="#ed5d92" fill-rule="evenodd" fill-opacity="1" stroke="#000000" stroke-opacity="1" stroke-width="3.2"/>
<circle clip-path="url(#clip942)" cx="434.25" cy="1385.72" r="14.4" fill="#ed5d92" fill-rule="evenodd" fill-opacity="1" stroke="#000000" stroke-opacity="1" stroke-width="3.2"/>
<circle clip-path="url(#clip942)" cx="471.685" cy="1385.76" r="14.4" fill="#ed5d92" fill-rule="evenodd" fill-opacity="1" stroke="#000000" stroke-opacity="1" stroke-width="3.2"/>
<circle clip-path="url(#clip942)" cx="518.479" cy="1385.31" r="14.4" fill="#ed5d92" fill-rule="evenodd" fill-opacity="1" stroke="#000000" stroke-opacity="1" stroke-width="3.2"/>
<circle clip-path="url(#clip942)" cx="565.272" cy="1384.47" r="14.4" fill="#ed5d92" fill-rule="evenodd" fill-opacity="1" stroke="#000000" stroke-opacity="1" stroke-width="3.2"/>
<circle clip-path="url(#clip942)" cx="612.066" cy="1385.17" r="14.4" fill="#ed5d92" fill-rule="evenodd" fill-opacity="1" stroke="#000000" stroke-opacity="1" stroke-width="3.2"/>
<circle clip-path="url(#clip942)" cx="658.859" cy="1384.82" r="14.4" fill="#ed5d92" fill-rule="evenodd" fill-opacity="1" stroke="#000000" stroke-opacity="1" stroke-width="3.2"/>
<circle clip-path="url(#clip942)" cx="705.653" cy="1384.11" r="14.4" fill="#ed5d92" fill-rule="evenodd" fill-opacity="1" stroke="#000000" stroke-opacity="1" stroke-width="3.2"/>
<circle clip-path="url(#clip942)" cx="752.446" cy="1384.32" r="14.4" fill="#ed5d92" fill-rule="evenodd" fill-opacity="1" stroke="#000000" stroke-opacity="1" stroke-width="3.2"/>
<circle clip-path="url(#clip942)" cx="799.24" cy="1384.45" r="14.4" fill="#ed5d92" fill-rule="evenodd" fill-opacity="1" stroke="#000000" stroke-opacity="1" stroke-width="3.2"/>
<circle clip-path="url(#clip942)" cx="892.827" cy="1383.87" r="14.4" fill="#ed5d92" fill-rule="evenodd" fill-opacity="1" stroke="#000000" stroke-opacity="1" stroke-width="3.2"/>
<circle clip-path="url(#clip942)" cx="1360.76" cy="1383.33" r="14.4" fill="#ed5d92" fill-rule="evenodd" fill-opacity="1" stroke="#000000" stroke-opacity="1" stroke-width="3.2"/>
<circle clip-path="url(#clip942)" cx="2296.63" cy="1383.26" r="14.4" fill="#ed5d92" fill-rule="evenodd" fill-opacity="1" stroke="#000000" stroke-opacity="1" stroke-width="3.2"/>
<circle clip-path="url(#clip942)" cx="425.828" cy="1386.21" r="14.4" fill="#c68125" fill-rule="evenodd" fill-opacity="1" stroke="#000000" stroke-opacity="1" stroke-width="3.2"/>
<circle clip-path="url(#clip942)" cx="434.25" cy="1383.78" r="14.4" fill="#c68125" fill-rule="evenodd" fill-opacity="1" stroke="#000000" stroke-opacity="1" stroke-width="3.2"/>
<circle clip-path="url(#clip942)" cx="471.685" cy="1370.9" r="14.4" fill="#c68125" fill-rule="evenodd" fill-opacity="1" stroke="#000000" stroke-opacity="1" stroke-width="3.2"/>
<circle clip-path="url(#clip942)" cx="518.479" cy="1355.64" r="14.4" fill="#c68125" fill-rule="evenodd" fill-opacity="1" stroke="#000000" stroke-opacity="1" stroke-width="3.2"/>
<circle clip-path="url(#clip942)" cx="565.272" cy="1338.62" r="14.4" fill="#c68125" fill-rule="evenodd" fill-opacity="1" stroke="#000000" stroke-opacity="1" stroke-width="3.2"/>
<circle clip-path="url(#clip942)" cx="612.066" cy="1323.85" r="14.4" fill="#c68125" fill-rule="evenodd" fill-opacity="1" stroke="#000000" stroke-opacity="1" stroke-width="3.2"/>
<circle clip-path="url(#clip942)" cx="658.859" cy="1308.31" r="14.4" fill="#c68125" fill-rule="evenodd" fill-opacity="1" stroke="#000000" stroke-opacity="1" stroke-width="3.2"/>
<circle clip-path="url(#clip942)" cx="705.653" cy="1292.03" r="14.4" fill="#c68125" fill-rule="evenodd" fill-opacity="1" stroke="#000000" stroke-opacity="1" stroke-width="3.2"/>
<circle clip-path="url(#clip942)" cx="752.446" cy="1276.5" r="14.4" fill="#c68125" fill-rule="evenodd" fill-opacity="1" stroke="#000000" stroke-opacity="1" stroke-width="3.2"/>
<circle clip-path="url(#clip942)" cx="799.24" cy="1260.14" r="14.4" fill="#c68125" fill-rule="evenodd" fill-opacity="1" stroke="#000000" stroke-opacity="1" stroke-width="3.2"/>
<circle clip-path="url(#clip942)" cx="892.827" cy="1229.99" r="14.4" fill="#c68125" fill-rule="evenodd" fill-opacity="1" stroke="#000000" stroke-opacity="1" stroke-width="3.2"/>
<circle clip-path="url(#clip942)" cx="1360.76" cy="1072.32" r="14.4" fill="#c68125" fill-rule="evenodd" fill-opacity="1" stroke="#000000" stroke-opacity="1" stroke-width="3.2"/>
<circle clip-path="url(#clip942)" cx="2296.63" cy="765.941" r="14.4" fill="#c68125" fill-rule="evenodd" fill-opacity="1" stroke="#000000" stroke-opacity="1" stroke-width="3.2"/>
<circle clip-path="url(#clip942)" cx="425.828" cy="1386.26" r="14.4" fill="#00a98d" fill-rule="evenodd" fill-opacity="1" stroke="#000000" stroke-opacity="1" stroke-width="3.2"/>
<circle clip-path="url(#clip942)" cx="434.25" cy="1381.47" r="14.4" fill="#00a98d" fill-rule="evenodd" fill-opacity="1" stroke="#000000" stroke-opacity="1" stroke-width="3.2"/>
<circle clip-path="url(#clip942)" cx="471.685" cy="1356.59" r="14.4" fill="#00a98d" fill-rule="evenodd" fill-opacity="1" stroke="#000000" stroke-opacity="1" stroke-width="3.2"/>
<circle clip-path="url(#clip942)" cx="518.479" cy="1326.4" r="14.4" fill="#00a98d" fill-rule="evenodd" fill-opacity="1" stroke="#000000" stroke-opacity="1" stroke-width="3.2"/>
<circle clip-path="url(#clip942)" cx="565.272" cy="1295.7" r="14.4" fill="#00a98d" fill-rule="evenodd" fill-opacity="1" stroke="#000000" stroke-opacity="1" stroke-width="3.2"/>
<circle clip-path="url(#clip942)" cx="612.066" cy="1264.01" r="14.4" fill="#00a98d" fill-rule="evenodd" fill-opacity="1" stroke="#000000" stroke-opacity="1" stroke-width="3.2"/>
<circle clip-path="url(#clip942)" cx="658.859" cy="1233.45" r="14.4" fill="#00a98d" fill-rule="evenodd" fill-opacity="1" stroke="#000000" stroke-opacity="1" stroke-width="3.2"/>
<circle clip-path="url(#clip942)" cx="705.653" cy="1202.33" r="14.4" fill="#00a98d" fill-rule="evenodd" fill-opacity="1" stroke="#000000" stroke-opacity="1" stroke-width="3.2"/>
<circle clip-path="url(#clip942)" cx="752.446" cy="1168.16" r="14.4" fill="#00a98d" fill-rule="evenodd" fill-opacity="1" stroke="#000000" stroke-opacity="1" stroke-width="3.2"/>
<circle clip-path="url(#clip942)" cx="799.24" cy="1139.84" r="14.4" fill="#00a98d" fill-rule="evenodd" fill-opacity="1" stroke="#000000" stroke-opacity="1" stroke-width="3.2"/>
<circle clip-path="url(#clip942)" cx="892.827" cy="1079.02" r="14.4" fill="#00a98d" fill-rule="evenodd" fill-opacity="1" stroke="#000000" stroke-opacity="1" stroke-width="3.2"/>
<circle clip-path="url(#clip942)" cx="1360.76" cy="767.664" r="14.4" fill="#00a98d" fill-rule="evenodd" fill-opacity="1" stroke="#000000" stroke-opacity="1" stroke-width="3.2"/>
<circle clip-path="url(#clip942)" cx="2296.63" cy="160.256" r="14.4" fill="#00a98d" fill-rule="evenodd" fill-opacity="1" stroke="#000000" stroke-opacity="1" stroke-width="3.2"/>
<circle clip-path="url(#clip942)" cx="425.828" cy="1386.37" r="14.4" fill="#8e971d" fill-rule="evenodd" fill-opacity="1" stroke="#000000" stroke-opacity="1" stroke-width="3.2"/>
<circle clip-path="url(#clip942)" cx="434.25" cy="1380.85" r="14.4" fill="#8e971d" fill-rule="evenodd" fill-opacity="1" stroke="#000000" stroke-opacity="1" stroke-width="3.2"/>
<circle clip-path="url(#clip942)" cx="471.685" cy="1356.37" r="14.4" fill="#8e971d" fill-rule="evenodd" fill-opacity="1" stroke="#000000" stroke-opacity="1" stroke-width="3.2"/>
<circle clip-path="url(#clip942)" cx="518.479" cy="1325.83" r="14.4" fill="#8e971d" fill-rule="evenodd" fill-opacity="1" stroke="#000000" stroke-opacity="1" stroke-width="3.2"/>
<circle clip-path="url(#clip942)" cx="565.272" cy="1294.65" r="14.4" fill="#8e971d" fill-rule="evenodd" fill-opacity="1" stroke="#000000" stroke-opacity="1" stroke-width="3.2"/>
<circle clip-path="url(#clip942)" cx="612.066" cy="1263.38" r="14.4" fill="#8e971d" fill-rule="evenodd" fill-opacity="1" stroke="#000000" stroke-opacity="1" stroke-width="3.2"/>
<circle clip-path="url(#clip942)" cx="658.859" cy="1233.33" r="14.4" fill="#8e971d" fill-rule="evenodd" fill-opacity="1" stroke="#000000" stroke-opacity="1" stroke-width="3.2"/>
<circle clip-path="url(#clip942)" cx="705.653" cy="1202.59" r="14.4" fill="#8e971d" fill-rule="evenodd" fill-opacity="1" stroke="#000000" stroke-opacity="1" stroke-width="3.2"/>
<circle clip-path="url(#clip942)" cx="752.446" cy="1170.74" r="14.4" fill="#8e971d" fill-rule="evenodd" fill-opacity="1" stroke="#000000" stroke-opacity="1" stroke-width="3.2"/>
<circle clip-path="url(#clip942)" cx="799.24" cy="1141.55" r="14.4" fill="#8e971d" fill-rule="evenodd" fill-opacity="1" stroke="#000000" stroke-opacity="1" stroke-width="3.2"/>
<circle clip-path="url(#clip942)" cx="892.827" cy="1079.68" r="14.4" fill="#8e971d" fill-rule="evenodd" fill-opacity="1" stroke="#000000" stroke-opacity="1" stroke-width="3.2"/>
<circle clip-path="url(#clip942)" cx="1360.76" cy="772.687" r="14.4" fill="#8e971d" fill-rule="evenodd" fill-opacity="1" stroke="#000000" stroke-opacity="1" stroke-width="3.2"/>
<circle clip-path="url(#clip942)" cx="2296.63" cy="162.516" r="14.4" fill="#8e971d" fill-rule="evenodd" fill-opacity="1" stroke="#000000" stroke-opacity="1" stroke-width="3.2"/>
<path clip-path="url(#clip940)" d="M435.805 477.836 L866.748 477.836 L866.748 166.796 L435.805 166.796  Z" fill="#ffffff" fill-rule="evenodd" fill-opacity="1"/>
<polyline clip-path="url(#clip940)" style="stroke:#000000; stroke-linecap:round; stroke-linejoin:round; stroke-width:4; stroke-opacity:1; fill:none" points="435.805,477.836 866.748,477.836 866.748,166.796 435.805,166.796 435.805,477.836 "/>
<polyline clip-path="url(#clip940)" style="stroke:#009af9; stroke-linecap:round; stroke-linejoin:round; stroke-width:4; stroke-opacity:1; fill:none" points="457.839,218.636 590.043,218.636 "/>
<path clip-path="url(#clip940)" d="M628.581 199.897 L628.581 203.439 L624.507 203.439 Q622.215 203.439 621.313 204.365 Q620.433 205.291 620.433 207.698 L620.433 209.99 L627.447 209.99 L627.447 213.3 L620.433 213.3 L620.433 235.916 L616.151 235.916 L616.151 213.3 L612.077 213.3 L612.077 209.99 L616.151 209.99 L616.151 208.184 Q616.151 203.856 618.164 201.888 Q620.178 199.897 624.553 199.897 L628.581 199.897 Z" fill="#000000" fill-rule="nonzero" fill-opacity="1" /><path clip-path="url(#clip940)" d="M632.146 209.99 L636.405 209.99 L636.405 235.916 L632.146 235.916 L632.146 209.99 M632.146 199.897 L636.405 199.897 L636.405 205.291 L632.146 205.291 L632.146 199.897 Z" fill="#000000" fill-rule="nonzero" fill-opacity="1" /><path clip-path="url(#clip940)" d="M660.34 213.971 Q659.623 213.555 658.766 213.37 Q657.933 213.161 656.914 213.161 Q653.303 213.161 651.359 215.522 Q649.437 217.86 649.437 222.258 L649.437 235.916 L645.155 235.916 L645.155 209.99 L649.437 209.99 L649.437 214.018 Q650.78 211.657 652.933 210.522 Q655.086 209.365 658.164 209.365 Q658.604 209.365 659.136 209.434 Q659.669 209.481 660.317 209.596 L660.34 213.971 Z" fill="#000000" fill-rule="nonzero" fill-opacity="1" /><path clip-path="url(#clip940)" d="M681.335 210.754 L681.335 214.782 Q679.53 213.856 677.585 213.393 Q675.641 212.93 673.558 212.93 Q670.386 212.93 668.789 213.902 Q667.215 214.874 667.215 216.819 Q667.215 218.3 668.349 219.157 Q669.484 219.99 672.91 220.754 L674.368 221.078 Q678.905 222.05 680.803 223.832 Q682.724 225.592 682.724 228.763 Q682.724 232.374 679.854 234.481 Q677.007 236.587 672.007 236.587 Q669.923 236.587 667.655 236.17 Q665.41 235.777 662.91 234.967 L662.91 230.569 Q665.271 231.795 667.562 232.42 Q669.854 233.022 672.099 233.022 Q675.109 233.022 676.729 232.004 Q678.349 230.962 678.349 229.087 Q678.349 227.351 677.169 226.425 Q676.011 225.499 672.053 224.643 L670.572 224.295 Q666.613 223.462 664.854 221.749 Q663.095 220.013 663.095 217.004 Q663.095 213.346 665.687 211.356 Q668.28 209.365 673.048 209.365 Q675.41 209.365 677.493 209.712 Q679.576 210.059 681.335 210.754 Z" fill="#000000" fill-rule="nonzero" fill-opacity="1" /><path clip-path="url(#clip940)" d="M693.72 202.629 L693.72 209.99 L702.493 209.99 L702.493 213.3 L693.72 213.3 L693.72 227.374 Q693.72 230.545 694.576 231.448 Q695.456 232.351 698.118 232.351 L702.493 232.351 L702.493 235.916 L698.118 235.916 Q693.187 235.916 691.312 234.087 Q689.437 232.235 689.437 227.374 L689.437 213.3 L686.312 213.3 L686.312 209.99 L689.437 209.99 L689.437 202.629 L693.72 202.629 Z" fill="#000000" fill-rule="nonzero" fill-opacity="1" /><polyline clip-path="url(#clip940)" style="stroke:#e26f46; stroke-linecap:round; stroke-linejoin:round; stroke-width:4; stroke-opacity:1; fill:none" points="457.839,270.476 590.043,270.476 "/>
<path clip-path="url(#clip940)" d="M630.502 262.594 L630.502 266.622 Q628.697 265.696 626.752 265.233 Q624.808 264.77 622.725 264.77 Q619.553 264.77 617.956 265.742 Q616.382 266.714 616.382 268.659 Q616.382 270.14 617.516 270.997 Q618.651 271.83 622.076 272.594 L623.535 272.918 Q628.072 273.89 629.97 275.672 Q631.891 277.432 631.891 280.603 Q631.891 284.214 629.021 286.321 Q626.174 288.427 621.174 288.427 Q619.09 288.427 616.822 288.01 Q614.576 287.617 612.077 286.807 L612.077 282.409 Q614.438 283.635 616.729 284.26 Q619.021 284.862 621.266 284.862 Q624.276 284.862 625.896 283.844 Q627.516 282.802 627.516 280.927 Q627.516 279.191 626.336 278.265 Q625.178 277.339 621.22 276.483 L619.739 276.135 Q615.78 275.302 614.021 273.589 Q612.262 271.853 612.262 268.844 Q612.262 265.186 614.854 263.196 Q617.447 261.205 622.215 261.205 Q624.576 261.205 626.66 261.552 Q628.743 261.899 630.502 262.594 Z" fill="#000000" fill-rule="nonzero" fill-opacity="1" /><path clip-path="url(#clip940)" d="M660.849 273.728 L660.849 275.811 L641.266 275.811 Q641.544 280.209 643.905 282.524 Q646.289 284.816 650.525 284.816 Q652.979 284.816 655.271 284.214 Q657.586 283.612 659.854 282.409 L659.854 286.436 Q657.562 287.408 655.155 287.918 Q652.748 288.427 650.271 288.427 Q644.067 288.427 640.433 284.816 Q636.822 281.205 636.822 275.047 Q636.822 268.682 640.248 264.955 Q643.697 261.205 649.53 261.205 Q654.761 261.205 657.794 264.585 Q660.849 267.941 660.849 273.728 M656.59 272.478 Q656.544 268.983 654.623 266.899 Q652.724 264.816 649.576 264.816 Q646.012 264.816 643.859 266.83 Q641.729 268.844 641.405 272.501 L656.59 272.478 Z" fill="#000000" fill-rule="nonzero" fill-opacity="1" /><path clip-path="url(#clip940)" d="M686.497 262.825 L686.497 266.807 Q684.692 265.811 682.863 265.325 Q681.058 264.816 679.206 264.816 Q675.062 264.816 672.771 267.455 Q670.479 270.071 670.479 274.816 Q670.479 279.561 672.771 282.2 Q675.062 284.816 679.206 284.816 Q681.058 284.816 682.863 284.33 Q684.692 283.821 686.497 282.825 L686.497 286.76 Q684.715 287.594 682.794 288.01 Q680.896 288.427 678.743 288.427 Q672.886 288.427 669.437 284.746 Q665.988 281.066 665.988 274.816 Q665.988 268.473 669.46 264.839 Q672.956 261.205 679.021 261.205 Q680.988 261.205 682.863 261.622 Q684.738 262.015 686.497 262.825 Z" fill="#000000" fill-rule="nonzero" fill-opacity="1" /><path clip-path="url(#clip940)" d="M703.951 264.816 Q700.525 264.816 698.534 267.501 Q696.544 270.163 696.544 274.816 Q696.544 279.469 698.511 282.154 Q700.502 284.816 703.951 284.816 Q707.354 284.816 709.345 282.131 Q711.335 279.446 711.335 274.816 Q711.335 270.21 709.345 267.524 Q707.354 264.816 703.951 264.816 M703.951 261.205 Q709.507 261.205 712.678 264.816 Q715.849 268.427 715.849 274.816 Q715.849 281.182 712.678 284.816 Q709.507 288.427 703.951 288.427 Q698.372 288.427 695.201 284.816 Q692.053 281.182 692.053 274.816 Q692.053 268.427 695.201 264.816 Q698.372 261.205 703.951 261.205 Z" fill="#000000" fill-rule="nonzero" fill-opacity="1" /><path clip-path="url(#clip940)" d="M744.46 272.108 L744.46 287.756 L740.201 287.756 L740.201 272.247 Q740.201 268.566 738.766 266.737 Q737.33 264.909 734.46 264.909 Q731.011 264.909 729.02 267.108 Q727.03 269.307 727.03 273.103 L727.03 287.756 L722.747 287.756 L722.747 261.83 L727.03 261.83 L727.03 265.858 Q728.557 263.52 730.618 262.362 Q732.701 261.205 735.409 261.205 Q739.877 261.205 742.168 263.983 Q744.46 266.737 744.46 272.108 Z" fill="#000000" fill-rule="nonzero" fill-opacity="1" /><path clip-path="url(#clip940)" d="M770.015 265.765 L770.015 251.737 L774.275 251.737 L774.275 287.756 L770.015 287.756 L770.015 283.867 Q768.673 286.182 766.613 287.316 Q764.576 288.427 761.705 288.427 Q757.006 288.427 754.043 284.677 Q751.104 280.927 751.104 274.816 Q751.104 268.705 754.043 264.955 Q757.006 261.205 761.705 261.205 Q764.576 261.205 766.613 262.339 Q768.673 263.45 770.015 265.765 M755.502 274.816 Q755.502 279.515 757.423 282.2 Q759.367 284.862 762.747 284.862 Q766.127 284.862 768.071 282.2 Q770.015 279.515 770.015 274.816 Q770.015 270.117 768.071 267.455 Q766.127 264.77 762.747 264.77 Q759.367 264.77 757.423 267.455 Q755.502 270.117 755.502 274.816 Z" fill="#000000" fill-rule="nonzero" fill-opacity="1" /><polyline clip-path="url(#clip940)" style="stroke:#3da44d; stroke-linecap:round; stroke-linejoin:round; stroke-width:4; stroke-opacity:1; fill:none" points="457.839,322.316 590.043,322.316 "/>
<path clip-path="url(#clip940)" d="M632.424 318.647 Q634.021 315.776 636.243 314.411 Q638.465 313.045 641.474 313.045 Q645.525 313.045 647.724 315.892 Q649.924 318.716 649.924 323.948 L649.924 339.596 L645.641 339.596 L645.641 324.087 Q645.641 320.36 644.322 318.554 Q643.002 316.749 640.294 316.749 Q636.984 316.749 635.062 318.948 Q633.141 321.147 633.141 324.943 L633.141 339.596 L628.859 339.596 L628.859 324.087 Q628.859 320.337 627.539 318.554 Q626.22 316.749 623.465 316.749 Q620.201 316.749 618.28 318.971 Q616.359 321.17 616.359 324.943 L616.359 339.596 L612.077 339.596 L612.077 313.67 L616.359 313.67 L616.359 317.698 Q617.817 315.313 619.854 314.179 Q621.891 313.045 624.692 313.045 Q627.516 313.045 629.484 314.48 Q631.475 315.915 632.424 318.647 Z" fill="#000000" fill-rule="nonzero" fill-opacity="1" /><path clip-path="url(#clip940)" d="M658.419 313.67 L662.678 313.67 L662.678 339.596 L658.419 339.596 L658.419 313.67 M658.419 303.577 L662.678 303.577 L662.678 308.971 L658.419 308.971 L658.419 303.577 Z" fill="#000000" fill-rule="nonzero" fill-opacity="1" /><path clip-path="url(#clip940)" d="M688.65 317.605 L688.65 303.577 L692.909 303.577 L692.909 339.596 L688.65 339.596 L688.65 335.707 Q687.308 338.022 685.247 339.156 Q683.21 340.267 680.34 340.267 Q675.641 340.267 672.678 336.517 Q669.738 332.767 669.738 326.656 Q669.738 320.545 672.678 316.795 Q675.641 313.045 680.34 313.045 Q683.21 313.045 685.247 314.179 Q687.308 315.29 688.65 317.605 M674.136 326.656 Q674.136 331.355 676.058 334.04 Q678.002 336.702 681.382 336.702 Q684.761 336.702 686.706 334.04 Q688.65 331.355 688.65 326.656 Q688.65 321.957 686.706 319.295 Q684.761 316.61 681.382 316.61 Q678.002 316.61 676.058 319.295 Q674.136 321.957 674.136 326.656 Z" fill="#000000" fill-rule="nonzero" fill-opacity="1" /><path clip-path="url(#clip940)" d="M718.743 317.605 L718.743 303.577 L723.002 303.577 L723.002 339.596 L718.743 339.596 L718.743 335.707 Q717.4 338.022 715.34 339.156 Q713.303 340.267 710.432 340.267 Q705.733 340.267 702.77 336.517 Q699.831 332.767 699.831 326.656 Q699.831 320.545 702.77 316.795 Q705.733 313.045 710.432 313.045 Q713.303 313.045 715.34 314.179 Q717.4 315.29 718.743 317.605 M704.229 326.656 Q704.229 331.355 706.15 334.04 Q708.095 336.702 711.474 336.702 Q714.854 336.702 716.798 334.04 Q718.743 331.355 718.743 326.656 Q718.743 321.957 716.798 319.295 Q714.854 316.61 711.474 316.61 Q708.095 316.61 706.15 319.295 Q704.229 321.957 704.229 326.656 Z" fill="#000000" fill-rule="nonzero" fill-opacity="1" /><path clip-path="url(#clip940)" d="M731.775 303.577 L736.034 303.577 L736.034 339.596 L731.775 339.596 L731.775 303.577 Z" fill="#000000" fill-rule="nonzero" fill-opacity="1" /><path clip-path="url(#clip940)" d="M767.122 325.568 L767.122 327.651 L747.539 327.651 Q747.817 332.049 750.178 334.364 Q752.562 336.656 756.798 336.656 Q759.252 336.656 761.543 336.054 Q763.858 335.452 766.127 334.249 L766.127 338.276 Q763.835 339.248 761.428 339.758 Q759.02 340.267 756.543 340.267 Q750.34 340.267 746.705 336.656 Q743.094 333.045 743.094 326.887 Q743.094 320.522 746.52 316.795 Q749.969 313.045 755.803 313.045 Q761.034 313.045 764.066 316.425 Q767.122 319.781 767.122 325.568 M762.863 324.318 Q762.816 320.823 760.895 318.739 Q758.997 316.656 755.849 316.656 Q752.284 316.656 750.131 318.67 Q748.002 320.684 747.678 324.341 L762.863 324.318 Z" fill="#000000" fill-rule="nonzero" fill-opacity="1" /><polyline clip-path="url(#clip940)" style="stroke:#c271d2; stroke-linecap:round; stroke-linejoin:round; stroke-width:4; stroke-opacity:1; fill:none" points="457.839,374.156 590.043,374.156 "/>
<path clip-path="url(#clip940)" d="M630.85 378.496 Q630.85 373.797 628.905 371.135 Q626.984 368.45 623.604 368.45 Q620.225 368.45 618.28 371.135 Q616.359 373.797 616.359 378.496 Q616.359 383.195 618.28 385.88 Q620.225 388.542 623.604 388.542 Q626.984 388.542 628.905 385.88 Q630.85 383.195 630.85 378.496 M616.359 369.445 Q617.701 367.13 619.739 366.019 Q621.799 364.885 624.646 364.885 Q629.368 364.885 632.308 368.635 Q635.271 372.385 635.271 378.496 Q635.271 384.607 632.308 388.357 Q629.368 392.107 624.646 392.107 Q621.799 392.107 619.739 390.996 Q617.701 389.862 616.359 387.547 L616.359 391.436 L612.077 391.436 L612.077 355.417 L616.359 355.417 L616.359 369.445 Z" fill="#000000" fill-rule="nonzero" fill-opacity="1" /><path clip-path="url(#clip940)" d="M664.507 377.408 L664.507 379.491 L644.924 379.491 Q645.201 383.889 647.562 386.204 Q649.947 388.496 654.183 388.496 Q656.636 388.496 658.928 387.894 Q661.243 387.292 663.511 386.089 L663.511 390.116 Q661.22 391.088 658.812 391.598 Q656.405 392.107 653.928 392.107 Q647.724 392.107 644.09 388.496 Q640.479 384.885 640.479 378.727 Q640.479 372.362 643.905 368.635 Q647.354 364.885 653.187 364.885 Q658.419 364.885 661.451 368.265 Q664.507 371.621 664.507 377.408 M660.248 376.158 Q660.201 372.663 658.28 370.579 Q656.382 368.496 653.234 368.496 Q649.669 368.496 647.516 370.51 Q645.387 372.524 645.062 376.181 L660.248 376.158 Z" fill="#000000" fill-rule="nonzero" fill-opacity="1" /><path clip-path="url(#clip940)" d="M684.622 355.417 L684.622 358.959 L680.548 358.959 Q678.257 358.959 677.354 359.885 Q676.474 360.811 676.474 363.218 L676.474 365.51 L683.488 365.51 L683.488 368.82 L676.474 368.82 L676.474 391.436 L672.192 391.436 L672.192 368.82 L668.118 368.82 L668.118 365.51 L672.192 365.51 L672.192 363.704 Q672.192 359.376 674.206 357.408 Q676.22 355.417 680.595 355.417 L684.622 355.417 Z" fill="#000000" fill-rule="nonzero" fill-opacity="1" /><path clip-path="url(#clip940)" d="M698.233 368.496 Q694.808 368.496 692.817 371.181 Q690.826 373.843 690.826 378.496 Q690.826 383.149 692.794 385.834 Q694.784 388.496 698.233 388.496 Q701.636 388.496 703.627 385.811 Q705.618 383.126 705.618 378.496 Q705.618 373.89 703.627 371.204 Q701.636 368.496 698.233 368.496 M698.233 364.885 Q703.789 364.885 706.96 368.496 Q710.132 372.107 710.132 378.496 Q710.132 384.862 706.96 388.496 Q703.789 392.107 698.233 392.107 Q692.655 392.107 689.483 388.496 Q686.335 384.862 686.335 378.496 Q686.335 372.107 689.483 368.496 Q692.655 364.885 698.233 364.885 Z" fill="#000000" fill-rule="nonzero" fill-opacity="1" /><path clip-path="url(#clip940)" d="M732.215 369.491 Q731.497 369.075 730.641 368.89 Q729.807 368.681 728.789 368.681 Q725.178 368.681 723.233 371.042 Q721.312 373.38 721.312 377.778 L721.312 391.436 L717.03 391.436 L717.03 365.51 L721.312 365.51 L721.312 369.538 Q722.655 367.177 724.807 366.042 Q726.96 364.885 730.039 364.885 Q730.479 364.885 731.011 364.954 Q731.543 365.001 732.192 365.116 L732.215 369.491 Z" fill="#000000" fill-rule="nonzero" fill-opacity="1" /><path clip-path="url(#clip940)" d="M757.816 377.408 L757.816 379.491 L738.233 379.491 Q738.511 383.889 740.872 386.204 Q743.256 388.496 747.492 388.496 Q749.946 388.496 752.238 387.894 Q754.553 387.292 756.821 386.089 L756.821 390.116 Q754.529 391.088 752.122 391.598 Q749.715 392.107 747.238 392.107 Q741.034 392.107 737.4 388.496 Q733.789 384.885 733.789 378.727 Q733.789 372.362 737.215 368.635 Q740.664 364.885 746.497 364.885 Q751.729 364.885 754.761 368.265 Q757.816 371.621 757.816 377.408 M753.557 376.158 Q753.511 372.663 751.59 370.579 Q749.692 368.496 746.543 368.496 Q742.979 368.496 740.826 370.51 Q738.696 372.524 738.372 376.181 L753.557 376.158 Z" fill="#000000" fill-rule="nonzero" fill-opacity="1" /><path clip-path="url(#clip940)" d="M764.807 355.417 L769.066 355.417 L769.066 391.436 L764.807 391.436 L764.807 355.417 Z" fill="#000000" fill-rule="nonzero" fill-opacity="1" /><path clip-path="url(#clip940)" d="M789.761 378.403 Q784.599 378.403 782.608 379.584 Q780.617 380.764 780.617 383.612 Q780.617 385.88 782.099 387.223 Q783.603 388.542 786.173 388.542 Q789.714 388.542 791.844 386.042 Q793.997 383.519 793.997 379.352 L793.997 378.403 L789.761 378.403 M798.256 376.644 L798.256 391.436 L793.997 391.436 L793.997 387.501 Q792.539 389.862 790.363 390.996 Q788.187 392.107 785.039 392.107 Q781.057 392.107 778.696 389.885 Q776.358 387.639 776.358 383.889 Q776.358 379.514 779.275 377.292 Q782.214 375.07 788.025 375.07 L793.997 375.07 L793.997 374.653 Q793.997 371.714 792.052 370.116 Q790.131 368.496 786.636 368.496 Q784.414 368.496 782.307 369.028 Q780.201 369.561 778.256 370.626 L778.256 366.69 Q780.594 365.788 782.793 365.348 Q784.992 364.885 787.076 364.885 Q792.701 364.885 795.478 367.802 Q798.256 370.718 798.256 376.644 Z" fill="#000000" fill-rule="nonzero" fill-opacity="1" /><path clip-path="url(#clip940)" d="M823.557 366.274 L823.557 370.302 Q821.751 369.376 819.807 368.913 Q817.862 368.45 815.779 368.45 Q812.608 368.45 811.011 369.422 Q809.437 370.394 809.437 372.339 Q809.437 373.82 810.571 374.677 Q811.705 375.51 815.131 376.274 L816.589 376.598 Q821.126 377.57 823.024 379.352 Q824.946 381.112 824.946 384.283 Q824.946 387.894 822.075 390.001 Q819.228 392.107 814.228 392.107 Q812.145 392.107 809.876 391.69 Q807.631 391.297 805.131 390.487 L805.131 386.089 Q807.492 387.315 809.784 387.94 Q812.075 388.542 814.321 388.542 Q817.33 388.542 818.95 387.524 Q820.571 386.482 820.571 384.607 Q820.571 382.871 819.39 381.945 Q818.233 381.019 814.274 380.163 L812.793 379.815 Q808.835 378.982 807.075 377.269 Q805.316 375.533 805.316 372.524 Q805.316 368.866 807.909 366.876 Q810.501 364.885 815.27 364.885 Q817.631 364.885 819.714 365.232 Q821.798 365.579 823.557 366.274 Z" fill="#000000" fill-rule="nonzero" fill-opacity="1" /><path clip-path="url(#clip940)" d="M835.941 358.149 L835.941 365.51 L844.714 365.51 L844.714 368.82 L835.941 368.82 L835.941 382.894 Q835.941 386.065 836.798 386.968 Q837.677 387.871 840.339 387.871 L844.714 387.871 L844.714 391.436 L840.339 391.436 Q835.409 391.436 833.534 389.607 Q831.659 387.755 831.659 382.894 L831.659 368.82 L828.534 368.82 L828.534 365.51 L831.659 365.51 L831.659 358.149 L835.941 358.149 Z" fill="#000000" fill-rule="nonzero" fill-opacity="1" /><polyline clip-path="url(#clip940)" style="stroke:#ac8d18; stroke-linecap:round; stroke-linejoin:round; stroke-width:4; stroke-opacity:1; fill:none" points="457.839,425.996 590.043,425.996 "/>
<path clip-path="url(#clip940)" d="M612.077 407.257 L616.336 407.257 L616.336 443.276 L612.077 443.276 L612.077 407.257 Z" fill="#000000" fill-rule="nonzero" fill-opacity="1" /><path clip-path="url(#clip940)" d="M637.03 430.243 Q631.868 430.243 629.877 431.424 Q627.887 432.604 627.887 435.452 Q627.887 437.72 629.368 439.063 Q630.873 440.382 633.442 440.382 Q636.984 440.382 639.113 437.882 Q641.266 435.359 641.266 431.192 L641.266 430.243 L637.03 430.243 M645.525 428.484 L645.525 443.276 L641.266 443.276 L641.266 439.341 Q639.808 441.702 637.632 442.836 Q635.456 443.947 632.308 443.947 Q628.326 443.947 625.965 441.725 Q623.627 439.479 623.627 435.729 Q623.627 431.354 626.544 429.132 Q629.484 426.91 635.294 426.91 L641.266 426.91 L641.266 426.493 Q641.266 423.554 639.322 421.956 Q637.4 420.336 633.905 420.336 Q631.683 420.336 629.576 420.868 Q627.47 421.401 625.526 422.466 L625.526 418.53 Q627.863 417.628 630.063 417.188 Q632.262 416.725 634.345 416.725 Q639.97 416.725 642.748 419.642 Q645.525 422.558 645.525 428.484 Z" fill="#000000" fill-rule="nonzero" fill-opacity="1" /><path clip-path="url(#clip940)" d="M670.826 418.114 L670.826 422.142 Q669.021 421.216 667.076 420.753 Q665.132 420.29 663.048 420.29 Q659.877 420.29 658.28 421.262 Q656.706 422.234 656.706 424.179 Q656.706 425.66 657.84 426.517 Q658.974 427.35 662.4 428.114 L663.859 428.438 Q668.396 429.41 670.294 431.192 Q672.215 432.952 672.215 436.123 Q672.215 439.734 669.345 441.841 Q666.498 443.947 661.498 443.947 Q659.414 443.947 657.146 443.53 Q654.9 443.137 652.4 442.327 L652.4 437.929 Q654.761 439.155 657.053 439.78 Q659.345 440.382 661.59 440.382 Q664.599 440.382 666.22 439.364 Q667.84 438.322 667.84 436.447 Q667.84 434.711 666.66 433.785 Q665.502 432.859 661.544 432.003 L660.062 431.655 Q656.104 430.822 654.345 429.109 Q652.586 427.373 652.586 424.364 Q652.586 420.706 655.178 418.716 Q657.771 416.725 662.539 416.725 Q664.9 416.725 666.984 417.072 Q669.067 417.419 670.826 418.114 Z" fill="#000000" fill-rule="nonzero" fill-opacity="1" /><path clip-path="url(#clip940)" d="M683.21 409.989 L683.21 417.35 L691.983 417.35 L691.983 420.66 L683.21 420.66 L683.21 434.734 Q683.21 437.905 684.067 438.808 Q684.946 439.711 687.609 439.711 L691.983 439.711 L691.983 443.276 L687.609 443.276 Q682.678 443.276 680.803 441.447 Q678.928 439.595 678.928 434.734 L678.928 420.66 L675.803 420.66 L675.803 417.35 L678.928 417.35 L678.928 409.989 L683.21 409.989 Z" fill="#000000" fill-rule="nonzero" fill-opacity="1" /></svg>
