<?xml version="1.0" encoding="utf-8"?>
<svg xmlns="http://www.w3.org/2000/svg" xmlns:xlink="http://www.w3.org/1999/xlink" width="600" height="400" viewBox="0 0 2400 1600">
<defs>
  <clipPath id="clip620">
    <rect x="0" y="0" width="2400" height="1600"/>
  </clipPath>
</defs>
<path clip-path="url(#clip620)" d="M0 1600 L2400 1600 L2400 0 L0 0  Z" fill="#ffffff" fill-rule="evenodd" fill-opacity="1"/>
<defs>
  <clipPath id="clip621">
    <rect x="480" y="0" width="1681" height="1600"/>
  </clipPath>
</defs>
<path clip-path="url(#clip620)" d="M249.195 1423.18 L2352.76 1423.18 L2352.76 123.472 L249.195 123.472  Z" fill="#ffffff" fill-rule="evenodd" fill-opacity="1"/>
<defs>
  <clipPath id="clip622">
    <rect x="249" y="123" width="2105" height="1301"/>
  </clipPath>
</defs>
<polyline clip-path="url(#clip622)" style="stroke:#000000; stroke-linecap:round; stroke-linejoin:round; stroke-width:2; stroke-opacity:0.1; fill:none" points="307.737,1423.18 307.737,123.472 "/>
<polyline clip-path="url(#clip622)" style="stroke:#000000; stroke-linecap:round; stroke-linejoin:round; stroke-width:2; stroke-opacity:0.1; fill:none" points="804.108,1423.18 804.108,123.472 "/>
<polyline clip-path="url(#clip622)" style="stroke:#000000; stroke-linecap:round; stroke-linejoin:round; stroke-width:2; stroke-opacity:0.1; fill:none" points="1300.48,1423.18 1300.48,123.472 "/>
<polyline clip-path="url(#clip622)" style="stroke:#000000; stroke-linecap:round; stroke-linejoin:round; stroke-width:2; stroke-opacity:0.1; fill:none" points="1796.85,1423.18 1796.85,123.472 "/>
<polyline clip-path="url(#clip622)" style="stroke:#000000; stroke-linecap:round; stroke-linejoin:round; stroke-width:2; stroke-opacity:0.1; fill:none" points="2293.22,1423.18 2293.22,123.472 "/>
<polyline clip-path="url(#clip620)" style="stroke:#000000; stroke-linecap:round; stroke-linejoin:round; stroke-width:4; stroke-opacity:1; fill:none" points="249.195,1423.18 2352.76,1423.18 "/>
<polyline clip-path="url(#clip620)" style="stroke:#000000; stroke-linecap:round; stroke-linejoin:round; stroke-width:4; stroke-opacity:1; fill:none" points="307.737,1423.18 307.737,1404.28 "/>
<polyline clip-path="url(#clip620)" style="stroke:#000000; stroke-linecap:round; stroke-linejoin:round; stroke-width:4; stroke-opacity:1; fill:none" points="804.108,1423.18 804.108,1404.28 "/>
<polyline clip-path="url(#clip620)" style="stroke:#000000; stroke-linecap:round; stroke-linejoin:round; stroke-width:4; stroke-opacity:1; fill:none" points="1300.48,1423.18 1300.48,1404.28 "/>
<polyline clip-path="url(#clip620)" style="stroke:#000000; stroke-linecap:round; stroke-linejoin:round; stroke-width:4; stroke-opacity:1; fill:none" points="1796.85,1423.18 1796.85,1404.28 "/>
<polyline clip-path="url(#clip620)" style="stroke:#000000; stroke-linecap:round; stroke-linejoin:round; stroke-width:4; stroke-opacity:1; fill:none" points="2293.22,1423.18 2293.22,1404.28 "/>
<path clip-path="url(#clip620)" d="M307.737 1454.1 Q304.126 1454.1 302.297 1457.66 Q300.491 1461.2 300.491 1468.33 Q300.491 1475.44 302.297 1479.01 Q304.126 1482.55 307.737 1482.55 Q311.371 1482.55 313.177 1479.01 Q315.005 1475.44 315.005 1468.33 Q315.005 1461.2 313.177 1457.66 Q311.371 1454.1 307.737 1454.1 M307.737 1450.39 Q313.547 1450.39 316.603 1455 Q319.681 1459.58 319.681 1468.33 Q319.681 1477.06 316.603 1481.67 Q313.547 1486.25 307.737 1486.25 Q301.927 1486.25 298.848 1481.67 Q295.792 1477.06 295.792 1468.33 Q295.792 1459.58 298.848 1455 Q301.927 1450.39 307.737 1450.39 Z" fill="#000000" fill-rule="nonzero" fill-opacity="1" /><path clip-path="url(#clip620)" d="M763.726 1451.02 L782.083 1451.02 L782.083 1454.96 L768.009 1454.96 L768.009 1463.43 Q769.027 1463.08 770.046 1462.92 Q771.064 1462.73 772.083 1462.73 Q777.87 1462.73 781.249 1465.9 Q784.629 1469.08 784.629 1474.49 Q784.629 1480.07 781.157 1483.17 Q777.684 1486.25 771.365 1486.25 Q769.189 1486.25 766.921 1485.88 Q764.675 1485.51 762.268 1484.77 L762.268 1480.07 Q764.351 1481.2 766.573 1481.76 Q768.796 1482.32 771.272 1482.32 Q775.277 1482.32 777.615 1480.21 Q779.953 1478.1 779.953 1474.49 Q779.953 1470.88 777.615 1468.77 Q775.277 1466.67 771.272 1466.67 Q769.397 1466.67 767.522 1467.08 Q765.671 1467.5 763.726 1468.38 L763.726 1451.02 Z" fill="#000000" fill-rule="nonzero" fill-opacity="1" /><path clip-path="url(#clip620)" d="M803.842 1454.1 Q800.231 1454.1 798.402 1457.66 Q796.596 1461.2 796.596 1468.33 Q796.596 1475.44 798.402 1479.01 Q800.231 1482.55 803.842 1482.55 Q807.476 1482.55 809.281 1479.01 Q811.11 1475.44 811.11 1468.33 Q811.11 1461.2 809.281 1457.66 Q807.476 1454.1 803.842 1454.1 M803.842 1450.39 Q809.652 1450.39 812.707 1455 Q815.786 1459.58 815.786 1468.33 Q815.786 1477.06 812.707 1481.67 Q809.652 1486.25 803.842 1486.25 Q798.032 1486.25 794.953 1481.67 Q791.897 1477.06 791.897 1468.33 Q791.897 1459.58 794.953 1455 Q798.032 1450.39 803.842 1450.39 Z" fill="#000000" fill-rule="nonzero" fill-opacity="1" /><path clip-path="url(#clip620)" d="M834.004 1454.1 Q830.392 1454.1 828.564 1457.66 Q826.758 1461.2 826.758 1468.33 Q826.758 1475.44 828.564 1479.01 Q830.392 1482.55 834.004 1482.55 Q837.638 1482.55 839.443 1479.01 Q841.272 1475.44 841.272 1468.33 Q841.272 1461.2 839.443 1457.66 Q837.638 1454.1 834.004 1454.1 M834.004 1450.39 Q839.814 1450.39 842.869 1455 Q845.948 1459.58 845.948 1468.33 Q845.948 1477.06 842.869 1481.67 Q839.814 1486.25 834.004 1486.25 Q828.193 1486.25 825.115 1481.67 Q822.059 1477.06 822.059 1468.33 Q822.059 1459.58 825.115 1455 Q828.193 1450.39 834.004 1450.39 Z" fill="#000000" fill-rule="nonzero" fill-opacity="1" /><path clip-path="url(#clip620)" d="M1245 1481.64 L1252.64 1481.64 L1252.64 1455.28 L1244.33 1456.95 L1244.33 1452.69 L1252.6 1451.02 L1257.27 1451.02 L1257.27 1481.64 L1264.91 1481.64 L1264.91 1485.58 L1245 1485.58 L1245 1481.64 Z" fill="#000000" fill-rule="nonzero" fill-opacity="1" /><path clip-path="url(#clip620)" d="M1284.36 1454.1 Q1280.75 1454.1 1278.92 1457.66 Q1277.11 1461.2 1277.11 1468.33 Q1277.11 1475.44 1278.92 1479.01 Q1280.75 1482.55 1284.36 1482.55 Q1287.99 1482.55 1289.8 1479.01 Q1291.62 1475.44 1291.62 1468.33 Q1291.62 1461.2 1289.8 1457.66 Q1287.99 1454.1 1284.36 1454.1 M1284.36 1450.39 Q1290.17 1450.39 1293.22 1455 Q1296.3 1459.58 1296.3 1468.33 Q1296.3 1477.06 1293.22 1481.67 Q1290.17 1486.25 1284.36 1486.25 Q1278.55 1486.25 1275.47 1481.67 Q1272.41 1477.06 1272.41 1468.33 Q1272.41 1459.58 1275.47 1455 Q1278.55 1450.39 1284.36 1450.39 Z" fill="#000000" fill-rule="nonzero" fill-opacity="1" /><path clip-path="url(#clip620)" d="M1314.52 1454.1 Q1310.91 1454.1 1309.08 1457.66 Q1307.27 1461.2 1307.27 1468.33 Q1307.27 1475.44 1309.08 1479.01 Q1310.91 1482.55 1314.52 1482.55 Q1318.15 1482.55 1319.96 1479.01 Q1321.79 1475.44 1321.79 1468.33 Q1321.79 1461.2 1319.96 1457.66 Q1318.15 1454.1 1314.52 1454.1 M1314.52 1450.39 Q1320.33 1450.39 1323.38 1455 Q1326.46 1459.58 1326.46 1468.33 Q1326.46 1477.06 1323.38 1481.67 Q1320.33 1486.25 1314.52 1486.25 Q1308.71 1486.25 1305.63 1481.67 Q1302.57 1477.06 1302.57 1468.33 Q1302.57 1459.58 1305.63 1455 Q1308.71 1450.39 1314.52 1450.39 Z" fill="#000000" fill-rule="nonzero" fill-opacity="1" /><path clip-path="url(#clip620)" d="M1344.68 1454.1 Q1341.07 1454.1 1339.24 1457.66 Q1337.43 1461.2 1337.43 1468.33 Q1337.43 1475.44 1339.24 1479.01 Q1341.07 1482.55 1344.68 1482.55 Q1348.31 1482.55 1350.12 1479.01 Q1351.95 1475.44 1351.95 1468.33 Q1351.95 1461.2 1350.12 1457.66 Q1348.31 1454.1 1344.68 1454.1 M1344.68 1450.39 Q1350.49 1450.39 1353.55 1455 Q1356.62 1459.58 1356.62 1468.33 Q1356.62 1477.06 1353.55 1481.67 Q1350.49 1486.25 1344.68 1486.25 Q1338.87 1486.25 1335.79 1481.67 Q1332.74 1477.06 1332.74 1468.33 Q1332.74 1459.58 1335.79 1455 Q1338.87 1450.39 1344.68 1450.39 Z" fill="#000000" fill-rule="nonzero" fill-opacity="1" /><path clip-path="url(#clip620)" d="M1741.38 1481.64 L1749.01 1481.64 L1749.01 1455.28 L1740.7 1456.95 L1740.7 1452.69 L1748.97 1451.02 L1753.64 1451.02 L1753.64 1481.64 L1761.28 1481.64 L1761.28 1485.58 L1741.38 1485.58 L1741.38 1481.64 Z" fill="#000000" fill-rule="nonzero" fill-opacity="1" /><path clip-path="url(#clip620)" d="M1770.77 1451.02 L1789.13 1451.02 L1789.13 1454.96 L1775.06 1454.96 L1775.06 1463.43 Q1776.07 1463.08 1777.09 1462.92 Q1778.11 1462.73 1779.13 1462.73 Q1784.92 1462.73 1788.3 1465.9 Q1791.68 1469.08 1791.68 1474.49 Q1791.68 1480.07 1788.2 1483.17 Q1784.73 1486.25 1778.41 1486.25 Q1776.24 1486.25 1773.97 1485.88 Q1771.72 1485.51 1769.32 1484.77 L1769.32 1480.07 Q1771.4 1481.2 1773.62 1481.76 Q1775.84 1482.32 1778.32 1482.32 Q1782.32 1482.32 1784.66 1480.21 Q1787 1478.1 1787 1474.49 Q1787 1470.88 1784.66 1468.77 Q1782.32 1466.67 1778.32 1466.67 Q1776.45 1466.67 1774.57 1467.08 Q1772.72 1467.5 1770.77 1468.38 L1770.77 1451.02 Z" fill="#000000" fill-rule="nonzero" fill-opacity="1" /><path clip-path="url(#clip620)" d="M1810.89 1454.1 Q1807.28 1454.1 1805.45 1457.66 Q1803.64 1461.2 1803.64 1468.33 Q1803.64 1475.44 1805.45 1479.01 Q1807.28 1482.55 1810.89 1482.55 Q1814.52 1482.55 1816.33 1479.01 Q1818.16 1475.44 1818.16 1468.33 Q1818.16 1461.2 1816.33 1457.66 Q1814.52 1454.1 1810.89 1454.1 M1810.89 1450.39 Q1816.7 1450.39 1819.76 1455 Q1822.83 1459.58 1822.83 1468.33 Q1822.83 1477.06 1819.76 1481.67 Q1816.7 1486.25 1810.89 1486.25 Q1805.08 1486.25 1802 1481.67 Q1798.94 1477.06 1798.94 1468.33 Q1798.94 1459.58 1802 1455 Q1805.08 1450.39 1810.89 1450.39 Z" fill="#000000" fill-rule="nonzero" fill-opacity="1" /><path clip-path="url(#clip620)" d="M1841.05 1454.1 Q1837.44 1454.1 1835.61 1457.66 Q1833.81 1461.2 1833.81 1468.33 Q1833.81 1475.44 1835.61 1479.01 Q1837.44 1482.55 1841.05 1482.55 Q1844.69 1482.55 1846.49 1479.01 Q1848.32 1475.44 1848.32 1468.33 Q1848.32 1461.2 1846.49 1457.66 Q1844.69 1454.1 1841.05 1454.1 M1841.05 1450.39 Q1846.86 1450.39 1849.92 1455 Q1853 1459.58 1853 1468.33 Q1853 1477.06 1849.92 1481.67 Q1846.86 1486.25 1841.05 1486.25 Q1835.24 1486.25 1832.16 1481.67 Q1829.11 1477.06 1829.11 1468.33 Q1829.11 1459.58 1832.16 1455 Q1835.24 1450.39 1841.05 1450.39 Z" fill="#000000" fill-rule="nonzero" fill-opacity="1" /><path clip-path="url(#clip620)" d="M2241.83 1481.64 L2258.15 1481.64 L2258.15 1485.58 L2236.21 1485.58 L2236.21 1481.64 Q2238.87 1478.89 2243.45 1474.26 Q2248.06 1469.61 2249.24 1468.27 Q2251.49 1465.74 2252.36 1464.01 Q2253.27 1462.25 2253.27 1460.56 Q2253.27 1457.8 2251.32 1456.07 Q2249.4 1454.33 2246.3 1454.33 Q2244.1 1454.33 2241.65 1455.09 Q2239.22 1455.86 2236.44 1457.41 L2236.44 1452.69 Q2239.26 1451.55 2241.72 1450.97 Q2244.17 1450.39 2246.21 1450.39 Q2251.58 1450.39 2254.77 1453.08 Q2257.97 1455.77 2257.97 1460.26 Q2257.97 1462.39 2257.16 1464.31 Q2256.37 1466.2 2254.26 1468.8 Q2253.68 1469.47 2250.58 1472.69 Q2247.48 1475.88 2241.83 1481.64 Z" fill="#000000" fill-rule="nonzero" fill-opacity="1" /><path clip-path="url(#clip620)" d="M2277.97 1454.1 Q2274.36 1454.1 2272.53 1457.66 Q2270.72 1461.2 2270.72 1468.33 Q2270.72 1475.44 2272.53 1479.01 Q2274.36 1482.55 2277.97 1482.55 Q2281.6 1482.55 2283.41 1479.01 Q2285.24 1475.44 2285.24 1468.33 Q2285.24 1461.2 2283.41 1457.66 Q2281.6 1454.1 2277.97 1454.1 M2277.97 1450.39 Q2283.78 1450.39 2286.83 1455 Q2289.91 1459.58 2289.91 1468.33 Q2289.91 1477.06 2286.83 1481.67 Q2283.78 1486.25 2277.97 1486.25 Q2272.16 1486.25 2269.08 1481.67 Q2266.02 1477.06 2266.02 1468.33 Q2266.02 1459.58 2269.08 1455 Q2272.16 1450.39 2277.97 1450.39 Z" fill="#000000" fill-rule="nonzero" fill-opacity="1" /><path clip-path="url(#clip620)" d="M2308.13 1454.1 Q2304.52 1454.1 2302.69 1457.66 Q2300.88 1461.2 2300.88 1468.33 Q2300.88 1475.44 2302.69 1479.01 Q2304.52 1482.55 2308.13 1482.55 Q2311.76 1482.55 2313.57 1479.01 Q2315.4 1475.44 2315.4 1468.33 Q2315.4 1461.2 2313.57 1457.66 Q2311.76 1454.1 2308.13 1454.1 M2308.13 1450.39 Q2313.94 1450.39 2316.99 1455 Q2320.07 1459.58 2320.07 1468.33 Q2320.07 1477.06 2316.99 1481.67 Q2313.94 1486.25 2308.13 1486.25 Q2302.32 1486.25 2299.24 1481.67 Q2296.18 1477.06 2296.18 1468.33 Q2296.18 1459.58 2299.24 1455 Q2302.32 1450.39 2308.13 1450.39 Z" fill="#000000" fill-rule="nonzero" fill-opacity="1" /><path clip-path="url(#clip620)" d="M2338.29 1454.1 Q2334.68 1454.1 2332.85 1457.66 Q2331.05 1461.2 2331.05 1468.33 Q2331.05 1475.44 2332.85 1479.01 Q2334.68 1482.55 2338.29 1482.55 Q2341.92 1482.55 2343.73 1479.01 Q2345.56 1475.44 2345.56 1468.33 Q2345.56 1461.2 2343.73 1457.66 Q2341.92 1454.1 2338.29 1454.1 M2338.29 1450.39 Q2344.1 1450.39 2347.16 1455 Q2350.23 1459.58 2350.23 1468.33 Q2350.23 1477.06 2347.16 1481.67 Q2344.1 1486.25 2338.29 1486.25 Q2332.48 1486.25 2329.4 1481.67 Q2326.35 1477.06 2326.35 1468.33 Q2326.35 1459.58 2329.4 1455 Q2332.48 1450.39 2338.29 1450.39 Z" fill="#000000" fill-rule="nonzero" fill-opacity="1" /><path clip-path="url(#clip620)" d="M1282.99 1520.52 L1291.65 1520.52 L1312.72 1560.28 L1312.72 1520.52 L1318.96 1520.52 L1318.96 1568.04 L1310.3 1568.04 L1289.23 1528.29 L1289.23 1568.04 L1282.99 1568.04 L1282.99 1520.52 Z" fill="#000000" fill-rule="nonzero" fill-opacity="1" /><polyline clip-path="url(#clip622)" style="stroke:#000000; stroke-linecap:round; stroke-linejoin:round; stroke-width:2; stroke-opacity:0.1; fill:none" points="249.195,1242.45 2352.76,1242.45 "/>
<polyline clip-path="url(#clip622)" style="stroke:#000000; stroke-linecap:round; stroke-linejoin:round; stroke-width:2; stroke-opacity:0.1; fill:none" points="249.195,1030.31 2352.76,1030.31 "/>
<polyline clip-path="url(#clip622)" style="stroke:#000000; stroke-linecap:round; stroke-linejoin:round; stroke-width:2; stroke-opacity:0.1; fill:none" points="249.195,818.178 2352.76,818.178 "/>
<polyline clip-path="url(#clip622)" style="stroke:#000000; stroke-linecap:round; stroke-linejoin:round; stroke-width:2; stroke-opacity:0.1; fill:none" points="249.195,606.041 2352.76,606.041 "/>
<polyline clip-path="url(#clip622)" style="stroke:#000000; stroke-linecap:round; stroke-linejoin:round; stroke-width:2; stroke-opacity:0.1; fill:none" points="249.195,393.905 2352.76,393.905 "/>
<polyline clip-path="url(#clip622)" style="stroke:#000000; stroke-linecap:round; stroke-linejoin:round; stroke-width:2; stroke-opacity:0.1; fill:none" points="249.195,181.768 2352.76,181.768 "/>
<polyline clip-path="url(#clip620)" style="stroke:#000000; stroke-linecap:round; stroke-linejoin:round; stroke-width:4; stroke-opacity:1; fill:none" points="249.195,1423.18 249.195,123.472 "/>
<polyline clip-path="url(#clip620)" style="stroke:#000000; stroke-linecap:round; stroke-linejoin:round; stroke-width:4; stroke-opacity:1; fill:none" points="249.195,1242.45 268.092,1242.45 "/>
<polyline clip-path="url(#clip620)" style="stroke:#000000; stroke-linecap:round; stroke-linejoin:round; stroke-width:4; stroke-opacity:1; fill:none" points="249.195,1030.31 268.092,1030.31 "/>
<polyline clip-path="url(#clip620)" style="stroke:#000000; stroke-linecap:round; stroke-linejoin:round; stroke-width:4; stroke-opacity:1; fill:none" points="249.195,818.178 268.092,818.178 "/>
<polyline clip-path="url(#clip620)" style="stroke:#000000; stroke-linecap:round; stroke-linejoin:round; stroke-width:4; stroke-opacity:1; fill:none" points="249.195,606.041 268.092,606.041 "/>
<polyline clip-path="url(#clip620)" style="stroke:#000000; stroke-linecap:round; stroke-linejoin:round; stroke-width:4; stroke-opacity:1; fill:none" points="249.195,393.905 268.092,393.905 "/>
<polyline clip-path="url(#clip620)" style="stroke:#000000; stroke-linecap:round; stroke-linejoin:round; stroke-width:4; stroke-opacity:1; fill:none" points="249.195,181.768 268.092,181.768 "/>
<path clip-path="url(#clip620)" d="M120.88 1255.8 L137.2 1255.8 L137.2 1259.73 L115.256 1259.73 L115.256 1255.8 Q117.918 1253.04 122.501 1248.41 Q127.107 1243.76 128.288 1242.42 Q130.533 1239.89 131.413 1238.16 Q132.316 1236.4 132.316 1234.71 Q132.316 1231.95 130.371 1230.22 Q128.45 1228.48 125.348 1228.48 Q123.149 1228.48 120.695 1229.25 Q118.265 1230.01 115.487 1231.56 L115.487 1226.84 Q118.311 1225.7 120.765 1225.13 Q123.218 1224.55 125.255 1224.55 Q130.626 1224.55 133.82 1227.23 Q137.015 1229.92 137.015 1234.41 Q137.015 1236.54 136.204 1238.46 Q135.417 1240.36 133.311 1242.95 Q132.732 1243.62 129.63 1246.84 Q126.529 1250.03 120.88 1255.8 Z" fill="#000000" fill-rule="nonzero" fill-opacity="1" /><path clip-path="url(#clip620)" d="M145.834 1225.17 L168.056 1225.17 L168.056 1227.16 L155.51 1259.73 L150.626 1259.73 L162.431 1229.11 L145.834 1229.11 L145.834 1225.17 Z" fill="#000000" fill-rule="nonzero" fill-opacity="1" /><path clip-path="url(#clip620)" d="M177.176 1253.85 L182.061 1253.85 L182.061 1259.73 L177.176 1259.73 L177.176 1253.85 Z" fill="#000000" fill-rule="nonzero" fill-opacity="1" /><path clip-path="url(#clip620)" d="M192.292 1225.17 L210.649 1225.17 L210.649 1229.11 L196.575 1229.11 L196.575 1237.58 Q197.593 1237.23 198.612 1237.07 Q199.63 1236.88 200.649 1236.88 Q206.436 1236.88 209.815 1240.06 Q213.195 1243.23 213.195 1248.64 Q213.195 1254.22 209.723 1257.32 Q206.25 1260.4 199.931 1260.4 Q197.755 1260.4 195.487 1260.03 Q193.241 1259.66 190.834 1258.92 L190.834 1254.22 Q192.917 1255.36 195.139 1255.91 Q197.362 1256.47 199.838 1256.47 Q203.843 1256.47 206.181 1254.36 Q208.519 1252.25 208.519 1248.64 Q208.519 1245.03 206.181 1242.93 Q203.843 1240.82 199.838 1240.82 Q197.963 1240.82 196.088 1241.24 Q194.237 1241.65 192.292 1242.53 L192.292 1225.17 Z" fill="#000000" fill-rule="nonzero" fill-opacity="1" /><path clip-path="url(#clip620)" d="M119.885 1043.66 L136.204 1043.66 L136.204 1047.59 L114.26 1047.59 L114.26 1043.66 Q116.922 1040.91 121.505 1036.28 Q126.112 1031.62 127.292 1030.28 Q129.538 1027.76 130.417 1026.02 Q131.32 1024.26 131.32 1022.57 Q131.32 1019.82 129.376 1018.08 Q127.455 1016.35 124.353 1016.35 Q122.154 1016.35 119.7 1017.11 Q117.269 1017.87 114.492 1019.42 L114.492 1014.7 Q117.316 1013.57 119.769 1012.99 Q122.223 1012.41 124.26 1012.41 Q129.63 1012.41 132.825 1015.1 Q136.019 1017.78 136.019 1022.27 Q136.019 1024.4 135.209 1026.32 Q134.422 1028.22 132.316 1030.81 Q131.737 1031.48 128.635 1034.7 Q125.533 1037.9 119.885 1043.66 Z" fill="#000000" fill-rule="nonzero" fill-opacity="1" /><path clip-path="url(#clip620)" d="M156.019 1031.18 Q152.686 1031.18 150.765 1032.97 Q148.866 1034.75 148.866 1037.87 Q148.866 1041 150.765 1042.78 Q152.686 1044.56 156.019 1044.56 Q159.353 1044.56 161.274 1042.78 Q163.195 1040.97 163.195 1037.87 Q163.195 1034.75 161.274 1032.97 Q159.376 1031.18 156.019 1031.18 M151.343 1029.19 Q148.334 1028.45 146.644 1026.39 Q144.978 1024.33 144.978 1021.37 Q144.978 1017.22 147.917 1014.82 Q150.88 1012.41 156.019 1012.41 Q161.181 1012.41 164.121 1014.82 Q167.061 1017.22 167.061 1021.37 Q167.061 1024.33 165.371 1026.39 Q163.704 1028.45 160.718 1029.19 Q164.098 1029.98 165.973 1032.27 Q167.871 1034.56 167.871 1037.87 Q167.871 1042.9 164.792 1045.58 Q161.737 1048.27 156.019 1048.27 Q150.302 1048.27 147.223 1045.58 Q144.167 1042.9 144.167 1037.87 Q144.167 1034.56 146.066 1032.27 Q147.964 1029.98 151.343 1029.19 M149.63 1021.81 Q149.63 1024.49 151.297 1026 Q152.987 1027.5 156.019 1027.5 Q159.028 1027.5 160.718 1026 Q162.431 1024.49 162.431 1021.81 Q162.431 1019.12 160.718 1017.62 Q159.028 1016.11 156.019 1016.11 Q152.987 1016.11 151.297 1017.62 Q149.63 1019.12 149.63 1021.81 Z" fill="#000000" fill-rule="nonzero" fill-opacity="1" /><path clip-path="url(#clip620)" d="M176.181 1041.72 L181.065 1041.72 L181.065 1047.59 L176.181 1047.59 L176.181 1041.72 Z" fill="#000000" fill-rule="nonzero" fill-opacity="1" /><path clip-path="url(#clip620)" d="M201.25 1016.11 Q197.639 1016.11 195.811 1019.68 Q194.005 1023.22 194.005 1030.35 Q194.005 1037.46 195.811 1041.02 Q197.639 1044.56 201.25 1044.56 Q204.885 1044.56 206.69 1041.02 Q208.519 1037.46 208.519 1030.35 Q208.519 1023.22 206.69 1019.68 Q204.885 1016.11 201.25 1016.11 M201.25 1012.41 Q207.061 1012.41 210.116 1017.02 Q213.195 1021.6 213.195 1030.35 Q213.195 1039.08 210.116 1043.68 Q207.061 1048.27 201.25 1048.27 Q195.44 1048.27 192.362 1043.68 Q189.306 1039.08 189.306 1030.35 Q189.306 1021.6 192.362 1017.02 Q195.44 1012.41 201.25 1012.41 Z" fill="#000000" fill-rule="nonzero" fill-opacity="1" /><path clip-path="url(#clip620)" d="M120.88 831.523 L137.2 831.523 L137.2 835.458 L115.256 835.458 L115.256 831.523 Q117.918 828.768 122.501 824.139 Q127.107 819.486 128.288 818.143 Q130.533 815.62 131.413 813.884 Q132.316 812.125 132.316 810.435 Q132.316 807.681 130.371 805.944 Q128.45 804.208 125.348 804.208 Q123.149 804.208 120.695 804.972 Q118.265 805.736 115.487 807.287 L115.487 802.565 Q118.311 801.431 120.765 800.852 Q123.218 800.273 125.255 800.273 Q130.626 800.273 133.82 802.958 Q137.015 805.644 137.015 810.134 Q137.015 812.264 136.204 814.185 Q135.417 816.083 133.311 818.676 Q132.732 819.347 129.63 822.565 Q126.529 825.759 120.88 831.523 Z" fill="#000000" fill-rule="nonzero" fill-opacity="1" /><path clip-path="url(#clip620)" d="M157.015 819.046 Q153.681 819.046 151.76 820.829 Q149.862 822.611 149.862 825.736 Q149.862 828.861 151.76 830.643 Q153.681 832.426 157.015 832.426 Q160.348 832.426 162.269 830.643 Q164.19 828.838 164.19 825.736 Q164.19 822.611 162.269 820.829 Q160.371 819.046 157.015 819.046 M152.339 817.055 Q149.329 816.315 147.64 814.255 Q145.973 812.194 145.973 809.231 Q145.973 805.088 148.913 802.681 Q151.876 800.273 157.015 800.273 Q162.177 800.273 165.116 802.681 Q168.056 805.088 168.056 809.231 Q168.056 812.194 166.366 814.255 Q164.7 816.315 161.714 817.055 Q165.093 817.843 166.968 820.134 Q168.866 822.426 168.866 825.736 Q168.866 830.759 165.788 833.444 Q162.732 836.129 157.015 836.129 Q151.297 836.129 148.218 833.444 Q145.163 830.759 145.163 825.736 Q145.163 822.426 147.061 820.134 Q148.959 817.843 152.339 817.055 M150.626 809.671 Q150.626 812.356 152.292 813.861 Q153.982 815.366 157.015 815.366 Q160.024 815.366 161.714 813.861 Q163.427 812.356 163.427 809.671 Q163.427 806.986 161.714 805.481 Q160.024 803.977 157.015 803.977 Q153.982 803.977 152.292 805.481 Q150.626 806.986 150.626 809.671 Z" fill="#000000" fill-rule="nonzero" fill-opacity="1" /><path clip-path="url(#clip620)" d="M177.176 829.579 L182.061 829.579 L182.061 835.458 L177.176 835.458 L177.176 829.579 Z" fill="#000000" fill-rule="nonzero" fill-opacity="1" /><path clip-path="url(#clip620)" d="M192.292 800.898 L210.649 800.898 L210.649 804.833 L196.575 804.833 L196.575 813.306 Q197.593 812.958 198.612 812.796 Q199.63 812.611 200.649 812.611 Q206.436 812.611 209.815 815.782 Q213.195 818.954 213.195 824.37 Q213.195 829.949 209.723 833.051 Q206.25 836.129 199.931 836.129 Q197.755 836.129 195.487 835.759 Q193.241 835.389 190.834 834.648 L190.834 829.949 Q192.917 831.083 195.139 831.639 Q197.362 832.194 199.838 832.194 Q203.843 832.194 206.181 830.088 Q208.519 827.981 208.519 824.37 Q208.519 820.759 206.181 818.653 Q203.843 816.546 199.838 816.546 Q197.963 816.546 196.088 816.963 Q194.237 817.38 192.292 818.259 L192.292 800.898 Z" fill="#000000" fill-rule="nonzero" fill-opacity="1" /><path clip-path="url(#clip620)" d="M119.885 619.386 L136.204 619.386 L136.204 623.321 L114.26 623.321 L114.26 619.386 Q116.922 616.632 121.505 612.002 Q126.112 607.349 127.292 606.007 Q129.538 603.484 130.417 601.747 Q131.32 599.988 131.32 598.298 Q131.32 595.544 129.376 593.808 Q127.455 592.072 124.353 592.072 Q122.154 592.072 119.7 592.835 Q117.269 593.599 114.492 595.15 L114.492 590.428 Q117.316 589.294 119.769 588.715 Q122.223 588.136 124.26 588.136 Q129.63 588.136 132.825 590.822 Q136.019 593.507 136.019 597.997 Q136.019 600.127 135.209 602.048 Q134.422 603.947 132.316 606.539 Q131.737 607.21 128.635 610.428 Q125.533 613.622 119.885 619.386 Z" fill="#000000" fill-rule="nonzero" fill-opacity="1" /><path clip-path="url(#clip620)" d="M146.158 622.604 L146.158 618.345 Q147.917 619.178 149.723 619.618 Q151.528 620.058 153.265 620.058 Q157.894 620.058 160.325 616.956 Q162.778 613.831 163.126 607.488 Q161.783 609.479 159.723 610.544 Q157.663 611.608 155.163 611.608 Q149.978 611.608 146.945 608.484 Q143.936 605.335 143.936 599.896 Q143.936 594.572 147.084 591.354 Q150.232 588.136 155.464 588.136 Q161.459 588.136 164.607 592.743 Q167.778 597.326 167.778 606.076 Q167.778 614.247 163.89 619.132 Q160.024 623.993 153.473 623.993 Q151.714 623.993 149.908 623.645 Q148.103 623.298 146.158 622.604 M155.464 607.951 Q158.612 607.951 160.44 605.798 Q162.292 603.646 162.292 599.896 Q162.292 596.169 160.44 594.016 Q158.612 591.84 155.464 591.84 Q152.316 591.84 150.464 594.016 Q148.635 596.169 148.635 599.896 Q148.635 603.646 150.464 605.798 Q152.316 607.951 155.464 607.951 Z" fill="#000000" fill-rule="nonzero" fill-opacity="1" /><path clip-path="url(#clip620)" d="M176.181 617.442 L181.065 617.442 L181.065 623.321 L176.181 623.321 L176.181 617.442 Z" fill="#000000" fill-rule="nonzero" fill-opacity="1" /><path clip-path="url(#clip620)" d="M201.25 591.84 Q197.639 591.84 195.811 595.405 Q194.005 598.947 194.005 606.076 Q194.005 613.183 195.811 616.747 Q197.639 620.289 201.25 620.289 Q204.885 620.289 206.69 616.747 Q208.519 613.183 208.519 606.076 Q208.519 598.947 206.69 595.405 Q204.885 591.84 201.25 591.84 M201.25 588.136 Q207.061 588.136 210.116 592.743 Q213.195 597.326 213.195 606.076 Q213.195 614.803 210.116 619.409 Q207.061 623.993 201.25 623.993 Q195.44 623.993 192.362 619.409 Q189.306 614.803 189.306 606.076 Q189.306 597.326 192.362 592.743 Q195.44 588.136 201.25 588.136 Z" fill="#000000" fill-rule="nonzero" fill-opacity="1" /><path clip-path="url(#clip620)" d="M120.88 407.249 L137.2 407.249 L137.2 411.185 L115.256 411.185 L115.256 407.249 Q117.918 404.495 122.501 399.865 Q127.107 395.212 128.288 393.87 Q130.533 391.347 131.413 389.611 Q132.316 387.851 132.316 386.162 Q132.316 383.407 130.371 381.671 Q128.45 379.935 125.348 379.935 Q123.149 379.935 120.695 380.699 Q118.265 381.463 115.487 383.013 L115.487 378.291 Q118.311 377.157 120.765 376.578 Q123.218 376 125.255 376 Q130.626 376 133.82 378.685 Q137.015 381.37 137.015 385.861 Q137.015 387.99 136.204 389.912 Q135.417 391.81 133.311 394.402 Q132.732 395.074 129.63 398.291 Q126.529 401.486 120.88 407.249 Z" fill="#000000" fill-rule="nonzero" fill-opacity="1" /><path clip-path="url(#clip620)" d="M147.153 410.467 L147.153 406.208 Q148.913 407.041 150.718 407.481 Q152.524 407.921 154.26 407.921 Q158.89 407.921 161.32 404.819 Q163.774 401.694 164.121 395.351 Q162.778 397.342 160.718 398.407 Q158.658 399.472 156.158 399.472 Q150.973 399.472 147.941 396.347 Q144.931 393.199 144.931 387.759 Q144.931 382.435 148.079 379.217 Q151.228 376 156.459 376 Q162.454 376 165.602 380.606 Q168.774 385.189 168.774 393.939 Q168.774 402.111 164.885 406.995 Q161.019 411.856 154.468 411.856 Q152.709 411.856 150.903 411.509 Q149.098 411.161 147.153 410.467 M156.459 395.814 Q159.607 395.814 161.436 393.662 Q163.288 391.509 163.288 387.759 Q163.288 384.032 161.436 381.879 Q159.607 379.703 156.459 379.703 Q153.311 379.703 151.459 381.879 Q149.63 384.032 149.63 387.759 Q149.63 391.509 151.459 393.662 Q153.311 395.814 156.459 395.814 Z" fill="#000000" fill-rule="nonzero" fill-opacity="1" /><path clip-path="url(#clip620)" d="M177.176 405.305 L182.061 405.305 L182.061 411.185 L177.176 411.185 L177.176 405.305 Z" fill="#000000" fill-rule="nonzero" fill-opacity="1" /><path clip-path="url(#clip620)" d="M192.292 376.625 L210.649 376.625 L210.649 380.56 L196.575 380.56 L196.575 389.032 Q197.593 388.685 198.612 388.523 Q199.63 388.338 200.649 388.338 Q206.436 388.338 209.815 391.509 Q213.195 394.68 213.195 400.097 Q213.195 405.675 209.723 408.777 Q206.25 411.856 199.931 411.856 Q197.755 411.856 195.487 411.486 Q193.241 411.115 190.834 410.374 L190.834 405.675 Q192.917 406.81 195.139 407.365 Q197.362 407.921 199.838 407.921 Q203.843 407.921 206.181 405.814 Q208.519 403.708 208.519 400.097 Q208.519 396.486 206.181 394.379 Q203.843 392.273 199.838 392.273 Q197.963 392.273 196.088 392.689 Q194.237 393.106 192.292 393.986 L192.292 376.625 Z" fill="#000000" fill-rule="nonzero" fill-opacity="1" /><path clip-path="url(#clip620)" d="M130.024 180.414 Q133.38 181.131 135.255 183.4 Q137.154 185.668 137.154 189.002 Q137.154 194.117 133.635 196.918 Q130.117 199.719 123.635 199.719 Q121.459 199.719 119.144 199.279 Q116.853 198.863 114.399 198.006 L114.399 193.492 Q116.343 194.627 118.658 195.205 Q120.973 195.784 123.496 195.784 Q127.894 195.784 130.186 194.048 Q132.501 192.312 132.501 189.002 Q132.501 185.946 130.348 184.233 Q128.218 182.497 124.399 182.497 L120.371 182.497 L120.371 178.654 L124.584 178.654 Q128.033 178.654 129.862 177.289 Q131.691 175.9 131.691 173.307 Q131.691 170.645 129.792 169.233 Q127.917 167.798 124.399 167.798 Q122.478 167.798 120.279 168.215 Q118.08 168.631 115.441 169.511 L115.441 165.344 Q118.103 164.604 120.418 164.233 Q122.755 163.863 124.816 163.863 Q130.14 163.863 133.242 166.293 Q136.343 168.701 136.343 172.821 Q136.343 175.692 134.7 177.682 Q133.056 179.65 130.024 180.414 Z" fill="#000000" fill-rule="nonzero" fill-opacity="1" /><path clip-path="url(#clip620)" d="M156.019 167.567 Q152.408 167.567 150.579 171.131 Q148.774 174.673 148.774 181.803 Q148.774 188.909 150.579 192.474 Q152.408 196.015 156.019 196.015 Q159.653 196.015 161.459 192.474 Q163.288 188.909 163.288 181.803 Q163.288 174.673 161.459 171.131 Q159.653 167.567 156.019 167.567 M156.019 163.863 Q161.829 163.863 164.885 168.469 Q167.964 173.053 167.964 181.803 Q167.964 190.529 164.885 195.136 Q161.829 199.719 156.019 199.719 Q150.209 199.719 147.13 195.136 Q144.075 190.529 144.075 181.803 Q144.075 173.053 147.13 168.469 Q150.209 163.863 156.019 163.863 Z" fill="#000000" fill-rule="nonzero" fill-opacity="1" /><path clip-path="url(#clip620)" d="M176.181 193.168 L181.065 193.168 L181.065 199.048 L176.181 199.048 L176.181 193.168 Z" fill="#000000" fill-rule="nonzero" fill-opacity="1" /><path clip-path="url(#clip620)" d="M201.25 167.567 Q197.639 167.567 195.811 171.131 Q194.005 174.673 194.005 181.803 Q194.005 188.909 195.811 192.474 Q197.639 196.015 201.25 196.015 Q204.885 196.015 206.69 192.474 Q208.519 188.909 208.519 181.803 Q208.519 174.673 206.69 171.131 Q204.885 167.567 201.25 167.567 M201.25 163.863 Q207.061 163.863 210.116 168.469 Q213.195 173.053 213.195 181.803 Q213.195 190.529 210.116 195.136 Q207.061 199.719 201.25 199.719 Q195.44 199.719 192.362 195.136 Q189.306 190.529 189.306 181.803 Q189.306 173.053 192.362 168.469 Q195.44 163.863 201.25 163.863 Z" fill="#000000" fill-rule="nonzero" fill-opacity="1" /><path clip-path="url(#clip620)" d="M16.4842 923.811 L16.4842 883.612 L21.895 883.612 L21.895 900.481 L64.0042 900.481 L64.0042 906.942 L21.895 906.942 L21.895 923.811 L16.4842 923.811 Z" fill="#000000" fill-rule="nonzero" fill-opacity="1" /><path clip-path="url(#clip620)" d="M28.3562 879.665 L28.3562 873.809 L64.0042 873.809 L64.0042 879.665 L28.3562 879.665 M14.479 879.665 L14.479 873.809 L21.895 873.809 L21.895 879.665 L14.479 879.665 Z" fill="#000000" fill-rule="nonzero" fill-opacity="1" /><path clip-path="url(#clip620)" d="M35.1993 833.8 Q31.2526 831.604 29.3747 828.548 Q27.4968 825.493 27.4968 821.355 Q27.4968 815.785 31.4117 812.762 Q35.2948 809.738 42.4881 809.738 L64.0042 809.738 L64.0042 815.626 L42.679 815.626 Q37.5546 815.626 35.072 817.44 Q32.5894 819.255 32.5894 822.978 Q32.5894 827.53 35.6131 830.172 Q38.6368 832.814 43.8567 832.814 L64.0042 832.814 L64.0042 838.702 L42.679 838.702 Q37.5228 838.702 35.072 840.516 Q32.5894 842.33 32.5894 846.118 Q32.5894 850.606 35.6449 853.247 Q38.6686 855.889 43.8567 855.889 L64.0042 855.889 L64.0042 861.777 L28.3562 861.777 L28.3562 855.889 L33.8944 855.889 Q30.616 853.884 29.0564 851.083 Q27.4968 848.282 27.4968 844.431 Q27.4968 840.548 29.4702 837.842 Q31.4436 835.105 35.1993 833.8 Z" fill="#000000" fill-rule="nonzero" fill-opacity="1" /><path clip-path="url(#clip620)" d="M44.7161 767.565 L47.5806 767.565 L47.5806 794.492 Q53.6281 794.11 56.8109 790.864 Q59.9619 787.585 59.9619 781.761 Q59.9619 778.387 59.1344 775.236 Q58.3069 772.053 56.6518 768.934 L62.1899 768.934 Q63.5267 772.085 64.227 775.395 Q64.9272 778.705 64.9272 782.111 Q64.9272 790.641 59.9619 795.638 Q54.9967 800.603 46.5303 800.603 Q37.7774 800.603 32.6531 795.892 Q27.4968 791.15 27.4968 783.129 Q27.4968 775.936 32.1438 771.766 Q36.7589 767.565 44.7161 767.565 M42.9973 773.421 Q38.1912 773.485 35.3266 776.127 Q32.4621 778.737 32.4621 783.066 Q32.4621 787.967 35.2312 790.927 Q38.0002 793.855 43.0292 794.301 L42.9973 773.421 Z" fill="#000000" fill-rule="nonzero" fill-opacity="1" /><path clip-path="url(#clip620)" d="M14.5426 723.164 Q21.8632 727.429 29.0246 729.498 Q36.186 731.567 43.5384 731.567 Q50.8908 731.567 58.1159 729.498 Q65.3091 727.397 72.5979 723.164 L72.5979 728.257 Q65.1182 733.031 57.8931 735.418 Q50.668 737.774 43.5384 737.774 Q36.4406 737.774 29.2474 735.418 Q22.0542 733.063 14.5426 728.257 L14.5426 723.164 Z" fill="#000000" fill-rule="nonzero" fill-opacity="1" /><path clip-path="url(#clip620)" d="M42.4881 682.169 L64.0042 682.169 L64.0042 688.026 L42.679 688.026 Q37.6183 688.026 35.1038 689.999 Q32.5894 691.972 32.5894 695.919 Q32.5894 700.661 35.6131 703.399 Q38.6368 706.136 43.8567 706.136 L64.0042 706.136 L64.0042 712.024 L28.3562 712.024 L28.3562 706.136 L33.8944 706.136 Q30.6797 704.035 29.0883 701.203 Q27.4968 698.338 27.4968 694.614 Q27.4968 688.471 31.3163 685.32 Q35.1038 682.169 42.4881 682.169 Z" fill="#000000" fill-rule="nonzero" fill-opacity="1" /><path clip-path="url(#clip620)" d="M29.4065 647.762 L34.9447 647.762 Q33.6716 650.245 33.035 652.919 Q32.3984 655.592 32.3984 658.457 Q32.3984 662.817 33.7352 665.013 Q35.072 667.178 37.7456 667.178 Q39.7826 667.178 40.9603 665.618 Q42.1061 664.059 43.1565 659.348 L43.6021 657.343 Q44.9389 651.104 47.3897 648.494 Q49.8086 645.853 54.1691 645.853 Q59.1344 645.853 62.0308 649.799 Q64.9272 653.714 64.9272 660.589 Q64.9272 663.454 64.3543 666.573 Q63.8132 669.66 62.6992 673.098 L56.6518 673.098 Q58.3387 669.851 59.198 666.7 Q60.0256 663.549 60.0256 660.462 Q60.0256 656.324 58.6251 654.096 Q57.1929 651.868 54.6147 651.868 Q52.2276 651.868 50.9545 653.492 Q49.6813 655.083 48.5037 660.526 L48.0262 662.563 Q46.8804 668.005 44.5251 670.424 Q42.138 672.843 38.0002 672.843 Q32.9713 672.843 30.2341 669.279 Q27.4968 665.714 27.4968 659.157 Q27.4968 655.911 27.9743 653.046 Q28.4517 650.181 29.4065 647.762 Z" fill="#000000" fill-rule="nonzero" fill-opacity="1" /><path clip-path="url(#clip620)" d="M14.5426 637.45 L14.5426 632.357 Q22.0542 627.583 29.2474 625.228 Q36.4406 622.841 43.5384 622.841 Q50.668 622.841 57.8931 625.228 Q65.1182 627.583 72.5979 632.357 L72.5979 637.45 Q65.3091 633.217 58.1159 631.148 Q50.8908 629.047 43.5384 629.047 Q36.186 629.047 29.0246 631.148 Q21.8632 633.217 14.5426 637.45 Z" fill="#000000" fill-rule="nonzero" fill-opacity="1" /><path clip-path="url(#clip620)" d="M707.356 12.096 L758.519 12.096 L758.519 18.9825 L737.049 18.9825 L737.049 72.576 L728.826 72.576 L728.826 18.9825 L707.356 18.9825 L707.356 12.096 Z" fill="#000000" fill-rule="nonzero" fill-opacity="1" /><path clip-path="url(#clip620)" d="M763.542 27.2059 L770.996 27.2059 L770.996 72.576 L763.542 72.576 L763.542 27.2059 M763.542 9.54393 L770.996 9.54393 L770.996 18.9825 L763.542 18.9825 L763.542 9.54393 Z" fill="#000000" fill-rule="nonzero" fill-opacity="1" /><path clip-path="url(#clip620)" d="M821.915 35.9153 Q824.711 30.8922 828.599 28.5022 Q832.488 26.1121 837.754 26.1121 Q844.844 26.1121 848.692 31.0947 Q852.54 36.0368 852.54 45.1919 L852.54 72.576 L845.046 72.576 L845.046 45.4349 Q845.046 38.913 842.737 35.7533 Q840.428 32.5936 835.689 32.5936 Q829.896 32.5936 826.533 36.4419 Q823.171 40.2903 823.171 46.9338 L823.171 72.576 L815.677 72.576 L815.677 45.4349 Q815.677 38.8725 813.368 35.7533 Q811.059 32.5936 806.238 32.5936 Q800.527 32.5936 797.164 36.4824 Q793.802 40.3308 793.802 46.9338 L793.802 72.576 L786.308 72.576 L786.308 27.2059 L793.802 27.2059 L793.802 34.2544 Q796.354 30.082 799.919 28.0971 Q803.484 26.1121 808.385 26.1121 Q813.328 26.1121 816.771 28.6237 Q820.255 31.1352 821.915 35.9153 Z" fill="#000000" fill-rule="nonzero" fill-opacity="1" /><path clip-path="url(#clip620)" d="M906.215 48.0275 L906.215 51.6733 L871.944 51.6733 Q872.43 59.3701 876.562 63.421 Q880.735 67.4314 888.148 67.4314 Q892.442 67.4314 896.452 66.3781 Q900.503 65.3249 904.473 63.2184 L904.473 70.267 Q900.462 71.9684 896.25 72.8596 Q892.037 73.7508 887.702 73.7508 Q876.846 73.7508 870.486 67.4314 Q864.166 61.1119 864.166 50.3365 Q864.166 39.1965 870.162 32.6746 Q876.198 26.1121 886.406 26.1121 Q895.561 26.1121 900.868 32.0264 Q906.215 37.9003 906.215 48.0275 M898.761 45.84 Q898.68 39.7232 895.318 36.0774 Q891.996 32.4315 886.487 32.4315 Q880.248 32.4315 876.481 35.9558 Q872.754 39.4801 872.187 45.8805 L898.761 45.84 Z" fill="#000000" fill-rule="nonzero" fill-opacity="1" /><path clip-path="url(#clip620)" d="M952.193 14.324 L952.193 27.2059 L967.545 27.2059 L967.545 32.9987 L952.193 32.9987 L952.193 57.6282 Q952.193 63.1779 953.691 64.7578 Q955.231 66.3376 959.889 66.3376 L967.545 66.3376 L967.545 72.576 L959.889 72.576 Q951.261 72.576 947.98 69.3758 Q944.698 66.1351 944.698 57.6282 L944.698 32.9987 L939.23 32.9987 L939.23 27.2059 L944.698 27.2059 L944.698 14.324 L952.193 14.324 Z" fill="#000000" fill-rule="nonzero" fill-opacity="1" /><path clip-path="url(#clip620)" d="M994.93 32.4315 Q988.934 32.4315 985.45 37.1306 Q981.967 41.7891 981.967 49.9314 Q981.967 58.0738 985.41 62.7728 Q988.894 67.4314 994.93 67.4314 Q1000.88 67.4314 1004.37 62.7323 Q1007.85 58.0333 1007.85 49.9314 Q1007.85 41.8701 1004.37 37.1711 Q1000.88 32.4315 994.93 32.4315 M994.93 26.1121 Q1004.65 26.1121 1010.2 32.4315 Q1015.75 38.7509 1015.75 49.9314 Q1015.75 61.0714 1010.2 67.4314 Q1004.65 73.7508 994.93 73.7508 Q985.167 73.7508 979.617 67.4314 Q974.108 61.0714 974.108 49.9314 Q974.108 38.7509 979.617 32.4315 Q985.167 26.1121 994.93 26.1121 Z" fill="#000000" fill-rule="nonzero" fill-opacity="1" /><path clip-path="url(#clip620)" d="M1087.13 28.9478 L1087.13 35.9153 Q1083.97 34.1734 1080.77 33.3227 Q1077.61 32.4315 1074.37 32.4315 Q1067.12 32.4315 1063.11 37.0496 Q1059.1 41.6271 1059.1 49.9314 Q1059.1 58.2358 1063.11 62.8538 Q1067.12 67.4314 1074.37 67.4314 Q1077.61 67.4314 1080.77 66.5807 Q1083.97 65.6895 1087.13 63.9476 L1087.13 70.8341 Q1084.01 72.2924 1080.65 73.0216 Q1077.32 73.7508 1073.56 73.7508 Q1063.31 73.7508 1057.27 67.3098 Q1051.24 60.8689 1051.24 49.9314 Q1051.24 38.832 1057.31 32.472 Q1063.43 26.1121 1074.04 26.1121 Q1077.49 26.1121 1080.77 26.8413 Q1084.05 27.5299 1087.13 28.9478 Z" fill="#000000" fill-rule="nonzero" fill-opacity="1" /><path clip-path="url(#clip620)" d="M1117.67 32.4315 Q1111.68 32.4315 1108.19 37.1306 Q1104.71 41.7891 1104.71 49.9314 Q1104.71 58.0738 1108.15 62.7728 Q1111.64 67.4314 1117.67 67.4314 Q1123.63 67.4314 1127.11 62.7323 Q1130.59 58.0333 1130.59 49.9314 Q1130.59 41.8701 1127.11 37.1711 Q1123.63 32.4315 1117.67 32.4315 M1117.67 26.1121 Q1127.39 26.1121 1132.94 32.4315 Q1138.49 38.7509 1138.49 49.9314 Q1138.49 61.0714 1132.94 67.4314 Q1127.39 73.7508 1117.67 73.7508 Q1107.91 73.7508 1102.36 67.4314 Q1096.85 61.0714 1096.85 49.9314 Q1096.85 38.7509 1102.36 32.4315 Q1107.91 26.1121 1117.67 26.1121 Z" fill="#000000" fill-rule="nonzero" fill-opacity="1" /><path clip-path="url(#clip620)" d="M1186.17 35.9153 Q1188.97 30.8922 1192.86 28.5022 Q1196.75 26.1121 1202.01 26.1121 Q1209.1 26.1121 1212.95 31.0947 Q1216.8 36.0368 1216.8 45.1919 L1216.8 72.576 L1209.3 72.576 L1209.3 45.4349 Q1209.3 38.913 1206.99 35.7533 Q1204.69 32.5936 1199.95 32.5936 Q1194.15 32.5936 1190.79 36.4419 Q1187.43 40.2903 1187.43 46.9338 L1187.43 72.576 L1179.93 72.576 L1179.93 45.4349 Q1179.93 38.8725 1177.63 35.7533 Q1175.32 32.5936 1170.5 32.5936 Q1164.78 32.5936 1161.42 36.4824 Q1158.06 40.3308 1158.06 46.9338 L1158.06 72.576 L1150.57 72.576 L1150.57 27.2059 L1158.06 27.2059 L1158.06 34.2544 Q1160.61 30.082 1164.18 28.0971 Q1167.74 26.1121 1172.64 26.1121 Q1177.58 26.1121 1181.03 28.6237 Q1184.51 31.1352 1186.17 35.9153 Z" fill="#000000" fill-rule="nonzero" fill-opacity="1" /><path clip-path="url(#clip620)" d="M1238.87 65.7705 L1238.87 89.8329 L1231.38 89.8329 L1231.38 27.2059 L1238.87 27.2059 L1238.87 34.0924 Q1241.22 30.0415 1244.79 28.0971 Q1248.39 26.1121 1253.38 26.1121 Q1261.64 26.1121 1266.79 32.6746 Q1271.97 39.2371 1271.97 49.9314 Q1271.97 60.6258 1266.79 67.1883 Q1261.64 73.7508 1253.38 73.7508 Q1248.39 73.7508 1244.79 71.8063 Q1241.22 69.8214 1238.87 65.7705 M1264.23 49.9314 Q1264.23 41.7081 1260.83 37.0496 Q1257.47 32.3505 1251.55 32.3505 Q1245.64 32.3505 1242.24 37.0496 Q1238.87 41.7081 1238.87 49.9314 Q1238.87 58.1548 1242.24 62.8538 Q1245.64 67.5124 1251.55 67.5124 Q1257.47 67.5124 1260.83 62.8538 Q1264.23 58.1548 1264.23 49.9314 Z" fill="#000000" fill-rule="nonzero" fill-opacity="1" /><path clip-path="url(#clip620)" d="M1283.56 54.671 L1283.56 27.2059 L1291.01 27.2059 L1291.01 54.3874 Q1291.01 60.8284 1293.52 64.0691 Q1296.03 67.2693 1301.06 67.2693 Q1307.09 67.2693 1310.58 63.421 Q1314.1 59.5726 1314.1 52.9291 L1314.1 27.2059 L1321.55 27.2059 L1321.55 72.576 L1314.1 72.576 L1314.1 65.6084 Q1311.39 69.7404 1307.78 71.7658 Q1304.22 73.7508 1299.48 73.7508 Q1291.66 73.7508 1287.61 68.8897 Q1283.56 64.0286 1283.56 54.671 M1302.31 26.1121 L1302.31 26.1121 Z" fill="#000000" fill-rule="nonzero" fill-opacity="1" /><path clip-path="url(#clip620)" d="M1344.28 14.324 L1344.28 27.2059 L1359.63 27.2059 L1359.63 32.9987 L1344.28 32.9987 L1344.28 57.6282 Q1344.28 63.1779 1345.78 64.7578 Q1347.32 66.3376 1351.98 66.3376 L1359.63 66.3376 L1359.63 72.576 L1351.98 72.576 Q1343.35 72.576 1340.07 69.3758 Q1336.79 66.1351 1336.79 57.6282 L1336.79 32.9987 L1331.32 32.9987 L1331.32 27.2059 L1336.79 27.2059 L1336.79 14.324 L1344.28 14.324 Z" fill="#000000" fill-rule="nonzero" fill-opacity="1" /><path clip-path="url(#clip620)" d="M1408.24 48.0275 L1408.24 51.6733 L1373.97 51.6733 Q1374.46 59.3701 1378.59 63.421 Q1382.76 67.4314 1390.18 67.4314 Q1394.47 67.4314 1398.48 66.3781 Q1402.53 65.3249 1406.5 63.2184 L1406.5 70.267 Q1402.49 71.9684 1398.28 72.8596 Q1394.07 73.7508 1389.73 73.7508 Q1378.87 73.7508 1372.51 67.4314 Q1366.19 61.1119 1366.19 50.3365 Q1366.19 39.1965 1372.19 32.6746 Q1378.23 26.1121 1388.43 26.1121 Q1397.59 26.1121 1402.9 32.0264 Q1408.24 37.9003 1408.24 48.0275 M1400.79 45.84 Q1400.71 39.7232 1397.35 36.0774 Q1394.02 32.4315 1388.52 32.4315 Q1382.28 32.4315 1378.51 35.9558 Q1374.78 39.4801 1374.22 45.8805 L1400.79 45.84 Z" fill="#000000" fill-rule="nonzero" fill-opacity="1" /><path clip-path="url(#clip620)" d="M1447.17 12.096 L1455.36 12.096 L1455.36 65.6895 L1484.81 65.6895 L1484.81 72.576 L1447.17 72.576 L1447.17 12.096 Z" fill="#000000" fill-rule="nonzero" fill-opacity="1" /><path clip-path="url(#clip620)" d="M1530.42 48.0275 L1530.42 51.6733 L1496.15 51.6733 Q1496.63 59.3701 1500.77 63.421 Q1504.94 67.4314 1512.35 67.4314 Q1516.65 67.4314 1520.66 66.3781 Q1524.71 65.3249 1528.68 63.2184 L1528.68 70.267 Q1524.67 71.9684 1520.45 72.8596 Q1516.24 73.7508 1511.91 73.7508 Q1501.05 73.7508 1494.69 67.4314 Q1488.37 61.1119 1488.37 50.3365 Q1488.37 39.1965 1494.37 32.6746 Q1500.4 26.1121 1510.61 26.1121 Q1519.76 26.1121 1525.07 32.0264 Q1530.42 37.9003 1530.42 48.0275 M1522.96 45.84 Q1522.88 39.7232 1519.52 36.0774 Q1516.2 32.4315 1510.69 32.4315 Q1504.45 32.4315 1500.68 35.9558 Q1496.96 39.4801 1496.39 45.8805 L1522.96 45.84 Z" fill="#000000" fill-rule="nonzero" fill-opacity="1" /><path clip-path="url(#clip620)" d="M1580.37 45.1919 L1580.37 72.576 L1572.91 72.576 L1572.91 45.4349 Q1572.91 38.994 1570.4 35.7938 Q1567.89 32.5936 1562.87 32.5936 Q1556.83 32.5936 1553.35 36.4419 Q1549.86 40.2903 1549.86 46.9338 L1549.86 72.576 L1542.37 72.576 L1542.37 27.2059 L1549.86 27.2059 L1549.86 34.2544 Q1552.54 30.163 1556.14 28.1376 Q1559.79 26.1121 1564.53 26.1121 Q1572.35 26.1121 1576.36 30.9732 Q1580.37 35.7938 1580.37 45.1919 Z" fill="#000000" fill-rule="nonzero" fill-opacity="1" /><path clip-path="url(#clip620)" d="M1625.09 49.3643 Q1625.09 41.2625 1621.73 36.8065 Q1618.4 32.3505 1612.37 32.3505 Q1606.37 32.3505 1603.01 36.8065 Q1599.69 41.2625 1599.69 49.3643 Q1599.69 57.4256 1603.01 61.8816 Q1606.37 66.3376 1612.37 66.3376 Q1618.4 66.3376 1621.73 61.8816 Q1625.09 57.4256 1625.09 49.3643 M1632.54 66.9452 Q1632.54 78.5308 1627.4 84.1616 Q1622.25 89.8329 1611.64 89.8329 Q1607.71 89.8329 1604.23 89.2252 Q1600.74 88.6581 1597.46 87.4428 L1597.46 80.1917 Q1600.74 81.9741 1603.94 82.8248 Q1607.14 83.6755 1610.46 83.6755 Q1617.8 83.6755 1621.44 79.8271 Q1625.09 76.0193 1625.09 68.282 L1625.09 64.5957 Q1622.78 68.6061 1619.17 70.5911 Q1615.57 72.576 1610.55 72.576 Q1602.2 72.576 1597.1 66.2161 Q1591.99 59.8562 1591.99 49.3643 Q1591.99 38.832 1597.1 32.472 Q1602.2 26.1121 1610.55 26.1121 Q1615.57 26.1121 1619.17 28.0971 Q1622.78 30.082 1625.09 34.0924 L1625.09 27.2059 L1632.54 27.2059 L1632.54 66.9452 Z" fill="#000000" fill-rule="nonzero" fill-opacity="1" /><path clip-path="url(#clip620)" d="M1655.27 14.324 L1655.27 27.2059 L1670.62 27.2059 L1670.62 32.9987 L1655.27 32.9987 L1655.27 57.6282 Q1655.27 63.1779 1656.77 64.7578 Q1658.31 66.3376 1662.96 66.3376 L1670.62 66.3376 L1670.62 72.576 L1662.96 72.576 Q1654.34 72.576 1651.05 69.3758 Q1647.77 66.1351 1647.77 57.6282 L1647.77 32.9987 L1642.3 32.9987 L1642.3 27.2059 L1647.77 27.2059 L1647.77 14.324 L1655.27 14.324 Z" fill="#000000" fill-rule="nonzero" fill-opacity="1" /><path clip-path="url(#clip620)" d="M1718.14 45.1919 L1718.14 72.576 L1710.68 72.576 L1710.68 45.4349 Q1710.68 38.994 1708.17 35.7938 Q1705.66 32.5936 1700.64 32.5936 Q1694.6 32.5936 1691.12 36.4419 Q1687.63 40.2903 1687.63 46.9338 L1687.63 72.576 L1680.14 72.576 L1680.14 9.54393 L1687.63 9.54393 L1687.63 34.2544 Q1690.31 30.163 1693.91 28.1376 Q1697.56 26.1121 1702.3 26.1121 Q1710.12 26.1121 1714.13 30.9732 Q1718.14 35.7938 1718.14 45.1919 Z" fill="#000000" fill-rule="nonzero" fill-opacity="1" /><path clip-path="url(#clip620)" d="M1759.7 12.096 L1767.88 12.096 L1767.88 65.6895 L1797.33 65.6895 L1797.33 72.576 L1759.7 72.576 L1759.7 12.096 Z" fill="#000000" fill-rule="nonzero" fill-opacity="1" /><path clip-path="url(#clip620)" d="M1805.6 27.2059 L1813.05 27.2059 L1813.05 72.576 L1805.6 72.576 L1805.6 27.2059 M1805.6 9.54393 L1813.05 9.54393 L1813.05 18.9825 L1805.6 18.9825 L1805.6 9.54393 Z" fill="#000000" fill-rule="nonzero" fill-opacity="1" /><path clip-path="url(#clip620)" d="M1857.57 28.5427 L1857.57 35.5912 Q1854.41 33.9709 1851.01 33.1607 Q1847.6 32.3505 1843.96 32.3505 Q1838.41 32.3505 1835.61 34.0519 Q1832.86 35.7533 1832.86 39.156 Q1832.86 41.7486 1834.84 43.2475 Q1836.83 44.7058 1842.82 46.0426 L1845.38 46.6097 Q1853.32 48.3111 1856.64 51.4303 Q1860 54.509 1860 60.0587 Q1860 66.3781 1854.98 70.0644 Q1849.99 73.7508 1841.24 73.7508 Q1837.6 73.7508 1833.63 73.0216 Q1829.7 72.3329 1825.32 70.9151 L1825.32 63.2184 Q1829.46 65.3654 1833.47 66.4591 Q1837.48 67.5124 1841.41 67.5124 Q1846.67 67.5124 1849.51 65.73 Q1852.34 63.9071 1852.34 60.6258 Q1852.34 57.5877 1850.28 55.9673 Q1848.25 54.3469 1841.33 52.8481 L1838.73 52.2405 Q1831.81 50.7821 1828.73 47.7845 Q1825.65 44.7463 1825.65 39.4801 Q1825.65 33.0797 1830.19 29.5959 Q1834.72 26.1121 1843.07 26.1121 Q1847.2 26.1121 1850.85 26.7198 Q1854.49 27.3274 1857.57 28.5427 Z" fill="#000000" fill-rule="nonzero" fill-opacity="1" /><path clip-path="url(#clip620)" d="M1879.24 14.324 L1879.24 27.2059 L1894.59 27.2059 L1894.59 32.9987 L1879.24 32.9987 L1879.24 57.6282 Q1879.24 63.1779 1880.74 64.7578 Q1882.28 66.3376 1886.94 66.3376 L1894.59 66.3376 L1894.59 72.576 L1886.94 72.576 Q1878.31 72.576 1875.03 69.3758 Q1871.75 66.1351 1871.75 57.6282 L1871.75 32.9987 L1866.28 32.9987 L1866.28 27.2059 L1871.75 27.2059 L1871.75 14.324 L1879.24 14.324 Z" fill="#000000" fill-rule="nonzero" fill-opacity="1" /><polyline clip-path="url(#clip622)" style="stroke:#009af9; stroke-linecap:round; stroke-linejoin:round; stroke-width:4; stroke-opacity:1; fill:none" points="308.73,1055.47 317.664,622.711 357.374,1386.4 407.011,1000.31 456.648,817.874 506.285,643.924 555.922,788.175 605.559,546.342 655.197,160.256 704.834,427.545 804.108,983.338 1300.48,896.476 2293.22,523.572 "/>
<circle clip-path="url(#clip622)" cx="308.73" cy="1055.47" r="14.4" fill="#e26f46" fill-rule="evenodd" fill-opacity="1" stroke="#000000" stroke-opacity="1" stroke-width="3.2"/>
<circle clip-path="url(#clip622)" cx="317.664" cy="622.711" r="14.4" fill="#e26f46" fill-rule="evenodd" fill-opacity="1" stroke="#000000" stroke-opacity="1" stroke-width="3.2"/>
<circle clip-path="url(#clip622)" cx="357.374" cy="1386.4" r="14.4" fill="#e26f46" fill-rule="evenodd" fill-opacity="1" stroke="#000000" stroke-opacity="1" stroke-width="3.2"/>
<circle clip-path="url(#clip622)" cx="407.011" cy="1000.31" r="14.4" fill="#e26f46" fill-rule="evenodd" fill-opacity="1" stroke="#000000" stroke-opacity="1" stroke-width="3.2"/>
<circle clip-path="url(#clip622)" cx="456.648" cy="817.874" r="14.4" fill="#e26f46" fill-rule="evenodd" fill-opacity="1" stroke="#000000" stroke-opacity="1" stroke-width="3.2"/>
<circle clip-path="url(#clip622)" cx="506.285" cy="643.924" r="14.4" fill="#e26f46" fill-rule="evenodd" fill-opacity="1" stroke="#000000" stroke-opacity="1" stroke-width="3.2"/>
<circle clip-path="url(#clip622)" cx="555.922" cy="788.175" r="14.4" fill="#e26f46" fill-rule="evenodd" fill-opacity="1" stroke="#000000" stroke-opacity="1" stroke-width="3.2"/>
<circle clip-path="url(#clip622)" cx="605.559" cy="546.342" r="14.4" fill="#e26f46" fill-rule="evenodd" fill-opacity="1" stroke="#000000" stroke-opacity="1" stroke-width="3.2"/>
<circle clip-path="url(#clip622)" cx="655.197" cy="160.256" r="14.4" fill="#e26f46" fill-rule="evenodd" fill-opacity="1" stroke="#000000" stroke-opacity="1" stroke-width="3.2"/>
<circle clip-path="url(#clip622)" cx="704.834" cy="427.545" r="14.4" fill="#e26f46" fill-rule="evenodd" fill-opacity="1" stroke="#000000" stroke-opacity="1" stroke-width="3.2"/>
<circle clip-path="url(#clip622)" cx="804.108" cy="983.338" r="14.4" fill="#e26f46" fill-rule="evenodd" fill-opacity="1" stroke="#000000" stroke-opacity="1" stroke-width="3.2"/>
<circle clip-path="url(#clip622)" cx="1300.48" cy="896.476" r="14.4" fill="#e26f46" fill-rule="evenodd" fill-opacity="1" stroke="#000000" stroke-opacity="1" stroke-width="3.2"/>
<circle clip-path="url(#clip622)" cx="2293.22" cy="523.572" r="14.4" fill="#e26f46" fill-rule="evenodd" fill-opacity="1" stroke="#000000" stroke-opacity="1" stroke-width="3.2"/>
</svg>
