<?xml version="1.0" encoding="utf-8"?>
<svg xmlns="http://www.w3.org/2000/svg" xmlns:xlink="http://www.w3.org/1999/xlink" width="600" height="400" viewBox="0 0 2400 1600">
<defs>
  <clipPath id="clip130">
    <rect x="0" y="0" width="2400" height="1600"/>
  </clipPath>
</defs>
<path clip-path="url(#clip130)" d="M0 1600 L2400 1600 L2400 0 L0 0  Z" fill="#ffffff" fill-rule="evenodd" fill-opacity="1"/>
<defs>
  <clipPath id="clip131">
    <rect x="480" y="0" width="1681" height="1600"/>
  </clipPath>
</defs>
<path clip-path="url(#clip130)" d="M369.518 1423.18 L2352.76 1423.18 L2352.76 123.472 L369.518 123.472  Z" fill="#ffffff" fill-rule="evenodd" fill-opacity="1"/>
<defs>
  <clipPath id="clip132">
    <rect x="369" y="123" width="1984" height="1301"/>
  </clipPath>
</defs>
<polyline clip-path="url(#clip132)" style="stroke:#000000; stroke-linecap:round; stroke-linejoin:round; stroke-width:2; stroke-opacity:0.1; fill:none" points="425.46,1423.18 425.46,123.472 "/>
<polyline clip-path="url(#clip132)" style="stroke:#000000; stroke-linecap:round; stroke-linejoin:round; stroke-width:2; stroke-opacity:0.1; fill:none" points="893.252,1423.18 893.252,123.472 "/>
<polyline clip-path="url(#clip132)" style="stroke:#000000; stroke-linecap:round; stroke-linejoin:round; stroke-width:2; stroke-opacity:0.1; fill:none" points="1361.04,1423.18 1361.04,123.472 "/>
<polyline clip-path="url(#clip132)" style="stroke:#000000; stroke-linecap:round; stroke-linejoin:round; stroke-width:2; stroke-opacity:0.1; fill:none" points="1828.84,1423.18 1828.84,123.472 "/>
<polyline clip-path="url(#clip132)" style="stroke:#000000; stroke-linecap:round; stroke-linejoin:round; stroke-width:2; stroke-opacity:0.1; fill:none" points="2296.63,1423.18 2296.63,123.472 "/>
<polyline clip-path="url(#clip130)" style="stroke:#000000; stroke-linecap:round; stroke-linejoin:round; stroke-width:4; stroke-opacity:1; fill:none" points="369.518,1423.18 2352.76,1423.18 "/>
<polyline clip-path="url(#clip130)" style="stroke:#000000; stroke-linecap:round; stroke-linejoin:round; stroke-width:4; stroke-opacity:1; fill:none" points="425.46,1423.18 425.46,1404.28 "/>
<polyline clip-path="url(#clip130)" style="stroke:#000000; stroke-linecap:round; stroke-linejoin:round; stroke-width:4; stroke-opacity:1; fill:none" points="893.252,1423.18 893.252,1404.28 "/>
<polyline clip-path="url(#clip130)" style="stroke:#000000; stroke-linecap:round; stroke-linejoin:round; stroke-width:4; stroke-opacity:1; fill:none" points="1361.04,1423.18 1361.04,1404.28 "/>
<polyline clip-path="url(#clip130)" style="stroke:#000000; stroke-linecap:round; stroke-linejoin:round; stroke-width:4; stroke-opacity:1; fill:none" points="1828.84,1423.18 1828.84,1404.28 "/>
<polyline clip-path="url(#clip130)" style="stroke:#000000; stroke-linecap:round; stroke-linejoin:round; stroke-width:4; stroke-opacity:1; fill:none" points="2296.63,1423.18 2296.63,1404.28 "/>
<path clip-path="url(#clip130)" d="M425.46 1454.1 Q421.849 1454.1 420.021 1457.66 Q418.215 1461.2 418.215 1468.33 Q418.215 1475.44 420.021 1479.01 Q421.849 1482.55 425.46 1482.55 Q429.095 1482.55 430.9 1479.01 Q432.729 1475.44 432.729 1468.33 Q432.729 1461.2 430.9 1457.66 Q429.095 1454.1 425.46 1454.1 M425.46 1450.39 Q431.271 1450.39 434.326 1455 Q437.405 1459.58 437.405 1468.33 Q437.405 1477.06 434.326 1481.67 Q431.271 1486.25 425.46 1486.25 Q419.65 1486.25 416.572 1481.67 Q413.516 1477.06 413.516 1468.33 Q413.516 1459.58 416.572 1455 Q419.65 1450.39 425.46 1450.39 Z" fill="#000000" fill-rule="nonzero" fill-opacity="1" /><path clip-path="url(#clip130)" d="M841.863 1481.64 L858.183 1481.64 L858.183 1485.58 L836.238 1485.58 L836.238 1481.64 Q838.9 1478.89 843.484 1474.26 Q848.09 1469.61 849.271 1468.27 Q851.516 1465.74 852.396 1464.01 Q853.299 1462.25 853.299 1460.56 Q853.299 1457.8 851.354 1456.07 Q849.433 1454.33 846.331 1454.33 Q844.132 1454.33 841.678 1455.09 Q839.248 1455.86 836.47 1457.41 L836.47 1452.69 Q839.294 1451.55 841.748 1450.97 Q844.201 1450.39 846.238 1450.39 Q851.609 1450.39 854.803 1453.08 Q857.998 1455.77 857.998 1460.26 Q857.998 1462.39 857.187 1464.31 Q856.4 1466.2 854.294 1468.8 Q853.715 1469.47 850.613 1472.69 Q847.512 1475.88 841.863 1481.64 Z" fill="#000000" fill-rule="nonzero" fill-opacity="1" /><path clip-path="url(#clip130)" d="M868.044 1451.02 L886.4 1451.02 L886.4 1454.96 L872.326 1454.96 L872.326 1463.43 Q873.345 1463.08 874.363 1462.92 Q875.382 1462.73 876.4 1462.73 Q882.187 1462.73 885.567 1465.9 Q888.946 1469.08 888.946 1474.49 Q888.946 1480.07 885.474 1483.17 Q882.002 1486.25 875.683 1486.25 Q873.507 1486.25 871.238 1485.88 Q868.993 1485.51 866.585 1484.77 L866.585 1480.07 Q868.669 1481.2 870.891 1481.76 Q873.113 1482.32 875.59 1482.32 Q879.595 1482.32 881.933 1480.21 Q884.271 1478.1 884.271 1474.49 Q884.271 1470.88 881.933 1468.77 Q879.595 1466.67 875.59 1466.67 Q873.715 1466.67 871.84 1467.08 Q869.988 1467.5 868.044 1468.38 L868.044 1451.02 Z" fill="#000000" fill-rule="nonzero" fill-opacity="1" /><path clip-path="url(#clip130)" d="M908.159 1454.1 Q904.548 1454.1 902.72 1457.66 Q900.914 1461.2 900.914 1468.33 Q900.914 1475.44 902.72 1479.01 Q904.548 1482.55 908.159 1482.55 Q911.794 1482.55 913.599 1479.01 Q915.428 1475.44 915.428 1468.33 Q915.428 1461.2 913.599 1457.66 Q911.794 1454.1 908.159 1454.1 M908.159 1450.39 Q913.969 1450.39 917.025 1455 Q920.104 1459.58 920.104 1468.33 Q920.104 1477.06 917.025 1481.67 Q913.969 1486.25 908.159 1486.25 Q902.349 1486.25 899.27 1481.67 Q896.215 1477.06 896.215 1468.33 Q896.215 1459.58 899.27 1455 Q902.349 1450.39 908.159 1450.39 Z" fill="#000000" fill-rule="nonzero" fill-opacity="1" /><path clip-path="url(#clip130)" d="M938.321 1454.1 Q934.71 1454.1 932.881 1457.66 Q931.076 1461.2 931.076 1468.33 Q931.076 1475.44 932.881 1479.01 Q934.71 1482.55 938.321 1482.55 Q941.955 1482.55 943.761 1479.01 Q945.59 1475.44 945.59 1468.33 Q945.59 1461.2 943.761 1457.66 Q941.955 1454.1 938.321 1454.1 M938.321 1450.39 Q944.131 1450.39 947.187 1455 Q950.266 1459.58 950.266 1468.33 Q950.266 1477.06 947.187 1481.67 Q944.131 1486.25 938.321 1486.25 Q932.511 1486.25 929.432 1481.67 Q926.377 1477.06 926.377 1468.33 Q926.377 1459.58 929.432 1455 Q932.511 1450.39 938.321 1450.39 Z" fill="#000000" fill-rule="nonzero" fill-opacity="1" /><path clip-path="url(#clip130)" d="M1305.58 1451.02 L1323.94 1451.02 L1323.94 1454.96 L1309.86 1454.96 L1309.86 1463.43 Q1310.88 1463.08 1311.9 1462.92 Q1312.92 1462.73 1313.94 1462.73 Q1319.72 1462.73 1323.1 1465.9 Q1326.48 1469.08 1326.48 1474.49 Q1326.48 1480.07 1323.01 1483.17 Q1319.54 1486.25 1313.22 1486.25 Q1311.04 1486.25 1308.78 1485.88 Q1306.53 1485.51 1304.12 1484.77 L1304.12 1480.07 Q1306.21 1481.2 1308.43 1481.76 Q1310.65 1482.32 1313.13 1482.32 Q1317.13 1482.32 1319.47 1480.21 Q1321.81 1478.1 1321.81 1474.49 Q1321.81 1470.88 1319.47 1468.77 Q1317.13 1466.67 1313.13 1466.67 Q1311.25 1466.67 1309.38 1467.08 Q1307.53 1467.5 1305.58 1468.38 L1305.58 1451.02 Z" fill="#000000" fill-rule="nonzero" fill-opacity="1" /><path clip-path="url(#clip130)" d="M1345.7 1454.1 Q1342.09 1454.1 1340.26 1457.66 Q1338.45 1461.2 1338.45 1468.33 Q1338.45 1475.44 1340.26 1479.01 Q1342.09 1482.55 1345.7 1482.55 Q1349.33 1482.55 1351.14 1479.01 Q1352.96 1475.44 1352.96 1468.33 Q1352.96 1461.2 1351.14 1457.66 Q1349.33 1454.1 1345.7 1454.1 M1345.7 1450.39 Q1351.51 1450.39 1354.56 1455 Q1357.64 1459.58 1357.64 1468.33 Q1357.64 1477.06 1354.56 1481.67 Q1351.51 1486.25 1345.7 1486.25 Q1339.89 1486.25 1336.81 1481.67 Q1333.75 1477.06 1333.75 1468.33 Q1333.75 1459.58 1336.81 1455 Q1339.89 1450.39 1345.7 1450.39 Z" fill="#000000" fill-rule="nonzero" fill-opacity="1" /><path clip-path="url(#clip130)" d="M1375.86 1454.1 Q1372.25 1454.1 1370.42 1457.66 Q1368.61 1461.2 1368.61 1468.33 Q1368.61 1475.44 1370.42 1479.01 Q1372.25 1482.55 1375.86 1482.55 Q1379.49 1482.55 1381.3 1479.01 Q1383.13 1475.44 1383.13 1468.33 Q1383.13 1461.2 1381.3 1457.66 Q1379.49 1454.1 1375.86 1454.1 M1375.86 1450.39 Q1381.67 1450.39 1384.72 1455 Q1387.8 1459.58 1387.8 1468.33 Q1387.8 1477.06 1384.72 1481.67 Q1381.67 1486.25 1375.86 1486.25 Q1370.05 1486.25 1366.97 1481.67 Q1363.91 1477.06 1363.91 1468.33 Q1363.91 1459.58 1366.97 1455 Q1370.05 1450.39 1375.86 1450.39 Z" fill="#000000" fill-rule="nonzero" fill-opacity="1" /><path clip-path="url(#clip130)" d="M1406.02 1454.1 Q1402.41 1454.1 1400.58 1457.66 Q1398.77 1461.2 1398.77 1468.33 Q1398.77 1475.44 1400.58 1479.01 Q1402.41 1482.55 1406.02 1482.55 Q1409.65 1482.55 1411.46 1479.01 Q1413.29 1475.44 1413.29 1468.33 Q1413.29 1461.2 1411.46 1457.66 Q1409.65 1454.1 1406.02 1454.1 M1406.02 1450.39 Q1411.83 1450.39 1414.89 1455 Q1417.96 1459.58 1417.96 1468.33 Q1417.96 1477.06 1414.89 1481.67 Q1411.83 1486.25 1406.02 1486.25 Q1400.21 1486.25 1397.13 1481.67 Q1394.08 1477.06 1394.08 1468.33 Q1394.08 1459.58 1397.13 1455 Q1400.21 1450.39 1406.02 1450.39 Z" fill="#000000" fill-rule="nonzero" fill-opacity="1" /><path clip-path="url(#clip130)" d="M1772.03 1451.02 L1794.25 1451.02 L1794.25 1453.01 L1781.71 1485.58 L1776.82 1485.58 L1788.63 1454.96 L1772.03 1454.96 L1772.03 1451.02 Z" fill="#000000" fill-rule="nonzero" fill-opacity="1" /><path clip-path="url(#clip130)" d="M1803.42 1451.02 L1821.77 1451.02 L1821.77 1454.96 L1807.7 1454.96 L1807.7 1463.43 Q1808.72 1463.08 1809.74 1462.92 Q1810.76 1462.73 1811.77 1462.73 Q1817.56 1462.73 1820.94 1465.9 Q1824.32 1469.08 1824.32 1474.49 Q1824.32 1480.07 1820.85 1483.17 Q1817.38 1486.25 1811.06 1486.25 Q1808.88 1486.25 1806.61 1485.88 Q1804.37 1485.51 1801.96 1484.77 L1801.96 1480.07 Q1804.04 1481.2 1806.27 1481.76 Q1808.49 1482.32 1810.96 1482.32 Q1814.97 1482.32 1817.31 1480.21 Q1819.65 1478.1 1819.65 1474.49 Q1819.65 1470.88 1817.31 1468.77 Q1814.97 1466.67 1810.96 1466.67 Q1809.09 1466.67 1807.21 1467.08 Q1805.36 1467.5 1803.42 1468.38 L1803.42 1451.02 Z" fill="#000000" fill-rule="nonzero" fill-opacity="1" /><path clip-path="url(#clip130)" d="M1843.53 1454.1 Q1839.92 1454.1 1838.09 1457.66 Q1836.29 1461.2 1836.29 1468.33 Q1836.29 1475.44 1838.09 1479.01 Q1839.92 1482.55 1843.53 1482.55 Q1847.17 1482.55 1848.97 1479.01 Q1850.8 1475.44 1850.8 1468.33 Q1850.8 1461.2 1848.97 1457.66 Q1847.17 1454.1 1843.53 1454.1 M1843.53 1450.39 Q1849.34 1450.39 1852.4 1455 Q1855.48 1459.58 1855.48 1468.33 Q1855.48 1477.06 1852.4 1481.67 Q1849.34 1486.25 1843.53 1486.25 Q1837.72 1486.25 1834.65 1481.67 Q1831.59 1477.06 1831.59 1468.33 Q1831.59 1459.58 1834.65 1455 Q1837.72 1450.39 1843.53 1450.39 Z" fill="#000000" fill-rule="nonzero" fill-opacity="1" /><path clip-path="url(#clip130)" d="M1873.7 1454.1 Q1870.08 1454.1 1868.26 1457.66 Q1866.45 1461.2 1866.45 1468.33 Q1866.45 1475.44 1868.26 1479.01 Q1870.08 1482.55 1873.7 1482.55 Q1877.33 1482.55 1879.14 1479.01 Q1880.96 1475.44 1880.96 1468.33 Q1880.96 1461.2 1879.14 1457.66 Q1877.33 1454.1 1873.7 1454.1 M1873.7 1450.39 Q1879.51 1450.39 1882.56 1455 Q1885.64 1459.58 1885.64 1468.33 Q1885.64 1477.06 1882.56 1481.67 Q1879.51 1486.25 1873.7 1486.25 Q1867.89 1486.25 1864.81 1481.67 Q1861.75 1477.06 1861.75 1468.33 Q1861.75 1459.58 1864.81 1455 Q1867.89 1450.39 1873.7 1450.39 Z" fill="#000000" fill-rule="nonzero" fill-opacity="1" /><path clip-path="url(#clip130)" d="M2226.07 1481.64 L2233.71 1481.64 L2233.71 1455.28 L2225.4 1456.95 L2225.4 1452.69 L2233.66 1451.02 L2238.34 1451.02 L2238.34 1481.64 L2245.98 1481.64 L2245.98 1485.58 L2226.07 1485.58 L2226.07 1481.64 Z" fill="#000000" fill-rule="nonzero" fill-opacity="1" /><path clip-path="url(#clip130)" d="M2265.42 1454.1 Q2261.81 1454.1 2259.98 1457.66 Q2258.18 1461.2 2258.18 1468.33 Q2258.18 1475.44 2259.98 1479.01 Q2261.81 1482.55 2265.42 1482.55 Q2269.06 1482.55 2270.86 1479.01 Q2272.69 1475.44 2272.69 1468.33 Q2272.69 1461.2 2270.86 1457.66 Q2269.06 1454.1 2265.42 1454.1 M2265.42 1450.39 Q2271.23 1450.39 2274.29 1455 Q2277.37 1459.58 2277.37 1468.33 Q2277.37 1477.06 2274.29 1481.67 Q2271.23 1486.25 2265.42 1486.25 Q2259.61 1486.25 2256.53 1481.67 Q2253.48 1477.06 2253.48 1468.33 Q2253.48 1459.58 2256.53 1455 Q2259.61 1450.39 2265.42 1450.39 Z" fill="#000000" fill-rule="nonzero" fill-opacity="1" /><path clip-path="url(#clip130)" d="M2295.58 1454.1 Q2291.97 1454.1 2290.15 1457.66 Q2288.34 1461.2 2288.34 1468.33 Q2288.34 1475.44 2290.15 1479.01 Q2291.97 1482.55 2295.58 1482.55 Q2299.22 1482.55 2301.02 1479.01 Q2302.85 1475.44 2302.85 1468.33 Q2302.85 1461.2 2301.02 1457.66 Q2299.22 1454.1 2295.58 1454.1 M2295.58 1450.39 Q2301.4 1450.39 2304.45 1455 Q2307.53 1459.58 2307.53 1468.33 Q2307.53 1477.06 2304.45 1481.67 Q2301.4 1486.25 2295.58 1486.25 Q2289.77 1486.25 2286.7 1481.67 Q2283.64 1477.06 2283.64 1468.33 Q2283.64 1459.58 2286.7 1455 Q2289.77 1450.39 2295.58 1450.39 Z" fill="#000000" fill-rule="nonzero" fill-opacity="1" /><path clip-path="url(#clip130)" d="M2325.75 1454.1 Q2322.14 1454.1 2320.31 1457.66 Q2318.5 1461.2 2318.5 1468.33 Q2318.5 1475.44 2320.31 1479.01 Q2322.14 1482.55 2325.75 1482.55 Q2329.38 1482.55 2331.19 1479.01 Q2333.02 1475.44 2333.02 1468.33 Q2333.02 1461.2 2331.19 1457.66 Q2329.38 1454.1 2325.75 1454.1 M2325.75 1450.39 Q2331.56 1450.39 2334.61 1455 Q2337.69 1459.58 2337.69 1468.33 Q2337.69 1477.06 2334.61 1481.67 Q2331.56 1486.25 2325.75 1486.25 Q2319.94 1486.25 2316.86 1481.67 Q2313.8 1477.06 2313.8 1468.33 Q2313.8 1459.58 2316.86 1455 Q2319.94 1450.39 2325.75 1450.39 Z" fill="#000000" fill-rule="nonzero" fill-opacity="1" /><path clip-path="url(#clip130)" d="M2355.91 1454.1 Q2352.3 1454.1 2350.47 1457.66 Q2348.66 1461.2 2348.66 1468.33 Q2348.66 1475.44 2350.47 1479.01 Q2352.3 1482.55 2355.91 1482.55 Q2359.54 1482.55 2361.35 1479.01 Q2363.18 1475.44 2363.18 1468.33 Q2363.18 1461.2 2361.35 1457.66 Q2359.54 1454.1 2355.91 1454.1 M2355.91 1450.39 Q2361.72 1450.39 2364.77 1455 Q2367.85 1459.58 2367.85 1468.33 Q2367.85 1477.06 2364.77 1481.67 Q2361.72 1486.25 2355.91 1486.25 Q2350.1 1486.25 2347.02 1481.67 Q2343.96 1477.06 2343.96 1468.33 Q2343.96 1459.58 2347.02 1455 Q2350.1 1450.39 2355.91 1450.39 Z" fill="#000000" fill-rule="nonzero" fill-opacity="1" /><path clip-path="url(#clip130)" d="M1343.15 1520.52 L1351.81 1520.52 L1372.88 1560.28 L1372.88 1520.52 L1379.12 1520.52 L1379.12 1568.04 L1370.46 1568.04 L1349.39 1528.29 L1349.39 1568.04 L1343.15 1568.04 L1343.15 1520.52 Z" fill="#000000" fill-rule="nonzero" fill-opacity="1" /><polyline clip-path="url(#clip132)" style="stroke:#000000; stroke-linecap:round; stroke-linejoin:round; stroke-width:2; stroke-opacity:0.1; fill:none" points="369.518,1387.12 2352.76,1387.12 "/>
<polyline clip-path="url(#clip132)" style="stroke:#000000; stroke-linecap:round; stroke-linejoin:round; stroke-width:2; stroke-opacity:0.1; fill:none" points="369.518,1104.6 2352.76,1104.6 "/>
<polyline clip-path="url(#clip132)" style="stroke:#000000; stroke-linecap:round; stroke-linejoin:round; stroke-width:2; stroke-opacity:0.1; fill:none" points="369.518,822.075 2352.76,822.075 "/>
<polyline clip-path="url(#clip132)" style="stroke:#000000; stroke-linecap:round; stroke-linejoin:round; stroke-width:2; stroke-opacity:0.1; fill:none" points="369.518,539.55 2352.76,539.55 "/>
<polyline clip-path="url(#clip132)" style="stroke:#000000; stroke-linecap:round; stroke-linejoin:round; stroke-width:2; stroke-opacity:0.1; fill:none" points="369.518,257.025 2352.76,257.025 "/>
<polyline clip-path="url(#clip130)" style="stroke:#000000; stroke-linecap:round; stroke-linejoin:round; stroke-width:4; stroke-opacity:1; fill:none" points="369.518,1423.18 369.518,123.472 "/>
<polyline clip-path="url(#clip130)" style="stroke:#000000; stroke-linecap:round; stroke-linejoin:round; stroke-width:4; stroke-opacity:1; fill:none" points="369.518,1387.12 388.416,1387.12 "/>
<polyline clip-path="url(#clip130)" style="stroke:#000000; stroke-linecap:round; stroke-linejoin:round; stroke-width:4; stroke-opacity:1; fill:none" points="369.518,1104.6 388.416,1104.6 "/>
<polyline clip-path="url(#clip130)" style="stroke:#000000; stroke-linecap:round; stroke-linejoin:round; stroke-width:4; stroke-opacity:1; fill:none" points="369.518,822.075 388.416,822.075 "/>
<polyline clip-path="url(#clip130)" style="stroke:#000000; stroke-linecap:round; stroke-linejoin:round; stroke-width:4; stroke-opacity:1; fill:none" points="369.518,539.55 388.416,539.55 "/>
<polyline clip-path="url(#clip130)" style="stroke:#000000; stroke-linecap:round; stroke-linejoin:round; stroke-width:4; stroke-opacity:1; fill:none" points="369.518,257.025 388.416,257.025 "/>
<path clip-path="url(#clip130)" d="M321.574 1372.92 Q317.963 1372.92 316.134 1376.49 Q314.329 1380.03 314.329 1387.16 Q314.329 1394.27 316.134 1397.83 Q317.963 1401.37 321.574 1401.37 Q325.208 1401.37 327.014 1397.83 Q328.842 1394.27 328.842 1387.16 Q328.842 1380.03 327.014 1376.49 Q325.208 1372.92 321.574 1372.92 M321.574 1369.22 Q327.384 1369.22 330.44 1373.83 Q333.518 1378.41 333.518 1387.16 Q333.518 1395.89 330.44 1400.49 Q327.384 1405.08 321.574 1405.08 Q315.764 1405.08 312.685 1400.49 Q309.629 1395.89 309.629 1387.16 Q309.629 1378.41 312.685 1373.83 Q315.764 1369.22 321.574 1369.22 Z" fill="#000000" fill-rule="nonzero" fill-opacity="1" /><path clip-path="url(#clip130)" d="M115.718 1093.77 L134.075 1093.77 L134.075 1097.7 L120.001 1097.7 L120.001 1106.17 Q121.019 1105.83 122.038 1105.67 Q123.056 1105.48 124.075 1105.48 Q129.862 1105.48 133.242 1108.65 Q136.621 1111.82 136.621 1117.24 Q136.621 1122.82 133.149 1125.92 Q129.677 1129 123.357 1129 Q121.181 1129 118.913 1128.63 Q116.668 1128.26 114.26 1127.52 L114.26 1122.82 Q116.343 1123.95 118.566 1124.51 Q120.788 1125.06 123.265 1125.06 Q127.269 1125.06 129.607 1122.96 Q131.945 1120.85 131.945 1117.24 Q131.945 1113.63 129.607 1111.52 Q127.269 1109.42 123.265 1109.42 Q121.39 1109.42 119.515 1109.83 Q117.663 1110.25 115.718 1111.13 L115.718 1093.77 Z" fill="#000000" fill-rule="nonzero" fill-opacity="1" /><path clip-path="url(#clip130)" d="M145.834 1122.45 L150.718 1122.45 L150.718 1128.33 L145.834 1128.33 L145.834 1122.45 Z" fill="#000000" fill-rule="nonzero" fill-opacity="1" /><path clip-path="url(#clip130)" d="M170.903 1096.85 Q167.292 1096.85 165.464 1100.41 Q163.658 1103.95 163.658 1111.08 Q163.658 1118.19 165.464 1121.75 Q167.292 1125.29 170.903 1125.29 Q174.538 1125.29 176.343 1121.75 Q178.172 1118.19 178.172 1111.08 Q178.172 1103.95 176.343 1100.41 Q174.538 1096.85 170.903 1096.85 M170.903 1093.14 Q176.714 1093.14 179.769 1097.75 Q182.848 1102.33 182.848 1111.08 Q182.848 1119.81 179.769 1124.42 Q176.714 1129 170.903 1129 Q165.093 1129 162.015 1124.42 Q158.959 1119.81 158.959 1111.08 Q158.959 1102.33 162.015 1097.75 Q165.093 1093.14 170.903 1093.14 Z" fill="#000000" fill-rule="nonzero" fill-opacity="1" /><path clip-path="url(#clip130)" d="M201.065 1096.85 Q197.454 1096.85 195.625 1100.41 Q193.82 1103.95 193.82 1111.08 Q193.82 1118.19 195.625 1121.75 Q197.454 1125.29 201.065 1125.29 Q204.699 1125.29 206.505 1121.75 Q208.334 1118.19 208.334 1111.08 Q208.334 1103.95 206.505 1100.41 Q204.699 1096.85 201.065 1096.85 M201.065 1093.14 Q206.875 1093.14 209.931 1097.75 Q213.01 1102.33 213.01 1111.08 Q213.01 1119.81 209.931 1124.42 Q206.875 1129 201.065 1129 Q195.255 1129 192.176 1124.42 Q189.121 1119.81 189.121 1111.08 Q189.121 1102.33 192.176 1097.75 Q195.255 1093.14 201.065 1093.14 Z" fill="#000000" fill-rule="nonzero" fill-opacity="1" /><path clip-path="url(#clip130)" d="M249.398 1102.86 L238.82 1113.49 L249.398 1124.07 L246.644 1126.87 L236.019 1116.24 L225.394 1126.87 L222.662 1124.07 L233.218 1113.49 L222.662 1102.86 L225.394 1100.06 L236.019 1110.69 L246.644 1100.06 L249.398 1102.86 Z" fill="#000000" fill-rule="nonzero" fill-opacity="1" /><path clip-path="url(#clip130)" d="M261.759 1124.39 L269.398 1124.39 L269.398 1098.03 L261.088 1099.69 L261.088 1095.43 L269.352 1093.77 L274.028 1093.77 L274.028 1124.39 L281.667 1124.39 L281.667 1128.33 L261.759 1128.33 L261.759 1124.39 Z" fill="#000000" fill-rule="nonzero" fill-opacity="1" /><path clip-path="url(#clip130)" d="M301.111 1096.85 Q297.5 1096.85 295.671 1100.41 Q293.866 1103.95 293.866 1111.08 Q293.866 1118.19 295.671 1121.75 Q297.5 1125.29 301.111 1125.29 Q304.745 1125.29 306.551 1121.75 Q308.379 1118.19 308.379 1111.08 Q308.379 1103.95 306.551 1100.41 Q304.745 1096.85 301.111 1096.85 M301.111 1093.14 Q306.921 1093.14 309.977 1097.75 Q313.055 1102.33 313.055 1111.08 Q313.055 1119.81 309.977 1124.42 Q306.921 1129 301.111 1129 Q295.301 1129 292.222 1124.42 Q289.167 1119.81 289.167 1111.08 Q289.167 1102.33 292.222 1097.75 Q295.301 1093.14 301.111 1093.14 Z" fill="#000000" fill-rule="nonzero" fill-opacity="1" /><path clip-path="url(#clip130)" d="M325.732 1076.15 L316.14 1091.14 L325.732 1091.14 L325.732 1076.15 M324.735 1072.84 L329.512 1072.84 L329.512 1091.14 L333.518 1091.14 L333.518 1094.3 L329.512 1094.3 L329.512 1100.92 L325.732 1100.92 L325.732 1094.3 L313.055 1094.3 L313.055 1090.63 L324.735 1072.84 Z" fill="#000000" fill-rule="nonzero" fill-opacity="1" /><path clip-path="url(#clip130)" d="M118.777 841.867 L126.416 841.867 L126.416 815.502 L118.106 817.168 L118.106 812.909 L126.369 811.243 L131.045 811.243 L131.045 841.867 L138.684 841.867 L138.684 845.803 L118.777 845.803 L118.777 841.867 Z" fill="#000000" fill-rule="nonzero" fill-opacity="1" /><path clip-path="url(#clip130)" d="M148.129 839.923 L153.013 839.923 L153.013 845.803 L148.129 845.803 L148.129 839.923 Z" fill="#000000" fill-rule="nonzero" fill-opacity="1" /><path clip-path="url(#clip130)" d="M173.198 814.321 Q169.587 814.321 167.758 817.886 Q165.953 821.428 165.953 828.557 Q165.953 835.664 167.758 839.228 Q169.587 842.77 173.198 842.77 Q176.832 842.77 178.638 839.228 Q180.466 835.664 180.466 828.557 Q180.466 821.428 178.638 817.886 Q176.832 814.321 173.198 814.321 M173.198 810.618 Q179.008 810.618 182.064 815.224 Q185.142 819.807 185.142 828.557 Q185.142 837.284 182.064 841.891 Q179.008 846.474 173.198 846.474 Q167.388 846.474 164.309 841.891 Q161.254 837.284 161.254 828.557 Q161.254 819.807 164.309 815.224 Q167.388 810.618 173.198 810.618 Z" fill="#000000" fill-rule="nonzero" fill-opacity="1" /><path clip-path="url(#clip130)" d="M203.36 814.321 Q199.749 814.321 197.92 817.886 Q196.114 821.428 196.114 828.557 Q196.114 835.664 197.92 839.228 Q199.749 842.77 203.36 842.77 Q206.994 842.77 208.8 839.228 Q210.628 835.664 210.628 828.557 Q210.628 821.428 208.8 817.886 Q206.994 814.321 203.36 814.321 M203.36 810.618 Q209.17 810.618 212.225 815.224 Q215.304 819.807 215.304 828.557 Q215.304 837.284 212.225 841.891 Q209.17 846.474 203.36 846.474 Q197.55 846.474 194.471 841.891 Q191.415 837.284 191.415 828.557 Q191.415 819.807 194.471 815.224 Q197.55 810.618 203.36 810.618 Z" fill="#000000" fill-rule="nonzero" fill-opacity="1" /><path clip-path="url(#clip130)" d="M251.693 820.34 L241.114 830.965 L251.693 841.543 L248.938 844.344 L238.313 833.719 L227.688 844.344 L224.957 841.543 L235.512 830.965 L224.957 820.34 L227.688 817.539 L238.313 828.164 L248.938 817.539 L251.693 820.34 Z" fill="#000000" fill-rule="nonzero" fill-opacity="1" /><path clip-path="url(#clip130)" d="M264.054 841.867 L271.693 841.867 L271.693 815.502 L263.383 817.168 L263.383 812.909 L271.646 811.243 L276.322 811.243 L276.322 841.867 L283.961 841.867 L283.961 845.803 L264.054 845.803 L264.054 841.867 Z" fill="#000000" fill-rule="nonzero" fill-opacity="1" /><path clip-path="url(#clip130)" d="M303.406 814.321 Q299.794 814.321 297.966 817.886 Q296.16 821.428 296.16 828.557 Q296.16 835.664 297.966 839.228 Q299.794 842.77 303.406 842.77 Q307.04 842.77 308.845 839.228 Q310.674 835.664 310.674 828.557 Q310.674 821.428 308.845 817.886 Q307.04 814.321 303.406 814.321 M303.406 810.618 Q309.216 810.618 312.271 815.224 Q315.35 819.807 315.35 828.557 Q315.35 837.284 312.271 841.891 Q309.216 846.474 303.406 846.474 Q297.595 846.474 294.517 841.891 Q291.461 837.284 291.461 828.557 Q291.461 819.807 294.517 815.224 Q297.595 810.618 303.406 810.618 Z" fill="#000000" fill-rule="nonzero" fill-opacity="1" /><path clip-path="url(#clip130)" d="M316.535 790.312 L331.449 790.312 L331.449 793.509 L320.014 793.509 L320.014 800.393 Q320.842 800.111 321.669 799.979 Q322.497 799.829 323.324 799.829 Q328.026 799.829 330.772 802.406 Q333.518 804.982 333.518 809.383 Q333.518 813.916 330.697 816.436 Q327.876 818.938 322.741 818.938 Q320.973 818.938 319.13 818.637 Q317.306 818.336 315.35 817.734 L315.35 813.916 Q317.043 814.837 318.848 815.289 Q320.654 815.74 322.666 815.74 Q325.92 815.74 327.819 814.029 Q329.719 812.317 329.719 809.383 Q329.719 806.449 327.819 804.738 Q325.92 803.026 322.666 803.026 Q321.143 803.026 319.619 803.365 Q318.115 803.703 316.535 804.418 L316.535 790.312 Z" fill="#000000" fill-rule="nonzero" fill-opacity="1" /><path clip-path="url(#clip130)" d="M118.777 559.343 L126.416 559.343 L126.416 532.977 L118.106 534.644 L118.106 530.384 L126.369 528.718 L131.045 528.718 L131.045 559.343 L138.684 559.343 L138.684 563.278 L118.777 563.278 L118.777 559.343 Z" fill="#000000" fill-rule="nonzero" fill-opacity="1" /><path clip-path="url(#clip130)" d="M148.129 557.398 L153.013 557.398 L153.013 563.278 L148.129 563.278 L148.129 557.398 Z" fill="#000000" fill-rule="nonzero" fill-opacity="1" /><path clip-path="url(#clip130)" d="M163.244 528.718 L181.601 528.718 L181.601 532.653 L167.527 532.653 L167.527 541.125 Q168.545 540.778 169.564 540.616 Q170.582 540.431 171.601 540.431 Q177.388 540.431 180.767 543.602 Q184.147 546.773 184.147 552.19 Q184.147 557.768 180.675 560.87 Q177.203 563.949 170.883 563.949 Q168.707 563.949 166.439 563.579 Q164.193 563.208 161.786 562.467 L161.786 557.768 Q163.869 558.903 166.091 559.458 Q168.314 560.014 170.791 560.014 Q174.795 560.014 177.133 557.907 Q179.471 555.801 179.471 552.19 Q179.471 548.579 177.133 546.472 Q174.795 544.366 170.791 544.366 Q168.916 544.366 167.041 544.782 Q165.189 545.199 163.244 546.079 L163.244 528.718 Z" fill="#000000" fill-rule="nonzero" fill-opacity="1" /><path clip-path="url(#clip130)" d="M203.36 531.796 Q199.749 531.796 197.92 535.361 Q196.114 538.903 196.114 546.032 Q196.114 553.139 197.92 556.704 Q199.749 560.245 203.36 560.245 Q206.994 560.245 208.8 556.704 Q210.628 553.139 210.628 546.032 Q210.628 538.903 208.8 535.361 Q206.994 531.796 203.36 531.796 M203.36 528.093 Q209.17 528.093 212.225 532.699 Q215.304 537.282 215.304 546.032 Q215.304 554.759 212.225 559.366 Q209.17 563.949 203.36 563.949 Q197.55 563.949 194.471 559.366 Q191.415 554.759 191.415 546.032 Q191.415 537.282 194.471 532.699 Q197.55 528.093 203.36 528.093 Z" fill="#000000" fill-rule="nonzero" fill-opacity="1" /><path clip-path="url(#clip130)" d="M251.693 537.815 L241.114 548.44 L251.693 559.018 L248.938 561.819 L238.313 551.194 L227.688 561.819 L224.957 559.018 L235.512 548.44 L224.957 537.815 L227.688 535.014 L238.313 545.639 L248.938 535.014 L251.693 537.815 Z" fill="#000000" fill-rule="nonzero" fill-opacity="1" /><path clip-path="url(#clip130)" d="M264.054 559.343 L271.693 559.343 L271.693 532.977 L263.383 534.644 L263.383 530.384 L271.646 528.718 L276.322 528.718 L276.322 559.343 L283.961 559.343 L283.961 563.278 L264.054 563.278 L264.054 559.343 Z" fill="#000000" fill-rule="nonzero" fill-opacity="1" /><path clip-path="url(#clip130)" d="M303.406 531.796 Q299.794 531.796 297.966 535.361 Q296.16 538.903 296.16 546.032 Q296.16 553.139 297.966 556.704 Q299.794 560.245 303.406 560.245 Q307.04 560.245 308.845 556.704 Q310.674 553.139 310.674 546.032 Q310.674 538.903 308.845 535.361 Q307.04 531.796 303.406 531.796 M303.406 528.093 Q309.216 528.093 312.271 532.699 Q315.35 537.282 315.35 546.032 Q315.35 554.759 312.271 559.366 Q309.216 563.949 303.406 563.949 Q297.595 563.949 294.517 559.366 Q291.461 554.759 291.461 546.032 Q291.461 537.282 294.517 532.699 Q297.595 528.093 303.406 528.093 Z" fill="#000000" fill-rule="nonzero" fill-opacity="1" /><path clip-path="url(#clip130)" d="M316.535 507.787 L331.449 507.787 L331.449 510.985 L320.014 510.985 L320.014 517.868 Q320.842 517.586 321.669 517.454 Q322.497 517.304 323.324 517.304 Q328.026 517.304 330.772 519.881 Q333.518 522.457 333.518 526.858 Q333.518 531.391 330.697 533.911 Q327.876 536.413 322.741 536.413 Q320.973 536.413 319.13 536.112 Q317.306 535.811 315.35 535.209 L315.35 531.391 Q317.043 532.313 318.848 532.764 Q320.654 533.215 322.666 533.215 Q325.92 533.215 327.819 531.504 Q329.719 529.792 329.719 526.858 Q329.719 523.924 327.819 522.213 Q325.92 520.501 322.666 520.501 Q321.143 520.501 319.619 520.84 Q318.115 521.178 316.535 521.893 L316.535 507.787 Z" fill="#000000" fill-rule="nonzero" fill-opacity="1" /><path clip-path="url(#clip130)" d="M121.994 276.818 L138.314 276.818 L138.314 280.753 L116.37 280.753 L116.37 276.818 Q119.032 274.063 123.615 269.433 Q128.221 264.781 129.402 263.438 Q131.647 260.915 132.527 259.179 Q133.43 257.42 133.43 255.73 Q133.43 252.975 131.485 251.239 Q129.564 249.503 126.462 249.503 Q124.263 249.503 121.809 250.267 Q119.379 251.031 116.601 252.582 L116.601 247.859 Q119.425 246.725 121.879 246.147 Q124.332 245.568 126.369 245.568 Q131.74 245.568 134.934 248.253 Q138.129 250.938 138.129 255.429 Q138.129 257.558 137.318 259.48 Q136.531 261.378 134.425 263.97 Q133.846 264.642 130.744 267.859 Q127.643 271.054 121.994 276.818 Z" fill="#000000" fill-rule="nonzero" fill-opacity="1" /><path clip-path="url(#clip130)" d="M148.129 274.873 L153.013 274.873 L153.013 280.753 L148.129 280.753 L148.129 274.873 Z" fill="#000000" fill-rule="nonzero" fill-opacity="1" /><path clip-path="url(#clip130)" d="M173.198 249.271 Q169.587 249.271 167.758 252.836 Q165.953 256.378 165.953 263.508 Q165.953 270.614 167.758 274.179 Q169.587 277.72 173.198 277.72 Q176.832 277.72 178.638 274.179 Q180.466 270.614 180.466 263.508 Q180.466 256.378 178.638 252.836 Q176.832 249.271 173.198 249.271 M173.198 245.568 Q179.008 245.568 182.064 250.174 Q185.142 254.758 185.142 263.508 Q185.142 272.234 182.064 276.841 Q179.008 281.424 173.198 281.424 Q167.388 281.424 164.309 276.841 Q161.254 272.234 161.254 263.508 Q161.254 254.758 164.309 250.174 Q167.388 245.568 173.198 245.568 Z" fill="#000000" fill-rule="nonzero" fill-opacity="1" /><path clip-path="url(#clip130)" d="M203.36 249.271 Q199.749 249.271 197.92 252.836 Q196.114 256.378 196.114 263.508 Q196.114 270.614 197.92 274.179 Q199.749 277.72 203.36 277.72 Q206.994 277.72 208.8 274.179 Q210.628 270.614 210.628 263.508 Q210.628 256.378 208.8 252.836 Q206.994 249.271 203.36 249.271 M203.36 245.568 Q209.17 245.568 212.225 250.174 Q215.304 254.758 215.304 263.508 Q215.304 272.234 212.225 276.841 Q209.17 281.424 203.36 281.424 Q197.55 281.424 194.471 276.841 Q191.415 272.234 191.415 263.508 Q191.415 254.758 194.471 250.174 Q197.55 245.568 203.36 245.568 Z" fill="#000000" fill-rule="nonzero" fill-opacity="1" /><path clip-path="url(#clip130)" d="M251.693 255.29 L241.114 265.915 L251.693 276.494 L248.938 279.294 L238.313 268.67 L227.688 279.294 L224.957 276.494 L235.512 265.915 L224.957 255.29 L227.688 252.489 L238.313 263.114 L248.938 252.489 L251.693 255.29 Z" fill="#000000" fill-rule="nonzero" fill-opacity="1" /><path clip-path="url(#clip130)" d="M264.054 276.818 L271.693 276.818 L271.693 250.452 L263.383 252.119 L263.383 247.859 L271.646 246.193 L276.322 246.193 L276.322 276.818 L283.961 276.818 L283.961 280.753 L264.054 280.753 L264.054 276.818 Z" fill="#000000" fill-rule="nonzero" fill-opacity="1" /><path clip-path="url(#clip130)" d="M303.406 249.271 Q299.794 249.271 297.966 252.836 Q296.16 256.378 296.16 263.508 Q296.16 270.614 297.966 274.179 Q299.794 277.72 303.406 277.72 Q307.04 277.72 308.845 274.179 Q310.674 270.614 310.674 263.508 Q310.674 256.378 308.845 252.836 Q307.04 249.271 303.406 249.271 M303.406 245.568 Q309.216 245.568 312.271 250.174 Q315.35 254.758 315.35 263.508 Q315.35 272.234 312.271 276.841 Q309.216 281.424 303.406 281.424 Q297.595 281.424 294.517 276.841 Q291.461 272.234 291.461 263.508 Q291.461 254.758 294.517 250.174 Q297.595 245.568 303.406 245.568 Z" fill="#000000" fill-rule="nonzero" fill-opacity="1" /><path clip-path="url(#clip130)" d="M316.535 225.262 L331.449 225.262 L331.449 228.46 L320.014 228.46 L320.014 235.343 Q320.842 235.061 321.669 234.93 Q322.497 234.779 323.324 234.779 Q328.026 234.779 330.772 237.356 Q333.518 239.932 333.518 244.333 Q333.518 248.866 330.697 251.386 Q327.876 253.888 322.741 253.888 Q320.973 253.888 319.13 253.587 Q317.306 253.286 315.35 252.684 L315.35 248.866 Q317.043 249.788 318.848 250.239 Q320.654 250.691 322.666 250.691 Q325.92 250.691 327.819 248.979 Q329.719 247.268 329.719 244.333 Q329.719 241.399 327.819 239.688 Q325.92 237.976 322.666 237.976 Q321.143 237.976 319.619 238.315 Q318.115 238.654 316.535 239.368 L316.535 225.262 Z" fill="#000000" fill-rule="nonzero" fill-opacity="1" /><path clip-path="url(#clip130)" d="M16.4842 903.155 L16.4842 862.955 L21.895 862.955 L21.895 879.824 L64.0042 879.824 L64.0042 886.285 L21.895 886.285 L21.895 903.155 L16.4842 903.155 Z" fill="#000000" fill-rule="nonzero" fill-opacity="1" /><path clip-path="url(#clip130)" d="M28.3562 859.008 L28.3562 853.152 L64.0042 853.152 L64.0042 859.008 L28.3562 859.008 M14.479 859.008 L14.479 853.152 L21.895 853.152 L21.895 859.008 L14.479 859.008 Z" fill="#000000" fill-rule="nonzero" fill-opacity="1" /><path clip-path="url(#clip130)" d="M35.1993 813.143 Q31.2526 810.947 29.3747 807.892 Q27.4968 804.836 27.4968 800.699 Q27.4968 795.129 31.4117 792.105 Q35.2948 789.081 42.4881 789.081 L64.0042 789.081 L64.0042 794.969 L42.679 794.969 Q37.5546 794.969 35.072 796.784 Q32.5894 798.598 32.5894 802.322 Q32.5894 806.873 35.6131 809.515 Q38.6368 812.157 43.8567 812.157 L64.0042 812.157 L64.0042 818.045 L42.679 818.045 Q37.5228 818.045 35.072 819.859 Q32.5894 821.674 32.5894 825.461 Q32.5894 829.949 35.6449 832.591 Q38.6686 835.232 43.8567 835.232 L64.0042 835.232 L64.0042 841.121 L28.3562 841.121 L28.3562 835.232 L33.8944 835.232 Q30.616 833.227 29.0564 830.426 Q27.4968 827.625 27.4968 823.774 Q27.4968 819.891 29.4702 817.186 Q31.4436 814.448 35.1993 813.143 Z" fill="#000000" fill-rule="nonzero" fill-opacity="1" /><path clip-path="url(#clip130)" d="M44.7161 746.908 L47.5806 746.908 L47.5806 773.835 Q53.6281 773.453 56.8109 770.207 Q59.9619 766.928 59.9619 761.104 Q59.9619 757.73 59.1344 754.579 Q58.3069 751.396 56.6518 748.277 L62.1899 748.277 Q63.5267 751.428 64.227 754.738 Q64.9272 758.048 64.9272 761.454 Q64.9272 769.984 59.9619 774.981 Q54.9967 779.946 46.5303 779.946 Q37.7774 779.946 32.6531 775.236 Q27.4968 770.493 27.4968 762.472 Q27.4968 755.279 32.1438 751.11 Q36.7589 746.908 44.7161 746.908 M42.9973 752.765 Q38.1912 752.828 35.3266 755.47 Q32.4621 758.08 32.4621 762.409 Q32.4621 767.31 35.2312 770.27 Q38.0002 773.199 43.0292 773.644 L42.9973 752.765 Z" fill="#000000" fill-rule="nonzero" fill-opacity="1" /><path clip-path="url(#clip130)" d="M14.5426 702.507 Q21.8632 706.773 29.0246 708.841 Q36.186 710.91 43.5384 710.91 Q50.8908 710.91 58.1159 708.841 Q65.3091 706.741 72.5979 702.507 L72.5979 707.6 Q65.1182 712.374 57.8931 714.761 Q50.668 717.117 43.5384 717.117 Q36.4406 717.117 29.2474 714.761 Q22.0542 712.406 14.5426 707.6 L14.5426 702.507 Z" fill="#000000" fill-rule="nonzero" fill-opacity="1" /><path clip-path="url(#clip130)" d="M29.4065 668.419 L34.9447 668.419 Q33.6716 670.902 33.035 673.575 Q32.3984 676.249 32.3984 679.114 Q32.3984 683.474 33.7352 685.67 Q35.072 687.835 37.7456 687.835 Q39.7826 687.835 40.9603 686.275 Q42.1061 684.715 43.1565 680.005 L43.6021 678 Q44.9389 671.761 47.3897 669.151 Q49.8086 666.509 54.1691 666.509 Q59.1344 666.509 62.0308 670.456 Q64.9272 674.371 64.9272 681.246 Q64.9272 684.111 64.3543 687.23 Q63.8132 690.317 62.6992 693.755 L56.6518 693.755 Q58.3387 690.508 59.198 687.357 Q60.0256 684.206 60.0256 681.119 Q60.0256 676.981 58.6251 674.753 Q57.1929 672.525 54.6147 672.525 Q52.2276 672.525 50.9545 674.148 Q49.6813 675.74 48.5037 681.182 L48.0262 683.219 Q46.8804 688.662 44.5251 691.081 Q42.138 693.5 38.0002 693.5 Q32.9713 693.5 30.2341 689.935 Q27.4968 686.37 27.4968 679.814 Q27.4968 676.567 27.9743 673.703 Q28.4517 670.838 29.4065 668.419 Z" fill="#000000" fill-rule="nonzero" fill-opacity="1" /><path clip-path="url(#clip130)" d="M14.5426 658.107 L14.5426 653.014 Q22.0542 648.24 29.2474 645.885 Q36.4406 643.497 43.5384 643.497 Q50.668 643.497 57.8931 645.885 Q65.1182 648.24 72.5979 653.014 L72.5979 658.107 Q65.3091 653.873 58.1159 651.805 Q50.8908 649.704 43.5384 649.704 Q36.186 649.704 29.0246 651.805 Q21.8632 653.873 14.5426 658.107 Z" fill="#000000" fill-rule="nonzero" fill-opacity="1" /><path clip-path="url(#clip130)" d="M778.374 12.096 L829.537 12.096 L829.537 18.9825 L808.067 18.9825 L808.067 72.576 L799.844 72.576 L799.844 18.9825 L778.374 18.9825 L778.374 12.096 Z" fill="#000000" fill-rule="nonzero" fill-opacity="1" /><path clip-path="url(#clip130)" d="M834.56 27.2059 L842.014 27.2059 L842.014 72.576 L834.56 72.576 L834.56 27.2059 M834.56 9.54393 L842.014 9.54393 L842.014 18.9825 L834.56 18.9825 L834.56 9.54393 Z" fill="#000000" fill-rule="nonzero" fill-opacity="1" /><path clip-path="url(#clip130)" d="M892.934 35.9153 Q895.729 30.8922 899.618 28.5022 Q903.506 26.1121 908.773 26.1121 Q915.862 26.1121 919.71 31.0947 Q923.558 36.0368 923.558 45.1919 L923.558 72.576 L916.064 72.576 L916.064 45.4349 Q916.064 38.913 913.755 35.7533 Q911.446 32.5936 906.707 32.5936 Q900.914 32.5936 897.552 36.4419 Q894.189 40.2903 894.189 46.9338 L894.189 72.576 L886.695 72.576 L886.695 45.4349 Q886.695 38.8725 884.386 35.7533 Q882.077 32.5936 877.257 32.5936 Q871.545 32.5936 868.183 36.4824 Q864.82 40.3308 864.82 46.9338 L864.82 72.576 L857.326 72.576 L857.326 27.2059 L864.82 27.2059 L864.82 34.2544 Q867.372 30.082 870.937 28.0971 Q874.502 26.1121 879.404 26.1121 Q884.346 26.1121 887.789 28.6237 Q891.273 31.1352 892.934 35.9153 Z" fill="#000000" fill-rule="nonzero" fill-opacity="1" /><path clip-path="url(#clip130)" d="M977.233 48.0275 L977.233 51.6733 L942.962 51.6733 Q943.448 59.3701 947.58 63.421 Q951.753 67.4314 959.166 67.4314 Q963.46 67.4314 967.47 66.3781 Q971.521 65.3249 975.491 63.2184 L975.491 70.267 Q971.481 71.9684 967.268 72.8596 Q963.055 73.7508 958.72 73.7508 Q947.864 73.7508 941.504 67.4314 Q935.184 61.1119 935.184 50.3365 Q935.184 39.1965 941.18 32.6746 Q947.216 26.1121 957.424 26.1121 Q966.579 26.1121 971.886 32.0264 Q977.233 37.9003 977.233 48.0275 M969.779 45.84 Q969.698 39.7232 966.336 36.0774 Q963.014 32.4315 957.505 32.4315 Q951.267 32.4315 947.499 35.9558 Q943.772 39.4801 943.205 45.8805 L969.779 45.84 Z" fill="#000000" fill-rule="nonzero" fill-opacity="1" /><path clip-path="url(#clip130)" d="M1023.21 14.324 L1023.21 27.2059 L1038.56 27.2059 L1038.56 32.9987 L1023.21 32.9987 L1023.21 57.6282 Q1023.21 63.1779 1024.71 64.7578 Q1026.25 66.3376 1030.91 66.3376 L1038.56 66.3376 L1038.56 72.576 L1030.91 72.576 Q1022.28 72.576 1019 69.3758 Q1015.72 66.1351 1015.72 57.6282 L1015.72 32.9987 L1010.25 32.9987 L1010.25 27.2059 L1015.72 27.2059 L1015.72 14.324 L1023.21 14.324 Z" fill="#000000" fill-rule="nonzero" fill-opacity="1" /><path clip-path="url(#clip130)" d="M1065.95 32.4315 Q1059.95 32.4315 1056.47 37.1306 Q1052.98 41.7891 1052.98 49.9314 Q1052.98 58.0738 1056.43 62.7728 Q1059.91 67.4314 1065.95 67.4314 Q1071.9 67.4314 1075.39 62.7323 Q1078.87 58.0333 1078.87 49.9314 Q1078.87 41.8701 1075.39 37.1711 Q1071.9 32.4315 1065.95 32.4315 M1065.95 26.1121 Q1075.67 26.1121 1081.22 32.4315 Q1086.77 38.7509 1086.77 49.9314 Q1086.77 61.0714 1081.22 67.4314 Q1075.67 73.7508 1065.95 73.7508 Q1056.19 73.7508 1050.64 67.4314 Q1045.13 61.0714 1045.13 49.9314 Q1045.13 38.7509 1050.64 32.4315 Q1056.19 26.1121 1065.95 26.1121 Z" fill="#000000" fill-rule="nonzero" fill-opacity="1" /><path clip-path="url(#clip130)" d="M1158.15 28.9478 L1158.15 35.9153 Q1154.99 34.1734 1151.79 33.3227 Q1148.63 32.4315 1145.39 32.4315 Q1138.13 32.4315 1134.12 37.0496 Q1130.11 41.6271 1130.11 49.9314 Q1130.11 58.2358 1134.12 62.8538 Q1138.13 67.4314 1145.39 67.4314 Q1148.63 67.4314 1151.79 66.5807 Q1154.99 65.6895 1158.15 63.9476 L1158.15 70.8341 Q1155.03 72.2924 1151.66 73.0216 Q1148.34 73.7508 1144.58 73.7508 Q1134.33 73.7508 1128.29 67.3098 Q1122.26 60.8689 1122.26 49.9314 Q1122.26 38.832 1128.33 32.472 Q1134.45 26.1121 1145.06 26.1121 Q1148.51 26.1121 1151.79 26.8413 Q1155.07 27.5299 1158.15 28.9478 Z" fill="#000000" fill-rule="nonzero" fill-opacity="1" /><path clip-path="url(#clip130)" d="M1188.69 32.4315 Q1182.69 32.4315 1179.21 37.1306 Q1175.73 41.7891 1175.73 49.9314 Q1175.73 58.0738 1179.17 62.7728 Q1182.65 67.4314 1188.69 67.4314 Q1194.64 67.4314 1198.13 62.7323 Q1201.61 58.0333 1201.61 49.9314 Q1201.61 41.8701 1198.13 37.1711 Q1194.64 32.4315 1188.69 32.4315 M1188.69 26.1121 Q1198.41 26.1121 1203.96 32.4315 Q1209.51 38.7509 1209.51 49.9314 Q1209.51 61.0714 1203.96 67.4314 Q1198.41 73.7508 1188.69 73.7508 Q1178.93 73.7508 1173.38 67.4314 Q1167.87 61.0714 1167.87 49.9314 Q1167.87 38.7509 1173.38 32.4315 Q1178.93 26.1121 1188.69 26.1121 Z" fill="#000000" fill-rule="nonzero" fill-opacity="1" /><path clip-path="url(#clip130)" d="M1257.19 35.9153 Q1259.99 30.8922 1263.87 28.5022 Q1267.76 26.1121 1273.03 26.1121 Q1280.12 26.1121 1283.97 31.0947 Q1287.82 36.0368 1287.82 45.1919 L1287.82 72.576 L1280.32 72.576 L1280.32 45.4349 Q1280.32 38.913 1278.01 35.7533 Q1275.7 32.5936 1270.96 32.5936 Q1265.17 32.5936 1261.81 36.4419 Q1258.45 40.2903 1258.45 46.9338 L1258.45 72.576 L1250.95 72.576 L1250.95 45.4349 Q1250.95 38.8725 1248.64 35.7533 Q1246.33 32.5936 1241.51 32.5936 Q1235.8 32.5936 1232.44 36.4824 Q1229.08 40.3308 1229.08 46.9338 L1229.08 72.576 L1221.58 72.576 L1221.58 27.2059 L1229.08 27.2059 L1229.08 34.2544 Q1231.63 30.082 1235.19 28.0971 Q1238.76 26.1121 1243.66 26.1121 Q1248.6 26.1121 1252.05 28.6237 Q1255.53 31.1352 1257.19 35.9153 Z" fill="#000000" fill-rule="nonzero" fill-opacity="1" /><path clip-path="url(#clip130)" d="M1309.89 65.7705 L1309.89 89.8329 L1302.4 89.8329 L1302.4 27.2059 L1309.89 27.2059 L1309.89 34.0924 Q1312.24 30.0415 1315.81 28.0971 Q1319.41 26.1121 1324.4 26.1121 Q1332.66 26.1121 1337.8 32.6746 Q1342.99 39.2371 1342.99 49.9314 Q1342.99 60.6258 1337.8 67.1883 Q1332.66 73.7508 1324.4 73.7508 Q1319.41 73.7508 1315.81 71.8063 Q1312.24 69.8214 1309.89 65.7705 M1335.25 49.9314 Q1335.25 41.7081 1331.85 37.0496 Q1328.49 32.3505 1322.57 32.3505 Q1316.66 32.3505 1313.26 37.0496 Q1309.89 41.7081 1309.89 49.9314 Q1309.89 58.1548 1313.26 62.8538 Q1316.66 67.5124 1322.57 67.5124 Q1328.49 67.5124 1331.85 62.8538 Q1335.25 58.1548 1335.25 49.9314 Z" fill="#000000" fill-rule="nonzero" fill-opacity="1" /><path clip-path="url(#clip130)" d="M1354.57 54.671 L1354.57 27.2059 L1362.03 27.2059 L1362.03 54.3874 Q1362.03 60.8284 1364.54 64.0691 Q1367.05 67.2693 1372.07 67.2693 Q1378.11 67.2693 1381.59 63.421 Q1385.12 59.5726 1385.12 52.9291 L1385.12 27.2059 L1392.57 27.2059 L1392.57 72.576 L1385.12 72.576 L1385.12 65.6084 Q1382.4 69.7404 1378.8 71.7658 Q1375.23 73.7508 1370.49 73.7508 Q1362.68 73.7508 1358.63 68.8897 Q1354.57 64.0286 1354.57 54.671 M1373.33 26.1121 L1373.33 26.1121 Z" fill="#000000" fill-rule="nonzero" fill-opacity="1" /><path clip-path="url(#clip130)" d="M1415.3 14.324 L1415.3 27.2059 L1430.65 27.2059 L1430.65 32.9987 L1415.3 32.9987 L1415.3 57.6282 Q1415.3 63.1779 1416.8 64.7578 Q1418.34 66.3376 1422.99 66.3376 L1430.65 66.3376 L1430.65 72.576 L1422.99 72.576 Q1414.37 72.576 1411.08 69.3758 Q1407.8 66.1351 1407.8 57.6282 L1407.8 32.9987 L1402.33 32.9987 L1402.33 27.2059 L1407.8 27.2059 L1407.8 14.324 L1415.3 14.324 Z" fill="#000000" fill-rule="nonzero" fill-opacity="1" /><path clip-path="url(#clip130)" d="M1479.26 48.0275 L1479.26 51.6733 L1444.99 51.6733 Q1445.48 59.3701 1449.61 63.421 Q1453.78 67.4314 1461.19 67.4314 Q1465.49 67.4314 1469.5 66.3781 Q1473.55 65.3249 1477.52 63.2184 L1477.52 70.267 Q1473.51 71.9684 1469.3 72.8596 Q1465.08 73.7508 1460.75 73.7508 Q1449.89 73.7508 1443.53 67.4314 Q1437.21 61.1119 1437.21 50.3365 Q1437.21 39.1965 1443.21 32.6746 Q1449.24 26.1121 1459.45 26.1121 Q1468.61 26.1121 1473.91 32.0264 Q1479.26 37.9003 1479.26 48.0275 M1471.81 45.84 Q1471.73 39.7232 1468.36 36.0774 Q1465.04 32.4315 1459.53 32.4315 Q1453.3 32.4315 1449.53 35.9558 Q1445.8 39.4801 1445.23 45.8805 L1471.81 45.84 Z" fill="#000000" fill-rule="nonzero" fill-opacity="1" /><path clip-path="url(#clip130)" d="M1517.87 9.54393 L1525.32 9.54393 L1525.32 72.576 L1517.87 72.576 L1517.87 9.54393 Z" fill="#000000" fill-rule="nonzero" fill-opacity="1" /><path clip-path="url(#clip130)" d="M1579.72 48.0275 L1579.72 51.6733 L1545.45 51.6733 Q1545.94 59.3701 1550.07 63.421 Q1554.24 67.4314 1561.66 67.4314 Q1565.95 67.4314 1569.96 66.3781 Q1574.01 65.3249 1577.98 63.2184 L1577.98 70.267 Q1573.97 71.9684 1569.76 72.8596 Q1565.55 73.7508 1561.21 73.7508 Q1550.35 73.7508 1543.99 67.4314 Q1537.68 61.1119 1537.68 50.3365 Q1537.68 39.1965 1543.67 32.6746 Q1549.71 26.1121 1559.91 26.1121 Q1569.07 26.1121 1574.38 32.0264 Q1579.72 37.9003 1579.72 48.0275 M1572.27 45.84 Q1572.19 39.7232 1568.83 36.0774 Q1565.51 32.4315 1560 32.4315 Q1553.76 32.4315 1549.99 35.9558 Q1546.26 39.4801 1545.7 45.8805 L1572.27 45.84 Z" fill="#000000" fill-rule="nonzero" fill-opacity="1" /><path clip-path="url(#clip130)" d="M1629.67 45.1919 L1629.67 72.576 L1622.22 72.576 L1622.22 45.4349 Q1622.22 38.994 1619.71 35.7938 Q1617.19 32.5936 1612.17 32.5936 Q1606.14 32.5936 1602.65 36.4419 Q1599.17 40.2903 1599.17 46.9338 L1599.17 72.576 L1591.67 72.576 L1591.67 27.2059 L1599.17 27.2059 L1599.17 34.2544 Q1601.84 30.163 1605.45 28.1376 Q1609.09 26.1121 1613.83 26.1121 Q1621.65 26.1121 1625.66 30.9732 Q1629.67 35.7938 1629.67 45.1919 Z" fill="#000000" fill-rule="nonzero" fill-opacity="1" /><path clip-path="url(#clip130)" d="M1674.39 49.3643 Q1674.39 41.2625 1671.03 36.8065 Q1667.71 32.3505 1661.67 32.3505 Q1655.68 32.3505 1652.32 36.8065 Q1648.99 41.2625 1648.99 49.3643 Q1648.99 57.4256 1652.32 61.8816 Q1655.68 66.3376 1661.67 66.3376 Q1667.71 66.3376 1671.03 61.8816 Q1674.39 57.4256 1674.39 49.3643 M1681.85 66.9452 Q1681.85 78.5308 1676.7 84.1616 Q1671.56 89.8329 1660.94 89.8329 Q1657.02 89.8329 1653.53 89.2252 Q1650.05 88.6581 1646.77 87.4428 L1646.77 80.1917 Q1650.05 81.9741 1653.25 82.8248 Q1656.45 83.6755 1659.77 83.6755 Q1667.1 83.6755 1670.75 79.8271 Q1674.39 76.0193 1674.39 68.282 L1674.39 64.5957 Q1672.08 68.6061 1668.48 70.5911 Q1664.87 72.576 1659.85 72.576 Q1651.51 72.576 1646.4 66.2161 Q1641.3 59.8562 1641.3 49.3643 Q1641.3 38.832 1646.4 32.472 Q1651.51 26.1121 1659.85 26.1121 Q1664.87 26.1121 1668.48 28.0971 Q1672.08 30.082 1674.39 34.0924 L1674.39 27.2059 L1681.85 27.2059 L1681.85 66.9452 Z" fill="#000000" fill-rule="nonzero" fill-opacity="1" /><path clip-path="url(#clip130)" d="M1704.57 14.324 L1704.57 27.2059 L1719.93 27.2059 L1719.93 32.9987 L1704.57 32.9987 L1704.57 57.6282 Q1704.57 63.1779 1706.07 64.7578 Q1707.61 66.3376 1712.27 66.3376 L1719.93 66.3376 L1719.93 72.576 L1712.27 72.576 Q1703.64 72.576 1700.36 69.3758 Q1697.08 66.1351 1697.08 57.6282 L1697.08 32.9987 L1691.61 32.9987 L1691.61 27.2059 L1697.08 27.2059 L1697.08 14.324 L1704.57 14.324 Z" fill="#000000" fill-rule="nonzero" fill-opacity="1" /><path clip-path="url(#clip130)" d="M1767.44 45.1919 L1767.44 72.576 L1759.99 72.576 L1759.99 45.4349 Q1759.99 38.994 1757.48 35.7938 Q1754.97 32.5936 1749.94 32.5936 Q1743.91 32.5936 1740.42 36.4419 Q1736.94 40.2903 1736.94 46.9338 L1736.94 72.576 L1729.45 72.576 L1729.45 9.54393 L1736.94 9.54393 L1736.94 34.2544 Q1739.61 30.163 1743.22 28.1376 Q1746.86 26.1121 1751.6 26.1121 Q1759.42 26.1121 1763.43 30.9732 Q1767.44 35.7938 1767.44 45.1919 Z" fill="#000000" fill-rule="nonzero" fill-opacity="1" /><path clip-path="url(#clip130)" d="M1809.01 12.096 L1817.19 12.096 L1817.19 65.6895 L1846.64 65.6895 L1846.64 72.576 L1809.01 72.576 L1809.01 12.096 Z" fill="#000000" fill-rule="nonzero" fill-opacity="1" /><path clip-path="url(#clip130)" d="M1854.9 27.2059 L1862.36 27.2059 L1862.36 72.576 L1854.9 72.576 L1854.9 27.2059 M1854.9 9.54393 L1862.36 9.54393 L1862.36 18.9825 L1854.9 18.9825 L1854.9 9.54393 Z" fill="#000000" fill-rule="nonzero" fill-opacity="1" /><path clip-path="url(#clip130)" d="M1906.87 28.5427 L1906.87 35.5912 Q1903.72 33.9709 1900.31 33.1607 Q1896.91 32.3505 1893.26 32.3505 Q1887.71 32.3505 1884.92 34.0519 Q1882.16 35.7533 1882.16 39.156 Q1882.16 41.7486 1884.15 43.2475 Q1886.13 44.7058 1892.13 46.0426 L1894.68 46.6097 Q1902.62 48.3111 1905.94 51.4303 Q1909.31 54.509 1909.31 60.0587 Q1909.31 66.3781 1904.28 70.0644 Q1899.3 73.7508 1890.55 73.7508 Q1886.9 73.7508 1882.93 73.0216 Q1879 72.3329 1874.63 70.9151 L1874.63 63.2184 Q1878.76 65.3654 1882.77 66.4591 Q1886.78 67.5124 1890.71 67.5124 Q1895.98 67.5124 1898.81 65.73 Q1901.65 63.9071 1901.65 60.6258 Q1901.65 57.5877 1899.58 55.9673 Q1897.56 54.3469 1890.63 52.8481 L1888.04 52.2405 Q1881.11 50.7821 1878.03 47.7845 Q1874.95 44.7463 1874.95 39.4801 Q1874.95 33.0797 1879.49 29.5959 Q1884.03 26.1121 1892.37 26.1121 Q1896.5 26.1121 1900.15 26.7198 Q1903.8 27.3274 1906.87 28.5427 Z" fill="#000000" fill-rule="nonzero" fill-opacity="1" /><path clip-path="url(#clip130)" d="M1928.55 14.324 L1928.55 27.2059 L1943.9 27.2059 L1943.9 32.9987 L1928.55 32.9987 L1928.55 57.6282 Q1928.55 63.1779 1930.05 64.7578 Q1931.59 66.3376 1936.24 66.3376 L1943.9 66.3376 L1943.9 72.576 L1936.24 72.576 Q1927.62 72.576 1924.33 69.3758 Q1921.05 66.1351 1921.05 57.6282 L1921.05 32.9987 L1915.58 32.9987 L1915.58 27.2059 L1921.05 27.2059 L1921.05 14.324 L1928.55 14.324 Z" fill="#000000" fill-rule="nonzero" fill-opacity="1" /><polyline clip-path="url(#clip132)" style="stroke:#009af9; stroke-linecap:round; stroke-linejoin:round; stroke-width:4; stroke-opacity:1; fill:none" points="425.648,1386.4 427.332,1384.26 434.816,1381.33 444.172,1369.38 519.019,1316.46 612.577,1243.55 799.694,1149.93 986.81,981.161 1173.93,773.491 1361.04,674.423 1548.16,755.374 1735.28,379.415 1922.39,464.335 2109.51,160.256 2296.63,238.801 "/>
<circle clip-path="url(#clip132)" cx="425.648" cy="1386.4" r="14.4" fill="#e26f46" fill-rule="evenodd" fill-opacity="1" stroke="#000000" stroke-opacity="1" stroke-width="3.2"/>
<circle clip-path="url(#clip132)" cx="427.332" cy="1384.26" r="14.4" fill="#e26f46" fill-rule="evenodd" fill-opacity="1" stroke="#000000" stroke-opacity="1" stroke-width="3.2"/>
<circle clip-path="url(#clip132)" cx="434.816" cy="1381.33" r="14.4" fill="#e26f46" fill-rule="evenodd" fill-opacity="1" stroke="#000000" stroke-opacity="1" stroke-width="3.2"/>
<circle clip-path="url(#clip132)" cx="444.172" cy="1369.38" r="14.4" fill="#e26f46" fill-rule="evenodd" fill-opacity="1" stroke="#000000" stroke-opacity="1" stroke-width="3.2"/>
<circle clip-path="url(#clip132)" cx="519.019" cy="1316.46" r="14.4" fill="#e26f46" fill-rule="evenodd" fill-opacity="1" stroke="#000000" stroke-opacity="1" stroke-width="3.2"/>
<circle clip-path="url(#clip132)" cx="612.577" cy="1243.55" r="14.4" fill="#e26f46" fill-rule="evenodd" fill-opacity="1" stroke="#000000" stroke-opacity="1" stroke-width="3.2"/>
<circle clip-path="url(#clip132)" cx="799.694" cy="1149.93" r="14.4" fill="#e26f46" fill-rule="evenodd" fill-opacity="1" stroke="#000000" stroke-opacity="1" stroke-width="3.2"/>
<circle clip-path="url(#clip132)" cx="986.81" cy="981.161" r="14.4" fill="#e26f46" fill-rule="evenodd" fill-opacity="1" stroke="#000000" stroke-opacity="1" stroke-width="3.2"/>
<circle clip-path="url(#clip132)" cx="1173.93" cy="773.491" r="14.4" fill="#e26f46" fill-rule="evenodd" fill-opacity="1" stroke="#000000" stroke-opacity="1" stroke-width="3.2"/>
<circle clip-path="url(#clip132)" cx="1361.04" cy="674.423" r="14.4" fill="#e26f46" fill-rule="evenodd" fill-opacity="1" stroke="#000000" stroke-opacity="1" stroke-width="3.2"/>
<circle clip-path="url(#clip132)" cx="1548.16" cy="755.374" r="14.4" fill="#e26f46" fill-rule="evenodd" fill-opacity="1" stroke="#000000" stroke-opacity="1" stroke-width="3.2"/>
<circle clip-path="url(#clip132)" cx="1735.28" cy="379.415" r="14.4" fill="#e26f46" fill-rule="evenodd" fill-opacity="1" stroke="#000000" stroke-opacity="1" stroke-width="3.2"/>
<circle clip-path="url(#clip132)" cx="1922.39" cy="464.335" r="14.4" fill="#e26f46" fill-rule="evenodd" fill-opacity="1" stroke="#000000" stroke-opacity="1" stroke-width="3.2"/>
<circle clip-path="url(#clip132)" cx="2109.51" cy="160.256" r="14.4" fill="#e26f46" fill-rule="evenodd" fill-opacity="1" stroke="#000000" stroke-opacity="1" stroke-width="3.2"/>
<circle clip-path="url(#clip132)" cx="2296.63" cy="238.801" r="14.4" fill="#e26f46" fill-rule="evenodd" fill-opacity="1" stroke="#000000" stroke-opacity="1" stroke-width="3.2"/>
</svg>
