<?xml version="1.0" encoding="utf-8"?>
<svg xmlns="http://www.w3.org/2000/svg" xmlns:xlink="http://www.w3.org/1999/xlink" width="600" height="400" viewBox="0 0 2400 1600">
<defs>
  <clipPath id="clip560">
    <rect x="0" y="0" width="2400" height="1600"/>
  </clipPath>
</defs>
<path clip-path="url(#clip560)" d="M0 1600 L2400 1600 L2400 0 L0 0  Z" fill="#ffffff" fill-rule="evenodd" fill-opacity="1"/>
<defs>
  <clipPath id="clip561">
    <rect x="480" y="0" width="1681" height="1600"/>
  </clipPath>
</defs>
<path clip-path="url(#clip560)" d="M368.566 1423.18 L2352.76 1423.18 L2352.76 123.472 L368.566 123.472  Z" fill="#ffffff" fill-rule="evenodd" fill-opacity="1"/>
<defs>
  <clipPath id="clip562">
    <rect x="368" y="123" width="1985" height="1301"/>
  </clipPath>
</defs>
<polyline clip-path="url(#clip562)" style="stroke:#000000; stroke-linecap:round; stroke-linejoin:round; stroke-width:2; stroke-opacity:0.1; fill:none" points="424.535,1423.18 424.535,123.472 "/>
<polyline clip-path="url(#clip562)" style="stroke:#000000; stroke-linecap:round; stroke-linejoin:round; stroke-width:2; stroke-opacity:0.1; fill:none" points="892.551,1423.18 892.551,123.472 "/>
<polyline clip-path="url(#clip562)" style="stroke:#000000; stroke-linecap:round; stroke-linejoin:round; stroke-width:2; stroke-opacity:0.1; fill:none" points="1360.57,1423.18 1360.57,123.472 "/>
<polyline clip-path="url(#clip562)" style="stroke:#000000; stroke-linecap:round; stroke-linejoin:round; stroke-width:2; stroke-opacity:0.1; fill:none" points="1828.58,1423.18 1828.58,123.472 "/>
<polyline clip-path="url(#clip562)" style="stroke:#000000; stroke-linecap:round; stroke-linejoin:round; stroke-width:2; stroke-opacity:0.1; fill:none" points="2296.6,1423.18 2296.6,123.472 "/>
<polyline clip-path="url(#clip560)" style="stroke:#000000; stroke-linecap:round; stroke-linejoin:round; stroke-width:4; stroke-opacity:1; fill:none" points="368.566,1423.18 2352.76,1423.18 "/>
<polyline clip-path="url(#clip560)" style="stroke:#000000; stroke-linecap:round; stroke-linejoin:round; stroke-width:4; stroke-opacity:1; fill:none" points="424.535,1423.18 424.535,1404.28 "/>
<polyline clip-path="url(#clip560)" style="stroke:#000000; stroke-linecap:round; stroke-linejoin:round; stroke-width:4; stroke-opacity:1; fill:none" points="892.551,1423.18 892.551,1404.28 "/>
<polyline clip-path="url(#clip560)" style="stroke:#000000; stroke-linecap:round; stroke-linejoin:round; stroke-width:4; stroke-opacity:1; fill:none" points="1360.57,1423.18 1360.57,1404.28 "/>
<polyline clip-path="url(#clip560)" style="stroke:#000000; stroke-linecap:round; stroke-linejoin:round; stroke-width:4; stroke-opacity:1; fill:none" points="1828.58,1423.18 1828.58,1404.28 "/>
<polyline clip-path="url(#clip560)" style="stroke:#000000; stroke-linecap:round; stroke-linejoin:round; stroke-width:4; stroke-opacity:1; fill:none" points="2296.6,1423.18 2296.6,1404.28 "/>
<path clip-path="url(#clip560)" d="M424.535 1454.1 Q420.924 1454.1 419.096 1457.66 Q417.29 1461.2 417.29 1468.33 Q417.29 1475.44 419.096 1479.01 Q420.924 1482.55 424.535 1482.55 Q428.17 1482.55 429.975 1479.01 Q431.804 1475.44 431.804 1468.33 Q431.804 1461.2 429.975 1457.66 Q428.17 1454.1 424.535 1454.1 M424.535 1450.39 Q430.346 1450.39 433.401 1455 Q436.48 1459.58 436.48 1468.33 Q436.48 1477.06 433.401 1481.67 Q430.346 1486.25 424.535 1486.25 Q418.725 1486.25 415.647 1481.67 Q412.591 1477.06 412.591 1468.33 Q412.591 1459.58 415.647 1455 Q418.725 1450.39 424.535 1450.39 Z" fill="#000000" fill-rule="nonzero" fill-opacity="1" /><path clip-path="url(#clip560)" d="M841.163 1481.64 L857.482 1481.64 L857.482 1485.58 L835.538 1485.58 L835.538 1481.64 Q838.2 1478.89 842.783 1474.26 Q847.39 1469.61 848.57 1468.27 Q850.816 1465.74 851.695 1464.01 Q852.598 1462.25 852.598 1460.56 Q852.598 1457.8 850.654 1456.07 Q848.732 1454.33 845.63 1454.33 Q843.431 1454.33 840.978 1455.09 Q838.547 1455.86 835.769 1457.41 L835.769 1452.69 Q838.593 1451.55 841.047 1450.97 Q843.501 1450.39 845.538 1450.39 Q850.908 1450.39 854.103 1453.08 Q857.297 1455.77 857.297 1460.26 Q857.297 1462.39 856.487 1464.31 Q855.7 1466.2 853.593 1468.8 Q853.015 1469.47 849.913 1472.69 Q846.811 1475.88 841.163 1481.64 Z" fill="#000000" fill-rule="nonzero" fill-opacity="1" /><path clip-path="url(#clip560)" d="M867.343 1451.02 L885.7 1451.02 L885.7 1454.96 L871.626 1454.96 L871.626 1463.43 Q872.644 1463.08 873.663 1462.92 Q874.681 1462.73 875.7 1462.73 Q881.487 1462.73 884.866 1465.9 Q888.246 1469.08 888.246 1474.49 Q888.246 1480.07 884.774 1483.17 Q881.301 1486.25 874.982 1486.25 Q872.806 1486.25 870.538 1485.88 Q868.292 1485.51 865.885 1484.77 L865.885 1480.07 Q867.968 1481.2 870.19 1481.76 Q872.413 1482.32 874.889 1482.32 Q878.894 1482.32 881.232 1480.21 Q883.57 1478.1 883.57 1474.49 Q883.57 1470.88 881.232 1468.77 Q878.894 1466.67 874.889 1466.67 Q873.015 1466.67 871.14 1467.08 Q869.288 1467.5 867.343 1468.38 L867.343 1451.02 Z" fill="#000000" fill-rule="nonzero" fill-opacity="1" /><path clip-path="url(#clip560)" d="M907.459 1454.1 Q903.848 1454.1 902.019 1457.66 Q900.213 1461.2 900.213 1468.33 Q900.213 1475.44 902.019 1479.01 Q903.848 1482.55 907.459 1482.55 Q911.093 1482.55 912.899 1479.01 Q914.727 1475.44 914.727 1468.33 Q914.727 1461.2 912.899 1457.66 Q911.093 1454.1 907.459 1454.1 M907.459 1450.39 Q913.269 1450.39 916.324 1455 Q919.403 1459.58 919.403 1468.33 Q919.403 1477.06 916.324 1481.67 Q913.269 1486.25 907.459 1486.25 Q901.649 1486.25 898.57 1481.67 Q895.514 1477.06 895.514 1468.33 Q895.514 1459.58 898.57 1455 Q901.649 1450.39 907.459 1450.39 Z" fill="#000000" fill-rule="nonzero" fill-opacity="1" /><path clip-path="url(#clip560)" d="M937.621 1454.1 Q934.01 1454.1 932.181 1457.66 Q930.375 1461.2 930.375 1468.33 Q930.375 1475.44 932.181 1479.01 Q934.01 1482.55 937.621 1482.55 Q941.255 1482.55 943.06 1479.01 Q944.889 1475.44 944.889 1468.33 Q944.889 1461.2 943.06 1457.66 Q941.255 1454.1 937.621 1454.1 M937.621 1450.39 Q943.431 1450.39 946.486 1455 Q949.565 1459.58 949.565 1468.33 Q949.565 1477.06 946.486 1481.67 Q943.431 1486.25 937.621 1486.25 Q931.81 1486.25 928.732 1481.67 Q925.676 1477.06 925.676 1468.33 Q925.676 1459.58 928.732 1455 Q931.81 1450.39 937.621 1450.39 Z" fill="#000000" fill-rule="nonzero" fill-opacity="1" /><path clip-path="url(#clip560)" d="M1305.1 1451.02 L1323.46 1451.02 L1323.46 1454.96 L1309.39 1454.96 L1309.39 1463.43 Q1310.41 1463.08 1311.42 1462.92 Q1312.44 1462.73 1313.46 1462.73 Q1319.25 1462.73 1322.63 1465.9 Q1326.01 1469.08 1326.01 1474.49 Q1326.01 1480.07 1322.54 1483.17 Q1319.06 1486.25 1312.74 1486.25 Q1310.57 1486.25 1308.3 1485.88 Q1306.05 1485.51 1303.65 1484.77 L1303.65 1480.07 Q1305.73 1481.2 1307.95 1481.76 Q1310.17 1482.32 1312.65 1482.32 Q1316.66 1482.32 1318.99 1480.21 Q1321.33 1478.1 1321.33 1474.49 Q1321.33 1470.88 1318.99 1468.77 Q1316.66 1466.67 1312.65 1466.67 Q1310.78 1466.67 1308.9 1467.08 Q1307.05 1467.5 1305.1 1468.38 L1305.1 1451.02 Z" fill="#000000" fill-rule="nonzero" fill-opacity="1" /><path clip-path="url(#clip560)" d="M1345.22 1454.1 Q1341.61 1454.1 1339.78 1457.66 Q1337.98 1461.2 1337.98 1468.33 Q1337.98 1475.44 1339.78 1479.01 Q1341.61 1482.55 1345.22 1482.55 Q1348.85 1482.55 1350.66 1479.01 Q1352.49 1475.44 1352.49 1468.33 Q1352.49 1461.2 1350.66 1457.66 Q1348.85 1454.1 1345.22 1454.1 M1345.22 1450.39 Q1351.03 1450.39 1354.09 1455 Q1357.16 1459.58 1357.16 1468.33 Q1357.16 1477.06 1354.09 1481.67 Q1351.03 1486.25 1345.22 1486.25 Q1339.41 1486.25 1336.33 1481.67 Q1333.28 1477.06 1333.28 1468.33 Q1333.28 1459.58 1336.33 1455 Q1339.41 1450.39 1345.22 1450.39 Z" fill="#000000" fill-rule="nonzero" fill-opacity="1" /><path clip-path="url(#clip560)" d="M1375.38 1454.1 Q1371.77 1454.1 1369.94 1457.66 Q1368.14 1461.2 1368.14 1468.33 Q1368.14 1475.44 1369.94 1479.01 Q1371.77 1482.55 1375.38 1482.55 Q1379.02 1482.55 1380.82 1479.01 Q1382.65 1475.44 1382.65 1468.33 Q1382.65 1461.2 1380.82 1457.66 Q1379.02 1454.1 1375.38 1454.1 M1375.38 1450.39 Q1381.19 1450.39 1384.25 1455 Q1387.33 1459.58 1387.33 1468.33 Q1387.33 1477.06 1384.25 1481.67 Q1381.19 1486.25 1375.38 1486.25 Q1369.57 1486.25 1366.49 1481.67 Q1363.44 1477.06 1363.44 1468.33 Q1363.44 1459.58 1366.49 1455 Q1369.57 1450.39 1375.38 1450.39 Z" fill="#000000" fill-rule="nonzero" fill-opacity="1" /><path clip-path="url(#clip560)" d="M1405.54 1454.1 Q1401.93 1454.1 1400.1 1457.66 Q1398.3 1461.2 1398.3 1468.33 Q1398.3 1475.44 1400.1 1479.01 Q1401.93 1482.55 1405.54 1482.55 Q1409.18 1482.55 1410.98 1479.01 Q1412.81 1475.44 1412.81 1468.33 Q1412.81 1461.2 1410.98 1457.66 Q1409.18 1454.1 1405.54 1454.1 M1405.54 1450.39 Q1411.35 1450.39 1414.41 1455 Q1417.49 1459.58 1417.49 1468.33 Q1417.49 1477.06 1414.41 1481.67 Q1411.35 1486.25 1405.54 1486.25 Q1399.73 1486.25 1396.66 1481.67 Q1393.6 1477.06 1393.6 1468.33 Q1393.6 1459.58 1396.66 1455 Q1399.73 1450.39 1405.54 1450.39 Z" fill="#000000" fill-rule="nonzero" fill-opacity="1" /><path clip-path="url(#clip560)" d="M1771.78 1451.02 L1794 1451.02 L1794 1453.01 L1781.45 1485.58 L1776.57 1485.58 L1788.38 1454.96 L1771.78 1454.96 L1771.78 1451.02 Z" fill="#000000" fill-rule="nonzero" fill-opacity="1" /><path clip-path="url(#clip560)" d="M1803.17 1451.02 L1821.52 1451.02 L1821.52 1454.96 L1807.45 1454.96 L1807.45 1463.43 Q1808.47 1463.08 1809.49 1462.92 Q1810.5 1462.73 1811.52 1462.73 Q1817.31 1462.73 1820.69 1465.9 Q1824.07 1469.08 1824.07 1474.49 Q1824.07 1480.07 1820.6 1483.17 Q1817.13 1486.25 1810.81 1486.25 Q1808.63 1486.25 1806.36 1485.88 Q1804.12 1485.51 1801.71 1484.77 L1801.71 1480.07 Q1803.79 1481.2 1806.01 1481.76 Q1808.24 1482.32 1810.71 1482.32 Q1814.72 1482.32 1817.06 1480.21 Q1819.39 1478.1 1819.39 1474.49 Q1819.39 1470.88 1817.06 1468.77 Q1814.72 1466.67 1810.71 1466.67 Q1808.84 1466.67 1806.96 1467.08 Q1805.11 1467.5 1803.17 1468.38 L1803.17 1451.02 Z" fill="#000000" fill-rule="nonzero" fill-opacity="1" /><path clip-path="url(#clip560)" d="M1843.28 1454.1 Q1839.67 1454.1 1837.84 1457.66 Q1836.04 1461.2 1836.04 1468.33 Q1836.04 1475.44 1837.84 1479.01 Q1839.67 1482.55 1843.28 1482.55 Q1846.92 1482.55 1848.72 1479.01 Q1850.55 1475.44 1850.55 1468.33 Q1850.55 1461.2 1848.72 1457.66 Q1846.92 1454.1 1843.28 1454.1 M1843.28 1450.39 Q1849.09 1450.39 1852.15 1455 Q1855.23 1459.58 1855.23 1468.33 Q1855.23 1477.06 1852.15 1481.67 Q1849.09 1486.25 1843.28 1486.25 Q1837.47 1486.25 1834.39 1481.67 Q1831.34 1477.06 1831.34 1468.33 Q1831.34 1459.58 1834.39 1455 Q1837.47 1450.39 1843.28 1450.39 Z" fill="#000000" fill-rule="nonzero" fill-opacity="1" /><path clip-path="url(#clip560)" d="M1873.44 1454.1 Q1869.83 1454.1 1868 1457.66 Q1866.2 1461.2 1866.2 1468.33 Q1866.2 1475.44 1868 1479.01 Q1869.83 1482.55 1873.44 1482.55 Q1877.08 1482.55 1878.88 1479.01 Q1880.71 1475.44 1880.71 1468.33 Q1880.71 1461.2 1878.88 1457.66 Q1877.08 1454.1 1873.44 1454.1 M1873.44 1450.39 Q1879.25 1450.39 1882.31 1455 Q1885.39 1459.58 1885.39 1468.33 Q1885.39 1477.06 1882.31 1481.67 Q1879.25 1486.25 1873.44 1486.25 Q1867.63 1486.25 1864.56 1481.67 Q1861.5 1477.06 1861.5 1468.33 Q1861.5 1459.58 1864.56 1455 Q1867.63 1450.39 1873.44 1450.39 Z" fill="#000000" fill-rule="nonzero" fill-opacity="1" /><path clip-path="url(#clip560)" d="M2226.04 1481.64 L2233.68 1481.64 L2233.68 1455.28 L2225.37 1456.95 L2225.37 1452.69 L2233.64 1451.02 L2238.31 1451.02 L2238.31 1481.64 L2245.95 1481.64 L2245.95 1485.58 L2226.04 1485.58 L2226.04 1481.64 Z" fill="#000000" fill-rule="nonzero" fill-opacity="1" /><path clip-path="url(#clip560)" d="M2265.4 1454.1 Q2261.78 1454.1 2259.96 1457.66 Q2258.15 1461.2 2258.15 1468.33 Q2258.15 1475.44 2259.96 1479.01 Q2261.78 1482.55 2265.4 1482.55 Q2269.03 1482.55 2270.84 1479.01 Q2272.66 1475.44 2272.66 1468.33 Q2272.66 1461.2 2270.84 1457.66 Q2269.03 1454.1 2265.4 1454.1 M2265.4 1450.39 Q2271.21 1450.39 2274.26 1455 Q2277.34 1459.58 2277.34 1468.33 Q2277.34 1477.06 2274.26 1481.67 Q2271.21 1486.25 2265.4 1486.25 Q2259.59 1486.25 2256.51 1481.67 Q2253.45 1477.06 2253.45 1468.33 Q2253.45 1459.58 2256.51 1455 Q2259.59 1450.39 2265.4 1450.39 Z" fill="#000000" fill-rule="nonzero" fill-opacity="1" /><path clip-path="url(#clip560)" d="M2295.56 1454.1 Q2291.95 1454.1 2290.12 1457.66 Q2288.31 1461.2 2288.31 1468.33 Q2288.31 1475.44 2290.12 1479.01 Q2291.95 1482.55 2295.56 1482.55 Q2299.19 1482.55 2301 1479.01 Q2302.83 1475.44 2302.83 1468.33 Q2302.83 1461.2 2301 1457.66 Q2299.19 1454.1 2295.56 1454.1 M2295.56 1450.39 Q2301.37 1450.39 2304.42 1455 Q2307.5 1459.58 2307.5 1468.33 Q2307.5 1477.06 2304.42 1481.67 Q2301.37 1486.25 2295.56 1486.25 Q2289.75 1486.25 2286.67 1481.67 Q2283.61 1477.06 2283.61 1468.33 Q2283.61 1459.58 2286.67 1455 Q2289.75 1450.39 2295.56 1450.39 Z" fill="#000000" fill-rule="nonzero" fill-opacity="1" /><path clip-path="url(#clip560)" d="M2325.72 1454.1 Q2322.11 1454.1 2320.28 1457.66 Q2318.47 1461.2 2318.47 1468.33 Q2318.47 1475.44 2320.28 1479.01 Q2322.11 1482.55 2325.72 1482.55 Q2329.35 1482.55 2331.16 1479.01 Q2332.99 1475.44 2332.99 1468.33 Q2332.99 1461.2 2331.16 1457.66 Q2329.35 1454.1 2325.72 1454.1 M2325.72 1450.39 Q2331.53 1450.39 2334.59 1455 Q2337.66 1459.58 2337.66 1468.33 Q2337.66 1477.06 2334.59 1481.67 Q2331.53 1486.25 2325.72 1486.25 Q2319.91 1486.25 2316.83 1481.67 Q2313.78 1477.06 2313.78 1468.33 Q2313.78 1459.58 2316.83 1455 Q2319.91 1450.39 2325.72 1450.39 Z" fill="#000000" fill-rule="nonzero" fill-opacity="1" /><path clip-path="url(#clip560)" d="M2355.88 1454.1 Q2352.27 1454.1 2350.44 1457.66 Q2348.64 1461.2 2348.64 1468.33 Q2348.64 1475.44 2350.44 1479.01 Q2352.27 1482.55 2355.88 1482.55 Q2359.52 1482.55 2361.32 1479.01 Q2363.15 1475.44 2363.15 1468.33 Q2363.15 1461.2 2361.32 1457.66 Q2359.52 1454.1 2355.88 1454.1 M2355.88 1450.39 Q2361.69 1450.39 2364.75 1455 Q2367.83 1459.58 2367.83 1468.33 Q2367.83 1477.06 2364.75 1481.67 Q2361.69 1486.25 2355.88 1486.25 Q2350.07 1486.25 2346.99 1481.67 Q2343.94 1477.06 2343.94 1468.33 Q2343.94 1459.58 2346.99 1455 Q2350.07 1450.39 2355.88 1450.39 Z" fill="#000000" fill-rule="nonzero" fill-opacity="1" /><path clip-path="url(#clip560)" d="M1342.68 1520.52 L1351.34 1520.52 L1372.41 1560.28 L1372.41 1520.52 L1378.64 1520.52 L1378.64 1568.04 L1369.99 1568.04 L1348.92 1528.29 L1348.92 1568.04 L1342.68 1568.04 L1342.68 1520.52 Z" fill="#000000" fill-rule="nonzero" fill-opacity="1" /><polyline clip-path="url(#clip562)" style="stroke:#000000; stroke-linecap:round; stroke-linejoin:round; stroke-width:2; stroke-opacity:0.1; fill:none" points="368.566,1386.46 2352.76,1386.46 "/>
<polyline clip-path="url(#clip562)" style="stroke:#000000; stroke-linecap:round; stroke-linejoin:round; stroke-width:2; stroke-opacity:0.1; fill:none" points="368.566,1201.16 2352.76,1201.16 "/>
<polyline clip-path="url(#clip562)" style="stroke:#000000; stroke-linecap:round; stroke-linejoin:round; stroke-width:2; stroke-opacity:0.1; fill:none" points="368.566,1015.86 2352.76,1015.86 "/>
<polyline clip-path="url(#clip562)" style="stroke:#000000; stroke-linecap:round; stroke-linejoin:round; stroke-width:2; stroke-opacity:0.1; fill:none" points="368.566,830.559 2352.76,830.559 "/>
<polyline clip-path="url(#clip562)" style="stroke:#000000; stroke-linecap:round; stroke-linejoin:round; stroke-width:2; stroke-opacity:0.1; fill:none" points="368.566,645.259 2352.76,645.259 "/>
<polyline clip-path="url(#clip562)" style="stroke:#000000; stroke-linecap:round; stroke-linejoin:round; stroke-width:2; stroke-opacity:0.1; fill:none" points="368.566,459.959 2352.76,459.959 "/>
<polyline clip-path="url(#clip562)" style="stroke:#000000; stroke-linecap:round; stroke-linejoin:round; stroke-width:2; stroke-opacity:0.1; fill:none" points="368.566,274.659 2352.76,274.659 "/>
<polyline clip-path="url(#clip560)" style="stroke:#000000; stroke-linecap:round; stroke-linejoin:round; stroke-width:4; stroke-opacity:1; fill:none" points="368.566,1423.18 368.566,123.472 "/>
<polyline clip-path="url(#clip560)" style="stroke:#000000; stroke-linecap:round; stroke-linejoin:round; stroke-width:4; stroke-opacity:1; fill:none" points="368.566,1386.46 387.464,1386.46 "/>
<polyline clip-path="url(#clip560)" style="stroke:#000000; stroke-linecap:round; stroke-linejoin:round; stroke-width:4; stroke-opacity:1; fill:none" points="368.566,1201.16 387.464,1201.16 "/>
<polyline clip-path="url(#clip560)" style="stroke:#000000; stroke-linecap:round; stroke-linejoin:round; stroke-width:4; stroke-opacity:1; fill:none" points="368.566,1015.86 387.464,1015.86 "/>
<polyline clip-path="url(#clip560)" style="stroke:#000000; stroke-linecap:round; stroke-linejoin:round; stroke-width:4; stroke-opacity:1; fill:none" points="368.566,830.559 387.464,830.559 "/>
<polyline clip-path="url(#clip560)" style="stroke:#000000; stroke-linecap:round; stroke-linejoin:round; stroke-width:4; stroke-opacity:1; fill:none" points="368.566,645.259 387.464,645.259 "/>
<polyline clip-path="url(#clip560)" style="stroke:#000000; stroke-linecap:round; stroke-linejoin:round; stroke-width:4; stroke-opacity:1; fill:none" points="368.566,459.959 387.464,459.959 "/>
<polyline clip-path="url(#clip560)" style="stroke:#000000; stroke-linecap:round; stroke-linejoin:round; stroke-width:4; stroke-opacity:1; fill:none" points="368.566,274.659 387.464,274.659 "/>
<path clip-path="url(#clip560)" d="M320.622 1372.26 Q317.011 1372.26 315.182 1375.82 Q313.377 1379.36 313.377 1386.49 Q313.377 1393.6 315.182 1397.17 Q317.011 1400.71 320.622 1400.71 Q324.256 1400.71 326.062 1397.17 Q327.89 1393.6 327.89 1386.49 Q327.89 1379.36 326.062 1375.82 Q324.256 1372.26 320.622 1372.26 M320.622 1368.55 Q326.432 1368.55 329.488 1373.16 Q332.566 1377.74 332.566 1386.49 Q332.566 1395.22 329.488 1399.83 Q326.432 1404.41 320.622 1404.41 Q314.812 1404.41 311.733 1399.83 Q308.678 1395.22 308.678 1386.49 Q308.678 1377.74 311.733 1373.16 Q314.812 1368.55 320.622 1368.55 Z" fill="#000000" fill-rule="nonzero" fill-opacity="1" /><path clip-path="url(#clip560)" d="M121.043 1220.95 L137.362 1220.95 L137.362 1224.89 L115.418 1224.89 L115.418 1220.95 Q118.08 1218.2 122.663 1213.57 Q127.269 1208.91 128.45 1207.57 Q130.695 1205.05 131.575 1203.31 Q132.478 1201.55 132.478 1199.86 Q132.478 1197.11 130.533 1195.37 Q128.612 1193.64 125.51 1193.64 Q123.311 1193.64 120.857 1194.4 Q118.427 1195.16 115.649 1196.72 L115.649 1191.99 Q118.473 1190.86 120.927 1190.28 Q123.38 1189.7 125.418 1189.7 Q130.788 1189.7 133.982 1192.39 Q137.177 1195.07 137.177 1199.56 Q137.177 1201.69 136.367 1203.61 Q135.579 1205.51 133.473 1208.1 Q132.894 1208.78 129.792 1211.99 Q126.691 1215.19 121.043 1220.95 Z" fill="#000000" fill-rule="nonzero" fill-opacity="1" /><path clip-path="url(#clip560)" d="M147.177 1219.01 L152.061 1219.01 L152.061 1224.89 L147.177 1224.89 L147.177 1219.01 Z" fill="#000000" fill-rule="nonzero" fill-opacity="1" /><path clip-path="url(#clip560)" d="M172.246 1193.41 Q168.635 1193.41 166.806 1196.97 Q165.001 1200.51 165.001 1207.64 Q165.001 1214.75 166.806 1218.31 Q168.635 1221.85 172.246 1221.85 Q175.88 1221.85 177.686 1218.31 Q179.514 1214.75 179.514 1207.64 Q179.514 1200.51 177.686 1196.97 Q175.88 1193.41 172.246 1193.41 M172.246 1189.7 Q178.056 1189.7 181.112 1194.31 Q184.19 1198.89 184.19 1207.64 Q184.19 1216.37 181.112 1220.97 Q178.056 1225.56 172.246 1225.56 Q166.436 1225.56 163.357 1220.97 Q160.302 1216.37 160.302 1207.64 Q160.302 1198.89 163.357 1194.31 Q166.436 1189.7 172.246 1189.7 Z" fill="#000000" fill-rule="nonzero" fill-opacity="1" /><path clip-path="url(#clip560)" d="M202.408 1193.41 Q198.797 1193.41 196.968 1196.97 Q195.163 1200.51 195.163 1207.64 Q195.163 1214.75 196.968 1218.31 Q198.797 1221.85 202.408 1221.85 Q206.042 1221.85 207.848 1218.31 Q209.676 1214.75 209.676 1207.64 Q209.676 1200.51 207.848 1196.97 Q206.042 1193.41 202.408 1193.41 M202.408 1189.7 Q208.218 1189.7 211.274 1194.31 Q214.352 1198.89 214.352 1207.64 Q214.352 1216.37 211.274 1220.97 Q208.218 1225.56 202.408 1225.56 Q196.598 1225.56 193.519 1220.97 Q190.463 1216.37 190.463 1207.64 Q190.463 1198.89 193.519 1194.31 Q196.598 1189.7 202.408 1189.7 Z" fill="#000000" fill-rule="nonzero" fill-opacity="1" /><path clip-path="url(#clip560)" d="M250.741 1199.42 L240.162 1210.05 L250.741 1220.63 L247.986 1223.43 L237.361 1212.8 L226.736 1223.43 L224.005 1220.63 L234.56 1210.05 L224.005 1199.42 L226.736 1196.62 L237.361 1207.25 L247.986 1196.62 L250.741 1199.42 Z" fill="#000000" fill-rule="nonzero" fill-opacity="1" /><path clip-path="url(#clip560)" d="M263.102 1220.95 L270.741 1220.95 L270.741 1194.59 L262.431 1196.25 L262.431 1191.99 L270.695 1190.33 L275.37 1190.33 L275.37 1220.95 L283.009 1220.95 L283.009 1224.89 L263.102 1224.89 L263.102 1220.95 Z" fill="#000000" fill-rule="nonzero" fill-opacity="1" /><path clip-path="url(#clip560)" d="M302.454 1193.41 Q298.843 1193.41 297.014 1196.97 Q295.208 1200.51 295.208 1207.64 Q295.208 1214.75 297.014 1218.31 Q298.843 1221.85 302.454 1221.85 Q306.088 1221.85 307.893 1218.31 Q309.722 1214.75 309.722 1207.64 Q309.722 1200.51 307.893 1196.97 Q306.088 1193.41 302.454 1193.41 M302.454 1189.7 Q308.264 1189.7 311.319 1194.31 Q314.398 1198.89 314.398 1207.64 Q314.398 1216.37 311.319 1220.97 Q308.264 1225.56 302.454 1225.56 Q296.643 1225.56 293.565 1220.97 Q290.509 1216.37 290.509 1207.64 Q290.509 1198.89 293.565 1194.31 Q296.643 1189.7 302.454 1189.7 Z" fill="#000000" fill-rule="nonzero" fill-opacity="1" /><path clip-path="url(#clip560)" d="M315.583 1169.4 L330.497 1169.4 L330.497 1172.59 L319.062 1172.59 L319.062 1179.48 Q319.89 1179.2 320.717 1179.06 Q321.545 1178.91 322.372 1178.91 Q327.074 1178.91 329.82 1181.49 Q332.566 1184.07 332.566 1188.47 Q332.566 1193 329.745 1195.52 Q326.924 1198.02 321.789 1198.02 Q320.021 1198.02 318.178 1197.72 Q316.354 1197.42 314.398 1196.82 L314.398 1193 Q316.091 1193.92 317.896 1194.37 Q319.702 1194.82 321.714 1194.82 Q324.968 1194.82 326.868 1193.11 Q328.767 1191.4 328.767 1188.47 Q328.767 1185.53 326.868 1183.82 Q324.968 1182.11 321.714 1182.11 Q320.191 1182.11 318.667 1182.45 Q317.163 1182.79 315.583 1183.5 L315.583 1169.4 Z" fill="#000000" fill-rule="nonzero" fill-opacity="1" /><path clip-path="url(#clip560)" d="M129.862 1009.1 L118.056 1027.55 L129.862 1027.55 L129.862 1009.1 M128.635 1005.03 L134.515 1005.03 L134.515 1027.55 L139.445 1027.55 L139.445 1031.44 L134.515 1031.44 L134.515 1039.59 L129.862 1039.59 L129.862 1031.44 L114.26 1031.44 L114.26 1026.92 L128.635 1005.03 Z" fill="#000000" fill-rule="nonzero" fill-opacity="1" /><path clip-path="url(#clip560)" d="M147.177 1033.71 L152.061 1033.71 L152.061 1039.59 L147.177 1039.59 L147.177 1033.71 Z" fill="#000000" fill-rule="nonzero" fill-opacity="1" /><path clip-path="url(#clip560)" d="M172.246 1008.11 Q168.635 1008.11 166.806 1011.67 Q165.001 1015.21 165.001 1022.34 Q165.001 1029.45 166.806 1033.01 Q168.635 1036.55 172.246 1036.55 Q175.88 1036.55 177.686 1033.01 Q179.514 1029.45 179.514 1022.34 Q179.514 1015.21 177.686 1011.67 Q175.88 1008.11 172.246 1008.11 M172.246 1004.4 Q178.056 1004.4 181.112 1009.01 Q184.19 1013.59 184.19 1022.34 Q184.19 1031.07 181.112 1035.67 Q178.056 1040.26 172.246 1040.26 Q166.436 1040.26 163.357 1035.67 Q160.302 1031.07 160.302 1022.34 Q160.302 1013.59 163.357 1009.01 Q166.436 1004.4 172.246 1004.4 Z" fill="#000000" fill-rule="nonzero" fill-opacity="1" /><path clip-path="url(#clip560)" d="M202.408 1008.11 Q198.797 1008.11 196.968 1011.67 Q195.163 1015.21 195.163 1022.34 Q195.163 1029.45 196.968 1033.01 Q198.797 1036.55 202.408 1036.55 Q206.042 1036.55 207.848 1033.01 Q209.676 1029.45 209.676 1022.34 Q209.676 1015.21 207.848 1011.67 Q206.042 1008.11 202.408 1008.11 M202.408 1004.4 Q208.218 1004.4 211.274 1009.01 Q214.352 1013.59 214.352 1022.34 Q214.352 1031.07 211.274 1035.67 Q208.218 1040.26 202.408 1040.26 Q196.598 1040.26 193.519 1035.67 Q190.463 1031.07 190.463 1022.34 Q190.463 1013.59 193.519 1009.01 Q196.598 1004.4 202.408 1004.4 Z" fill="#000000" fill-rule="nonzero" fill-opacity="1" /><path clip-path="url(#clip560)" d="M250.741 1014.12 L240.162 1024.75 L250.741 1035.33 L247.986 1038.13 L237.361 1027.5 L226.736 1038.13 L224.005 1035.33 L234.56 1024.75 L224.005 1014.12 L226.736 1011.32 L237.361 1021.95 L247.986 1011.32 L250.741 1014.12 Z" fill="#000000" fill-rule="nonzero" fill-opacity="1" /><path clip-path="url(#clip560)" d="M263.102 1035.65 L270.741 1035.65 L270.741 1009.29 L262.431 1010.95 L262.431 1006.69 L270.695 1005.03 L275.37 1005.03 L275.37 1035.65 L283.009 1035.65 L283.009 1039.59 L263.102 1039.59 L263.102 1035.65 Z" fill="#000000" fill-rule="nonzero" fill-opacity="1" /><path clip-path="url(#clip560)" d="M302.454 1008.11 Q298.843 1008.11 297.014 1011.67 Q295.208 1015.21 295.208 1022.34 Q295.208 1029.45 297.014 1033.01 Q298.843 1036.55 302.454 1036.55 Q306.088 1036.55 307.893 1033.01 Q309.722 1029.45 309.722 1022.34 Q309.722 1015.21 307.893 1011.67 Q306.088 1008.11 302.454 1008.11 M302.454 1004.4 Q308.264 1004.4 311.319 1009.01 Q314.398 1013.59 314.398 1022.34 Q314.398 1031.07 311.319 1035.67 Q308.264 1040.26 302.454 1040.26 Q296.643 1040.26 293.565 1035.67 Q290.509 1031.07 290.509 1022.34 Q290.509 1013.59 293.565 1009.01 Q296.643 1004.4 302.454 1004.4 Z" fill="#000000" fill-rule="nonzero" fill-opacity="1" /><path clip-path="url(#clip560)" d="M315.583 984.096 L330.497 984.096 L330.497 987.294 L319.062 987.294 L319.062 994.177 Q319.89 993.895 320.717 993.764 Q321.545 993.613 322.372 993.613 Q327.074 993.613 329.82 996.19 Q332.566 998.767 332.566 1003.17 Q332.566 1007.7 329.745 1010.22 Q326.924 1012.72 321.789 1012.72 Q320.021 1012.72 318.178 1012.42 Q316.354 1012.12 314.398 1011.52 L314.398 1007.7 Q316.091 1008.62 317.896 1009.07 Q319.702 1009.52 321.714 1009.52 Q324.968 1009.52 326.868 1007.81 Q328.767 1006.1 328.767 1003.17 Q328.767 1000.23 326.868 998.522 Q324.968 996.811 321.714 996.811 Q320.191 996.811 318.667 997.149 Q317.163 997.488 315.583 998.202 L315.583 984.096 Z" fill="#000000" fill-rule="nonzero" fill-opacity="1" /><path clip-path="url(#clip560)" d="M127.593 835.143 Q124.445 835.143 122.593 837.296 Q120.765 839.449 120.765 843.199 Q120.765 846.926 122.593 849.102 Q124.445 851.254 127.593 851.254 Q130.742 851.254 132.57 849.102 Q134.422 846.926 134.422 843.199 Q134.422 839.449 132.57 837.296 Q130.742 835.143 127.593 835.143 M136.876 820.491 L136.876 824.75 Q135.117 823.917 133.311 823.477 Q131.529 823.037 129.769 823.037 Q125.14 823.037 122.686 826.162 Q120.255 829.287 119.908 835.606 Q121.274 833.592 123.334 832.528 Q125.394 831.44 127.871 831.44 Q133.08 831.44 136.089 834.611 Q139.121 837.759 139.121 843.199 Q139.121 848.523 135.973 851.741 Q132.825 854.958 127.593 854.958 Q121.598 854.958 118.427 850.375 Q115.256 845.768 115.256 837.042 Q115.256 828.847 119.144 823.986 Q123.033 819.102 129.584 819.102 Q131.343 819.102 133.126 819.449 Q134.931 819.796 136.876 820.491 Z" fill="#000000" fill-rule="nonzero" fill-opacity="1" /><path clip-path="url(#clip560)" d="M147.177 848.407 L152.061 848.407 L152.061 854.287 L147.177 854.287 L147.177 848.407 Z" fill="#000000" fill-rule="nonzero" fill-opacity="1" /><path clip-path="url(#clip560)" d="M172.246 822.806 Q168.635 822.806 166.806 826.37 Q165.001 829.912 165.001 837.042 Q165.001 844.148 166.806 847.713 Q168.635 851.254 172.246 851.254 Q175.88 851.254 177.686 847.713 Q179.514 844.148 179.514 837.042 Q179.514 829.912 177.686 826.37 Q175.88 822.806 172.246 822.806 M172.246 819.102 Q178.056 819.102 181.112 823.708 Q184.19 828.292 184.19 837.042 Q184.19 845.768 181.112 850.375 Q178.056 854.958 172.246 854.958 Q166.436 854.958 163.357 850.375 Q160.302 845.768 160.302 837.042 Q160.302 828.292 163.357 823.708 Q166.436 819.102 172.246 819.102 Z" fill="#000000" fill-rule="nonzero" fill-opacity="1" /><path clip-path="url(#clip560)" d="M202.408 822.806 Q198.797 822.806 196.968 826.37 Q195.163 829.912 195.163 837.042 Q195.163 844.148 196.968 847.713 Q198.797 851.254 202.408 851.254 Q206.042 851.254 207.848 847.713 Q209.676 844.148 209.676 837.042 Q209.676 829.912 207.848 826.37 Q206.042 822.806 202.408 822.806 M202.408 819.102 Q208.218 819.102 211.274 823.708 Q214.352 828.292 214.352 837.042 Q214.352 845.768 211.274 850.375 Q208.218 854.958 202.408 854.958 Q196.598 854.958 193.519 850.375 Q190.463 845.768 190.463 837.042 Q190.463 828.292 193.519 823.708 Q196.598 819.102 202.408 819.102 Z" fill="#000000" fill-rule="nonzero" fill-opacity="1" /><path clip-path="url(#clip560)" d="M250.741 828.824 L240.162 839.449 L250.741 850.028 L247.986 852.828 L237.361 842.204 L226.736 852.828 L224.005 850.028 L234.56 839.449 L224.005 828.824 L226.736 826.023 L237.361 836.648 L247.986 826.023 L250.741 828.824 Z" fill="#000000" fill-rule="nonzero" fill-opacity="1" /><path clip-path="url(#clip560)" d="M263.102 850.352 L270.741 850.352 L270.741 823.986 L262.431 825.653 L262.431 821.393 L270.695 819.727 L275.37 819.727 L275.37 850.352 L283.009 850.352 L283.009 854.287 L263.102 854.287 L263.102 850.352 Z" fill="#000000" fill-rule="nonzero" fill-opacity="1" /><path clip-path="url(#clip560)" d="M302.454 822.806 Q298.843 822.806 297.014 826.37 Q295.208 829.912 295.208 837.042 Q295.208 844.148 297.014 847.713 Q298.843 851.254 302.454 851.254 Q306.088 851.254 307.893 847.713 Q309.722 844.148 309.722 837.042 Q309.722 829.912 307.893 826.37 Q306.088 822.806 302.454 822.806 M302.454 819.102 Q308.264 819.102 311.319 823.708 Q314.398 828.292 314.398 837.042 Q314.398 845.768 311.319 850.375 Q308.264 854.958 302.454 854.958 Q296.643 854.958 293.565 850.375 Q290.509 845.768 290.509 837.042 Q290.509 828.292 293.565 823.708 Q296.643 819.102 302.454 819.102 Z" fill="#000000" fill-rule="nonzero" fill-opacity="1" /><path clip-path="url(#clip560)" d="M315.583 798.796 L330.497 798.796 L330.497 801.994 L319.062 801.994 L319.062 808.877 Q319.89 808.595 320.717 808.464 Q321.545 808.313 322.372 808.313 Q327.074 808.313 329.82 810.89 Q332.566 813.466 332.566 817.868 Q332.566 822.4 329.745 824.92 Q326.924 827.422 321.789 827.422 Q320.021 827.422 318.178 827.121 Q316.354 826.82 314.398 826.218 L314.398 822.4 Q316.091 823.322 317.896 823.773 Q319.702 824.225 321.714 824.225 Q324.968 824.225 326.868 822.513 Q328.767 820.802 328.767 817.868 Q328.767 814.933 326.868 813.222 Q324.968 811.51 321.714 811.51 Q320.191 811.51 318.667 811.849 Q317.163 812.188 315.583 812.902 L315.583 798.796 Z" fill="#000000" fill-rule="nonzero" fill-opacity="1" /><path clip-path="url(#clip560)" d="M127.015 652.575 Q123.681 652.575 121.76 654.357 Q119.862 656.14 119.862 659.265 Q119.862 662.39 121.76 664.172 Q123.681 665.954 127.015 665.954 Q130.348 665.954 132.269 664.172 Q134.191 662.366 134.191 659.265 Q134.191 656.14 132.269 654.357 Q130.371 652.575 127.015 652.575 M122.339 650.584 Q119.33 649.843 117.64 647.783 Q115.973 645.723 115.973 642.76 Q115.973 638.617 118.913 636.209 Q121.876 633.802 127.015 633.802 Q132.177 633.802 135.117 636.209 Q138.056 638.617 138.056 642.76 Q138.056 645.723 136.367 647.783 Q134.7 649.843 131.714 650.584 Q135.093 651.371 136.968 653.663 Q138.867 655.954 138.867 659.265 Q138.867 664.288 135.788 666.973 Q132.732 669.658 127.015 669.658 Q121.297 669.658 118.218 666.973 Q115.163 664.288 115.163 659.265 Q115.163 655.954 117.061 653.663 Q118.959 651.371 122.339 650.584 M120.626 643.2 Q120.626 645.885 122.293 647.39 Q123.982 648.894 127.015 648.894 Q130.024 648.894 131.714 647.39 Q133.427 645.885 133.427 643.2 Q133.427 640.515 131.714 639.01 Q130.024 637.505 127.015 637.505 Q123.982 637.505 122.293 639.01 Q120.626 640.515 120.626 643.2 Z" fill="#000000" fill-rule="nonzero" fill-opacity="1" /><path clip-path="url(#clip560)" d="M147.177 663.107 L152.061 663.107 L152.061 668.987 L147.177 668.987 L147.177 663.107 Z" fill="#000000" fill-rule="nonzero" fill-opacity="1" /><path clip-path="url(#clip560)" d="M172.246 637.505 Q168.635 637.505 166.806 641.07 Q165.001 644.612 165.001 651.742 Q165.001 658.848 166.806 662.413 Q168.635 665.954 172.246 665.954 Q175.88 665.954 177.686 662.413 Q179.514 658.848 179.514 651.742 Q179.514 644.612 177.686 641.07 Q175.88 637.505 172.246 637.505 M172.246 633.802 Q178.056 633.802 181.112 638.408 Q184.19 642.992 184.19 651.742 Q184.19 660.468 181.112 665.075 Q178.056 669.658 172.246 669.658 Q166.436 669.658 163.357 665.075 Q160.302 660.468 160.302 651.742 Q160.302 642.992 163.357 638.408 Q166.436 633.802 172.246 633.802 Z" fill="#000000" fill-rule="nonzero" fill-opacity="1" /><path clip-path="url(#clip560)" d="M202.408 637.505 Q198.797 637.505 196.968 641.07 Q195.163 644.612 195.163 651.742 Q195.163 658.848 196.968 662.413 Q198.797 665.954 202.408 665.954 Q206.042 665.954 207.848 662.413 Q209.676 658.848 209.676 651.742 Q209.676 644.612 207.848 641.07 Q206.042 637.505 202.408 637.505 M202.408 633.802 Q208.218 633.802 211.274 638.408 Q214.352 642.992 214.352 651.742 Q214.352 660.468 211.274 665.075 Q208.218 669.658 202.408 669.658 Q196.598 669.658 193.519 665.075 Q190.463 660.468 190.463 651.742 Q190.463 642.992 193.519 638.408 Q196.598 633.802 202.408 633.802 Z" fill="#000000" fill-rule="nonzero" fill-opacity="1" /><path clip-path="url(#clip560)" d="M250.741 643.524 L240.162 654.149 L250.741 664.728 L247.986 667.528 L237.361 656.904 L226.736 667.528 L224.005 664.728 L234.56 654.149 L224.005 643.524 L226.736 640.723 L237.361 651.348 L247.986 640.723 L250.741 643.524 Z" fill="#000000" fill-rule="nonzero" fill-opacity="1" /><path clip-path="url(#clip560)" d="M263.102 665.052 L270.741 665.052 L270.741 638.686 L262.431 640.353 L262.431 636.093 L270.695 634.427 L275.37 634.427 L275.37 665.052 L283.009 665.052 L283.009 668.987 L263.102 668.987 L263.102 665.052 Z" fill="#000000" fill-rule="nonzero" fill-opacity="1" /><path clip-path="url(#clip560)" d="M302.454 637.505 Q298.843 637.505 297.014 641.07 Q295.208 644.612 295.208 651.742 Q295.208 658.848 297.014 662.413 Q298.843 665.954 302.454 665.954 Q306.088 665.954 307.893 662.413 Q309.722 658.848 309.722 651.742 Q309.722 644.612 307.893 641.07 Q306.088 637.505 302.454 637.505 M302.454 633.802 Q308.264 633.802 311.319 638.408 Q314.398 642.992 314.398 651.742 Q314.398 660.468 311.319 665.075 Q308.264 669.658 302.454 669.658 Q296.643 669.658 293.565 665.075 Q290.509 660.468 290.509 651.742 Q290.509 642.992 293.565 638.408 Q296.643 633.802 302.454 633.802 Z" fill="#000000" fill-rule="nonzero" fill-opacity="1" /><path clip-path="url(#clip560)" d="M315.583 613.496 L330.497 613.496 L330.497 616.694 L319.062 616.694 L319.062 623.577 Q319.89 623.295 320.717 623.164 Q321.545 623.013 322.372 623.013 Q327.074 623.013 329.82 625.59 Q332.566 628.166 332.566 632.567 Q332.566 637.1 329.745 639.62 Q326.924 642.122 321.789 642.122 Q320.021 642.122 318.178 641.821 Q316.354 641.52 314.398 640.918 L314.398 637.1 Q316.091 638.022 317.896 638.473 Q319.702 638.924 321.714 638.924 Q324.968 638.924 326.868 637.213 Q328.767 635.501 328.767 632.567 Q328.767 629.633 326.868 627.922 Q324.968 626.21 321.714 626.21 Q320.191 626.21 318.667 626.549 Q317.163 626.888 315.583 627.602 L315.583 613.496 Z" fill="#000000" fill-rule="nonzero" fill-opacity="1" /><path clip-path="url(#clip560)" d="M116.602 479.752 L124.241 479.752 L124.241 453.386 L115.931 455.053 L115.931 450.793 L124.195 449.127 L128.871 449.127 L128.871 479.752 L136.51 479.752 L136.51 483.687 L116.602 483.687 L116.602 479.752 Z" fill="#000000" fill-rule="nonzero" fill-opacity="1" /><path clip-path="url(#clip560)" d="M145.954 477.807 L150.838 477.807 L150.838 483.687 L145.954 483.687 L145.954 477.807 Z" fill="#000000" fill-rule="nonzero" fill-opacity="1" /><path clip-path="url(#clip560)" d="M171.023 452.205 Q167.412 452.205 165.584 455.77 Q163.778 459.312 163.778 466.441 Q163.778 473.548 165.584 477.113 Q167.412 480.654 171.023 480.654 Q174.658 480.654 176.463 477.113 Q178.292 473.548 178.292 466.441 Q178.292 459.312 176.463 455.77 Q174.658 452.205 171.023 452.205 M171.023 448.502 Q176.834 448.502 179.889 453.108 Q182.968 457.692 182.968 466.441 Q182.968 475.168 179.889 479.775 Q176.834 484.358 171.023 484.358 Q165.213 484.358 162.135 479.775 Q159.079 475.168 159.079 466.441 Q159.079 457.692 162.135 453.108 Q165.213 448.502 171.023 448.502 Z" fill="#000000" fill-rule="nonzero" fill-opacity="1" /><path clip-path="url(#clip560)" d="M201.185 452.205 Q197.574 452.205 195.746 455.77 Q193.94 459.312 193.94 466.441 Q193.94 473.548 195.746 477.113 Q197.574 480.654 201.185 480.654 Q204.82 480.654 206.625 477.113 Q208.454 473.548 208.454 466.441 Q208.454 459.312 206.625 455.77 Q204.82 452.205 201.185 452.205 M201.185 448.502 Q206.995 448.502 210.051 453.108 Q213.13 457.692 213.13 466.441 Q213.13 475.168 210.051 479.775 Q206.995 484.358 201.185 484.358 Q195.375 484.358 192.296 479.775 Q189.241 475.168 189.241 466.441 Q189.241 457.692 192.296 453.108 Q195.375 448.502 201.185 448.502 Z" fill="#000000" fill-rule="nonzero" fill-opacity="1" /><path clip-path="url(#clip560)" d="M249.518 458.224 L238.94 468.849 L249.518 479.428 L246.764 482.228 L236.139 471.603 L225.514 482.228 L222.782 479.428 L233.338 468.849 L222.782 458.224 L225.514 455.423 L236.139 466.048 L246.764 455.423 L249.518 458.224 Z" fill="#000000" fill-rule="nonzero" fill-opacity="1" /><path clip-path="url(#clip560)" d="M261.879 479.752 L269.518 479.752 L269.518 453.386 L261.208 455.053 L261.208 450.793 L269.472 449.127 L274.148 449.127 L274.148 479.752 L281.787 479.752 L281.787 483.687 L261.879 483.687 L261.879 479.752 Z" fill="#000000" fill-rule="nonzero" fill-opacity="1" /><path clip-path="url(#clip560)" d="M301.231 452.205 Q297.62 452.205 295.791 455.77 Q293.986 459.312 293.986 466.441 Q293.986 473.548 295.791 477.113 Q297.62 480.654 301.231 480.654 Q304.865 480.654 306.671 477.113 Q308.5 473.548 308.5 466.441 Q308.5 459.312 306.671 455.77 Q304.865 452.205 301.231 452.205 M301.231 448.502 Q307.041 448.502 310.097 453.108 Q313.175 457.692 313.175 466.441 Q313.175 475.168 310.097 479.775 Q307.041 484.358 301.231 484.358 Q295.421 484.358 292.342 479.775 Q289.287 475.168 289.287 466.441 Q289.287 457.692 292.342 453.108 Q295.421 448.502 301.231 448.502 Z" fill="#000000" fill-rule="nonzero" fill-opacity="1" /><path clip-path="url(#clip560)" d="M323.2 440.722 Q320.642 440.722 319.138 442.471 Q317.652 444.221 317.652 447.267 Q317.652 450.295 319.138 452.063 Q320.642 453.813 323.2 453.813 Q325.758 453.813 327.244 452.063 Q328.748 450.295 328.748 447.267 Q328.748 444.221 327.244 442.471 Q325.758 440.722 323.2 440.722 M330.742 428.817 L330.742 432.278 Q329.313 431.601 327.846 431.243 Q326.397 430.886 324.968 430.886 Q321.206 430.886 319.213 433.425 Q317.238 435.964 316.956 441.098 Q318.065 439.462 319.739 438.597 Q321.413 437.713 323.426 437.713 Q327.657 437.713 330.102 440.29 Q332.566 442.848 332.566 447.267 Q332.566 451.593 330.008 454.207 Q327.451 456.822 323.2 456.822 Q318.329 456.822 315.752 453.098 Q313.175 449.355 313.175 442.265 Q313.175 435.607 316.335 431.657 Q319.495 427.689 324.817 427.689 Q326.247 427.689 327.695 427.971 Q329.162 428.253 330.742 428.817 Z" fill="#000000" fill-rule="nonzero" fill-opacity="1" /><path clip-path="url(#clip560)" d="M116.602 294.452 L124.241 294.452 L124.241 268.086 L115.931 269.753 L115.931 265.493 L124.195 263.827 L128.871 263.827 L128.871 294.452 L136.51 294.452 L136.51 298.387 L116.602 298.387 L116.602 294.452 Z" fill="#000000" fill-rule="nonzero" fill-opacity="1" /><path clip-path="url(#clip560)" d="M145.954 292.507 L150.838 292.507 L150.838 298.387 L145.954 298.387 L145.954 292.507 Z" fill="#000000" fill-rule="nonzero" fill-opacity="1" /><path clip-path="url(#clip560)" d="M165.051 294.452 L181.371 294.452 L181.371 298.387 L159.426 298.387 L159.426 294.452 Q162.088 291.697 166.672 287.067 Q171.278 282.415 172.459 281.072 Q174.704 278.549 175.584 276.813 Q176.486 275.053 176.486 273.364 Q176.486 270.609 174.542 268.873 Q172.621 267.137 169.519 267.137 Q167.32 267.137 164.866 267.901 Q162.436 268.665 159.658 270.216 L159.658 265.493 Q162.482 264.359 164.936 263.78 Q167.389 263.202 169.426 263.202 Q174.797 263.202 177.991 265.887 Q181.185 268.572 181.185 273.063 Q181.185 275.192 180.375 277.114 Q179.588 279.012 177.482 281.604 Q176.903 282.276 173.801 285.493 Q170.699 288.688 165.051 294.452 Z" fill="#000000" fill-rule="nonzero" fill-opacity="1" /><path clip-path="url(#clip560)" d="M201.185 266.905 Q197.574 266.905 195.746 270.47 Q193.94 274.012 193.94 281.141 Q193.94 288.248 195.746 291.813 Q197.574 295.354 201.185 295.354 Q204.82 295.354 206.625 291.813 Q208.454 288.248 208.454 281.141 Q208.454 274.012 206.625 270.47 Q204.82 266.905 201.185 266.905 M201.185 263.202 Q206.995 263.202 210.051 267.808 Q213.13 272.391 213.13 281.141 Q213.13 289.868 210.051 294.475 Q206.995 299.058 201.185 299.058 Q195.375 299.058 192.296 294.475 Q189.241 289.868 189.241 281.141 Q189.241 272.391 192.296 267.808 Q195.375 263.202 201.185 263.202 Z" fill="#000000" fill-rule="nonzero" fill-opacity="1" /><path clip-path="url(#clip560)" d="M249.518 272.924 L238.94 283.549 L249.518 294.127 L246.764 296.928 L236.139 286.303 L225.514 296.928 L222.782 294.127 L233.338 283.549 L222.782 272.924 L225.514 270.123 L236.139 280.748 L246.764 270.123 L249.518 272.924 Z" fill="#000000" fill-rule="nonzero" fill-opacity="1" /><path clip-path="url(#clip560)" d="M261.879 294.452 L269.518 294.452 L269.518 268.086 L261.208 269.753 L261.208 265.493 L269.472 263.827 L274.148 263.827 L274.148 294.452 L281.787 294.452 L281.787 298.387 L261.879 298.387 L261.879 294.452 Z" fill="#000000" fill-rule="nonzero" fill-opacity="1" /><path clip-path="url(#clip560)" d="M301.231 266.905 Q297.62 266.905 295.791 270.47 Q293.986 274.012 293.986 281.141 Q293.986 288.248 295.791 291.813 Q297.62 295.354 301.231 295.354 Q304.865 295.354 306.671 291.813 Q308.5 288.248 308.5 281.141 Q308.5 274.012 306.671 270.47 Q304.865 266.905 301.231 266.905 M301.231 263.202 Q307.041 263.202 310.097 267.808 Q313.175 272.391 313.175 281.141 Q313.175 289.868 310.097 294.475 Q307.041 299.058 301.231 299.058 Q295.421 299.058 292.342 294.475 Q289.287 289.868 289.287 281.141 Q289.287 272.391 292.342 267.808 Q295.421 263.202 301.231 263.202 Z" fill="#000000" fill-rule="nonzero" fill-opacity="1" /><path clip-path="url(#clip560)" d="M323.2 255.422 Q320.642 255.422 319.138 257.171 Q317.652 258.921 317.652 261.967 Q317.652 264.995 319.138 266.763 Q320.642 268.512 323.2 268.512 Q325.758 268.512 327.244 266.763 Q328.748 264.995 328.748 261.967 Q328.748 258.921 327.244 257.171 Q325.758 255.422 323.2 255.422 M330.742 243.517 L330.742 246.978 Q329.313 246.301 327.846 245.943 Q326.397 245.586 324.968 245.586 Q321.206 245.586 319.213 248.125 Q317.238 250.664 316.956 255.798 Q318.065 254.162 319.739 253.297 Q321.413 252.413 323.426 252.413 Q327.657 252.413 330.102 254.99 Q332.566 257.548 332.566 261.967 Q332.566 266.293 330.008 268.907 Q327.451 271.522 323.2 271.522 Q318.329 271.522 315.752 267.798 Q313.175 264.055 313.175 256.965 Q313.175 250.307 316.335 246.357 Q319.495 242.388 324.817 242.388 Q326.247 242.388 327.695 242.671 Q329.162 242.953 330.742 243.517 Z" fill="#000000" fill-rule="nonzero" fill-opacity="1" /><path clip-path="url(#clip560)" d="M16.4842 903.155 L16.4842 862.955 L21.895 862.955 L21.895 879.824 L64.0042 879.824 L64.0042 886.285 L21.895 886.285 L21.895 903.155 L16.4842 903.155 Z" fill="#000000" fill-rule="nonzero" fill-opacity="1" /><path clip-path="url(#clip560)" d="M28.3562 859.008 L28.3562 853.152 L64.0042 853.152 L64.0042 859.008 L28.3562 859.008 M14.479 859.008 L14.479 853.152 L21.895 853.152 L21.895 859.008 L14.479 859.008 Z" fill="#000000" fill-rule="nonzero" fill-opacity="1" /><path clip-path="url(#clip560)" d="M35.1993 813.143 Q31.2526 810.947 29.3747 807.892 Q27.4968 804.836 27.4968 800.699 Q27.4968 795.129 31.4117 792.105 Q35.2948 789.081 42.4881 789.081 L64.0042 789.081 L64.0042 794.969 L42.679 794.969 Q37.5546 794.969 35.072 796.784 Q32.5894 798.598 32.5894 802.322 Q32.5894 806.873 35.6131 809.515 Q38.6368 812.157 43.8567 812.157 L64.0042 812.157 L64.0042 818.045 L42.679 818.045 Q37.5228 818.045 35.072 819.859 Q32.5894 821.674 32.5894 825.461 Q32.5894 829.949 35.6449 832.591 Q38.6686 835.232 43.8567 835.232 L64.0042 835.232 L64.0042 841.121 L28.3562 841.121 L28.3562 835.232 L33.8944 835.232 Q30.616 833.227 29.0564 830.426 Q27.4968 827.625 27.4968 823.774 Q27.4968 819.891 29.4702 817.186 Q31.4436 814.448 35.1993 813.143 Z" fill="#000000" fill-rule="nonzero" fill-opacity="1" /><path clip-path="url(#clip560)" d="M44.7161 746.908 L47.5806 746.908 L47.5806 773.835 Q53.6281 773.453 56.8109 770.207 Q59.9619 766.928 59.9619 761.104 Q59.9619 757.73 59.1344 754.579 Q58.3069 751.396 56.6518 748.277 L62.1899 748.277 Q63.5267 751.428 64.227 754.738 Q64.9272 758.048 64.9272 761.454 Q64.9272 769.984 59.9619 774.981 Q54.9967 779.946 46.5303 779.946 Q37.7774 779.946 32.6531 775.236 Q27.4968 770.493 27.4968 762.472 Q27.4968 755.279 32.1438 751.11 Q36.7589 746.908 44.7161 746.908 M42.9973 752.765 Q38.1912 752.828 35.3266 755.47 Q32.4621 758.08 32.4621 762.409 Q32.4621 767.31 35.2312 770.27 Q38.0002 773.199 43.0292 773.644 L42.9973 752.765 Z" fill="#000000" fill-rule="nonzero" fill-opacity="1" /><path clip-path="url(#clip560)" d="M14.5426 702.507 Q21.8632 706.773 29.0246 708.841 Q36.186 710.91 43.5384 710.91 Q50.8908 710.91 58.1159 708.841 Q65.3091 706.741 72.5979 702.507 L72.5979 707.6 Q65.1182 712.374 57.8931 714.761 Q50.668 717.117 43.5384 717.117 Q36.4406 717.117 29.2474 714.761 Q22.0542 712.406 14.5426 707.6 L14.5426 702.507 Z" fill="#000000" fill-rule="nonzero" fill-opacity="1" /><path clip-path="url(#clip560)" d="M29.4065 668.419 L34.9447 668.419 Q33.6716 670.902 33.035 673.575 Q32.3984 676.249 32.3984 679.114 Q32.3984 683.474 33.7352 685.67 Q35.072 687.835 37.7456 687.835 Q39.7826 687.835 40.9603 686.275 Q42.1061 684.715 43.1565 680.005 L43.6021 678 Q44.9389 671.761 47.3897 669.151 Q49.8086 666.509 54.1691 666.509 Q59.1344 666.509 62.0308 670.456 Q64.9272 674.371 64.9272 681.246 Q64.9272 684.111 64.3543 687.23 Q63.8132 690.317 62.6992 693.755 L56.6518 693.755 Q58.3387 690.508 59.198 687.357 Q60.0256 684.206 60.0256 681.119 Q60.0256 676.981 58.6251 674.753 Q57.1929 672.525 54.6147 672.525 Q52.2276 672.525 50.9545 674.148 Q49.6813 675.74 48.5037 681.182 L48.0262 683.219 Q46.8804 688.662 44.5251 691.081 Q42.138 693.5 38.0002 693.5 Q32.9713 693.5 30.2341 689.935 Q27.4968 686.37 27.4968 679.814 Q27.4968 676.567 27.9743 673.703 Q28.4517 670.838 29.4065 668.419 Z" fill="#000000" fill-rule="nonzero" fill-opacity="1" /><path clip-path="url(#clip560)" d="M14.5426 658.107 L14.5426 653.014 Q22.0542 648.24 29.2474 645.885 Q36.4406 643.497 43.5384 643.497 Q50.668 643.497 57.8931 645.885 Q65.1182 648.24 72.5979 653.014 L72.5979 658.107 Q65.3091 653.873 58.1159 651.805 Q50.8908 649.704 43.5384 649.704 Q36.186 649.704 29.0246 651.805 Q21.8632 653.873 14.5426 658.107 Z" fill="#000000" fill-rule="nonzero" fill-opacity="1" /><path clip-path="url(#clip560)" d="M834.874 12.096 L886.037 12.096 L886.037 18.9825 L864.567 18.9825 L864.567 72.576 L856.344 72.576 L856.344 18.9825 L834.874 18.9825 L834.874 12.096 Z" fill="#000000" fill-rule="nonzero" fill-opacity="1" /><path clip-path="url(#clip560)" d="M891.06 27.2059 L898.514 27.2059 L898.514 72.576 L891.06 72.576 L891.06 27.2059 M891.06 9.54393 L898.514 9.54393 L898.514 18.9825 L891.06 18.9825 L891.06 9.54393 Z" fill="#000000" fill-rule="nonzero" fill-opacity="1" /><path clip-path="url(#clip560)" d="M949.434 35.9153 Q952.229 30.8922 956.118 28.5022 Q960.006 26.1121 965.273 26.1121 Q972.362 26.1121 976.21 31.0947 Q980.058 36.0368 980.058 45.1919 L980.058 72.576 L972.564 72.576 L972.564 45.4349 Q972.564 38.913 970.255 35.7533 Q967.946 32.5936 963.207 32.5936 Q957.414 32.5936 954.052 36.4419 Q950.689 40.2903 950.689 46.9338 L950.689 72.576 L943.195 72.576 L943.195 45.4349 Q943.195 38.8725 940.886 35.7533 Q938.577 32.5936 933.757 32.5936 Q928.045 32.5936 924.683 36.4824 Q921.32 40.3308 921.32 46.9338 L921.32 72.576 L913.826 72.576 L913.826 27.2059 L921.32 27.2059 L921.32 34.2544 Q923.872 30.082 927.437 28.0971 Q931.002 26.1121 935.904 26.1121 Q940.846 26.1121 944.289 28.6237 Q947.773 31.1352 949.434 35.9153 Z" fill="#000000" fill-rule="nonzero" fill-opacity="1" /><path clip-path="url(#clip560)" d="M1033.73 48.0275 L1033.73 51.6733 L999.462 51.6733 Q999.948 59.3701 1004.08 63.421 Q1008.25 67.4314 1015.67 67.4314 Q1019.96 67.4314 1023.97 66.3781 Q1028.02 65.3249 1031.99 63.2184 L1031.99 70.267 Q1027.98 71.9684 1023.77 72.8596 Q1019.55 73.7508 1015.22 73.7508 Q1004.36 73.7508 998.004 67.4314 Q991.684 61.1119 991.684 50.3365 Q991.684 39.1965 997.68 32.6746 Q1003.72 26.1121 1013.92 26.1121 Q1023.08 26.1121 1028.39 32.0264 Q1033.73 37.9003 1033.73 48.0275 M1026.28 45.84 Q1026.2 39.7232 1022.84 36.0774 Q1019.51 32.4315 1014 32.4315 Q1007.77 32.4315 1004 35.9558 Q1000.27 39.4801 999.705 45.8805 L1026.28 45.84 Z" fill="#000000" fill-rule="nonzero" fill-opacity="1" /><path clip-path="url(#clip560)" d="M1079.71 14.324 L1079.71 27.2059 L1095.06 27.2059 L1095.06 32.9987 L1079.71 32.9987 L1079.71 57.6282 Q1079.71 63.1779 1081.21 64.7578 Q1082.75 66.3376 1087.41 66.3376 L1095.06 66.3376 L1095.06 72.576 L1087.41 72.576 Q1078.78 72.576 1075.5 69.3758 Q1072.22 66.1351 1072.22 57.6282 L1072.22 32.9987 L1066.75 32.9987 L1066.75 27.2059 L1072.22 27.2059 L1072.22 14.324 L1079.71 14.324 Z" fill="#000000" fill-rule="nonzero" fill-opacity="1" /><path clip-path="url(#clip560)" d="M1122.45 32.4315 Q1116.45 32.4315 1112.97 37.1306 Q1109.48 41.7891 1109.48 49.9314 Q1109.48 58.0738 1112.93 62.7728 Q1116.41 67.4314 1122.45 67.4314 Q1128.4 67.4314 1131.89 62.7323 Q1135.37 58.0333 1135.37 49.9314 Q1135.37 41.8701 1131.89 37.1711 Q1128.4 32.4315 1122.45 32.4315 M1122.45 26.1121 Q1132.17 26.1121 1137.72 32.4315 Q1143.27 38.7509 1143.27 49.9314 Q1143.27 61.0714 1137.72 67.4314 Q1132.17 73.7508 1122.45 73.7508 Q1112.68 73.7508 1107.14 67.4314 Q1101.63 61.0714 1101.63 49.9314 Q1101.63 38.7509 1107.14 32.4315 Q1112.68 26.1121 1122.45 26.1121 Z" fill="#000000" fill-rule="nonzero" fill-opacity="1" /><path clip-path="url(#clip560)" d="M1214.65 28.9478 L1214.65 35.9153 Q1211.49 34.1734 1208.29 33.3227 Q1205.13 32.4315 1201.89 32.4315 Q1194.63 32.4315 1190.62 37.0496 Q1186.61 41.6271 1186.61 49.9314 Q1186.61 58.2358 1190.62 62.8538 Q1194.63 67.4314 1201.89 67.4314 Q1205.13 67.4314 1208.29 66.5807 Q1211.49 65.6895 1214.65 63.9476 L1214.65 70.8341 Q1211.53 72.2924 1208.16 73.0216 Q1204.84 73.7508 1201.08 73.7508 Q1190.83 73.7508 1184.79 67.3098 Q1178.76 60.8689 1178.76 49.9314 Q1178.76 38.832 1184.83 32.472 Q1190.95 26.1121 1201.56 26.1121 Q1205.01 26.1121 1208.29 26.8413 Q1211.57 27.5299 1214.65 28.9478 Z" fill="#000000" fill-rule="nonzero" fill-opacity="1" /><path clip-path="url(#clip560)" d="M1245.19 32.4315 Q1239.19 32.4315 1235.71 37.1306 Q1232.23 41.7891 1232.23 49.9314 Q1232.23 58.0738 1235.67 62.7728 Q1239.15 67.4314 1245.19 67.4314 Q1251.14 67.4314 1254.63 62.7323 Q1258.11 58.0333 1258.11 49.9314 Q1258.11 41.8701 1254.63 37.1711 Q1251.14 32.4315 1245.19 32.4315 M1245.19 26.1121 Q1254.91 26.1121 1260.46 32.4315 Q1266.01 38.7509 1266.01 49.9314 Q1266.01 61.0714 1260.46 67.4314 Q1254.91 73.7508 1245.19 73.7508 Q1235.43 73.7508 1229.88 67.4314 Q1224.37 61.0714 1224.37 49.9314 Q1224.37 38.7509 1229.88 32.4315 Q1235.43 26.1121 1245.19 26.1121 Z" fill="#000000" fill-rule="nonzero" fill-opacity="1" /><path clip-path="url(#clip560)" d="M1313.69 35.9153 Q1316.49 30.8922 1320.37 28.5022 Q1324.26 26.1121 1329.53 26.1121 Q1336.62 26.1121 1340.47 31.0947 Q1344.32 36.0368 1344.32 45.1919 L1344.32 72.576 L1336.82 72.576 L1336.82 45.4349 Q1336.82 38.913 1334.51 35.7533 Q1332.2 32.5936 1327.46 32.5936 Q1321.67 32.5936 1318.31 36.4419 Q1314.95 40.2903 1314.95 46.9338 L1314.95 72.576 L1307.45 72.576 L1307.45 45.4349 Q1307.45 38.8725 1305.14 35.7533 Q1302.83 32.5936 1298.01 32.5936 Q1292.3 32.5936 1288.94 36.4824 Q1285.58 40.3308 1285.58 46.9338 L1285.58 72.576 L1278.08 72.576 L1278.08 27.2059 L1285.58 27.2059 L1285.58 34.2544 Q1288.13 30.082 1291.69 28.0971 Q1295.26 26.1121 1300.16 26.1121 Q1305.1 26.1121 1308.55 28.6237 Q1312.03 31.1352 1313.69 35.9153 Z" fill="#000000" fill-rule="nonzero" fill-opacity="1" /><path clip-path="url(#clip560)" d="M1366.39 65.7705 L1366.39 89.8329 L1358.9 89.8329 L1358.9 27.2059 L1366.39 27.2059 L1366.39 34.0924 Q1368.74 30.0415 1372.31 28.0971 Q1375.91 26.1121 1380.9 26.1121 Q1389.16 26.1121 1394.3 32.6746 Q1399.49 39.2371 1399.49 49.9314 Q1399.49 60.6258 1394.3 67.1883 Q1389.16 73.7508 1380.9 73.7508 Q1375.91 73.7508 1372.31 71.8063 Q1368.74 69.8214 1366.39 65.7705 M1391.75 49.9314 Q1391.75 41.7081 1388.35 37.0496 Q1384.99 32.3505 1379.07 32.3505 Q1373.16 32.3505 1369.76 37.0496 Q1366.39 41.7081 1366.39 49.9314 Q1366.39 58.1548 1369.76 62.8538 Q1373.16 67.5124 1379.07 67.5124 Q1384.99 67.5124 1388.35 62.8538 Q1391.75 58.1548 1391.75 49.9314 Z" fill="#000000" fill-rule="nonzero" fill-opacity="1" /><path clip-path="url(#clip560)" d="M1411.07 54.671 L1411.07 27.2059 L1418.53 27.2059 L1418.53 54.3874 Q1418.53 60.8284 1421.04 64.0691 Q1423.55 67.2693 1428.57 67.2693 Q1434.61 67.2693 1438.09 63.421 Q1441.62 59.5726 1441.62 52.9291 L1441.62 27.2059 L1449.07 27.2059 L1449.07 72.576 L1441.62 72.576 L1441.62 65.6084 Q1438.9 69.7404 1435.3 71.7658 Q1431.73 73.7508 1426.99 73.7508 Q1419.18 73.7508 1415.13 68.8897 Q1411.07 64.0286 1411.07 54.671 M1429.83 26.1121 L1429.83 26.1121 Z" fill="#000000" fill-rule="nonzero" fill-opacity="1" /><path clip-path="url(#clip560)" d="M1471.8 14.324 L1471.8 27.2059 L1487.15 27.2059 L1487.15 32.9987 L1471.8 32.9987 L1471.8 57.6282 Q1471.8 63.1779 1473.3 64.7578 Q1474.84 66.3376 1479.49 66.3376 L1487.15 66.3376 L1487.15 72.576 L1479.49 72.576 Q1470.87 72.576 1467.58 69.3758 Q1464.3 66.1351 1464.3 57.6282 L1464.3 32.9987 L1458.83 32.9987 L1458.83 27.2059 L1464.3 27.2059 L1464.3 14.324 L1471.8 14.324 Z" fill="#000000" fill-rule="nonzero" fill-opacity="1" /><path clip-path="url(#clip560)" d="M1535.76 48.0275 L1535.76 51.6733 L1501.49 51.6733 Q1501.98 59.3701 1506.11 63.421 Q1510.28 67.4314 1517.69 67.4314 Q1521.99 67.4314 1526 66.3781 Q1530.05 65.3249 1534.02 63.2184 L1534.02 70.267 Q1530.01 71.9684 1525.8 72.8596 Q1521.58 73.7508 1517.25 73.7508 Q1506.39 73.7508 1500.03 67.4314 Q1493.71 61.1119 1493.71 50.3365 Q1493.71 39.1965 1499.71 32.6746 Q1505.74 26.1121 1515.95 26.1121 Q1525.11 26.1121 1530.41 32.0264 Q1535.76 37.9003 1535.76 48.0275 M1528.31 45.84 Q1528.23 39.7232 1524.86 36.0774 Q1521.54 32.4315 1516.03 32.4315 Q1509.8 32.4315 1506.03 35.9558 Q1502.3 39.4801 1501.73 45.8805 L1528.31 45.84 Z" fill="#000000" fill-rule="nonzero" fill-opacity="1" /><path clip-path="url(#clip560)" d="M1582.87 18.8205 L1582.87 41.5461 L1593.16 41.5461 Q1598.87 41.5461 1601.99 38.5889 Q1605.11 35.6318 1605.11 30.163 Q1605.11 24.7348 1601.99 21.7777 Q1598.87 18.8205 1593.16 18.8205 L1582.87 18.8205 M1574.69 12.096 L1593.16 12.096 Q1603.33 12.096 1608.52 16.714 Q1613.74 21.2916 1613.74 30.163 Q1613.74 39.1155 1608.52 43.6931 Q1603.33 48.2706 1593.16 48.2706 L1582.87 48.2706 L1582.87 72.576 L1574.69 72.576 L1574.69 12.096 Z" fill="#000000" fill-rule="nonzero" fill-opacity="1" /><path clip-path="url(#clip560)" d="M1639.02 32.4315 Q1633.02 32.4315 1629.54 37.1306 Q1626.06 41.7891 1626.06 49.9314 Q1626.06 58.0738 1629.5 62.7728 Q1632.98 67.4314 1639.02 67.4314 Q1644.97 67.4314 1648.46 62.7323 Q1651.94 58.0333 1651.94 49.9314 Q1651.94 41.8701 1648.46 37.1711 Q1644.97 32.4315 1639.02 32.4315 M1639.02 26.1121 Q1648.74 26.1121 1654.29 32.4315 Q1659.84 38.7509 1659.84 49.9314 Q1659.84 61.0714 1654.29 67.4314 Q1648.74 73.7508 1639.02 73.7508 Q1629.26 73.7508 1623.71 67.4314 Q1618.2 61.0714 1618.2 49.9314 Q1618.2 38.7509 1623.71 32.4315 Q1629.26 26.1121 1639.02 26.1121 Z" fill="#000000" fill-rule="nonzero" fill-opacity="1" /><path clip-path="url(#clip560)" d="M1679.41 65.7705 L1679.41 89.8329 L1671.91 89.8329 L1671.91 27.2059 L1679.41 27.2059 L1679.41 34.0924 Q1681.76 30.0415 1685.32 28.0971 Q1688.93 26.1121 1693.91 26.1121 Q1702.17 26.1121 1707.32 32.6746 Q1712.5 39.2371 1712.5 49.9314 Q1712.5 60.6258 1707.32 67.1883 Q1702.17 73.7508 1693.91 73.7508 Q1688.93 73.7508 1685.32 71.8063 Q1681.76 69.8214 1679.41 65.7705 M1704.77 49.9314 Q1704.77 41.7081 1701.36 37.0496 Q1698 32.3505 1692.09 32.3505 Q1686.17 32.3505 1682.77 37.0496 Q1679.41 41.7081 1679.41 49.9314 Q1679.41 58.1548 1682.77 62.8538 Q1686.17 67.5124 1692.09 67.5124 Q1698 67.5124 1701.36 62.8538 Q1704.77 58.1548 1704.77 49.9314 Z" fill="#000000" fill-rule="nonzero" fill-opacity="1" /><path clip-path="url(#clip560)" d="M1751.55 12.096 L1759.74 12.096 L1759.74 65.6895 L1789.19 65.6895 L1789.19 72.576 L1751.55 72.576 L1751.55 12.096 Z" fill="#000000" fill-rule="nonzero" fill-opacity="1" /><path clip-path="url(#clip560)" d="M1797.45 27.2059 L1804.9 27.2059 L1804.9 72.576 L1797.45 72.576 L1797.45 27.2059 M1797.45 9.54393 L1804.9 9.54393 L1804.9 18.9825 L1797.45 18.9825 L1797.45 9.54393 Z" fill="#000000" fill-rule="nonzero" fill-opacity="1" /><path clip-path="url(#clip560)" d="M1849.42 28.5427 L1849.42 35.5912 Q1846.26 33.9709 1842.86 33.1607 Q1839.46 32.3505 1835.81 32.3505 Q1830.26 32.3505 1827.47 34.0519 Q1824.71 35.7533 1824.71 39.156 Q1824.71 41.7486 1826.7 43.2475 Q1828.68 44.7058 1834.68 46.0426 L1837.23 46.6097 Q1845.17 48.3111 1848.49 51.4303 Q1851.85 54.509 1851.85 60.0587 Q1851.85 66.3781 1846.83 70.0644 Q1841.85 73.7508 1833.1 73.7508 Q1829.45 73.7508 1825.48 73.0216 Q1821.55 72.3329 1817.18 70.9151 L1817.18 63.2184 Q1821.31 65.3654 1825.32 66.4591 Q1829.33 67.5124 1833.26 67.5124 Q1838.53 67.5124 1841.36 65.73 Q1844.2 63.9071 1844.2 60.6258 Q1844.2 57.5877 1842.13 55.9673 Q1840.11 54.3469 1833.18 52.8481 L1830.59 52.2405 Q1823.66 50.7821 1820.58 47.7845 Q1817.5 44.7463 1817.5 39.4801 Q1817.5 33.0797 1822.04 29.5959 Q1826.58 26.1121 1834.92 26.1121 Q1839.05 26.1121 1842.7 26.7198 Q1846.34 27.3274 1849.42 28.5427 Z" fill="#000000" fill-rule="nonzero" fill-opacity="1" /><path clip-path="url(#clip560)" d="M1871.1 14.324 L1871.1 27.2059 L1886.45 27.2059 L1886.45 32.9987 L1871.1 32.9987 L1871.1 57.6282 Q1871.1 63.1779 1872.59 64.7578 Q1874.13 66.3376 1878.79 66.3376 L1886.45 66.3376 L1886.45 72.576 L1878.79 72.576 Q1870.16 72.576 1866.88 69.3758 Q1863.6 66.1351 1863.6 57.6282 L1863.6 32.9987 L1858.13 32.9987 L1858.13 27.2059 L1863.6 27.2059 L1863.6 14.324 L1871.1 14.324 Z" fill="#000000" fill-rule="nonzero" fill-opacity="1" /><polyline clip-path="url(#clip562)" style="stroke:#009af9; stroke-linecap:round; stroke-linejoin:round; stroke-width:4; stroke-opacity:1; fill:none" points="424.723,1386.39 426.407,1386.11 433.896,1386.08 443.256,1386.01 518.139,1385.32 611.742,1383.96 798.948,1384.13 986.155,1381.8 1173.36,1382.47 1360.57,1381.44 1547.77,1380.73 1734.98,1381.8 1922.19,1381.5 2109.39,1381.61 2296.6,1380.01 "/>
<polyline clip-path="url(#clip562)" style="stroke:#e26f46; stroke-linecap:round; stroke-linejoin:round; stroke-width:4; stroke-opacity:1; fill:none" points="424.723,1386.36 426.407,1385.13 433.896,1380.84 443.256,1381.47 518.139,1348.21 611.742,1284.24 798.948,1242.27 986.155,1160.49 1173.36,950.235 1360.57,917.078 1547.77,875.024 1734.98,820.101 1922.19,525.55 2109.39,537.492 2296.6,160.256 "/>
<polyline clip-path="url(#clip562)" style="stroke:#3da44d; stroke-linecap:round; stroke-linejoin:round; stroke-width:4; stroke-opacity:1; fill:none" points="424.723,1386.4 426.407,1385.47 433.896,1383.07 443.256,1379.86 518.139,1362.85 611.742,1335.56 798.948,1317.52 986.155,1282.01 1173.36,1252.09 1360.57,1216.9 1547.77,1170.21 1734.98,1159 1922.19,1121.6 2109.39,1031.95 2296.6,931.205 "/>
<circle clip-path="url(#clip562)" cx="424.723" cy="1386.39" r="14.4" fill="#c271d2" fill-rule="evenodd" fill-opacity="1" stroke="#000000" stroke-opacity="1" stroke-width="3.2"/>
<circle clip-path="url(#clip562)" cx="426.407" cy="1386.11" r="14.4" fill="#c271d2" fill-rule="evenodd" fill-opacity="1" stroke="#000000" stroke-opacity="1" stroke-width="3.2"/>
<circle clip-path="url(#clip562)" cx="433.896" cy="1386.08" r="14.4" fill="#c271d2" fill-rule="evenodd" fill-opacity="1" stroke="#000000" stroke-opacity="1" stroke-width="3.2"/>
<circle clip-path="url(#clip562)" cx="443.256" cy="1386.01" r="14.4" fill="#c271d2" fill-rule="evenodd" fill-opacity="1" stroke="#000000" stroke-opacity="1" stroke-width="3.2"/>
<circle clip-path="url(#clip562)" cx="518.139" cy="1385.32" r="14.4" fill="#c271d2" fill-rule="evenodd" fill-opacity="1" stroke="#000000" stroke-opacity="1" stroke-width="3.2"/>
<circle clip-path="url(#clip562)" cx="611.742" cy="1383.96" r="14.4" fill="#c271d2" fill-rule="evenodd" fill-opacity="1" stroke="#000000" stroke-opacity="1" stroke-width="3.2"/>
<circle clip-path="url(#clip562)" cx="798.948" cy="1384.13" r="14.4" fill="#c271d2" fill-rule="evenodd" fill-opacity="1" stroke="#000000" stroke-opacity="1" stroke-width="3.2"/>
<circle clip-path="url(#clip562)" cx="986.155" cy="1381.8" r="14.4" fill="#c271d2" fill-rule="evenodd" fill-opacity="1" stroke="#000000" stroke-opacity="1" stroke-width="3.2"/>
<circle clip-path="url(#clip562)" cx="1173.36" cy="1382.47" r="14.4" fill="#c271d2" fill-rule="evenodd" fill-opacity="1" stroke="#000000" stroke-opacity="1" stroke-width="3.2"/>
<circle clip-path="url(#clip562)" cx="1360.57" cy="1381.44" r="14.4" fill="#c271d2" fill-rule="evenodd" fill-opacity="1" stroke="#000000" stroke-opacity="1" stroke-width="3.2"/>
<circle clip-path="url(#clip562)" cx="1547.77" cy="1380.73" r="14.4" fill="#c271d2" fill-rule="evenodd" fill-opacity="1" stroke="#000000" stroke-opacity="1" stroke-width="3.2"/>
<circle clip-path="url(#clip562)" cx="1734.98" cy="1381.8" r="14.4" fill="#c271d2" fill-rule="evenodd" fill-opacity="1" stroke="#000000" stroke-opacity="1" stroke-width="3.2"/>
<circle clip-path="url(#clip562)" cx="1922.19" cy="1381.5" r="14.4" fill="#c271d2" fill-rule="evenodd" fill-opacity="1" stroke="#000000" stroke-opacity="1" stroke-width="3.2"/>
<circle clip-path="url(#clip562)" cx="2109.39" cy="1381.61" r="14.4" fill="#c271d2" fill-rule="evenodd" fill-opacity="1" stroke="#000000" stroke-opacity="1" stroke-width="3.2"/>
<circle clip-path="url(#clip562)" cx="2296.6" cy="1380.01" r="14.4" fill="#c271d2" fill-rule="evenodd" fill-opacity="1" stroke="#000000" stroke-opacity="1" stroke-width="3.2"/>
<circle clip-path="url(#clip562)" cx="424.723" cy="1386.36" r="14.4" fill="#ac8d18" fill-rule="evenodd" fill-opacity="1" stroke="#000000" stroke-opacity="1" stroke-width="3.2"/>
<circle clip-path="url(#clip562)" cx="426.407" cy="1385.13" r="14.4" fill="#ac8d18" fill-rule="evenodd" fill-opacity="1" stroke="#000000" stroke-opacity="1" stroke-width="3.2"/>
<circle clip-path="url(#clip562)" cx="433.896" cy="1380.84" r="14.4" fill="#ac8d18" fill-rule="evenodd" fill-opacity="1" stroke="#000000" stroke-opacity="1" stroke-width="3.2"/>
<circle clip-path="url(#clip562)" cx="443.256" cy="1381.47" r="14.4" fill="#ac8d18" fill-rule="evenodd" fill-opacity="1" stroke="#000000" stroke-opacity="1" stroke-width="3.2"/>
<circle clip-path="url(#clip562)" cx="518.139" cy="1348.21" r="14.4" fill="#ac8d18" fill-rule="evenodd" fill-opacity="1" stroke="#000000" stroke-opacity="1" stroke-width="3.2"/>
<circle clip-path="url(#clip562)" cx="611.742" cy="1284.24" r="14.4" fill="#ac8d18" fill-rule="evenodd" fill-opacity="1" stroke="#000000" stroke-opacity="1" stroke-width="3.2"/>
<circle clip-path="url(#clip562)" cx="798.948" cy="1242.27" r="14.4" fill="#ac8d18" fill-rule="evenodd" fill-opacity="1" stroke="#000000" stroke-opacity="1" stroke-width="3.2"/>
<circle clip-path="url(#clip562)" cx="986.155" cy="1160.49" r="14.4" fill="#ac8d18" fill-rule="evenodd" fill-opacity="1" stroke="#000000" stroke-opacity="1" stroke-width="3.2"/>
<circle clip-path="url(#clip562)" cx="1173.36" cy="950.235" r="14.4" fill="#ac8d18" fill-rule="evenodd" fill-opacity="1" stroke="#000000" stroke-opacity="1" stroke-width="3.2"/>
<circle clip-path="url(#clip562)" cx="1360.57" cy="917.078" r="14.4" fill="#ac8d18" fill-rule="evenodd" fill-opacity="1" stroke="#000000" stroke-opacity="1" stroke-width="3.2"/>
<circle clip-path="url(#clip562)" cx="1547.77" cy="875.024" r="14.4" fill="#ac8d18" fill-rule="evenodd" fill-opacity="1" stroke="#000000" stroke-opacity="1" stroke-width="3.2"/>
<circle clip-path="url(#clip562)" cx="1734.98" cy="820.101" r="14.4" fill="#ac8d18" fill-rule="evenodd" fill-opacity="1" stroke="#000000" stroke-opacity="1" stroke-width="3.2"/>
<circle clip-path="url(#clip562)" cx="1922.19" cy="525.55" r="14.4" fill="#ac8d18" fill-rule="evenodd" fill-opacity="1" stroke="#000000" stroke-opacity="1" stroke-width="3.2"/>
<circle clip-path="url(#clip562)" cx="2109.39" cy="537.492" r="14.4" fill="#ac8d18" fill-rule="evenodd" fill-opacity="1" stroke="#000000" stroke-opacity="1" stroke-width="3.2"/>
<circle clip-path="url(#clip562)" cx="2296.6" cy="160.256" r="14.4" fill="#ac8d18" fill-rule="evenodd" fill-opacity="1" stroke="#000000" stroke-opacity="1" stroke-width="3.2"/>
<circle clip-path="url(#clip562)" cx="424.723" cy="1386.4" r="14.4" fill="#00a9ad" fill-rule="evenodd" fill-opacity="1" stroke="#000000" stroke-opacity="1" stroke-width="3.2"/>
<circle clip-path="url(#clip562)" cx="426.407" cy="1385.47" r="14.4" fill="#00a9ad" fill-rule="evenodd" fill-opacity="1" stroke="#000000" stroke-opacity="1" stroke-width="3.2"/>
<circle clip-path="url(#clip562)" cx="433.896" cy="1383.07" r="14.4" fill="#00a9ad" fill-rule="evenodd" fill-opacity="1" stroke="#000000" stroke-opacity="1" stroke-width="3.2"/>
<circle clip-path="url(#clip562)" cx="443.256" cy="1379.86" r="14.4" fill="#00a9ad" fill-rule="evenodd" fill-opacity="1" stroke="#000000" stroke-opacity="1" stroke-width="3.2"/>
<circle clip-path="url(#clip562)" cx="518.139" cy="1362.85" r="14.4" fill="#00a9ad" fill-rule="evenodd" fill-opacity="1" stroke="#000000" stroke-opacity="1" stroke-width="3.2"/>
<circle clip-path="url(#clip562)" cx="611.742" cy="1335.56" r="14.4" fill="#00a9ad" fill-rule="evenodd" fill-opacity="1" stroke="#000000" stroke-opacity="1" stroke-width="3.2"/>
<circle clip-path="url(#clip562)" cx="798.948" cy="1317.52" r="14.4" fill="#00a9ad" fill-rule="evenodd" fill-opacity="1" stroke="#000000" stroke-opacity="1" stroke-width="3.2"/>
<circle clip-path="url(#clip562)" cx="986.155" cy="1282.01" r="14.4" fill="#00a9ad" fill-rule="evenodd" fill-opacity="1" stroke="#000000" stroke-opacity="1" stroke-width="3.2"/>
<circle clip-path="url(#clip562)" cx="1173.36" cy="1252.09" r="14.4" fill="#00a9ad" fill-rule="evenodd" fill-opacity="1" stroke="#000000" stroke-opacity="1" stroke-width="3.2"/>
<circle clip-path="url(#clip562)" cx="1360.57" cy="1216.9" r="14.4" fill="#00a9ad" fill-rule="evenodd" fill-opacity="1" stroke="#000000" stroke-opacity="1" stroke-width="3.2"/>
<circle clip-path="url(#clip562)" cx="1547.77" cy="1170.21" r="14.4" fill="#00a9ad" fill-rule="evenodd" fill-opacity="1" stroke="#000000" stroke-opacity="1" stroke-width="3.2"/>
<circle clip-path="url(#clip562)" cx="1734.98" cy="1159" r="14.4" fill="#00a9ad" fill-rule="evenodd" fill-opacity="1" stroke="#000000" stroke-opacity="1" stroke-width="3.2"/>
<circle clip-path="url(#clip562)" cx="1922.19" cy="1121.6" r="14.4" fill="#00a9ad" fill-rule="evenodd" fill-opacity="1" stroke="#000000" stroke-opacity="1" stroke-width="3.2"/>
<circle clip-path="url(#clip562)" cx="2109.39" cy="1031.95" r="14.4" fill="#00a9ad" fill-rule="evenodd" fill-opacity="1" stroke="#000000" stroke-opacity="1" stroke-width="3.2"/>
<circle clip-path="url(#clip562)" cx="2296.6" cy="931.205" r="14.4" fill="#00a9ad" fill-rule="evenodd" fill-opacity="1" stroke="#000000" stroke-opacity="1" stroke-width="3.2"/>
</svg>
