<?xml version="1.0" encoding="utf-8"?>
<svg xmlns="http://www.w3.org/2000/svg" xmlns:xlink="http://www.w3.org/1999/xlink" width="600" height="400" viewBox="0 0 2400 1600">
<defs>
  <clipPath id="clip890">
    <rect x="0" y="0" width="2400" height="1600"/>
  </clipPath>
</defs>
<path clip-path="url(#clip890)" d="M0 1600 L2400 1600 L2400 0 L0 0  Z" fill="#ffffff" fill-rule="evenodd" fill-opacity="1"/>
<defs>
  <clipPath id="clip891">
    <rect x="480" y="0" width="1681" height="1600"/>
  </clipPath>
</defs>
<path clip-path="url(#clip890)" d="M338.404 1423.18 L2352.76 1423.18 L2352.76 123.472 L338.404 123.472  Z" fill="#ffffff" fill-rule="evenodd" fill-opacity="1"/>
<defs>
  <clipPath id="clip892">
    <rect x="338" y="123" width="2015" height="1301"/>
  </clipPath>
</defs>
<polyline clip-path="url(#clip892)" style="stroke:#000000; stroke-linecap:round; stroke-linejoin:round; stroke-width:2; stroke-opacity:0.1; fill:none" points="395.224,1423.18 395.224,123.472 "/>
<polyline clip-path="url(#clip892)" style="stroke:#000000; stroke-linecap:round; stroke-linejoin:round; stroke-width:2; stroke-opacity:0.1; fill:none" points="870.355,1423.18 870.355,123.472 "/>
<polyline clip-path="url(#clip892)" style="stroke:#000000; stroke-linecap:round; stroke-linejoin:round; stroke-width:2; stroke-opacity:0.1; fill:none" points="1345.49,1423.18 1345.49,123.472 "/>
<polyline clip-path="url(#clip892)" style="stroke:#000000; stroke-linecap:round; stroke-linejoin:round; stroke-width:2; stroke-opacity:0.1; fill:none" points="1820.62,1423.18 1820.62,123.472 "/>
<polyline clip-path="url(#clip892)" style="stroke:#000000; stroke-linecap:round; stroke-linejoin:round; stroke-width:2; stroke-opacity:0.1; fill:none" points="2295.75,1423.18 2295.75,123.472 "/>
<polyline clip-path="url(#clip890)" style="stroke:#000000; stroke-linecap:round; stroke-linejoin:round; stroke-width:4; stroke-opacity:1; fill:none" points="338.404,1423.18 2352.76,1423.18 "/>
<polyline clip-path="url(#clip890)" style="stroke:#000000; stroke-linecap:round; stroke-linejoin:round; stroke-width:4; stroke-opacity:1; fill:none" points="395.224,1423.18 395.224,1404.28 "/>
<polyline clip-path="url(#clip890)" style="stroke:#000000; stroke-linecap:round; stroke-linejoin:round; stroke-width:4; stroke-opacity:1; fill:none" points="870.355,1423.18 870.355,1404.28 "/>
<polyline clip-path="url(#clip890)" style="stroke:#000000; stroke-linecap:round; stroke-linejoin:round; stroke-width:4; stroke-opacity:1; fill:none" points="1345.49,1423.18 1345.49,1404.28 "/>
<polyline clip-path="url(#clip890)" style="stroke:#000000; stroke-linecap:round; stroke-linejoin:round; stroke-width:4; stroke-opacity:1; fill:none" points="1820.62,1423.18 1820.62,1404.28 "/>
<polyline clip-path="url(#clip890)" style="stroke:#000000; stroke-linecap:round; stroke-linejoin:round; stroke-width:4; stroke-opacity:1; fill:none" points="2295.75,1423.18 2295.75,1404.28 "/>
<path clip-path="url(#clip890)" d="M395.224 1454.1 Q391.613 1454.1 389.785 1457.66 Q387.979 1461.2 387.979 1468.33 Q387.979 1475.44 389.785 1479.01 Q391.613 1482.55 395.224 1482.55 Q398.859 1482.55 400.664 1479.01 Q402.493 1475.44 402.493 1468.33 Q402.493 1461.2 400.664 1457.66 Q398.859 1454.1 395.224 1454.1 M395.224 1450.39 Q401.034 1450.39 404.09 1455 Q407.169 1459.58 407.169 1468.33 Q407.169 1477.06 404.09 1481.67 Q401.034 1486.25 395.224 1486.25 Q389.414 1486.25 386.335 1481.67 Q383.28 1477.06 383.28 1468.33 Q383.28 1459.58 386.335 1455 Q389.414 1450.39 395.224 1450.39 Z" fill="#000000" fill-rule="nonzero" fill-opacity="1" /><path clip-path="url(#clip890)" d="M818.966 1481.64 L835.285 1481.64 L835.285 1485.58 L813.341 1485.58 L813.341 1481.64 Q816.003 1478.89 820.586 1474.26 Q825.193 1469.61 826.373 1468.27 Q828.619 1465.74 829.498 1464.01 Q830.401 1462.25 830.401 1460.56 Q830.401 1457.8 828.457 1456.07 Q826.536 1454.33 823.434 1454.33 Q821.235 1454.33 818.781 1455.09 Q816.35 1455.86 813.573 1457.41 L813.573 1452.69 Q816.397 1451.55 818.85 1450.97 Q821.304 1450.39 823.341 1450.39 Q828.711 1450.39 831.906 1453.08 Q835.1 1455.77 835.1 1460.26 Q835.1 1462.39 834.29 1464.31 Q833.503 1466.2 831.397 1468.8 Q830.818 1469.47 827.716 1472.69 Q824.614 1475.88 818.966 1481.64 Z" fill="#000000" fill-rule="nonzero" fill-opacity="1" /><path clip-path="url(#clip890)" d="M845.147 1451.02 L863.503 1451.02 L863.503 1454.96 L849.429 1454.96 L849.429 1463.43 Q850.447 1463.08 851.466 1462.92 Q852.484 1462.73 853.503 1462.73 Q859.29 1462.73 862.67 1465.9 Q866.049 1469.08 866.049 1474.49 Q866.049 1480.07 862.577 1483.17 Q859.105 1486.25 852.785 1486.25 Q850.609 1486.25 848.341 1485.88 Q846.096 1485.51 843.688 1484.77 L843.688 1480.07 Q845.772 1481.2 847.994 1481.76 Q850.216 1482.32 852.693 1482.32 Q856.697 1482.32 859.035 1480.21 Q861.373 1478.1 861.373 1474.49 Q861.373 1470.88 859.035 1468.77 Q856.697 1466.67 852.693 1466.67 Q850.818 1466.67 848.943 1467.08 Q847.091 1467.5 845.147 1468.38 L845.147 1451.02 Z" fill="#000000" fill-rule="nonzero" fill-opacity="1" /><path clip-path="url(#clip890)" d="M885.262 1454.1 Q881.651 1454.1 879.822 1457.66 Q878.017 1461.2 878.017 1468.33 Q878.017 1475.44 879.822 1479.01 Q881.651 1482.55 885.262 1482.55 Q888.896 1482.55 890.702 1479.01 Q892.531 1475.44 892.531 1468.33 Q892.531 1461.2 890.702 1457.66 Q888.896 1454.1 885.262 1454.1 M885.262 1450.39 Q891.072 1450.39 894.128 1455 Q897.206 1459.58 897.206 1468.33 Q897.206 1477.06 894.128 1481.67 Q891.072 1486.25 885.262 1486.25 Q879.452 1486.25 876.373 1481.67 Q873.318 1477.06 873.318 1468.33 Q873.318 1459.58 876.373 1455 Q879.452 1450.39 885.262 1450.39 Z" fill="#000000" fill-rule="nonzero" fill-opacity="1" /><path clip-path="url(#clip890)" d="M915.424 1454.1 Q911.813 1454.1 909.984 1457.66 Q908.179 1461.2 908.179 1468.33 Q908.179 1475.44 909.984 1479.01 Q911.813 1482.55 915.424 1482.55 Q919.058 1482.55 920.864 1479.01 Q922.692 1475.44 922.692 1468.33 Q922.692 1461.2 920.864 1457.66 Q919.058 1454.1 915.424 1454.1 M915.424 1450.39 Q921.234 1450.39 924.29 1455 Q927.368 1459.58 927.368 1468.33 Q927.368 1477.06 924.29 1481.67 Q921.234 1486.25 915.424 1486.25 Q909.614 1486.25 906.535 1481.67 Q903.48 1477.06 903.48 1468.33 Q903.48 1459.58 906.535 1455 Q909.614 1450.39 915.424 1450.39 Z" fill="#000000" fill-rule="nonzero" fill-opacity="1" /><path clip-path="url(#clip890)" d="M1290.02 1451.02 L1308.38 1451.02 L1308.38 1454.96 L1294.3 1454.96 L1294.3 1463.43 Q1295.32 1463.08 1296.34 1462.92 Q1297.36 1462.73 1298.38 1462.73 Q1304.17 1462.73 1307.55 1465.9 Q1310.93 1469.08 1310.93 1474.49 Q1310.93 1480.07 1307.45 1483.17 Q1303.98 1486.25 1297.66 1486.25 Q1295.49 1486.25 1293.22 1485.88 Q1290.97 1485.51 1288.56 1484.77 L1288.56 1480.07 Q1290.65 1481.2 1292.87 1481.76 Q1295.09 1482.32 1297.57 1482.32 Q1301.57 1482.32 1303.91 1480.21 Q1306.25 1478.1 1306.25 1474.49 Q1306.25 1470.88 1303.91 1468.77 Q1301.57 1466.67 1297.57 1466.67 Q1295.69 1466.67 1293.82 1467.08 Q1291.97 1467.5 1290.02 1468.38 L1290.02 1451.02 Z" fill="#000000" fill-rule="nonzero" fill-opacity="1" /><path clip-path="url(#clip890)" d="M1330.14 1454.1 Q1326.53 1454.1 1324.7 1457.66 Q1322.89 1461.2 1322.89 1468.33 Q1322.89 1475.44 1324.7 1479.01 Q1326.53 1482.55 1330.14 1482.55 Q1333.77 1482.55 1335.58 1479.01 Q1337.41 1475.44 1337.41 1468.33 Q1337.41 1461.2 1335.58 1457.66 Q1333.77 1454.1 1330.14 1454.1 M1330.14 1450.39 Q1335.95 1450.39 1339 1455 Q1342.08 1459.58 1342.08 1468.33 Q1342.08 1477.06 1339 1481.67 Q1335.95 1486.25 1330.14 1486.25 Q1324.33 1486.25 1321.25 1481.67 Q1318.19 1477.06 1318.19 1468.33 Q1318.19 1459.58 1321.25 1455 Q1324.33 1450.39 1330.14 1450.39 Z" fill="#000000" fill-rule="nonzero" fill-opacity="1" /><path clip-path="url(#clip890)" d="M1360.3 1454.1 Q1356.69 1454.1 1354.86 1457.66 Q1353.05 1461.2 1353.05 1468.33 Q1353.05 1475.44 1354.86 1479.01 Q1356.69 1482.55 1360.3 1482.55 Q1363.93 1482.55 1365.74 1479.01 Q1367.57 1475.44 1367.57 1468.33 Q1367.57 1461.2 1365.74 1457.66 Q1363.93 1454.1 1360.3 1454.1 M1360.3 1450.39 Q1366.11 1450.39 1369.17 1455 Q1372.24 1459.58 1372.24 1468.33 Q1372.24 1477.06 1369.17 1481.67 Q1366.11 1486.25 1360.3 1486.25 Q1354.49 1486.25 1351.41 1481.67 Q1348.36 1477.06 1348.36 1468.33 Q1348.36 1459.58 1351.41 1455 Q1354.49 1450.39 1360.3 1450.39 Z" fill="#000000" fill-rule="nonzero" fill-opacity="1" /><path clip-path="url(#clip890)" d="M1390.46 1454.1 Q1386.85 1454.1 1385.02 1457.66 Q1383.22 1461.2 1383.22 1468.33 Q1383.22 1475.44 1385.02 1479.01 Q1386.85 1482.55 1390.46 1482.55 Q1394.1 1482.55 1395.9 1479.01 Q1397.73 1475.44 1397.73 1468.33 Q1397.73 1461.2 1395.9 1457.66 Q1394.1 1454.1 1390.46 1454.1 M1390.46 1450.39 Q1396.27 1450.39 1399.33 1455 Q1402.41 1459.58 1402.41 1468.33 Q1402.41 1477.06 1399.33 1481.67 Q1396.27 1486.25 1390.46 1486.25 Q1384.65 1486.25 1381.57 1481.67 Q1378.52 1477.06 1378.52 1468.33 Q1378.52 1459.58 1381.57 1455 Q1384.65 1450.39 1390.46 1450.39 Z" fill="#000000" fill-rule="nonzero" fill-opacity="1" /><path clip-path="url(#clip890)" d="M1763.81 1451.02 L1786.03 1451.02 L1786.03 1453.01 L1773.49 1485.58 L1768.6 1485.58 L1780.41 1454.96 L1763.81 1454.96 L1763.81 1451.02 Z" fill="#000000" fill-rule="nonzero" fill-opacity="1" /><path clip-path="url(#clip890)" d="M1795.2 1451.02 L1813.56 1451.02 L1813.56 1454.96 L1799.48 1454.96 L1799.48 1463.43 Q1800.5 1463.08 1801.52 1462.92 Q1802.54 1462.73 1803.56 1462.73 Q1809.34 1462.73 1812.72 1465.9 Q1816.1 1469.08 1816.1 1474.49 Q1816.1 1480.07 1812.63 1483.17 Q1809.16 1486.25 1802.84 1486.25 Q1800.66 1486.25 1798.39 1485.88 Q1796.15 1485.51 1793.74 1484.77 L1793.74 1480.07 Q1795.82 1481.2 1798.05 1481.76 Q1800.27 1482.32 1802.75 1482.32 Q1806.75 1482.32 1809.09 1480.21 Q1811.43 1478.1 1811.43 1474.49 Q1811.43 1470.88 1809.09 1468.77 Q1806.75 1466.67 1802.75 1466.67 Q1800.87 1466.67 1799 1467.08 Q1797.14 1467.5 1795.2 1468.38 L1795.2 1451.02 Z" fill="#000000" fill-rule="nonzero" fill-opacity="1" /><path clip-path="url(#clip890)" d="M1835.31 1454.1 Q1831.7 1454.1 1829.87 1457.66 Q1828.07 1461.2 1828.07 1468.33 Q1828.07 1475.44 1829.87 1479.01 Q1831.7 1482.55 1835.31 1482.55 Q1838.95 1482.55 1840.75 1479.01 Q1842.58 1475.44 1842.58 1468.33 Q1842.58 1461.2 1840.75 1457.66 Q1838.95 1454.1 1835.31 1454.1 M1835.31 1450.39 Q1841.12 1450.39 1844.18 1455 Q1847.26 1459.58 1847.26 1468.33 Q1847.26 1477.06 1844.18 1481.67 Q1841.12 1486.25 1835.31 1486.25 Q1829.5 1486.25 1826.43 1481.67 Q1823.37 1477.06 1823.37 1468.33 Q1823.37 1459.58 1826.43 1455 Q1829.5 1450.39 1835.31 1450.39 Z" fill="#000000" fill-rule="nonzero" fill-opacity="1" /><path clip-path="url(#clip890)" d="M1865.48 1454.1 Q1861.87 1454.1 1860.04 1457.66 Q1858.23 1461.2 1858.23 1468.33 Q1858.23 1475.44 1860.04 1479.01 Q1861.87 1482.55 1865.48 1482.55 Q1869.11 1482.55 1870.92 1479.01 Q1872.74 1475.44 1872.74 1468.33 Q1872.74 1461.2 1870.92 1457.66 Q1869.11 1454.1 1865.48 1454.1 M1865.48 1450.39 Q1871.29 1450.39 1874.34 1455 Q1877.42 1459.58 1877.42 1468.33 Q1877.42 1477.06 1874.34 1481.67 Q1871.29 1486.25 1865.48 1486.25 Q1859.67 1486.25 1856.59 1481.67 Q1853.53 1477.06 1853.53 1468.33 Q1853.53 1459.58 1856.59 1455 Q1859.67 1450.39 1865.48 1450.39 Z" fill="#000000" fill-rule="nonzero" fill-opacity="1" /><path clip-path="url(#clip890)" d="M2225.19 1481.64 L2232.83 1481.64 L2232.83 1455.28 L2224.52 1456.95 L2224.52 1452.69 L2232.78 1451.02 L2237.46 1451.02 L2237.46 1481.64 L2245.1 1481.64 L2245.1 1485.58 L2225.19 1485.58 L2225.19 1481.64 Z" fill="#000000" fill-rule="nonzero" fill-opacity="1" /><path clip-path="url(#clip890)" d="M2264.54 1454.1 Q2260.93 1454.1 2259.1 1457.66 Q2257.3 1461.2 2257.3 1468.33 Q2257.3 1475.44 2259.1 1479.01 Q2260.93 1482.55 2264.54 1482.55 Q2268.18 1482.55 2269.98 1479.01 Q2271.81 1475.44 2271.81 1468.33 Q2271.81 1461.2 2269.98 1457.66 Q2268.18 1454.1 2264.54 1454.1 M2264.54 1450.39 Q2270.35 1450.39 2273.41 1455 Q2276.49 1459.58 2276.49 1468.33 Q2276.49 1477.06 2273.41 1481.67 Q2270.35 1486.25 2264.54 1486.25 Q2258.73 1486.25 2255.65 1481.67 Q2252.6 1477.06 2252.6 1468.33 Q2252.6 1459.58 2255.65 1455 Q2258.73 1450.39 2264.54 1450.39 Z" fill="#000000" fill-rule="nonzero" fill-opacity="1" /><path clip-path="url(#clip890)" d="M2294.7 1454.1 Q2291.09 1454.1 2289.26 1457.66 Q2287.46 1461.2 2287.46 1468.33 Q2287.46 1475.44 2289.26 1479.01 Q2291.09 1482.55 2294.7 1482.55 Q2298.34 1482.55 2300.14 1479.01 Q2301.97 1475.44 2301.97 1468.33 Q2301.97 1461.2 2300.14 1457.66 Q2298.34 1454.1 2294.7 1454.1 M2294.7 1450.39 Q2300.51 1450.39 2303.57 1455 Q2306.65 1459.58 2306.65 1468.33 Q2306.65 1477.06 2303.57 1481.67 Q2300.51 1486.25 2294.7 1486.25 Q2288.89 1486.25 2285.82 1481.67 Q2282.76 1477.06 2282.76 1468.33 Q2282.76 1459.58 2285.82 1455 Q2288.89 1450.39 2294.7 1450.39 Z" fill="#000000" fill-rule="nonzero" fill-opacity="1" /><path clip-path="url(#clip890)" d="M2324.87 1454.1 Q2321.26 1454.1 2319.43 1457.66 Q2317.62 1461.2 2317.62 1468.33 Q2317.62 1475.44 2319.43 1479.01 Q2321.26 1482.55 2324.87 1482.55 Q2328.5 1482.55 2330.31 1479.01 Q2332.13 1475.44 2332.13 1468.33 Q2332.13 1461.2 2330.31 1457.66 Q2328.5 1454.1 2324.87 1454.1 M2324.87 1450.39 Q2330.68 1450.39 2333.73 1455 Q2336.81 1459.58 2336.81 1468.33 Q2336.81 1477.06 2333.73 1481.67 Q2330.68 1486.25 2324.87 1486.25 Q2319.06 1486.25 2315.98 1481.67 Q2312.92 1477.06 2312.92 1468.33 Q2312.92 1459.58 2315.98 1455 Q2319.06 1450.39 2324.87 1450.39 Z" fill="#000000" fill-rule="nonzero" fill-opacity="1" /><path clip-path="url(#clip890)" d="M2355.03 1454.1 Q2351.42 1454.1 2349.59 1457.66 Q2347.78 1461.2 2347.78 1468.33 Q2347.78 1475.44 2349.59 1479.01 Q2351.42 1482.55 2355.03 1482.55 Q2358.66 1482.55 2360.47 1479.01 Q2362.3 1475.44 2362.3 1468.33 Q2362.3 1461.2 2360.47 1457.66 Q2358.66 1454.1 2355.03 1454.1 M2355.03 1450.39 Q2360.84 1450.39 2363.89 1455 Q2366.97 1459.58 2366.97 1468.33 Q2366.97 1477.06 2363.89 1481.67 Q2360.84 1486.25 2355.03 1486.25 Q2349.22 1486.25 2346.14 1481.67 Q2343.08 1477.06 2343.08 1468.33 Q2343.08 1459.58 2346.14 1455 Q2349.22 1450.39 2355.03 1450.39 Z" fill="#000000" fill-rule="nonzero" fill-opacity="1" /><path clip-path="url(#clip890)" d="M1327.6 1520.52 L1336.25 1520.52 L1357.32 1560.28 L1357.32 1520.52 L1363.56 1520.52 L1363.56 1568.04 L1354.91 1568.04 L1333.84 1528.29 L1333.84 1568.04 L1327.6 1568.04 L1327.6 1520.52 Z" fill="#000000" fill-rule="nonzero" fill-opacity="1" /><polyline clip-path="url(#clip892)" style="stroke:#000000; stroke-linecap:round; stroke-linejoin:round; stroke-width:2; stroke-opacity:0.1; fill:none" points="338.404,1386.54 2352.76,1386.54 "/>
<polyline clip-path="url(#clip892)" style="stroke:#000000; stroke-linecap:round; stroke-linejoin:round; stroke-width:2; stroke-opacity:0.1; fill:none" points="338.404,1121.96 2352.76,1121.96 "/>
<polyline clip-path="url(#clip892)" style="stroke:#000000; stroke-linecap:round; stroke-linejoin:round; stroke-width:2; stroke-opacity:0.1; fill:none" points="338.404,857.385 2352.76,857.385 "/>
<polyline clip-path="url(#clip892)" style="stroke:#000000; stroke-linecap:round; stroke-linejoin:round; stroke-width:2; stroke-opacity:0.1; fill:none" points="338.404,592.809 2352.76,592.809 "/>
<polyline clip-path="url(#clip892)" style="stroke:#000000; stroke-linecap:round; stroke-linejoin:round; stroke-width:2; stroke-opacity:0.1; fill:none" points="338.404,328.232 2352.76,328.232 "/>
<polyline clip-path="url(#clip890)" style="stroke:#000000; stroke-linecap:round; stroke-linejoin:round; stroke-width:4; stroke-opacity:1; fill:none" points="338.404,1423.18 338.404,123.472 "/>
<polyline clip-path="url(#clip890)" style="stroke:#000000; stroke-linecap:round; stroke-linejoin:round; stroke-width:4; stroke-opacity:1; fill:none" points="338.404,1386.54 357.302,1386.54 "/>
<polyline clip-path="url(#clip890)" style="stroke:#000000; stroke-linecap:round; stroke-linejoin:round; stroke-width:4; stroke-opacity:1; fill:none" points="338.404,1121.96 357.302,1121.96 "/>
<polyline clip-path="url(#clip890)" style="stroke:#000000; stroke-linecap:round; stroke-linejoin:round; stroke-width:4; stroke-opacity:1; fill:none" points="338.404,857.385 357.302,857.385 "/>
<polyline clip-path="url(#clip890)" style="stroke:#000000; stroke-linecap:round; stroke-linejoin:round; stroke-width:4; stroke-opacity:1; fill:none" points="338.404,592.809 357.302,592.809 "/>
<polyline clip-path="url(#clip890)" style="stroke:#000000; stroke-linecap:round; stroke-linejoin:round; stroke-width:4; stroke-opacity:1; fill:none" points="338.404,328.232 357.302,328.232 "/>
<path clip-path="url(#clip890)" d="M290.46 1372.34 Q286.849 1372.34 285.02 1375.9 Q283.215 1379.44 283.215 1386.57 Q283.215 1393.68 285.02 1397.24 Q286.849 1400.79 290.46 1400.79 Q294.094 1400.79 295.9 1397.24 Q297.729 1393.68 297.729 1386.57 Q297.729 1379.44 295.9 1375.9 Q294.094 1372.34 290.46 1372.34 M290.46 1368.63 Q296.27 1368.63 299.326 1373.24 Q302.404 1377.82 302.404 1386.57 Q302.404 1395.3 299.326 1399.91 Q296.27 1404.49 290.46 1404.49 Q284.65 1404.49 281.571 1399.91 Q278.516 1395.3 278.516 1386.57 Q278.516 1377.82 281.571 1373.24 Q284.65 1368.63 290.46 1368.63 Z" fill="#000000" fill-rule="nonzero" fill-opacity="1" /><path clip-path="url(#clip890)" d="M117.825 1141.75 L125.464 1141.75 L125.464 1115.39 L117.154 1117.06 L117.154 1112.8 L125.418 1111.13 L130.093 1111.13 L130.093 1141.75 L137.732 1141.75 L137.732 1145.69 L117.825 1145.69 L117.825 1141.75 Z" fill="#000000" fill-rule="nonzero" fill-opacity="1" /><path clip-path="url(#clip890)" d="M147.177 1139.81 L152.061 1139.81 L152.061 1145.69 L147.177 1145.69 L147.177 1139.81 Z" fill="#000000" fill-rule="nonzero" fill-opacity="1" /><path clip-path="url(#clip890)" d="M172.246 1114.21 Q168.635 1114.21 166.806 1117.77 Q165.001 1121.31 165.001 1128.44 Q165.001 1135.55 166.806 1139.12 Q168.635 1142.66 172.246 1142.66 Q175.88 1142.66 177.686 1139.12 Q179.514 1135.55 179.514 1128.44 Q179.514 1121.31 177.686 1117.77 Q175.88 1114.21 172.246 1114.21 M172.246 1110.5 Q178.056 1110.5 181.112 1115.11 Q184.19 1119.69 184.19 1128.44 Q184.19 1137.17 181.112 1141.78 Q178.056 1146.36 172.246 1146.36 Q166.436 1146.36 163.357 1141.78 Q160.302 1137.17 160.302 1128.44 Q160.302 1119.69 163.357 1115.11 Q166.436 1110.5 172.246 1110.5 Z" fill="#000000" fill-rule="nonzero" fill-opacity="1" /><path clip-path="url(#clip890)" d="M220.579 1120.23 L210 1130.85 L220.579 1141.43 L217.824 1144.23 L207.199 1133.61 L196.575 1144.23 L193.843 1141.43 L204.399 1130.85 L193.843 1120.23 L196.575 1117.43 L207.199 1128.05 L217.824 1117.43 L220.579 1120.23 Z" fill="#000000" fill-rule="nonzero" fill-opacity="1" /><path clip-path="url(#clip890)" d="M232.94 1141.75 L240.579 1141.75 L240.579 1115.39 L232.269 1117.06 L232.269 1112.8 L240.533 1111.13 L245.209 1111.13 L245.209 1141.75 L252.847 1141.75 L252.847 1145.69 L232.94 1145.69 L232.94 1141.75 Z" fill="#000000" fill-rule="nonzero" fill-opacity="1" /><path clip-path="url(#clip890)" d="M272.292 1114.21 Q268.681 1114.21 266.852 1117.77 Q265.046 1121.31 265.046 1128.44 Q265.046 1135.55 266.852 1139.12 Q268.681 1142.66 272.292 1142.66 Q275.926 1142.66 277.732 1139.12 Q279.56 1135.55 279.56 1128.44 Q279.56 1121.31 277.732 1117.77 Q275.926 1114.21 272.292 1114.21 M272.292 1110.5 Q278.102 1110.5 281.157 1115.11 Q284.236 1119.69 284.236 1128.44 Q284.236 1137.17 281.157 1141.78 Q278.102 1146.36 272.292 1146.36 Q266.482 1146.36 263.403 1141.78 Q260.347 1137.17 260.347 1128.44 Q260.347 1119.69 263.403 1115.11 Q266.482 1110.5 272.292 1110.5 Z" fill="#000000" fill-rule="nonzero" fill-opacity="1" /><path clip-path="url(#clip890)" d="M285.421 1090.2 L300.336 1090.2 L300.336 1093.4 L288.9 1093.4 L288.9 1100.28 Q289.728 1100 290.556 1099.87 Q291.383 1099.72 292.211 1099.72 Q296.913 1099.72 299.658 1102.29 Q302.404 1104.87 302.404 1109.27 Q302.404 1113.8 299.583 1116.32 Q296.762 1118.82 291.628 1118.82 Q289.86 1118.82 288.016 1118.52 Q286.192 1118.22 284.236 1117.62 L284.236 1113.8 Q285.929 1114.72 287.734 1115.18 Q289.54 1115.63 291.552 1115.63 Q294.806 1115.63 296.706 1113.92 Q298.605 1112.2 298.605 1109.27 Q298.605 1106.34 296.706 1104.62 Q294.806 1102.91 291.552 1102.91 Q290.029 1102.91 288.505 1103.25 Q287.001 1103.59 285.421 1104.31 L285.421 1090.2 Z" fill="#000000" fill-rule="nonzero" fill-opacity="1" /><path clip-path="url(#clip890)" d="M121.043 877.178 L137.362 877.178 L137.362 881.113 L115.418 881.113 L115.418 877.178 Q118.08 874.423 122.663 869.794 Q127.269 865.141 128.45 863.798 Q130.695 861.275 131.575 859.539 Q132.478 857.78 132.478 856.09 Q132.478 853.335 130.533 851.599 Q128.612 849.863 125.51 849.863 Q123.311 849.863 120.857 850.627 Q118.427 851.391 115.649 852.942 L115.649 848.22 Q118.473 847.085 120.927 846.507 Q123.38 845.928 125.418 845.928 Q130.788 845.928 133.982 848.613 Q137.177 851.298 137.177 855.789 Q137.177 857.919 136.367 859.84 Q135.579 861.738 133.473 864.331 Q132.894 865.002 129.792 868.22 Q126.691 871.414 121.043 877.178 Z" fill="#000000" fill-rule="nonzero" fill-opacity="1" /><path clip-path="url(#clip890)" d="M147.177 875.233 L152.061 875.233 L152.061 881.113 L147.177 881.113 L147.177 875.233 Z" fill="#000000" fill-rule="nonzero" fill-opacity="1" /><path clip-path="url(#clip890)" d="M172.246 849.632 Q168.635 849.632 166.806 853.197 Q165.001 856.738 165.001 863.868 Q165.001 870.974 166.806 874.539 Q168.635 878.081 172.246 878.081 Q175.88 878.081 177.686 874.539 Q179.514 870.974 179.514 863.868 Q179.514 856.738 177.686 853.197 Q175.88 849.632 172.246 849.632 M172.246 845.928 Q178.056 845.928 181.112 850.535 Q184.19 855.118 184.19 863.868 Q184.19 872.595 181.112 877.201 Q178.056 881.784 172.246 881.784 Q166.436 881.784 163.357 877.201 Q160.302 872.595 160.302 863.868 Q160.302 855.118 163.357 850.535 Q166.436 845.928 172.246 845.928 Z" fill="#000000" fill-rule="nonzero" fill-opacity="1" /><path clip-path="url(#clip890)" d="M220.579 855.65 L210 866.275 L220.579 876.854 L217.824 879.655 L207.199 869.03 L196.575 879.655 L193.843 876.854 L204.399 866.275 L193.843 855.65 L196.575 852.849 L207.199 863.474 L217.824 852.849 L220.579 855.65 Z" fill="#000000" fill-rule="nonzero" fill-opacity="1" /><path clip-path="url(#clip890)" d="M232.94 877.178 L240.579 877.178 L240.579 850.812 L232.269 852.479 L232.269 848.22 L240.533 846.553 L245.209 846.553 L245.209 877.178 L252.847 877.178 L252.847 881.113 L232.94 881.113 L232.94 877.178 Z" fill="#000000" fill-rule="nonzero" fill-opacity="1" /><path clip-path="url(#clip890)" d="M272.292 849.632 Q268.681 849.632 266.852 853.197 Q265.046 856.738 265.046 863.868 Q265.046 870.974 266.852 874.539 Q268.681 878.081 272.292 878.081 Q275.926 878.081 277.732 874.539 Q279.56 870.974 279.56 863.868 Q279.56 856.738 277.732 853.197 Q275.926 849.632 272.292 849.632 M272.292 845.928 Q278.102 845.928 281.157 850.535 Q284.236 855.118 284.236 863.868 Q284.236 872.595 281.157 877.201 Q278.102 881.784 272.292 881.784 Q266.482 881.784 263.403 877.201 Q260.347 872.595 260.347 863.868 Q260.347 855.118 263.403 850.535 Q266.482 845.928 272.292 845.928 Z" fill="#000000" fill-rule="nonzero" fill-opacity="1" /><path clip-path="url(#clip890)" d="M285.421 825.623 L300.336 825.623 L300.336 828.82 L288.9 828.82 L288.9 835.704 Q289.728 835.422 290.556 835.29 Q291.383 835.139 292.211 835.139 Q296.913 835.139 299.658 837.716 Q302.404 840.293 302.404 844.694 Q302.404 849.226 299.583 851.747 Q296.762 854.248 291.628 854.248 Q289.86 854.248 288.016 853.947 Q286.192 853.646 284.236 853.044 L284.236 849.226 Q285.929 850.148 287.734 850.599 Q289.54 851.051 291.552 851.051 Q294.806 851.051 296.706 849.339 Q298.605 847.628 298.605 844.694 Q298.605 841.76 296.706 840.048 Q294.806 838.337 291.552 838.337 Q290.029 838.337 288.505 838.675 Q287.001 839.014 285.421 839.728 L285.421 825.623 Z" fill="#000000" fill-rule="nonzero" fill-opacity="1" /><path clip-path="url(#clip890)" d="M131.181 597.902 Q134.538 598.62 136.413 600.888 Q138.311 603.157 138.311 606.49 Q138.311 611.606 134.792 614.407 Q131.274 617.208 124.793 617.208 Q122.617 617.208 120.302 616.768 Q118.01 616.351 115.556 615.495 L115.556 610.981 Q117.501 612.115 119.816 612.694 Q122.13 613.273 124.654 613.273 Q129.052 613.273 131.343 611.536 Q133.658 609.8 133.658 606.49 Q133.658 603.435 131.505 601.722 Q129.376 599.986 125.556 599.986 L121.529 599.986 L121.529 596.143 L125.742 596.143 Q129.191 596.143 131.019 594.777 Q132.848 593.388 132.848 590.796 Q132.848 588.134 130.95 586.722 Q129.075 585.287 125.556 585.287 Q123.635 585.287 121.436 585.703 Q119.237 586.12 116.598 586.999 L116.598 582.833 Q119.26 582.092 121.575 581.722 Q123.913 581.351 125.973 581.351 Q131.297 581.351 134.399 583.782 Q137.501 586.189 137.501 590.31 Q137.501 593.18 135.857 595.171 Q134.214 597.138 131.181 597.902 Z" fill="#000000" fill-rule="nonzero" fill-opacity="1" /><path clip-path="url(#clip890)" d="M147.177 610.657 L152.061 610.657 L152.061 616.536 L147.177 616.536 L147.177 610.657 Z" fill="#000000" fill-rule="nonzero" fill-opacity="1" /><path clip-path="url(#clip890)" d="M172.246 585.055 Q168.635 585.055 166.806 588.62 Q165.001 592.162 165.001 599.291 Q165.001 606.398 166.806 609.962 Q168.635 613.504 172.246 613.504 Q175.88 613.504 177.686 609.962 Q179.514 606.398 179.514 599.291 Q179.514 592.162 177.686 588.62 Q175.88 585.055 172.246 585.055 M172.246 581.351 Q178.056 581.351 181.112 585.958 Q184.19 590.541 184.19 599.291 Q184.19 608.018 181.112 612.624 Q178.056 617.208 172.246 617.208 Q166.436 617.208 163.357 612.624 Q160.302 608.018 160.302 599.291 Q160.302 590.541 163.357 585.958 Q166.436 581.351 172.246 581.351 Z" fill="#000000" fill-rule="nonzero" fill-opacity="1" /><path clip-path="url(#clip890)" d="M220.579 591.074 L210 601.698 L220.579 612.277 L217.824 615.078 L207.199 604.453 L196.575 615.078 L193.843 612.277 L204.399 601.698 L193.843 591.074 L196.575 588.273 L207.199 598.898 L217.824 588.273 L220.579 591.074 Z" fill="#000000" fill-rule="nonzero" fill-opacity="1" /><path clip-path="url(#clip890)" d="M232.94 612.601 L240.579 612.601 L240.579 586.236 L232.269 587.902 L232.269 583.643 L240.533 581.976 L245.209 581.976 L245.209 612.601 L252.847 612.601 L252.847 616.536 L232.94 616.536 L232.94 612.601 Z" fill="#000000" fill-rule="nonzero" fill-opacity="1" /><path clip-path="url(#clip890)" d="M272.292 585.055 Q268.681 585.055 266.852 588.62 Q265.046 592.162 265.046 599.291 Q265.046 606.398 266.852 609.962 Q268.681 613.504 272.292 613.504 Q275.926 613.504 277.732 609.962 Q279.56 606.398 279.56 599.291 Q279.56 592.162 277.732 588.62 Q275.926 585.055 272.292 585.055 M272.292 581.351 Q278.102 581.351 281.157 585.958 Q284.236 590.541 284.236 599.291 Q284.236 608.018 281.157 612.624 Q278.102 617.208 272.292 617.208 Q266.482 617.208 263.403 612.624 Q260.347 608.018 260.347 599.291 Q260.347 590.541 263.403 585.958 Q266.482 581.351 272.292 581.351 Z" fill="#000000" fill-rule="nonzero" fill-opacity="1" /><path clip-path="url(#clip890)" d="M285.421 561.046 L300.336 561.046 L300.336 564.243 L288.9 564.243 L288.9 571.127 Q289.728 570.845 290.556 570.713 Q291.383 570.563 292.211 570.563 Q296.913 570.563 299.658 573.139 Q302.404 575.716 302.404 580.117 Q302.404 584.65 299.583 587.17 Q296.762 589.671 291.628 589.671 Q289.86 589.671 288.016 589.37 Q286.192 589.07 284.236 588.468 L284.236 584.65 Q285.929 585.571 287.734 586.023 Q289.54 586.474 291.552 586.474 Q294.806 586.474 296.706 584.763 Q298.605 583.051 298.605 580.117 Q298.605 577.183 296.706 575.472 Q294.806 573.76 291.552 573.76 Q290.029 573.76 288.505 574.099 Q287.001 574.437 285.421 575.152 L285.421 561.046 Z" fill="#000000" fill-rule="nonzero" fill-opacity="1" /><path clip-path="url(#clip890)" d="M129.862 321.474 L118.056 339.923 L129.862 339.923 L129.862 321.474 M128.635 317.4 L134.515 317.4 L134.515 339.923 L139.445 339.923 L139.445 343.812 L134.515 343.812 L134.515 351.96 L129.862 351.96 L129.862 343.812 L114.26 343.812 L114.26 339.298 L128.635 317.4 Z" fill="#000000" fill-rule="nonzero" fill-opacity="1" /><path clip-path="url(#clip890)" d="M147.177 346.08 L152.061 346.08 L152.061 351.96 L147.177 351.96 L147.177 346.08 Z" fill="#000000" fill-rule="nonzero" fill-opacity="1" /><path clip-path="url(#clip890)" d="M172.246 320.478 Q168.635 320.478 166.806 324.043 Q165.001 327.585 165.001 334.714 Q165.001 341.821 166.806 345.386 Q168.635 348.927 172.246 348.927 Q175.88 348.927 177.686 345.386 Q179.514 341.821 179.514 334.714 Q179.514 327.585 177.686 324.043 Q175.88 320.478 172.246 320.478 M172.246 316.775 Q178.056 316.775 181.112 321.381 Q184.19 325.964 184.19 334.714 Q184.19 343.441 181.112 348.048 Q178.056 352.631 172.246 352.631 Q166.436 352.631 163.357 348.048 Q160.302 343.441 160.302 334.714 Q160.302 325.964 163.357 321.381 Q166.436 316.775 172.246 316.775 Z" fill="#000000" fill-rule="nonzero" fill-opacity="1" /><path clip-path="url(#clip890)" d="M220.579 326.497 L210 337.122 L220.579 347.7 L217.824 350.501 L207.199 339.876 L196.575 350.501 L193.843 347.7 L204.399 337.122 L193.843 326.497 L196.575 323.696 L207.199 334.321 L217.824 323.696 L220.579 326.497 Z" fill="#000000" fill-rule="nonzero" fill-opacity="1" /><path clip-path="url(#clip890)" d="M232.94 348.025 L240.579 348.025 L240.579 321.659 L232.269 323.326 L232.269 319.066 L240.533 317.4 L245.209 317.4 L245.209 348.025 L252.847 348.025 L252.847 351.96 L232.94 351.96 L232.94 348.025 Z" fill="#000000" fill-rule="nonzero" fill-opacity="1" /><path clip-path="url(#clip890)" d="M272.292 320.478 Q268.681 320.478 266.852 324.043 Q265.046 327.585 265.046 334.714 Q265.046 341.821 266.852 345.386 Q268.681 348.927 272.292 348.927 Q275.926 348.927 277.732 345.386 Q279.56 341.821 279.56 334.714 Q279.56 327.585 277.732 324.043 Q275.926 320.478 272.292 320.478 M272.292 316.775 Q278.102 316.775 281.157 321.381 Q284.236 325.964 284.236 334.714 Q284.236 343.441 281.157 348.048 Q278.102 352.631 272.292 352.631 Q266.482 352.631 263.403 348.048 Q260.347 343.441 260.347 334.714 Q260.347 325.964 263.403 321.381 Q266.482 316.775 272.292 316.775 Z" fill="#000000" fill-rule="nonzero" fill-opacity="1" /><path clip-path="url(#clip890)" d="M285.421 296.469 L300.336 296.469 L300.336 299.667 L288.9 299.667 L288.9 306.55 Q289.728 306.268 290.556 306.136 Q291.383 305.986 292.211 305.986 Q296.913 305.986 299.658 308.563 Q302.404 311.139 302.404 315.54 Q302.404 320.073 299.583 322.593 Q296.762 325.095 291.628 325.095 Q289.86 325.095 288.016 324.794 Q286.192 324.493 284.236 323.891 L284.236 320.073 Q285.929 320.995 287.734 321.446 Q289.54 321.897 291.552 321.897 Q294.806 321.897 296.706 320.186 Q298.605 318.474 298.605 315.54 Q298.605 312.606 296.706 310.895 Q294.806 309.183 291.552 309.183 Q290.029 309.183 288.505 309.522 Q287.001 309.86 285.421 310.575 L285.421 296.469 Z" fill="#000000" fill-rule="nonzero" fill-opacity="1" /><path clip-path="url(#clip890)" d="M16.4842 903.155 L16.4842 862.955 L21.895 862.955 L21.895 879.824 L64.0042 879.824 L64.0042 886.285 L21.895 886.285 L21.895 903.155 L16.4842 903.155 Z" fill="#000000" fill-rule="nonzero" fill-opacity="1" /><path clip-path="url(#clip890)" d="M28.3562 859.008 L28.3562 853.152 L64.0042 853.152 L64.0042 859.008 L28.3562 859.008 M14.479 859.008 L14.479 853.152 L21.895 853.152 L21.895 859.008 L14.479 859.008 Z" fill="#000000" fill-rule="nonzero" fill-opacity="1" /><path clip-path="url(#clip890)" d="M35.1993 813.143 Q31.2526 810.947 29.3747 807.892 Q27.4968 804.836 27.4968 800.699 Q27.4968 795.129 31.4117 792.105 Q35.2948 789.081 42.4881 789.081 L64.0042 789.081 L64.0042 794.969 L42.679 794.969 Q37.5546 794.969 35.072 796.784 Q32.5894 798.598 32.5894 802.322 Q32.5894 806.873 35.6131 809.515 Q38.6368 812.157 43.8567 812.157 L64.0042 812.157 L64.0042 818.045 L42.679 818.045 Q37.5228 818.045 35.072 819.859 Q32.5894 821.674 32.5894 825.461 Q32.5894 829.949 35.6449 832.591 Q38.6686 835.232 43.8567 835.232 L64.0042 835.232 L64.0042 841.121 L28.3562 841.121 L28.3562 835.232 L33.8944 835.232 Q30.616 833.227 29.0564 830.426 Q27.4968 827.625 27.4968 823.774 Q27.4968 819.891 29.4702 817.186 Q31.4436 814.448 35.1993 813.143 Z" fill="#000000" fill-rule="nonzero" fill-opacity="1" /><path clip-path="url(#clip890)" d="M44.7161 746.908 L47.5806 746.908 L47.5806 773.835 Q53.6281 773.453 56.8109 770.207 Q59.9619 766.928 59.9619 761.104 Q59.9619 757.73 59.1344 754.579 Q58.3069 751.396 56.6518 748.277 L62.1899 748.277 Q63.5267 751.428 64.227 754.738 Q64.9272 758.048 64.9272 761.454 Q64.9272 769.984 59.9619 774.981 Q54.9967 779.946 46.5303 779.946 Q37.7774 779.946 32.6531 775.236 Q27.4968 770.493 27.4968 762.472 Q27.4968 755.279 32.1438 751.11 Q36.7589 746.908 44.7161 746.908 M42.9973 752.765 Q38.1912 752.828 35.3266 755.47 Q32.4621 758.08 32.4621 762.409 Q32.4621 767.31 35.2312 770.27 Q38.0002 773.199 43.0292 773.644 L42.9973 752.765 Z" fill="#000000" fill-rule="nonzero" fill-opacity="1" /><path clip-path="url(#clip890)" d="M14.5426 702.507 Q21.8632 706.773 29.0246 708.841 Q36.186 710.91 43.5384 710.91 Q50.8908 710.91 58.1159 708.841 Q65.3091 706.741 72.5979 702.507 L72.5979 707.6 Q65.1182 712.374 57.8931 714.761 Q50.668 717.117 43.5384 717.117 Q36.4406 717.117 29.2474 714.761 Q22.0542 712.406 14.5426 707.6 L14.5426 702.507 Z" fill="#000000" fill-rule="nonzero" fill-opacity="1" /><path clip-path="url(#clip890)" d="M29.4065 668.419 L34.9447 668.419 Q33.6716 670.902 33.035 673.575 Q32.3984 676.249 32.3984 679.114 Q32.3984 683.474 33.7352 685.67 Q35.072 687.835 37.7456 687.835 Q39.7826 687.835 40.9603 686.275 Q42.1061 684.715 43.1565 680.005 L43.6021 678 Q44.9389 671.761 47.3897 669.151 Q49.8086 666.509 54.1691 666.509 Q59.1344 666.509 62.0308 670.456 Q64.9272 674.371 64.9272 681.246 Q64.9272 684.111 64.3543 687.23 Q63.8132 690.317 62.6992 693.755 L56.6518 693.755 Q58.3387 690.508 59.198 687.357 Q60.0256 684.206 60.0256 681.119 Q60.0256 676.981 58.6251 674.753 Q57.1929 672.525 54.6147 672.525 Q52.2276 672.525 50.9545 674.148 Q49.6813 675.74 48.5037 681.182 L48.0262 683.219 Q46.8804 688.662 44.5251 691.081 Q42.138 693.5 38.0002 693.5 Q32.9713 693.5 30.2341 689.935 Q27.4968 686.37 27.4968 679.814 Q27.4968 676.567 27.9743 673.703 Q28.4517 670.838 29.4065 668.419 Z" fill="#000000" fill-rule="nonzero" fill-opacity="1" /><path clip-path="url(#clip890)" d="M14.5426 658.107 L14.5426 653.014 Q22.0542 648.24 29.2474 645.885 Q36.4406 643.497 43.5384 643.497 Q50.668 643.497 57.8931 645.885 Q65.1182 648.24 72.5979 653.014 L72.5979 658.107 Q65.3091 653.873 58.1159 651.805 Q50.8908 649.704 43.5384 649.704 Q36.186 649.704 29.0246 651.805 Q21.8632 653.873 14.5426 658.107 Z" fill="#000000" fill-rule="nonzero" fill-opacity="1" /><path clip-path="url(#clip890)" d="M874.419 12.096 L925.582 12.096 L925.582 18.9825 L904.113 18.9825 L904.113 72.576 L895.889 72.576 L895.889 18.9825 L874.419 18.9825 L874.419 12.096 Z" fill="#000000" fill-rule="nonzero" fill-opacity="1" /><path clip-path="url(#clip890)" d="M930.606 27.2059 L938.059 27.2059 L938.059 72.576 L930.606 72.576 L930.606 27.2059 M930.606 9.54393 L938.059 9.54393 L938.059 18.9825 L930.606 18.9825 L930.606 9.54393 Z" fill="#000000" fill-rule="nonzero" fill-opacity="1" /><path clip-path="url(#clip890)" d="M988.979 35.9153 Q991.774 30.8922 995.663 28.5022 Q999.552 26.1121 1004.82 26.1121 Q1011.91 26.1121 1015.76 31.0947 Q1019.6 36.0368 1019.6 45.1919 L1019.6 72.576 L1012.11 72.576 L1012.11 45.4349 Q1012.11 38.913 1009.8 35.7533 Q1007.49 32.5936 1002.75 32.5936 Q996.959 32.5936 993.597 36.4419 Q990.235 40.2903 990.235 46.9338 L990.235 72.576 L982.741 72.576 L982.741 45.4349 Q982.741 38.8725 980.432 35.7533 Q978.123 32.5936 973.302 32.5936 Q967.59 32.5936 964.228 36.4824 Q960.866 40.3308 960.866 46.9338 L960.866 72.576 L953.372 72.576 L953.372 27.2059 L960.866 27.2059 L960.866 34.2544 Q963.418 30.082 966.983 28.0971 Q970.547 26.1121 975.449 26.1121 Q980.391 26.1121 983.834 28.6237 Q987.318 31.1352 988.979 35.9153 Z" fill="#000000" fill-rule="nonzero" fill-opacity="1" /><path clip-path="url(#clip890)" d="M1073.28 48.0275 L1073.28 51.6733 L1039.01 51.6733 Q1039.49 59.3701 1043.63 63.421 Q1047.8 67.4314 1055.21 67.4314 Q1059.51 67.4314 1063.52 66.3781 Q1067.57 65.3249 1071.54 63.2184 L1071.54 70.267 Q1067.53 71.9684 1063.31 72.8596 Q1059.1 73.7508 1054.77 73.7508 Q1043.91 73.7508 1037.55 67.4314 Q1031.23 61.1119 1031.23 50.3365 Q1031.23 39.1965 1037.23 32.6746 Q1043.26 26.1121 1053.47 26.1121 Q1062.62 26.1121 1067.93 32.0264 Q1073.28 37.9003 1073.28 48.0275 M1065.82 45.84 Q1065.74 39.7232 1062.38 36.0774 Q1059.06 32.4315 1053.55 32.4315 Q1047.31 32.4315 1043.54 35.9558 Q1039.82 39.4801 1039.25 45.8805 L1065.82 45.84 Z" fill="#000000" fill-rule="nonzero" fill-opacity="1" /><path clip-path="url(#clip890)" d="M1119.26 14.324 L1119.26 27.2059 L1134.61 27.2059 L1134.61 32.9987 L1119.26 32.9987 L1119.26 57.6282 Q1119.26 63.1779 1120.75 64.7578 Q1122.29 66.3376 1126.95 66.3376 L1134.61 66.3376 L1134.61 72.576 L1126.95 72.576 Q1118.32 72.576 1115.04 69.3758 Q1111.76 66.1351 1111.76 57.6282 L1111.76 32.9987 L1106.29 32.9987 L1106.29 27.2059 L1111.76 27.2059 L1111.76 14.324 L1119.26 14.324 Z" fill="#000000" fill-rule="nonzero" fill-opacity="1" /><path clip-path="url(#clip890)" d="M1161.99 32.4315 Q1156 32.4315 1152.51 37.1306 Q1149.03 41.7891 1149.03 49.9314 Q1149.03 58.0738 1152.47 62.7728 Q1155.96 67.4314 1161.99 67.4314 Q1167.95 67.4314 1171.43 62.7323 Q1174.92 58.0333 1174.92 49.9314 Q1174.92 41.8701 1171.43 37.1711 Q1167.95 32.4315 1161.99 32.4315 M1161.99 26.1121 Q1171.72 26.1121 1177.27 32.4315 Q1182.81 38.7509 1182.81 49.9314 Q1182.81 61.0714 1177.27 67.4314 Q1171.72 73.7508 1161.99 73.7508 Q1152.23 73.7508 1146.68 67.4314 Q1141.17 61.0714 1141.17 49.9314 Q1141.17 38.7509 1146.68 32.4315 Q1152.23 26.1121 1161.99 26.1121 Z" fill="#000000" fill-rule="nonzero" fill-opacity="1" /><path clip-path="url(#clip890)" d="M1221.54 27.2059 L1229 27.2059 L1229 72.576 L1221.54 72.576 L1221.54 27.2059 M1221.54 9.54393 L1229 9.54393 L1229 18.9825 L1221.54 18.9825 L1221.54 9.54393 Z" fill="#000000" fill-rule="nonzero" fill-opacity="1" /><path clip-path="url(#clip890)" d="M1282.31 45.1919 L1282.31 72.576 L1274.85 72.576 L1274.85 45.4349 Q1274.85 38.994 1272.34 35.7938 Q1269.83 32.5936 1264.81 32.5936 Q1258.77 32.5936 1255.29 36.4419 Q1251.8 40.2903 1251.8 46.9338 L1251.8 72.576 L1244.31 72.576 L1244.31 27.2059 L1251.8 27.2059 L1251.8 34.2544 Q1254.48 30.163 1258.08 28.1376 Q1261.73 26.1121 1266.47 26.1121 Q1274.28 26.1121 1278.29 30.9732 Q1282.31 35.7938 1282.31 45.1919 Z" fill="#000000" fill-rule="nonzero" fill-opacity="1" /><path clip-path="url(#clip890)" d="M1326.1 28.5427 L1326.1 35.5912 Q1322.94 33.9709 1319.53 33.1607 Q1316.13 32.3505 1312.48 32.3505 Q1306.93 32.3505 1304.14 34.0519 Q1301.38 35.7533 1301.38 39.156 Q1301.38 41.7486 1303.37 43.2475 Q1305.35 44.7058 1311.35 46.0426 L1313.9 46.6097 Q1321.84 48.3111 1325.16 51.4303 Q1328.53 54.509 1328.53 60.0587 Q1328.53 66.3781 1323.5 70.0644 Q1318.52 73.7508 1309.77 73.7508 Q1306.12 73.7508 1302.15 73.0216 Q1298.23 72.3329 1293.85 70.9151 L1293.85 63.2184 Q1297.98 65.3654 1301.99 66.4591 Q1306 67.5124 1309.93 67.5124 Q1315.2 67.5124 1318.03 65.73 Q1320.87 63.9071 1320.87 60.6258 Q1320.87 57.5877 1318.8 55.9673 Q1316.78 54.3469 1309.85 52.8481 L1307.26 52.2405 Q1300.33 50.7821 1297.25 47.7845 Q1294.17 44.7463 1294.17 39.4801 Q1294.17 33.0797 1298.71 29.5959 Q1303.25 26.1121 1311.59 26.1121 Q1315.72 26.1121 1319.37 26.7198 Q1323.02 27.3274 1326.1 28.5427 Z" fill="#000000" fill-rule="nonzero" fill-opacity="1" /><path clip-path="url(#clip890)" d="M1379.2 48.0275 L1379.2 51.6733 L1344.93 51.6733 Q1345.42 59.3701 1349.55 63.421 Q1353.72 67.4314 1361.14 67.4314 Q1365.43 67.4314 1369.44 66.3781 Q1373.49 65.3249 1377.46 63.2184 L1377.46 70.267 Q1373.45 71.9684 1369.24 72.8596 Q1365.02 73.7508 1360.69 73.7508 Q1349.83 73.7508 1343.47 67.4314 Q1337.15 61.1119 1337.15 50.3365 Q1337.15 39.1965 1343.15 32.6746 Q1349.19 26.1121 1359.39 26.1121 Q1368.55 26.1121 1373.86 32.0264 Q1379.2 37.9003 1379.2 48.0275 M1371.75 45.84 Q1371.67 39.7232 1368.31 36.0774 Q1364.98 32.4315 1359.47 32.4315 Q1353.24 32.4315 1349.47 35.9558 Q1345.74 39.4801 1345.18 45.8805 L1371.75 45.84 Z" fill="#000000" fill-rule="nonzero" fill-opacity="1" /><path clip-path="url(#clip890)" d="M1417.73 34.1734 Q1416.47 33.4443 1414.97 33.1202 Q1413.51 32.7556 1411.73 32.7556 Q1405.41 32.7556 1402.01 36.8875 Q1398.65 40.9789 1398.65 48.6757 L1398.65 72.576 L1391.15 72.576 L1391.15 27.2059 L1398.65 27.2059 L1398.65 34.2544 Q1401 30.1225 1404.76 28.1376 Q1408.53 26.1121 1413.92 26.1121 Q1414.69 26.1121 1415.62 26.2337 Q1416.55 26.3147 1417.69 26.5172 L1417.73 34.1734 Z" fill="#000000" fill-rule="nonzero" fill-opacity="1" /><path clip-path="url(#clip890)" d="M1432.92 14.324 L1432.92 27.2059 L1448.27 27.2059 L1448.27 32.9987 L1432.92 32.9987 L1432.92 57.6282 Q1432.92 63.1779 1434.42 64.7578 Q1435.96 66.3376 1440.61 66.3376 L1448.27 66.3376 L1448.27 72.576 L1440.61 72.576 Q1431.99 72.576 1428.7 69.3758 Q1425.42 66.1351 1425.42 57.6282 L1425.42 32.9987 L1419.95 32.9987 L1419.95 27.2059 L1425.42 27.2059 L1425.42 14.324 L1432.92 14.324 Z" fill="#000000" fill-rule="nonzero" fill-opacity="1" /><path clip-path="url(#clip890)" d="M1523.25 48.0275 L1523.25 51.6733 L1488.98 51.6733 Q1489.47 59.3701 1493.6 63.421 Q1497.77 67.4314 1505.19 67.4314 Q1509.48 67.4314 1513.49 66.3781 Q1517.54 65.3249 1521.51 63.2184 L1521.51 70.267 Q1517.5 71.9684 1513.29 72.8596 Q1509.07 73.7508 1504.74 73.7508 Q1493.88 73.7508 1487.52 67.4314 Q1481.2 61.1119 1481.2 50.3365 Q1481.2 39.1965 1487.2 32.6746 Q1493.24 26.1121 1503.44 26.1121 Q1512.6 26.1121 1517.91 32.0264 Q1523.25 37.9003 1523.25 48.0275 M1515.8 45.84 Q1515.72 39.7232 1512.36 36.0774 Q1509.03 32.4315 1503.52 32.4315 Q1497.29 32.4315 1493.52 35.9558 Q1489.79 39.4801 1489.23 45.8805 L1515.8 45.84 Z" fill="#000000" fill-rule="nonzero" fill-opacity="1" /><path clip-path="url(#clip890)" d="M1535.49 9.54393 L1542.94 9.54393 L1542.94 72.576 L1535.49 72.576 L1535.49 9.54393 Z" fill="#000000" fill-rule="nonzero" fill-opacity="1" /><path clip-path="url(#clip890)" d="M1597.34 48.0275 L1597.34 51.6733 L1563.07 51.6733 Q1563.56 59.3701 1567.69 63.421 Q1571.86 67.4314 1579.28 67.4314 Q1583.57 67.4314 1587.58 66.3781 Q1591.63 65.3249 1595.6 63.2184 L1595.6 70.267 Q1591.59 71.9684 1587.38 72.8596 Q1583.17 73.7508 1578.83 73.7508 Q1567.97 73.7508 1561.61 67.4314 Q1555.3 61.1119 1555.3 50.3365 Q1555.3 39.1965 1561.29 32.6746 Q1567.33 26.1121 1577.53 26.1121 Q1586.69 26.1121 1592 32.0264 Q1597.34 37.9003 1597.34 48.0275 M1589.89 45.84 Q1589.81 39.7232 1586.45 36.0774 Q1583.13 32.4315 1577.62 32.4315 Q1571.38 32.4315 1567.61 35.9558 Q1563.88 39.4801 1563.32 45.8805 L1589.89 45.84 Z" fill="#000000" fill-rule="nonzero" fill-opacity="1" /><path clip-path="url(#clip890)" d="M1644.9 35.9153 Q1647.7 30.8922 1651.59 28.5022 Q1655.47 26.1121 1660.74 26.1121 Q1667.83 26.1121 1671.68 31.0947 Q1675.53 36.0368 1675.53 45.1919 L1675.53 72.576 L1668.03 72.576 L1668.03 45.4349 Q1668.03 38.913 1665.72 35.7533 Q1663.41 32.5936 1658.67 32.5936 Q1652.88 32.5936 1649.52 36.4419 Q1646.16 40.2903 1646.16 46.9338 L1646.16 72.576 L1638.66 72.576 L1638.66 45.4349 Q1638.66 38.8725 1636.35 35.7533 Q1634.05 32.5936 1629.22 32.5936 Q1623.51 32.5936 1620.15 36.4824 Q1616.79 40.3308 1616.79 46.9338 L1616.79 72.576 L1609.29 72.576 L1609.29 27.2059 L1616.79 27.2059 L1616.79 34.2544 Q1619.34 30.082 1622.91 28.0971 Q1626.47 26.1121 1631.37 26.1121 Q1636.31 26.1121 1639.76 28.6237 Q1643.24 31.1352 1644.9 35.9153 Z" fill="#000000" fill-rule="nonzero" fill-opacity="1" /><path clip-path="url(#clip890)" d="M1729.2 48.0275 L1729.2 51.6733 L1694.93 51.6733 Q1695.42 59.3701 1699.55 63.421 Q1703.72 67.4314 1711.13 67.4314 Q1715.43 67.4314 1719.44 66.3781 Q1723.49 65.3249 1727.46 63.2184 L1727.46 70.267 Q1723.45 71.9684 1719.24 72.8596 Q1715.02 73.7508 1710.69 73.7508 Q1699.83 73.7508 1693.47 67.4314 Q1687.15 61.1119 1687.15 50.3365 Q1687.15 39.1965 1693.15 32.6746 Q1699.18 26.1121 1709.39 26.1121 Q1718.55 26.1121 1723.85 32.0264 Q1729.2 37.9003 1729.2 48.0275 M1721.75 45.84 Q1721.67 39.7232 1718.3 36.0774 Q1714.98 32.4315 1709.47 32.4315 Q1703.23 32.4315 1699.47 35.9558 Q1695.74 39.4801 1695.17 45.8805 L1721.75 45.84 Z" fill="#000000" fill-rule="nonzero" fill-opacity="1" /><path clip-path="url(#clip890)" d="M1779.15 45.1919 L1779.15 72.576 L1771.69 72.576 L1771.69 45.4349 Q1771.69 38.994 1769.18 35.7938 Q1766.67 32.5936 1761.65 32.5936 Q1755.61 32.5936 1752.13 36.4419 Q1748.65 40.2903 1748.65 46.9338 L1748.65 72.576 L1741.15 72.576 L1741.15 27.2059 L1748.65 27.2059 L1748.65 34.2544 Q1751.32 30.163 1754.92 28.1376 Q1758.57 26.1121 1763.31 26.1121 Q1771.13 26.1121 1775.14 30.9732 Q1779.15 35.7938 1779.15 45.1919 Z" fill="#000000" fill-rule="nonzero" fill-opacity="1" /><path clip-path="url(#clip890)" d="M1801.39 14.324 L1801.39 27.2059 L1816.74 27.2059 L1816.74 32.9987 L1801.39 32.9987 L1801.39 57.6282 Q1801.39 63.1779 1802.89 64.7578 Q1804.43 66.3376 1809.08 66.3376 L1816.74 66.3376 L1816.74 72.576 L1809.08 72.576 Q1800.46 72.576 1797.17 69.3758 Q1793.89 66.1351 1793.89 57.6282 L1793.89 32.9987 L1788.43 32.9987 L1788.43 27.2059 L1793.89 27.2059 L1793.89 14.324 L1801.39 14.324 Z" fill="#000000" fill-rule="nonzero" fill-opacity="1" /><polyline clip-path="url(#clip892)" style="stroke:#009af9; stroke-linecap:round; stroke-linejoin:round; stroke-width:4; stroke-opacity:1; fill:none" points="395.414,1386.24 397.125,1386.4 404.727,1386.21 414.23,1386.13 490.25,1385.7 585.276,1385.22 775.329,1384.95 965.381,1384.59 1155.43,1383.05 1345.49,1384.38 1535.54,1383.57 1725.59,1384.45 1915.64,1383.58 2105.69,1383.88 2295.75,1383.38 "/>
<polyline clip-path="url(#clip892)" style="stroke:#e26f46; stroke-linecap:round; stroke-linejoin:round; stroke-width:4; stroke-opacity:1; fill:none" points="395.414,1385.33 397.125,1383.57 404.727,1375.58 414.23,1369.51 490.25,1315.52 585.276,1228.04 775.329,1119.16 965.381,1021.33 1155.43,856.214 1345.49,815.729 1535.54,792.182 1725.59,513.661 1915.64,514.448 2105.69,460.18 2295.75,160.256 "/>
<polyline clip-path="url(#clip892)" style="stroke:#3da44d; stroke-linecap:round; stroke-linejoin:round; stroke-width:4; stroke-opacity:1; fill:none" points="395.414,1386.08 397.125,1384.49 404.727,1376.99 414.23,1379.92 490.25,1333.97 585.276,1278.13 775.329,1208.21 965.381,1056.71 1155.43,897.732 1345.49,973.647 1535.54,840.849 1725.59,796.159 1915.64,660.626 2105.69,592.532 2295.75,507.716 "/>
<circle clip-path="url(#clip892)" cx="395.414" cy="1386.24" r="14.4" fill="#c271d2" fill-rule="evenodd" fill-opacity="1" stroke="#000000" stroke-opacity="1" stroke-width="3.2"/>
<circle clip-path="url(#clip892)" cx="397.125" cy="1386.4" r="14.4" fill="#c271d2" fill-rule="evenodd" fill-opacity="1" stroke="#000000" stroke-opacity="1" stroke-width="3.2"/>
<circle clip-path="url(#clip892)" cx="404.727" cy="1386.21" r="14.4" fill="#c271d2" fill-rule="evenodd" fill-opacity="1" stroke="#000000" stroke-opacity="1" stroke-width="3.2"/>
<circle clip-path="url(#clip892)" cx="414.23" cy="1386.13" r="14.4" fill="#c271d2" fill-rule="evenodd" fill-opacity="1" stroke="#000000" stroke-opacity="1" stroke-width="3.2"/>
<circle clip-path="url(#clip892)" cx="490.25" cy="1385.7" r="14.4" fill="#c271d2" fill-rule="evenodd" fill-opacity="1" stroke="#000000" stroke-opacity="1" stroke-width="3.2"/>
<circle clip-path="url(#clip892)" cx="585.276" cy="1385.22" r="14.4" fill="#c271d2" fill-rule="evenodd" fill-opacity="1" stroke="#000000" stroke-opacity="1" stroke-width="3.2"/>
<circle clip-path="url(#clip892)" cx="775.329" cy="1384.95" r="14.4" fill="#c271d2" fill-rule="evenodd" fill-opacity="1" stroke="#000000" stroke-opacity="1" stroke-width="3.2"/>
<circle clip-path="url(#clip892)" cx="965.381" cy="1384.59" r="14.4" fill="#c271d2" fill-rule="evenodd" fill-opacity="1" stroke="#000000" stroke-opacity="1" stroke-width="3.2"/>
<circle clip-path="url(#clip892)" cx="1155.43" cy="1383.05" r="14.4" fill="#c271d2" fill-rule="evenodd" fill-opacity="1" stroke="#000000" stroke-opacity="1" stroke-width="3.2"/>
<circle clip-path="url(#clip892)" cx="1345.49" cy="1384.38" r="14.4" fill="#c271d2" fill-rule="evenodd" fill-opacity="1" stroke="#000000" stroke-opacity="1" stroke-width="3.2"/>
<circle clip-path="url(#clip892)" cx="1535.54" cy="1383.57" r="14.4" fill="#c271d2" fill-rule="evenodd" fill-opacity="1" stroke="#000000" stroke-opacity="1" stroke-width="3.2"/>
<circle clip-path="url(#clip892)" cx="1725.59" cy="1384.45" r="14.4" fill="#c271d2" fill-rule="evenodd" fill-opacity="1" stroke="#000000" stroke-opacity="1" stroke-width="3.2"/>
<circle clip-path="url(#clip892)" cx="1915.64" cy="1383.58" r="14.4" fill="#c271d2" fill-rule="evenodd" fill-opacity="1" stroke="#000000" stroke-opacity="1" stroke-width="3.2"/>
<circle clip-path="url(#clip892)" cx="2105.69" cy="1383.88" r="14.4" fill="#c271d2" fill-rule="evenodd" fill-opacity="1" stroke="#000000" stroke-opacity="1" stroke-width="3.2"/>
<circle clip-path="url(#clip892)" cx="2295.75" cy="1383.38" r="14.4" fill="#c271d2" fill-rule="evenodd" fill-opacity="1" stroke="#000000" stroke-opacity="1" stroke-width="3.2"/>
<circle clip-path="url(#clip892)" cx="395.414" cy="1385.33" r="14.4" fill="#ac8d18" fill-rule="evenodd" fill-opacity="1" stroke="#000000" stroke-opacity="1" stroke-width="3.2"/>
<circle clip-path="url(#clip892)" cx="397.125" cy="1383.57" r="14.4" fill="#ac8d18" fill-rule="evenodd" fill-opacity="1" stroke="#000000" stroke-opacity="1" stroke-width="3.2"/>
<circle clip-path="url(#clip892)" cx="404.727" cy="1375.58" r="14.4" fill="#ac8d18" fill-rule="evenodd" fill-opacity="1" stroke="#000000" stroke-opacity="1" stroke-width="3.2"/>
<circle clip-path="url(#clip892)" cx="414.23" cy="1369.51" r="14.4" fill="#ac8d18" fill-rule="evenodd" fill-opacity="1" stroke="#000000" stroke-opacity="1" stroke-width="3.2"/>
<circle clip-path="url(#clip892)" cx="490.25" cy="1315.52" r="14.4" fill="#ac8d18" fill-rule="evenodd" fill-opacity="1" stroke="#000000" stroke-opacity="1" stroke-width="3.2"/>
<circle clip-path="url(#clip892)" cx="585.276" cy="1228.04" r="14.4" fill="#ac8d18" fill-rule="evenodd" fill-opacity="1" stroke="#000000" stroke-opacity="1" stroke-width="3.2"/>
<circle clip-path="url(#clip892)" cx="775.329" cy="1119.16" r="14.4" fill="#ac8d18" fill-rule="evenodd" fill-opacity="1" stroke="#000000" stroke-opacity="1" stroke-width="3.2"/>
<circle clip-path="url(#clip892)" cx="965.381" cy="1021.33" r="14.4" fill="#ac8d18" fill-rule="evenodd" fill-opacity="1" stroke="#000000" stroke-opacity="1" stroke-width="3.2"/>
<circle clip-path="url(#clip892)" cx="1155.43" cy="856.214" r="14.4" fill="#ac8d18" fill-rule="evenodd" fill-opacity="1" stroke="#000000" stroke-opacity="1" stroke-width="3.2"/>
<circle clip-path="url(#clip892)" cx="1345.49" cy="815.729" r="14.4" fill="#ac8d18" fill-rule="evenodd" fill-opacity="1" stroke="#000000" stroke-opacity="1" stroke-width="3.2"/>
<circle clip-path="url(#clip892)" cx="1535.54" cy="792.182" r="14.4" fill="#ac8d18" fill-rule="evenodd" fill-opacity="1" stroke="#000000" stroke-opacity="1" stroke-width="3.2"/>
<circle clip-path="url(#clip892)" cx="1725.59" cy="513.661" r="14.4" fill="#ac8d18" fill-rule="evenodd" fill-opacity="1" stroke="#000000" stroke-opacity="1" stroke-width="3.2"/>
<circle clip-path="url(#clip892)" cx="1915.64" cy="514.448" r="14.4" fill="#ac8d18" fill-rule="evenodd" fill-opacity="1" stroke="#000000" stroke-opacity="1" stroke-width="3.2"/>
<circle clip-path="url(#clip892)" cx="2105.69" cy="460.18" r="14.4" fill="#ac8d18" fill-rule="evenodd" fill-opacity="1" stroke="#000000" stroke-opacity="1" stroke-width="3.2"/>
<circle clip-path="url(#clip892)" cx="2295.75" cy="160.256" r="14.4" fill="#ac8d18" fill-rule="evenodd" fill-opacity="1" stroke="#000000" stroke-opacity="1" stroke-width="3.2"/>
<circle clip-path="url(#clip892)" cx="395.414" cy="1386.08" r="14.4" fill="#00a9ad" fill-rule="evenodd" fill-opacity="1" stroke="#000000" stroke-opacity="1" stroke-width="3.2"/>
<circle clip-path="url(#clip892)" cx="397.125" cy="1384.49" r="14.4" fill="#00a9ad" fill-rule="evenodd" fill-opacity="1" stroke="#000000" stroke-opacity="1" stroke-width="3.2"/>
<circle clip-path="url(#clip892)" cx="404.727" cy="1376.99" r="14.4" fill="#00a9ad" fill-rule="evenodd" fill-opacity="1" stroke="#000000" stroke-opacity="1" stroke-width="3.2"/>
<circle clip-path="url(#clip892)" cx="414.23" cy="1379.92" r="14.4" fill="#00a9ad" fill-rule="evenodd" fill-opacity="1" stroke="#000000" stroke-opacity="1" stroke-width="3.2"/>
<circle clip-path="url(#clip892)" cx="490.25" cy="1333.97" r="14.4" fill="#00a9ad" fill-rule="evenodd" fill-opacity="1" stroke="#000000" stroke-opacity="1" stroke-width="3.2"/>
<circle clip-path="url(#clip892)" cx="585.276" cy="1278.13" r="14.4" fill="#00a9ad" fill-rule="evenodd" fill-opacity="1" stroke="#000000" stroke-opacity="1" stroke-width="3.2"/>
<circle clip-path="url(#clip892)" cx="775.329" cy="1208.21" r="14.4" fill="#00a9ad" fill-rule="evenodd" fill-opacity="1" stroke="#000000" stroke-opacity="1" stroke-width="3.2"/>
<circle clip-path="url(#clip892)" cx="965.381" cy="1056.71" r="14.4" fill="#00a9ad" fill-rule="evenodd" fill-opacity="1" stroke="#000000" stroke-opacity="1" stroke-width="3.2"/>
<circle clip-path="url(#clip892)" cx="1155.43" cy="897.732" r="14.4" fill="#00a9ad" fill-rule="evenodd" fill-opacity="1" stroke="#000000" stroke-opacity="1" stroke-width="3.2"/>
<circle clip-path="url(#clip892)" cx="1345.49" cy="973.647" r="14.4" fill="#00a9ad" fill-rule="evenodd" fill-opacity="1" stroke="#000000" stroke-opacity="1" stroke-width="3.2"/>
<circle clip-path="url(#clip892)" cx="1535.54" cy="840.849" r="14.4" fill="#00a9ad" fill-rule="evenodd" fill-opacity="1" stroke="#000000" stroke-opacity="1" stroke-width="3.2"/>
<circle clip-path="url(#clip892)" cx="1725.59" cy="796.159" r="14.4" fill="#00a9ad" fill-rule="evenodd" fill-opacity="1" stroke="#000000" stroke-opacity="1" stroke-width="3.2"/>
<circle clip-path="url(#clip892)" cx="1915.64" cy="660.626" r="14.4" fill="#00a9ad" fill-rule="evenodd" fill-opacity="1" stroke="#000000" stroke-opacity="1" stroke-width="3.2"/>
<circle clip-path="url(#clip892)" cx="2105.69" cy="592.532" r="14.4" fill="#00a9ad" fill-rule="evenodd" fill-opacity="1" stroke="#000000" stroke-opacity="1" stroke-width="3.2"/>
<circle clip-path="url(#clip892)" cx="2295.75" cy="507.716" r="14.4" fill="#00a9ad" fill-rule="evenodd" fill-opacity="1" stroke="#000000" stroke-opacity="1" stroke-width="3.2"/>
<path clip-path="url(#clip890)" d="M405.549 374.156 L822.053 374.156 L822.053 166.796 L405.549 166.796  Z" fill="#ffffff" fill-rule="evenodd" fill-opacity="1"/>
<polyline clip-path="url(#clip890)" style="stroke:#000000; stroke-linecap:round; stroke-linejoin:round; stroke-width:4; stroke-opacity:1; fill:none" points="405.549,374.156 822.053,374.156 822.053,166.796 405.549,166.796 405.549,374.156 "/>
<polyline clip-path="url(#clip890)" style="stroke:#009af9; stroke-linecap:round; stroke-linejoin:round; stroke-width:4; stroke-opacity:1; fill:none" points="427.931,218.636 562.221,218.636 "/>
<path clip-path="url(#clip890)" d="M588.885 232.027 L588.885 245.777 L584.603 245.777 L584.603 209.99 L588.885 209.99 L588.885 213.925 Q590.228 211.61 592.265 210.499 Q594.325 209.365 597.172 209.365 Q601.894 209.365 604.834 213.115 Q607.797 216.865 607.797 222.976 Q607.797 229.087 604.834 232.837 Q601.894 236.587 597.172 236.587 Q594.325 236.587 592.265 235.476 Q590.228 234.342 588.885 232.027 M603.376 222.976 Q603.376 218.277 601.432 215.615 Q599.51 212.93 596.131 212.93 Q592.751 212.93 590.807 215.615 Q588.885 218.277 588.885 222.976 Q588.885 227.675 590.807 230.36 Q592.751 233.022 596.131 233.022 Q599.51 233.022 601.432 230.36 Q603.376 227.675 603.376 222.976 Z" fill="#000000" fill-rule="nonzero" fill-opacity="1" /><path clip-path="url(#clip890)" d="M614.418 225.684 L614.418 209.99 L618.677 209.99 L618.677 225.522 Q618.677 229.203 620.112 231.055 Q621.547 232.883 624.418 232.883 Q627.867 232.883 629.857 230.684 Q631.871 228.485 631.871 224.689 L631.871 209.99 L636.13 209.99 L636.13 235.916 L631.871 235.916 L631.871 231.934 Q630.32 234.295 628.26 235.453 Q626.223 236.587 623.515 236.587 Q619.047 236.587 616.732 233.809 Q614.418 231.031 614.418 225.684 M625.135 209.365 L625.135 209.365 Z" fill="#000000" fill-rule="nonzero" fill-opacity="1" /><path clip-path="url(#clip890)" d="M661.431 210.754 L661.431 214.782 Q659.626 213.856 657.681 213.393 Q655.737 212.93 653.653 212.93 Q650.482 212.93 648.885 213.902 Q647.311 214.874 647.311 216.819 Q647.311 218.3 648.445 219.157 Q649.579 219.99 653.005 220.754 L654.464 221.078 Q659.001 222.05 660.899 223.832 Q662.82 225.592 662.82 228.763 Q662.82 232.374 659.95 234.481 Q657.103 236.587 652.103 236.587 Q650.019 236.587 647.751 236.17 Q645.505 235.777 643.005 234.967 L643.005 230.569 Q645.366 231.795 647.658 232.42 Q649.95 233.022 652.195 233.022 Q655.204 233.022 656.825 232.004 Q658.445 230.962 658.445 229.087 Q658.445 227.351 657.265 226.425 Q656.107 225.499 652.149 224.643 L650.667 224.295 Q646.709 223.462 644.95 221.749 Q643.191 220.013 643.191 217.004 Q643.191 213.346 645.783 211.356 Q648.376 209.365 653.144 209.365 Q655.505 209.365 657.589 209.712 Q659.672 210.059 661.431 210.754 Z" fill="#000000" fill-rule="nonzero" fill-opacity="1" /><path clip-path="url(#clip890)" d="M691.153 220.268 L691.153 235.916 L686.894 235.916 L686.894 220.407 Q686.894 216.726 685.459 214.897 Q684.024 213.069 681.153 213.069 Q677.704 213.069 675.714 215.268 Q673.723 217.467 673.723 221.263 L673.723 235.916 L669.44 235.916 L669.44 199.897 L673.723 199.897 L673.723 214.018 Q675.251 211.68 677.311 210.522 Q679.394 209.365 682.102 209.365 Q686.57 209.365 688.862 212.143 Q691.153 214.897 691.153 220.268 Z" fill="#000000" fill-rule="nonzero" fill-opacity="1" /><path clip-path="url(#clip890)" d="M712.774 199.897 L712.774 203.439 L708.699 203.439 Q706.408 203.439 705.505 204.365 Q704.625 205.291 704.625 207.698 L704.625 209.99 L711.639 209.99 L711.639 213.3 L704.625 213.3 L704.625 235.916 L700.343 235.916 L700.343 213.3 L696.269 213.3 L696.269 209.99 L700.343 209.99 L700.343 208.184 Q700.343 203.856 702.357 201.888 Q704.371 199.897 708.746 199.897 L712.774 199.897 Z" fill="#000000" fill-rule="nonzero" fill-opacity="1" /><path clip-path="url(#clip890)" d="M716.338 209.99 L720.598 209.99 L720.598 235.916 L716.338 235.916 L716.338 209.99 M716.338 199.897 L720.598 199.897 L720.598 205.291 L716.338 205.291 L716.338 199.897 Z" fill="#000000" fill-rule="nonzero" fill-opacity="1" /><path clip-path="url(#clip890)" d="M744.533 213.971 Q743.815 213.555 742.959 213.37 Q742.125 213.161 741.107 213.161 Q737.496 213.161 735.551 215.522 Q733.63 217.86 733.63 222.258 L733.63 235.916 L729.348 235.916 L729.348 209.99 L733.63 209.99 L733.63 214.018 Q734.972 211.657 737.125 210.522 Q739.278 209.365 742.357 209.365 Q742.797 209.365 743.329 209.434 Q743.861 209.481 744.509 209.596 L744.533 213.971 Z" fill="#000000" fill-rule="nonzero" fill-opacity="1" /><path clip-path="url(#clip890)" d="M765.528 210.754 L765.528 214.782 Q763.722 213.856 761.778 213.393 Q759.833 212.93 757.75 212.93 Q754.579 212.93 752.982 213.902 Q751.408 214.874 751.408 216.819 Q751.408 218.3 752.542 219.157 Q753.676 219.99 757.102 220.754 L758.56 221.078 Q763.097 222.05 764.995 223.832 Q766.917 225.592 766.917 228.763 Q766.917 232.374 764.046 234.481 Q761.199 236.587 756.199 236.587 Q754.116 236.587 751.847 236.17 Q749.602 235.777 747.102 234.967 L747.102 230.569 Q749.463 231.795 751.755 232.42 Q754.046 233.022 756.292 233.022 Q759.301 233.022 760.921 232.004 Q762.542 230.962 762.542 229.087 Q762.542 227.351 761.361 226.425 Q760.204 225.499 756.246 224.643 L754.764 224.295 Q750.806 223.462 749.046 221.749 Q747.287 220.013 747.287 217.004 Q747.287 213.346 749.88 211.356 Q752.472 209.365 757.241 209.365 Q759.602 209.365 761.685 209.712 Q763.769 210.059 765.528 210.754 Z" fill="#000000" fill-rule="nonzero" fill-opacity="1" /><path clip-path="url(#clip890)" d="M777.912 202.629 L777.912 209.99 L786.685 209.99 L786.685 213.3 L777.912 213.3 L777.912 227.374 Q777.912 230.545 778.769 231.448 Q779.648 232.351 782.31 232.351 L786.685 232.351 L786.685 235.916 L782.31 235.916 Q777.38 235.916 775.505 234.087 Q773.63 232.235 773.63 227.374 L773.63 213.3 L770.505 213.3 L770.505 209.99 L773.63 209.99 L773.63 202.629 L777.912 202.629 Z" fill="#000000" fill-rule="nonzero" fill-opacity="1" /><path clip-path="url(#clip890)" d="M794.972 230.036 L799.671 230.036 L799.671 235.916 L794.972 235.916 L794.972 230.036 M794.972 201.356 L799.671 201.356 L799.671 216.518 L799.208 224.782 L795.458 224.782 L794.972 216.518 L794.972 201.356 Z" fill="#000000" fill-rule="nonzero" fill-opacity="1" /><polyline clip-path="url(#clip890)" style="stroke:#e26f46; stroke-linecap:round; stroke-linejoin:round; stroke-width:4; stroke-opacity:1; fill:none" points="427.931,270.476 562.221,270.476 "/>
<path clip-path="url(#clip890)" d="M588.885 283.867 L588.885 297.617 L584.603 297.617 L584.603 261.83 L588.885 261.83 L588.885 265.765 Q590.228 263.45 592.265 262.339 Q594.325 261.205 597.172 261.205 Q601.894 261.205 604.834 264.955 Q607.797 268.705 607.797 274.816 Q607.797 280.927 604.834 284.677 Q601.894 288.427 597.172 288.427 Q594.325 288.427 592.265 287.316 Q590.228 286.182 588.885 283.867 M603.376 274.816 Q603.376 270.117 601.432 267.455 Q599.51 264.77 596.131 264.77 Q592.751 264.77 590.807 267.455 Q588.885 270.117 588.885 274.816 Q588.885 279.515 590.807 282.2 Q592.751 284.862 596.131 284.862 Q599.51 284.862 601.432 282.2 Q603.376 279.515 603.376 274.816 Z" fill="#000000" fill-rule="nonzero" fill-opacity="1" /><path clip-path="url(#clip890)" d="M614.418 277.524 L614.418 261.83 L618.677 261.83 L618.677 277.362 Q618.677 281.043 620.112 282.895 Q621.547 284.723 624.418 284.723 Q627.867 284.723 629.857 282.524 Q631.871 280.325 631.871 276.529 L631.871 261.83 L636.13 261.83 L636.13 287.756 L631.871 287.756 L631.871 283.774 Q630.32 286.135 628.26 287.293 Q626.223 288.427 623.515 288.427 Q619.047 288.427 616.732 285.649 Q614.418 282.871 614.418 277.524 M625.135 261.205 L625.135 261.205 Z" fill="#000000" fill-rule="nonzero" fill-opacity="1" /><path clip-path="url(#clip890)" d="M661.431 262.594 L661.431 266.622 Q659.626 265.696 657.681 265.233 Q655.737 264.77 653.653 264.77 Q650.482 264.77 648.885 265.742 Q647.311 266.714 647.311 268.659 Q647.311 270.14 648.445 270.997 Q649.579 271.83 653.005 272.594 L654.464 272.918 Q659.001 273.89 660.899 275.672 Q662.82 277.432 662.82 280.603 Q662.82 284.214 659.95 286.321 Q657.103 288.427 652.103 288.427 Q650.019 288.427 647.751 288.01 Q645.505 287.617 643.005 286.807 L643.005 282.409 Q645.366 283.635 647.658 284.26 Q649.95 284.862 652.195 284.862 Q655.204 284.862 656.825 283.844 Q658.445 282.802 658.445 280.927 Q658.445 279.191 657.265 278.265 Q656.107 277.339 652.149 276.483 L650.667 276.135 Q646.709 275.302 644.95 273.589 Q643.191 271.853 643.191 268.844 Q643.191 265.186 645.783 263.196 Q648.376 261.205 653.144 261.205 Q655.505 261.205 657.589 261.552 Q659.672 261.899 661.431 262.594 Z" fill="#000000" fill-rule="nonzero" fill-opacity="1" /><path clip-path="url(#clip890)" d="M691.153 272.108 L691.153 287.756 L686.894 287.756 L686.894 272.247 Q686.894 268.566 685.459 266.737 Q684.024 264.909 681.153 264.909 Q677.704 264.909 675.714 267.108 Q673.723 269.307 673.723 273.103 L673.723 287.756 L669.44 287.756 L669.44 251.737 L673.723 251.737 L673.723 265.858 Q675.251 263.52 677.311 262.362 Q679.394 261.205 682.102 261.205 Q686.57 261.205 688.862 263.983 Q691.153 266.737 691.153 272.108 Z" fill="#000000" fill-rule="nonzero" fill-opacity="1" /><path clip-path="url(#clip890)" d="M702.334 281.876 L707.033 281.876 L707.033 287.756 L702.334 287.756 L702.334 281.876 M702.334 253.196 L707.033 253.196 L707.033 268.358 L706.57 276.622 L702.82 276.622 L702.334 268.358 L702.334 253.196 Z" fill="#000000" fill-rule="nonzero" fill-opacity="1" /><polyline clip-path="url(#clip890)" style="stroke:#3da44d; stroke-linecap:round; stroke-linejoin:round; stroke-width:4; stroke-opacity:1; fill:none" points="427.931,322.316 562.221,322.316 "/>
<path clip-path="url(#clip890)" d="M588.885 335.707 L588.885 349.457 L584.603 349.457 L584.603 313.67 L588.885 313.67 L588.885 317.605 Q590.228 315.29 592.265 314.179 Q594.325 313.045 597.172 313.045 Q601.894 313.045 604.834 316.795 Q607.797 320.545 607.797 326.656 Q607.797 332.767 604.834 336.517 Q601.894 340.267 597.172 340.267 Q594.325 340.267 592.265 339.156 Q590.228 338.022 588.885 335.707 M603.376 326.656 Q603.376 321.957 601.432 319.295 Q599.51 316.61 596.131 316.61 Q592.751 316.61 590.807 319.295 Q588.885 321.957 588.885 326.656 Q588.885 331.355 590.807 334.04 Q592.751 336.702 596.131 336.702 Q599.51 336.702 601.432 334.04 Q603.376 331.355 603.376 326.656 Z" fill="#000000" fill-rule="nonzero" fill-opacity="1" /><path clip-path="url(#clip890)" d="M614.418 329.364 L614.418 313.67 L618.677 313.67 L618.677 329.202 Q618.677 332.883 620.112 334.735 Q621.547 336.563 624.418 336.563 Q627.867 336.563 629.857 334.364 Q631.871 332.165 631.871 328.369 L631.871 313.67 L636.13 313.67 L636.13 339.596 L631.871 339.596 L631.871 335.614 Q630.32 337.975 628.26 339.133 Q626.223 340.267 623.515 340.267 Q619.047 340.267 616.732 337.489 Q614.418 334.711 614.418 329.364 M625.135 313.045 L625.135 313.045 Z" fill="#000000" fill-rule="nonzero" fill-opacity="1" /><path clip-path="url(#clip890)" d="M661.431 314.434 L661.431 318.462 Q659.626 317.536 657.681 317.073 Q655.737 316.61 653.653 316.61 Q650.482 316.61 648.885 317.582 Q647.311 318.554 647.311 320.499 Q647.311 321.98 648.445 322.837 Q649.579 323.67 653.005 324.434 L654.464 324.758 Q659.001 325.73 660.899 327.512 Q662.82 329.272 662.82 332.443 Q662.82 336.054 659.95 338.161 Q657.103 340.267 652.103 340.267 Q650.019 340.267 647.751 339.85 Q645.505 339.457 643.005 338.647 L643.005 334.249 Q645.366 335.475 647.658 336.1 Q649.95 336.702 652.195 336.702 Q655.204 336.702 656.825 335.684 Q658.445 334.642 658.445 332.767 Q658.445 331.031 657.265 330.105 Q656.107 329.179 652.149 328.323 L650.667 327.975 Q646.709 327.142 644.95 325.429 Q643.191 323.693 643.191 320.684 Q643.191 317.026 645.783 315.036 Q648.376 313.045 653.144 313.045 Q655.505 313.045 657.589 313.392 Q659.672 313.739 661.431 314.434 Z" fill="#000000" fill-rule="nonzero" fill-opacity="1" /><path clip-path="url(#clip890)" d="M691.153 323.948 L691.153 339.596 L686.894 339.596 L686.894 324.087 Q686.894 320.406 685.459 318.577 Q684.024 316.749 681.153 316.749 Q677.704 316.749 675.714 318.948 Q673.723 321.147 673.723 324.943 L673.723 339.596 L669.44 339.596 L669.44 303.577 L673.723 303.577 L673.723 317.698 Q675.251 315.36 677.311 314.202 Q679.394 313.045 682.102 313.045 Q686.57 313.045 688.862 315.823 Q691.153 318.577 691.153 323.948 Z" fill="#000000" fill-rule="nonzero" fill-opacity="1" /><path clip-path="url(#clip890)" d="M711.431 326.563 Q706.269 326.563 704.278 327.744 Q702.287 328.924 702.287 331.772 Q702.287 334.04 703.769 335.383 Q705.274 336.702 707.843 336.702 Q711.385 336.702 713.514 334.202 Q715.667 331.679 715.667 327.512 L715.667 326.563 L711.431 326.563 M719.926 324.804 L719.926 339.596 L715.667 339.596 L715.667 335.661 Q714.209 338.022 712.033 339.156 Q709.857 340.267 706.709 340.267 Q702.727 340.267 700.366 338.045 Q698.028 335.799 698.028 332.049 Q698.028 327.674 700.945 325.452 Q703.885 323.23 709.695 323.23 L715.667 323.23 L715.667 322.813 Q715.667 319.874 713.723 318.276 Q711.801 316.656 708.306 316.656 Q706.084 316.656 703.977 317.188 Q701.871 317.721 699.926 318.786 L699.926 314.85 Q702.264 313.948 704.463 313.508 Q706.662 313.045 708.746 313.045 Q714.371 313.045 717.149 315.962 Q719.926 318.878 719.926 324.804 Z" fill="#000000" fill-rule="nonzero" fill-opacity="1" /><path clip-path="url(#clip890)" d="M732.912 306.309 L732.912 313.67 L741.685 313.67 L741.685 316.98 L732.912 316.98 L732.912 331.054 Q732.912 334.225 733.769 335.128 Q734.648 336.031 737.31 336.031 L741.685 336.031 L741.685 339.596 L737.31 339.596 Q732.38 339.596 730.505 337.767 Q728.63 335.915 728.63 331.054 L728.63 316.98 L725.505 316.98 L725.505 313.67 L728.63 313.67 L728.63 306.309 L732.912 306.309 Z" fill="#000000" fill-rule="nonzero" fill-opacity="1" /><path clip-path="url(#clip890)" d="M749.972 333.716 L754.671 333.716 L754.671 339.596 L749.972 339.596 L749.972 333.716 M749.972 305.036 L754.671 305.036 L754.671 320.198 L754.208 328.462 L750.459 328.462 L749.972 320.198 L749.972 305.036 Z" fill="#000000" fill-rule="nonzero" fill-opacity="1" /></svg>
