<?xml version="1.0" encoding="utf-8"?>
<svg xmlns="http://www.w3.org/2000/svg" xmlns:xlink="http://www.w3.org/1999/xlink" width="600" height="400" viewBox="0 0 2400 1600">
<defs>
  <clipPath id="clip540">
    <rect x="0" y="0" width="2400" height="1600"/>
  </clipPath>
</defs>
<path clip-path="url(#clip540)" d="M0 1600 L2400 1600 L2400 0 L0 0  Z" fill="#ffffff" fill-rule="evenodd" fill-opacity="1"/>
<defs>
  <clipPath id="clip541">
    <rect x="480" y="0" width="1681" height="1600"/>
  </clipPath>
</defs>
<path clip-path="url(#clip540)" d="M279.357 1423.18 L2352.76 1423.18 L2352.76 123.472 L279.357 123.472  Z" fill="#ffffff" fill-rule="evenodd" fill-opacity="1"/>
<defs>
  <clipPath id="clip542">
    <rect x="279" y="123" width="2074" height="1301"/>
  </clipPath>
</defs>
<polyline clip-path="url(#clip542)" style="stroke:#000000; stroke-linecap:round; stroke-linejoin:round; stroke-width:2; stroke-opacity:0.1; fill:none" points="337.059,1423.18 337.059,123.472 "/>
<polyline clip-path="url(#clip542)" style="stroke:#000000; stroke-linecap:round; stroke-linejoin:round; stroke-width:2; stroke-opacity:0.1; fill:none" points="826.313,1423.18 826.313,123.472 "/>
<polyline clip-path="url(#clip542)" style="stroke:#000000; stroke-linecap:round; stroke-linejoin:round; stroke-width:2; stroke-opacity:0.1; fill:none" points="1315.57,1423.18 1315.57,123.472 "/>
<polyline clip-path="url(#clip542)" style="stroke:#000000; stroke-linecap:round; stroke-linejoin:round; stroke-width:2; stroke-opacity:0.1; fill:none" points="1804.82,1423.18 1804.82,123.472 "/>
<polyline clip-path="url(#clip542)" style="stroke:#000000; stroke-linecap:round; stroke-linejoin:round; stroke-width:2; stroke-opacity:0.1; fill:none" points="2294.07,1423.18 2294.07,123.472 "/>
<polyline clip-path="url(#clip540)" style="stroke:#000000; stroke-linecap:round; stroke-linejoin:round; stroke-width:4; stroke-opacity:1; fill:none" points="279.357,1423.18 2352.76,1423.18 "/>
<polyline clip-path="url(#clip540)" style="stroke:#000000; stroke-linecap:round; stroke-linejoin:round; stroke-width:4; stroke-opacity:1; fill:none" points="337.059,1423.18 337.059,1404.28 "/>
<polyline clip-path="url(#clip540)" style="stroke:#000000; stroke-linecap:round; stroke-linejoin:round; stroke-width:4; stroke-opacity:1; fill:none" points="826.313,1423.18 826.313,1404.28 "/>
<polyline clip-path="url(#clip540)" style="stroke:#000000; stroke-linecap:round; stroke-linejoin:round; stroke-width:4; stroke-opacity:1; fill:none" points="1315.57,1423.18 1315.57,1404.28 "/>
<polyline clip-path="url(#clip540)" style="stroke:#000000; stroke-linecap:round; stroke-linejoin:round; stroke-width:4; stroke-opacity:1; fill:none" points="1804.82,1423.18 1804.82,1404.28 "/>
<polyline clip-path="url(#clip540)" style="stroke:#000000; stroke-linecap:round; stroke-linejoin:round; stroke-width:4; stroke-opacity:1; fill:none" points="2294.07,1423.18 2294.07,1404.28 "/>
<path clip-path="url(#clip540)" d="M337.059 1454.1 Q333.448 1454.1 331.62 1457.66 Q329.814 1461.2 329.814 1468.33 Q329.814 1475.44 331.62 1479.01 Q333.448 1482.55 337.059 1482.55 Q340.694 1482.55 342.499 1479.01 Q344.328 1475.44 344.328 1468.33 Q344.328 1461.2 342.499 1457.66 Q340.694 1454.1 337.059 1454.1 M337.059 1450.39 Q342.869 1450.39 345.925 1455 Q349.004 1459.58 349.004 1468.33 Q349.004 1477.06 345.925 1481.67 Q342.869 1486.25 337.059 1486.25 Q331.249 1486.25 328.17 1481.67 Q325.115 1477.06 325.115 1468.33 Q325.115 1459.58 328.17 1455 Q331.249 1450.39 337.059 1450.39 Z" fill="#000000" fill-rule="nonzero" fill-opacity="1" /><path clip-path="url(#clip540)" d="M785.931 1451.02 L804.288 1451.02 L804.288 1454.96 L790.214 1454.96 L790.214 1463.43 Q791.232 1463.08 792.251 1462.92 Q793.269 1462.73 794.288 1462.73 Q800.075 1462.73 803.454 1465.9 Q806.834 1469.08 806.834 1474.49 Q806.834 1480.07 803.362 1483.17 Q799.89 1486.25 793.57 1486.25 Q791.394 1486.25 789.126 1485.88 Q786.881 1485.51 784.473 1484.77 L784.473 1480.07 Q786.556 1481.2 788.779 1481.76 Q791.001 1482.32 793.478 1482.32 Q797.482 1482.32 799.82 1480.21 Q802.158 1478.1 802.158 1474.49 Q802.158 1470.88 799.82 1468.77 Q797.482 1466.67 793.478 1466.67 Q791.603 1466.67 789.728 1467.08 Q787.876 1467.5 785.931 1468.38 L785.931 1451.02 Z" fill="#000000" fill-rule="nonzero" fill-opacity="1" /><path clip-path="url(#clip540)" d="M826.047 1454.1 Q822.436 1454.1 820.607 1457.66 Q818.802 1461.2 818.802 1468.33 Q818.802 1475.44 820.607 1479.01 Q822.436 1482.55 826.047 1482.55 Q829.681 1482.55 831.487 1479.01 Q833.315 1475.44 833.315 1468.33 Q833.315 1461.2 831.487 1457.66 Q829.681 1454.1 826.047 1454.1 M826.047 1450.39 Q831.857 1450.39 834.913 1455 Q837.991 1459.58 837.991 1468.33 Q837.991 1477.06 834.913 1481.67 Q831.857 1486.25 826.047 1486.25 Q820.237 1486.25 817.158 1481.67 Q814.103 1477.06 814.103 1468.33 Q814.103 1459.58 817.158 1455 Q820.237 1450.39 826.047 1450.39 Z" fill="#000000" fill-rule="nonzero" fill-opacity="1" /><path clip-path="url(#clip540)" d="M856.209 1454.1 Q852.598 1454.1 850.769 1457.66 Q848.964 1461.2 848.964 1468.33 Q848.964 1475.44 850.769 1479.01 Q852.598 1482.55 856.209 1482.55 Q859.843 1482.55 861.649 1479.01 Q863.477 1475.44 863.477 1468.33 Q863.477 1461.2 861.649 1457.66 Q859.843 1454.1 856.209 1454.1 M856.209 1450.39 Q862.019 1450.39 865.075 1455 Q868.153 1459.58 868.153 1468.33 Q868.153 1477.06 865.075 1481.67 Q862.019 1486.25 856.209 1486.25 Q850.399 1486.25 847.32 1481.67 Q844.264 1477.06 844.264 1468.33 Q844.264 1459.58 847.32 1455 Q850.399 1450.39 856.209 1450.39 Z" fill="#000000" fill-rule="nonzero" fill-opacity="1" /><path clip-path="url(#clip540)" d="M1260.09 1481.64 L1267.73 1481.64 L1267.73 1455.28 L1259.42 1456.95 L1259.42 1452.69 L1267.69 1451.02 L1272.36 1451.02 L1272.36 1481.64 L1280 1481.64 L1280 1485.58 L1260.09 1485.58 L1260.09 1481.64 Z" fill="#000000" fill-rule="nonzero" fill-opacity="1" /><path clip-path="url(#clip540)" d="M1299.44 1454.1 Q1295.83 1454.1 1294 1457.66 Q1292.2 1461.2 1292.2 1468.33 Q1292.2 1475.44 1294 1479.01 Q1295.83 1482.55 1299.44 1482.55 Q1303.08 1482.55 1304.88 1479.01 Q1306.71 1475.44 1306.71 1468.33 Q1306.71 1461.2 1304.88 1457.66 Q1303.08 1454.1 1299.44 1454.1 M1299.44 1450.39 Q1305.25 1450.39 1308.31 1455 Q1311.39 1459.58 1311.39 1468.33 Q1311.39 1477.06 1308.31 1481.67 Q1305.25 1486.25 1299.44 1486.25 Q1293.63 1486.25 1290.56 1481.67 Q1287.5 1477.06 1287.5 1468.33 Q1287.5 1459.58 1290.56 1455 Q1293.63 1450.39 1299.44 1450.39 Z" fill="#000000" fill-rule="nonzero" fill-opacity="1" /><path clip-path="url(#clip540)" d="M1329.61 1454.1 Q1326 1454.1 1324.17 1457.66 Q1322.36 1461.2 1322.36 1468.33 Q1322.36 1475.44 1324.17 1479.01 Q1326 1482.55 1329.61 1482.55 Q1333.24 1482.55 1335.05 1479.01 Q1336.87 1475.44 1336.87 1468.33 Q1336.87 1461.2 1335.05 1457.66 Q1333.24 1454.1 1329.61 1454.1 M1329.61 1450.39 Q1335.42 1450.39 1338.47 1455 Q1341.55 1459.58 1341.55 1468.33 Q1341.55 1477.06 1338.47 1481.67 Q1335.42 1486.25 1329.61 1486.25 Q1323.8 1486.25 1320.72 1481.67 Q1317.66 1477.06 1317.66 1468.33 Q1317.66 1459.58 1320.72 1455 Q1323.8 1450.39 1329.61 1450.39 Z" fill="#000000" fill-rule="nonzero" fill-opacity="1" /><path clip-path="url(#clip540)" d="M1359.77 1454.1 Q1356.16 1454.1 1354.33 1457.66 Q1352.52 1461.2 1352.52 1468.33 Q1352.52 1475.44 1354.33 1479.01 Q1356.16 1482.55 1359.77 1482.55 Q1363.4 1482.55 1365.21 1479.01 Q1367.04 1475.44 1367.04 1468.33 Q1367.04 1461.2 1365.21 1457.66 Q1363.4 1454.1 1359.77 1454.1 M1359.77 1450.39 Q1365.58 1450.39 1368.63 1455 Q1371.71 1459.58 1371.71 1468.33 Q1371.71 1477.06 1368.63 1481.67 Q1365.58 1486.25 1359.77 1486.25 Q1353.96 1486.25 1350.88 1481.67 Q1347.82 1477.06 1347.82 1468.33 Q1347.82 1459.58 1350.88 1455 Q1353.96 1450.39 1359.77 1450.39 Z" fill="#000000" fill-rule="nonzero" fill-opacity="1" /><path clip-path="url(#clip540)" d="M1749.35 1481.64 L1756.99 1481.64 L1756.99 1455.28 L1748.68 1456.95 L1748.68 1452.69 L1756.94 1451.02 L1761.62 1451.02 L1761.62 1481.64 L1769.25 1481.64 L1769.25 1485.58 L1749.35 1485.58 L1749.35 1481.64 Z" fill="#000000" fill-rule="nonzero" fill-opacity="1" /><path clip-path="url(#clip540)" d="M1778.74 1451.02 L1797.1 1451.02 L1797.1 1454.96 L1783.03 1454.96 L1783.03 1463.43 Q1784.05 1463.08 1785.06 1462.92 Q1786.08 1462.73 1787.1 1462.73 Q1792.89 1462.73 1796.27 1465.9 Q1799.65 1469.08 1799.65 1474.49 Q1799.65 1480.07 1796.18 1483.17 Q1792.7 1486.25 1786.38 1486.25 Q1784.21 1486.25 1781.94 1485.88 Q1779.69 1485.51 1777.29 1484.77 L1777.29 1480.07 Q1779.37 1481.2 1781.59 1481.76 Q1783.81 1482.32 1786.29 1482.32 Q1790.3 1482.32 1792.63 1480.21 Q1794.97 1478.1 1794.97 1474.49 Q1794.97 1470.88 1792.63 1468.77 Q1790.3 1466.67 1786.29 1466.67 Q1784.42 1466.67 1782.54 1467.08 Q1780.69 1467.5 1778.74 1468.38 L1778.74 1451.02 Z" fill="#000000" fill-rule="nonzero" fill-opacity="1" /><path clip-path="url(#clip540)" d="M1818.86 1454.1 Q1815.25 1454.1 1813.42 1457.66 Q1811.61 1461.2 1811.61 1468.33 Q1811.61 1475.44 1813.42 1479.01 Q1815.25 1482.55 1818.86 1482.55 Q1822.49 1482.55 1824.3 1479.01 Q1826.13 1475.44 1826.13 1468.33 Q1826.13 1461.2 1824.3 1457.66 Q1822.49 1454.1 1818.86 1454.1 M1818.86 1450.39 Q1824.67 1450.39 1827.73 1455 Q1830.8 1459.58 1830.8 1468.33 Q1830.8 1477.06 1827.73 1481.67 Q1824.67 1486.25 1818.86 1486.25 Q1813.05 1486.25 1809.97 1481.67 Q1806.92 1477.06 1806.92 1468.33 Q1806.92 1459.58 1809.97 1455 Q1813.05 1450.39 1818.86 1450.39 Z" fill="#000000" fill-rule="nonzero" fill-opacity="1" /><path clip-path="url(#clip540)" d="M1849.02 1454.1 Q1845.41 1454.1 1843.58 1457.66 Q1841.78 1461.2 1841.78 1468.33 Q1841.78 1475.44 1843.58 1479.01 Q1845.41 1482.55 1849.02 1482.55 Q1852.66 1482.55 1854.46 1479.01 Q1856.29 1475.44 1856.29 1468.33 Q1856.29 1461.2 1854.46 1457.66 Q1852.66 1454.1 1849.02 1454.1 M1849.02 1450.39 Q1854.83 1450.39 1857.89 1455 Q1860.97 1459.58 1860.97 1468.33 Q1860.97 1477.06 1857.89 1481.67 Q1854.83 1486.25 1849.02 1486.25 Q1843.21 1486.25 1840.13 1481.67 Q1837.08 1477.06 1837.08 1468.33 Q1837.08 1459.58 1840.13 1455 Q1843.21 1450.39 1849.02 1450.39 Z" fill="#000000" fill-rule="nonzero" fill-opacity="1" /><path clip-path="url(#clip540)" d="M2242.69 1481.64 L2259.01 1481.64 L2259.01 1485.58 L2237.06 1485.58 L2237.06 1481.64 Q2239.72 1478.89 2244.31 1474.26 Q2248.91 1469.61 2250.09 1468.27 Q2252.34 1465.74 2253.22 1464.01 Q2254.12 1462.25 2254.12 1460.56 Q2254.12 1457.8 2252.18 1456.07 Q2250.26 1454.33 2247.15 1454.33 Q2244.95 1454.33 2242.5 1455.09 Q2240.07 1455.86 2237.29 1457.41 L2237.29 1452.69 Q2240.12 1451.55 2242.57 1450.97 Q2245.02 1450.39 2247.06 1450.39 Q2252.43 1450.39 2255.63 1453.08 Q2258.82 1455.77 2258.82 1460.26 Q2258.82 1462.39 2258.01 1464.31 Q2257.22 1466.2 2255.12 1468.8 Q2254.54 1469.47 2251.44 1472.69 Q2248.33 1475.88 2242.69 1481.64 Z" fill="#000000" fill-rule="nonzero" fill-opacity="1" /><path clip-path="url(#clip540)" d="M2278.82 1454.1 Q2275.21 1454.1 2273.38 1457.66 Q2271.57 1461.2 2271.57 1468.33 Q2271.57 1475.44 2273.38 1479.01 Q2275.21 1482.55 2278.82 1482.55 Q2282.45 1482.55 2284.26 1479.01 Q2286.09 1475.44 2286.09 1468.33 Q2286.09 1461.2 2284.26 1457.66 Q2282.45 1454.1 2278.82 1454.1 M2278.82 1450.39 Q2284.63 1450.39 2287.69 1455 Q2290.76 1459.58 2290.76 1468.33 Q2290.76 1477.06 2287.69 1481.67 Q2284.63 1486.25 2278.82 1486.25 Q2273.01 1486.25 2269.93 1481.67 Q2266.88 1477.06 2266.88 1468.33 Q2266.88 1459.58 2269.93 1455 Q2273.01 1450.39 2278.82 1450.39 Z" fill="#000000" fill-rule="nonzero" fill-opacity="1" /><path clip-path="url(#clip540)" d="M2308.98 1454.1 Q2305.37 1454.1 2303.54 1457.66 Q2301.74 1461.2 2301.74 1468.33 Q2301.74 1475.44 2303.54 1479.01 Q2305.37 1482.55 2308.98 1482.55 Q2312.62 1482.55 2314.42 1479.01 Q2316.25 1475.44 2316.25 1468.33 Q2316.25 1461.2 2314.42 1457.66 Q2312.62 1454.1 2308.98 1454.1 M2308.98 1450.39 Q2314.79 1450.39 2317.85 1455 Q2320.93 1459.58 2320.93 1468.33 Q2320.93 1477.06 2317.85 1481.67 Q2314.79 1486.25 2308.98 1486.25 Q2303.17 1486.25 2300.09 1481.67 Q2297.04 1477.06 2297.04 1468.33 Q2297.04 1459.58 2300.09 1455 Q2303.17 1450.39 2308.98 1450.39 Z" fill="#000000" fill-rule="nonzero" fill-opacity="1" /><path clip-path="url(#clip540)" d="M2339.14 1454.1 Q2335.53 1454.1 2333.7 1457.66 Q2331.9 1461.2 2331.9 1468.33 Q2331.9 1475.44 2333.7 1479.01 Q2335.53 1482.55 2339.14 1482.55 Q2342.78 1482.55 2344.58 1479.01 Q2346.41 1475.44 2346.41 1468.33 Q2346.41 1461.2 2344.58 1457.66 Q2342.78 1454.1 2339.14 1454.1 M2339.14 1450.39 Q2344.95 1450.39 2348.01 1455 Q2351.09 1459.58 2351.09 1468.33 Q2351.09 1477.06 2348.01 1481.67 Q2344.95 1486.25 2339.14 1486.25 Q2333.33 1486.25 2330.26 1481.67 Q2327.2 1477.06 2327.2 1468.33 Q2327.2 1459.58 2330.26 1455 Q2333.33 1450.39 2339.14 1450.39 Z" fill="#000000" fill-rule="nonzero" fill-opacity="1" /><path clip-path="url(#clip540)" d="M1298.07 1520.52 L1306.73 1520.52 L1327.8 1560.28 L1327.8 1520.52 L1334.04 1520.52 L1334.04 1568.04 L1325.38 1568.04 L1304.31 1528.29 L1304.31 1568.04 L1298.07 1568.04 L1298.07 1520.52 Z" fill="#000000" fill-rule="nonzero" fill-opacity="1" /><polyline clip-path="url(#clip542)" style="stroke:#000000; stroke-linecap:round; stroke-linejoin:round; stroke-width:2; stroke-opacity:0.1; fill:none" points="279.357,1259.58 2352.76,1259.58 "/>
<polyline clip-path="url(#clip542)" style="stroke:#000000; stroke-linecap:round; stroke-linejoin:round; stroke-width:2; stroke-opacity:0.1; fill:none" points="279.357,1060.53 2352.76,1060.53 "/>
<polyline clip-path="url(#clip542)" style="stroke:#000000; stroke-linecap:round; stroke-linejoin:round; stroke-width:2; stroke-opacity:0.1; fill:none" points="279.357,861.479 2352.76,861.479 "/>
<polyline clip-path="url(#clip542)" style="stroke:#000000; stroke-linecap:round; stroke-linejoin:round; stroke-width:2; stroke-opacity:0.1; fill:none" points="279.357,662.428 2352.76,662.428 "/>
<polyline clip-path="url(#clip542)" style="stroke:#000000; stroke-linecap:round; stroke-linejoin:round; stroke-width:2; stroke-opacity:0.1; fill:none" points="279.357,463.378 2352.76,463.378 "/>
<polyline clip-path="url(#clip542)" style="stroke:#000000; stroke-linecap:round; stroke-linejoin:round; stroke-width:2; stroke-opacity:0.1; fill:none" points="279.357,264.327 2352.76,264.327 "/>
<polyline clip-path="url(#clip540)" style="stroke:#000000; stroke-linecap:round; stroke-linejoin:round; stroke-width:4; stroke-opacity:1; fill:none" points="279.357,1423.18 279.357,123.472 "/>
<polyline clip-path="url(#clip540)" style="stroke:#000000; stroke-linecap:round; stroke-linejoin:round; stroke-width:4; stroke-opacity:1; fill:none" points="279.357,1259.58 298.254,1259.58 "/>
<polyline clip-path="url(#clip540)" style="stroke:#000000; stroke-linecap:round; stroke-linejoin:round; stroke-width:4; stroke-opacity:1; fill:none" points="279.357,1060.53 298.254,1060.53 "/>
<polyline clip-path="url(#clip540)" style="stroke:#000000; stroke-linecap:round; stroke-linejoin:round; stroke-width:4; stroke-opacity:1; fill:none" points="279.357,861.479 298.254,861.479 "/>
<polyline clip-path="url(#clip540)" style="stroke:#000000; stroke-linecap:round; stroke-linejoin:round; stroke-width:4; stroke-opacity:1; fill:none" points="279.357,662.428 298.254,662.428 "/>
<polyline clip-path="url(#clip540)" style="stroke:#000000; stroke-linecap:round; stroke-linejoin:round; stroke-width:4; stroke-opacity:1; fill:none" points="279.357,463.378 298.254,463.378 "/>
<polyline clip-path="url(#clip540)" style="stroke:#000000; stroke-linecap:round; stroke-linejoin:round; stroke-width:4; stroke-opacity:1; fill:none" points="279.357,264.327 298.254,264.327 "/>
<path clip-path="url(#clip540)" d="M120.88 1272.92 L137.2 1272.92 L137.2 1276.86 L115.256 1276.86 L115.256 1272.92 Q117.918 1270.17 122.501 1265.54 Q127.107 1260.89 128.288 1259.55 Q130.533 1257.02 131.413 1255.29 Q132.316 1253.53 132.316 1251.84 Q132.316 1249.08 130.371 1247.35 Q128.45 1245.61 125.348 1245.61 Q123.149 1245.61 120.695 1246.37 Q118.265 1247.14 115.487 1248.69 L115.487 1243.97 Q118.311 1242.83 120.765 1242.25 Q123.218 1241.67 125.255 1241.67 Q130.626 1241.67 133.82 1244.36 Q137.015 1247.05 137.015 1251.54 Q137.015 1253.67 136.204 1255.59 Q135.417 1257.48 133.311 1260.08 Q132.732 1260.75 129.63 1263.97 Q126.529 1267.16 120.88 1272.92 Z" fill="#000000" fill-rule="nonzero" fill-opacity="1" /><path clip-path="url(#clip540)" d="M145.834 1242.3 L168.056 1242.3 L168.056 1244.29 L155.51 1276.86 L150.626 1276.86 L162.431 1246.24 L145.834 1246.24 L145.834 1242.3 Z" fill="#000000" fill-rule="nonzero" fill-opacity="1" /><path clip-path="url(#clip540)" d="M177.176 1270.98 L182.061 1270.98 L182.061 1276.86 L177.176 1276.86 L177.176 1270.98 Z" fill="#000000" fill-rule="nonzero" fill-opacity="1" /><path clip-path="url(#clip540)" d="M191.065 1242.3 L213.287 1242.3 L213.287 1244.29 L200.741 1276.86 L195.857 1276.86 L207.662 1246.24 L191.065 1246.24 L191.065 1242.3 Z" fill="#000000" fill-rule="nonzero" fill-opacity="1" /><path clip-path="url(#clip540)" d="M222.454 1242.3 L240.81 1242.3 L240.81 1246.24 L226.736 1246.24 L226.736 1254.71 Q227.755 1254.36 228.773 1254.2 Q229.792 1254.01 230.81 1254.01 Q236.597 1254.01 239.977 1257.18 Q243.357 1260.36 243.357 1265.77 Q243.357 1271.35 239.884 1274.45 Q236.412 1277.53 230.093 1277.53 Q227.917 1277.53 225.648 1277.16 Q223.403 1276.79 220.996 1276.05 L220.996 1271.35 Q223.079 1272.48 225.301 1273.04 Q227.523 1273.6 230 1273.6 Q234.005 1273.6 236.343 1271.49 Q238.681 1269.38 238.681 1265.77 Q238.681 1262.16 236.343 1260.05 Q234.005 1257.95 230 1257.95 Q228.125 1257.95 226.25 1258.36 Q224.398 1258.78 222.454 1259.66 L222.454 1242.3 Z" fill="#000000" fill-rule="nonzero" fill-opacity="1" /><path clip-path="url(#clip540)" d="M119.885 1073.87 L136.204 1073.87 L136.204 1077.81 L114.26 1077.81 L114.26 1073.87 Q116.922 1071.12 121.505 1066.49 Q126.112 1061.84 127.292 1060.49 Q129.538 1057.97 130.417 1056.24 Q131.32 1054.48 131.32 1052.79 Q131.32 1050.03 129.376 1048.3 Q127.455 1046.56 124.353 1046.56 Q122.154 1046.56 119.7 1047.32 Q117.269 1048.09 114.492 1049.64 L114.492 1044.92 Q117.316 1043.78 119.769 1043.2 Q122.223 1042.62 124.26 1042.62 Q129.63 1042.62 132.825 1045.31 Q136.019 1047.99 136.019 1052.49 Q136.019 1054.62 135.209 1056.54 Q134.422 1058.43 132.316 1061.03 Q131.737 1061.7 128.635 1064.92 Q125.533 1068.11 119.885 1073.87 Z" fill="#000000" fill-rule="nonzero" fill-opacity="1" /><path clip-path="url(#clip540)" d="M156.019 1061.4 Q152.686 1061.4 150.765 1063.18 Q148.866 1064.96 148.866 1068.09 Q148.866 1071.21 150.765 1072.99 Q152.686 1074.78 156.019 1074.78 Q159.353 1074.78 161.274 1072.99 Q163.195 1071.19 163.195 1068.09 Q163.195 1064.96 161.274 1063.18 Q159.376 1061.4 156.019 1061.4 M151.343 1059.41 Q148.334 1058.67 146.644 1056.61 Q144.978 1054.55 144.978 1051.58 Q144.978 1047.44 147.917 1045.03 Q150.88 1042.62 156.019 1042.62 Q161.181 1042.62 164.121 1045.03 Q167.061 1047.44 167.061 1051.58 Q167.061 1054.55 165.371 1056.61 Q163.704 1058.67 160.718 1059.41 Q164.098 1060.19 165.973 1062.49 Q167.871 1064.78 167.871 1068.09 Q167.871 1073.11 164.792 1075.8 Q161.737 1078.48 156.019 1078.48 Q150.302 1078.48 147.223 1075.8 Q144.167 1073.11 144.167 1068.09 Q144.167 1064.78 146.066 1062.49 Q147.964 1060.19 151.343 1059.41 M149.63 1052.02 Q149.63 1054.71 151.297 1056.21 Q152.987 1057.72 156.019 1057.72 Q159.028 1057.72 160.718 1056.21 Q162.431 1054.71 162.431 1052.02 Q162.431 1049.34 160.718 1047.83 Q159.028 1046.33 156.019 1046.33 Q152.987 1046.33 151.297 1047.83 Q149.63 1049.34 149.63 1052.02 Z" fill="#000000" fill-rule="nonzero" fill-opacity="1" /><path clip-path="url(#clip540)" d="M176.181 1071.93 L181.065 1071.93 L181.065 1077.81 L176.181 1077.81 L176.181 1071.93 Z" fill="#000000" fill-rule="nonzero" fill-opacity="1" /><path clip-path="url(#clip540)" d="M201.25 1046.33 Q197.639 1046.33 195.811 1049.89 Q194.005 1053.43 194.005 1060.56 Q194.005 1067.67 195.811 1071.24 Q197.639 1074.78 201.25 1074.78 Q204.885 1074.78 206.69 1071.24 Q208.519 1067.67 208.519 1060.56 Q208.519 1053.43 206.69 1049.89 Q204.885 1046.33 201.25 1046.33 M201.25 1042.62 Q207.061 1042.62 210.116 1047.23 Q213.195 1051.81 213.195 1060.56 Q213.195 1069.29 210.116 1073.9 Q207.061 1078.48 201.25 1078.48 Q195.44 1078.48 192.362 1073.9 Q189.306 1069.29 189.306 1060.56 Q189.306 1051.81 192.362 1047.23 Q195.44 1042.62 201.25 1042.62 Z" fill="#000000" fill-rule="nonzero" fill-opacity="1" /><path clip-path="url(#clip540)" d="M231.412 1046.33 Q227.801 1046.33 225.973 1049.89 Q224.167 1053.43 224.167 1060.56 Q224.167 1067.67 225.973 1071.24 Q227.801 1074.78 231.412 1074.78 Q235.047 1074.78 236.852 1071.24 Q238.681 1067.67 238.681 1060.56 Q238.681 1053.43 236.852 1049.89 Q235.047 1046.33 231.412 1046.33 M231.412 1042.62 Q237.222 1042.62 240.278 1047.23 Q243.357 1051.81 243.357 1060.56 Q243.357 1069.29 240.278 1073.9 Q237.222 1078.48 231.412 1078.48 Q225.602 1078.48 222.523 1073.9 Q219.468 1069.29 219.468 1060.56 Q219.468 1051.81 222.523 1047.23 Q225.602 1042.62 231.412 1042.62 Z" fill="#000000" fill-rule="nonzero" fill-opacity="1" /><path clip-path="url(#clip540)" d="M120.88 874.824 L137.2 874.824 L137.2 878.759 L115.256 878.759 L115.256 874.824 Q117.918 872.069 122.501 867.439 Q127.107 862.787 128.288 861.444 Q130.533 858.921 131.413 857.185 Q132.316 855.426 132.316 853.736 Q132.316 850.981 130.371 849.245 Q128.45 847.509 125.348 847.509 Q123.149 847.509 120.695 848.273 Q118.265 849.037 115.487 850.588 L115.487 845.866 Q118.311 844.731 120.765 844.153 Q123.218 843.574 125.255 843.574 Q130.626 843.574 133.82 846.259 Q137.015 848.944 137.015 853.435 Q137.015 855.565 136.204 857.486 Q135.417 859.384 133.311 861.977 Q132.732 862.648 129.63 865.865 Q126.529 869.06 120.88 874.824 Z" fill="#000000" fill-rule="nonzero" fill-opacity="1" /><path clip-path="url(#clip540)" d="M157.015 862.347 Q153.681 862.347 151.76 864.129 Q149.862 865.912 149.862 869.037 Q149.862 872.162 151.76 873.944 Q153.681 875.726 157.015 875.726 Q160.348 875.726 162.269 873.944 Q164.19 872.139 164.19 869.037 Q164.19 865.912 162.269 864.129 Q160.371 862.347 157.015 862.347 M152.339 860.356 Q149.329 859.615 147.64 857.555 Q145.973 855.495 145.973 852.532 Q145.973 848.389 148.913 845.981 Q151.876 843.574 157.015 843.574 Q162.177 843.574 165.116 845.981 Q168.056 848.389 168.056 852.532 Q168.056 855.495 166.366 857.555 Q164.7 859.615 161.714 860.356 Q165.093 861.143 166.968 863.435 Q168.866 865.727 168.866 869.037 Q168.866 874.06 165.788 876.745 Q162.732 879.43 157.015 879.43 Q151.297 879.43 148.218 876.745 Q145.163 874.06 145.163 869.037 Q145.163 865.727 147.061 863.435 Q148.959 861.143 152.339 860.356 M150.626 852.972 Q150.626 855.657 152.292 857.162 Q153.982 858.666 157.015 858.666 Q160.024 858.666 161.714 857.162 Q163.427 855.657 163.427 852.972 Q163.427 850.287 161.714 848.782 Q160.024 847.278 157.015 847.278 Q153.982 847.278 152.292 848.782 Q150.626 850.287 150.626 852.972 Z" fill="#000000" fill-rule="nonzero" fill-opacity="1" /><path clip-path="url(#clip540)" d="M177.176 872.879 L182.061 872.879 L182.061 878.759 L177.176 878.759 L177.176 872.879 Z" fill="#000000" fill-rule="nonzero" fill-opacity="1" /><path clip-path="url(#clip540)" d="M196.274 874.824 L212.593 874.824 L212.593 878.759 L190.649 878.759 L190.649 874.824 Q193.311 872.069 197.894 867.439 Q202.5 862.787 203.681 861.444 Q205.926 858.921 206.806 857.185 Q207.709 855.426 207.709 853.736 Q207.709 850.981 205.764 849.245 Q203.843 847.509 200.741 847.509 Q198.542 847.509 196.088 848.273 Q193.658 849.037 190.88 850.588 L190.88 845.866 Q193.704 844.731 196.158 844.153 Q198.612 843.574 200.649 843.574 Q206.019 843.574 209.213 846.259 Q212.408 848.944 212.408 853.435 Q212.408 855.565 211.598 857.486 Q210.811 859.384 208.704 861.977 Q208.125 862.648 205.024 865.865 Q201.922 869.06 196.274 874.824 Z" fill="#000000" fill-rule="nonzero" fill-opacity="1" /><path clip-path="url(#clip540)" d="M222.454 844.199 L240.81 844.199 L240.81 848.134 L226.736 848.134 L226.736 856.606 Q227.755 856.259 228.773 856.097 Q229.792 855.912 230.81 855.912 Q236.597 855.912 239.977 859.083 Q243.357 862.254 243.357 867.671 Q243.357 873.25 239.884 876.351 Q236.412 879.43 230.093 879.43 Q227.917 879.43 225.648 879.06 Q223.403 878.689 220.996 877.949 L220.996 873.25 Q223.079 874.384 225.301 874.939 Q227.523 875.495 230 875.495 Q234.005 875.495 236.343 873.389 Q238.681 871.282 238.681 867.671 Q238.681 864.06 236.343 861.953 Q234.005 859.847 230 859.847 Q228.125 859.847 226.25 860.264 Q224.398 860.68 222.454 861.56 L222.454 844.199 Z" fill="#000000" fill-rule="nonzero" fill-opacity="1" /><path clip-path="url(#clip540)" d="M119.885 675.773 L136.204 675.773 L136.204 679.708 L114.26 679.708 L114.26 675.773 Q116.922 673.019 121.505 668.389 Q126.112 663.736 127.292 662.394 Q129.538 659.87 130.417 658.134 Q131.32 656.375 131.32 654.685 Q131.32 651.931 129.376 650.195 Q127.455 648.459 124.353 648.459 Q122.154 648.459 119.7 649.222 Q117.269 649.986 114.492 651.537 L114.492 646.815 Q117.316 645.681 119.769 645.102 Q122.223 644.523 124.26 644.523 Q129.63 644.523 132.825 647.209 Q136.019 649.894 136.019 654.384 Q136.019 656.514 135.209 658.435 Q134.422 660.333 132.316 662.926 Q131.737 663.597 128.635 666.815 Q125.533 670.009 119.885 675.773 Z" fill="#000000" fill-rule="nonzero" fill-opacity="1" /><path clip-path="url(#clip540)" d="M156.019 663.296 Q152.686 663.296 150.765 665.079 Q148.866 666.861 148.866 669.986 Q148.866 673.111 150.765 674.894 Q152.686 676.676 156.019 676.676 Q159.353 676.676 161.274 674.894 Q163.195 673.088 163.195 669.986 Q163.195 666.861 161.274 665.079 Q159.376 663.296 156.019 663.296 M151.343 661.306 Q148.334 660.565 146.644 658.505 Q144.978 656.445 144.978 653.482 Q144.978 649.338 147.917 646.931 Q150.88 644.523 156.019 644.523 Q161.181 644.523 164.121 646.931 Q167.061 649.338 167.061 653.482 Q167.061 656.445 165.371 658.505 Q163.704 660.565 160.718 661.306 Q164.098 662.093 165.973 664.384 Q167.871 666.676 167.871 669.986 Q167.871 675.009 164.792 677.694 Q161.737 680.38 156.019 680.38 Q150.302 680.38 147.223 677.694 Q144.167 675.009 144.167 669.986 Q144.167 666.676 146.066 664.384 Q147.964 662.093 151.343 661.306 M149.63 653.921 Q149.63 656.607 151.297 658.111 Q152.987 659.616 156.019 659.616 Q159.028 659.616 160.718 658.111 Q162.431 656.607 162.431 653.921 Q162.431 651.236 160.718 649.732 Q159.028 648.227 156.019 648.227 Q152.987 648.227 151.297 649.732 Q149.63 651.236 149.63 653.921 Z" fill="#000000" fill-rule="nonzero" fill-opacity="1" /><path clip-path="url(#clip540)" d="M176.181 673.829 L181.065 673.829 L181.065 679.708 L176.181 679.708 L176.181 673.829 Z" fill="#000000" fill-rule="nonzero" fill-opacity="1" /><path clip-path="url(#clip540)" d="M191.297 645.148 L209.653 645.148 L209.653 649.084 L195.579 649.084 L195.579 657.556 Q196.598 657.208 197.616 657.046 Q198.635 656.861 199.653 656.861 Q205.44 656.861 208.82 660.033 Q212.199 663.204 212.199 668.62 Q212.199 674.199 208.727 677.301 Q205.255 680.38 198.936 680.38 Q196.76 680.38 194.491 680.009 Q192.246 679.639 189.838 678.898 L189.838 674.199 Q191.922 675.333 194.144 675.889 Q196.366 676.444 198.843 676.444 Q202.848 676.444 205.186 674.338 Q207.524 672.232 207.524 668.62 Q207.524 665.009 205.186 662.903 Q202.848 660.796 198.843 660.796 Q196.968 660.796 195.093 661.213 Q193.241 661.63 191.297 662.509 L191.297 645.148 Z" fill="#000000" fill-rule="nonzero" fill-opacity="1" /><path clip-path="url(#clip540)" d="M231.412 648.227 Q227.801 648.227 225.973 651.792 Q224.167 655.333 224.167 662.463 Q224.167 669.57 225.973 673.134 Q227.801 676.676 231.412 676.676 Q235.047 676.676 236.852 673.134 Q238.681 669.57 238.681 662.463 Q238.681 655.333 236.852 651.792 Q235.047 648.227 231.412 648.227 M231.412 644.523 Q237.222 644.523 240.278 649.13 Q243.357 653.713 243.357 662.463 Q243.357 671.19 240.278 675.796 Q237.222 680.38 231.412 680.38 Q225.602 680.38 222.523 675.796 Q219.468 671.19 219.468 662.463 Q219.468 653.713 222.523 649.13 Q225.602 644.523 231.412 644.523 Z" fill="#000000" fill-rule="nonzero" fill-opacity="1" /><path clip-path="url(#clip540)" d="M120.88 476.723 L137.2 476.723 L137.2 480.658 L115.256 480.658 L115.256 476.723 Q117.918 473.968 122.501 469.338 Q127.107 464.686 128.288 463.343 Q130.533 460.82 131.413 459.084 Q132.316 457.325 132.316 455.635 Q132.316 452.88 130.371 451.144 Q128.45 449.408 125.348 449.408 Q123.149 449.408 120.695 450.172 Q118.265 450.936 115.487 452.487 L115.487 447.764 Q118.311 446.63 120.765 446.052 Q123.218 445.473 125.255 445.473 Q130.626 445.473 133.82 448.158 Q137.015 450.843 137.015 455.334 Q137.015 457.464 136.204 459.385 Q135.417 461.283 133.311 463.876 Q132.732 464.547 129.63 467.764 Q126.529 470.959 120.88 476.723 Z" fill="#000000" fill-rule="nonzero" fill-opacity="1" /><path clip-path="url(#clip540)" d="M157.015 464.246 Q153.681 464.246 151.76 466.028 Q149.862 467.811 149.862 470.936 Q149.862 474.061 151.76 475.843 Q153.681 477.625 157.015 477.625 Q160.348 477.625 162.269 475.843 Q164.19 474.037 164.19 470.936 Q164.19 467.811 162.269 466.028 Q160.371 464.246 157.015 464.246 M152.339 462.255 Q149.329 461.514 147.64 459.454 Q145.973 457.394 145.973 454.431 Q145.973 450.288 148.913 447.88 Q151.876 445.473 157.015 445.473 Q162.177 445.473 165.116 447.88 Q168.056 450.288 168.056 454.431 Q168.056 457.394 166.366 459.454 Q164.7 461.514 161.714 462.255 Q165.093 463.042 166.968 465.334 Q168.866 467.625 168.866 470.936 Q168.866 475.959 165.788 478.644 Q162.732 481.329 157.015 481.329 Q151.297 481.329 148.218 478.644 Q145.163 475.959 145.163 470.936 Q145.163 467.625 147.061 465.334 Q148.959 463.042 152.339 462.255 M150.626 454.871 Q150.626 457.556 152.292 459.061 Q153.982 460.565 157.015 460.565 Q160.024 460.565 161.714 459.061 Q163.427 457.556 163.427 454.871 Q163.427 452.186 161.714 450.681 Q160.024 449.177 157.015 449.177 Q153.982 449.177 152.292 450.681 Q150.626 452.186 150.626 454.871 Z" fill="#000000" fill-rule="nonzero" fill-opacity="1" /><path clip-path="url(#clip540)" d="M177.176 474.778 L182.061 474.778 L182.061 480.658 L177.176 480.658 L177.176 474.778 Z" fill="#000000" fill-rule="nonzero" fill-opacity="1" /><path clip-path="url(#clip540)" d="M191.065 446.098 L213.287 446.098 L213.287 448.089 L200.741 480.658 L195.857 480.658 L207.662 450.033 L191.065 450.033 L191.065 446.098 Z" fill="#000000" fill-rule="nonzero" fill-opacity="1" /><path clip-path="url(#clip540)" d="M222.454 446.098 L240.81 446.098 L240.81 450.033 L226.736 450.033 L226.736 458.505 Q227.755 458.158 228.773 457.996 Q229.792 457.811 230.81 457.811 Q236.597 457.811 239.977 460.982 Q243.357 464.153 243.357 469.57 Q243.357 475.149 239.884 478.25 Q236.412 481.329 230.093 481.329 Q227.917 481.329 225.648 480.959 Q223.403 480.588 220.996 479.848 L220.996 475.149 Q223.079 476.283 225.301 476.838 Q227.523 477.394 230 477.394 Q234.005 477.394 236.343 475.287 Q238.681 473.181 238.681 469.57 Q238.681 465.959 236.343 463.852 Q234.005 461.746 230 461.746 Q228.125 461.746 226.25 462.163 Q224.398 462.579 222.454 463.459 L222.454 446.098 Z" fill="#000000" fill-rule="nonzero" fill-opacity="1" /><path clip-path="url(#clip540)" d="M119.885 277.672 L136.204 277.672 L136.204 281.607 L114.26 281.607 L114.26 277.672 Q116.922 274.918 121.505 270.288 Q126.112 265.635 127.292 264.293 Q129.538 261.769 130.417 260.033 Q131.32 258.274 131.32 256.584 Q131.32 253.83 129.376 252.094 Q127.455 250.357 124.353 250.357 Q122.154 250.357 119.7 251.121 Q117.269 251.885 114.492 253.436 L114.492 248.714 Q117.316 247.58 119.769 247.001 Q122.223 246.422 124.26 246.422 Q129.63 246.422 132.825 249.107 Q136.019 251.793 136.019 256.283 Q136.019 258.413 135.209 260.334 Q134.422 262.232 132.316 264.825 Q131.737 265.496 128.635 268.714 Q125.533 271.908 119.885 277.672 Z" fill="#000000" fill-rule="nonzero" fill-opacity="1" /><path clip-path="url(#clip540)" d="M146.158 280.89 L146.158 276.63 Q147.917 277.464 149.723 277.904 Q151.528 278.343 153.265 278.343 Q157.894 278.343 160.325 275.242 Q162.778 272.117 163.126 265.774 Q161.783 267.765 159.723 268.83 Q157.663 269.894 155.163 269.894 Q149.978 269.894 146.945 266.769 Q143.936 263.621 143.936 258.182 Q143.936 252.857 147.084 249.64 Q150.232 246.422 155.464 246.422 Q161.459 246.422 164.607 251.029 Q167.778 255.612 167.778 264.362 Q167.778 272.533 163.89 277.418 Q160.024 282.279 153.473 282.279 Q151.714 282.279 149.908 281.931 Q148.103 281.584 146.158 280.89 M155.464 266.237 Q158.612 266.237 160.44 264.084 Q162.292 261.931 162.292 258.182 Q162.292 254.455 160.44 252.302 Q158.612 250.126 155.464 250.126 Q152.316 250.126 150.464 252.302 Q148.635 254.455 148.635 258.182 Q148.635 261.931 150.464 264.084 Q152.316 266.237 155.464 266.237 Z" fill="#000000" fill-rule="nonzero" fill-opacity="1" /><path clip-path="url(#clip540)" d="M176.181 275.728 L181.065 275.728 L181.065 281.607 L176.181 281.607 L176.181 275.728 Z" fill="#000000" fill-rule="nonzero" fill-opacity="1" /><path clip-path="url(#clip540)" d="M201.25 250.126 Q197.639 250.126 195.811 253.691 Q194.005 257.232 194.005 264.362 Q194.005 271.468 195.811 275.033 Q197.639 278.575 201.25 278.575 Q204.885 278.575 206.69 275.033 Q208.519 271.468 208.519 264.362 Q208.519 257.232 206.69 253.691 Q204.885 250.126 201.25 250.126 M201.25 246.422 Q207.061 246.422 210.116 251.029 Q213.195 255.612 213.195 264.362 Q213.195 273.089 210.116 277.695 Q207.061 282.279 201.25 282.279 Q195.44 282.279 192.362 277.695 Q189.306 273.089 189.306 264.362 Q189.306 255.612 192.362 251.029 Q195.44 246.422 201.25 246.422 Z" fill="#000000" fill-rule="nonzero" fill-opacity="1" /><path clip-path="url(#clip540)" d="M231.412 250.126 Q227.801 250.126 225.973 253.691 Q224.167 257.232 224.167 264.362 Q224.167 271.468 225.973 275.033 Q227.801 278.575 231.412 278.575 Q235.047 278.575 236.852 275.033 Q238.681 271.468 238.681 264.362 Q238.681 257.232 236.852 253.691 Q235.047 250.126 231.412 250.126 M231.412 246.422 Q237.222 246.422 240.278 251.029 Q243.357 255.612 243.357 264.362 Q243.357 273.089 240.278 277.695 Q237.222 282.279 231.412 282.279 Q225.602 282.279 222.523 277.695 Q219.468 273.089 219.468 264.362 Q219.468 255.612 222.523 251.029 Q225.602 246.422 231.412 246.422 Z" fill="#000000" fill-rule="nonzero" fill-opacity="1" /><path clip-path="url(#clip540)" d="M16.4842 923.811 L16.4842 883.612 L21.895 883.612 L21.895 900.481 L64.0042 900.481 L64.0042 906.942 L21.895 906.942 L21.895 923.811 L16.4842 923.811 Z" fill="#000000" fill-rule="nonzero" fill-opacity="1" /><path clip-path="url(#clip540)" d="M28.3562 879.665 L28.3562 873.809 L64.0042 873.809 L64.0042 879.665 L28.3562 879.665 M14.479 879.665 L14.479 873.809 L21.895 873.809 L21.895 879.665 L14.479 879.665 Z" fill="#000000" fill-rule="nonzero" fill-opacity="1" /><path clip-path="url(#clip540)" d="M35.1993 833.8 Q31.2526 831.604 29.3747 828.548 Q27.4968 825.493 27.4968 821.355 Q27.4968 815.785 31.4117 812.762 Q35.2948 809.738 42.4881 809.738 L64.0042 809.738 L64.0042 815.626 L42.679 815.626 Q37.5546 815.626 35.072 817.44 Q32.5894 819.255 32.5894 822.978 Q32.5894 827.53 35.6131 830.172 Q38.6368 832.814 43.8567 832.814 L64.0042 832.814 L64.0042 838.702 L42.679 838.702 Q37.5228 838.702 35.072 840.516 Q32.5894 842.33 32.5894 846.118 Q32.5894 850.606 35.6449 853.247 Q38.6686 855.889 43.8567 855.889 L64.0042 855.889 L64.0042 861.777 L28.3562 861.777 L28.3562 855.889 L33.8944 855.889 Q30.616 853.884 29.0564 851.083 Q27.4968 848.282 27.4968 844.431 Q27.4968 840.548 29.4702 837.842 Q31.4436 835.105 35.1993 833.8 Z" fill="#000000" fill-rule="nonzero" fill-opacity="1" /><path clip-path="url(#clip540)" d="M44.7161 767.565 L47.5806 767.565 L47.5806 794.492 Q53.6281 794.11 56.8109 790.864 Q59.9619 787.585 59.9619 781.761 Q59.9619 778.387 59.1344 775.236 Q58.3069 772.053 56.6518 768.934 L62.1899 768.934 Q63.5267 772.085 64.227 775.395 Q64.9272 778.705 64.9272 782.111 Q64.9272 790.641 59.9619 795.638 Q54.9967 800.603 46.5303 800.603 Q37.7774 800.603 32.6531 795.892 Q27.4968 791.15 27.4968 783.129 Q27.4968 775.936 32.1438 771.766 Q36.7589 767.565 44.7161 767.565 M42.9973 773.421 Q38.1912 773.485 35.3266 776.127 Q32.4621 778.737 32.4621 783.066 Q32.4621 787.967 35.2312 790.927 Q38.0002 793.855 43.0292 794.301 L42.9973 773.421 Z" fill="#000000" fill-rule="nonzero" fill-opacity="1" /><path clip-path="url(#clip540)" d="M14.5426 723.164 Q21.8632 727.429 29.0246 729.498 Q36.186 731.567 43.5384 731.567 Q50.8908 731.567 58.1159 729.498 Q65.3091 727.397 72.5979 723.164 L72.5979 728.257 Q65.1182 733.031 57.8931 735.418 Q50.668 737.774 43.5384 737.774 Q36.4406 737.774 29.2474 735.418 Q22.0542 733.063 14.5426 728.257 L14.5426 723.164 Z" fill="#000000" fill-rule="nonzero" fill-opacity="1" /><path clip-path="url(#clip540)" d="M42.4881 682.169 L64.0042 682.169 L64.0042 688.026 L42.679 688.026 Q37.6183 688.026 35.1038 689.999 Q32.5894 691.972 32.5894 695.919 Q32.5894 700.661 35.6131 703.399 Q38.6368 706.136 43.8567 706.136 L64.0042 706.136 L64.0042 712.024 L28.3562 712.024 L28.3562 706.136 L33.8944 706.136 Q30.6797 704.035 29.0883 701.203 Q27.4968 698.338 27.4968 694.614 Q27.4968 688.471 31.3163 685.32 Q35.1038 682.169 42.4881 682.169 Z" fill="#000000" fill-rule="nonzero" fill-opacity="1" /><path clip-path="url(#clip540)" d="M29.4065 647.762 L34.9447 647.762 Q33.6716 650.245 33.035 652.919 Q32.3984 655.592 32.3984 658.457 Q32.3984 662.817 33.7352 665.013 Q35.072 667.178 37.7456 667.178 Q39.7826 667.178 40.9603 665.618 Q42.1061 664.059 43.1565 659.348 L43.6021 657.343 Q44.9389 651.104 47.3897 648.494 Q49.8086 645.853 54.1691 645.853 Q59.1344 645.853 62.0308 649.799 Q64.9272 653.714 64.9272 660.589 Q64.9272 663.454 64.3543 666.573 Q63.8132 669.66 62.6992 673.098 L56.6518 673.098 Q58.3387 669.851 59.198 666.7 Q60.0256 663.549 60.0256 660.462 Q60.0256 656.324 58.6251 654.096 Q57.1929 651.868 54.6147 651.868 Q52.2276 651.868 50.9545 653.492 Q49.6813 655.083 48.5037 660.526 L48.0262 662.563 Q46.8804 668.005 44.5251 670.424 Q42.138 672.843 38.0002 672.843 Q32.9713 672.843 30.2341 669.279 Q27.4968 665.714 27.4968 659.157 Q27.4968 655.911 27.9743 653.046 Q28.4517 650.181 29.4065 647.762 Z" fill="#000000" fill-rule="nonzero" fill-opacity="1" /><path clip-path="url(#clip540)" d="M14.5426 637.45 L14.5426 632.357 Q22.0542 627.583 29.2474 625.228 Q36.4406 622.841 43.5384 622.841 Q50.668 622.841 57.8931 625.228 Q65.1182 627.583 72.5979 632.357 L72.5979 637.45 Q65.3091 633.217 58.1159 631.148 Q50.8908 629.047 43.5384 629.047 Q36.186 629.047 29.0246 631.148 Q21.8632 633.217 14.5426 637.45 Z" fill="#000000" fill-rule="nonzero" fill-opacity="1" /><path clip-path="url(#clip540)" d="M722.437 12.096 L773.6 12.096 L773.6 18.9825 L752.13 18.9825 L752.13 72.576 L743.907 72.576 L743.907 18.9825 L722.437 18.9825 L722.437 12.096 Z" fill="#000000" fill-rule="nonzero" fill-opacity="1" /><path clip-path="url(#clip540)" d="M778.623 27.2059 L786.076 27.2059 L786.076 72.576 L778.623 72.576 L778.623 27.2059 M778.623 9.54393 L786.076 9.54393 L786.076 18.9825 L778.623 18.9825 L778.623 9.54393 Z" fill="#000000" fill-rule="nonzero" fill-opacity="1" /><path clip-path="url(#clip540)" d="M836.996 35.9153 Q839.791 30.8922 843.68 28.5022 Q847.569 26.1121 852.835 26.1121 Q859.924 26.1121 863.773 31.0947 Q867.621 36.0368 867.621 45.1919 L867.621 72.576 L860.127 72.576 L860.127 45.4349 Q860.127 38.913 857.818 35.7533 Q855.509 32.5936 850.769 32.5936 Q844.977 32.5936 841.614 36.4419 Q838.252 40.2903 838.252 46.9338 L838.252 72.576 L830.758 72.576 L830.758 45.4349 Q830.758 38.8725 828.449 35.7533 Q826.14 32.5936 821.319 32.5936 Q815.608 32.5936 812.245 36.4824 Q808.883 40.3308 808.883 46.9338 L808.883 72.576 L801.389 72.576 L801.389 27.2059 L808.883 27.2059 L808.883 34.2544 Q811.435 30.082 815 28.0971 Q818.565 26.1121 823.466 26.1121 Q828.408 26.1121 831.852 28.6237 Q835.335 31.1352 836.996 35.9153 Z" fill="#000000" fill-rule="nonzero" fill-opacity="1" /><path clip-path="url(#clip540)" d="M921.296 48.0275 L921.296 51.6733 L887.025 51.6733 Q887.511 59.3701 891.643 63.421 Q895.815 67.4314 903.229 67.4314 Q907.523 67.4314 911.533 66.3781 Q915.584 65.3249 919.554 63.2184 L919.554 70.267 Q915.543 71.9684 911.33 72.8596 Q907.118 73.7508 902.783 73.7508 Q891.927 73.7508 885.567 67.4314 Q879.247 61.1119 879.247 50.3365 Q879.247 39.1965 885.243 32.6746 Q891.278 26.1121 901.487 26.1121 Q910.642 26.1121 915.948 32.0264 Q921.296 37.9003 921.296 48.0275 M913.842 45.84 Q913.761 39.7232 910.399 36.0774 Q907.077 32.4315 901.568 32.4315 Q895.329 32.4315 891.562 35.9558 Q887.835 39.4801 887.268 45.8805 L913.842 45.84 Z" fill="#000000" fill-rule="nonzero" fill-opacity="1" /><path clip-path="url(#clip540)" d="M967.273 14.324 L967.273 27.2059 L982.626 27.2059 L982.626 32.9987 L967.273 32.9987 L967.273 57.6282 Q967.273 63.1779 968.772 64.7578 Q970.312 66.3376 974.97 66.3376 L982.626 66.3376 L982.626 72.576 L974.97 72.576 Q966.342 72.576 963.061 69.3758 Q959.779 66.1351 959.779 57.6282 L959.779 32.9987 L954.311 32.9987 L954.311 27.2059 L959.779 27.2059 L959.779 14.324 L967.273 14.324 Z" fill="#000000" fill-rule="nonzero" fill-opacity="1" /><path clip-path="url(#clip540)" d="M1010.01 32.4315 Q1004.02 32.4315 1000.53 37.1306 Q997.048 41.7891 997.048 49.9314 Q997.048 58.0738 1000.49 62.7728 Q1003.97 67.4314 1010.01 67.4314 Q1015.97 67.4314 1019.45 62.7323 Q1022.93 58.0333 1022.93 49.9314 Q1022.93 41.8701 1019.45 37.1711 Q1015.97 32.4315 1010.01 32.4315 M1010.01 26.1121 Q1019.73 26.1121 1025.28 32.4315 Q1030.83 38.7509 1030.83 49.9314 Q1030.83 61.0714 1025.28 67.4314 Q1019.73 73.7508 1010.01 73.7508 Q1000.25 73.7508 994.698 67.4314 Q989.189 61.0714 989.189 49.9314 Q989.189 38.7509 994.698 32.4315 Q1000.25 26.1121 1010.01 26.1121 Z" fill="#000000" fill-rule="nonzero" fill-opacity="1" /><path clip-path="url(#clip540)" d="M1102.21 28.9478 L1102.21 35.9153 Q1099.05 34.1734 1095.85 33.3227 Q1092.69 32.4315 1089.45 32.4315 Q1082.2 32.4315 1078.19 37.0496 Q1074.18 41.6271 1074.18 49.9314 Q1074.18 58.2358 1078.19 62.8538 Q1082.2 67.4314 1089.45 67.4314 Q1092.69 67.4314 1095.85 66.5807 Q1099.05 65.6895 1102.21 63.9476 L1102.21 70.8341 Q1099.09 72.2924 1095.73 73.0216 Q1092.41 73.7508 1088.64 73.7508 Q1078.39 73.7508 1072.35 67.3098 Q1066.32 60.8689 1066.32 49.9314 Q1066.32 38.832 1072.39 32.472 Q1078.51 26.1121 1089.12 26.1121 Q1092.57 26.1121 1095.85 26.8413 Q1099.13 27.5299 1102.21 28.9478 Z" fill="#000000" fill-rule="nonzero" fill-opacity="1" /><path clip-path="url(#clip540)" d="M1132.75 32.4315 Q1126.76 32.4315 1123.27 37.1306 Q1119.79 41.7891 1119.79 49.9314 Q1119.79 58.0738 1123.23 62.7728 Q1126.72 67.4314 1132.75 67.4314 Q1138.71 67.4314 1142.19 62.7323 Q1145.68 58.0333 1145.68 49.9314 Q1145.68 41.8701 1142.19 37.1711 Q1138.71 32.4315 1132.75 32.4315 M1132.75 26.1121 Q1142.48 26.1121 1148.02 32.4315 Q1153.57 38.7509 1153.57 49.9314 Q1153.57 61.0714 1148.02 67.4314 Q1142.48 73.7508 1132.75 73.7508 Q1122.99 73.7508 1117.44 67.4314 Q1111.93 61.0714 1111.93 49.9314 Q1111.93 38.7509 1117.44 32.4315 Q1122.99 26.1121 1132.75 26.1121 Z" fill="#000000" fill-rule="nonzero" fill-opacity="1" /><path clip-path="url(#clip540)" d="M1201.25 35.9153 Q1204.05 30.8922 1207.94 28.5022 Q1211.83 26.1121 1217.09 26.1121 Q1224.18 26.1121 1228.03 31.0947 Q1231.88 36.0368 1231.88 45.1919 L1231.88 72.576 L1224.38 72.576 L1224.38 45.4349 Q1224.38 38.913 1222.08 35.7533 Q1219.77 32.5936 1215.03 32.5936 Q1209.23 32.5936 1205.87 36.4419 Q1202.51 40.2903 1202.51 46.9338 L1202.51 72.576 L1195.02 72.576 L1195.02 45.4349 Q1195.02 38.8725 1192.71 35.7533 Q1190.4 32.5936 1185.58 32.5936 Q1179.86 32.5936 1176.5 36.4824 Q1173.14 40.3308 1173.14 46.9338 L1173.14 72.576 L1165.65 72.576 L1165.65 27.2059 L1173.14 27.2059 L1173.14 34.2544 Q1175.69 30.082 1179.26 28.0971 Q1182.82 26.1121 1187.72 26.1121 Q1192.67 26.1121 1196.11 28.6237 Q1199.59 31.1352 1201.25 35.9153 Z" fill="#000000" fill-rule="nonzero" fill-opacity="1" /><path clip-path="url(#clip540)" d="M1253.96 65.7705 L1253.96 89.8329 L1246.46 89.8329 L1246.46 27.2059 L1253.96 27.2059 L1253.96 34.0924 Q1256.31 30.0415 1259.87 28.0971 Q1263.48 26.1121 1268.46 26.1121 Q1276.72 26.1121 1281.87 32.6746 Q1287.05 39.2371 1287.05 49.9314 Q1287.05 60.6258 1281.87 67.1883 Q1276.72 73.7508 1268.46 73.7508 Q1263.48 73.7508 1259.87 71.8063 Q1256.31 69.8214 1253.96 65.7705 M1279.31 49.9314 Q1279.31 41.7081 1275.91 37.0496 Q1272.55 32.3505 1266.64 32.3505 Q1260.72 32.3505 1257.32 37.0496 Q1253.96 41.7081 1253.96 49.9314 Q1253.96 58.1548 1257.32 62.8538 Q1260.72 67.5124 1266.64 67.5124 Q1272.55 67.5124 1275.91 62.8538 Q1279.31 58.1548 1279.31 49.9314 Z" fill="#000000" fill-rule="nonzero" fill-opacity="1" /><path clip-path="url(#clip540)" d="M1298.64 54.671 L1298.64 27.2059 L1306.09 27.2059 L1306.09 54.3874 Q1306.09 60.8284 1308.6 64.0691 Q1311.11 67.2693 1316.14 67.2693 Q1322.17 67.2693 1325.66 63.421 Q1329.18 59.5726 1329.18 52.9291 L1329.18 27.2059 L1336.63 27.2059 L1336.63 72.576 L1329.18 72.576 L1329.18 65.6084 Q1326.47 69.7404 1322.86 71.7658 Q1319.3 73.7508 1314.56 73.7508 Q1306.74 73.7508 1302.69 68.8897 Q1298.64 64.0286 1298.64 54.671 M1317.39 26.1121 L1317.39 26.1121 Z" fill="#000000" fill-rule="nonzero" fill-opacity="1" /><path clip-path="url(#clip540)" d="M1359.36 14.324 L1359.36 27.2059 L1374.71 27.2059 L1374.71 32.9987 L1359.36 32.9987 L1359.36 57.6282 Q1359.36 63.1779 1360.86 64.7578 Q1362.4 66.3376 1367.06 66.3376 L1374.71 66.3376 L1374.71 72.576 L1367.06 72.576 Q1358.43 72.576 1355.15 69.3758 Q1351.87 66.1351 1351.87 57.6282 L1351.87 32.9987 L1346.4 32.9987 L1346.4 27.2059 L1351.87 27.2059 L1351.87 14.324 L1359.36 14.324 Z" fill="#000000" fill-rule="nonzero" fill-opacity="1" /><path clip-path="url(#clip540)" d="M1423.32 48.0275 L1423.32 51.6733 L1389.05 51.6733 Q1389.54 59.3701 1393.67 63.421 Q1397.84 67.4314 1405.26 67.4314 Q1409.55 67.4314 1413.56 66.3781 Q1417.61 65.3249 1421.58 63.2184 L1421.58 70.267 Q1417.57 71.9684 1413.36 72.8596 Q1409.15 73.7508 1404.81 73.7508 Q1393.96 73.7508 1387.6 67.4314 Q1381.28 61.1119 1381.28 50.3365 Q1381.28 39.1965 1387.27 32.6746 Q1393.31 26.1121 1403.52 26.1121 Q1412.67 26.1121 1417.98 32.0264 Q1423.32 37.9003 1423.32 48.0275 M1415.87 45.84 Q1415.79 39.7232 1412.43 36.0774 Q1409.11 32.4315 1403.6 32.4315 Q1397.36 32.4315 1393.59 35.9558 Q1389.86 39.4801 1389.3 45.8805 L1415.87 45.84 Z" fill="#000000" fill-rule="nonzero" fill-opacity="1" /><path clip-path="url(#clip540)" d="M1462.25 12.096 L1470.44 12.096 L1470.44 65.6895 L1499.89 65.6895 L1499.89 72.576 L1462.25 72.576 L1462.25 12.096 Z" fill="#000000" fill-rule="nonzero" fill-opacity="1" /><path clip-path="url(#clip540)" d="M1545.5 48.0275 L1545.5 51.6733 L1511.23 51.6733 Q1511.71 59.3701 1515.85 63.421 Q1520.02 67.4314 1527.43 67.4314 Q1531.73 67.4314 1535.74 66.3781 Q1539.79 65.3249 1543.76 63.2184 L1543.76 70.267 Q1539.75 71.9684 1535.53 72.8596 Q1531.32 73.7508 1526.99 73.7508 Q1516.13 73.7508 1509.77 67.4314 Q1503.45 61.1119 1503.45 50.3365 Q1503.45 39.1965 1509.45 32.6746 Q1515.48 26.1121 1525.69 26.1121 Q1534.85 26.1121 1540.15 32.0264 Q1545.5 37.9003 1545.5 48.0275 M1538.05 45.84 Q1537.96 39.7232 1534.6 36.0774 Q1531.28 32.4315 1525.77 32.4315 Q1519.53 32.4315 1515.77 35.9558 Q1512.04 39.4801 1511.47 45.8805 L1538.05 45.84 Z" fill="#000000" fill-rule="nonzero" fill-opacity="1" /><path clip-path="url(#clip540)" d="M1595.45 45.1919 L1595.45 72.576 L1587.99 72.576 L1587.99 45.4349 Q1587.99 38.994 1585.48 35.7938 Q1582.97 32.5936 1577.95 32.5936 Q1571.91 32.5936 1568.43 36.4419 Q1564.94 40.2903 1564.94 46.9338 L1564.94 72.576 L1557.45 72.576 L1557.45 27.2059 L1564.94 27.2059 L1564.94 34.2544 Q1567.62 30.163 1571.22 28.1376 Q1574.87 26.1121 1579.61 26.1121 Q1587.43 26.1121 1591.44 30.9732 Q1595.45 35.7938 1595.45 45.1919 Z" fill="#000000" fill-rule="nonzero" fill-opacity="1" /><path clip-path="url(#clip540)" d="M1640.17 49.3643 Q1640.17 41.2625 1636.81 36.8065 Q1633.49 32.3505 1627.45 32.3505 Q1621.45 32.3505 1618.09 36.8065 Q1614.77 41.2625 1614.77 49.3643 Q1614.77 57.4256 1618.09 61.8816 Q1621.45 66.3376 1627.45 66.3376 Q1633.49 66.3376 1636.81 61.8816 Q1640.17 57.4256 1640.17 49.3643 M1647.62 66.9452 Q1647.62 78.5308 1642.48 84.1616 Q1637.33 89.8329 1626.72 89.8329 Q1622.79 89.8329 1619.31 89.2252 Q1615.82 88.6581 1612.54 87.4428 L1612.54 80.1917 Q1615.82 81.9741 1619.02 82.8248 Q1622.22 83.6755 1625.55 83.6755 Q1632.88 83.6755 1636.52 79.8271 Q1640.17 76.0193 1640.17 68.282 L1640.17 64.5957 Q1637.86 68.6061 1634.25 70.5911 Q1630.65 72.576 1625.63 72.576 Q1617.28 72.576 1612.18 66.2161 Q1607.07 59.8562 1607.07 49.3643 Q1607.07 38.832 1612.18 32.472 Q1617.28 26.1121 1625.63 26.1121 Q1630.65 26.1121 1634.25 28.0971 Q1637.86 30.082 1640.17 34.0924 L1640.17 27.2059 L1647.62 27.2059 L1647.62 66.9452 Z" fill="#000000" fill-rule="nonzero" fill-opacity="1" /><path clip-path="url(#clip540)" d="M1670.35 14.324 L1670.35 27.2059 L1685.7 27.2059 L1685.7 32.9987 L1670.35 32.9987 L1670.35 57.6282 Q1670.35 63.1779 1671.85 64.7578 Q1673.39 66.3376 1678.05 66.3376 L1685.7 66.3376 L1685.7 72.576 L1678.05 72.576 Q1669.42 72.576 1666.14 69.3758 Q1662.85 66.1351 1662.85 57.6282 L1662.85 32.9987 L1657.39 32.9987 L1657.39 27.2059 L1662.85 27.2059 L1662.85 14.324 L1670.35 14.324 Z" fill="#000000" fill-rule="nonzero" fill-opacity="1" /><path clip-path="url(#clip540)" d="M1733.22 45.1919 L1733.22 72.576 L1725.76 72.576 L1725.76 45.4349 Q1725.76 38.994 1723.25 35.7938 Q1720.74 32.5936 1715.72 32.5936 Q1709.68 32.5936 1706.2 36.4419 Q1702.72 40.2903 1702.72 46.9338 L1702.72 72.576 L1695.22 72.576 L1695.22 9.54393 L1702.72 9.54393 L1702.72 34.2544 Q1705.39 30.163 1708.99 28.1376 Q1712.64 26.1121 1717.38 26.1121 Q1725.2 26.1121 1729.21 30.9732 Q1733.22 35.7938 1733.22 45.1919 Z" fill="#000000" fill-rule="nonzero" fill-opacity="1" /><path clip-path="url(#clip540)" d="M1774.78 12.096 L1782.96 12.096 L1782.96 65.6895 L1812.41 65.6895 L1812.41 72.576 L1774.78 72.576 L1774.78 12.096 Z" fill="#000000" fill-rule="nonzero" fill-opacity="1" /><path clip-path="url(#clip540)" d="M1820.68 27.2059 L1828.13 27.2059 L1828.13 72.576 L1820.68 72.576 L1820.68 27.2059 M1820.68 9.54393 L1828.13 9.54393 L1828.13 18.9825 L1820.68 18.9825 L1820.68 9.54393 Z" fill="#000000" fill-rule="nonzero" fill-opacity="1" /><path clip-path="url(#clip540)" d="M1872.65 28.5427 L1872.65 35.5912 Q1869.49 33.9709 1866.09 33.1607 Q1862.69 32.3505 1859.04 32.3505 Q1853.49 32.3505 1850.69 34.0519 Q1847.94 35.7533 1847.94 39.156 Q1847.94 41.7486 1849.92 43.2475 Q1851.91 44.7058 1857.91 46.0426 L1860.46 46.6097 Q1868.4 48.3111 1871.72 51.4303 Q1875.08 54.509 1875.08 60.0587 Q1875.08 66.3781 1870.06 70.0644 Q1865.08 73.7508 1856.33 73.7508 Q1852.68 73.7508 1848.71 73.0216 Q1844.78 72.3329 1840.41 70.9151 L1840.41 63.2184 Q1844.54 65.3654 1848.55 66.4591 Q1852.56 67.5124 1856.49 67.5124 Q1861.75 67.5124 1864.59 65.73 Q1867.42 63.9071 1867.42 60.6258 Q1867.42 57.5877 1865.36 55.9673 Q1863.33 54.3469 1856.41 52.8481 L1853.81 52.2405 Q1846.89 50.7821 1843.81 47.7845 Q1840.73 44.7463 1840.73 39.4801 Q1840.73 33.0797 1845.27 29.5959 Q1849.8 26.1121 1858.15 26.1121 Q1862.28 26.1121 1865.93 26.7198 Q1869.57 27.3274 1872.65 28.5427 Z" fill="#000000" fill-rule="nonzero" fill-opacity="1" /><path clip-path="url(#clip540)" d="M1894.32 14.324 L1894.32 27.2059 L1909.68 27.2059 L1909.68 32.9987 L1894.32 32.9987 L1894.32 57.6282 Q1894.32 63.1779 1895.82 64.7578 Q1897.36 66.3376 1902.02 66.3376 L1909.68 66.3376 L1909.68 72.576 L1902.02 72.576 Q1893.39 72.576 1890.11 69.3758 Q1886.83 66.1351 1886.83 57.6282 L1886.83 32.9987 L1881.36 32.9987 L1881.36 27.2059 L1886.83 27.2059 L1886.83 14.324 L1894.32 14.324 Z" fill="#000000" fill-rule="nonzero" fill-opacity="1" /><polyline clip-path="url(#clip542)" style="stroke:#009af9; stroke-linecap:round; stroke-linejoin:round; stroke-width:4; stroke-opacity:1; fill:none" points="338.038,351.343 346.844,1083.84 385.985,1386.4 434.91,1083.84 483.835,1274.93 532.761,1036.07 581.686,160.256 630.612,757.402 679.537,1298.81 728.462,176.18 826.313,964.411 1315.57,540.297 2294.07,411.513 "/>
<circle clip-path="url(#clip542)" cx="338.038" cy="351.343" r="14.4" fill="#e26f46" fill-rule="evenodd" fill-opacity="1" stroke="#000000" stroke-opacity="1" stroke-width="3.2"/>
<circle clip-path="url(#clip542)" cx="346.844" cy="1083.84" r="14.4" fill="#e26f46" fill-rule="evenodd" fill-opacity="1" stroke="#000000" stroke-opacity="1" stroke-width="3.2"/>
<circle clip-path="url(#clip542)" cx="385.985" cy="1386.4" r="14.4" fill="#e26f46" fill-rule="evenodd" fill-opacity="1" stroke="#000000" stroke-opacity="1" stroke-width="3.2"/>
<circle clip-path="url(#clip542)" cx="434.91" cy="1083.84" r="14.4" fill="#e26f46" fill-rule="evenodd" fill-opacity="1" stroke="#000000" stroke-opacity="1" stroke-width="3.2"/>
<circle clip-path="url(#clip542)" cx="483.835" cy="1274.93" r="14.4" fill="#e26f46" fill-rule="evenodd" fill-opacity="1" stroke="#000000" stroke-opacity="1" stroke-width="3.2"/>
<circle clip-path="url(#clip542)" cx="532.761" cy="1036.07" r="14.4" fill="#e26f46" fill-rule="evenodd" fill-opacity="1" stroke="#000000" stroke-opacity="1" stroke-width="3.2"/>
<circle clip-path="url(#clip542)" cx="581.686" cy="160.256" r="14.4" fill="#e26f46" fill-rule="evenodd" fill-opacity="1" stroke="#000000" stroke-opacity="1" stroke-width="3.2"/>
<circle clip-path="url(#clip542)" cx="630.612" cy="757.402" r="14.4" fill="#e26f46" fill-rule="evenodd" fill-opacity="1" stroke="#000000" stroke-opacity="1" stroke-width="3.2"/>
<circle clip-path="url(#clip542)" cx="679.537" cy="1298.81" r="14.4" fill="#e26f46" fill-rule="evenodd" fill-opacity="1" stroke="#000000" stroke-opacity="1" stroke-width="3.2"/>
<circle clip-path="url(#clip542)" cx="728.462" cy="176.18" r="14.4" fill="#e26f46" fill-rule="evenodd" fill-opacity="1" stroke="#000000" stroke-opacity="1" stroke-width="3.2"/>
<circle clip-path="url(#clip542)" cx="826.313" cy="964.411" r="14.4" fill="#e26f46" fill-rule="evenodd" fill-opacity="1" stroke="#000000" stroke-opacity="1" stroke-width="3.2"/>
<circle clip-path="url(#clip542)" cx="1315.57" cy="540.297" r="14.4" fill="#e26f46" fill-rule="evenodd" fill-opacity="1" stroke="#000000" stroke-opacity="1" stroke-width="3.2"/>
<circle clip-path="url(#clip542)" cx="2294.07" cy="411.513" r="14.4" fill="#e26f46" fill-rule="evenodd" fill-opacity="1" stroke="#000000" stroke-opacity="1" stroke-width="3.2"/>
</svg>
