<?xml version="1.0" encoding="utf-8"?>
<svg xmlns="http://www.w3.org/2000/svg" xmlns:xlink="http://www.w3.org/1999/xlink" width="600" height="400" viewBox="0 0 2400 1600">
<defs>
  <clipPath id="clip180">
    <rect x="0" y="0" width="2400" height="1600"/>
  </clipPath>
</defs>
<path clip-path="url(#clip180)" d="M0 1600 L2400 1600 L2400 0 L0 0  Z" fill="#ffffff" fill-rule="evenodd" fill-opacity="1"/>
<defs>
  <clipPath id="clip181">
    <rect x="480" y="0" width="1681" height="1600"/>
  </clipPath>
</defs>
<path clip-path="url(#clip180)" d="M369.703 1423.18 L2352.76 1423.18 L2352.76 123.472 L369.703 123.472  Z" fill="#ffffff" fill-rule="evenodd" fill-opacity="1"/>
<defs>
  <clipPath id="clip182">
    <rect x="369" y="123" width="1984" height="1301"/>
  </clipPath>
</defs>
<polyline clip-path="url(#clip182)" style="stroke:#000000; stroke-linecap:round; stroke-linejoin:round; stroke-width:2; stroke-opacity:0.1; fill:none" points="424.892,1423.18 424.892,123.472 "/>
<polyline clip-path="url(#clip182)" style="stroke:#000000; stroke-linecap:round; stroke-linejoin:round; stroke-width:2; stroke-opacity:0.1; fill:none" points="892.827,1423.18 892.827,123.472 "/>
<polyline clip-path="url(#clip182)" style="stroke:#000000; stroke-linecap:round; stroke-linejoin:round; stroke-width:2; stroke-opacity:0.1; fill:none" points="1360.76,1423.18 1360.76,123.472 "/>
<polyline clip-path="url(#clip182)" style="stroke:#000000; stroke-linecap:round; stroke-linejoin:round; stroke-width:2; stroke-opacity:0.1; fill:none" points="1828.7,1423.18 1828.7,123.472 "/>
<polyline clip-path="url(#clip182)" style="stroke:#000000; stroke-linecap:round; stroke-linejoin:round; stroke-width:2; stroke-opacity:0.1; fill:none" points="2296.63,1423.18 2296.63,123.472 "/>
<polyline clip-path="url(#clip180)" style="stroke:#000000; stroke-linecap:round; stroke-linejoin:round; stroke-width:4; stroke-opacity:1; fill:none" points="369.703,1423.18 2352.76,1423.18 "/>
<polyline clip-path="url(#clip180)" style="stroke:#000000; stroke-linecap:round; stroke-linejoin:round; stroke-width:4; stroke-opacity:1; fill:none" points="424.892,1423.18 424.892,1404.28 "/>
<polyline clip-path="url(#clip180)" style="stroke:#000000; stroke-linecap:round; stroke-linejoin:round; stroke-width:4; stroke-opacity:1; fill:none" points="892.827,1423.18 892.827,1404.28 "/>
<polyline clip-path="url(#clip180)" style="stroke:#000000; stroke-linecap:round; stroke-linejoin:round; stroke-width:4; stroke-opacity:1; fill:none" points="1360.76,1423.18 1360.76,1404.28 "/>
<polyline clip-path="url(#clip180)" style="stroke:#000000; stroke-linecap:round; stroke-linejoin:round; stroke-width:4; stroke-opacity:1; fill:none" points="1828.7,1423.18 1828.7,1404.28 "/>
<polyline clip-path="url(#clip180)" style="stroke:#000000; stroke-linecap:round; stroke-linejoin:round; stroke-width:4; stroke-opacity:1; fill:none" points="2296.63,1423.18 2296.63,1404.28 "/>
<path clip-path="url(#clip180)" d="M424.892 1454.1 Q421.281 1454.1 419.452 1457.66 Q417.646 1461.2 417.646 1468.33 Q417.646 1475.44 419.452 1479.01 Q421.281 1482.55 424.892 1482.55 Q428.526 1482.55 430.331 1479.01 Q432.16 1475.44 432.16 1468.33 Q432.16 1461.2 430.331 1457.66 Q428.526 1454.1 424.892 1454.1 M424.892 1450.39 Q430.702 1450.39 433.757 1455 Q436.836 1459.58 436.836 1468.33 Q436.836 1477.06 433.757 1481.67 Q430.702 1486.25 424.892 1486.25 Q419.082 1486.25 416.003 1481.67 Q412.947 1477.06 412.947 1468.33 Q412.947 1459.58 416.003 1455 Q419.082 1450.39 424.892 1450.39 Z" fill="#000000" fill-rule="nonzero" fill-opacity="1" /><path clip-path="url(#clip180)" d="M852.445 1451.02 L870.801 1451.02 L870.801 1454.96 L856.727 1454.96 L856.727 1463.43 Q857.746 1463.08 858.764 1462.92 Q859.783 1462.73 860.801 1462.73 Q866.588 1462.73 869.968 1465.9 Q873.348 1469.08 873.348 1474.49 Q873.348 1480.07 869.875 1483.17 Q866.403 1486.25 860.084 1486.25 Q857.908 1486.25 855.639 1485.88 Q853.394 1485.51 850.987 1484.77 L850.987 1480.07 Q853.07 1481.2 855.292 1481.76 Q857.514 1482.32 859.991 1482.32 Q863.996 1482.32 866.334 1480.21 Q868.672 1478.1 868.672 1474.49 Q868.672 1470.88 866.334 1468.77 Q863.996 1466.67 859.991 1466.67 Q858.116 1466.67 856.241 1467.08 Q854.389 1467.5 852.445 1468.38 L852.445 1451.02 Z" fill="#000000" fill-rule="nonzero" fill-opacity="1" /><path clip-path="url(#clip180)" d="M892.561 1454.1 Q888.949 1454.1 887.121 1457.66 Q885.315 1461.2 885.315 1468.33 Q885.315 1475.44 887.121 1479.01 Q888.949 1482.55 892.561 1482.55 Q896.195 1482.55 898 1479.01 Q899.829 1475.44 899.829 1468.33 Q899.829 1461.2 898 1457.66 Q896.195 1454.1 892.561 1454.1 M892.561 1450.39 Q898.371 1450.39 901.426 1455 Q904.505 1459.58 904.505 1468.33 Q904.505 1477.06 901.426 1481.67 Q898.371 1486.25 892.561 1486.25 Q886.75 1486.25 883.672 1481.67 Q880.616 1477.06 880.616 1468.33 Q880.616 1459.58 883.672 1455 Q886.75 1450.39 892.561 1450.39 Z" fill="#000000" fill-rule="nonzero" fill-opacity="1" /><path clip-path="url(#clip180)" d="M922.722 1454.1 Q919.111 1454.1 917.283 1457.66 Q915.477 1461.2 915.477 1468.33 Q915.477 1475.44 917.283 1479.01 Q919.111 1482.55 922.722 1482.55 Q926.357 1482.55 928.162 1479.01 Q929.991 1475.44 929.991 1468.33 Q929.991 1461.2 928.162 1457.66 Q926.357 1454.1 922.722 1454.1 M922.722 1450.39 Q928.533 1450.39 931.588 1455 Q934.667 1459.58 934.667 1468.33 Q934.667 1477.06 931.588 1481.67 Q928.533 1486.25 922.722 1486.25 Q916.912 1486.25 913.834 1481.67 Q910.778 1477.06 910.778 1468.33 Q910.778 1459.58 913.834 1455 Q916.912 1450.39 922.722 1450.39 Z" fill="#000000" fill-rule="nonzero" fill-opacity="1" /><path clip-path="url(#clip180)" d="M1305.29 1481.64 L1312.93 1481.64 L1312.93 1455.28 L1304.62 1456.95 L1304.62 1452.69 L1312.88 1451.02 L1317.56 1451.02 L1317.56 1481.64 L1325.19 1481.64 L1325.19 1485.58 L1305.29 1485.58 L1305.29 1481.64 Z" fill="#000000" fill-rule="nonzero" fill-opacity="1" /><path clip-path="url(#clip180)" d="M1344.64 1454.1 Q1341.03 1454.1 1339.2 1457.66 Q1337.39 1461.2 1337.39 1468.33 Q1337.39 1475.44 1339.2 1479.01 Q1341.03 1482.55 1344.64 1482.55 Q1348.27 1482.55 1350.08 1479.01 Q1351.91 1475.44 1351.91 1468.33 Q1351.91 1461.2 1350.08 1457.66 Q1348.27 1454.1 1344.64 1454.1 M1344.64 1450.39 Q1350.45 1450.39 1353.5 1455 Q1356.58 1459.58 1356.58 1468.33 Q1356.58 1477.06 1353.5 1481.67 Q1350.45 1486.25 1344.64 1486.25 Q1338.83 1486.25 1335.75 1481.67 Q1332.69 1477.06 1332.69 1468.33 Q1332.69 1459.58 1335.75 1455 Q1338.83 1450.39 1344.64 1450.39 Z" fill="#000000" fill-rule="nonzero" fill-opacity="1" /><path clip-path="url(#clip180)" d="M1374.8 1454.1 Q1371.19 1454.1 1369.36 1457.66 Q1367.56 1461.2 1367.56 1468.33 Q1367.56 1475.44 1369.36 1479.01 Q1371.19 1482.55 1374.8 1482.55 Q1378.44 1482.55 1380.24 1479.01 Q1382.07 1475.44 1382.07 1468.33 Q1382.07 1461.2 1380.24 1457.66 Q1378.44 1454.1 1374.8 1454.1 M1374.8 1450.39 Q1380.61 1450.39 1383.67 1455 Q1386.75 1459.58 1386.75 1468.33 Q1386.75 1477.06 1383.67 1481.67 Q1380.61 1486.25 1374.8 1486.25 Q1368.99 1486.25 1365.91 1481.67 Q1362.86 1477.06 1362.86 1468.33 Q1362.86 1459.58 1365.91 1455 Q1368.99 1450.39 1374.8 1450.39 Z" fill="#000000" fill-rule="nonzero" fill-opacity="1" /><path clip-path="url(#clip180)" d="M1404.96 1454.1 Q1401.35 1454.1 1399.52 1457.66 Q1397.72 1461.2 1397.72 1468.33 Q1397.72 1475.44 1399.52 1479.01 Q1401.35 1482.55 1404.96 1482.55 Q1408.6 1482.55 1410.4 1479.01 Q1412.23 1475.44 1412.23 1468.33 Q1412.23 1461.2 1410.4 1457.66 Q1408.6 1454.1 1404.96 1454.1 M1404.96 1450.39 Q1410.77 1450.39 1413.83 1455 Q1416.91 1459.58 1416.91 1468.33 Q1416.91 1477.06 1413.83 1481.67 Q1410.77 1486.25 1404.96 1486.25 Q1399.15 1486.25 1396.07 1481.67 Q1393.02 1477.06 1393.02 1468.33 Q1393.02 1459.58 1396.07 1455 Q1399.15 1450.39 1404.96 1450.39 Z" fill="#000000" fill-rule="nonzero" fill-opacity="1" /><path clip-path="url(#clip180)" d="M1773.22 1481.64 L1780.86 1481.64 L1780.86 1455.28 L1772.55 1456.95 L1772.55 1452.69 L1780.82 1451.02 L1785.49 1451.02 L1785.49 1481.64 L1793.13 1481.64 L1793.13 1485.58 L1773.22 1485.58 L1773.22 1481.64 Z" fill="#000000" fill-rule="nonzero" fill-opacity="1" /><path clip-path="url(#clip180)" d="M1802.62 1451.02 L1820.98 1451.02 L1820.98 1454.96 L1806.9 1454.96 L1806.9 1463.43 Q1807.92 1463.08 1808.94 1462.92 Q1809.96 1462.73 1810.98 1462.73 Q1816.76 1462.73 1820.14 1465.9 Q1823.52 1469.08 1823.52 1474.49 Q1823.52 1480.07 1820.05 1483.17 Q1816.58 1486.25 1810.26 1486.25 Q1808.08 1486.25 1805.81 1485.88 Q1803.57 1485.51 1801.16 1484.77 L1801.16 1480.07 Q1803.25 1481.2 1805.47 1481.76 Q1807.69 1482.32 1810.17 1482.32 Q1814.17 1482.32 1816.51 1480.21 Q1818.85 1478.1 1818.85 1474.49 Q1818.85 1470.88 1816.51 1468.77 Q1814.17 1466.67 1810.17 1466.67 Q1808.29 1466.67 1806.42 1467.08 Q1804.56 1467.5 1802.62 1468.38 L1802.62 1451.02 Z" fill="#000000" fill-rule="nonzero" fill-opacity="1" /><path clip-path="url(#clip180)" d="M1842.74 1454.1 Q1839.12 1454.1 1837.3 1457.66 Q1835.49 1461.2 1835.49 1468.33 Q1835.49 1475.44 1837.3 1479.01 Q1839.12 1482.55 1842.74 1482.55 Q1846.37 1482.55 1848.18 1479.01 Q1850 1475.44 1850 1468.33 Q1850 1461.2 1848.18 1457.66 Q1846.37 1454.1 1842.74 1454.1 M1842.74 1450.39 Q1848.55 1450.39 1851.6 1455 Q1854.68 1459.58 1854.68 1468.33 Q1854.68 1477.06 1851.6 1481.67 Q1848.55 1486.25 1842.74 1486.25 Q1836.93 1486.25 1833.85 1481.67 Q1830.79 1477.06 1830.79 1468.33 Q1830.79 1459.58 1833.85 1455 Q1836.93 1450.39 1842.74 1450.39 Z" fill="#000000" fill-rule="nonzero" fill-opacity="1" /><path clip-path="url(#clip180)" d="M1872.9 1454.1 Q1869.29 1454.1 1867.46 1457.66 Q1865.65 1461.2 1865.65 1468.33 Q1865.65 1475.44 1867.46 1479.01 Q1869.29 1482.55 1872.9 1482.55 Q1876.53 1482.55 1878.34 1479.01 Q1880.17 1475.44 1880.17 1468.33 Q1880.17 1461.2 1878.34 1457.66 Q1876.53 1454.1 1872.9 1454.1 M1872.9 1450.39 Q1878.71 1450.39 1881.76 1455 Q1884.84 1459.58 1884.84 1468.33 Q1884.84 1477.06 1881.76 1481.67 Q1878.71 1486.25 1872.9 1486.25 Q1867.09 1486.25 1864.01 1481.67 Q1860.95 1477.06 1860.95 1468.33 Q1860.95 1459.58 1864.01 1455 Q1867.09 1450.39 1872.9 1450.39 Z" fill="#000000" fill-rule="nonzero" fill-opacity="1" /><path clip-path="url(#clip180)" d="M2245.24 1481.64 L2261.56 1481.64 L2261.56 1485.58 L2239.62 1485.58 L2239.62 1481.64 Q2242.28 1478.89 2246.86 1474.26 Q2251.47 1469.61 2252.65 1468.27 Q2254.9 1465.74 2255.78 1464.01 Q2256.68 1462.25 2256.68 1460.56 Q2256.68 1457.8 2254.73 1456.07 Q2252.81 1454.33 2249.71 1454.33 Q2247.51 1454.33 2245.06 1455.09 Q2242.63 1455.86 2239.85 1457.41 L2239.85 1452.69 Q2242.67 1451.55 2245.13 1450.97 Q2247.58 1450.39 2249.62 1450.39 Q2254.99 1450.39 2258.18 1453.08 Q2261.38 1455.77 2261.38 1460.26 Q2261.38 1462.39 2260.57 1464.31 Q2259.78 1466.2 2257.67 1468.8 Q2257.09 1469.47 2253.99 1472.69 Q2250.89 1475.88 2245.24 1481.64 Z" fill="#000000" fill-rule="nonzero" fill-opacity="1" /><path clip-path="url(#clip180)" d="M2281.38 1454.1 Q2277.77 1454.1 2275.94 1457.66 Q2274.13 1461.2 2274.13 1468.33 Q2274.13 1475.44 2275.94 1479.01 Q2277.77 1482.55 2281.38 1482.55 Q2285.01 1482.55 2286.82 1479.01 Q2288.65 1475.44 2288.65 1468.33 Q2288.65 1461.2 2286.82 1457.66 Q2285.01 1454.1 2281.38 1454.1 M2281.38 1450.39 Q2287.19 1450.39 2290.24 1455 Q2293.32 1459.58 2293.32 1468.33 Q2293.32 1477.06 2290.24 1481.67 Q2287.19 1486.25 2281.38 1486.25 Q2275.57 1486.25 2272.49 1481.67 Q2269.43 1477.06 2269.43 1468.33 Q2269.43 1459.58 2272.49 1455 Q2275.57 1450.39 2281.38 1450.39 Z" fill="#000000" fill-rule="nonzero" fill-opacity="1" /><path clip-path="url(#clip180)" d="M2311.54 1454.1 Q2307.93 1454.1 2306.1 1457.66 Q2304.29 1461.2 2304.29 1468.33 Q2304.29 1475.44 2306.1 1479.01 Q2307.93 1482.55 2311.54 1482.55 Q2315.17 1482.55 2316.98 1479.01 Q2318.81 1475.44 2318.81 1468.33 Q2318.81 1461.2 2316.98 1457.66 Q2315.17 1454.1 2311.54 1454.1 M2311.54 1450.39 Q2317.35 1450.39 2320.4 1455 Q2323.48 1459.58 2323.48 1468.33 Q2323.48 1477.06 2320.4 1481.67 Q2317.35 1486.25 2311.54 1486.25 Q2305.73 1486.25 2302.65 1481.67 Q2299.59 1477.06 2299.59 1468.33 Q2299.59 1459.58 2302.65 1455 Q2305.73 1450.39 2311.54 1450.39 Z" fill="#000000" fill-rule="nonzero" fill-opacity="1" /><path clip-path="url(#clip180)" d="M2341.7 1454.1 Q2338.09 1454.1 2336.26 1457.66 Q2334.46 1461.2 2334.46 1468.33 Q2334.46 1475.44 2336.26 1479.01 Q2338.09 1482.55 2341.7 1482.55 Q2345.34 1482.55 2347.14 1479.01 Q2348.97 1475.44 2348.97 1468.33 Q2348.97 1461.2 2347.14 1457.66 Q2345.34 1454.1 2341.7 1454.1 M2341.7 1450.39 Q2347.51 1450.39 2350.57 1455 Q2353.65 1459.58 2353.65 1468.33 Q2353.65 1477.06 2350.57 1481.67 Q2347.51 1486.25 2341.7 1486.25 Q2335.89 1486.25 2332.81 1481.67 Q2329.76 1477.06 2329.76 1468.33 Q2329.76 1459.58 2332.81 1455 Q2335.89 1450.39 2341.7 1450.39 Z" fill="#000000" fill-rule="nonzero" fill-opacity="1" /><path clip-path="url(#clip180)" d="M1343.25 1520.52 L1351.9 1520.52 L1372.97 1560.28 L1372.97 1520.52 L1379.21 1520.52 L1379.21 1568.04 L1370.56 1568.04 L1349.48 1528.29 L1349.48 1568.04 L1343.25 1568.04 L1343.25 1520.52 Z" fill="#000000" fill-rule="nonzero" fill-opacity="1" /><polyline clip-path="url(#clip182)" style="stroke:#000000; stroke-linecap:round; stroke-linejoin:round; stroke-width:2; stroke-opacity:0.1; fill:none" points="369.703,1388.3 2352.76,1388.3 "/>
<polyline clip-path="url(#clip182)" style="stroke:#000000; stroke-linecap:round; stroke-linejoin:round; stroke-width:2; stroke-opacity:0.1; fill:none" points="369.703,1161.2 2352.76,1161.2 "/>
<polyline clip-path="url(#clip182)" style="stroke:#000000; stroke-linecap:round; stroke-linejoin:round; stroke-width:2; stroke-opacity:0.1; fill:none" points="369.703,934.1 2352.76,934.1 "/>
<polyline clip-path="url(#clip182)" style="stroke:#000000; stroke-linecap:round; stroke-linejoin:round; stroke-width:2; stroke-opacity:0.1; fill:none" points="369.703,706.998 2352.76,706.998 "/>
<polyline clip-path="url(#clip182)" style="stroke:#000000; stroke-linecap:round; stroke-linejoin:round; stroke-width:2; stroke-opacity:0.1; fill:none" points="369.703,479.896 2352.76,479.896 "/>
<polyline clip-path="url(#clip182)" style="stroke:#000000; stroke-linecap:round; stroke-linejoin:round; stroke-width:2; stroke-opacity:0.1; fill:none" points="369.703,252.794 2352.76,252.794 "/>
<polyline clip-path="url(#clip180)" style="stroke:#000000; stroke-linecap:round; stroke-linejoin:round; stroke-width:4; stroke-opacity:1; fill:none" points="369.703,1423.18 369.703,123.472 "/>
<polyline clip-path="url(#clip180)" style="stroke:#000000; stroke-linecap:round; stroke-linejoin:round; stroke-width:4; stroke-opacity:1; fill:none" points="369.703,1388.3 388.601,1388.3 "/>
<polyline clip-path="url(#clip180)" style="stroke:#000000; stroke-linecap:round; stroke-linejoin:round; stroke-width:4; stroke-opacity:1; fill:none" points="369.703,1161.2 388.601,1161.2 "/>
<polyline clip-path="url(#clip180)" style="stroke:#000000; stroke-linecap:round; stroke-linejoin:round; stroke-width:4; stroke-opacity:1; fill:none" points="369.703,934.1 388.601,934.1 "/>
<polyline clip-path="url(#clip180)" style="stroke:#000000; stroke-linecap:round; stroke-linejoin:round; stroke-width:4; stroke-opacity:1; fill:none" points="369.703,706.998 388.601,706.998 "/>
<polyline clip-path="url(#clip180)" style="stroke:#000000; stroke-linecap:round; stroke-linejoin:round; stroke-width:4; stroke-opacity:1; fill:none" points="369.703,479.896 388.601,479.896 "/>
<polyline clip-path="url(#clip180)" style="stroke:#000000; stroke-linecap:round; stroke-linejoin:round; stroke-width:4; stroke-opacity:1; fill:none" points="369.703,252.794 388.601,252.794 "/>
<path clip-path="url(#clip180)" d="M321.759 1374.1 Q318.148 1374.1 316.319 1377.67 Q314.514 1381.21 314.514 1388.34 Q314.514 1395.44 316.319 1399.01 Q318.148 1402.55 321.759 1402.55 Q325.393 1402.55 327.199 1399.01 Q329.028 1395.44 329.028 1388.34 Q329.028 1381.21 327.199 1377.67 Q325.393 1374.1 321.759 1374.1 M321.759 1370.4 Q327.569 1370.4 330.625 1375 Q333.703 1379.59 333.703 1388.34 Q333.703 1397.06 330.625 1401.67 Q327.569 1406.25 321.759 1406.25 Q315.949 1406.25 312.87 1401.67 Q309.815 1397.06 309.815 1388.34 Q309.815 1379.59 312.87 1375 Q315.949 1370.4 321.759 1370.4 Z" fill="#000000" fill-rule="nonzero" fill-opacity="1" /><path clip-path="url(#clip180)" d="M117.878 1150.37 L136.235 1150.37 L136.235 1154.3 L122.161 1154.3 L122.161 1162.78 Q123.179 1162.43 124.198 1162.27 Q125.216 1162.08 126.235 1162.08 Q132.022 1162.08 135.402 1165.25 Q138.781 1168.42 138.781 1173.84 Q138.781 1179.42 135.309 1182.52 Q131.837 1185.6 125.517 1185.6 Q123.341 1185.6 121.073 1185.23 Q118.828 1184.86 116.42 1184.12 L116.42 1179.42 Q118.503 1180.55 120.726 1181.11 Q122.948 1181.67 125.425 1181.67 Q129.429 1181.67 131.767 1179.56 Q134.105 1177.45 134.105 1173.84 Q134.105 1170.23 131.767 1168.12 Q129.429 1166.02 125.425 1166.02 Q123.55 1166.02 121.675 1166.43 Q119.823 1166.85 117.878 1167.73 L117.878 1150.37 Z" fill="#000000" fill-rule="nonzero" fill-opacity="1" /><path clip-path="url(#clip180)" d="M147.994 1179.05 L152.878 1179.05 L152.878 1184.93 L147.994 1184.93 L147.994 1179.05 Z" fill="#000000" fill-rule="nonzero" fill-opacity="1" /><path clip-path="url(#clip180)" d="M173.063 1153.45 Q169.452 1153.45 167.624 1157.01 Q165.818 1160.55 165.818 1167.68 Q165.818 1174.79 167.624 1178.35 Q169.452 1181.9 173.063 1181.9 Q176.698 1181.9 178.503 1178.35 Q180.332 1174.79 180.332 1167.68 Q180.332 1160.55 178.503 1157.01 Q176.698 1153.45 173.063 1153.45 M173.063 1149.74 Q178.874 1149.74 181.929 1154.35 Q185.008 1158.93 185.008 1167.68 Q185.008 1176.41 181.929 1181.02 Q178.874 1185.6 173.063 1185.6 Q167.253 1185.6 164.175 1181.02 Q161.119 1176.41 161.119 1167.68 Q161.119 1158.93 164.175 1154.35 Q167.253 1149.74 173.063 1149.74 Z" fill="#000000" fill-rule="nonzero" fill-opacity="1" /><path clip-path="url(#clip180)" d="M203.225 1153.45 Q199.614 1153.45 197.785 1157.01 Q195.98 1160.55 195.98 1167.68 Q195.98 1174.79 197.785 1178.35 Q199.614 1181.9 203.225 1181.9 Q206.859 1181.9 208.665 1178.35 Q210.494 1174.79 210.494 1167.68 Q210.494 1160.55 208.665 1157.01 Q206.859 1153.45 203.225 1153.45 M203.225 1149.74 Q209.035 1149.74 212.091 1154.35 Q215.17 1158.93 215.17 1167.68 Q215.17 1176.41 212.091 1181.02 Q209.035 1185.6 203.225 1185.6 Q197.415 1185.6 194.336 1181.02 Q191.281 1176.41 191.281 1167.68 Q191.281 1158.93 194.336 1154.35 Q197.415 1149.74 203.225 1149.74 Z" fill="#000000" fill-rule="nonzero" fill-opacity="1" /><path clip-path="url(#clip180)" d="M251.558 1159.47 L240.98 1170.09 L251.558 1180.67 L248.804 1183.47 L238.179 1172.85 L227.554 1183.47 L224.822 1180.67 L235.378 1170.09 L224.822 1159.47 L227.554 1156.67 L238.179 1167.29 L248.804 1156.67 L251.558 1159.47 Z" fill="#000000" fill-rule="nonzero" fill-opacity="1" /><path clip-path="url(#clip180)" d="M263.919 1180.99 L271.558 1180.99 L271.558 1154.63 L263.248 1156.29 L263.248 1152.04 L271.512 1150.37 L276.188 1150.37 L276.188 1180.99 L283.827 1180.99 L283.827 1184.93 L263.919 1184.93 L263.919 1180.99 Z" fill="#000000" fill-rule="nonzero" fill-opacity="1" /><path clip-path="url(#clip180)" d="M303.271 1153.45 Q299.66 1153.45 297.831 1157.01 Q296.026 1160.55 296.026 1167.68 Q296.026 1174.79 297.831 1178.35 Q299.66 1181.9 303.271 1181.9 Q306.905 1181.9 308.711 1178.35 Q310.539 1174.79 310.539 1167.68 Q310.539 1160.55 308.711 1157.01 Q306.905 1153.45 303.271 1153.45 M303.271 1149.74 Q309.081 1149.74 312.137 1154.35 Q315.215 1158.93 315.215 1167.68 Q315.215 1176.41 312.137 1181.02 Q309.081 1185.6 303.271 1185.6 Q297.461 1185.6 294.382 1181.02 Q291.327 1176.41 291.327 1167.68 Q291.327 1158.93 294.382 1154.35 Q297.461 1149.74 303.271 1149.74 Z" fill="#000000" fill-rule="nonzero" fill-opacity="1" /><path clip-path="url(#clip180)" d="M327.911 1142.38 Q330.638 1142.96 332.161 1144.8 Q333.703 1146.65 333.703 1149.36 Q333.703 1153.51 330.845 1155.79 Q327.986 1158.06 322.72 1158.06 Q320.952 1158.06 319.071 1157.71 Q317.209 1157.37 315.215 1156.67 L315.215 1153 Q316.795 1153.93 318.676 1154.4 Q320.557 1154.87 322.607 1154.87 Q326.18 1154.87 328.042 1153.46 Q329.923 1152.05 329.923 1149.36 Q329.923 1146.87 328.174 1145.48 Q326.444 1144.07 323.34 1144.07 L320.068 1144.07 L320.068 1140.95 L323.491 1140.95 Q326.293 1140.95 327.779 1139.84 Q329.265 1138.71 329.265 1136.6 Q329.265 1134.44 327.723 1133.29 Q326.199 1132.13 323.34 1132.13 Q321.779 1132.13 319.993 1132.47 Q318.206 1132.81 316.062 1133.52 L316.062 1130.13 Q318.225 1129.53 320.105 1129.23 Q322.005 1128.93 323.679 1128.93 Q328.005 1128.93 330.525 1130.91 Q333.045 1132.86 333.045 1136.21 Q333.045 1138.54 331.71 1140.16 Q330.374 1141.76 327.911 1142.38 Z" fill="#000000" fill-rule="nonzero" fill-opacity="1" /><path clip-path="url(#clip180)" d="M116.668 953.892 L124.306 953.892 L124.306 927.526 L115.996 929.193 L115.996 924.934 L124.26 923.267 L128.936 923.267 L128.936 953.892 L136.575 953.892 L136.575 957.827 L116.668 957.827 L116.668 953.892 Z" fill="#000000" fill-rule="nonzero" fill-opacity="1" /><path clip-path="url(#clip180)" d="M146.019 951.948 L150.903 951.948 L150.903 957.827 L146.019 957.827 L146.019 951.948 Z" fill="#000000" fill-rule="nonzero" fill-opacity="1" /><path clip-path="url(#clip180)" d="M171.089 926.346 Q167.477 926.346 165.649 929.911 Q163.843 933.452 163.843 940.582 Q163.843 947.688 165.649 951.253 Q167.477 954.795 171.089 954.795 Q174.723 954.795 176.528 951.253 Q178.357 947.688 178.357 940.582 Q178.357 933.452 176.528 929.911 Q174.723 926.346 171.089 926.346 M171.089 922.642 Q176.899 922.642 179.954 927.249 Q183.033 931.832 183.033 940.582 Q183.033 949.309 179.954 953.915 Q176.899 958.498 171.089 958.498 Q165.278 958.498 162.2 953.915 Q159.144 949.309 159.144 940.582 Q159.144 931.832 162.2 927.249 Q165.278 922.642 171.089 922.642 Z" fill="#000000" fill-rule="nonzero" fill-opacity="1" /><path clip-path="url(#clip180)" d="M201.25 926.346 Q197.639 926.346 195.811 929.911 Q194.005 933.452 194.005 940.582 Q194.005 947.688 195.811 951.253 Q197.639 954.795 201.25 954.795 Q204.885 954.795 206.69 951.253 Q208.519 947.688 208.519 940.582 Q208.519 933.452 206.69 929.911 Q204.885 926.346 201.25 926.346 M201.25 922.642 Q207.061 922.642 210.116 927.249 Q213.195 931.832 213.195 940.582 Q213.195 949.309 210.116 953.915 Q207.061 958.498 201.25 958.498 Q195.44 958.498 192.362 953.915 Q189.306 949.309 189.306 940.582 Q189.306 931.832 192.362 927.249 Q195.44 922.642 201.25 922.642 Z" fill="#000000" fill-rule="nonzero" fill-opacity="1" /><path clip-path="url(#clip180)" d="M249.584 932.364 L239.005 942.989 L249.584 953.568 L246.829 956.369 L236.204 945.744 L225.579 956.369 L222.848 953.568 L233.403 942.989 L222.848 932.364 L225.579 929.563 L236.204 940.188 L246.829 929.563 L249.584 932.364 Z" fill="#000000" fill-rule="nonzero" fill-opacity="1" /><path clip-path="url(#clip180)" d="M261.945 953.892 L269.583 953.892 L269.583 927.526 L261.273 929.193 L261.273 924.934 L269.537 923.267 L274.213 923.267 L274.213 953.892 L281.852 953.892 L281.852 957.827 L261.945 957.827 L261.945 953.892 Z" fill="#000000" fill-rule="nonzero" fill-opacity="1" /><path clip-path="url(#clip180)" d="M301.296 926.346 Q297.685 926.346 295.856 929.911 Q294.051 933.452 294.051 940.582 Q294.051 947.688 295.856 951.253 Q297.685 954.795 301.296 954.795 Q304.93 954.795 306.736 951.253 Q308.565 947.688 308.565 940.582 Q308.565 933.452 306.736 929.911 Q304.93 926.346 301.296 926.346 M301.296 922.642 Q307.106 922.642 310.162 927.249 Q313.241 931.832 313.241 940.582 Q313.241 949.309 310.162 953.915 Q307.106 958.498 301.296 958.498 Q295.486 958.498 292.407 953.915 Q289.352 949.309 289.352 940.582 Q289.352 931.832 292.407 927.249 Q295.486 922.642 301.296 922.642 Z" fill="#000000" fill-rule="nonzero" fill-opacity="1" /><path clip-path="url(#clip180)" d="M325.917 905.647 L316.325 920.637 L325.917 920.637 L325.917 905.647 M324.92 902.337 L329.697 902.337 L329.697 920.637 L333.703 920.637 L333.703 923.796 L329.697 923.796 L329.697 930.417 L325.917 930.417 L325.917 923.796 L313.241 923.796 L313.241 920.129 L324.92 902.337 Z" fill="#000000" fill-rule="nonzero" fill-opacity="1" /><path clip-path="url(#clip180)" d="M116.668 726.79 L124.306 726.79 L124.306 700.424 L115.996 702.091 L115.996 697.832 L124.26 696.165 L128.936 696.165 L128.936 726.79 L136.575 726.79 L136.575 730.725 L116.668 730.725 L116.668 726.79 Z" fill="#000000" fill-rule="nonzero" fill-opacity="1" /><path clip-path="url(#clip180)" d="M146.019 724.846 L150.903 724.846 L150.903 730.725 L146.019 730.725 L146.019 724.846 Z" fill="#000000" fill-rule="nonzero" fill-opacity="1" /><path clip-path="url(#clip180)" d="M161.135 696.165 L179.491 696.165 L179.491 700.1 L165.417 700.1 L165.417 708.573 Q166.436 708.225 167.454 708.063 Q168.473 707.878 169.491 707.878 Q175.278 707.878 178.658 711.049 Q182.038 714.221 182.038 719.637 Q182.038 725.216 178.565 728.318 Q175.093 731.397 168.774 731.397 Q166.598 731.397 164.329 731.026 Q162.084 730.656 159.677 729.915 L159.677 725.216 Q161.76 726.35 163.982 726.906 Q166.204 727.461 168.681 727.461 Q172.686 727.461 175.024 725.355 Q177.362 723.248 177.362 719.637 Q177.362 716.026 175.024 713.92 Q172.686 711.813 168.681 711.813 Q166.806 711.813 164.931 712.23 Q163.079 712.647 161.135 713.526 L161.135 696.165 Z" fill="#000000" fill-rule="nonzero" fill-opacity="1" /><path clip-path="url(#clip180)" d="M201.25 699.244 Q197.639 699.244 195.811 702.809 Q194.005 706.35 194.005 713.48 Q194.005 720.586 195.811 724.151 Q197.639 727.693 201.25 727.693 Q204.885 727.693 206.69 724.151 Q208.519 720.586 208.519 713.48 Q208.519 706.35 206.69 702.809 Q204.885 699.244 201.25 699.244 M201.25 695.54 Q207.061 695.54 210.116 700.147 Q213.195 704.73 213.195 713.48 Q213.195 722.207 210.116 726.813 Q207.061 731.397 201.25 731.397 Q195.44 731.397 192.362 726.813 Q189.306 722.207 189.306 713.48 Q189.306 704.73 192.362 700.147 Q195.44 695.54 201.25 695.54 Z" fill="#000000" fill-rule="nonzero" fill-opacity="1" /><path clip-path="url(#clip180)" d="M249.584 705.262 L239.005 715.887 L249.584 726.466 L246.829 729.267 L236.204 718.642 L225.579 729.267 L222.848 726.466 L233.403 715.887 L222.848 705.262 L225.579 702.461 L236.204 713.086 L246.829 702.461 L249.584 705.262 Z" fill="#000000" fill-rule="nonzero" fill-opacity="1" /><path clip-path="url(#clip180)" d="M261.945 726.79 L269.583 726.79 L269.583 700.424 L261.273 702.091 L261.273 697.832 L269.537 696.165 L274.213 696.165 L274.213 726.79 L281.852 726.79 L281.852 730.725 L261.945 730.725 L261.945 726.79 Z" fill="#000000" fill-rule="nonzero" fill-opacity="1" /><path clip-path="url(#clip180)" d="M301.296 699.244 Q297.685 699.244 295.856 702.809 Q294.051 706.35 294.051 713.48 Q294.051 720.586 295.856 724.151 Q297.685 727.693 301.296 727.693 Q304.93 727.693 306.736 724.151 Q308.565 720.586 308.565 713.48 Q308.565 706.35 306.736 702.809 Q304.93 699.244 301.296 699.244 M301.296 695.54 Q307.106 695.54 310.162 700.147 Q313.241 704.73 313.241 713.48 Q313.241 722.207 310.162 726.813 Q307.106 731.397 301.296 731.397 Q295.486 731.397 292.407 726.813 Q289.352 722.207 289.352 713.48 Q289.352 704.73 292.407 700.147 Q295.486 695.54 301.296 695.54 Z" fill="#000000" fill-rule="nonzero" fill-opacity="1" /><path clip-path="url(#clip180)" d="M325.917 678.545 L316.325 693.535 L325.917 693.535 L325.917 678.545 M324.92 675.235 L329.697 675.235 L329.697 693.535 L333.703 693.535 L333.703 696.694 L329.697 696.694 L329.697 703.315 L325.917 703.315 L325.917 696.694 L313.241 696.694 L313.241 693.027 L324.92 675.235 Z" fill="#000000" fill-rule="nonzero" fill-opacity="1" /><path clip-path="url(#clip180)" d="M119.885 499.688 L136.204 499.688 L136.204 503.623 L114.26 503.623 L114.26 499.688 Q116.922 496.934 121.505 492.304 Q126.112 487.651 127.292 486.309 Q129.538 483.785 130.417 482.049 Q131.32 480.29 131.32 478.6 Q131.32 475.846 129.376 474.11 Q127.455 472.373 124.353 472.373 Q122.154 472.373 119.7 473.137 Q117.269 473.901 114.492 475.452 L114.492 470.73 Q117.316 469.596 119.769 469.017 Q122.223 468.438 124.26 468.438 Q129.63 468.438 132.825 471.123 Q136.019 473.809 136.019 478.299 Q136.019 480.429 135.209 482.35 Q134.422 484.248 132.316 486.841 Q131.737 487.512 128.635 490.73 Q125.533 493.924 119.885 499.688 Z" fill="#000000" fill-rule="nonzero" fill-opacity="1" /><path clip-path="url(#clip180)" d="M146.019 497.744 L150.903 497.744 L150.903 503.623 L146.019 503.623 L146.019 497.744 Z" fill="#000000" fill-rule="nonzero" fill-opacity="1" /><path clip-path="url(#clip180)" d="M171.089 472.142 Q167.477 472.142 165.649 475.707 Q163.843 479.248 163.843 486.378 Q163.843 493.484 165.649 497.049 Q167.477 500.591 171.089 500.591 Q174.723 500.591 176.528 497.049 Q178.357 493.484 178.357 486.378 Q178.357 479.248 176.528 475.707 Q174.723 472.142 171.089 472.142 M171.089 468.438 Q176.899 468.438 179.954 473.045 Q183.033 477.628 183.033 486.378 Q183.033 495.105 179.954 499.711 Q176.899 504.295 171.089 504.295 Q165.278 504.295 162.2 499.711 Q159.144 495.105 159.144 486.378 Q159.144 477.628 162.2 473.045 Q165.278 468.438 171.089 468.438 Z" fill="#000000" fill-rule="nonzero" fill-opacity="1" /><path clip-path="url(#clip180)" d="M201.25 472.142 Q197.639 472.142 195.811 475.707 Q194.005 479.248 194.005 486.378 Q194.005 493.484 195.811 497.049 Q197.639 500.591 201.25 500.591 Q204.885 500.591 206.69 497.049 Q208.519 493.484 208.519 486.378 Q208.519 479.248 206.69 475.707 Q204.885 472.142 201.25 472.142 M201.25 468.438 Q207.061 468.438 210.116 473.045 Q213.195 477.628 213.195 486.378 Q213.195 495.105 210.116 499.711 Q207.061 504.295 201.25 504.295 Q195.44 504.295 192.362 499.711 Q189.306 495.105 189.306 486.378 Q189.306 477.628 192.362 473.045 Q195.44 468.438 201.25 468.438 Z" fill="#000000" fill-rule="nonzero" fill-opacity="1" /><path clip-path="url(#clip180)" d="M249.584 478.16 L239.005 488.785 L249.584 499.364 L246.829 502.165 L236.204 491.54 L225.579 502.165 L222.848 499.364 L233.403 488.785 L222.848 478.16 L225.579 475.36 L236.204 485.985 L246.829 475.36 L249.584 478.16 Z" fill="#000000" fill-rule="nonzero" fill-opacity="1" /><path clip-path="url(#clip180)" d="M261.945 499.688 L269.583 499.688 L269.583 473.323 L261.273 474.989 L261.273 470.73 L269.537 469.063 L274.213 469.063 L274.213 499.688 L281.852 499.688 L281.852 503.623 L261.945 503.623 L261.945 499.688 Z" fill="#000000" fill-rule="nonzero" fill-opacity="1" /><path clip-path="url(#clip180)" d="M301.296 472.142 Q297.685 472.142 295.856 475.707 Q294.051 479.248 294.051 486.378 Q294.051 493.484 295.856 497.049 Q297.685 500.591 301.296 500.591 Q304.93 500.591 306.736 497.049 Q308.565 493.484 308.565 486.378 Q308.565 479.248 306.736 475.707 Q304.93 472.142 301.296 472.142 M301.296 468.438 Q307.106 468.438 310.162 473.045 Q313.241 477.628 313.241 486.378 Q313.241 495.105 310.162 499.711 Q307.106 504.295 301.296 504.295 Q295.486 504.295 292.407 499.711 Q289.352 495.105 289.352 486.378 Q289.352 477.628 292.407 473.045 Q295.486 468.438 301.296 468.438 Z" fill="#000000" fill-rule="nonzero" fill-opacity="1" /><path clip-path="url(#clip180)" d="M325.917 451.443 L316.325 466.433 L325.917 466.433 L325.917 451.443 M324.92 448.133 L329.697 448.133 L329.697 466.433 L333.703 466.433 L333.703 469.593 L329.697 469.593 L329.697 476.213 L325.917 476.213 L325.917 469.593 L313.241 469.593 L313.241 465.925 L324.92 448.133 Z" fill="#000000" fill-rule="nonzero" fill-opacity="1" /><path clip-path="url(#clip180)" d="M119.885 272.586 L136.204 272.586 L136.204 276.521 L114.26 276.521 L114.26 272.586 Q116.922 269.832 121.505 265.202 Q126.112 260.549 127.292 259.207 Q129.538 256.684 130.417 254.947 Q131.32 253.188 131.32 251.498 Q131.32 248.744 129.376 247.008 Q127.455 245.272 124.353 245.272 Q122.154 245.272 119.7 246.035 Q117.269 246.799 114.492 248.35 L114.492 243.628 Q117.316 242.494 119.769 241.915 Q122.223 241.336 124.26 241.336 Q129.63 241.336 132.825 244.022 Q136.019 246.707 136.019 251.197 Q136.019 253.327 135.209 255.248 Q134.422 257.147 132.316 259.739 Q131.737 260.41 128.635 263.628 Q125.533 266.822 119.885 272.586 Z" fill="#000000" fill-rule="nonzero" fill-opacity="1" /><path clip-path="url(#clip180)" d="M146.019 270.642 L150.903 270.642 L150.903 276.521 L146.019 276.521 L146.019 270.642 Z" fill="#000000" fill-rule="nonzero" fill-opacity="1" /><path clip-path="url(#clip180)" d="M161.135 241.961 L179.491 241.961 L179.491 245.897 L165.417 245.897 L165.417 254.369 Q166.436 254.022 167.454 253.859 Q168.473 253.674 169.491 253.674 Q175.278 253.674 178.658 256.846 Q182.038 260.017 182.038 265.433 Q182.038 271.012 178.565 274.114 Q175.093 277.193 168.774 277.193 Q166.598 277.193 164.329 276.822 Q162.084 276.452 159.677 275.711 L159.677 271.012 Q161.76 272.146 163.982 272.702 Q166.204 273.258 168.681 273.258 Q172.686 273.258 175.024 271.151 Q177.362 269.045 177.362 265.433 Q177.362 261.822 175.024 259.716 Q172.686 257.609 168.681 257.609 Q166.806 257.609 164.931 258.026 Q163.079 258.443 161.135 259.322 L161.135 241.961 Z" fill="#000000" fill-rule="nonzero" fill-opacity="1" /><path clip-path="url(#clip180)" d="M201.25 245.04 Q197.639 245.04 195.811 248.605 Q194.005 252.147 194.005 259.276 Q194.005 266.383 195.811 269.947 Q197.639 273.489 201.25 273.489 Q204.885 273.489 206.69 269.947 Q208.519 266.383 208.519 259.276 Q208.519 252.147 206.69 248.605 Q204.885 245.04 201.25 245.04 M201.25 241.336 Q207.061 241.336 210.116 245.943 Q213.195 250.526 213.195 259.276 Q213.195 268.003 210.116 272.609 Q207.061 277.193 201.25 277.193 Q195.44 277.193 192.362 272.609 Q189.306 268.003 189.306 259.276 Q189.306 250.526 192.362 245.943 Q195.44 241.336 201.25 241.336 Z" fill="#000000" fill-rule="nonzero" fill-opacity="1" /><path clip-path="url(#clip180)" d="M249.584 251.059 L239.005 261.684 L249.584 272.262 L246.829 275.063 L236.204 264.438 L225.579 275.063 L222.848 272.262 L233.403 261.684 L222.848 251.059 L225.579 248.258 L236.204 258.883 L246.829 248.258 L249.584 251.059 Z" fill="#000000" fill-rule="nonzero" fill-opacity="1" /><path clip-path="url(#clip180)" d="M261.945 272.586 L269.583 272.586 L269.583 246.221 L261.273 247.887 L261.273 243.628 L269.537 241.961 L274.213 241.961 L274.213 272.586 L281.852 272.586 L281.852 276.521 L261.945 276.521 L261.945 272.586 Z" fill="#000000" fill-rule="nonzero" fill-opacity="1" /><path clip-path="url(#clip180)" d="M301.296 245.04 Q297.685 245.04 295.856 248.605 Q294.051 252.147 294.051 259.276 Q294.051 266.383 295.856 269.947 Q297.685 273.489 301.296 273.489 Q304.93 273.489 306.736 269.947 Q308.565 266.383 308.565 259.276 Q308.565 252.147 306.736 248.605 Q304.93 245.04 301.296 245.04 M301.296 241.336 Q307.106 241.336 310.162 245.943 Q313.241 250.526 313.241 259.276 Q313.241 268.003 310.162 272.609 Q307.106 277.193 301.296 277.193 Q295.486 277.193 292.407 272.609 Q289.352 268.003 289.352 259.276 Q289.352 250.526 292.407 245.943 Q295.486 241.336 301.296 241.336 Z" fill="#000000" fill-rule="nonzero" fill-opacity="1" /><path clip-path="url(#clip180)" d="M325.917 224.341 L316.325 239.331 L325.917 239.331 L325.917 224.341 M324.92 221.031 L329.697 221.031 L329.697 239.331 L333.703 239.331 L333.703 242.491 L329.697 242.491 L329.697 249.111 L325.917 249.111 L325.917 242.491 L313.241 242.491 L313.241 238.823 L324.92 221.031 Z" fill="#000000" fill-rule="nonzero" fill-opacity="1" /><path clip-path="url(#clip180)" d="M16.4842 923.811 L16.4842 883.612 L21.895 883.612 L21.895 900.481 L64.0042 900.481 L64.0042 906.942 L21.895 906.942 L21.895 923.811 L16.4842 923.811 Z" fill="#000000" fill-rule="nonzero" fill-opacity="1" /><path clip-path="url(#clip180)" d="M28.3562 879.665 L28.3562 873.809 L64.0042 873.809 L64.0042 879.665 L28.3562 879.665 M14.479 879.665 L14.479 873.809 L21.895 873.809 L21.895 879.665 L14.479 879.665 Z" fill="#000000" fill-rule="nonzero" fill-opacity="1" /><path clip-path="url(#clip180)" d="M35.1993 833.8 Q31.2526 831.604 29.3747 828.548 Q27.4968 825.493 27.4968 821.355 Q27.4968 815.785 31.4117 812.762 Q35.2948 809.738 42.4881 809.738 L64.0042 809.738 L64.0042 815.626 L42.679 815.626 Q37.5546 815.626 35.072 817.44 Q32.5894 819.255 32.5894 822.978 Q32.5894 827.53 35.6131 830.172 Q38.6368 832.814 43.8567 832.814 L64.0042 832.814 L64.0042 838.702 L42.679 838.702 Q37.5228 838.702 35.072 840.516 Q32.5894 842.33 32.5894 846.118 Q32.5894 850.606 35.6449 853.247 Q38.6686 855.889 43.8567 855.889 L64.0042 855.889 L64.0042 861.777 L28.3562 861.777 L28.3562 855.889 L33.8944 855.889 Q30.616 853.884 29.0564 851.083 Q27.4968 848.282 27.4968 844.431 Q27.4968 840.548 29.4702 837.842 Q31.4436 835.105 35.1993 833.8 Z" fill="#000000" fill-rule="nonzero" fill-opacity="1" /><path clip-path="url(#clip180)" d="M44.7161 767.565 L47.5806 767.565 L47.5806 794.492 Q53.6281 794.11 56.8109 790.864 Q59.9619 787.585 59.9619 781.761 Q59.9619 778.387 59.1344 775.236 Q58.3069 772.053 56.6518 768.934 L62.1899 768.934 Q63.5267 772.085 64.227 775.395 Q64.9272 778.705 64.9272 782.111 Q64.9272 790.641 59.9619 795.638 Q54.9967 800.603 46.5303 800.603 Q37.7774 800.603 32.6531 795.892 Q27.4968 791.15 27.4968 783.129 Q27.4968 775.936 32.1438 771.766 Q36.7589 767.565 44.7161 767.565 M42.9973 773.421 Q38.1912 773.485 35.3266 776.127 Q32.4621 778.737 32.4621 783.066 Q32.4621 787.967 35.2312 790.927 Q38.0002 793.855 43.0292 794.301 L42.9973 773.421 Z" fill="#000000" fill-rule="nonzero" fill-opacity="1" /><path clip-path="url(#clip180)" d="M14.5426 723.164 Q21.8632 727.429 29.0246 729.498 Q36.186 731.567 43.5384 731.567 Q50.8908 731.567 58.1159 729.498 Q65.3091 727.397 72.5979 723.164 L72.5979 728.257 Q65.1182 733.031 57.8931 735.418 Q50.668 737.774 43.5384 737.774 Q36.4406 737.774 29.2474 735.418 Q22.0542 733.063 14.5426 728.257 L14.5426 723.164 Z" fill="#000000" fill-rule="nonzero" fill-opacity="1" /><path clip-path="url(#clip180)" d="M42.4881 682.169 L64.0042 682.169 L64.0042 688.026 L42.679 688.026 Q37.6183 688.026 35.1038 689.999 Q32.5894 691.972 32.5894 695.919 Q32.5894 700.661 35.6131 703.399 Q38.6368 706.136 43.8567 706.136 L64.0042 706.136 L64.0042 712.024 L28.3562 712.024 L28.3562 706.136 L33.8944 706.136 Q30.6797 704.035 29.0883 701.203 Q27.4968 698.338 27.4968 694.614 Q27.4968 688.471 31.3163 685.32 Q35.1038 682.169 42.4881 682.169 Z" fill="#000000" fill-rule="nonzero" fill-opacity="1" /><path clip-path="url(#clip180)" d="M29.4065 647.762 L34.9447 647.762 Q33.6716 650.245 33.035 652.919 Q32.3984 655.592 32.3984 658.457 Q32.3984 662.817 33.7352 665.013 Q35.072 667.178 37.7456 667.178 Q39.7826 667.178 40.9603 665.618 Q42.1061 664.059 43.1565 659.348 L43.6021 657.343 Q44.9389 651.104 47.3897 648.494 Q49.8086 645.853 54.1691 645.853 Q59.1344 645.853 62.0308 649.799 Q64.9272 653.714 64.9272 660.589 Q64.9272 663.454 64.3543 666.573 Q63.8132 669.66 62.6992 673.098 L56.6518 673.098 Q58.3387 669.851 59.198 666.7 Q60.0256 663.549 60.0256 660.462 Q60.0256 656.324 58.6251 654.096 Q57.1929 651.868 54.6147 651.868 Q52.2276 651.868 50.9545 653.492 Q49.6813 655.083 48.5037 660.526 L48.0262 662.563 Q46.8804 668.005 44.5251 670.424 Q42.138 672.843 38.0002 672.843 Q32.9713 672.843 30.2341 669.279 Q27.4968 665.714 27.4968 659.157 Q27.4968 655.911 27.9743 653.046 Q28.4517 650.181 29.4065 647.762 Z" fill="#000000" fill-rule="nonzero" fill-opacity="1" /><path clip-path="url(#clip180)" d="M14.5426 637.45 L14.5426 632.357 Q22.0542 627.583 29.2474 625.228 Q36.4406 622.841 43.5384 622.841 Q50.668 622.841 57.8931 625.228 Q65.1182 627.583 72.5979 632.357 L72.5979 637.45 Q65.3091 633.217 58.1159 631.148 Q50.8908 629.047 43.5384 629.047 Q36.186 629.047 29.0246 631.148 Q21.8632 633.217 14.5426 637.45 Z" fill="#000000" fill-rule="nonzero" fill-opacity="1" /><path clip-path="url(#clip180)" d="M767.61 12.096 L818.773 12.096 L818.773 18.9825 L797.303 18.9825 L797.303 72.576 L789.08 72.576 L789.08 18.9825 L767.61 18.9825 L767.61 12.096 Z" fill="#000000" fill-rule="nonzero" fill-opacity="1" /><path clip-path="url(#clip180)" d="M823.796 27.2059 L831.25 27.2059 L831.25 72.576 L823.796 72.576 L823.796 27.2059 M823.796 9.54393 L831.25 9.54393 L831.25 18.9825 L823.796 18.9825 L823.796 9.54393 Z" fill="#000000" fill-rule="nonzero" fill-opacity="1" /><path clip-path="url(#clip180)" d="M882.17 35.9153 Q884.965 30.8922 888.854 28.5022 Q892.743 26.1121 898.009 26.1121 Q905.098 26.1121 908.946 31.0947 Q912.795 36.0368 912.795 45.1919 L912.795 72.576 L905.3 72.576 L905.3 45.4349 Q905.3 38.913 902.991 35.7533 Q900.682 32.5936 895.943 32.5936 Q890.15 32.5936 886.788 36.4419 Q883.426 40.2903 883.426 46.9338 L883.426 72.576 L875.931 72.576 L875.931 45.4349 Q875.931 38.8725 873.622 35.7533 Q871.313 32.5936 866.493 32.5936 Q860.781 32.5936 857.419 36.4824 Q854.056 40.3308 854.056 46.9338 L854.056 72.576 L846.562 72.576 L846.562 27.2059 L854.056 27.2059 L854.056 34.2544 Q856.609 30.082 860.173 28.0971 Q863.738 26.1121 868.64 26.1121 Q873.582 26.1121 877.025 28.6237 Q880.509 31.1352 882.17 35.9153 Z" fill="#000000" fill-rule="nonzero" fill-opacity="1" /><path clip-path="url(#clip180)" d="M966.469 48.0275 L966.469 51.6733 L932.198 51.6733 Q932.685 59.3701 936.816 63.421 Q940.989 67.4314 948.402 67.4314 Q952.696 67.4314 956.706 66.3781 Q960.757 65.3249 964.727 63.2184 L964.727 70.267 Q960.717 71.9684 956.504 72.8596 Q952.291 73.7508 947.956 73.7508 Q937.1 73.7508 930.74 67.4314 Q924.421 61.1119 924.421 50.3365 Q924.421 39.1965 930.416 32.6746 Q936.452 26.1121 946.66 26.1121 Q955.815 26.1121 961.122 32.0264 Q966.469 37.9003 966.469 48.0275 M959.015 45.84 Q958.934 39.7232 955.572 36.0774 Q952.25 32.4315 946.741 32.4315 Q940.503 32.4315 936.735 35.9558 Q933.009 39.4801 932.441 45.8805 L959.015 45.84 Z" fill="#000000" fill-rule="nonzero" fill-opacity="1" /><path clip-path="url(#clip180)" d="M1012.45 14.324 L1012.45 27.2059 L1027.8 27.2059 L1027.8 32.9987 L1012.45 32.9987 L1012.45 57.6282 Q1012.45 63.1779 1013.95 64.7578 Q1015.48 66.3376 1020.14 66.3376 L1027.8 66.3376 L1027.8 72.576 L1020.14 72.576 Q1011.52 72.576 1008.23 69.3758 Q1004.95 66.1351 1004.95 57.6282 L1004.95 32.9987 L999.484 32.9987 L999.484 27.2059 L1004.95 27.2059 L1004.95 14.324 L1012.45 14.324 Z" fill="#000000" fill-rule="nonzero" fill-opacity="1" /><path clip-path="url(#clip180)" d="M1055.18 32.4315 Q1049.19 32.4315 1045.7 37.1306 Q1042.22 41.7891 1042.22 49.9314 Q1042.22 58.0738 1045.66 62.7728 Q1049.15 67.4314 1055.18 67.4314 Q1061.14 67.4314 1064.62 62.7323 Q1068.11 58.0333 1068.11 49.9314 Q1068.11 41.8701 1064.62 37.1711 Q1061.14 32.4315 1055.18 32.4315 M1055.18 26.1121 Q1064.91 26.1121 1070.46 32.4315 Q1076.01 38.7509 1076.01 49.9314 Q1076.01 61.0714 1070.46 67.4314 Q1064.91 73.7508 1055.18 73.7508 Q1045.42 73.7508 1039.87 67.4314 Q1034.36 61.0714 1034.36 49.9314 Q1034.36 38.7509 1039.87 32.4315 Q1045.42 26.1121 1055.18 26.1121 Z" fill="#000000" fill-rule="nonzero" fill-opacity="1" /><path clip-path="url(#clip180)" d="M1147.38 28.9478 L1147.38 35.9153 Q1144.22 34.1734 1141.02 33.3227 Q1137.86 32.4315 1134.62 32.4315 Q1127.37 32.4315 1123.36 37.0496 Q1119.35 41.6271 1119.35 49.9314 Q1119.35 58.2358 1123.36 62.8538 Q1127.37 67.4314 1134.62 67.4314 Q1137.86 67.4314 1141.02 66.5807 Q1144.22 65.6895 1147.38 63.9476 L1147.38 70.8341 Q1144.26 72.2924 1140.9 73.0216 Q1137.58 73.7508 1133.81 73.7508 Q1123.56 73.7508 1117.53 67.3098 Q1111.49 60.8689 1111.49 49.9314 Q1111.49 38.832 1117.57 32.472 Q1123.68 26.1121 1134.3 26.1121 Q1137.74 26.1121 1141.02 26.8413 Q1144.3 27.5299 1147.38 28.9478 Z" fill="#000000" fill-rule="nonzero" fill-opacity="1" /><path clip-path="url(#clip180)" d="M1177.93 32.4315 Q1171.93 32.4315 1168.45 37.1306 Q1164.96 41.7891 1164.96 49.9314 Q1164.96 58.0738 1168.41 62.7728 Q1171.89 67.4314 1177.93 67.4314 Q1183.88 67.4314 1187.36 62.7323 Q1190.85 58.0333 1190.85 49.9314 Q1190.85 41.8701 1187.36 37.1711 Q1183.88 32.4315 1177.93 32.4315 M1177.93 26.1121 Q1187.65 26.1121 1193.2 32.4315 Q1198.75 38.7509 1198.75 49.9314 Q1198.75 61.0714 1193.2 67.4314 Q1187.65 73.7508 1177.93 73.7508 Q1168.16 73.7508 1162.61 67.4314 Q1157.1 61.0714 1157.1 49.9314 Q1157.1 38.7509 1162.61 32.4315 Q1168.16 26.1121 1177.93 26.1121 Z" fill="#000000" fill-rule="nonzero" fill-opacity="1" /><path clip-path="url(#clip180)" d="M1246.43 35.9153 Q1249.22 30.8922 1253.11 28.5022 Q1257 26.1121 1262.27 26.1121 Q1269.36 26.1121 1273.2 31.0947 Q1277.05 36.0368 1277.05 45.1919 L1277.05 72.576 L1269.56 72.576 L1269.56 45.4349 Q1269.56 38.913 1267.25 35.7533 Q1264.94 32.5936 1260.2 32.5936 Q1254.41 32.5936 1251.05 36.4419 Q1247.68 40.2903 1247.68 46.9338 L1247.68 72.576 L1240.19 72.576 L1240.19 45.4349 Q1240.19 38.8725 1237.88 35.7533 Q1235.57 32.5936 1230.75 32.5936 Q1225.04 32.5936 1221.68 36.4824 Q1218.31 40.3308 1218.31 46.9338 L1218.31 72.576 L1210.82 72.576 L1210.82 27.2059 L1218.31 27.2059 L1218.31 34.2544 Q1220.87 30.082 1224.43 28.0971 Q1228 26.1121 1232.9 26.1121 Q1237.84 26.1121 1241.28 28.6237 Q1244.77 31.1352 1246.43 35.9153 Z" fill="#000000" fill-rule="nonzero" fill-opacity="1" /><path clip-path="url(#clip180)" d="M1299.13 65.7705 L1299.13 89.8329 L1291.64 89.8329 L1291.64 27.2059 L1299.13 27.2059 L1299.13 34.0924 Q1301.48 30.0415 1305.04 28.0971 Q1308.65 26.1121 1313.63 26.1121 Q1321.9 26.1121 1327.04 32.6746 Q1332.23 39.2371 1332.23 49.9314 Q1332.23 60.6258 1327.04 67.1883 Q1321.9 73.7508 1313.63 73.7508 Q1308.65 73.7508 1305.04 71.8063 Q1301.48 69.8214 1299.13 65.7705 M1324.49 49.9314 Q1324.49 41.7081 1321.09 37.0496 Q1317.72 32.3505 1311.81 32.3505 Q1305.89 32.3505 1302.49 37.0496 Q1299.13 41.7081 1299.13 49.9314 Q1299.13 58.1548 1302.49 62.8538 Q1305.89 67.5124 1311.81 67.5124 Q1317.72 67.5124 1321.09 62.8538 Q1324.49 58.1548 1324.49 49.9314 Z" fill="#000000" fill-rule="nonzero" fill-opacity="1" /><path clip-path="url(#clip180)" d="M1343.81 54.671 L1343.81 27.2059 L1351.26 27.2059 L1351.26 54.3874 Q1351.26 60.8284 1353.78 64.0691 Q1356.29 67.2693 1361.31 67.2693 Q1367.35 67.2693 1370.83 63.421 Q1374.35 59.5726 1374.35 52.9291 L1374.35 27.2059 L1381.81 27.2059 L1381.81 72.576 L1374.35 72.576 L1374.35 65.6084 Q1371.64 69.7404 1368.04 71.7658 Q1364.47 73.7508 1359.73 73.7508 Q1351.91 73.7508 1347.86 68.8897 Q1343.81 64.0286 1343.81 54.671 M1362.57 26.1121 L1362.57 26.1121 Z" fill="#000000" fill-rule="nonzero" fill-opacity="1" /><path clip-path="url(#clip180)" d="M1404.53 14.324 L1404.53 27.2059 L1419.89 27.2059 L1419.89 32.9987 L1404.53 32.9987 L1404.53 57.6282 Q1404.53 63.1779 1406.03 64.7578 Q1407.57 66.3376 1412.23 66.3376 L1419.89 66.3376 L1419.89 72.576 L1412.23 72.576 Q1403.6 72.576 1400.32 69.3758 Q1397.04 66.1351 1397.04 57.6282 L1397.04 32.9987 L1391.57 32.9987 L1391.57 27.2059 L1397.04 27.2059 L1397.04 14.324 L1404.53 14.324 Z" fill="#000000" fill-rule="nonzero" fill-opacity="1" /><path clip-path="url(#clip180)" d="M1468.5 48.0275 L1468.5 51.6733 L1434.23 51.6733 Q1434.71 59.3701 1438.84 63.421 Q1443.02 67.4314 1450.43 67.4314 Q1454.72 67.4314 1458.73 66.3781 Q1462.79 65.3249 1466.76 63.2184 L1466.76 70.267 Q1462.75 71.9684 1458.53 72.8596 Q1454.32 73.7508 1449.98 73.7508 Q1439.13 73.7508 1432.77 67.4314 Q1426.45 61.1119 1426.45 50.3365 Q1426.45 39.1965 1432.44 32.6746 Q1438.48 26.1121 1448.69 26.1121 Q1457.84 26.1121 1463.15 32.0264 Q1468.5 37.9003 1468.5 48.0275 M1461.04 45.84 Q1460.96 39.7232 1457.6 36.0774 Q1454.28 32.4315 1448.77 32.4315 Q1442.53 32.4315 1438.76 35.9558 Q1435.04 39.4801 1434.47 45.8805 L1461.04 45.84 Z" fill="#000000" fill-rule="nonzero" fill-opacity="1" /><path clip-path="url(#clip180)" d="M1507.43 12.096 L1515.61 12.096 L1515.61 65.6895 L1545.06 65.6895 L1545.06 72.576 L1507.43 72.576 L1507.43 12.096 Z" fill="#000000" fill-rule="nonzero" fill-opacity="1" /><path clip-path="url(#clip180)" d="M1590.67 48.0275 L1590.67 51.6733 L1556.4 51.6733 Q1556.89 59.3701 1561.02 63.421 Q1565.19 67.4314 1572.61 67.4314 Q1576.9 67.4314 1580.91 66.3781 Q1584.96 65.3249 1588.93 63.2184 L1588.93 70.267 Q1584.92 71.9684 1580.71 72.8596 Q1576.49 73.7508 1572.16 73.7508 Q1561.3 73.7508 1554.94 67.4314 Q1548.62 61.1119 1548.62 50.3365 Q1548.62 39.1965 1554.62 32.6746 Q1560.66 26.1121 1570.86 26.1121 Q1580.02 26.1121 1585.33 32.0264 Q1590.67 37.9003 1590.67 48.0275 M1583.22 45.84 Q1583.14 39.7232 1579.78 36.0774 Q1576.45 32.4315 1570.94 32.4315 Q1564.71 32.4315 1560.94 35.9558 Q1557.21 39.4801 1556.65 45.8805 L1583.22 45.84 Z" fill="#000000" fill-rule="nonzero" fill-opacity="1" /><path clip-path="url(#clip180)" d="M1640.62 45.1919 L1640.62 72.576 L1633.17 72.576 L1633.17 45.4349 Q1633.17 38.994 1630.66 35.7938 Q1628.14 32.5936 1623.12 32.5936 Q1617.08 32.5936 1613.6 36.4419 Q1610.12 40.2903 1610.12 46.9338 L1610.12 72.576 L1602.62 72.576 L1602.62 27.2059 L1610.12 27.2059 L1610.12 34.2544 Q1612.79 30.163 1616.4 28.1376 Q1620.04 26.1121 1624.78 26.1121 Q1632.6 26.1121 1636.61 30.9732 Q1640.62 35.7938 1640.62 45.1919 Z" fill="#000000" fill-rule="nonzero" fill-opacity="1" /><path clip-path="url(#clip180)" d="M1685.34 49.3643 Q1685.34 41.2625 1681.98 36.8065 Q1678.66 32.3505 1672.62 32.3505 Q1666.63 32.3505 1663.27 36.8065 Q1659.94 41.2625 1659.94 49.3643 Q1659.94 57.4256 1663.27 61.8816 Q1666.63 66.3376 1672.62 66.3376 Q1678.66 66.3376 1681.98 61.8816 Q1685.34 57.4256 1685.34 49.3643 M1692.8 66.9452 Q1692.8 78.5308 1687.65 84.1616 Q1682.51 89.8329 1671.89 89.8329 Q1667.96 89.8329 1664.48 89.2252 Q1661 88.6581 1657.72 87.4428 L1657.72 80.1917 Q1661 81.9741 1664.2 82.8248 Q1667.4 83.6755 1670.72 83.6755 Q1678.05 83.6755 1681.7 79.8271 Q1685.34 76.0193 1685.34 68.282 L1685.34 64.5957 Q1683.03 68.6061 1679.43 70.5911 Q1675.82 72.576 1670.8 72.576 Q1662.45 72.576 1657.35 66.2161 Q1652.25 59.8562 1652.25 49.3643 Q1652.25 38.832 1657.35 32.472 Q1662.45 26.1121 1670.8 26.1121 Q1675.82 26.1121 1679.43 28.0971 Q1683.03 30.082 1685.34 34.0924 L1685.34 27.2059 L1692.8 27.2059 L1692.8 66.9452 Z" fill="#000000" fill-rule="nonzero" fill-opacity="1" /><path clip-path="url(#clip180)" d="M1715.52 14.324 L1715.52 27.2059 L1730.87 27.2059 L1730.87 32.9987 L1715.52 32.9987 L1715.52 57.6282 Q1715.52 63.1779 1717.02 64.7578 Q1718.56 66.3376 1723.22 66.3376 L1730.87 66.3376 L1730.87 72.576 L1723.22 72.576 Q1714.59 72.576 1711.31 69.3758 Q1708.03 66.1351 1708.03 57.6282 L1708.03 32.9987 L1702.56 32.9987 L1702.56 27.2059 L1708.03 27.2059 L1708.03 14.324 L1715.52 14.324 Z" fill="#000000" fill-rule="nonzero" fill-opacity="1" /><path clip-path="url(#clip180)" d="M1778.39 45.1919 L1778.39 72.576 L1770.94 72.576 L1770.94 45.4349 Q1770.94 38.994 1768.43 35.7938 Q1765.91 32.5936 1760.89 32.5936 Q1754.86 32.5936 1751.37 36.4419 Q1747.89 40.2903 1747.89 46.9338 L1747.89 72.576 L1740.39 72.576 L1740.39 9.54393 L1747.89 9.54393 L1747.89 34.2544 Q1750.56 30.163 1754.17 28.1376 Q1757.81 26.1121 1762.55 26.1121 Q1770.37 26.1121 1774.38 30.9732 Q1778.39 35.7938 1778.39 45.1919 Z" fill="#000000" fill-rule="nonzero" fill-opacity="1" /><path clip-path="url(#clip180)" d="M1819.95 12.096 L1828.14 12.096 L1828.14 65.6895 L1857.59 65.6895 L1857.59 72.576 L1819.95 72.576 L1819.95 12.096 Z" fill="#000000" fill-rule="nonzero" fill-opacity="1" /><path clip-path="url(#clip180)" d="M1865.85 27.2059 L1873.3 27.2059 L1873.3 72.576 L1865.85 72.576 L1865.85 27.2059 M1865.85 9.54393 L1873.3 9.54393 L1873.3 18.9825 L1865.85 18.9825 L1865.85 9.54393 Z" fill="#000000" fill-rule="nonzero" fill-opacity="1" /><path clip-path="url(#clip180)" d="M1917.82 28.5427 L1917.82 35.5912 Q1914.66 33.9709 1911.26 33.1607 Q1907.86 32.3505 1904.21 32.3505 Q1898.66 32.3505 1895.87 34.0519 Q1893.11 35.7533 1893.11 39.156 Q1893.11 41.7486 1895.1 43.2475 Q1897.08 44.7058 1903.08 46.0426 L1905.63 46.6097 Q1913.57 48.3111 1916.89 51.4303 Q1920.25 54.509 1920.25 60.0587 Q1920.25 66.3781 1915.23 70.0644 Q1910.25 73.7508 1901.5 73.7508 Q1897.85 73.7508 1893.88 73.0216 Q1889.95 72.3329 1885.58 70.9151 L1885.58 63.2184 Q1889.71 65.3654 1893.72 66.4591 Q1897.73 67.5124 1901.66 67.5124 Q1906.93 67.5124 1909.76 65.73 Q1912.6 63.9071 1912.6 60.6258 Q1912.6 57.5877 1910.53 55.9673 Q1908.51 54.3469 1901.58 52.8481 L1898.99 52.2405 Q1892.06 50.7821 1888.98 47.7845 Q1885.9 44.7463 1885.9 39.4801 Q1885.9 33.0797 1890.44 29.5959 Q1894.98 26.1121 1903.32 26.1121 Q1907.45 26.1121 1911.1 26.7198 Q1914.75 27.3274 1917.82 28.5427 Z" fill="#000000" fill-rule="nonzero" fill-opacity="1" /><path clip-path="url(#clip180)" d="M1939.5 14.324 L1939.5 27.2059 L1954.85 27.2059 L1954.85 32.9987 L1939.5 32.9987 L1939.5 57.6282 Q1939.5 63.1779 1941 64.7578 Q1942.53 66.3376 1947.19 66.3376 L1954.85 66.3376 L1954.85 72.576 L1947.19 72.576 Q1938.56 72.576 1935.28 69.3758 Q1932 66.1351 1932 57.6282 L1932 32.9987 L1926.53 32.9987 L1926.53 27.2059 L1932 27.2059 L1932 14.324 L1939.5 14.324 Z" fill="#000000" fill-rule="nonzero" fill-opacity="1" /><polyline clip-path="url(#clip182)" style="stroke:#009af9; stroke-linecap:round; stroke-linejoin:round; stroke-width:4; stroke-opacity:1; fill:none" points="425.828,1386.4 434.25,1380.61 471.685,1355.89 518.479,1325.1 565.272,1294.72 612.066,1264.7 658.859,1231.53 705.653,1198.35 752.446,1172.35 799.24,1138.79 892.827,1079.71 1360.76,771.592 2296.63,160.256 "/>
<circle clip-path="url(#clip182)" cx="425.828" cy="1386.4" r="14.4" fill="#e26f46" fill-rule="evenodd" fill-opacity="1" stroke="#000000" stroke-opacity="1" stroke-width="3.2"/>
<circle clip-path="url(#clip182)" cx="434.25" cy="1380.61" r="14.4" fill="#e26f46" fill-rule="evenodd" fill-opacity="1" stroke="#000000" stroke-opacity="1" stroke-width="3.2"/>
<circle clip-path="url(#clip182)" cx="471.685" cy="1355.89" r="14.4" fill="#e26f46" fill-rule="evenodd" fill-opacity="1" stroke="#000000" stroke-opacity="1" stroke-width="3.2"/>
<circle clip-path="url(#clip182)" cx="518.479" cy="1325.1" r="14.4" fill="#e26f46" fill-rule="evenodd" fill-opacity="1" stroke="#000000" stroke-opacity="1" stroke-width="3.2"/>
<circle clip-path="url(#clip182)" cx="565.272" cy="1294.72" r="14.4" fill="#e26f46" fill-rule="evenodd" fill-opacity="1" stroke="#000000" stroke-opacity="1" stroke-width="3.2"/>
<circle clip-path="url(#clip182)" cx="612.066" cy="1264.7" r="14.4" fill="#e26f46" fill-rule="evenodd" fill-opacity="1" stroke="#000000" stroke-opacity="1" stroke-width="3.2"/>
<circle clip-path="url(#clip182)" cx="658.859" cy="1231.53" r="14.4" fill="#e26f46" fill-rule="evenodd" fill-opacity="1" stroke="#000000" stroke-opacity="1" stroke-width="3.2"/>
<circle clip-path="url(#clip182)" cx="705.653" cy="1198.35" r="14.4" fill="#e26f46" fill-rule="evenodd" fill-opacity="1" stroke="#000000" stroke-opacity="1" stroke-width="3.2"/>
<circle clip-path="url(#clip182)" cx="752.446" cy="1172.35" r="14.4" fill="#e26f46" fill-rule="evenodd" fill-opacity="1" stroke="#000000" stroke-opacity="1" stroke-width="3.2"/>
<circle clip-path="url(#clip182)" cx="799.24" cy="1138.79" r="14.4" fill="#e26f46" fill-rule="evenodd" fill-opacity="1" stroke="#000000" stroke-opacity="1" stroke-width="3.2"/>
<circle clip-path="url(#clip182)" cx="892.827" cy="1079.71" r="14.4" fill="#e26f46" fill-rule="evenodd" fill-opacity="1" stroke="#000000" stroke-opacity="1" stroke-width="3.2"/>
<circle clip-path="url(#clip182)" cx="1360.76" cy="771.592" r="14.4" fill="#e26f46" fill-rule="evenodd" fill-opacity="1" stroke="#000000" stroke-opacity="1" stroke-width="3.2"/>
<circle clip-path="url(#clip182)" cx="2296.63" cy="160.256" r="14.4" fill="#e26f46" fill-rule="evenodd" fill-opacity="1" stroke="#000000" stroke-opacity="1" stroke-width="3.2"/>
</svg>
