<?xml version="1.0" encoding="utf-8"?>
<svg xmlns="http://www.w3.org/2000/svg" xmlns:xlink="http://www.w3.org/1999/xlink" width="600" height="400" viewBox="0 0 2400 1600">
<defs>
  <clipPath id="clip470">
    <rect x="0" y="0" width="2400" height="1600"/>
  </clipPath>
</defs>
<path clip-path="url(#clip470)" d="M0 1600 L2400 1600 L2400 0 L0 0  Z" fill="#ffffff" fill-rule="evenodd" fill-opacity="1"/>
<defs>
  <clipPath id="clip471">
    <rect x="480" y="0" width="1681" height="1600"/>
  </clipPath>
</defs>
<path clip-path="url(#clip470)" d="M340.699 1423.18 L2352.76 1423.18 L2352.76 123.472 L340.699 123.472  Z" fill="#ffffff" fill-rule="evenodd" fill-opacity="1"/>
<defs>
  <clipPath id="clip472">
    <rect x="340" y="123" width="2013" height="1301"/>
  </clipPath>
</defs>
<polyline clip-path="url(#clip472)" style="stroke:#000000; stroke-linecap:round; stroke-linejoin:round; stroke-width:2; stroke-opacity:0.1; fill:none" points="396.694,1423.18 396.694,123.472 "/>
<polyline clip-path="url(#clip472)" style="stroke:#000000; stroke-linecap:round; stroke-linejoin:round; stroke-width:2; stroke-opacity:0.1; fill:none" points="871.474,1423.18 871.474,123.472 "/>
<polyline clip-path="url(#clip472)" style="stroke:#000000; stroke-linecap:round; stroke-linejoin:round; stroke-width:2; stroke-opacity:0.1; fill:none" points="1346.25,1423.18 1346.25,123.472 "/>
<polyline clip-path="url(#clip472)" style="stroke:#000000; stroke-linecap:round; stroke-linejoin:round; stroke-width:2; stroke-opacity:0.1; fill:none" points="1821.03,1423.18 1821.03,123.472 "/>
<polyline clip-path="url(#clip472)" style="stroke:#000000; stroke-linecap:round; stroke-linejoin:round; stroke-width:2; stroke-opacity:0.1; fill:none" points="2295.81,1423.18 2295.81,123.472 "/>
<polyline clip-path="url(#clip470)" style="stroke:#000000; stroke-linecap:round; stroke-linejoin:round; stroke-width:4; stroke-opacity:1; fill:none" points="340.699,1423.18 2352.76,1423.18 "/>
<polyline clip-path="url(#clip470)" style="stroke:#000000; stroke-linecap:round; stroke-linejoin:round; stroke-width:4; stroke-opacity:1; fill:none" points="396.694,1423.18 396.694,1404.28 "/>
<polyline clip-path="url(#clip470)" style="stroke:#000000; stroke-linecap:round; stroke-linejoin:round; stroke-width:4; stroke-opacity:1; fill:none" points="871.474,1423.18 871.474,1404.28 "/>
<polyline clip-path="url(#clip470)" style="stroke:#000000; stroke-linecap:round; stroke-linejoin:round; stroke-width:4; stroke-opacity:1; fill:none" points="1346.25,1423.18 1346.25,1404.28 "/>
<polyline clip-path="url(#clip470)" style="stroke:#000000; stroke-linecap:round; stroke-linejoin:round; stroke-width:4; stroke-opacity:1; fill:none" points="1821.03,1423.18 1821.03,1404.28 "/>
<polyline clip-path="url(#clip470)" style="stroke:#000000; stroke-linecap:round; stroke-linejoin:round; stroke-width:4; stroke-opacity:1; fill:none" points="2295.81,1423.18 2295.81,1404.28 "/>
<path clip-path="url(#clip470)" d="M396.694 1454.1 Q393.083 1454.1 391.255 1457.66 Q389.449 1461.2 389.449 1468.33 Q389.449 1475.44 391.255 1479.01 Q393.083 1482.55 396.694 1482.55 Q400.329 1482.55 402.134 1479.01 Q403.963 1475.44 403.963 1468.33 Q403.963 1461.2 402.134 1457.66 Q400.329 1454.1 396.694 1454.1 M396.694 1450.39 Q402.505 1450.39 405.56 1455 Q408.639 1459.58 408.639 1468.33 Q408.639 1477.06 405.56 1481.67 Q402.505 1486.25 396.694 1486.25 Q390.884 1486.25 387.806 1481.67 Q384.75 1477.06 384.75 1468.33 Q384.75 1459.58 387.806 1455 Q390.884 1450.39 396.694 1450.39 Z" fill="#000000" fill-rule="nonzero" fill-opacity="1" /><path clip-path="url(#clip470)" d="M831.092 1451.02 L849.448 1451.02 L849.448 1454.96 L835.374 1454.96 L835.374 1463.43 Q836.393 1463.08 837.411 1462.92 Q838.43 1462.73 839.448 1462.73 Q845.235 1462.73 848.615 1465.9 Q851.994 1469.08 851.994 1474.49 Q851.994 1480.07 848.522 1483.17 Q845.05 1486.25 838.731 1486.25 Q836.555 1486.25 834.286 1485.88 Q832.041 1485.51 829.633 1484.77 L829.633 1480.07 Q831.717 1481.2 833.939 1481.76 Q836.161 1482.32 838.638 1482.32 Q842.643 1482.32 844.981 1480.21 Q847.319 1478.1 847.319 1474.49 Q847.319 1470.88 844.981 1468.77 Q842.643 1466.67 838.638 1466.67 Q836.763 1466.67 834.888 1467.08 Q833.036 1467.5 831.092 1468.38 L831.092 1451.02 Z" fill="#000000" fill-rule="nonzero" fill-opacity="1" /><path clip-path="url(#clip470)" d="M871.207 1454.1 Q867.596 1454.1 865.768 1457.66 Q863.962 1461.2 863.962 1468.33 Q863.962 1475.44 865.768 1479.01 Q867.596 1482.55 871.207 1482.55 Q874.842 1482.55 876.647 1479.01 Q878.476 1475.44 878.476 1468.33 Q878.476 1461.2 876.647 1457.66 Q874.842 1454.1 871.207 1454.1 M871.207 1450.39 Q877.017 1450.39 880.073 1455 Q883.152 1459.58 883.152 1468.33 Q883.152 1477.06 880.073 1481.67 Q877.017 1486.25 871.207 1486.25 Q865.397 1486.25 862.318 1481.67 Q859.263 1477.06 859.263 1468.33 Q859.263 1459.58 862.318 1455 Q865.397 1450.39 871.207 1450.39 Z" fill="#000000" fill-rule="nonzero" fill-opacity="1" /><path clip-path="url(#clip470)" d="M901.369 1454.1 Q897.758 1454.1 895.929 1457.66 Q894.124 1461.2 894.124 1468.33 Q894.124 1475.44 895.929 1479.01 Q897.758 1482.55 901.369 1482.55 Q905.003 1482.55 906.809 1479.01 Q908.638 1475.44 908.638 1468.33 Q908.638 1461.2 906.809 1457.66 Q905.003 1454.1 901.369 1454.1 M901.369 1450.39 Q907.179 1450.39 910.235 1455 Q913.314 1459.58 913.314 1468.33 Q913.314 1477.06 910.235 1481.67 Q907.179 1486.25 901.369 1486.25 Q895.559 1486.25 892.48 1481.67 Q889.425 1477.06 889.425 1468.33 Q889.425 1459.58 892.48 1455 Q895.559 1450.39 901.369 1450.39 Z" fill="#000000" fill-rule="nonzero" fill-opacity="1" /><path clip-path="url(#clip470)" d="M1290.78 1481.64 L1298.42 1481.64 L1298.42 1455.28 L1290.11 1456.95 L1290.11 1452.69 L1298.37 1451.02 L1303.05 1451.02 L1303.05 1481.64 L1310.69 1481.64 L1310.69 1485.58 L1290.78 1485.58 L1290.78 1481.64 Z" fill="#000000" fill-rule="nonzero" fill-opacity="1" /><path clip-path="url(#clip470)" d="M1330.13 1454.1 Q1326.52 1454.1 1324.69 1457.66 Q1322.88 1461.2 1322.88 1468.33 Q1322.88 1475.44 1324.69 1479.01 Q1326.52 1482.55 1330.13 1482.55 Q1333.76 1482.55 1335.57 1479.01 Q1337.4 1475.44 1337.4 1468.33 Q1337.4 1461.2 1335.57 1457.66 Q1333.76 1454.1 1330.13 1454.1 M1330.13 1450.39 Q1335.94 1450.39 1339 1455 Q1342.07 1459.58 1342.07 1468.33 Q1342.07 1477.06 1339 1481.67 Q1335.94 1486.25 1330.13 1486.25 Q1324.32 1486.25 1321.24 1481.67 Q1318.19 1477.06 1318.19 1468.33 Q1318.19 1459.58 1321.24 1455 Q1324.32 1450.39 1330.13 1450.39 Z" fill="#000000" fill-rule="nonzero" fill-opacity="1" /><path clip-path="url(#clip470)" d="M1360.29 1454.1 Q1356.68 1454.1 1354.85 1457.66 Q1353.05 1461.2 1353.05 1468.33 Q1353.05 1475.44 1354.85 1479.01 Q1356.68 1482.55 1360.29 1482.55 Q1363.93 1482.55 1365.73 1479.01 Q1367.56 1475.44 1367.56 1468.33 Q1367.56 1461.2 1365.73 1457.66 Q1363.93 1454.1 1360.29 1454.1 M1360.29 1450.39 Q1366.1 1450.39 1369.16 1455 Q1372.24 1459.58 1372.24 1468.33 Q1372.24 1477.06 1369.16 1481.67 Q1366.1 1486.25 1360.29 1486.25 Q1354.48 1486.25 1351.4 1481.67 Q1348.35 1477.06 1348.35 1468.33 Q1348.35 1459.58 1351.4 1455 Q1354.48 1450.39 1360.29 1450.39 Z" fill="#000000" fill-rule="nonzero" fill-opacity="1" /><path clip-path="url(#clip470)" d="M1390.45 1454.1 Q1386.84 1454.1 1385.01 1457.66 Q1383.21 1461.2 1383.21 1468.33 Q1383.21 1475.44 1385.01 1479.01 Q1386.84 1482.55 1390.45 1482.55 Q1394.09 1482.55 1395.89 1479.01 Q1397.72 1475.44 1397.72 1468.33 Q1397.72 1461.2 1395.89 1457.66 Q1394.09 1454.1 1390.45 1454.1 M1390.45 1450.39 Q1396.26 1450.39 1399.32 1455 Q1402.4 1459.58 1402.4 1468.33 Q1402.4 1477.06 1399.32 1481.67 Q1396.26 1486.25 1390.45 1486.25 Q1384.64 1486.25 1381.56 1481.67 Q1378.51 1477.06 1378.51 1468.33 Q1378.51 1459.58 1381.56 1455 Q1384.64 1450.39 1390.45 1450.39 Z" fill="#000000" fill-rule="nonzero" fill-opacity="1" /><path clip-path="url(#clip470)" d="M1765.56 1481.64 L1773.2 1481.64 L1773.2 1455.28 L1764.89 1456.95 L1764.89 1452.69 L1773.15 1451.02 L1777.83 1451.02 L1777.83 1481.64 L1785.46 1481.64 L1785.46 1485.58 L1765.56 1485.58 L1765.56 1481.64 Z" fill="#000000" fill-rule="nonzero" fill-opacity="1" /><path clip-path="url(#clip470)" d="M1794.96 1451.02 L1813.31 1451.02 L1813.31 1454.96 L1799.24 1454.96 L1799.24 1463.43 Q1800.26 1463.08 1801.27 1462.92 Q1802.29 1462.73 1803.31 1462.73 Q1809.1 1462.73 1812.48 1465.9 Q1815.86 1469.08 1815.86 1474.49 Q1815.86 1480.07 1812.39 1483.17 Q1808.91 1486.25 1802.59 1486.25 Q1800.42 1486.25 1798.15 1485.88 Q1795.9 1485.51 1793.5 1484.77 L1793.5 1480.07 Q1795.58 1481.2 1797.8 1481.76 Q1800.02 1482.32 1802.5 1482.32 Q1806.51 1482.32 1808.84 1480.21 Q1811.18 1478.1 1811.18 1474.49 Q1811.18 1470.88 1808.84 1468.77 Q1806.51 1466.67 1802.5 1466.67 Q1800.63 1466.67 1798.75 1467.08 Q1796.9 1467.5 1794.96 1468.38 L1794.96 1451.02 Z" fill="#000000" fill-rule="nonzero" fill-opacity="1" /><path clip-path="url(#clip470)" d="M1835.07 1454.1 Q1831.46 1454.1 1829.63 1457.66 Q1827.83 1461.2 1827.83 1468.33 Q1827.83 1475.44 1829.63 1479.01 Q1831.46 1482.55 1835.07 1482.55 Q1838.71 1482.55 1840.51 1479.01 Q1842.34 1475.44 1842.34 1468.33 Q1842.34 1461.2 1840.51 1457.66 Q1838.71 1454.1 1835.07 1454.1 M1835.07 1450.39 Q1840.88 1450.39 1843.94 1455 Q1847.02 1459.58 1847.02 1468.33 Q1847.02 1477.06 1843.94 1481.67 Q1840.88 1486.25 1835.07 1486.25 Q1829.26 1486.25 1826.18 1481.67 Q1823.13 1477.06 1823.13 1468.33 Q1823.13 1459.58 1826.18 1455 Q1829.26 1450.39 1835.07 1450.39 Z" fill="#000000" fill-rule="nonzero" fill-opacity="1" /><path clip-path="url(#clip470)" d="M1865.23 1454.1 Q1861.62 1454.1 1859.79 1457.66 Q1857.99 1461.2 1857.99 1468.33 Q1857.99 1475.44 1859.79 1479.01 Q1861.62 1482.55 1865.23 1482.55 Q1868.87 1482.55 1870.67 1479.01 Q1872.5 1475.44 1872.5 1468.33 Q1872.5 1461.2 1870.67 1457.66 Q1868.87 1454.1 1865.23 1454.1 M1865.23 1450.39 Q1871.04 1450.39 1874.1 1455 Q1877.18 1459.58 1877.18 1468.33 Q1877.18 1477.06 1874.1 1481.67 Q1871.04 1486.25 1865.23 1486.25 Q1859.42 1486.25 1856.34 1481.67 Q1853.29 1477.06 1853.29 1468.33 Q1853.29 1459.58 1856.34 1455 Q1859.42 1450.39 1865.23 1450.39 Z" fill="#000000" fill-rule="nonzero" fill-opacity="1" /><path clip-path="url(#clip470)" d="M2244.42 1481.64 L2260.74 1481.64 L2260.74 1485.58 L2238.8 1485.58 L2238.8 1481.64 Q2241.46 1478.89 2246.04 1474.26 Q2250.65 1469.61 2251.83 1468.27 Q2254.08 1465.74 2254.95 1464.01 Q2255.86 1462.25 2255.86 1460.56 Q2255.86 1457.8 2253.91 1456.07 Q2251.99 1454.33 2248.89 1454.33 Q2246.69 1454.33 2244.24 1455.09 Q2241.81 1455.86 2239.03 1457.41 L2239.03 1452.69 Q2241.85 1451.55 2244.31 1450.97 Q2246.76 1450.39 2248.8 1450.39 Q2254.17 1450.39 2257.36 1453.08 Q2260.56 1455.77 2260.56 1460.26 Q2260.56 1462.39 2259.75 1464.31 Q2258.96 1466.2 2256.85 1468.8 Q2256.27 1469.47 2253.17 1472.69 Q2250.07 1475.88 2244.42 1481.64 Z" fill="#000000" fill-rule="nonzero" fill-opacity="1" /><path clip-path="url(#clip470)" d="M2280.56 1454.1 Q2276.95 1454.1 2275.12 1457.66 Q2273.31 1461.2 2273.31 1468.33 Q2273.31 1475.44 2275.12 1479.01 Q2276.95 1482.55 2280.56 1482.55 Q2284.19 1482.55 2286 1479.01 Q2287.82 1475.44 2287.82 1468.33 Q2287.82 1461.2 2286 1457.66 Q2284.19 1454.1 2280.56 1454.1 M2280.56 1450.39 Q2286.37 1450.39 2289.42 1455 Q2292.5 1459.58 2292.5 1468.33 Q2292.5 1477.06 2289.42 1481.67 Q2286.37 1486.25 2280.56 1486.25 Q2274.75 1486.25 2271.67 1481.67 Q2268.61 1477.06 2268.61 1468.33 Q2268.61 1459.58 2271.67 1455 Q2274.75 1450.39 2280.56 1450.39 Z" fill="#000000" fill-rule="nonzero" fill-opacity="1" /><path clip-path="url(#clip470)" d="M2310.72 1454.1 Q2307.11 1454.1 2305.28 1457.66 Q2303.47 1461.2 2303.47 1468.33 Q2303.47 1475.44 2305.28 1479.01 Q2307.11 1482.55 2310.72 1482.55 Q2314.35 1482.55 2316.16 1479.01 Q2317.99 1475.44 2317.99 1468.33 Q2317.99 1461.2 2316.16 1457.66 Q2314.35 1454.1 2310.72 1454.1 M2310.72 1450.39 Q2316.53 1450.39 2319.58 1455 Q2322.66 1459.58 2322.66 1468.33 Q2322.66 1477.06 2319.58 1481.67 Q2316.53 1486.25 2310.72 1486.25 Q2304.91 1486.25 2301.83 1481.67 Q2298.77 1477.06 2298.77 1468.33 Q2298.77 1459.58 2301.83 1455 Q2304.91 1450.39 2310.72 1450.39 Z" fill="#000000" fill-rule="nonzero" fill-opacity="1" /><path clip-path="url(#clip470)" d="M2340.88 1454.1 Q2337.27 1454.1 2335.44 1457.66 Q2333.63 1461.2 2333.63 1468.33 Q2333.63 1475.44 2335.44 1479.01 Q2337.27 1482.55 2340.88 1482.55 Q2344.51 1482.55 2346.32 1479.01 Q2348.15 1475.44 2348.15 1468.33 Q2348.15 1461.2 2346.32 1457.66 Q2344.51 1454.1 2340.88 1454.1 M2340.88 1450.39 Q2346.69 1450.39 2349.75 1455 Q2352.82 1459.58 2352.82 1468.33 Q2352.82 1477.06 2349.75 1481.67 Q2346.69 1486.25 2340.88 1486.25 Q2335.07 1486.25 2331.99 1481.67 Q2328.94 1477.06 2328.94 1468.33 Q2328.94 1459.58 2331.99 1455 Q2335.07 1450.39 2340.88 1450.39 Z" fill="#000000" fill-rule="nonzero" fill-opacity="1" /><path clip-path="url(#clip470)" d="M1328.74 1520.52 L1337.4 1520.52 L1358.47 1560.28 L1358.47 1520.52 L1364.71 1520.52 L1364.71 1568.04 L1356.05 1568.04 L1334.98 1528.29 L1334.98 1568.04 L1328.74 1568.04 L1328.74 1520.52 Z" fill="#000000" fill-rule="nonzero" fill-opacity="1" /><polyline clip-path="url(#clip472)" style="stroke:#000000; stroke-linecap:round; stroke-linejoin:round; stroke-width:2; stroke-opacity:0.1; fill:none" points="340.699,1387.09 2352.76,1387.09 "/>
<polyline clip-path="url(#clip472)" style="stroke:#000000; stroke-linecap:round; stroke-linejoin:round; stroke-width:2; stroke-opacity:0.1; fill:none" points="340.699,1152.79 2352.76,1152.79 "/>
<polyline clip-path="url(#clip472)" style="stroke:#000000; stroke-linecap:round; stroke-linejoin:round; stroke-width:2; stroke-opacity:0.1; fill:none" points="340.699,918.5 2352.76,918.5 "/>
<polyline clip-path="url(#clip472)" style="stroke:#000000; stroke-linecap:round; stroke-linejoin:round; stroke-width:2; stroke-opacity:0.1; fill:none" points="340.699,684.207 2352.76,684.207 "/>
<polyline clip-path="url(#clip472)" style="stroke:#000000; stroke-linecap:round; stroke-linejoin:round; stroke-width:2; stroke-opacity:0.1; fill:none" points="340.699,449.914 2352.76,449.914 "/>
<polyline clip-path="url(#clip472)" style="stroke:#000000; stroke-linecap:round; stroke-linejoin:round; stroke-width:2; stroke-opacity:0.1; fill:none" points="340.699,215.621 2352.76,215.621 "/>
<polyline clip-path="url(#clip470)" style="stroke:#000000; stroke-linecap:round; stroke-linejoin:round; stroke-width:4; stroke-opacity:1; fill:none" points="340.699,1423.18 340.699,123.472 "/>
<polyline clip-path="url(#clip470)" style="stroke:#000000; stroke-linecap:round; stroke-linejoin:round; stroke-width:4; stroke-opacity:1; fill:none" points="340.699,1387.09 359.597,1387.09 "/>
<polyline clip-path="url(#clip470)" style="stroke:#000000; stroke-linecap:round; stroke-linejoin:round; stroke-width:4; stroke-opacity:1; fill:none" points="340.699,1152.79 359.597,1152.79 "/>
<polyline clip-path="url(#clip470)" style="stroke:#000000; stroke-linecap:round; stroke-linejoin:round; stroke-width:4; stroke-opacity:1; fill:none" points="340.699,918.5 359.597,918.5 "/>
<polyline clip-path="url(#clip470)" style="stroke:#000000; stroke-linecap:round; stroke-linejoin:round; stroke-width:4; stroke-opacity:1; fill:none" points="340.699,684.207 359.597,684.207 "/>
<polyline clip-path="url(#clip470)" style="stroke:#000000; stroke-linecap:round; stroke-linejoin:round; stroke-width:4; stroke-opacity:1; fill:none" points="340.699,449.914 359.597,449.914 "/>
<polyline clip-path="url(#clip470)" style="stroke:#000000; stroke-linecap:round; stroke-linejoin:round; stroke-width:4; stroke-opacity:1; fill:none" points="340.699,215.621 359.597,215.621 "/>
<path clip-path="url(#clip470)" d="M292.755 1372.88 Q289.143 1372.88 287.315 1376.45 Q285.509 1379.99 285.509 1387.12 Q285.509 1394.23 287.315 1397.79 Q289.143 1401.33 292.755 1401.33 Q296.389 1401.33 298.194 1397.79 Q300.023 1394.23 300.023 1387.12 Q300.023 1379.99 298.194 1376.45 Q296.389 1372.88 292.755 1372.88 M292.755 1369.18 Q298.565 1369.18 301.62 1373.79 Q304.699 1378.37 304.699 1387.12 Q304.699 1395.85 301.62 1400.45 Q298.565 1405.04 292.755 1405.04 Q286.944 1405.04 283.866 1400.45 Q280.81 1395.85 280.81 1387.12 Q280.81 1378.37 283.866 1373.79 Q286.944 1369.18 292.755 1369.18 Z" fill="#000000" fill-rule="nonzero" fill-opacity="1" /><path clip-path="url(#clip470)" d="M117.825 1172.58 L125.464 1172.58 L125.464 1146.22 L117.154 1147.89 L117.154 1143.63 L125.418 1141.96 L130.093 1141.96 L130.093 1172.58 L137.732 1172.58 L137.732 1176.52 L117.825 1176.52 L117.825 1172.58 Z" fill="#000000" fill-rule="nonzero" fill-opacity="1" /><path clip-path="url(#clip470)" d="M147.177 1170.64 L152.061 1170.64 L152.061 1176.52 L147.177 1176.52 L147.177 1170.64 Z" fill="#000000" fill-rule="nonzero" fill-opacity="1" /><path clip-path="url(#clip470)" d="M172.246 1145.04 Q168.635 1145.04 166.806 1148.6 Q165.001 1152.15 165.001 1159.27 Q165.001 1166.38 166.806 1169.95 Q168.635 1173.49 172.246 1173.49 Q175.88 1173.49 177.686 1169.95 Q179.514 1166.38 179.514 1159.27 Q179.514 1152.15 177.686 1148.6 Q175.88 1145.04 172.246 1145.04 M172.246 1141.33 Q178.056 1141.33 181.112 1145.94 Q184.19 1150.52 184.19 1159.27 Q184.19 1168 181.112 1172.61 Q178.056 1177.19 172.246 1177.19 Q166.436 1177.19 163.357 1172.61 Q160.302 1168 160.302 1159.27 Q160.302 1150.52 163.357 1145.94 Q166.436 1141.33 172.246 1141.33 Z" fill="#000000" fill-rule="nonzero" fill-opacity="1" /><path clip-path="url(#clip470)" d="M220.579 1151.06 L210 1161.68 L220.579 1172.26 L217.824 1175.06 L207.199 1164.44 L196.575 1175.06 L193.843 1172.26 L204.399 1161.68 L193.843 1151.06 L196.575 1148.26 L207.199 1158.88 L217.824 1148.26 L220.579 1151.06 Z" fill="#000000" fill-rule="nonzero" fill-opacity="1" /><path clip-path="url(#clip470)" d="M232.94 1172.58 L240.579 1172.58 L240.579 1146.22 L232.269 1147.89 L232.269 1143.63 L240.533 1141.96 L245.209 1141.96 L245.209 1172.58 L252.847 1172.58 L252.847 1176.52 L232.94 1176.52 L232.94 1172.58 Z" fill="#000000" fill-rule="nonzero" fill-opacity="1" /><path clip-path="url(#clip470)" d="M272.292 1145.04 Q268.681 1145.04 266.852 1148.6 Q265.046 1152.15 265.046 1159.27 Q265.046 1166.38 266.852 1169.95 Q268.681 1173.49 272.292 1173.49 Q275.926 1173.49 277.732 1169.95 Q279.56 1166.38 279.56 1159.27 Q279.56 1152.15 277.732 1148.6 Q275.926 1145.04 272.292 1145.04 M272.292 1141.33 Q278.102 1141.33 281.157 1145.94 Q284.236 1150.52 284.236 1159.27 Q284.236 1168 281.157 1172.61 Q278.102 1177.19 272.292 1177.19 Q266.482 1177.19 263.403 1172.61 Q260.347 1168 260.347 1159.27 Q260.347 1150.52 263.403 1145.94 Q266.482 1141.33 272.292 1141.33 Z" fill="#000000" fill-rule="nonzero" fill-opacity="1" /><path clip-path="url(#clip470)" d="M296.913 1124.34 L287.321 1139.33 L296.913 1139.33 L296.913 1124.34 M295.916 1121.03 L300.693 1121.03 L300.693 1139.33 L304.699 1139.33 L304.699 1142.49 L300.693 1142.49 L300.693 1149.11 L296.913 1149.11 L296.913 1142.49 L284.236 1142.49 L284.236 1138.82 L295.916 1121.03 Z" fill="#000000" fill-rule="nonzero" fill-opacity="1" /><path clip-path="url(#clip470)" d="M121.043 938.292 L137.362 938.292 L137.362 942.227 L115.418 942.227 L115.418 938.292 Q118.08 935.537 122.663 930.908 Q127.269 926.255 128.45 924.912 Q130.695 922.389 131.575 920.653 Q132.478 918.894 132.478 917.204 Q132.478 914.45 130.533 912.713 Q128.612 910.977 125.51 910.977 Q123.311 910.977 120.857 911.741 Q118.427 912.505 115.649 914.056 L115.649 909.334 Q118.473 908.2 120.927 907.621 Q123.38 907.042 125.418 907.042 Q130.788 907.042 133.982 909.727 Q137.177 912.413 137.177 916.903 Q137.177 919.033 136.367 920.954 Q135.579 922.852 133.473 925.445 Q132.894 926.116 129.792 929.334 Q126.691 932.528 121.043 938.292 Z" fill="#000000" fill-rule="nonzero" fill-opacity="1" /><path clip-path="url(#clip470)" d="M147.177 936.348 L152.061 936.348 L152.061 942.227 L147.177 942.227 L147.177 936.348 Z" fill="#000000" fill-rule="nonzero" fill-opacity="1" /><path clip-path="url(#clip470)" d="M172.246 910.746 Q168.635 910.746 166.806 914.311 Q165.001 917.852 165.001 924.982 Q165.001 932.088 166.806 935.653 Q168.635 939.195 172.246 939.195 Q175.88 939.195 177.686 935.653 Q179.514 932.088 179.514 924.982 Q179.514 917.852 177.686 914.311 Q175.88 910.746 172.246 910.746 M172.246 907.042 Q178.056 907.042 181.112 911.649 Q184.19 916.232 184.19 924.982 Q184.19 933.709 181.112 938.315 Q178.056 942.898 172.246 942.898 Q166.436 942.898 163.357 938.315 Q160.302 933.709 160.302 924.982 Q160.302 916.232 163.357 911.649 Q166.436 907.042 172.246 907.042 Z" fill="#000000" fill-rule="nonzero" fill-opacity="1" /><path clip-path="url(#clip470)" d="M220.579 916.764 L210 927.389 L220.579 937.968 L217.824 940.769 L207.199 930.144 L196.575 940.769 L193.843 937.968 L204.399 927.389 L193.843 916.764 L196.575 913.963 L207.199 924.588 L217.824 913.963 L220.579 916.764 Z" fill="#000000" fill-rule="nonzero" fill-opacity="1" /><path clip-path="url(#clip470)" d="M232.94 938.292 L240.579 938.292 L240.579 911.926 L232.269 913.593 L232.269 909.334 L240.533 907.667 L245.209 907.667 L245.209 938.292 L252.847 938.292 L252.847 942.227 L232.94 942.227 L232.94 938.292 Z" fill="#000000" fill-rule="nonzero" fill-opacity="1" /><path clip-path="url(#clip470)" d="M272.292 910.746 Q268.681 910.746 266.852 914.311 Q265.046 917.852 265.046 924.982 Q265.046 932.088 266.852 935.653 Q268.681 939.195 272.292 939.195 Q275.926 939.195 277.732 935.653 Q279.56 932.088 279.56 924.982 Q279.56 917.852 277.732 914.311 Q275.926 910.746 272.292 910.746 M272.292 907.042 Q278.102 907.042 281.157 911.649 Q284.236 916.232 284.236 924.982 Q284.236 933.709 281.157 938.315 Q278.102 942.898 272.292 942.898 Q266.482 942.898 263.403 938.315 Q260.347 933.709 260.347 924.982 Q260.347 916.232 263.403 911.649 Q266.482 907.042 272.292 907.042 Z" fill="#000000" fill-rule="nonzero" fill-opacity="1" /><path clip-path="url(#clip470)" d="M296.913 890.047 L287.321 905.037 L296.913 905.037 L296.913 890.047 M295.916 886.737 L300.693 886.737 L300.693 905.037 L304.699 905.037 L304.699 908.196 L300.693 908.196 L300.693 914.817 L296.913 914.817 L296.913 908.196 L284.236 908.196 L284.236 904.529 L295.916 886.737 Z" fill="#000000" fill-rule="nonzero" fill-opacity="1" /><path clip-path="url(#clip470)" d="M131.181 689.3 Q134.538 690.018 136.413 692.286 Q138.311 694.555 138.311 697.888 Q138.311 703.004 134.792 705.805 Q131.274 708.606 124.793 708.606 Q122.617 708.606 120.302 708.166 Q118.01 707.749 115.556 706.893 L115.556 702.379 Q117.501 703.513 119.816 704.092 Q122.13 704.67 124.654 704.67 Q129.052 704.67 131.343 702.934 Q133.658 701.198 133.658 697.888 Q133.658 694.833 131.505 693.12 Q129.376 691.384 125.556 691.384 L121.529 691.384 L121.529 687.541 L125.742 687.541 Q129.191 687.541 131.019 686.175 Q132.848 684.786 132.848 682.194 Q132.848 679.532 130.95 678.12 Q129.075 676.685 125.556 676.685 Q123.635 676.685 121.436 677.101 Q119.237 677.518 116.598 678.397 L116.598 674.231 Q119.26 673.49 121.575 673.12 Q123.913 672.749 125.973 672.749 Q131.297 672.749 134.399 675.18 Q137.501 677.587 137.501 681.708 Q137.501 684.578 135.857 686.569 Q134.214 688.536 131.181 689.3 Z" fill="#000000" fill-rule="nonzero" fill-opacity="1" /><path clip-path="url(#clip470)" d="M147.177 702.055 L152.061 702.055 L152.061 707.934 L147.177 707.934 L147.177 702.055 Z" fill="#000000" fill-rule="nonzero" fill-opacity="1" /><path clip-path="url(#clip470)" d="M172.246 676.453 Q168.635 676.453 166.806 680.018 Q165.001 683.559 165.001 690.689 Q165.001 697.796 166.806 701.36 Q168.635 704.902 172.246 704.902 Q175.88 704.902 177.686 701.36 Q179.514 697.796 179.514 690.689 Q179.514 683.559 177.686 680.018 Q175.88 676.453 172.246 676.453 M172.246 672.749 Q178.056 672.749 181.112 677.356 Q184.19 681.939 184.19 690.689 Q184.19 699.416 181.112 704.022 Q178.056 708.606 172.246 708.606 Q166.436 708.606 163.357 704.022 Q160.302 699.416 160.302 690.689 Q160.302 681.939 163.357 677.356 Q166.436 672.749 172.246 672.749 Z" fill="#000000" fill-rule="nonzero" fill-opacity="1" /><path clip-path="url(#clip470)" d="M220.579 682.472 L210 693.096 L220.579 703.675 L217.824 706.476 L207.199 695.851 L196.575 706.476 L193.843 703.675 L204.399 693.096 L193.843 682.472 L196.575 679.671 L207.199 690.296 L217.824 679.671 L220.579 682.472 Z" fill="#000000" fill-rule="nonzero" fill-opacity="1" /><path clip-path="url(#clip470)" d="M232.94 703.999 L240.579 703.999 L240.579 677.634 L232.269 679.3 L232.269 675.041 L240.533 673.374 L245.209 673.374 L245.209 703.999 L252.847 703.999 L252.847 707.934 L232.94 707.934 L232.94 703.999 Z" fill="#000000" fill-rule="nonzero" fill-opacity="1" /><path clip-path="url(#clip470)" d="M272.292 676.453 Q268.681 676.453 266.852 680.018 Q265.046 683.559 265.046 690.689 Q265.046 697.796 266.852 701.36 Q268.681 704.902 272.292 704.902 Q275.926 704.902 277.732 701.36 Q279.56 697.796 279.56 690.689 Q279.56 683.559 277.732 680.018 Q275.926 676.453 272.292 676.453 M272.292 672.749 Q278.102 672.749 281.157 677.356 Q284.236 681.939 284.236 690.689 Q284.236 699.416 281.157 704.022 Q278.102 708.606 272.292 708.606 Q266.482 708.606 263.403 704.022 Q260.347 699.416 260.347 690.689 Q260.347 681.939 263.403 677.356 Q266.482 672.749 272.292 672.749 Z" fill="#000000" fill-rule="nonzero" fill-opacity="1" /><path clip-path="url(#clip470)" d="M296.913 655.754 L287.321 670.744 L296.913 670.744 L296.913 655.754 M295.916 652.444 L300.693 652.444 L300.693 670.744 L304.699 670.744 L304.699 673.904 L300.693 673.904 L300.693 680.524 L296.913 680.524 L296.913 673.904 L284.236 673.904 L284.236 670.236 L295.916 652.444 Z" fill="#000000" fill-rule="nonzero" fill-opacity="1" /><path clip-path="url(#clip470)" d="M129.862 443.156 L118.056 461.605 L129.862 461.605 L129.862 443.156 M128.635 439.082 L134.515 439.082 L134.515 461.605 L139.445 461.605 L139.445 465.493 L134.515 465.493 L134.515 473.642 L129.862 473.642 L129.862 465.493 L114.26 465.493 L114.26 460.98 L128.635 439.082 Z" fill="#000000" fill-rule="nonzero" fill-opacity="1" /><path clip-path="url(#clip470)" d="M147.177 467.762 L152.061 467.762 L152.061 473.642 L147.177 473.642 L147.177 467.762 Z" fill="#000000" fill-rule="nonzero" fill-opacity="1" /><path clip-path="url(#clip470)" d="M172.246 442.16 Q168.635 442.16 166.806 445.725 Q165.001 449.267 165.001 456.396 Q165.001 463.503 166.806 467.068 Q168.635 470.609 172.246 470.609 Q175.88 470.609 177.686 467.068 Q179.514 463.503 179.514 456.396 Q179.514 449.267 177.686 445.725 Q175.88 442.16 172.246 442.16 M172.246 438.457 Q178.056 438.457 181.112 443.063 Q184.19 447.646 184.19 456.396 Q184.19 465.123 181.112 469.73 Q178.056 474.313 172.246 474.313 Q166.436 474.313 163.357 469.73 Q160.302 465.123 160.302 456.396 Q160.302 447.646 163.357 443.063 Q166.436 438.457 172.246 438.457 Z" fill="#000000" fill-rule="nonzero" fill-opacity="1" /><path clip-path="url(#clip470)" d="M220.579 448.179 L210 458.804 L220.579 469.382 L217.824 472.183 L207.199 461.558 L196.575 472.183 L193.843 469.382 L204.399 458.804 L193.843 448.179 L196.575 445.378 L207.199 456.003 L217.824 445.378 L220.579 448.179 Z" fill="#000000" fill-rule="nonzero" fill-opacity="1" /><path clip-path="url(#clip470)" d="M232.94 469.706 L240.579 469.706 L240.579 443.341 L232.269 445.007 L232.269 440.748 L240.533 439.082 L245.209 439.082 L245.209 469.706 L252.847 469.706 L252.847 473.642 L232.94 473.642 L232.94 469.706 Z" fill="#000000" fill-rule="nonzero" fill-opacity="1" /><path clip-path="url(#clip470)" d="M272.292 442.16 Q268.681 442.16 266.852 445.725 Q265.046 449.267 265.046 456.396 Q265.046 463.503 266.852 467.068 Q268.681 470.609 272.292 470.609 Q275.926 470.609 277.732 467.068 Q279.56 463.503 279.56 456.396 Q279.56 449.267 277.732 445.725 Q275.926 442.16 272.292 442.16 M272.292 438.457 Q278.102 438.457 281.157 443.063 Q284.236 447.646 284.236 456.396 Q284.236 465.123 281.157 469.73 Q278.102 474.313 272.292 474.313 Q266.482 474.313 263.403 469.73 Q260.347 465.123 260.347 456.396 Q260.347 447.646 263.403 443.063 Q266.482 438.457 272.292 438.457 Z" fill="#000000" fill-rule="nonzero" fill-opacity="1" /><path clip-path="url(#clip470)" d="M296.913 421.461 L287.321 436.451 L296.913 436.451 L296.913 421.461 M295.916 418.151 L300.693 418.151 L300.693 436.451 L304.699 436.451 L304.699 439.611 L300.693 439.611 L300.693 446.231 L296.913 446.231 L296.913 439.611 L284.236 439.611 L284.236 435.943 L295.916 418.151 Z" fill="#000000" fill-rule="nonzero" fill-opacity="1" /><path clip-path="url(#clip470)" d="M117.061 204.789 L135.417 204.789 L135.417 208.724 L121.343 208.724 L121.343 217.196 Q122.362 216.849 123.38 216.687 Q124.399 216.502 125.418 216.502 Q131.205 216.502 134.584 219.673 Q137.964 222.844 137.964 228.261 Q137.964 233.84 134.492 236.941 Q131.019 240.02 124.7 240.02 Q122.524 240.02 120.255 239.65 Q118.01 239.279 115.603 238.539 L115.603 233.84 Q117.686 234.974 119.908 235.529 Q122.13 236.085 124.607 236.085 Q128.612 236.085 130.95 233.978 Q133.288 231.872 133.288 228.261 Q133.288 224.65 130.95 222.543 Q128.612 220.437 124.607 220.437 Q122.732 220.437 120.857 220.853 Q119.006 221.27 117.061 222.15 L117.061 204.789 Z" fill="#000000" fill-rule="nonzero" fill-opacity="1" /><path clip-path="url(#clip470)" d="M147.177 233.469 L152.061 233.469 L152.061 239.349 L147.177 239.349 L147.177 233.469 Z" fill="#000000" fill-rule="nonzero" fill-opacity="1" /><path clip-path="url(#clip470)" d="M172.246 207.867 Q168.635 207.867 166.806 211.432 Q165.001 214.974 165.001 222.103 Q165.001 229.21 166.806 232.775 Q168.635 236.316 172.246 236.316 Q175.88 236.316 177.686 232.775 Q179.514 229.21 179.514 222.103 Q179.514 214.974 177.686 211.432 Q175.88 207.867 172.246 207.867 M172.246 204.164 Q178.056 204.164 181.112 208.77 Q184.19 213.354 184.19 222.103 Q184.19 230.83 181.112 235.437 Q178.056 240.02 172.246 240.02 Q166.436 240.02 163.357 235.437 Q160.302 230.83 160.302 222.103 Q160.302 213.354 163.357 208.77 Q166.436 204.164 172.246 204.164 Z" fill="#000000" fill-rule="nonzero" fill-opacity="1" /><path clip-path="url(#clip470)" d="M220.579 213.886 L210 224.511 L220.579 235.09 L217.824 237.89 L207.199 227.265 L196.575 237.89 L193.843 235.09 L204.399 224.511 L193.843 213.886 L196.575 211.085 L207.199 221.71 L217.824 211.085 L220.579 213.886 Z" fill="#000000" fill-rule="nonzero" fill-opacity="1" /><path clip-path="url(#clip470)" d="M232.94 235.414 L240.579 235.414 L240.579 209.048 L232.269 210.715 L232.269 206.455 L240.533 204.789 L245.209 204.789 L245.209 235.414 L252.847 235.414 L252.847 239.349 L232.94 239.349 L232.94 235.414 Z" fill="#000000" fill-rule="nonzero" fill-opacity="1" /><path clip-path="url(#clip470)" d="M272.292 207.867 Q268.681 207.867 266.852 211.432 Q265.046 214.974 265.046 222.103 Q265.046 229.21 266.852 232.775 Q268.681 236.316 272.292 236.316 Q275.926 236.316 277.732 232.775 Q279.56 229.21 279.56 222.103 Q279.56 214.974 277.732 211.432 Q275.926 207.867 272.292 207.867 M272.292 204.164 Q278.102 204.164 281.157 208.77 Q284.236 213.354 284.236 222.103 Q284.236 230.83 281.157 235.437 Q278.102 240.02 272.292 240.02 Q266.482 240.02 263.403 235.437 Q260.347 230.83 260.347 222.103 Q260.347 213.354 263.403 208.77 Q266.482 204.164 272.292 204.164 Z" fill="#000000" fill-rule="nonzero" fill-opacity="1" /><path clip-path="url(#clip470)" d="M296.913 187.169 L287.321 202.158 L296.913 202.158 L296.913 187.169 M295.916 183.858 L300.693 183.858 L300.693 202.158 L304.699 202.158 L304.699 205.318 L300.693 205.318 L300.693 211.938 L296.913 211.938 L296.913 205.318 L284.236 205.318 L284.236 201.65 L295.916 183.858 Z" fill="#000000" fill-rule="nonzero" fill-opacity="1" /><path clip-path="url(#clip470)" d="M16.4842 923.811 L16.4842 883.612 L21.895 883.612 L21.895 900.481 L64.0042 900.481 L64.0042 906.942 L21.895 906.942 L21.895 923.811 L16.4842 923.811 Z" fill="#000000" fill-rule="nonzero" fill-opacity="1" /><path clip-path="url(#clip470)" d="M28.3562 879.665 L28.3562 873.809 L64.0042 873.809 L64.0042 879.665 L28.3562 879.665 M14.479 879.665 L14.479 873.809 L21.895 873.809 L21.895 879.665 L14.479 879.665 Z" fill="#000000" fill-rule="nonzero" fill-opacity="1" /><path clip-path="url(#clip470)" d="M35.1993 833.8 Q31.2526 831.604 29.3747 828.548 Q27.4968 825.493 27.4968 821.355 Q27.4968 815.785 31.4117 812.762 Q35.2948 809.738 42.4881 809.738 L64.0042 809.738 L64.0042 815.626 L42.679 815.626 Q37.5546 815.626 35.072 817.44 Q32.5894 819.255 32.5894 822.978 Q32.5894 827.53 35.6131 830.172 Q38.6368 832.814 43.8567 832.814 L64.0042 832.814 L64.0042 838.702 L42.679 838.702 Q37.5228 838.702 35.072 840.516 Q32.5894 842.33 32.5894 846.118 Q32.5894 850.606 35.6449 853.247 Q38.6686 855.889 43.8567 855.889 L64.0042 855.889 L64.0042 861.777 L28.3562 861.777 L28.3562 855.889 L33.8944 855.889 Q30.616 853.884 29.0564 851.083 Q27.4968 848.282 27.4968 844.431 Q27.4968 840.548 29.4702 837.842 Q31.4436 835.105 35.1993 833.8 Z" fill="#000000" fill-rule="nonzero" fill-opacity="1" /><path clip-path="url(#clip470)" d="M44.7161 767.565 L47.5806 767.565 L47.5806 794.492 Q53.6281 794.11 56.8109 790.864 Q59.9619 787.585 59.9619 781.761 Q59.9619 778.387 59.1344 775.236 Q58.3069 772.053 56.6518 768.934 L62.1899 768.934 Q63.5267 772.085 64.227 775.395 Q64.9272 778.705 64.9272 782.111 Q64.9272 790.641 59.9619 795.638 Q54.9967 800.603 46.5303 800.603 Q37.7774 800.603 32.6531 795.892 Q27.4968 791.15 27.4968 783.129 Q27.4968 775.936 32.1438 771.766 Q36.7589 767.565 44.7161 767.565 M42.9973 773.421 Q38.1912 773.485 35.3266 776.127 Q32.4621 778.737 32.4621 783.066 Q32.4621 787.967 35.2312 790.927 Q38.0002 793.855 43.0292 794.301 L42.9973 773.421 Z" fill="#000000" fill-rule="nonzero" fill-opacity="1" /><path clip-path="url(#clip470)" d="M14.5426 723.164 Q21.8632 727.429 29.0246 729.498 Q36.186 731.567 43.5384 731.567 Q50.8908 731.567 58.1159 729.498 Q65.3091 727.397 72.5979 723.164 L72.5979 728.257 Q65.1182 733.031 57.8931 735.418 Q50.668 737.774 43.5384 737.774 Q36.4406 737.774 29.2474 735.418 Q22.0542 733.063 14.5426 728.257 L14.5426 723.164 Z" fill="#000000" fill-rule="nonzero" fill-opacity="1" /><path clip-path="url(#clip470)" d="M42.4881 682.169 L64.0042 682.169 L64.0042 688.026 L42.679 688.026 Q37.6183 688.026 35.1038 689.999 Q32.5894 691.972 32.5894 695.919 Q32.5894 700.661 35.6131 703.399 Q38.6368 706.136 43.8567 706.136 L64.0042 706.136 L64.0042 712.024 L28.3562 712.024 L28.3562 706.136 L33.8944 706.136 Q30.6797 704.035 29.0883 701.203 Q27.4968 698.338 27.4968 694.614 Q27.4968 688.471 31.3163 685.32 Q35.1038 682.169 42.4881 682.169 Z" fill="#000000" fill-rule="nonzero" fill-opacity="1" /><path clip-path="url(#clip470)" d="M29.4065 647.762 L34.9447 647.762 Q33.6716 650.245 33.035 652.919 Q32.3984 655.592 32.3984 658.457 Q32.3984 662.817 33.7352 665.013 Q35.072 667.178 37.7456 667.178 Q39.7826 667.178 40.9603 665.618 Q42.1061 664.059 43.1565 659.348 L43.6021 657.343 Q44.9389 651.104 47.3897 648.494 Q49.8086 645.853 54.1691 645.853 Q59.1344 645.853 62.0308 649.799 Q64.9272 653.714 64.9272 660.589 Q64.9272 663.454 64.3543 666.573 Q63.8132 669.66 62.6992 673.098 L56.6518 673.098 Q58.3387 669.851 59.198 666.7 Q60.0256 663.549 60.0256 660.462 Q60.0256 656.324 58.6251 654.096 Q57.1929 651.868 54.6147 651.868 Q52.2276 651.868 50.9545 653.492 Q49.6813 655.083 48.5037 660.526 L48.0262 662.563 Q46.8804 668.005 44.5251 670.424 Q42.138 672.843 38.0002 672.843 Q32.9713 672.843 30.2341 669.279 Q27.4968 665.714 27.4968 659.157 Q27.4968 655.911 27.9743 653.046 Q28.4517 650.181 29.4065 647.762 Z" fill="#000000" fill-rule="nonzero" fill-opacity="1" /><path clip-path="url(#clip470)" d="M14.5426 637.45 L14.5426 632.357 Q22.0542 627.583 29.2474 625.228 Q36.4406 622.841 43.5384 622.841 Q50.668 622.841 57.8931 625.228 Q65.1182 627.583 72.5979 632.357 L72.5979 637.45 Q65.3091 633.217 58.1159 631.148 Q50.8908 629.047 43.5384 629.047 Q36.186 629.047 29.0246 631.148 Q21.8632 633.217 14.5426 637.45 Z" fill="#000000" fill-rule="nonzero" fill-opacity="1" /><path clip-path="url(#clip470)" d="M754.181 12.096 L805.344 12.096 L805.344 18.9825 L783.875 18.9825 L783.875 72.576 L775.651 72.576 L775.651 18.9825 L754.181 18.9825 L754.181 12.096 Z" fill="#000000" fill-rule="nonzero" fill-opacity="1" /><path clip-path="url(#clip470)" d="M810.367 27.2059 L817.821 27.2059 L817.821 72.576 L810.367 72.576 L810.367 27.2059 M810.367 9.54393 L817.821 9.54393 L817.821 18.9825 L810.367 18.9825 L810.367 9.54393 Z" fill="#000000" fill-rule="nonzero" fill-opacity="1" /><path clip-path="url(#clip470)" d="M868.741 35.9153 Q871.536 30.8922 875.425 28.5022 Q879.314 26.1121 884.58 26.1121 Q891.669 26.1121 895.517 31.0947 Q899.366 36.0368 899.366 45.1919 L899.366 72.576 L891.872 72.576 L891.872 45.4349 Q891.872 38.913 889.563 35.7533 Q887.254 32.5936 882.514 32.5936 Q876.721 32.5936 873.359 36.4419 Q869.997 40.2903 869.997 46.9338 L869.997 72.576 L862.503 72.576 L862.503 45.4349 Q862.503 38.8725 860.194 35.7533 Q857.885 32.5936 853.064 32.5936 Q847.352 32.5936 843.99 36.4824 Q840.628 40.3308 840.628 46.9338 L840.628 72.576 L833.134 72.576 L833.134 27.2059 L840.628 27.2059 L840.628 34.2544 Q843.18 30.082 846.745 28.0971 Q850.309 26.1121 855.211 26.1121 Q860.153 26.1121 863.596 28.6237 Q867.08 31.1352 868.741 35.9153 Z" fill="#000000" fill-rule="nonzero" fill-opacity="1" /><path clip-path="url(#clip470)" d="M953.04 48.0275 L953.04 51.6733 L918.77 51.6733 Q919.256 59.3701 923.388 63.421 Q927.56 67.4314 934.973 67.4314 Q939.267 67.4314 943.278 66.3781 Q947.329 65.3249 951.298 63.2184 L951.298 70.267 Q947.288 71.9684 943.075 72.8596 Q938.862 73.7508 934.528 73.7508 Q923.671 73.7508 917.311 67.4314 Q910.992 61.1119 910.992 50.3365 Q910.992 39.1965 916.987 32.6746 Q923.023 26.1121 933.231 26.1121 Q942.386 26.1121 947.693 32.0264 Q953.04 37.9003 953.04 48.0275 M945.587 45.84 Q945.506 39.7232 942.143 36.0774 Q938.822 32.4315 933.312 32.4315 Q927.074 32.4315 923.307 35.9558 Q919.58 39.4801 919.013 45.8805 L945.587 45.84 Z" fill="#000000" fill-rule="nonzero" fill-opacity="1" /><path clip-path="url(#clip470)" d="M999.018 14.324 L999.018 27.2059 L1014.37 27.2059 L1014.37 32.9987 L999.018 32.9987 L999.018 57.6282 Q999.018 63.1779 1000.52 64.7578 Q1002.06 66.3376 1006.71 66.3376 L1014.37 66.3376 L1014.37 72.576 L1006.71 72.576 Q998.086 72.576 994.805 69.3758 Q991.524 66.1351 991.524 57.6282 L991.524 32.9987 L986.055 32.9987 L986.055 27.2059 L991.524 27.2059 L991.524 14.324 L999.018 14.324 Z" fill="#000000" fill-rule="nonzero" fill-opacity="1" /><path clip-path="url(#clip470)" d="M1041.76 32.4315 Q1035.76 32.4315 1032.28 37.1306 Q1028.79 41.7891 1028.79 49.9314 Q1028.79 58.0738 1032.24 62.7728 Q1035.72 67.4314 1041.76 67.4314 Q1047.71 67.4314 1051.19 62.7323 Q1054.68 58.0333 1054.68 49.9314 Q1054.68 41.8701 1051.19 37.1711 Q1047.71 32.4315 1041.76 32.4315 M1041.76 26.1121 Q1051.48 26.1121 1057.03 32.4315 Q1062.58 38.7509 1062.58 49.9314 Q1062.58 61.0714 1057.03 67.4314 Q1051.48 73.7508 1041.76 73.7508 Q1031.99 73.7508 1026.44 67.4314 Q1020.93 61.0714 1020.93 49.9314 Q1020.93 38.7509 1026.44 32.4315 Q1031.99 26.1121 1041.76 26.1121 Z" fill="#000000" fill-rule="nonzero" fill-opacity="1" /><path clip-path="url(#clip470)" d="M1133.95 28.9478 L1133.95 35.9153 Q1130.79 34.1734 1127.59 33.3227 Q1124.43 32.4315 1121.19 32.4315 Q1113.94 32.4315 1109.93 37.0496 Q1105.92 41.6271 1105.92 49.9314 Q1105.92 58.2358 1109.93 62.8538 Q1113.94 67.4314 1121.19 67.4314 Q1124.43 67.4314 1127.59 66.5807 Q1130.79 65.6895 1133.95 63.9476 L1133.95 70.8341 Q1130.83 72.2924 1127.47 73.0216 Q1124.15 73.7508 1120.38 73.7508 Q1110.13 73.7508 1104.1 67.3098 Q1098.06 60.8689 1098.06 49.9314 Q1098.06 38.832 1104.14 32.472 Q1110.26 26.1121 1120.87 26.1121 Q1124.31 26.1121 1127.59 26.8413 Q1130.87 27.5299 1133.95 28.9478 Z" fill="#000000" fill-rule="nonzero" fill-opacity="1" /><path clip-path="url(#clip470)" d="M1164.5 32.4315 Q1158.5 32.4315 1155.02 37.1306 Q1151.53 41.7891 1151.53 49.9314 Q1151.53 58.0738 1154.98 62.7728 Q1158.46 67.4314 1164.5 67.4314 Q1170.45 67.4314 1173.94 62.7323 Q1177.42 58.0333 1177.42 49.9314 Q1177.42 41.8701 1173.94 37.1711 Q1170.45 32.4315 1164.5 32.4315 M1164.5 26.1121 Q1174.22 26.1121 1179.77 32.4315 Q1185.32 38.7509 1185.32 49.9314 Q1185.32 61.0714 1179.77 67.4314 Q1174.22 73.7508 1164.5 73.7508 Q1154.73 73.7508 1149.19 67.4314 Q1143.68 61.0714 1143.68 49.9314 Q1143.68 38.7509 1149.19 32.4315 Q1154.73 26.1121 1164.5 26.1121 Z" fill="#000000" fill-rule="nonzero" fill-opacity="1" /><path clip-path="url(#clip470)" d="M1233 35.9153 Q1235.79 30.8922 1239.68 28.5022 Q1243.57 26.1121 1248.84 26.1121 Q1255.93 26.1121 1259.77 31.0947 Q1263.62 36.0368 1263.62 45.1919 L1263.62 72.576 L1256.13 72.576 L1256.13 45.4349 Q1256.13 38.913 1253.82 35.7533 Q1251.51 32.5936 1246.77 32.5936 Q1240.98 32.5936 1237.62 36.4419 Q1234.25 40.2903 1234.25 46.9338 L1234.25 72.576 L1226.76 72.576 L1226.76 45.4349 Q1226.76 38.8725 1224.45 35.7533 Q1222.14 32.5936 1217.32 32.5936 Q1211.61 32.5936 1208.25 36.4824 Q1204.89 40.3308 1204.89 46.9338 L1204.89 72.576 L1197.39 72.576 L1197.39 27.2059 L1204.89 27.2059 L1204.89 34.2544 Q1207.44 30.082 1211 28.0971 Q1214.57 26.1121 1219.47 26.1121 Q1224.41 26.1121 1227.85 28.6237 Q1231.34 31.1352 1233 35.9153 Z" fill="#000000" fill-rule="nonzero" fill-opacity="1" /><path clip-path="url(#clip470)" d="M1285.7 65.7705 L1285.7 89.8329 L1278.21 89.8329 L1278.21 27.2059 L1285.7 27.2059 L1285.7 34.0924 Q1288.05 30.0415 1291.61 28.0971 Q1295.22 26.1121 1300.2 26.1121 Q1308.47 26.1121 1313.61 32.6746 Q1318.8 39.2371 1318.8 49.9314 Q1318.8 60.6258 1313.61 67.1883 Q1308.47 73.7508 1300.2 73.7508 Q1295.22 73.7508 1291.61 71.8063 Q1288.05 69.8214 1285.7 65.7705 M1311.06 49.9314 Q1311.06 41.7081 1307.66 37.0496 Q1304.29 32.3505 1298.38 32.3505 Q1292.47 32.3505 1289.06 37.0496 Q1285.7 41.7081 1285.7 49.9314 Q1285.7 58.1548 1289.06 62.8538 Q1292.47 67.5124 1298.38 67.5124 Q1304.29 67.5124 1307.66 62.8538 Q1311.06 58.1548 1311.06 49.9314 Z" fill="#000000" fill-rule="nonzero" fill-opacity="1" /><path clip-path="url(#clip470)" d="M1330.38 54.671 L1330.38 27.2059 L1337.84 27.2059 L1337.84 54.3874 Q1337.84 60.8284 1340.35 64.0691 Q1342.86 67.2693 1347.88 67.2693 Q1353.92 67.2693 1357.4 63.421 Q1360.93 59.5726 1360.93 52.9291 L1360.93 27.2059 L1368.38 27.2059 L1368.38 72.576 L1360.93 72.576 L1360.93 65.6084 Q1358.21 69.7404 1354.61 71.7658 Q1351.04 73.7508 1346.3 73.7508 Q1338.48 73.7508 1334.43 68.8897 Q1330.38 64.0286 1330.38 54.671 M1349.14 26.1121 L1349.14 26.1121 Z" fill="#000000" fill-rule="nonzero" fill-opacity="1" /><path clip-path="url(#clip470)" d="M1391.11 14.324 L1391.11 27.2059 L1406.46 27.2059 L1406.46 32.9987 L1391.11 32.9987 L1391.11 57.6282 Q1391.11 63.1779 1392.6 64.7578 Q1394.14 66.3376 1398.8 66.3376 L1406.46 66.3376 L1406.46 72.576 L1398.8 72.576 Q1390.17 72.576 1386.89 69.3758 Q1383.61 66.1351 1383.61 57.6282 L1383.61 32.9987 L1378.14 32.9987 L1378.14 27.2059 L1383.61 27.2059 L1383.61 14.324 L1391.11 14.324 Z" fill="#000000" fill-rule="nonzero" fill-opacity="1" /><path clip-path="url(#clip470)" d="M1455.07 48.0275 L1455.07 51.6733 L1420.8 51.6733 Q1421.28 59.3701 1425.42 63.421 Q1429.59 67.4314 1437 67.4314 Q1441.3 67.4314 1445.31 66.3781 Q1449.36 65.3249 1453.33 63.2184 L1453.33 70.267 Q1449.32 71.9684 1445.1 72.8596 Q1440.89 73.7508 1436.56 73.7508 Q1425.7 73.7508 1419.34 67.4314 Q1413.02 61.1119 1413.02 50.3365 Q1413.02 39.1965 1419.02 32.6746 Q1425.05 26.1121 1435.26 26.1121 Q1444.41 26.1121 1449.72 32.0264 Q1455.07 37.9003 1455.07 48.0275 M1447.62 45.84 Q1447.53 39.7232 1444.17 36.0774 Q1440.85 32.4315 1435.34 32.4315 Q1429.1 32.4315 1425.34 35.9558 Q1421.61 39.4801 1421.04 45.8805 L1447.62 45.84 Z" fill="#000000" fill-rule="nonzero" fill-opacity="1" /><path clip-path="url(#clip470)" d="M1514.21 20.1573 L1503.11 50.2555 L1525.35 50.2555 L1514.21 20.1573 M1509.59 12.096 L1518.87 12.096 L1541.92 72.576 L1533.41 72.576 L1527.9 57.061 L1500.64 57.061 L1495.13 72.576 L1486.5 72.576 L1509.59 12.096 Z" fill="#000000" fill-rule="nonzero" fill-opacity="1" /><path clip-path="url(#clip470)" d="M1581.62 28.9478 L1581.62 35.9153 Q1578.46 34.1734 1575.26 33.3227 Q1572.1 32.4315 1568.86 32.4315 Q1561.61 32.4315 1557.6 37.0496 Q1553.59 41.6271 1553.59 49.9314 Q1553.59 58.2358 1557.6 62.8538 Q1561.61 67.4314 1568.86 67.4314 Q1572.1 67.4314 1575.26 66.5807 Q1578.46 65.6895 1581.62 63.9476 L1581.62 70.8341 Q1578.5 72.2924 1575.14 73.0216 Q1571.82 73.7508 1568.05 73.7508 Q1557.8 73.7508 1551.76 67.3098 Q1545.73 60.8689 1545.73 49.9314 Q1545.73 38.832 1551.8 32.472 Q1557.92 26.1121 1568.53 26.1121 Q1571.98 26.1121 1575.26 26.8413 Q1578.54 27.5299 1581.62 28.9478 Z" fill="#000000" fill-rule="nonzero" fill-opacity="1" /><path clip-path="url(#clip470)" d="M1627.23 28.9478 L1627.23 35.9153 Q1624.07 34.1734 1620.87 33.3227 Q1617.71 32.4315 1614.47 32.4315 Q1607.22 32.4315 1603.21 37.0496 Q1599.2 41.6271 1599.2 49.9314 Q1599.2 58.2358 1603.21 62.8538 Q1607.22 67.4314 1614.47 67.4314 Q1617.71 67.4314 1620.87 66.5807 Q1624.07 65.6895 1627.23 63.9476 L1627.23 70.8341 Q1624.11 72.2924 1620.75 73.0216 Q1617.43 73.7508 1613.66 73.7508 Q1603.41 73.7508 1597.38 67.3098 Q1591.34 60.8689 1591.34 49.9314 Q1591.34 38.832 1597.42 32.472 Q1603.53 26.1121 1614.15 26.1121 Q1617.59 26.1121 1620.87 26.8413 Q1624.15 27.5299 1627.23 28.9478 Z" fill="#000000" fill-rule="nonzero" fill-opacity="1" /><path clip-path="url(#clip470)" d="M1679 48.0275 L1679 51.6733 L1644.73 51.6733 Q1645.22 59.3701 1649.35 63.421 Q1653.52 67.4314 1660.94 67.4314 Q1665.23 67.4314 1669.24 66.3781 Q1673.29 65.3249 1677.26 63.2184 L1677.26 70.267 Q1673.25 71.9684 1669.04 72.8596 Q1664.82 73.7508 1660.49 73.7508 Q1649.63 73.7508 1643.27 67.4314 Q1636.95 61.1119 1636.95 50.3365 Q1636.95 39.1965 1642.95 32.6746 Q1648.99 26.1121 1659.19 26.1121 Q1668.35 26.1121 1673.66 32.0264 Q1679 37.9003 1679 48.0275 M1671.55 45.84 Q1671.47 39.7232 1668.11 36.0774 Q1664.78 32.4315 1659.27 32.4315 Q1653.04 32.4315 1649.27 35.9558 Q1645.54 39.4801 1644.98 45.8805 L1671.55 45.84 Z" fill="#000000" fill-rule="nonzero" fill-opacity="1" /><path clip-path="url(#clip470)" d="M1720.16 28.5427 L1720.16 35.5912 Q1717 33.9709 1713.6 33.1607 Q1710.19 32.3505 1706.55 32.3505 Q1701 32.3505 1698.2 34.0519 Q1695.45 35.7533 1695.45 39.156 Q1695.45 41.7486 1697.43 43.2475 Q1699.42 44.7058 1705.41 46.0426 L1707.97 46.6097 Q1715.91 48.3111 1719.23 51.4303 Q1722.59 54.509 1722.59 60.0587 Q1722.59 66.3781 1717.57 70.0644 Q1712.58 73.7508 1703.83 73.7508 Q1700.19 73.7508 1696.22 73.0216 Q1692.29 72.3329 1687.91 70.9151 L1687.91 63.2184 Q1692.05 65.3654 1696.06 66.4591 Q1700.07 67.5124 1704 67.5124 Q1709.26 67.5124 1712.1 65.73 Q1714.93 63.9071 1714.93 60.6258 Q1714.93 57.5877 1712.87 55.9673 Q1710.84 54.3469 1703.92 52.8481 L1701.32 52.2405 Q1694.4 50.7821 1691.32 47.7845 Q1688.24 44.7463 1688.24 39.4801 Q1688.24 33.0797 1692.78 29.5959 Q1697.31 26.1121 1705.66 26.1121 Q1709.79 26.1121 1713.44 26.7198 Q1717.08 27.3274 1720.16 28.5427 Z" fill="#000000" fill-rule="nonzero" fill-opacity="1" /><path clip-path="url(#clip470)" d="M1763.38 28.5427 L1763.38 35.5912 Q1760.22 33.9709 1756.82 33.1607 Q1753.42 32.3505 1749.77 32.3505 Q1744.22 32.3505 1741.43 34.0519 Q1738.67 35.7533 1738.67 39.156 Q1738.67 41.7486 1740.66 43.2475 Q1742.64 44.7058 1748.64 46.0426 L1751.19 46.6097 Q1759.13 48.3111 1762.45 51.4303 Q1765.81 54.509 1765.81 60.0587 Q1765.81 66.3781 1760.79 70.0644 Q1755.81 73.7508 1747.06 73.7508 Q1743.41 73.7508 1739.44 73.0216 Q1735.51 72.3329 1731.14 70.9151 L1731.14 63.2184 Q1735.27 65.3654 1739.28 66.4591 Q1743.29 67.5124 1747.22 67.5124 Q1752.49 67.5124 1755.32 65.73 Q1758.16 63.9071 1758.16 60.6258 Q1758.16 57.5877 1756.09 55.9673 Q1754.07 54.3469 1747.14 52.8481 L1744.55 52.2405 Q1737.62 50.7821 1734.54 47.7845 Q1731.46 44.7463 1731.46 39.4801 Q1731.46 33.0797 1736 29.5959 Q1740.54 26.1121 1748.88 26.1121 Q1753.01 26.1121 1756.66 26.7198 Q1760.3 27.3274 1763.38 28.5427 Z" fill="#000000" fill-rule="nonzero" fill-opacity="1" /><path clip-path="url(#clip470)" d="M1804.38 12.096 L1812.56 12.096 L1812.56 65.6895 L1842.01 65.6895 L1842.01 72.576 L1804.38 72.576 L1804.38 12.096 Z" fill="#000000" fill-rule="nonzero" fill-opacity="1" /><path clip-path="url(#clip470)" d="M1850.28 27.2059 L1857.73 27.2059 L1857.73 72.576 L1850.28 72.576 L1850.28 27.2059 M1850.28 9.54393 L1857.73 9.54393 L1857.73 18.9825 L1850.28 18.9825 L1850.28 9.54393 Z" fill="#000000" fill-rule="nonzero" fill-opacity="1" /><path clip-path="url(#clip470)" d="M1902.25 28.5427 L1902.25 35.5912 Q1899.09 33.9709 1895.69 33.1607 Q1892.28 32.3505 1888.64 32.3505 Q1883.09 32.3505 1880.29 34.0519 Q1877.54 35.7533 1877.54 39.156 Q1877.54 41.7486 1879.52 43.2475 Q1881.51 44.7058 1887.5 46.0426 L1890.05 46.6097 Q1897.99 48.3111 1901.32 51.4303 Q1904.68 54.509 1904.68 60.0587 Q1904.68 66.3781 1899.66 70.0644 Q1894.67 73.7508 1885.92 73.7508 Q1882.28 73.7508 1878.31 73.0216 Q1874.38 72.3329 1870 70.9151 L1870 63.2184 Q1874.13 65.3654 1878.15 66.4591 Q1882.16 67.5124 1886.09 67.5124 Q1891.35 67.5124 1894.19 65.73 Q1897.02 63.9071 1897.02 60.6258 Q1897.02 57.5877 1894.96 55.9673 Q1892.93 54.3469 1886 52.8481 L1883.41 52.2405 Q1876.48 50.7821 1873.41 47.7845 Q1870.33 44.7463 1870.33 39.4801 Q1870.33 33.0797 1874.86 29.5959 Q1879.4 26.1121 1887.75 26.1121 Q1891.88 26.1121 1895.52 26.7198 Q1899.17 27.3274 1902.25 28.5427 Z" fill="#000000" fill-rule="nonzero" fill-opacity="1" /><path clip-path="url(#clip470)" d="M1923.92 14.324 L1923.92 27.2059 L1939.27 27.2059 L1939.27 32.9987 L1923.92 32.9987 L1923.92 57.6282 Q1923.92 63.1779 1925.42 64.7578 Q1926.96 66.3376 1931.62 66.3376 L1939.27 66.3376 L1939.27 72.576 L1931.62 72.576 Q1922.99 72.576 1919.71 69.3758 Q1916.43 66.1351 1916.43 57.6282 L1916.43 32.9987 L1910.96 32.9987 L1910.96 27.2059 L1916.43 27.2059 L1916.43 14.324 L1923.92 14.324 Z" fill="#000000" fill-rule="nonzero" fill-opacity="1" /><polyline clip-path="url(#clip472)" style="stroke:#009af9; stroke-linecap:round; stroke-linejoin:round; stroke-width:4; stroke-opacity:1; fill:none" points="397.644,1386.33 406.19,1386.39 444.172,1386.38 491.65,1386.37 539.128,1386.37 586.606,1386.35 634.084,1386.39 681.562,1386.39 729.04,1386.39 776.518,1386.29 871.474,1386.38 1346.25,1386.34 2295.81,1386.01 "/>
<polyline clip-path="url(#clip472)" style="stroke:#e26f46; stroke-linecap:round; stroke-linejoin:round; stroke-width:4; stroke-opacity:1; fill:none" points="397.644,1386.33 406.19,1382.47 444.172,1370.46 491.65,1355.6 539.128,1341.02 586.606,1326.25 634.084,1310.53 681.562,1296.5 729.04,1281.68 776.518,1265.93 871.474,1237.11 1346.25,1086.74 2295.81,793.198 "/>
<polyline clip-path="url(#clip472)" style="stroke:#3da44d; stroke-linecap:round; stroke-linejoin:round; stroke-width:4; stroke-opacity:1; fill:none" points="397.644,1386.39 406.19,1381.54 444.172,1363.33 491.65,1341.03 539.128,1318.46 586.606,1295.92 634.084,1273.13 681.562,1249.97 729.04,1228.13 776.518,1205.65 871.474,1156.53 1346.25,932.329 2295.81,478.028 "/>
<polyline clip-path="url(#clip472)" style="stroke:#c271d2; stroke-linecap:round; stroke-linejoin:round; stroke-width:4; stroke-opacity:1; fill:none" points="397.644,1386.4 406.19,1380.27 444.172,1355.71 491.65,1325.47 539.128,1295.12 586.606,1264.56 634.084,1233.48 681.562,1201.18 729.04,1172.88 776.518,1142.4 871.474,1075.48 1346.25,775.771 2295.81,160.256 "/>
<polyline clip-path="url(#clip472)" style="stroke:#ac8d18; stroke-linecap:round; stroke-linejoin:round; stroke-width:4; stroke-opacity:1; fill:none" points="397.644,1386.31 406.19,1379.83 444.172,1355.65 491.65,1325.77 539.128,1295.51 586.606,1265.09 634.084,1235.49 681.562,1205.88 729.04,1175.04 776.518,1145.54 871.474,1082.4 1346.25,783.847 2295.81,180.39 "/>
<circle clip-path="url(#clip472)" cx="397.644" cy="1386.33" r="14.4" fill="#00a9ad" fill-rule="evenodd" fill-opacity="1" stroke="#000000" stroke-opacity="1" stroke-width="3.2"/>
<circle clip-path="url(#clip472)" cx="406.19" cy="1386.39" r="14.4" fill="#00a9ad" fill-rule="evenodd" fill-opacity="1" stroke="#000000" stroke-opacity="1" stroke-width="3.2"/>
<circle clip-path="url(#clip472)" cx="444.172" cy="1386.38" r="14.4" fill="#00a9ad" fill-rule="evenodd" fill-opacity="1" stroke="#000000" stroke-opacity="1" stroke-width="3.2"/>
<circle clip-path="url(#clip472)" cx="491.65" cy="1386.37" r="14.4" fill="#00a9ad" fill-rule="evenodd" fill-opacity="1" stroke="#000000" stroke-opacity="1" stroke-width="3.2"/>
<circle clip-path="url(#clip472)" cx="539.128" cy="1386.37" r="14.4" fill="#00a9ad" fill-rule="evenodd" fill-opacity="1" stroke="#000000" stroke-opacity="1" stroke-width="3.2"/>
<circle clip-path="url(#clip472)" cx="586.606" cy="1386.35" r="14.4" fill="#00a9ad" fill-rule="evenodd" fill-opacity="1" stroke="#000000" stroke-opacity="1" stroke-width="3.2"/>
<circle clip-path="url(#clip472)" cx="634.084" cy="1386.39" r="14.4" fill="#00a9ad" fill-rule="evenodd" fill-opacity="1" stroke="#000000" stroke-opacity="1" stroke-width="3.2"/>
<circle clip-path="url(#clip472)" cx="681.562" cy="1386.39" r="14.4" fill="#00a9ad" fill-rule="evenodd" fill-opacity="1" stroke="#000000" stroke-opacity="1" stroke-width="3.2"/>
<circle clip-path="url(#clip472)" cx="729.04" cy="1386.39" r="14.4" fill="#00a9ad" fill-rule="evenodd" fill-opacity="1" stroke="#000000" stroke-opacity="1" stroke-width="3.2"/>
<circle clip-path="url(#clip472)" cx="776.518" cy="1386.29" r="14.4" fill="#00a9ad" fill-rule="evenodd" fill-opacity="1" stroke="#000000" stroke-opacity="1" stroke-width="3.2"/>
<circle clip-path="url(#clip472)" cx="871.474" cy="1386.38" r="14.4" fill="#00a9ad" fill-rule="evenodd" fill-opacity="1" stroke="#000000" stroke-opacity="1" stroke-width="3.2"/>
<circle clip-path="url(#clip472)" cx="1346.25" cy="1386.34" r="14.4" fill="#00a9ad" fill-rule="evenodd" fill-opacity="1" stroke="#000000" stroke-opacity="1" stroke-width="3.2"/>
<circle clip-path="url(#clip472)" cx="2295.81" cy="1386.01" r="14.4" fill="#00a9ad" fill-rule="evenodd" fill-opacity="1" stroke="#000000" stroke-opacity="1" stroke-width="3.2"/>
<circle clip-path="url(#clip472)" cx="397.644" cy="1386.33" r="14.4" fill="#ed5d92" fill-rule="evenodd" fill-opacity="1" stroke="#000000" stroke-opacity="1" stroke-width="3.2"/>
<circle clip-path="url(#clip472)" cx="406.19" cy="1382.47" r="14.4" fill="#ed5d92" fill-rule="evenodd" fill-opacity="1" stroke="#000000" stroke-opacity="1" stroke-width="3.2"/>
<circle clip-path="url(#clip472)" cx="444.172" cy="1370.46" r="14.4" fill="#ed5d92" fill-rule="evenodd" fill-opacity="1" stroke="#000000" stroke-opacity="1" stroke-width="3.2"/>
<circle clip-path="url(#clip472)" cx="491.65" cy="1355.6" r="14.4" fill="#ed5d92" fill-rule="evenodd" fill-opacity="1" stroke="#000000" stroke-opacity="1" stroke-width="3.2"/>
<circle clip-path="url(#clip472)" cx="539.128" cy="1341.02" r="14.4" fill="#ed5d92" fill-rule="evenodd" fill-opacity="1" stroke="#000000" stroke-opacity="1" stroke-width="3.2"/>
<circle clip-path="url(#clip472)" cx="586.606" cy="1326.25" r="14.4" fill="#ed5d92" fill-rule="evenodd" fill-opacity="1" stroke="#000000" stroke-opacity="1" stroke-width="3.2"/>
<circle clip-path="url(#clip472)" cx="634.084" cy="1310.53" r="14.4" fill="#ed5d92" fill-rule="evenodd" fill-opacity="1" stroke="#000000" stroke-opacity="1" stroke-width="3.2"/>
<circle clip-path="url(#clip472)" cx="681.562" cy="1296.5" r="14.4" fill="#ed5d92" fill-rule="evenodd" fill-opacity="1" stroke="#000000" stroke-opacity="1" stroke-width="3.2"/>
<circle clip-path="url(#clip472)" cx="729.04" cy="1281.68" r="14.4" fill="#ed5d92" fill-rule="evenodd" fill-opacity="1" stroke="#000000" stroke-opacity="1" stroke-width="3.2"/>
<circle clip-path="url(#clip472)" cx="776.518" cy="1265.93" r="14.4" fill="#ed5d92" fill-rule="evenodd" fill-opacity="1" stroke="#000000" stroke-opacity="1" stroke-width="3.2"/>
<circle clip-path="url(#clip472)" cx="871.474" cy="1237.11" r="14.4" fill="#ed5d92" fill-rule="evenodd" fill-opacity="1" stroke="#000000" stroke-opacity="1" stroke-width="3.2"/>
<circle clip-path="url(#clip472)" cx="1346.25" cy="1086.74" r="14.4" fill="#ed5d92" fill-rule="evenodd" fill-opacity="1" stroke="#000000" stroke-opacity="1" stroke-width="3.2"/>
<circle clip-path="url(#clip472)" cx="2295.81" cy="793.198" r="14.4" fill="#ed5d92" fill-rule="evenodd" fill-opacity="1" stroke="#000000" stroke-opacity="1" stroke-width="3.2"/>
<circle clip-path="url(#clip472)" cx="397.644" cy="1386.39" r="14.4" fill="#c68125" fill-rule="evenodd" fill-opacity="1" stroke="#000000" stroke-opacity="1" stroke-width="3.2"/>
<circle clip-path="url(#clip472)" cx="406.19" cy="1381.54" r="14.4" fill="#c68125" fill-rule="evenodd" fill-opacity="1" stroke="#000000" stroke-opacity="1" stroke-width="3.2"/>
<circle clip-path="url(#clip472)" cx="444.172" cy="1363.33" r="14.4" fill="#c68125" fill-rule="evenodd" fill-opacity="1" stroke="#000000" stroke-opacity="1" stroke-width="3.2"/>
<circle clip-path="url(#clip472)" cx="491.65" cy="1341.03" r="14.4" fill="#c68125" fill-rule="evenodd" fill-opacity="1" stroke="#000000" stroke-opacity="1" stroke-width="3.2"/>
<circle clip-path="url(#clip472)" cx="539.128" cy="1318.46" r="14.4" fill="#c68125" fill-rule="evenodd" fill-opacity="1" stroke="#000000" stroke-opacity="1" stroke-width="3.2"/>
<circle clip-path="url(#clip472)" cx="586.606" cy="1295.92" r="14.4" fill="#c68125" fill-rule="evenodd" fill-opacity="1" stroke="#000000" stroke-opacity="1" stroke-width="3.2"/>
<circle clip-path="url(#clip472)" cx="634.084" cy="1273.13" r="14.4" fill="#c68125" fill-rule="evenodd" fill-opacity="1" stroke="#000000" stroke-opacity="1" stroke-width="3.2"/>
<circle clip-path="url(#clip472)" cx="681.562" cy="1249.97" r="14.4" fill="#c68125" fill-rule="evenodd" fill-opacity="1" stroke="#000000" stroke-opacity="1" stroke-width="3.2"/>
<circle clip-path="url(#clip472)" cx="729.04" cy="1228.13" r="14.4" fill="#c68125" fill-rule="evenodd" fill-opacity="1" stroke="#000000" stroke-opacity="1" stroke-width="3.2"/>
<circle clip-path="url(#clip472)" cx="776.518" cy="1205.65" r="14.4" fill="#c68125" fill-rule="evenodd" fill-opacity="1" stroke="#000000" stroke-opacity="1" stroke-width="3.2"/>
<circle clip-path="url(#clip472)" cx="871.474" cy="1156.53" r="14.4" fill="#c68125" fill-rule="evenodd" fill-opacity="1" stroke="#000000" stroke-opacity="1" stroke-width="3.2"/>
<circle clip-path="url(#clip472)" cx="1346.25" cy="932.329" r="14.4" fill="#c68125" fill-rule="evenodd" fill-opacity="1" stroke="#000000" stroke-opacity="1" stroke-width="3.2"/>
<circle clip-path="url(#clip472)" cx="2295.81" cy="478.028" r="14.4" fill="#c68125" fill-rule="evenodd" fill-opacity="1" stroke="#000000" stroke-opacity="1" stroke-width="3.2"/>
<circle clip-path="url(#clip472)" cx="397.644" cy="1386.4" r="14.4" fill="#00a98d" fill-rule="evenodd" fill-opacity="1" stroke="#000000" stroke-opacity="1" stroke-width="3.2"/>
<circle clip-path="url(#clip472)" cx="406.19" cy="1380.27" r="14.4" fill="#00a98d" fill-rule="evenodd" fill-opacity="1" stroke="#000000" stroke-opacity="1" stroke-width="3.2"/>
<circle clip-path="url(#clip472)" cx="444.172" cy="1355.71" r="14.4" fill="#00a98d" fill-rule="evenodd" fill-opacity="1" stroke="#000000" stroke-opacity="1" stroke-width="3.2"/>
<circle clip-path="url(#clip472)" cx="491.65" cy="1325.47" r="14.4" fill="#00a98d" fill-rule="evenodd" fill-opacity="1" stroke="#000000" stroke-opacity="1" stroke-width="3.2"/>
<circle clip-path="url(#clip472)" cx="539.128" cy="1295.12" r="14.4" fill="#00a98d" fill-rule="evenodd" fill-opacity="1" stroke="#000000" stroke-opacity="1" stroke-width="3.2"/>
<circle clip-path="url(#clip472)" cx="586.606" cy="1264.56" r="14.4" fill="#00a98d" fill-rule="evenodd" fill-opacity="1" stroke="#000000" stroke-opacity="1" stroke-width="3.2"/>
<circle clip-path="url(#clip472)" cx="634.084" cy="1233.48" r="14.4" fill="#00a98d" fill-rule="evenodd" fill-opacity="1" stroke="#000000" stroke-opacity="1" stroke-width="3.2"/>
<circle clip-path="url(#clip472)" cx="681.562" cy="1201.18" r="14.4" fill="#00a98d" fill-rule="evenodd" fill-opacity="1" stroke="#000000" stroke-opacity="1" stroke-width="3.2"/>
<circle clip-path="url(#clip472)" cx="729.04" cy="1172.88" r="14.4" fill="#00a98d" fill-rule="evenodd" fill-opacity="1" stroke="#000000" stroke-opacity="1" stroke-width="3.2"/>
<circle clip-path="url(#clip472)" cx="776.518" cy="1142.4" r="14.4" fill="#00a98d" fill-rule="evenodd" fill-opacity="1" stroke="#000000" stroke-opacity="1" stroke-width="3.2"/>
<circle clip-path="url(#clip472)" cx="871.474" cy="1075.48" r="14.4" fill="#00a98d" fill-rule="evenodd" fill-opacity="1" stroke="#000000" stroke-opacity="1" stroke-width="3.2"/>
<circle clip-path="url(#clip472)" cx="1346.25" cy="775.771" r="14.4" fill="#00a98d" fill-rule="evenodd" fill-opacity="1" stroke="#000000" stroke-opacity="1" stroke-width="3.2"/>
<circle clip-path="url(#clip472)" cx="2295.81" cy="160.256" r="14.4" fill="#00a98d" fill-rule="evenodd" fill-opacity="1" stroke="#000000" stroke-opacity="1" stroke-width="3.2"/>
<circle clip-path="url(#clip472)" cx="397.644" cy="1386.31" r="14.4" fill="#8e971d" fill-rule="evenodd" fill-opacity="1" stroke="#000000" stroke-opacity="1" stroke-width="3.2"/>
<circle clip-path="url(#clip472)" cx="406.19" cy="1379.83" r="14.4" fill="#8e971d" fill-rule="evenodd" fill-opacity="1" stroke="#000000" stroke-opacity="1" stroke-width="3.2"/>
<circle clip-path="url(#clip472)" cx="444.172" cy="1355.65" r="14.4" fill="#8e971d" fill-rule="evenodd" fill-opacity="1" stroke="#000000" stroke-opacity="1" stroke-width="3.2"/>
<circle clip-path="url(#clip472)" cx="491.65" cy="1325.77" r="14.4" fill="#8e971d" fill-rule="evenodd" fill-opacity="1" stroke="#000000" stroke-opacity="1" stroke-width="3.2"/>
<circle clip-path="url(#clip472)" cx="539.128" cy="1295.51" r="14.4" fill="#8e971d" fill-rule="evenodd" fill-opacity="1" stroke="#000000" stroke-opacity="1" stroke-width="3.2"/>
<circle clip-path="url(#clip472)" cx="586.606" cy="1265.09" r="14.4" fill="#8e971d" fill-rule="evenodd" fill-opacity="1" stroke="#000000" stroke-opacity="1" stroke-width="3.2"/>
<circle clip-path="url(#clip472)" cx="634.084" cy="1235.49" r="14.4" fill="#8e971d" fill-rule="evenodd" fill-opacity="1" stroke="#000000" stroke-opacity="1" stroke-width="3.2"/>
<circle clip-path="url(#clip472)" cx="681.562" cy="1205.88" r="14.4" fill="#8e971d" fill-rule="evenodd" fill-opacity="1" stroke="#000000" stroke-opacity="1" stroke-width="3.2"/>
<circle clip-path="url(#clip472)" cx="729.04" cy="1175.04" r="14.4" fill="#8e971d" fill-rule="evenodd" fill-opacity="1" stroke="#000000" stroke-opacity="1" stroke-width="3.2"/>
<circle clip-path="url(#clip472)" cx="776.518" cy="1145.54" r="14.4" fill="#8e971d" fill-rule="evenodd" fill-opacity="1" stroke="#000000" stroke-opacity="1" stroke-width="3.2"/>
<circle clip-path="url(#clip472)" cx="871.474" cy="1082.4" r="14.4" fill="#8e971d" fill-rule="evenodd" fill-opacity="1" stroke="#000000" stroke-opacity="1" stroke-width="3.2"/>
<circle clip-path="url(#clip472)" cx="1346.25" cy="783.847" r="14.4" fill="#8e971d" fill-rule="evenodd" fill-opacity="1" stroke="#000000" stroke-opacity="1" stroke-width="3.2"/>
<circle clip-path="url(#clip472)" cx="2295.81" cy="180.39" r="14.4" fill="#8e971d" fill-rule="evenodd" fill-opacity="1" stroke="#000000" stroke-opacity="1" stroke-width="3.2"/>
<path clip-path="url(#clip470)" d="M407.768 477.836 L841.611 477.836 L841.611 166.796 L407.768 166.796  Z" fill="#ffffff" fill-rule="evenodd" fill-opacity="1"/>
<polyline clip-path="url(#clip470)" style="stroke:#000000; stroke-linecap:round; stroke-linejoin:round; stroke-width:4; stroke-opacity:1; fill:none" points="407.768,477.836 841.611,477.836 841.611,166.796 407.768,166.796 407.768,477.836 "/>
<polyline clip-path="url(#clip470)" style="stroke:#009af9; stroke-linecap:round; stroke-linejoin:round; stroke-width:4; stroke-opacity:1; fill:none" points="430.124,218.636 564.261,218.636 "/>
<path clip-path="url(#clip470)" d="M603.122 199.897 L603.122 203.439 L599.048 203.439 Q596.756 203.439 595.853 204.365 Q594.973 205.291 594.973 207.698 L594.973 209.99 L601.987 209.99 L601.987 213.3 L594.973 213.3 L594.973 235.916 L590.691 235.916 L590.691 213.3 L586.617 213.3 L586.617 209.99 L590.691 209.99 L590.691 208.184 Q590.691 203.856 592.705 201.888 Q594.719 199.897 599.094 199.897 L603.122 199.897 Z" fill="#000000" fill-rule="nonzero" fill-opacity="1" /><path clip-path="url(#clip470)" d="M606.686 209.99 L610.946 209.99 L610.946 235.916 L606.686 235.916 L606.686 209.99 M606.686 199.897 L610.946 199.897 L610.946 205.291 L606.686 205.291 L606.686 199.897 Z" fill="#000000" fill-rule="nonzero" fill-opacity="1" /><path clip-path="url(#clip470)" d="M634.881 213.971 Q634.163 213.555 633.307 213.37 Q632.473 213.161 631.455 213.161 Q627.844 213.161 625.899 215.522 Q623.978 217.86 623.978 222.258 L623.978 235.916 L619.696 235.916 L619.696 209.99 L623.978 209.99 L623.978 214.018 Q625.321 211.657 627.473 210.522 Q629.626 209.365 632.705 209.365 Q633.145 209.365 633.677 209.434 Q634.209 209.481 634.858 209.596 L634.881 213.971 Z" fill="#000000" fill-rule="nonzero" fill-opacity="1" /><path clip-path="url(#clip470)" d="M655.876 210.754 L655.876 214.782 Q654.07 213.856 652.126 213.393 Q650.181 212.93 648.098 212.93 Q644.927 212.93 643.33 213.902 Q641.756 214.874 641.756 216.819 Q641.756 218.3 642.89 219.157 Q644.024 219.99 647.45 220.754 L648.908 221.078 Q653.445 222.05 655.344 223.832 Q657.265 225.592 657.265 228.763 Q657.265 232.374 654.394 234.481 Q651.547 236.587 646.547 236.587 Q644.464 236.587 642.195 236.17 Q639.95 235.777 637.45 234.967 L637.45 230.569 Q639.811 231.795 642.103 232.42 Q644.394 233.022 646.64 233.022 Q649.649 233.022 651.269 232.004 Q652.89 230.962 652.89 229.087 Q652.89 227.351 651.709 226.425 Q650.552 225.499 646.594 224.643 L645.112 224.295 Q641.154 223.462 639.395 221.749 Q637.635 220.013 637.635 217.004 Q637.635 213.346 640.228 211.356 Q642.82 209.365 647.589 209.365 Q649.95 209.365 652.033 209.712 Q654.117 210.059 655.876 210.754 Z" fill="#000000" fill-rule="nonzero" fill-opacity="1" /><path clip-path="url(#clip470)" d="M668.26 202.629 L668.26 209.99 L677.033 209.99 L677.033 213.3 L668.26 213.3 L668.26 227.374 Q668.26 230.545 669.117 231.448 Q669.996 232.351 672.658 232.351 L677.033 232.351 L677.033 235.916 L672.658 235.916 Q667.728 235.916 665.853 234.087 Q663.978 232.235 663.978 227.374 L663.978 213.3 L660.853 213.3 L660.853 209.99 L663.978 209.99 L663.978 202.629 L668.26 202.629 Z" fill="#000000" fill-rule="nonzero" fill-opacity="1" /><polyline clip-path="url(#clip470)" style="stroke:#e26f46; stroke-linecap:round; stroke-linejoin:round; stroke-width:4; stroke-opacity:1; fill:none" points="430.124,270.476 564.261,270.476 "/>
<path clip-path="url(#clip470)" d="M605.043 262.594 L605.043 266.622 Q603.237 265.696 601.293 265.233 Q599.348 264.77 597.265 264.77 Q594.094 264.77 592.497 265.742 Q590.923 266.714 590.923 268.659 Q590.923 270.14 592.057 270.997 Q593.191 271.83 596.617 272.594 L598.075 272.918 Q602.612 273.89 604.51 275.672 Q606.432 277.432 606.432 280.603 Q606.432 284.214 603.561 286.321 Q600.714 288.427 595.714 288.427 Q593.631 288.427 591.362 288.01 Q589.117 287.617 586.617 286.807 L586.617 282.409 Q588.978 283.635 591.27 284.26 Q593.561 284.862 595.807 284.862 Q598.816 284.862 600.436 283.844 Q602.057 282.802 602.057 280.927 Q602.057 279.191 600.876 278.265 Q599.719 277.339 595.76 276.483 L594.279 276.135 Q590.321 275.302 588.561 273.589 Q586.802 271.853 586.802 268.844 Q586.802 265.186 589.395 263.196 Q591.987 261.205 596.756 261.205 Q599.117 261.205 601.2 261.552 Q603.284 261.899 605.043 262.594 Z" fill="#000000" fill-rule="nonzero" fill-opacity="1" /><path clip-path="url(#clip470)" d="M635.39 273.728 L635.39 275.811 L615.807 275.811 Q616.084 280.209 618.446 282.524 Q620.83 284.816 625.066 284.816 Q627.52 284.816 629.811 284.214 Q632.126 283.612 634.395 282.409 L634.395 286.436 Q632.103 287.408 629.695 287.918 Q627.288 288.427 624.811 288.427 Q618.608 288.427 614.973 284.816 Q611.362 281.205 611.362 275.047 Q611.362 268.682 614.788 264.955 Q618.237 261.205 624.071 261.205 Q629.302 261.205 632.334 264.585 Q635.39 267.941 635.39 273.728 M631.131 272.478 Q631.084 268.983 629.163 266.899 Q627.265 264.816 624.117 264.816 Q620.552 264.816 618.399 266.83 Q616.27 268.844 615.946 272.501 L631.131 272.478 Z" fill="#000000" fill-rule="nonzero" fill-opacity="1" /><path clip-path="url(#clip470)" d="M661.038 262.825 L661.038 266.807 Q659.232 265.811 657.404 265.325 Q655.598 264.816 653.746 264.816 Q649.603 264.816 647.311 267.455 Q645.019 270.071 645.019 274.816 Q645.019 279.561 647.311 282.2 Q649.603 284.816 653.746 284.816 Q655.598 284.816 657.404 284.33 Q659.232 283.821 661.038 282.825 L661.038 286.76 Q659.256 287.594 657.334 288.01 Q655.436 288.427 653.283 288.427 Q647.427 288.427 643.978 284.746 Q640.529 281.066 640.529 274.816 Q640.529 268.473 644.001 264.839 Q647.496 261.205 653.561 261.205 Q655.529 261.205 657.404 261.622 Q659.279 262.015 661.038 262.825 Z" fill="#000000" fill-rule="nonzero" fill-opacity="1" /><path clip-path="url(#clip470)" d="M678.492 264.816 Q675.066 264.816 673.075 267.501 Q671.084 270.163 671.084 274.816 Q671.084 279.469 673.052 282.154 Q675.042 284.816 678.492 284.816 Q681.894 284.816 683.885 282.131 Q685.876 279.446 685.876 274.816 Q685.876 270.21 683.885 267.524 Q681.894 264.816 678.492 264.816 M678.492 261.205 Q684.047 261.205 687.218 264.816 Q690.39 268.427 690.39 274.816 Q690.39 281.182 687.218 284.816 Q684.047 288.427 678.492 288.427 Q672.913 288.427 669.742 284.816 Q666.593 281.182 666.593 274.816 Q666.593 268.427 669.742 264.816 Q672.913 261.205 678.492 261.205 Z" fill="#000000" fill-rule="nonzero" fill-opacity="1" /><path clip-path="url(#clip470)" d="M719.001 272.108 L719.001 287.756 L714.741 287.756 L714.741 272.247 Q714.741 268.566 713.306 266.737 Q711.871 264.909 709.001 264.909 Q705.552 264.909 703.561 267.108 Q701.57 269.307 701.57 273.103 L701.57 287.756 L697.288 287.756 L697.288 261.83 L701.57 261.83 L701.57 265.858 Q703.098 263.52 705.158 262.362 Q707.241 261.205 709.95 261.205 Q714.417 261.205 716.709 263.983 Q719.001 266.737 719.001 272.108 Z" fill="#000000" fill-rule="nonzero" fill-opacity="1" /><path clip-path="url(#clip470)" d="M744.556 265.765 L744.556 251.737 L748.815 251.737 L748.815 287.756 L744.556 287.756 L744.556 283.867 Q743.213 286.182 741.153 287.316 Q739.116 288.427 736.246 288.427 Q731.547 288.427 728.584 284.677 Q725.644 280.927 725.644 274.816 Q725.644 268.705 728.584 264.955 Q731.547 261.205 736.246 261.205 Q739.116 261.205 741.153 262.339 Q743.213 263.45 744.556 265.765 M730.042 274.816 Q730.042 279.515 731.963 282.2 Q733.908 284.862 737.288 284.862 Q740.667 284.862 742.612 282.2 Q744.556 279.515 744.556 274.816 Q744.556 270.117 742.612 267.455 Q740.667 264.77 737.288 264.77 Q733.908 264.77 731.963 267.455 Q730.042 270.117 730.042 274.816 Z" fill="#000000" fill-rule="nonzero" fill-opacity="1" /><polyline clip-path="url(#clip470)" style="stroke:#3da44d; stroke-linecap:round; stroke-linejoin:round; stroke-width:4; stroke-opacity:1; fill:none" points="430.124,322.316 564.261,322.316 "/>
<path clip-path="url(#clip470)" d="M606.964 318.647 Q608.561 315.776 610.784 314.411 Q613.006 313.045 616.015 313.045 Q620.066 313.045 622.265 315.892 Q624.464 318.716 624.464 323.948 L624.464 339.596 L620.182 339.596 L620.182 324.087 Q620.182 320.36 618.862 318.554 Q617.543 316.749 614.834 316.749 Q611.524 316.749 609.603 318.948 Q607.682 321.147 607.682 324.943 L607.682 339.596 L603.399 339.596 L603.399 324.087 Q603.399 320.337 602.08 318.554 Q600.76 316.749 598.006 316.749 Q594.742 316.749 592.821 318.971 Q590.899 321.17 590.899 324.943 L590.899 339.596 L586.617 339.596 L586.617 313.67 L590.899 313.67 L590.899 317.698 Q592.358 315.313 594.395 314.179 Q596.432 313.045 599.233 313.045 Q602.057 313.045 604.024 314.48 Q606.015 315.915 606.964 318.647 Z" fill="#000000" fill-rule="nonzero" fill-opacity="1" /><path clip-path="url(#clip470)" d="M632.959 313.67 L637.219 313.67 L637.219 339.596 L632.959 339.596 L632.959 313.67 M632.959 303.577 L637.219 303.577 L637.219 308.971 L632.959 308.971 L632.959 303.577 Z" fill="#000000" fill-rule="nonzero" fill-opacity="1" /><path clip-path="url(#clip470)" d="M663.191 317.605 L663.191 303.577 L667.45 303.577 L667.45 339.596 L663.191 339.596 L663.191 335.707 Q661.848 338.022 659.788 339.156 Q657.751 340.267 654.881 340.267 Q650.181 340.267 647.219 336.517 Q644.279 332.767 644.279 326.656 Q644.279 320.545 647.219 316.795 Q650.181 313.045 654.881 313.045 Q657.751 313.045 659.788 314.179 Q661.848 315.29 663.191 317.605 M648.677 326.656 Q648.677 331.355 650.598 334.04 Q652.543 336.702 655.922 336.702 Q659.302 336.702 661.246 334.04 Q663.191 331.355 663.191 326.656 Q663.191 321.957 661.246 319.295 Q659.302 316.61 655.922 316.61 Q652.543 316.61 650.598 319.295 Q648.677 321.957 648.677 326.656 Z" fill="#000000" fill-rule="nonzero" fill-opacity="1" /><path clip-path="url(#clip470)" d="M693.283 317.605 L693.283 303.577 L697.542 303.577 L697.542 339.596 L693.283 339.596 L693.283 335.707 Q691.941 338.022 689.88 339.156 Q687.843 340.267 684.973 340.267 Q680.274 340.267 677.311 336.517 Q674.371 332.767 674.371 326.656 Q674.371 320.545 677.311 316.795 Q680.274 313.045 684.973 313.045 Q687.843 313.045 689.88 314.179 Q691.941 315.29 693.283 317.605 M678.769 326.656 Q678.769 331.355 680.691 334.04 Q682.635 336.702 686.015 336.702 Q689.394 336.702 691.339 334.04 Q693.283 331.355 693.283 326.656 Q693.283 321.957 691.339 319.295 Q689.394 316.61 686.015 316.61 Q682.635 316.61 680.691 319.295 Q678.769 321.957 678.769 326.656 Z" fill="#000000" fill-rule="nonzero" fill-opacity="1" /><path clip-path="url(#clip470)" d="M706.315 303.577 L710.575 303.577 L710.575 339.596 L706.315 339.596 L706.315 303.577 Z" fill="#000000" fill-rule="nonzero" fill-opacity="1" /><path clip-path="url(#clip470)" d="M741.662 325.568 L741.662 327.651 L722.079 327.651 Q722.357 332.049 724.718 334.364 Q727.102 336.656 731.338 336.656 Q733.792 336.656 736.084 336.054 Q738.399 335.452 740.667 334.249 L740.667 338.276 Q738.375 339.248 735.968 339.758 Q733.561 340.267 731.084 340.267 Q724.88 340.267 721.246 336.656 Q717.635 333.045 717.635 326.887 Q717.635 320.522 721.061 316.795 Q724.51 313.045 730.343 313.045 Q735.575 313.045 738.607 316.425 Q741.662 319.781 741.662 325.568 M737.403 324.318 Q737.357 320.823 735.436 318.739 Q733.538 316.656 730.389 316.656 Q726.825 316.656 724.672 318.67 Q722.542 320.684 722.218 324.341 L737.403 324.318 Z" fill="#000000" fill-rule="nonzero" fill-opacity="1" /><polyline clip-path="url(#clip470)" style="stroke:#c271d2; stroke-linecap:round; stroke-linejoin:round; stroke-width:4; stroke-opacity:1; fill:none" points="430.124,374.156 564.261,374.156 "/>
<path clip-path="url(#clip470)" d="M605.39 378.496 Q605.39 373.797 603.446 371.135 Q601.524 368.45 598.145 368.45 Q594.765 368.45 592.821 371.135 Q590.899 373.797 590.899 378.496 Q590.899 383.195 592.821 385.88 Q594.765 388.542 598.145 388.542 Q601.524 388.542 603.446 385.88 Q605.39 383.195 605.39 378.496 M590.899 369.445 Q592.242 367.13 594.279 366.019 Q596.339 364.885 599.186 364.885 Q603.909 364.885 606.848 368.635 Q609.811 372.385 609.811 378.496 Q609.811 384.607 606.848 388.357 Q603.909 392.107 599.186 392.107 Q596.339 392.107 594.279 390.996 Q592.242 389.862 590.899 387.547 L590.899 391.436 L586.617 391.436 L586.617 355.417 L590.899 355.417 L590.899 369.445 Z" fill="#000000" fill-rule="nonzero" fill-opacity="1" /><path clip-path="url(#clip470)" d="M639.047 377.408 L639.047 379.491 L619.464 379.491 Q619.742 383.889 622.103 386.204 Q624.487 388.496 628.723 388.496 Q631.177 388.496 633.469 387.894 Q635.783 387.292 638.052 386.089 L638.052 390.116 Q635.76 391.088 633.353 391.598 Q630.945 392.107 628.469 392.107 Q622.265 392.107 618.631 388.496 Q615.02 384.885 615.02 378.727 Q615.02 372.362 618.446 368.635 Q621.895 364.885 627.728 364.885 Q632.959 364.885 635.992 368.265 Q639.047 371.621 639.047 377.408 M634.788 376.158 Q634.742 372.663 632.82 370.579 Q630.922 368.496 627.774 368.496 Q624.209 368.496 622.057 370.51 Q619.927 372.524 619.603 376.181 L634.788 376.158 Z" fill="#000000" fill-rule="nonzero" fill-opacity="1" /><path clip-path="url(#clip470)" d="M659.163 355.417 L659.163 358.959 L655.089 358.959 Q652.797 358.959 651.894 359.885 Q651.015 360.811 651.015 363.218 L651.015 365.51 L658.029 365.51 L658.029 368.82 L651.015 368.82 L651.015 391.436 L646.732 391.436 L646.732 368.82 L642.658 368.82 L642.658 365.51 L646.732 365.51 L646.732 363.704 Q646.732 359.376 648.746 357.408 Q650.76 355.417 655.135 355.417 L659.163 355.417 Z" fill="#000000" fill-rule="nonzero" fill-opacity="1" /><path clip-path="url(#clip470)" d="M672.774 368.496 Q669.348 368.496 667.357 371.181 Q665.367 373.843 665.367 378.496 Q665.367 383.149 667.334 385.834 Q669.325 388.496 672.774 388.496 Q676.177 388.496 678.167 385.811 Q680.158 383.126 680.158 378.496 Q680.158 373.89 678.167 371.204 Q676.177 368.496 672.774 368.496 M672.774 364.885 Q678.329 364.885 681.501 368.496 Q684.672 372.107 684.672 378.496 Q684.672 384.862 681.501 388.496 Q678.329 392.107 672.774 392.107 Q667.195 392.107 664.024 388.496 Q660.876 384.862 660.876 378.496 Q660.876 372.107 664.024 368.496 Q667.195 364.885 672.774 364.885 Z" fill="#000000" fill-rule="nonzero" fill-opacity="1" /><path clip-path="url(#clip470)" d="M706.755 369.491 Q706.038 369.075 705.181 368.89 Q704.348 368.681 703.329 368.681 Q699.718 368.681 697.774 371.042 Q695.853 373.38 695.853 377.778 L695.853 391.436 L691.57 391.436 L691.57 365.51 L695.853 365.51 L695.853 369.538 Q697.195 367.177 699.348 366.042 Q701.501 364.885 704.579 364.885 Q705.019 364.885 705.552 364.954 Q706.084 365.001 706.732 365.116 L706.755 369.491 Z" fill="#000000" fill-rule="nonzero" fill-opacity="1" /><path clip-path="url(#clip470)" d="M732.357 377.408 L732.357 379.491 L712.774 379.491 Q713.052 383.889 715.413 386.204 Q717.797 388.496 722.033 388.496 Q724.487 388.496 726.778 387.894 Q729.093 387.292 731.362 386.089 L731.362 390.116 Q729.07 391.088 726.663 391.598 Q724.255 392.107 721.778 392.107 Q715.575 392.107 711.94 388.496 Q708.329 384.885 708.329 378.727 Q708.329 372.362 711.755 368.635 Q715.204 364.885 721.038 364.885 Q726.269 364.885 729.301 368.265 Q732.357 371.621 732.357 377.408 M728.098 376.158 Q728.051 372.663 726.13 370.579 Q724.232 368.496 721.084 368.496 Q717.519 368.496 715.366 370.51 Q713.237 372.524 712.913 376.181 L728.098 376.158 Z" fill="#000000" fill-rule="nonzero" fill-opacity="1" /><path clip-path="url(#clip470)" d="M739.348 355.417 L743.607 355.417 L743.607 391.436 L739.348 391.436 L739.348 355.417 Z" fill="#000000" fill-rule="nonzero" fill-opacity="1" /><path clip-path="url(#clip470)" d="M764.301 378.403 Q759.139 378.403 757.149 379.584 Q755.158 380.764 755.158 383.612 Q755.158 385.88 756.639 387.223 Q758.144 388.542 760.713 388.542 Q764.255 388.542 766.385 386.042 Q768.537 383.519 768.537 379.352 L768.537 378.403 L764.301 378.403 M772.797 376.644 L772.797 391.436 L768.537 391.436 L768.537 387.501 Q767.079 389.862 764.903 390.996 Q762.727 392.107 759.579 392.107 Q755.598 392.107 753.237 389.885 Q750.899 387.639 750.899 383.889 Q750.899 379.514 753.815 377.292 Q756.755 375.07 762.565 375.07 L768.537 375.07 L768.537 374.653 Q768.537 371.714 766.593 370.116 Q764.672 368.496 761.176 368.496 Q758.954 368.496 756.848 369.028 Q754.741 369.561 752.797 370.626 L752.797 366.69 Q755.135 365.788 757.334 365.348 Q759.533 364.885 761.616 364.885 Q767.241 364.885 770.019 367.802 Q772.797 370.718 772.797 376.644 Z" fill="#000000" fill-rule="nonzero" fill-opacity="1" /><path clip-path="url(#clip470)" d="M798.097 366.274 L798.097 370.302 Q796.292 369.376 794.347 368.913 Q792.403 368.45 790.32 368.45 Q787.148 368.45 785.551 369.422 Q783.977 370.394 783.977 372.339 Q783.977 373.82 785.111 374.677 Q786.246 375.51 789.671 376.274 L791.13 376.598 Q795.667 377.57 797.565 379.352 Q799.486 381.112 799.486 384.283 Q799.486 387.894 796.616 390.001 Q793.769 392.107 788.769 392.107 Q786.685 392.107 784.417 391.69 Q782.172 391.297 779.672 390.487 L779.672 386.089 Q782.033 387.315 784.324 387.94 Q786.616 388.542 788.861 388.542 Q791.871 388.542 793.491 387.524 Q795.111 386.482 795.111 384.607 Q795.111 382.871 793.931 381.945 Q792.773 381.019 788.815 380.163 L787.334 379.815 Q783.375 378.982 781.616 377.269 Q779.857 375.533 779.857 372.524 Q779.857 368.866 782.449 366.876 Q785.042 364.885 789.81 364.885 Q792.171 364.885 794.255 365.232 Q796.338 365.579 798.097 366.274 Z" fill="#000000" fill-rule="nonzero" fill-opacity="1" /><path clip-path="url(#clip470)" d="M810.482 358.149 L810.482 365.51 L819.255 365.51 L819.255 368.82 L810.482 368.82 L810.482 382.894 Q810.482 386.065 811.338 386.968 Q812.218 387.871 814.88 387.871 L819.255 387.871 L819.255 391.436 L814.88 391.436 Q809.949 391.436 808.074 389.607 Q806.199 387.755 806.199 382.894 L806.199 368.82 L803.074 368.82 L803.074 365.51 L806.199 365.51 L806.199 358.149 L810.482 358.149 Z" fill="#000000" fill-rule="nonzero" fill-opacity="1" /><polyline clip-path="url(#clip470)" style="stroke:#ac8d18; stroke-linecap:round; stroke-linejoin:round; stroke-width:4; stroke-opacity:1; fill:none" points="430.124,425.996 564.261,425.996 "/>
<path clip-path="url(#clip470)" d="M586.617 407.257 L590.876 407.257 L590.876 443.276 L586.617 443.276 L586.617 407.257 Z" fill="#000000" fill-rule="nonzero" fill-opacity="1" /><path clip-path="url(#clip470)" d="M611.571 430.243 Q606.409 430.243 604.418 431.424 Q602.427 432.604 602.427 435.452 Q602.427 437.72 603.909 439.063 Q605.413 440.382 607.983 440.382 Q611.524 440.382 613.654 437.882 Q615.807 435.359 615.807 431.192 L615.807 430.243 L611.571 430.243 M620.066 428.484 L620.066 443.276 L615.807 443.276 L615.807 439.341 Q614.348 441.702 612.172 442.836 Q609.997 443.947 606.848 443.947 Q602.867 443.947 600.506 441.725 Q598.168 439.479 598.168 435.729 Q598.168 431.354 601.085 429.132 Q604.024 426.91 609.834 426.91 L615.807 426.91 L615.807 426.493 Q615.807 423.554 613.862 421.956 Q611.941 420.336 608.446 420.336 Q606.223 420.336 604.117 420.868 Q602.01 421.401 600.066 422.466 L600.066 418.53 Q602.404 417.628 604.603 417.188 Q606.802 416.725 608.885 416.725 Q614.51 416.725 617.288 419.642 Q620.066 422.558 620.066 428.484 Z" fill="#000000" fill-rule="nonzero" fill-opacity="1" /><path clip-path="url(#clip470)" d="M645.367 418.114 L645.367 422.142 Q643.561 421.216 641.617 420.753 Q639.672 420.29 637.589 420.29 Q634.418 420.29 632.82 421.262 Q631.246 422.234 631.246 424.179 Q631.246 425.66 632.381 426.517 Q633.515 427.35 636.941 428.114 L638.399 428.438 Q642.936 429.41 644.834 431.192 Q646.756 432.952 646.756 436.123 Q646.756 439.734 643.885 441.841 Q641.038 443.947 636.038 443.947 Q633.955 443.947 631.686 443.53 Q629.441 443.137 626.941 442.327 L626.941 437.929 Q629.302 439.155 631.594 439.78 Q633.885 440.382 636.131 440.382 Q639.14 440.382 640.76 439.364 Q642.381 438.322 642.381 436.447 Q642.381 434.711 641.2 433.785 Q640.043 432.859 636.084 432.003 L634.603 431.655 Q630.645 430.822 628.885 429.109 Q627.126 427.373 627.126 424.364 Q627.126 420.706 629.719 418.716 Q632.311 416.725 637.08 416.725 Q639.441 416.725 641.524 417.072 Q643.607 417.419 645.367 418.114 Z" fill="#000000" fill-rule="nonzero" fill-opacity="1" /><path clip-path="url(#clip470)" d="M657.751 409.989 L657.751 417.35 L666.524 417.35 L666.524 420.66 L657.751 420.66 L657.751 434.734 Q657.751 437.905 658.607 438.808 Q659.487 439.711 662.149 439.711 L666.524 439.711 L666.524 443.276 L662.149 443.276 Q657.218 443.276 655.344 441.447 Q653.469 439.595 653.469 434.734 L653.469 420.66 L650.344 420.66 L650.344 417.35 L653.469 417.35 L653.469 409.989 L657.751 409.989 Z" fill="#000000" fill-rule="nonzero" fill-opacity="1" /></svg>
