<?xml version="1.0" encoding="utf-8"?>
<svg xmlns="http://www.w3.org/2000/svg" xmlns:xlink="http://www.w3.org/1999/xlink" width="600" height="400" viewBox="0 0 2400 1600">
<defs>
  <clipPath id="clip560">
    <rect x="0" y="0" width="2400" height="1600"/>
  </clipPath>
</defs>
<path clip-path="url(#clip560)" d="M0 1600 L2400 1600 L2400 0 L0 0  Z" fill="#ffffff" fill-rule="evenodd" fill-opacity="1"/>
<defs>
  <clipPath id="clip561">
    <rect x="480" y="0" width="1681" height="1600"/>
  </clipPath>
</defs>
<path clip-path="url(#clip560)" d="M340.699 1423.18 L2352.76 1423.18 L2352.76 123.472 L340.699 123.472  Z" fill="#ffffff" fill-rule="evenodd" fill-opacity="1"/>
<defs>
  <clipPath id="clip562">
    <rect x="340" y="123" width="2013" height="1301"/>
  </clipPath>
</defs>
<polyline clip-path="url(#clip562)" style="stroke:#000000; stroke-linecap:round; stroke-linejoin:round; stroke-width:2; stroke-opacity:0.1; fill:none" points="396.694,1423.18 396.694,123.472 "/>
<polyline clip-path="url(#clip562)" style="stroke:#000000; stroke-linecap:round; stroke-linejoin:round; stroke-width:2; stroke-opacity:0.1; fill:none" points="871.474,1423.18 871.474,123.472 "/>
<polyline clip-path="url(#clip562)" style="stroke:#000000; stroke-linecap:round; stroke-linejoin:round; stroke-width:2; stroke-opacity:0.1; fill:none" points="1346.25,1423.18 1346.25,123.472 "/>
<polyline clip-path="url(#clip562)" style="stroke:#000000; stroke-linecap:round; stroke-linejoin:round; stroke-width:2; stroke-opacity:0.1; fill:none" points="1821.03,1423.18 1821.03,123.472 "/>
<polyline clip-path="url(#clip562)" style="stroke:#000000; stroke-linecap:round; stroke-linejoin:round; stroke-width:2; stroke-opacity:0.1; fill:none" points="2295.81,1423.18 2295.81,123.472 "/>
<polyline clip-path="url(#clip560)" style="stroke:#000000; stroke-linecap:round; stroke-linejoin:round; stroke-width:4; stroke-opacity:1; fill:none" points="340.699,1423.18 2352.76,1423.18 "/>
<polyline clip-path="url(#clip560)" style="stroke:#000000; stroke-linecap:round; stroke-linejoin:round; stroke-width:4; stroke-opacity:1; fill:none" points="396.694,1423.18 396.694,1404.28 "/>
<polyline clip-path="url(#clip560)" style="stroke:#000000; stroke-linecap:round; stroke-linejoin:round; stroke-width:4; stroke-opacity:1; fill:none" points="871.474,1423.18 871.474,1404.28 "/>
<polyline clip-path="url(#clip560)" style="stroke:#000000; stroke-linecap:round; stroke-linejoin:round; stroke-width:4; stroke-opacity:1; fill:none" points="1346.25,1423.18 1346.25,1404.28 "/>
<polyline clip-path="url(#clip560)" style="stroke:#000000; stroke-linecap:round; stroke-linejoin:round; stroke-width:4; stroke-opacity:1; fill:none" points="1821.03,1423.18 1821.03,1404.28 "/>
<polyline clip-path="url(#clip560)" style="stroke:#000000; stroke-linecap:round; stroke-linejoin:round; stroke-width:4; stroke-opacity:1; fill:none" points="2295.81,1423.18 2295.81,1404.28 "/>
<path clip-path="url(#clip560)" d="M396.694 1454.1 Q393.083 1454.1 391.255 1457.66 Q389.449 1461.2 389.449 1468.33 Q389.449 1475.44 391.255 1479.01 Q393.083 1482.55 396.694 1482.55 Q400.329 1482.55 402.134 1479.01 Q403.963 1475.44 403.963 1468.33 Q403.963 1461.2 402.134 1457.66 Q400.329 1454.1 396.694 1454.1 M396.694 1450.39 Q402.505 1450.39 405.56 1455 Q408.639 1459.58 408.639 1468.33 Q408.639 1477.06 405.56 1481.67 Q402.505 1486.25 396.694 1486.25 Q390.884 1486.25 387.806 1481.67 Q384.75 1477.06 384.75 1468.33 Q384.75 1459.58 387.806 1455 Q390.884 1450.39 396.694 1450.39 Z" fill="#000000" fill-rule="nonzero" fill-opacity="1" /><path clip-path="url(#clip560)" d="M831.092 1451.02 L849.448 1451.02 L849.448 1454.96 L835.374 1454.96 L835.374 1463.43 Q836.393 1463.08 837.411 1462.92 Q838.43 1462.73 839.448 1462.73 Q845.235 1462.73 848.615 1465.9 Q851.994 1469.08 851.994 1474.49 Q851.994 1480.07 848.522 1483.17 Q845.05 1486.25 838.731 1486.25 Q836.555 1486.25 834.286 1485.88 Q832.041 1485.51 829.633 1484.77 L829.633 1480.07 Q831.717 1481.2 833.939 1481.76 Q836.161 1482.32 838.638 1482.32 Q842.643 1482.32 844.981 1480.21 Q847.319 1478.1 847.319 1474.49 Q847.319 1470.88 844.981 1468.77 Q842.643 1466.67 838.638 1466.67 Q836.763 1466.67 834.888 1467.08 Q833.036 1467.5 831.092 1468.38 L831.092 1451.02 Z" fill="#000000" fill-rule="nonzero" fill-opacity="1" /><path clip-path="url(#clip560)" d="M871.207 1454.1 Q867.596 1454.1 865.768 1457.66 Q863.962 1461.2 863.962 1468.33 Q863.962 1475.44 865.768 1479.01 Q867.596 1482.55 871.207 1482.55 Q874.842 1482.55 876.647 1479.01 Q878.476 1475.44 878.476 1468.33 Q878.476 1461.2 876.647 1457.66 Q874.842 1454.1 871.207 1454.1 M871.207 1450.39 Q877.017 1450.39 880.073 1455 Q883.152 1459.58 883.152 1468.33 Q883.152 1477.06 880.073 1481.67 Q877.017 1486.25 871.207 1486.25 Q865.397 1486.25 862.318 1481.67 Q859.263 1477.06 859.263 1468.33 Q859.263 1459.58 862.318 1455 Q865.397 1450.39 871.207 1450.39 Z" fill="#000000" fill-rule="nonzero" fill-opacity="1" /><path clip-path="url(#clip560)" d="M901.369 1454.1 Q897.758 1454.1 895.929 1457.66 Q894.124 1461.2 894.124 1468.33 Q894.124 1475.44 895.929 1479.01 Q897.758 1482.55 901.369 1482.55 Q905.003 1482.55 906.809 1479.01 Q908.638 1475.44 908.638 1468.33 Q908.638 1461.2 906.809 1457.66 Q905.003 1454.1 901.369 1454.1 M901.369 1450.39 Q907.179 1450.39 910.235 1455 Q913.314 1459.58 913.314 1468.33 Q913.314 1477.06 910.235 1481.67 Q907.179 1486.25 901.369 1486.25 Q895.559 1486.25 892.48 1481.67 Q889.425 1477.06 889.425 1468.33 Q889.425 1459.58 892.48 1455 Q895.559 1450.39 901.369 1450.39 Z" fill="#000000" fill-rule="nonzero" fill-opacity="1" /><path clip-path="url(#clip560)" d="M1290.78 1481.64 L1298.42 1481.64 L1298.42 1455.28 L1290.11 1456.95 L1290.11 1452.69 L1298.37 1451.02 L1303.05 1451.02 L1303.05 1481.64 L1310.69 1481.64 L1310.69 1485.58 L1290.78 1485.58 L1290.78 1481.64 Z" fill="#000000" fill-rule="nonzero" fill-opacity="1" /><path clip-path="url(#clip560)" d="M1330.13 1454.1 Q1326.52 1454.1 1324.69 1457.66 Q1322.88 1461.2 1322.88 1468.33 Q1322.88 1475.44 1324.69 1479.01 Q1326.52 1482.55 1330.13 1482.55 Q1333.76 1482.55 1335.57 1479.01 Q1337.4 1475.44 1337.4 1468.33 Q1337.4 1461.2 1335.57 1457.66 Q1333.76 1454.1 1330.13 1454.1 M1330.13 1450.39 Q1335.94 1450.39 1339 1455 Q1342.07 1459.58 1342.07 1468.33 Q1342.07 1477.06 1339 1481.67 Q1335.94 1486.25 1330.13 1486.25 Q1324.32 1486.25 1321.24 1481.67 Q1318.19 1477.06 1318.19 1468.33 Q1318.19 1459.58 1321.24 1455 Q1324.32 1450.39 1330.13 1450.39 Z" fill="#000000" fill-rule="nonzero" fill-opacity="1" /><path clip-path="url(#clip560)" d="M1360.29 1454.1 Q1356.68 1454.1 1354.85 1457.66 Q1353.05 1461.2 1353.05 1468.33 Q1353.05 1475.44 1354.85 1479.01 Q1356.68 1482.55 1360.29 1482.55 Q1363.93 1482.55 1365.73 1479.01 Q1367.56 1475.44 1367.56 1468.33 Q1367.56 1461.2 1365.73 1457.66 Q1363.93 1454.1 1360.29 1454.1 M1360.29 1450.39 Q1366.1 1450.39 1369.16 1455 Q1372.24 1459.58 1372.24 1468.33 Q1372.24 1477.06 1369.16 1481.67 Q1366.1 1486.25 1360.29 1486.25 Q1354.48 1486.25 1351.4 1481.67 Q1348.35 1477.06 1348.35 1468.33 Q1348.35 1459.58 1351.4 1455 Q1354.48 1450.39 1360.29 1450.39 Z" fill="#000000" fill-rule="nonzero" fill-opacity="1" /><path clip-path="url(#clip560)" d="M1390.45 1454.1 Q1386.84 1454.1 1385.01 1457.66 Q1383.21 1461.2 1383.21 1468.33 Q1383.21 1475.44 1385.01 1479.01 Q1386.84 1482.55 1390.45 1482.55 Q1394.09 1482.55 1395.89 1479.01 Q1397.72 1475.44 1397.72 1468.33 Q1397.72 1461.2 1395.89 1457.66 Q1394.09 1454.1 1390.45 1454.1 M1390.45 1450.39 Q1396.26 1450.39 1399.32 1455 Q1402.4 1459.58 1402.4 1468.33 Q1402.4 1477.06 1399.32 1481.67 Q1396.26 1486.25 1390.45 1486.25 Q1384.64 1486.25 1381.56 1481.67 Q1378.51 1477.06 1378.51 1468.33 Q1378.51 1459.58 1381.56 1455 Q1384.64 1450.39 1390.45 1450.39 Z" fill="#000000" fill-rule="nonzero" fill-opacity="1" /><path clip-path="url(#clip560)" d="M1765.56 1481.64 L1773.2 1481.64 L1773.2 1455.28 L1764.89 1456.95 L1764.89 1452.69 L1773.15 1451.02 L1777.83 1451.02 L1777.83 1481.64 L1785.46 1481.64 L1785.46 1485.58 L1765.56 1485.58 L1765.56 1481.64 Z" fill="#000000" fill-rule="nonzero" fill-opacity="1" /><path clip-path="url(#clip560)" d="M1794.96 1451.02 L1813.31 1451.02 L1813.31 1454.96 L1799.24 1454.96 L1799.24 1463.43 Q1800.26 1463.08 1801.27 1462.92 Q1802.29 1462.73 1803.31 1462.73 Q1809.1 1462.73 1812.48 1465.9 Q1815.86 1469.08 1815.86 1474.49 Q1815.86 1480.07 1812.39 1483.17 Q1808.91 1486.25 1802.59 1486.25 Q1800.42 1486.25 1798.15 1485.88 Q1795.9 1485.51 1793.5 1484.77 L1793.5 1480.07 Q1795.58 1481.2 1797.8 1481.76 Q1800.02 1482.32 1802.5 1482.32 Q1806.51 1482.32 1808.84 1480.21 Q1811.18 1478.1 1811.18 1474.49 Q1811.18 1470.88 1808.84 1468.77 Q1806.51 1466.67 1802.5 1466.67 Q1800.63 1466.67 1798.75 1467.08 Q1796.9 1467.5 1794.96 1468.38 L1794.96 1451.02 Z" fill="#000000" fill-rule="nonzero" fill-opacity="1" /><path clip-path="url(#clip560)" d="M1835.07 1454.1 Q1831.46 1454.1 1829.63 1457.66 Q1827.83 1461.2 1827.83 1468.33 Q1827.83 1475.44 1829.63 1479.01 Q1831.46 1482.55 1835.07 1482.55 Q1838.71 1482.55 1840.51 1479.01 Q1842.34 1475.44 1842.34 1468.33 Q1842.34 1461.2 1840.51 1457.66 Q1838.71 1454.1 1835.07 1454.1 M1835.07 1450.39 Q1840.88 1450.39 1843.94 1455 Q1847.02 1459.58 1847.02 1468.33 Q1847.02 1477.06 1843.94 1481.67 Q1840.88 1486.25 1835.07 1486.25 Q1829.26 1486.25 1826.18 1481.67 Q1823.13 1477.06 1823.13 1468.33 Q1823.13 1459.58 1826.18 1455 Q1829.26 1450.39 1835.07 1450.39 Z" fill="#000000" fill-rule="nonzero" fill-opacity="1" /><path clip-path="url(#clip560)" d="M1865.23 1454.1 Q1861.62 1454.1 1859.79 1457.66 Q1857.99 1461.2 1857.99 1468.33 Q1857.99 1475.44 1859.79 1479.01 Q1861.62 1482.55 1865.23 1482.55 Q1868.87 1482.55 1870.67 1479.01 Q1872.5 1475.44 1872.5 1468.33 Q1872.5 1461.2 1870.67 1457.66 Q1868.87 1454.1 1865.23 1454.1 M1865.23 1450.39 Q1871.04 1450.39 1874.1 1455 Q1877.18 1459.58 1877.18 1468.33 Q1877.18 1477.06 1874.1 1481.67 Q1871.04 1486.25 1865.23 1486.25 Q1859.42 1486.25 1856.34 1481.67 Q1853.29 1477.06 1853.29 1468.33 Q1853.29 1459.58 1856.34 1455 Q1859.42 1450.39 1865.23 1450.39 Z" fill="#000000" fill-rule="nonzero" fill-opacity="1" /><path clip-path="url(#clip560)" d="M2244.42 1481.64 L2260.74 1481.64 L2260.74 1485.58 L2238.8 1485.58 L2238.8 1481.64 Q2241.46 1478.89 2246.04 1474.26 Q2250.65 1469.61 2251.83 1468.27 Q2254.08 1465.74 2254.95 1464.01 Q2255.86 1462.25 2255.86 1460.56 Q2255.86 1457.8 2253.91 1456.07 Q2251.99 1454.33 2248.89 1454.33 Q2246.69 1454.33 2244.24 1455.09 Q2241.81 1455.86 2239.03 1457.41 L2239.03 1452.69 Q2241.85 1451.55 2244.31 1450.97 Q2246.76 1450.39 2248.8 1450.39 Q2254.17 1450.39 2257.36 1453.08 Q2260.56 1455.77 2260.56 1460.26 Q2260.56 1462.39 2259.75 1464.31 Q2258.96 1466.2 2256.85 1468.8 Q2256.27 1469.47 2253.17 1472.69 Q2250.07 1475.88 2244.42 1481.64 Z" fill="#000000" fill-rule="nonzero" fill-opacity="1" /><path clip-path="url(#clip560)" d="M2280.56 1454.1 Q2276.95 1454.1 2275.12 1457.66 Q2273.31 1461.2 2273.31 1468.33 Q2273.31 1475.44 2275.12 1479.01 Q2276.95 1482.55 2280.56 1482.55 Q2284.19 1482.55 2286 1479.01 Q2287.82 1475.44 2287.82 1468.33 Q2287.82 1461.2 2286 1457.66 Q2284.19 1454.1 2280.56 1454.1 M2280.56 1450.39 Q2286.37 1450.39 2289.42 1455 Q2292.5 1459.58 2292.5 1468.33 Q2292.5 1477.06 2289.42 1481.67 Q2286.37 1486.25 2280.56 1486.25 Q2274.75 1486.25 2271.67 1481.67 Q2268.61 1477.06 2268.61 1468.33 Q2268.61 1459.58 2271.67 1455 Q2274.75 1450.39 2280.56 1450.39 Z" fill="#000000" fill-rule="nonzero" fill-opacity="1" /><path clip-path="url(#clip560)" d="M2310.72 1454.1 Q2307.11 1454.1 2305.28 1457.66 Q2303.47 1461.2 2303.47 1468.33 Q2303.47 1475.44 2305.28 1479.01 Q2307.11 1482.55 2310.72 1482.55 Q2314.35 1482.55 2316.16 1479.01 Q2317.99 1475.44 2317.99 1468.33 Q2317.99 1461.2 2316.16 1457.66 Q2314.35 1454.1 2310.72 1454.1 M2310.72 1450.39 Q2316.53 1450.39 2319.58 1455 Q2322.66 1459.58 2322.66 1468.33 Q2322.66 1477.06 2319.58 1481.67 Q2316.53 1486.25 2310.72 1486.25 Q2304.91 1486.25 2301.83 1481.67 Q2298.77 1477.06 2298.77 1468.33 Q2298.77 1459.58 2301.83 1455 Q2304.91 1450.39 2310.72 1450.39 Z" fill="#000000" fill-rule="nonzero" fill-opacity="1" /><path clip-path="url(#clip560)" d="M2340.88 1454.1 Q2337.27 1454.1 2335.44 1457.66 Q2333.63 1461.2 2333.63 1468.33 Q2333.63 1475.44 2335.44 1479.01 Q2337.27 1482.55 2340.88 1482.55 Q2344.51 1482.55 2346.32 1479.01 Q2348.15 1475.44 2348.15 1468.33 Q2348.15 1461.2 2346.32 1457.66 Q2344.51 1454.1 2340.88 1454.1 M2340.88 1450.39 Q2346.69 1450.39 2349.75 1455 Q2352.82 1459.58 2352.82 1468.33 Q2352.82 1477.06 2349.75 1481.67 Q2346.69 1486.25 2340.88 1486.25 Q2335.07 1486.25 2331.99 1481.67 Q2328.94 1477.06 2328.94 1468.33 Q2328.94 1459.58 2331.99 1455 Q2335.07 1450.39 2340.88 1450.39 Z" fill="#000000" fill-rule="nonzero" fill-opacity="1" /><path clip-path="url(#clip560)" d="M1328.74 1520.52 L1337.4 1520.52 L1358.47 1560.28 L1358.47 1520.52 L1364.71 1520.52 L1364.71 1568.04 L1356.05 1568.04 L1334.98 1528.29 L1334.98 1568.04 L1328.74 1568.04 L1328.74 1520.52 Z" fill="#000000" fill-rule="nonzero" fill-opacity="1" /><polyline clip-path="url(#clip562)" style="stroke:#000000; stroke-linecap:round; stroke-linejoin:round; stroke-width:2; stroke-opacity:0.1; fill:none" points="340.699,1387.12 2352.76,1387.12 "/>
<polyline clip-path="url(#clip562)" style="stroke:#000000; stroke-linecap:round; stroke-linejoin:round; stroke-width:2; stroke-opacity:0.1; fill:none" points="340.699,1077.04 2352.76,1077.04 "/>
<polyline clip-path="url(#clip562)" style="stroke:#000000; stroke-linecap:round; stroke-linejoin:round; stroke-width:2; stroke-opacity:0.1; fill:none" points="340.699,766.959 2352.76,766.959 "/>
<polyline clip-path="url(#clip562)" style="stroke:#000000; stroke-linecap:round; stroke-linejoin:round; stroke-width:2; stroke-opacity:0.1; fill:none" points="340.699,456.879 2352.76,456.879 "/>
<polyline clip-path="url(#clip562)" style="stroke:#000000; stroke-linecap:round; stroke-linejoin:round; stroke-width:2; stroke-opacity:0.1; fill:none" points="340.699,146.798 2352.76,146.798 "/>
<polyline clip-path="url(#clip560)" style="stroke:#000000; stroke-linecap:round; stroke-linejoin:round; stroke-width:4; stroke-opacity:1; fill:none" points="340.699,1423.18 340.699,123.472 "/>
<polyline clip-path="url(#clip560)" style="stroke:#000000; stroke-linecap:round; stroke-linejoin:round; stroke-width:4; stroke-opacity:1; fill:none" points="340.699,1387.12 359.597,1387.12 "/>
<polyline clip-path="url(#clip560)" style="stroke:#000000; stroke-linecap:round; stroke-linejoin:round; stroke-width:4; stroke-opacity:1; fill:none" points="340.699,1077.04 359.597,1077.04 "/>
<polyline clip-path="url(#clip560)" style="stroke:#000000; stroke-linecap:round; stroke-linejoin:round; stroke-width:4; stroke-opacity:1; fill:none" points="340.699,766.959 359.597,766.959 "/>
<polyline clip-path="url(#clip560)" style="stroke:#000000; stroke-linecap:round; stroke-linejoin:round; stroke-width:4; stroke-opacity:1; fill:none" points="340.699,456.879 359.597,456.879 "/>
<polyline clip-path="url(#clip560)" style="stroke:#000000; stroke-linecap:round; stroke-linejoin:round; stroke-width:4; stroke-opacity:1; fill:none" points="340.699,146.798 359.597,146.798 "/>
<path clip-path="url(#clip560)" d="M292.755 1372.92 Q289.143 1372.92 287.315 1376.48 Q285.509 1380.03 285.509 1387.16 Q285.509 1394.26 287.315 1397.83 Q289.143 1401.37 292.755 1401.37 Q296.389 1401.37 298.194 1397.83 Q300.023 1394.26 300.023 1387.16 Q300.023 1380.03 298.194 1376.48 Q296.389 1372.92 292.755 1372.92 M292.755 1369.22 Q298.565 1369.22 301.62 1373.82 Q304.699 1378.41 304.699 1387.16 Q304.699 1395.88 301.62 1400.49 Q298.565 1405.07 292.755 1405.07 Q286.944 1405.07 283.866 1400.49 Q280.81 1395.88 280.81 1387.16 Q280.81 1378.41 283.866 1373.82 Q286.944 1369.22 292.755 1369.22 Z" fill="#000000" fill-rule="nonzero" fill-opacity="1" /><path clip-path="url(#clip560)" d="M121.043 1096.83 L137.362 1096.83 L137.362 1100.77 L115.418 1100.77 L115.418 1096.83 Q118.08 1094.08 122.663 1089.45 Q127.269 1084.8 128.45 1083.45 Q130.695 1080.93 131.575 1079.19 Q132.478 1077.43 132.478 1075.74 Q132.478 1072.99 130.533 1071.25 Q128.612 1069.52 125.51 1069.52 Q123.311 1069.52 120.857 1070.28 Q118.427 1071.05 115.649 1072.6 L115.649 1067.87 Q118.473 1066.74 120.927 1066.16 Q123.38 1065.58 125.418 1065.58 Q130.788 1065.58 133.982 1068.27 Q137.177 1070.95 137.177 1075.44 Q137.177 1077.57 136.367 1079.49 Q135.579 1081.39 133.473 1083.99 Q132.894 1084.66 129.792 1087.87 Q126.691 1091.07 121.043 1096.83 Z" fill="#000000" fill-rule="nonzero" fill-opacity="1" /><path clip-path="url(#clip560)" d="M147.177 1094.89 L152.061 1094.89 L152.061 1100.77 L147.177 1100.77 L147.177 1094.89 Z" fill="#000000" fill-rule="nonzero" fill-opacity="1" /><path clip-path="url(#clip560)" d="M172.246 1069.29 Q168.635 1069.29 166.806 1072.85 Q165.001 1076.39 165.001 1083.52 Q165.001 1090.63 166.806 1094.19 Q168.635 1097.74 172.246 1097.74 Q175.88 1097.74 177.686 1094.19 Q179.514 1090.63 179.514 1083.52 Q179.514 1076.39 177.686 1072.85 Q175.88 1069.29 172.246 1069.29 M172.246 1065.58 Q178.056 1065.58 181.112 1070.19 Q184.19 1074.77 184.19 1083.52 Q184.19 1092.25 181.112 1096.86 Q178.056 1101.44 172.246 1101.44 Q166.436 1101.44 163.357 1096.86 Q160.302 1092.25 160.302 1083.52 Q160.302 1074.77 163.357 1070.19 Q166.436 1065.58 172.246 1065.58 Z" fill="#000000" fill-rule="nonzero" fill-opacity="1" /><path clip-path="url(#clip560)" d="M220.579 1075.3 L210 1085.93 L220.579 1096.51 L217.824 1099.31 L207.199 1088.68 L196.575 1099.31 L193.843 1096.51 L204.399 1085.93 L193.843 1075.3 L196.575 1072.5 L207.199 1083.13 L217.824 1072.5 L220.579 1075.3 Z" fill="#000000" fill-rule="nonzero" fill-opacity="1" /><path clip-path="url(#clip560)" d="M232.94 1096.83 L240.579 1096.83 L240.579 1070.47 L232.269 1072.13 L232.269 1067.87 L240.533 1066.21 L245.209 1066.21 L245.209 1096.83 L252.847 1096.83 L252.847 1100.77 L232.94 1100.77 L232.94 1096.83 Z" fill="#000000" fill-rule="nonzero" fill-opacity="1" /><path clip-path="url(#clip560)" d="M272.292 1069.29 Q268.681 1069.29 266.852 1072.85 Q265.046 1076.39 265.046 1083.52 Q265.046 1090.63 266.852 1094.19 Q268.681 1097.74 272.292 1097.74 Q275.926 1097.74 277.732 1094.19 Q279.56 1090.63 279.56 1083.52 Q279.56 1076.39 277.732 1072.85 Q275.926 1069.29 272.292 1069.29 M272.292 1065.58 Q278.102 1065.58 281.157 1070.19 Q284.236 1074.77 284.236 1083.52 Q284.236 1092.25 281.157 1096.86 Q278.102 1101.44 272.292 1101.44 Q266.482 1101.44 263.403 1096.86 Q260.347 1092.25 260.347 1083.52 Q260.347 1074.77 263.403 1070.19 Q266.482 1065.58 272.292 1065.58 Z" fill="#000000" fill-rule="nonzero" fill-opacity="1" /><path clip-path="url(#clip560)" d="M296.913 1048.59 L287.321 1063.58 L296.913 1063.58 L296.913 1048.59 M295.916 1045.28 L300.693 1045.28 L300.693 1063.58 L304.699 1063.58 L304.699 1066.74 L300.693 1066.74 L300.693 1073.36 L296.913 1073.36 L296.913 1066.74 L284.236 1066.74 L284.236 1063.07 L295.916 1045.28 Z" fill="#000000" fill-rule="nonzero" fill-opacity="1" /><path clip-path="url(#clip560)" d="M129.862 760.201 L118.056 778.65 L129.862 778.65 L129.862 760.201 M128.635 756.127 L134.515 756.127 L134.515 778.65 L139.445 778.65 L139.445 782.539 L134.515 782.539 L134.515 790.687 L129.862 790.687 L129.862 782.539 L114.26 782.539 L114.26 778.025 L128.635 756.127 Z" fill="#000000" fill-rule="nonzero" fill-opacity="1" /><path clip-path="url(#clip560)" d="M147.177 784.807 L152.061 784.807 L152.061 790.687 L147.177 790.687 L147.177 784.807 Z" fill="#000000" fill-rule="nonzero" fill-opacity="1" /><path clip-path="url(#clip560)" d="M172.246 759.206 Q168.635 759.206 166.806 762.77 Q165.001 766.312 165.001 773.442 Q165.001 780.548 166.806 784.113 Q168.635 787.654 172.246 787.654 Q175.88 787.654 177.686 784.113 Q179.514 780.548 179.514 773.442 Q179.514 766.312 177.686 762.77 Q175.88 759.206 172.246 759.206 M172.246 755.502 Q178.056 755.502 181.112 760.108 Q184.19 764.692 184.19 773.442 Q184.19 782.168 181.112 786.775 Q178.056 791.358 172.246 791.358 Q166.436 791.358 163.357 786.775 Q160.302 782.168 160.302 773.442 Q160.302 764.692 163.357 760.108 Q166.436 755.502 172.246 755.502 Z" fill="#000000" fill-rule="nonzero" fill-opacity="1" /><path clip-path="url(#clip560)" d="M220.579 765.224 L210 775.849 L220.579 786.428 L217.824 789.228 L207.199 778.604 L196.575 789.228 L193.843 786.428 L204.399 775.849 L193.843 765.224 L196.575 762.423 L207.199 773.048 L217.824 762.423 L220.579 765.224 Z" fill="#000000" fill-rule="nonzero" fill-opacity="1" /><path clip-path="url(#clip560)" d="M232.94 786.752 L240.579 786.752 L240.579 760.386 L232.269 762.053 L232.269 757.793 L240.533 756.127 L245.209 756.127 L245.209 786.752 L252.847 786.752 L252.847 790.687 L232.94 790.687 L232.94 786.752 Z" fill="#000000" fill-rule="nonzero" fill-opacity="1" /><path clip-path="url(#clip560)" d="M272.292 759.206 Q268.681 759.206 266.852 762.77 Q265.046 766.312 265.046 773.442 Q265.046 780.548 266.852 784.113 Q268.681 787.654 272.292 787.654 Q275.926 787.654 277.732 784.113 Q279.56 780.548 279.56 773.442 Q279.56 766.312 277.732 762.77 Q275.926 759.206 272.292 759.206 M272.292 755.502 Q278.102 755.502 281.157 760.108 Q284.236 764.692 284.236 773.442 Q284.236 782.168 281.157 786.775 Q278.102 791.358 272.292 791.358 Q266.482 791.358 263.403 786.775 Q260.347 782.168 260.347 773.442 Q260.347 764.692 263.403 760.108 Q266.482 755.502 272.292 755.502 Z" fill="#000000" fill-rule="nonzero" fill-opacity="1" /><path clip-path="url(#clip560)" d="M296.913 738.507 L287.321 753.496 L296.913 753.496 L296.913 738.507 M295.916 735.196 L300.693 735.196 L300.693 753.496 L304.699 753.496 L304.699 756.656 L300.693 756.656 L300.693 763.276 L296.913 763.276 L296.913 756.656 L284.236 756.656 L284.236 752.989 L295.916 735.196 Z" fill="#000000" fill-rule="nonzero" fill-opacity="1" /><path clip-path="url(#clip560)" d="M127.593 461.463 Q124.445 461.463 122.593 463.615 Q120.765 465.768 120.765 469.518 Q120.765 473.245 122.593 475.421 Q124.445 477.574 127.593 477.574 Q130.742 477.574 132.57 475.421 Q134.422 473.245 134.422 469.518 Q134.422 465.768 132.57 463.615 Q130.742 461.463 127.593 461.463 M136.876 446.81 L136.876 451.069 Q135.117 450.236 133.311 449.796 Q131.529 449.356 129.769 449.356 Q125.14 449.356 122.686 452.481 Q120.255 455.606 119.908 461.926 Q121.274 459.912 123.334 458.847 Q125.394 457.759 127.871 457.759 Q133.08 457.759 136.089 460.93 Q139.121 464.078 139.121 469.518 Q139.121 474.842 135.973 478.06 Q132.825 481.277 127.593 481.277 Q121.598 481.277 118.427 476.694 Q115.256 472.088 115.256 463.361 Q115.256 455.166 119.144 450.305 Q123.033 445.421 129.584 445.421 Q131.343 445.421 133.126 445.768 Q134.931 446.116 136.876 446.81 Z" fill="#000000" fill-rule="nonzero" fill-opacity="1" /><path clip-path="url(#clip560)" d="M147.177 474.727 L152.061 474.727 L152.061 480.606 L147.177 480.606 L147.177 474.727 Z" fill="#000000" fill-rule="nonzero" fill-opacity="1" /><path clip-path="url(#clip560)" d="M172.246 449.125 Q168.635 449.125 166.806 452.69 Q165.001 456.231 165.001 463.361 Q165.001 470.467 166.806 474.032 Q168.635 477.574 172.246 477.574 Q175.88 477.574 177.686 474.032 Q179.514 470.467 179.514 463.361 Q179.514 456.231 177.686 452.69 Q175.88 449.125 172.246 449.125 M172.246 445.421 Q178.056 445.421 181.112 450.028 Q184.19 454.611 184.19 463.361 Q184.19 472.088 181.112 476.694 Q178.056 481.277 172.246 481.277 Q166.436 481.277 163.357 476.694 Q160.302 472.088 160.302 463.361 Q160.302 454.611 163.357 450.028 Q166.436 445.421 172.246 445.421 Z" fill="#000000" fill-rule="nonzero" fill-opacity="1" /><path clip-path="url(#clip560)" d="M220.579 455.143 L210 465.768 L220.579 476.347 L217.824 479.148 L207.199 468.523 L196.575 479.148 L193.843 476.347 L204.399 465.768 L193.843 455.143 L196.575 452.342 L207.199 462.967 L217.824 452.342 L220.579 455.143 Z" fill="#000000" fill-rule="nonzero" fill-opacity="1" /><path clip-path="url(#clip560)" d="M232.94 476.671 L240.579 476.671 L240.579 450.305 L232.269 451.972 L232.269 447.713 L240.533 446.046 L245.209 446.046 L245.209 476.671 L252.847 476.671 L252.847 480.606 L232.94 480.606 L232.94 476.671 Z" fill="#000000" fill-rule="nonzero" fill-opacity="1" /><path clip-path="url(#clip560)" d="M272.292 449.125 Q268.681 449.125 266.852 452.69 Q265.046 456.231 265.046 463.361 Q265.046 470.467 266.852 474.032 Q268.681 477.574 272.292 477.574 Q275.926 477.574 277.732 474.032 Q279.56 470.467 279.56 463.361 Q279.56 456.231 277.732 452.69 Q275.926 449.125 272.292 449.125 M272.292 445.421 Q278.102 445.421 281.157 450.028 Q284.236 454.611 284.236 463.361 Q284.236 472.088 281.157 476.694 Q278.102 481.277 272.292 481.277 Q266.482 481.277 263.403 476.694 Q260.347 472.088 260.347 463.361 Q260.347 454.611 263.403 450.028 Q266.482 445.421 272.292 445.421 Z" fill="#000000" fill-rule="nonzero" fill-opacity="1" /><path clip-path="url(#clip560)" d="M296.913 428.426 L287.321 443.416 L296.913 443.416 L296.913 428.426 M295.916 425.116 L300.693 425.116 L300.693 443.416 L304.699 443.416 L304.699 446.575 L300.693 446.575 L300.693 453.196 L296.913 453.196 L296.913 446.575 L284.236 446.575 L284.236 442.908 L295.916 425.116 Z" fill="#000000" fill-rule="nonzero" fill-opacity="1" /><path clip-path="url(#clip560)" d="M127.015 154.113 Q123.681 154.113 121.76 155.896 Q119.862 157.678 119.862 160.803 Q119.862 163.928 121.76 165.711 Q123.681 167.493 127.015 167.493 Q130.348 167.493 132.269 165.711 Q134.191 163.905 134.191 160.803 Q134.191 157.678 132.269 155.896 Q130.371 154.113 127.015 154.113 M122.339 152.123 Q119.33 151.382 117.64 149.322 Q115.973 147.262 115.973 144.299 Q115.973 140.155 118.913 137.748 Q121.876 135.34 127.015 135.34 Q132.177 135.34 135.117 137.748 Q138.056 140.155 138.056 144.299 Q138.056 147.262 136.367 149.322 Q134.7 151.382 131.714 152.123 Q135.093 152.91 136.968 155.201 Q138.867 157.493 138.867 160.803 Q138.867 165.826 135.788 168.512 Q132.732 171.197 127.015 171.197 Q121.297 171.197 118.218 168.512 Q115.163 165.826 115.163 160.803 Q115.163 157.493 117.061 155.201 Q118.959 152.91 122.339 152.123 M120.626 144.739 Q120.626 147.424 122.293 148.928 Q123.982 150.433 127.015 150.433 Q130.024 150.433 131.714 148.928 Q133.427 147.424 133.427 144.739 Q133.427 142.053 131.714 140.549 Q130.024 139.044 127.015 139.044 Q123.982 139.044 122.293 140.549 Q120.626 142.053 120.626 144.739 Z" fill="#000000" fill-rule="nonzero" fill-opacity="1" /><path clip-path="url(#clip560)" d="M147.177 164.646 L152.061 164.646 L152.061 170.525 L147.177 170.525 L147.177 164.646 Z" fill="#000000" fill-rule="nonzero" fill-opacity="1" /><path clip-path="url(#clip560)" d="M172.246 139.044 Q168.635 139.044 166.806 142.609 Q165.001 146.151 165.001 153.28 Q165.001 160.387 166.806 163.951 Q168.635 167.493 172.246 167.493 Q175.88 167.493 177.686 163.951 Q179.514 160.387 179.514 153.28 Q179.514 146.151 177.686 142.609 Q175.88 139.044 172.246 139.044 M172.246 135.34 Q178.056 135.34 181.112 139.947 Q184.19 144.53 184.19 153.28 Q184.19 162.007 181.112 166.613 Q178.056 171.197 172.246 171.197 Q166.436 171.197 163.357 166.613 Q160.302 162.007 160.302 153.28 Q160.302 144.53 163.357 139.947 Q166.436 135.34 172.246 135.34 Z" fill="#000000" fill-rule="nonzero" fill-opacity="1" /><path clip-path="url(#clip560)" d="M220.579 145.063 L210 155.688 L220.579 166.266 L217.824 169.067 L207.199 158.442 L196.575 169.067 L193.843 166.266 L204.399 155.688 L193.843 145.063 L196.575 142.262 L207.199 152.887 L217.824 142.262 L220.579 145.063 Z" fill="#000000" fill-rule="nonzero" fill-opacity="1" /><path clip-path="url(#clip560)" d="M232.94 166.59 L240.579 166.59 L240.579 140.225 L232.269 141.891 L232.269 137.632 L240.533 135.965 L245.209 135.965 L245.209 166.59 L252.847 166.59 L252.847 170.525 L232.94 170.525 L232.94 166.59 Z" fill="#000000" fill-rule="nonzero" fill-opacity="1" /><path clip-path="url(#clip560)" d="M272.292 139.044 Q268.681 139.044 266.852 142.609 Q265.046 146.151 265.046 153.28 Q265.046 160.387 266.852 163.951 Q268.681 167.493 272.292 167.493 Q275.926 167.493 277.732 163.951 Q279.56 160.387 279.56 153.28 Q279.56 146.151 277.732 142.609 Q275.926 139.044 272.292 139.044 M272.292 135.34 Q278.102 135.34 281.157 139.947 Q284.236 144.53 284.236 153.28 Q284.236 162.007 281.157 166.613 Q278.102 171.197 272.292 171.197 Q266.482 171.197 263.403 166.613 Q260.347 162.007 260.347 153.28 Q260.347 144.53 263.403 139.947 Q266.482 135.34 272.292 135.34 Z" fill="#000000" fill-rule="nonzero" fill-opacity="1" /><path clip-path="url(#clip560)" d="M296.913 118.345 L287.321 133.335 L296.913 133.335 L296.913 118.345 M295.916 115.035 L300.693 115.035 L300.693 133.335 L304.699 133.335 L304.699 136.495 L300.693 136.495 L300.693 143.115 L296.913 143.115 L296.913 136.495 L284.236 136.495 L284.236 132.827 L295.916 115.035 Z" fill="#000000" fill-rule="nonzero" fill-opacity="1" /><path clip-path="url(#clip560)" d="M16.4842 923.811 L16.4842 883.612 L21.895 883.612 L21.895 900.481 L64.0042 900.481 L64.0042 906.942 L21.895 906.942 L21.895 923.811 L16.4842 923.811 Z" fill="#000000" fill-rule="nonzero" fill-opacity="1" /><path clip-path="url(#clip560)" d="M28.3562 879.665 L28.3562 873.809 L64.0042 873.809 L64.0042 879.665 L28.3562 879.665 M14.479 879.665 L14.479 873.809 L21.895 873.809 L21.895 879.665 L14.479 879.665 Z" fill="#000000" fill-rule="nonzero" fill-opacity="1" /><path clip-path="url(#clip560)" d="M35.1993 833.8 Q31.2526 831.604 29.3747 828.548 Q27.4968 825.493 27.4968 821.355 Q27.4968 815.785 31.4117 812.762 Q35.2948 809.738 42.4881 809.738 L64.0042 809.738 L64.0042 815.626 L42.679 815.626 Q37.5546 815.626 35.072 817.44 Q32.5894 819.255 32.5894 822.978 Q32.5894 827.53 35.6131 830.172 Q38.6368 832.814 43.8567 832.814 L64.0042 832.814 L64.0042 838.702 L42.679 838.702 Q37.5228 838.702 35.072 840.516 Q32.5894 842.33 32.5894 846.118 Q32.5894 850.606 35.6449 853.247 Q38.6686 855.889 43.8567 855.889 L64.0042 855.889 L64.0042 861.777 L28.3562 861.777 L28.3562 855.889 L33.8944 855.889 Q30.616 853.884 29.0564 851.083 Q27.4968 848.282 27.4968 844.431 Q27.4968 840.548 29.4702 837.842 Q31.4436 835.105 35.1993 833.8 Z" fill="#000000" fill-rule="nonzero" fill-opacity="1" /><path clip-path="url(#clip560)" d="M44.7161 767.565 L47.5806 767.565 L47.5806 794.492 Q53.6281 794.11 56.8109 790.864 Q59.9619 787.585 59.9619 781.761 Q59.9619 778.387 59.1344 775.236 Q58.3069 772.053 56.6518 768.934 L62.1899 768.934 Q63.5267 772.085 64.227 775.395 Q64.9272 778.705 64.9272 782.111 Q64.9272 790.641 59.9619 795.638 Q54.9967 800.603 46.5303 800.603 Q37.7774 800.603 32.6531 795.892 Q27.4968 791.15 27.4968 783.129 Q27.4968 775.936 32.1438 771.766 Q36.7589 767.565 44.7161 767.565 M42.9973 773.421 Q38.1912 773.485 35.3266 776.127 Q32.4621 778.737 32.4621 783.066 Q32.4621 787.967 35.2312 790.927 Q38.0002 793.855 43.0292 794.301 L42.9973 773.421 Z" fill="#000000" fill-rule="nonzero" fill-opacity="1" /><path clip-path="url(#clip560)" d="M14.5426 723.164 Q21.8632 727.429 29.0246 729.498 Q36.186 731.567 43.5384 731.567 Q50.8908 731.567 58.1159 729.498 Q65.3091 727.397 72.5979 723.164 L72.5979 728.257 Q65.1182 733.031 57.8931 735.418 Q50.668 737.774 43.5384 737.774 Q36.4406 737.774 29.2474 735.418 Q22.0542 733.063 14.5426 728.257 L14.5426 723.164 Z" fill="#000000" fill-rule="nonzero" fill-opacity="1" /><path clip-path="url(#clip560)" d="M42.4881 682.169 L64.0042 682.169 L64.0042 688.026 L42.679 688.026 Q37.6183 688.026 35.1038 689.999 Q32.5894 691.972 32.5894 695.919 Q32.5894 700.661 35.6131 703.399 Q38.6368 706.136 43.8567 706.136 L64.0042 706.136 L64.0042 712.024 L28.3562 712.024 L28.3562 706.136 L33.8944 706.136 Q30.6797 704.035 29.0883 701.203 Q27.4968 698.338 27.4968 694.614 Q27.4968 688.471 31.3163 685.32 Q35.1038 682.169 42.4881 682.169 Z" fill="#000000" fill-rule="nonzero" fill-opacity="1" /><path clip-path="url(#clip560)" d="M29.4065 647.762 L34.9447 647.762 Q33.6716 650.245 33.035 652.919 Q32.3984 655.592 32.3984 658.457 Q32.3984 662.817 33.7352 665.013 Q35.072 667.178 37.7456 667.178 Q39.7826 667.178 40.9603 665.618 Q42.1061 664.059 43.1565 659.348 L43.6021 657.343 Q44.9389 651.104 47.3897 648.494 Q49.8086 645.853 54.1691 645.853 Q59.1344 645.853 62.0308 649.799 Q64.9272 653.714 64.9272 660.589 Q64.9272 663.454 64.3543 666.573 Q63.8132 669.66 62.6992 673.098 L56.6518 673.098 Q58.3387 669.851 59.198 666.7 Q60.0256 663.549 60.0256 660.462 Q60.0256 656.324 58.6251 654.096 Q57.1929 651.868 54.6147 651.868 Q52.2276 651.868 50.9545 653.492 Q49.6813 655.083 48.5037 660.526 L48.0262 662.563 Q46.8804 668.005 44.5251 670.424 Q42.138 672.843 38.0002 672.843 Q32.9713 672.843 30.2341 669.279 Q27.4968 665.714 27.4968 659.157 Q27.4968 655.911 27.9743 653.046 Q28.4517 650.181 29.4065 647.762 Z" fill="#000000" fill-rule="nonzero" fill-opacity="1" /><path clip-path="url(#clip560)" d="M14.5426 637.45 L14.5426 632.357 Q22.0542 627.583 29.2474 625.228 Q36.4406 622.841 43.5384 622.841 Q50.668 622.841 57.8931 625.228 Q65.1182 627.583 72.5979 632.357 L72.5979 637.45 Q65.3091 633.217 58.1159 631.148 Q50.8908 629.047 43.5384 629.047 Q36.186 629.047 29.0246 631.148 Q21.8632 633.217 14.5426 637.45 Z" fill="#000000" fill-rule="nonzero" fill-opacity="1" /><path clip-path="url(#clip560)" d="M797.708 12.096 L848.871 12.096 L848.871 18.9825 L827.402 18.9825 L827.402 72.576 L819.178 72.576 L819.178 18.9825 L797.708 18.9825 L797.708 12.096 Z" fill="#000000" fill-rule="nonzero" fill-opacity="1" /><path clip-path="url(#clip560)" d="M853.894 27.2059 L861.348 27.2059 L861.348 72.576 L853.894 72.576 L853.894 27.2059 M853.894 9.54393 L861.348 9.54393 L861.348 18.9825 L853.894 18.9825 L853.894 9.54393 Z" fill="#000000" fill-rule="nonzero" fill-opacity="1" /><path clip-path="url(#clip560)" d="M912.268 35.9153 Q915.063 30.8922 918.952 28.5022 Q922.841 26.1121 928.107 26.1121 Q935.196 26.1121 939.044 31.0947 Q942.893 36.0368 942.893 45.1919 L942.893 72.576 L935.399 72.576 L935.399 45.4349 Q935.399 38.913 933.09 35.7533 Q930.781 32.5936 926.041 32.5936 Q920.248 32.5936 916.886 36.4419 Q913.524 40.2903 913.524 46.9338 L913.524 72.576 L906.03 72.576 L906.03 45.4349 Q906.03 38.8725 903.721 35.7533 Q901.412 32.5936 896.591 32.5936 Q890.879 32.5936 887.517 36.4824 Q884.155 40.3308 884.155 46.9338 L884.155 72.576 L876.661 72.576 L876.661 27.2059 L884.155 27.2059 L884.155 34.2544 Q886.707 30.082 890.272 28.0971 Q893.836 26.1121 898.738 26.1121 Q903.68 26.1121 907.123 28.6237 Q910.607 31.1352 912.268 35.9153 Z" fill="#000000" fill-rule="nonzero" fill-opacity="1" /><path clip-path="url(#clip560)" d="M996.567 48.0275 L996.567 51.6733 L962.297 51.6733 Q962.783 59.3701 966.915 63.421 Q971.087 67.4314 978.5 67.4314 Q982.794 67.4314 986.805 66.3781 Q990.855 65.3249 994.825 63.2184 L994.825 70.267 Q990.815 71.9684 986.602 72.8596 Q982.389 73.7508 978.055 73.7508 Q967.198 73.7508 960.838 67.4314 Q954.519 61.1119 954.519 50.3365 Q954.519 39.1965 960.514 32.6746 Q966.55 26.1121 976.758 26.1121 Q985.913 26.1121 991.22 32.0264 Q996.567 37.9003 996.567 48.0275 M989.114 45.84 Q989.033 39.7232 985.67 36.0774 Q982.349 32.4315 976.839 32.4315 Q970.601 32.4315 966.834 35.9558 Q963.107 39.4801 962.54 45.8805 L989.114 45.84 Z" fill="#000000" fill-rule="nonzero" fill-opacity="1" /><path clip-path="url(#clip560)" d="M1042.55 14.324 L1042.55 27.2059 L1057.9 27.2059 L1057.9 32.9987 L1042.55 32.9987 L1042.55 57.6282 Q1042.55 63.1779 1044.04 64.7578 Q1045.58 66.3376 1050.24 66.3376 L1057.9 66.3376 L1057.9 72.576 L1050.24 72.576 Q1041.61 72.576 1038.33 69.3758 Q1035.05 66.1351 1035.05 57.6282 L1035.05 32.9987 L1029.58 32.9987 L1029.58 27.2059 L1035.05 27.2059 L1035.05 14.324 L1042.55 14.324 Z" fill="#000000" fill-rule="nonzero" fill-opacity="1" /><path clip-path="url(#clip560)" d="M1085.28 32.4315 Q1079.29 32.4315 1075.8 37.1306 Q1072.32 41.7891 1072.32 49.9314 Q1072.32 58.0738 1075.76 62.7728 Q1079.25 67.4314 1085.28 67.4314 Q1091.24 67.4314 1094.72 62.7323 Q1098.2 58.0333 1098.2 49.9314 Q1098.2 41.8701 1094.72 37.1711 Q1091.24 32.4315 1085.28 32.4315 M1085.28 26.1121 Q1095 26.1121 1100.55 32.4315 Q1106.1 38.7509 1106.1 49.9314 Q1106.1 61.0714 1100.55 67.4314 Q1095 73.7508 1085.28 73.7508 Q1075.52 73.7508 1069.97 67.4314 Q1064.46 61.0714 1064.46 49.9314 Q1064.46 38.7509 1069.97 32.4315 Q1075.52 26.1121 1085.28 26.1121 Z" fill="#000000" fill-rule="nonzero" fill-opacity="1" /><path clip-path="url(#clip560)" d="M1177.48 28.9478 L1177.48 35.9153 Q1174.32 34.1734 1171.12 33.3227 Q1167.96 32.4315 1164.72 32.4315 Q1157.47 32.4315 1153.46 37.0496 Q1149.45 41.6271 1149.45 49.9314 Q1149.45 58.2358 1153.46 62.8538 Q1157.47 67.4314 1164.72 67.4314 Q1167.96 67.4314 1171.12 66.5807 Q1174.32 65.6895 1177.48 63.9476 L1177.48 70.8341 Q1174.36 72.2924 1171 73.0216 Q1167.68 73.7508 1163.91 73.7508 Q1153.66 73.7508 1147.63 67.3098 Q1141.59 60.8689 1141.59 49.9314 Q1141.59 38.832 1147.67 32.472 Q1153.78 26.1121 1164.4 26.1121 Q1167.84 26.1121 1171.12 26.8413 Q1174.4 27.5299 1177.48 28.9478 Z" fill="#000000" fill-rule="nonzero" fill-opacity="1" /><path clip-path="url(#clip560)" d="M1208.02 32.4315 Q1202.03 32.4315 1198.55 37.1306 Q1195.06 41.7891 1195.06 49.9314 Q1195.06 58.0738 1198.5 62.7728 Q1201.99 67.4314 1208.02 67.4314 Q1213.98 67.4314 1217.46 62.7323 Q1220.95 58.0333 1220.95 49.9314 Q1220.95 41.8701 1217.46 37.1711 Q1213.98 32.4315 1208.02 32.4315 M1208.02 26.1121 Q1217.75 26.1121 1223.3 32.4315 Q1228.85 38.7509 1228.85 49.9314 Q1228.85 61.0714 1223.3 67.4314 Q1217.75 73.7508 1208.02 73.7508 Q1198.26 73.7508 1192.71 67.4314 Q1187.2 61.0714 1187.2 49.9314 Q1187.2 38.7509 1192.71 32.4315 Q1198.26 26.1121 1208.02 26.1121 Z" fill="#000000" fill-rule="nonzero" fill-opacity="1" /><path clip-path="url(#clip560)" d="M1276.53 35.9153 Q1279.32 30.8922 1283.21 28.5022 Q1287.1 26.1121 1292.36 26.1121 Q1299.45 26.1121 1303.3 31.0947 Q1307.15 36.0368 1307.15 45.1919 L1307.15 72.576 L1299.66 72.576 L1299.66 45.4349 Q1299.66 38.913 1297.35 35.7533 Q1295.04 32.5936 1290.3 32.5936 Q1284.51 32.5936 1281.14 36.4419 Q1277.78 40.2903 1277.78 46.9338 L1277.78 72.576 L1270.29 72.576 L1270.29 45.4349 Q1270.29 38.8725 1267.98 35.7533 Q1265.67 32.5936 1260.85 32.5936 Q1255.14 32.5936 1251.77 36.4824 Q1248.41 40.3308 1248.41 46.9338 L1248.41 72.576 L1240.92 72.576 L1240.92 27.2059 L1248.41 27.2059 L1248.41 34.2544 Q1250.96 30.082 1254.53 28.0971 Q1258.09 26.1121 1263 26.1121 Q1267.94 26.1121 1271.38 28.6237 Q1274.86 31.1352 1276.53 35.9153 Z" fill="#000000" fill-rule="nonzero" fill-opacity="1" /><path clip-path="url(#clip560)" d="M1329.23 65.7705 L1329.23 89.8329 L1321.73 89.8329 L1321.73 27.2059 L1329.23 27.2059 L1329.23 34.0924 Q1331.58 30.0415 1335.14 28.0971 Q1338.75 26.1121 1343.73 26.1121 Q1351.99 26.1121 1357.14 32.6746 Q1362.32 39.2371 1362.32 49.9314 Q1362.32 60.6258 1357.14 67.1883 Q1351.99 73.7508 1343.73 73.7508 Q1338.75 73.7508 1335.14 71.8063 Q1331.58 69.8214 1329.23 65.7705 M1354.59 49.9314 Q1354.59 41.7081 1351.18 37.0496 Q1347.82 32.3505 1341.91 32.3505 Q1335.99 32.3505 1332.59 37.0496 Q1329.23 41.7081 1329.23 49.9314 Q1329.23 58.1548 1332.59 62.8538 Q1335.99 67.5124 1341.91 67.5124 Q1347.82 67.5124 1351.18 62.8538 Q1354.59 58.1548 1354.59 49.9314 Z" fill="#000000" fill-rule="nonzero" fill-opacity="1" /><path clip-path="url(#clip560)" d="M1373.91 54.671 L1373.91 27.2059 L1381.36 27.2059 L1381.36 54.3874 Q1381.36 60.8284 1383.87 64.0691 Q1386.39 67.2693 1391.41 67.2693 Q1397.44 67.2693 1400.93 63.421 Q1404.45 59.5726 1404.45 52.9291 L1404.45 27.2059 L1411.91 27.2059 L1411.91 72.576 L1404.45 72.576 L1404.45 65.6084 Q1401.74 69.7404 1398.13 71.7658 Q1394.57 73.7508 1389.83 73.7508 Q1382.01 73.7508 1377.96 68.8897 Q1373.91 64.0286 1373.91 54.671 M1392.66 26.1121 L1392.66 26.1121 Z" fill="#000000" fill-rule="nonzero" fill-opacity="1" /><path clip-path="url(#clip560)" d="M1434.63 14.324 L1434.63 27.2059 L1449.98 27.2059 L1449.98 32.9987 L1434.63 32.9987 L1434.63 57.6282 Q1434.63 63.1779 1436.13 64.7578 Q1437.67 66.3376 1442.33 66.3376 L1449.98 66.3376 L1449.98 72.576 L1442.33 72.576 Q1433.7 72.576 1430.42 69.3758 Q1427.14 66.1351 1427.14 57.6282 L1427.14 32.9987 L1421.67 32.9987 L1421.67 27.2059 L1427.14 27.2059 L1427.14 14.324 L1434.63 14.324 Z" fill="#000000" fill-rule="nonzero" fill-opacity="1" /><path clip-path="url(#clip560)" d="M1498.6 48.0275 L1498.6 51.6733 L1464.33 51.6733 Q1464.81 59.3701 1468.94 63.421 Q1473.12 67.4314 1480.53 67.4314 Q1484.82 67.4314 1488.83 66.3781 Q1492.88 65.3249 1496.85 63.2184 L1496.85 70.267 Q1492.84 71.9684 1488.63 72.8596 Q1484.42 73.7508 1480.08 73.7508 Q1469.23 73.7508 1462.87 67.4314 Q1456.55 61.1119 1456.55 50.3365 Q1456.55 39.1965 1462.54 32.6746 Q1468.58 26.1121 1478.79 26.1121 Q1487.94 26.1121 1493.25 32.0264 Q1498.6 37.9003 1498.6 48.0275 M1491.14 45.84 Q1491.06 39.7232 1487.7 36.0774 Q1484.38 32.4315 1478.87 32.4315 Q1472.63 32.4315 1468.86 35.9558 Q1465.14 39.4801 1464.57 45.8805 L1491.14 45.84 Z" fill="#000000" fill-rule="nonzero" fill-opacity="1" /><path clip-path="url(#clip560)" d="M1545.71 18.8205 L1545.71 41.5461 L1556 41.5461 Q1561.71 41.5461 1564.83 38.5889 Q1567.95 35.6318 1567.95 30.163 Q1567.95 24.7348 1564.83 21.7777 Q1561.71 18.8205 1556 18.8205 L1545.71 18.8205 M1537.53 12.096 L1556 12.096 Q1566.16 12.096 1571.35 16.714 Q1576.58 21.2916 1576.58 30.163 Q1576.58 39.1155 1571.35 43.6931 Q1566.16 48.2706 1556 48.2706 L1545.71 48.2706 L1545.71 72.576 L1537.53 72.576 L1537.53 12.096 Z" fill="#000000" fill-rule="nonzero" fill-opacity="1" /><path clip-path="url(#clip560)" d="M1585 54.671 L1585 27.2059 L1592.46 27.2059 L1592.46 54.3874 Q1592.46 60.8284 1594.97 64.0691 Q1597.48 67.2693 1602.5 67.2693 Q1608.54 67.2693 1612.02 63.421 Q1615.55 59.5726 1615.55 52.9291 L1615.55 27.2059 L1623 27.2059 L1623 72.576 L1615.55 72.576 L1615.55 65.6084 Q1612.83 69.7404 1609.23 71.7658 Q1605.66 73.7508 1600.92 73.7508 Q1593.1 73.7508 1589.05 68.8897 Q1585 64.0286 1585 54.671 M1603.76 26.1121 L1603.76 26.1121 Z" fill="#000000" fill-rule="nonzero" fill-opacity="1" /><path clip-path="url(#clip560)" d="M1667.28 28.5427 L1667.28 35.5912 Q1664.12 33.9709 1660.71 33.1607 Q1657.31 32.3505 1653.66 32.3505 Q1648.11 32.3505 1645.32 34.0519 Q1642.56 35.7533 1642.56 39.156 Q1642.56 41.7486 1644.55 43.2475 Q1646.53 44.7058 1652.53 46.0426 L1655.08 46.6097 Q1663.02 48.3111 1666.34 51.4303 Q1669.71 54.509 1669.71 60.0587 Q1669.71 66.3781 1664.68 70.0644 Q1659.7 73.7508 1650.95 73.7508 Q1647.3 73.7508 1643.33 73.0216 Q1639.41 72.3329 1635.03 70.9151 L1635.03 63.2184 Q1639.16 65.3654 1643.17 66.4591 Q1647.18 67.5124 1651.11 67.5124 Q1656.38 67.5124 1659.21 65.73 Q1662.05 63.9071 1662.05 60.6258 Q1662.05 57.5877 1659.98 55.9673 Q1657.96 54.3469 1651.03 52.8481 L1648.44 52.2405 Q1641.51 50.7821 1638.43 47.7845 Q1635.35 44.7463 1635.35 39.4801 Q1635.35 33.0797 1639.89 29.5959 Q1644.43 26.1121 1652.77 26.1121 Q1656.91 26.1121 1660.55 26.7198 Q1664.2 27.3274 1667.28 28.5427 Z" fill="#000000" fill-rule="nonzero" fill-opacity="1" /><path clip-path="url(#clip560)" d="M1719.29 45.1919 L1719.29 72.576 L1711.84 72.576 L1711.84 45.4349 Q1711.84 38.994 1709.32 35.7938 Q1706.81 32.5936 1701.79 32.5936 Q1695.75 32.5936 1692.27 36.4419 Q1688.79 40.2903 1688.79 46.9338 L1688.79 72.576 L1681.29 72.576 L1681.29 9.54393 L1688.79 9.54393 L1688.79 34.2544 Q1691.46 30.163 1695.06 28.1376 Q1698.71 26.1121 1703.45 26.1121 Q1711.27 26.1121 1715.28 30.9732 Q1719.29 35.7938 1719.29 45.1919 Z" fill="#000000" fill-rule="nonzero" fill-opacity="1" /><path clip-path="url(#clip560)" d="M1760.85 12.096 L1769.03 12.096 L1769.03 65.6895 L1798.48 65.6895 L1798.48 72.576 L1760.85 72.576 L1760.85 12.096 Z" fill="#000000" fill-rule="nonzero" fill-opacity="1" /><path clip-path="url(#clip560)" d="M1806.75 27.2059 L1814.2 27.2059 L1814.2 72.576 L1806.75 72.576 L1806.75 27.2059 M1806.75 9.54393 L1814.2 9.54393 L1814.2 18.9825 L1806.75 18.9825 L1806.75 9.54393 Z" fill="#000000" fill-rule="nonzero" fill-opacity="1" /><path clip-path="url(#clip560)" d="M1858.72 28.5427 L1858.72 35.5912 Q1855.56 33.9709 1852.16 33.1607 Q1848.76 32.3505 1845.11 32.3505 Q1839.56 32.3505 1836.77 34.0519 Q1834.01 35.7533 1834.01 39.156 Q1834.01 41.7486 1836 43.2475 Q1837.98 44.7058 1843.98 46.0426 L1846.53 46.6097 Q1854.47 48.3111 1857.79 51.4303 Q1861.15 54.509 1861.15 60.0587 Q1861.15 66.3781 1856.13 70.0644 Q1851.15 73.7508 1842.4 73.7508 Q1838.75 73.7508 1834.78 73.0216 Q1830.85 72.3329 1826.48 70.9151 L1826.48 63.2184 Q1830.61 65.3654 1834.62 66.4591 Q1838.63 67.5124 1842.56 67.5124 Q1847.82 67.5124 1850.66 65.73 Q1853.5 63.9071 1853.5 60.6258 Q1853.5 57.5877 1851.43 55.9673 Q1849.4 54.3469 1842.48 52.8481 L1839.88 52.2405 Q1832.96 50.7821 1829.88 47.7845 Q1826.8 44.7463 1826.8 39.4801 Q1826.8 33.0797 1831.34 29.5959 Q1835.87 26.1121 1844.22 26.1121 Q1848.35 26.1121 1852 26.7198 Q1855.64 27.3274 1858.72 28.5427 Z" fill="#000000" fill-rule="nonzero" fill-opacity="1" /><path clip-path="url(#clip560)" d="M1880.39 14.324 L1880.39 27.2059 L1895.75 27.2059 L1895.75 32.9987 L1880.39 32.9987 L1880.39 57.6282 Q1880.39 63.1779 1881.89 64.7578 Q1883.43 66.3376 1888.09 66.3376 L1895.75 66.3376 L1895.75 72.576 L1888.09 72.576 Q1879.46 72.576 1876.18 69.3758 Q1872.9 66.1351 1872.9 57.6282 L1872.9 32.9987 L1867.43 32.9987 L1867.43 27.2059 L1872.9 27.2059 L1872.9 14.324 L1880.39 14.324 Z" fill="#000000" fill-rule="nonzero" fill-opacity="1" /><polyline clip-path="url(#clip562)" style="stroke:#009af9; stroke-linecap:round; stroke-linejoin:round; stroke-width:4; stroke-opacity:1; fill:none" points="397.644,1386.4 406.19,1386.36 444.172,1386.37 491.65,1386.36 539.128,1386.17 586.606,1386.25 634.084,1386.13 681.562,1386.19 729.04,1386.04 776.518,1385.96 871.474,1385.84 1346.25,1385.46 2295.81,1385.32 "/>
<polyline clip-path="url(#clip562)" style="stroke:#e26f46; stroke-linecap:round; stroke-linejoin:round; stroke-width:4; stroke-opacity:1; fill:none" points="397.644,1385.02 406.19,1379.61 444.172,1356.01 491.65,1327.21 539.128,1297.86 586.606,1268.53 634.084,1238.46 681.562,1211.93 729.04,1183.55 776.518,1150.32 871.474,1095.54 1346.25,807.507 2295.81,160.256 "/>
<polyline clip-path="url(#clip562)" style="stroke:#3da44d; stroke-linecap:round; stroke-linejoin:round; stroke-width:4; stroke-opacity:1; fill:none" points="397.644,1385.67 406.19,1380.72 444.172,1360.88 491.65,1334.7 539.128,1312.81 586.606,1289.3 634.084,1264.25 681.562,1241.67 729.04,1216.87 776.518,1190.66 871.474,1141.93 1346.25,901.277 2295.81,409.634 "/>
<circle clip-path="url(#clip562)" cx="397.644" cy="1386.4" r="14.4" fill="#c271d2" fill-rule="evenodd" fill-opacity="1" stroke="#000000" stroke-opacity="1" stroke-width="3.2"/>
<circle clip-path="url(#clip562)" cx="406.19" cy="1386.36" r="14.4" fill="#c271d2" fill-rule="evenodd" fill-opacity="1" stroke="#000000" stroke-opacity="1" stroke-width="3.2"/>
<circle clip-path="url(#clip562)" cx="444.172" cy="1386.37" r="14.4" fill="#c271d2" fill-rule="evenodd" fill-opacity="1" stroke="#000000" stroke-opacity="1" stroke-width="3.2"/>
<circle clip-path="url(#clip562)" cx="491.65" cy="1386.36" r="14.4" fill="#c271d2" fill-rule="evenodd" fill-opacity="1" stroke="#000000" stroke-opacity="1" stroke-width="3.2"/>
<circle clip-path="url(#clip562)" cx="539.128" cy="1386.17" r="14.4" fill="#c271d2" fill-rule="evenodd" fill-opacity="1" stroke="#000000" stroke-opacity="1" stroke-width="3.2"/>
<circle clip-path="url(#clip562)" cx="586.606" cy="1386.25" r="14.4" fill="#c271d2" fill-rule="evenodd" fill-opacity="1" stroke="#000000" stroke-opacity="1" stroke-width="3.2"/>
<circle clip-path="url(#clip562)" cx="634.084" cy="1386.13" r="14.4" fill="#c271d2" fill-rule="evenodd" fill-opacity="1" stroke="#000000" stroke-opacity="1" stroke-width="3.2"/>
<circle clip-path="url(#clip562)" cx="681.562" cy="1386.19" r="14.4" fill="#c271d2" fill-rule="evenodd" fill-opacity="1" stroke="#000000" stroke-opacity="1" stroke-width="3.2"/>
<circle clip-path="url(#clip562)" cx="729.04" cy="1386.04" r="14.4" fill="#c271d2" fill-rule="evenodd" fill-opacity="1" stroke="#000000" stroke-opacity="1" stroke-width="3.2"/>
<circle clip-path="url(#clip562)" cx="776.518" cy="1385.96" r="14.4" fill="#c271d2" fill-rule="evenodd" fill-opacity="1" stroke="#000000" stroke-opacity="1" stroke-width="3.2"/>
<circle clip-path="url(#clip562)" cx="871.474" cy="1385.84" r="14.4" fill="#c271d2" fill-rule="evenodd" fill-opacity="1" stroke="#000000" stroke-opacity="1" stroke-width="3.2"/>
<circle clip-path="url(#clip562)" cx="1346.25" cy="1385.46" r="14.4" fill="#c271d2" fill-rule="evenodd" fill-opacity="1" stroke="#000000" stroke-opacity="1" stroke-width="3.2"/>
<circle clip-path="url(#clip562)" cx="2295.81" cy="1385.32" r="14.4" fill="#c271d2" fill-rule="evenodd" fill-opacity="1" stroke="#000000" stroke-opacity="1" stroke-width="3.2"/>
<circle clip-path="url(#clip562)" cx="397.644" cy="1385.02" r="14.4" fill="#ac8d18" fill-rule="evenodd" fill-opacity="1" stroke="#000000" stroke-opacity="1" stroke-width="3.2"/>
<circle clip-path="url(#clip562)" cx="406.19" cy="1379.61" r="14.4" fill="#ac8d18" fill-rule="evenodd" fill-opacity="1" stroke="#000000" stroke-opacity="1" stroke-width="3.2"/>
<circle clip-path="url(#clip562)" cx="444.172" cy="1356.01" r="14.4" fill="#ac8d18" fill-rule="evenodd" fill-opacity="1" stroke="#000000" stroke-opacity="1" stroke-width="3.2"/>
<circle clip-path="url(#clip562)" cx="491.65" cy="1327.21" r="14.4" fill="#ac8d18" fill-rule="evenodd" fill-opacity="1" stroke="#000000" stroke-opacity="1" stroke-width="3.2"/>
<circle clip-path="url(#clip562)" cx="539.128" cy="1297.86" r="14.4" fill="#ac8d18" fill-rule="evenodd" fill-opacity="1" stroke="#000000" stroke-opacity="1" stroke-width="3.2"/>
<circle clip-path="url(#clip562)" cx="586.606" cy="1268.53" r="14.4" fill="#ac8d18" fill-rule="evenodd" fill-opacity="1" stroke="#000000" stroke-opacity="1" stroke-width="3.2"/>
<circle clip-path="url(#clip562)" cx="634.084" cy="1238.46" r="14.4" fill="#ac8d18" fill-rule="evenodd" fill-opacity="1" stroke="#000000" stroke-opacity="1" stroke-width="3.2"/>
<circle clip-path="url(#clip562)" cx="681.562" cy="1211.93" r="14.4" fill="#ac8d18" fill-rule="evenodd" fill-opacity="1" stroke="#000000" stroke-opacity="1" stroke-width="3.2"/>
<circle clip-path="url(#clip562)" cx="729.04" cy="1183.55" r="14.4" fill="#ac8d18" fill-rule="evenodd" fill-opacity="1" stroke="#000000" stroke-opacity="1" stroke-width="3.2"/>
<circle clip-path="url(#clip562)" cx="776.518" cy="1150.32" r="14.4" fill="#ac8d18" fill-rule="evenodd" fill-opacity="1" stroke="#000000" stroke-opacity="1" stroke-width="3.2"/>
<circle clip-path="url(#clip562)" cx="871.474" cy="1095.54" r="14.4" fill="#ac8d18" fill-rule="evenodd" fill-opacity="1" stroke="#000000" stroke-opacity="1" stroke-width="3.2"/>
<circle clip-path="url(#clip562)" cx="1346.25" cy="807.507" r="14.4" fill="#ac8d18" fill-rule="evenodd" fill-opacity="1" stroke="#000000" stroke-opacity="1" stroke-width="3.2"/>
<circle clip-path="url(#clip562)" cx="2295.81" cy="160.256" r="14.4" fill="#ac8d18" fill-rule="evenodd" fill-opacity="1" stroke="#000000" stroke-opacity="1" stroke-width="3.2"/>
<circle clip-path="url(#clip562)" cx="397.644" cy="1385.67" r="14.4" fill="#00a9ad" fill-rule="evenodd" fill-opacity="1" stroke="#000000" stroke-opacity="1" stroke-width="3.2"/>
<circle clip-path="url(#clip562)" cx="406.19" cy="1380.72" r="14.4" fill="#00a9ad" fill-rule="evenodd" fill-opacity="1" stroke="#000000" stroke-opacity="1" stroke-width="3.2"/>
<circle clip-path="url(#clip562)" cx="444.172" cy="1360.88" r="14.4" fill="#00a9ad" fill-rule="evenodd" fill-opacity="1" stroke="#000000" stroke-opacity="1" stroke-width="3.2"/>
<circle clip-path="url(#clip562)" cx="491.65" cy="1334.7" r="14.4" fill="#00a9ad" fill-rule="evenodd" fill-opacity="1" stroke="#000000" stroke-opacity="1" stroke-width="3.2"/>
<circle clip-path="url(#clip562)" cx="539.128" cy="1312.81" r="14.4" fill="#00a9ad" fill-rule="evenodd" fill-opacity="1" stroke="#000000" stroke-opacity="1" stroke-width="3.2"/>
<circle clip-path="url(#clip562)" cx="586.606" cy="1289.3" r="14.4" fill="#00a9ad" fill-rule="evenodd" fill-opacity="1" stroke="#000000" stroke-opacity="1" stroke-width="3.2"/>
<circle clip-path="url(#clip562)" cx="634.084" cy="1264.25" r="14.4" fill="#00a9ad" fill-rule="evenodd" fill-opacity="1" stroke="#000000" stroke-opacity="1" stroke-width="3.2"/>
<circle clip-path="url(#clip562)" cx="681.562" cy="1241.67" r="14.4" fill="#00a9ad" fill-rule="evenodd" fill-opacity="1" stroke="#000000" stroke-opacity="1" stroke-width="3.2"/>
<circle clip-path="url(#clip562)" cx="729.04" cy="1216.87" r="14.4" fill="#00a9ad" fill-rule="evenodd" fill-opacity="1" stroke="#000000" stroke-opacity="1" stroke-width="3.2"/>
<circle clip-path="url(#clip562)" cx="776.518" cy="1190.66" r="14.4" fill="#00a9ad" fill-rule="evenodd" fill-opacity="1" stroke="#000000" stroke-opacity="1" stroke-width="3.2"/>
<circle clip-path="url(#clip562)" cx="871.474" cy="1141.93" r="14.4" fill="#00a9ad" fill-rule="evenodd" fill-opacity="1" stroke="#000000" stroke-opacity="1" stroke-width="3.2"/>
<circle clip-path="url(#clip562)" cx="1346.25" cy="901.277" r="14.4" fill="#00a9ad" fill-rule="evenodd" fill-opacity="1" stroke="#000000" stroke-opacity="1" stroke-width="3.2"/>
<circle clip-path="url(#clip562)" cx="2295.81" cy="409.634" r="14.4" fill="#00a9ad" fill-rule="evenodd" fill-opacity="1" stroke="#000000" stroke-opacity="1" stroke-width="3.2"/>
<path clip-path="url(#clip560)" d="M407.768 374.156 L824.042 374.156 L824.042 166.796 L407.768 166.796  Z" fill="#ffffff" fill-rule="evenodd" fill-opacity="1"/>
<polyline clip-path="url(#clip560)" style="stroke:#000000; stroke-linecap:round; stroke-linejoin:round; stroke-width:4; stroke-opacity:1; fill:none" points="407.768,374.156 824.042,374.156 824.042,166.796 407.768,166.796 407.768,374.156 "/>
<polyline clip-path="url(#clip560)" style="stroke:#009af9; stroke-linecap:round; stroke-linejoin:round; stroke-width:4; stroke-opacity:1; fill:none" points="430.124,218.636 564.261,218.636 "/>
<path clip-path="url(#clip560)" d="M590.899 232.027 L590.899 245.777 L586.617 245.777 L586.617 209.99 L590.899 209.99 L590.899 213.925 Q592.242 211.61 594.279 210.499 Q596.339 209.365 599.186 209.365 Q603.909 209.365 606.848 213.115 Q609.811 216.865 609.811 222.976 Q609.811 229.087 606.848 232.837 Q603.909 236.587 599.186 236.587 Q596.339 236.587 594.279 235.476 Q592.242 234.342 590.899 232.027 M605.39 222.976 Q605.39 218.277 603.446 215.615 Q601.524 212.93 598.145 212.93 Q594.765 212.93 592.821 215.615 Q590.899 218.277 590.899 222.976 Q590.899 227.675 592.821 230.36 Q594.765 233.022 598.145 233.022 Q601.524 233.022 603.446 230.36 Q605.39 227.675 605.39 222.976 Z" fill="#000000" fill-rule="nonzero" fill-opacity="1" /><path clip-path="url(#clip560)" d="M616.432 225.684 L616.432 209.99 L620.691 209.99 L620.691 225.522 Q620.691 229.203 622.126 231.055 Q623.561 232.883 626.432 232.883 Q629.881 232.883 631.871 230.684 Q633.885 228.485 633.885 224.689 L633.885 209.99 L638.145 209.99 L638.145 235.916 L633.885 235.916 L633.885 231.934 Q632.334 234.295 630.274 235.453 Q628.237 236.587 625.529 236.587 Q621.061 236.587 618.746 233.809 Q616.432 231.031 616.432 225.684 M627.149 209.365 L627.149 209.365 Z" fill="#000000" fill-rule="nonzero" fill-opacity="1" /><path clip-path="url(#clip560)" d="M663.445 210.754 L663.445 214.782 Q661.64 213.856 659.695 213.393 Q657.751 212.93 655.668 212.93 Q652.496 212.93 650.899 213.902 Q649.325 214.874 649.325 216.819 Q649.325 218.3 650.459 219.157 Q651.594 219.99 655.019 220.754 L656.478 221.078 Q661.015 222.05 662.913 223.832 Q664.834 225.592 664.834 228.763 Q664.834 232.374 661.964 234.481 Q659.117 236.587 654.117 236.587 Q652.033 236.587 649.765 236.17 Q647.519 235.777 645.019 234.967 L645.019 230.569 Q647.381 231.795 649.672 232.42 Q651.964 233.022 654.209 233.022 Q657.218 233.022 658.839 232.004 Q660.459 230.962 660.459 229.087 Q660.459 227.351 659.279 226.425 Q658.121 225.499 654.163 224.643 L652.681 224.295 Q648.723 223.462 646.964 221.749 Q645.205 220.013 645.205 217.004 Q645.205 213.346 647.797 211.356 Q650.39 209.365 655.158 209.365 Q657.519 209.365 659.603 209.712 Q661.686 210.059 663.445 210.754 Z" fill="#000000" fill-rule="nonzero" fill-opacity="1" /><path clip-path="url(#clip560)" d="M693.167 220.268 L693.167 235.916 L688.908 235.916 L688.908 220.407 Q688.908 216.726 687.473 214.897 Q686.038 213.069 683.167 213.069 Q679.718 213.069 677.728 215.268 Q675.737 217.467 675.737 221.263 L675.737 235.916 L671.455 235.916 L671.455 199.897 L675.737 199.897 L675.737 214.018 Q677.265 211.68 679.325 210.522 Q681.408 209.365 684.117 209.365 Q688.584 209.365 690.876 212.143 Q693.167 214.897 693.167 220.268 Z" fill="#000000" fill-rule="nonzero" fill-opacity="1" /><path clip-path="url(#clip560)" d="M714.788 199.897 L714.788 203.439 L710.714 203.439 Q708.422 203.439 707.519 204.365 Q706.64 205.291 706.64 207.698 L706.64 209.99 L713.653 209.99 L713.653 213.3 L706.64 213.3 L706.64 235.916 L702.357 235.916 L702.357 213.3 L698.283 213.3 L698.283 209.99 L702.357 209.99 L702.357 208.184 Q702.357 203.856 704.371 201.888 Q706.385 199.897 710.76 199.897 L714.788 199.897 Z" fill="#000000" fill-rule="nonzero" fill-opacity="1" /><path clip-path="url(#clip560)" d="M718.352 209.99 L722.612 209.99 L722.612 235.916 L718.352 235.916 L718.352 209.99 M718.352 199.897 L722.612 199.897 L722.612 205.291 L718.352 205.291 L718.352 199.897 Z" fill="#000000" fill-rule="nonzero" fill-opacity="1" /><path clip-path="url(#clip560)" d="M746.547 213.971 Q745.829 213.555 744.973 213.37 Q744.139 213.161 743.121 213.161 Q739.51 213.161 737.565 215.522 Q735.644 217.86 735.644 222.258 L735.644 235.916 L731.362 235.916 L731.362 209.99 L735.644 209.99 L735.644 214.018 Q736.987 211.657 739.139 210.522 Q741.292 209.365 744.371 209.365 Q744.811 209.365 745.343 209.434 Q745.875 209.481 746.524 209.596 L746.547 213.971 Z" fill="#000000" fill-rule="nonzero" fill-opacity="1" /><path clip-path="url(#clip560)" d="M767.542 210.754 L767.542 214.782 Q765.736 213.856 763.792 213.393 Q761.848 212.93 759.764 212.93 Q756.593 212.93 754.996 213.902 Q753.422 214.874 753.422 216.819 Q753.422 218.3 754.556 219.157 Q755.69 219.99 759.116 220.754 L760.574 221.078 Q765.111 222.05 767.01 223.832 Q768.931 225.592 768.931 228.763 Q768.931 232.374 766.061 234.481 Q763.213 236.587 758.213 236.587 Q756.13 236.587 753.861 236.17 Q751.616 235.777 749.116 234.967 L749.116 230.569 Q751.477 231.795 753.769 232.42 Q756.061 233.022 758.306 233.022 Q761.315 233.022 762.936 232.004 Q764.556 230.962 764.556 229.087 Q764.556 227.351 763.375 226.425 Q762.218 225.499 758.26 224.643 L756.778 224.295 Q752.82 223.462 751.061 221.749 Q749.301 220.013 749.301 217.004 Q749.301 213.346 751.894 211.356 Q754.486 209.365 759.255 209.365 Q761.616 209.365 763.699 209.712 Q765.783 210.059 767.542 210.754 Z" fill="#000000" fill-rule="nonzero" fill-opacity="1" /><path clip-path="url(#clip560)" d="M779.926 202.629 L779.926 209.99 L788.699 209.99 L788.699 213.3 L779.926 213.3 L779.926 227.374 Q779.926 230.545 780.783 231.448 Q781.662 232.351 784.324 232.351 L788.699 232.351 L788.699 235.916 L784.324 235.916 Q779.394 235.916 777.519 234.087 Q775.644 232.235 775.644 227.374 L775.644 213.3 L772.519 213.3 L772.519 209.99 L775.644 209.99 L775.644 202.629 L779.926 202.629 Z" fill="#000000" fill-rule="nonzero" fill-opacity="1" /><path clip-path="url(#clip560)" d="M796.986 230.036 L801.685 230.036 L801.685 235.916 L796.986 235.916 L796.986 230.036 M796.986 201.356 L801.685 201.356 L801.685 216.518 L801.222 224.782 L797.472 224.782 L796.986 216.518 L796.986 201.356 Z" fill="#000000" fill-rule="nonzero" fill-opacity="1" /><polyline clip-path="url(#clip560)" style="stroke:#e26f46; stroke-linecap:round; stroke-linejoin:round; stroke-width:4; stroke-opacity:1; fill:none" points="430.124,270.476 564.261,270.476 "/>
<path clip-path="url(#clip560)" d="M590.899 283.867 L590.899 297.617 L586.617 297.617 L586.617 261.83 L590.899 261.83 L590.899 265.765 Q592.242 263.45 594.279 262.339 Q596.339 261.205 599.186 261.205 Q603.909 261.205 606.848 264.955 Q609.811 268.705 609.811 274.816 Q609.811 280.927 606.848 284.677 Q603.909 288.427 599.186 288.427 Q596.339 288.427 594.279 287.316 Q592.242 286.182 590.899 283.867 M605.39 274.816 Q605.39 270.117 603.446 267.455 Q601.524 264.77 598.145 264.77 Q594.765 264.77 592.821 267.455 Q590.899 270.117 590.899 274.816 Q590.899 279.515 592.821 282.2 Q594.765 284.862 598.145 284.862 Q601.524 284.862 603.446 282.2 Q605.39 279.515 605.39 274.816 Z" fill="#000000" fill-rule="nonzero" fill-opacity="1" /><path clip-path="url(#clip560)" d="M616.432 277.524 L616.432 261.83 L620.691 261.83 L620.691 277.362 Q620.691 281.043 622.126 282.895 Q623.561 284.723 626.432 284.723 Q629.881 284.723 631.871 282.524 Q633.885 280.325 633.885 276.529 L633.885 261.83 L638.145 261.83 L638.145 287.756 L633.885 287.756 L633.885 283.774 Q632.334 286.135 630.274 287.293 Q628.237 288.427 625.529 288.427 Q621.061 288.427 618.746 285.649 Q616.432 282.871 616.432 277.524 M627.149 261.205 L627.149 261.205 Z" fill="#000000" fill-rule="nonzero" fill-opacity="1" /><path clip-path="url(#clip560)" d="M663.445 262.594 L663.445 266.622 Q661.64 265.696 659.695 265.233 Q657.751 264.77 655.668 264.77 Q652.496 264.77 650.899 265.742 Q649.325 266.714 649.325 268.659 Q649.325 270.14 650.459 270.997 Q651.594 271.83 655.019 272.594 L656.478 272.918 Q661.015 273.89 662.913 275.672 Q664.834 277.432 664.834 280.603 Q664.834 284.214 661.964 286.321 Q659.117 288.427 654.117 288.427 Q652.033 288.427 649.765 288.01 Q647.519 287.617 645.019 286.807 L645.019 282.409 Q647.381 283.635 649.672 284.26 Q651.964 284.862 654.209 284.862 Q657.218 284.862 658.839 283.844 Q660.459 282.802 660.459 280.927 Q660.459 279.191 659.279 278.265 Q658.121 277.339 654.163 276.483 L652.681 276.135 Q648.723 275.302 646.964 273.589 Q645.205 271.853 645.205 268.844 Q645.205 265.186 647.797 263.196 Q650.39 261.205 655.158 261.205 Q657.519 261.205 659.603 261.552 Q661.686 261.899 663.445 262.594 Z" fill="#000000" fill-rule="nonzero" fill-opacity="1" /><path clip-path="url(#clip560)" d="M693.167 272.108 L693.167 287.756 L688.908 287.756 L688.908 272.247 Q688.908 268.566 687.473 266.737 Q686.038 264.909 683.167 264.909 Q679.718 264.909 677.728 267.108 Q675.737 269.307 675.737 273.103 L675.737 287.756 L671.455 287.756 L671.455 251.737 L675.737 251.737 L675.737 265.858 Q677.265 263.52 679.325 262.362 Q681.408 261.205 684.117 261.205 Q688.584 261.205 690.876 263.983 Q693.167 266.737 693.167 272.108 Z" fill="#000000" fill-rule="nonzero" fill-opacity="1" /><path clip-path="url(#clip560)" d="M704.348 281.876 L709.047 281.876 L709.047 287.756 L704.348 287.756 L704.348 281.876 M704.348 253.196 L709.047 253.196 L709.047 268.358 L708.584 276.622 L704.834 276.622 L704.348 268.358 L704.348 253.196 Z" fill="#000000" fill-rule="nonzero" fill-opacity="1" /><polyline clip-path="url(#clip560)" style="stroke:#3da44d; stroke-linecap:round; stroke-linejoin:round; stroke-width:4; stroke-opacity:1; fill:none" points="430.124,322.316 564.261,322.316 "/>
<path clip-path="url(#clip560)" d="M590.899 335.707 L590.899 349.457 L586.617 349.457 L586.617 313.67 L590.899 313.67 L590.899 317.605 Q592.242 315.29 594.279 314.179 Q596.339 313.045 599.186 313.045 Q603.909 313.045 606.848 316.795 Q609.811 320.545 609.811 326.656 Q609.811 332.767 606.848 336.517 Q603.909 340.267 599.186 340.267 Q596.339 340.267 594.279 339.156 Q592.242 338.022 590.899 335.707 M605.39 326.656 Q605.39 321.957 603.446 319.295 Q601.524 316.61 598.145 316.61 Q594.765 316.61 592.821 319.295 Q590.899 321.957 590.899 326.656 Q590.899 331.355 592.821 334.04 Q594.765 336.702 598.145 336.702 Q601.524 336.702 603.446 334.04 Q605.39 331.355 605.39 326.656 Z" fill="#000000" fill-rule="nonzero" fill-opacity="1" /><path clip-path="url(#clip560)" d="M616.432 329.364 L616.432 313.67 L620.691 313.67 L620.691 329.202 Q620.691 332.883 622.126 334.735 Q623.561 336.563 626.432 336.563 Q629.881 336.563 631.871 334.364 Q633.885 332.165 633.885 328.369 L633.885 313.67 L638.145 313.67 L638.145 339.596 L633.885 339.596 L633.885 335.614 Q632.334 337.975 630.274 339.133 Q628.237 340.267 625.529 340.267 Q621.061 340.267 618.746 337.489 Q616.432 334.711 616.432 329.364 M627.149 313.045 L627.149 313.045 Z" fill="#000000" fill-rule="nonzero" fill-opacity="1" /><path clip-path="url(#clip560)" d="M663.445 314.434 L663.445 318.462 Q661.64 317.536 659.695 317.073 Q657.751 316.61 655.668 316.61 Q652.496 316.61 650.899 317.582 Q649.325 318.554 649.325 320.499 Q649.325 321.98 650.459 322.837 Q651.594 323.67 655.019 324.434 L656.478 324.758 Q661.015 325.73 662.913 327.512 Q664.834 329.272 664.834 332.443 Q664.834 336.054 661.964 338.161 Q659.117 340.267 654.117 340.267 Q652.033 340.267 649.765 339.85 Q647.519 339.457 645.019 338.647 L645.019 334.249 Q647.381 335.475 649.672 336.1 Q651.964 336.702 654.209 336.702 Q657.218 336.702 658.839 335.684 Q660.459 334.642 660.459 332.767 Q660.459 331.031 659.279 330.105 Q658.121 329.179 654.163 328.323 L652.681 327.975 Q648.723 327.142 646.964 325.429 Q645.205 323.693 645.205 320.684 Q645.205 317.026 647.797 315.036 Q650.39 313.045 655.158 313.045 Q657.519 313.045 659.603 313.392 Q661.686 313.739 663.445 314.434 Z" fill="#000000" fill-rule="nonzero" fill-opacity="1" /><path clip-path="url(#clip560)" d="M693.167 323.948 L693.167 339.596 L688.908 339.596 L688.908 324.087 Q688.908 320.406 687.473 318.577 Q686.038 316.749 683.167 316.749 Q679.718 316.749 677.728 318.948 Q675.737 321.147 675.737 324.943 L675.737 339.596 L671.455 339.596 L671.455 303.577 L675.737 303.577 L675.737 317.698 Q677.265 315.36 679.325 314.202 Q681.408 313.045 684.117 313.045 Q688.584 313.045 690.876 315.823 Q693.167 318.577 693.167 323.948 Z" fill="#000000" fill-rule="nonzero" fill-opacity="1" /><path clip-path="url(#clip560)" d="M713.445 326.563 Q708.283 326.563 706.292 327.744 Q704.302 328.924 704.302 331.772 Q704.302 334.04 705.783 335.383 Q707.288 336.702 709.857 336.702 Q713.399 336.702 715.528 334.202 Q717.681 331.679 717.681 327.512 L717.681 326.563 L713.445 326.563 M721.94 324.804 L721.94 339.596 L717.681 339.596 L717.681 335.661 Q716.223 338.022 714.047 339.156 Q711.871 340.267 708.723 340.267 Q704.741 340.267 702.38 338.045 Q700.042 335.799 700.042 332.049 Q700.042 327.674 702.959 325.452 Q705.899 323.23 711.709 323.23 L717.681 323.23 L717.681 322.813 Q717.681 319.874 715.737 318.276 Q713.815 316.656 710.32 316.656 Q708.098 316.656 705.991 317.188 Q703.885 317.721 701.94 318.786 L701.94 314.85 Q704.278 313.948 706.477 313.508 Q708.677 313.045 710.76 313.045 Q716.385 313.045 719.163 315.962 Q721.94 318.878 721.94 324.804 Z" fill="#000000" fill-rule="nonzero" fill-opacity="1" /><path clip-path="url(#clip560)" d="M734.926 306.309 L734.926 313.67 L743.7 313.67 L743.7 316.98 L734.926 316.98 L734.926 331.054 Q734.926 334.225 735.783 335.128 Q736.663 336.031 739.325 336.031 L743.7 336.031 L743.7 339.596 L739.325 339.596 Q734.394 339.596 732.519 337.767 Q730.644 335.915 730.644 331.054 L730.644 316.98 L727.519 316.98 L727.519 313.67 L730.644 313.67 L730.644 306.309 L734.926 306.309 Z" fill="#000000" fill-rule="nonzero" fill-opacity="1" /><path clip-path="url(#clip560)" d="M751.987 333.716 L756.686 333.716 L756.686 339.596 L751.987 339.596 L751.987 333.716 M751.987 305.036 L756.686 305.036 L756.686 320.198 L756.223 328.462 L752.473 328.462 L751.987 320.198 L751.987 305.036 Z" fill="#000000" fill-rule="nonzero" fill-opacity="1" /></svg>
